<?xml version="1.0" encoding="utf-8"?>
<svg width="567" height="319" viewBox="0 0 567 319" fill="none" xmlns="http://www.w3.org/2000/svg">
  <path d="M0 5C0 2.23858 2.23858 0 5 0H562C564.761 0 567 2.23858 567 5V318.881H0V5Z" fill="white"/>
  <mask id="mask0_1083_13815" style="mask-type:alpha" maskUnits="userSpaceOnUse" x="0" y="0" width="567" height="319">
    <path d="M5 1H562C564.209 1 566 2.79086 566 5V317.881H1V5C1 2.79086 2.79086 1 5 1Z" fill="white" stroke="#02C1C1" stroke-width="2"/>
  </mask>
  <g mask="url(#mask0_1083_13815)">
    <path d="M390.334 279.356C444.449 273.896 494.299 277.909 531.136 288.775C549.558 294.209 564.674 301.342 575.443 309.819C586.208 318.293 592.56 328.052 593.64 338.758C594.721 349.465 590.446 360.296 581.591 370.75C572.734 381.207 559.347 391.217 542.382 400.222C508.459 418.229 460.416 432.12 406.3 437.581C352.184 443.042 302.334 439.029 265.497 428.162C247.075 422.728 231.958 415.594 221.19 407.118C210.699 398.859 204.4 389.381 203.086 378.995C237.67 368.679 260.02 357.985 275.738 347.539C291.588 337.006 300.652 326.754 308.675 317.524C316.695 308.298 323.616 300.17 335.244 293.627C346.877 287.082 363.3 282.084 390.334 279.356Z" fill="white" stroke="#202020" stroke-width="2" color-id="field2"/>
    <path d="M43.5957 247.601C109.52 260.887 167.398 281.671 207.676 304.505C227.82 315.925 243.512 327.829 253.613 339.522C263.725 351.229 268.116 362.578 266.024 372.962C263.931 383.347 255.486 392.108 241.629 398.984C227.787 405.852 208.71 410.75 185.715 413.476C139.736 418.926 78.3265 415.669 12.4019 402.382C-53.5225 389.096 -111.4 368.314 -151.678 345.48C-171.822 334.06 -187.513 322.155 -197.614 310.461C-207.726 298.755 -212.118 287.407 -210.025 277.022C-207.932 266.638 -199.488 257.875 -185.631 251C-171.789 244.131 -152.712 239.234 -129.717 236.509C-83.7382 231.058 -22.3288 234.315 43.5957 247.601Z" fill="white" stroke="#202020" stroke-width="2" color-id="field1"/>
    <path d="M412.437 81.0524C418.632 63.535 452.123 72.8707 452.123 72.8707L497.087 92.7786C497.087 92.7786 502.483 117.637 497.087 122.968C491.691 128.298 474.37 129.471 467.774 128.072C459.73 126.367 454.161 99.3536 454.161 99.3536C454.161 99.3536 451.429 120.611 439.728 122.968C423.134 126.311 405.808 99.7943 412.437 81.0524Z" fill="white" stroke="#202020" stroke-width="2" stroke-linejoin="round" color-id="butterflywing1"/>
    <path d="M429.885 41.8164C425.147 59.7815 458.082 70.9164 458.082 70.9164L506.452 79.7718C506.452 79.7718 523.756 65.3182 521.952 53.1569C520.452 43.0399 510.223 34.3819 500.816 36.0262C492.716 37.4421 477.343 47.1547 477.343 47.1547C477.343 47.1547 484.378 31.0699 476.033 22.5351C464.199 10.432 434.954 22.5954 429.885 41.8164Z" fill="white" stroke="#202020" stroke-width="2" stroke-linejoin="round" color-id="butterflywing2"/>
    <path d="M411.496 66.0838C407.733 66.4481 400.26 68.0028 400.477 71.3072C400.693 74.6116 411.496 66.0838 411.496 66.0838Z" fill="#202020" stroke="#202020" stroke-linecap="round" stroke-linejoin="round"/>
    <path d="M413.826 52.5939C410.387 51.0209 403.831 47.1119 405.115 44.0593C406.398 41.0067 413.826 52.5939 413.826 52.5939Z" fill="#202020" stroke="#202020" stroke-linecap="round" stroke-linejoin="round"/>
    <path d="M513.398 90.1575C516.923 88.7917 529.983 87.0219 531.274 90.0712C532.565 93.1205 513.398 90.1575 513.398 90.1575Z" fill="#202020" stroke="#202020" stroke-linecap="round" stroke-linejoin="round"/>
    <path d="M511.911 92.1565C515.315 93.8026 525.518 102.143 524.169 105.168C522.821 108.192 511.911 92.1565 511.911 92.1565Z" fill="#202020" stroke="#202020" stroke-linecap="round" stroke-linejoin="round"/>
    <circle cx="414.852" cy="65.9974" r="3.06831" transform="rotate(-25.3617 414.852 65.9974)" fill="#202020"/>
    <circle cx="414.852" cy="65.9974" r="3.06831" transform="rotate(-25.3617 414.852 65.9974)" stroke="#202020"/>
    <circle cx="417.38" cy="54.6224" r="3.06831" transform="rotate(-25.3617 417.38 54.6224)" fill="#202020"/>
    <circle cx="417.38" cy="54.6224" r="3.06831" transform="rotate(-25.3617 417.38 54.6224)" stroke="#202020"/>
    <path d="M421.193 60.9224C415.235 68.9735 474.293 89.9344 489.622 93.4012C504.95 96.8679 510.9 90.8369 510.9 90.8369C510.9 90.8369 510.899 80.6131 498.146 76.3924L498.046 76.3595C485.092 72.0724 427.137 52.892 421.193 60.9224Z" fill="white" stroke="#202020" stroke-width="2" stroke-linejoin="round" color-id="butterflybody"/>
    <circle cx="471.739" cy="113.174" r="1.53415" transform="rotate(-25.3617 471.739 113.174)" fill="white" fill-opacity="0.3"/>
    <circle cx="476.702" cy="116.479" r="1.53415" transform="rotate(-25.3617 476.702 116.479)" fill="white" fill-opacity="0.3"/>
    <circle cx="477.829" cy="111.276" r="1.53415" transform="rotate(-25.3617 477.829 111.276)" fill="white" fill-opacity="0.3"/>
    <circle cx="508.114" cy="58.5807" r="1.53415" transform="rotate(-25.3617 508.114 58.5807)" fill="white" fill-opacity="0.3"/>
    <circle cx="504.561" cy="53.4714" r="1.53415" transform="rotate(-25.3617 504.561 53.4714)" fill="white" fill-opacity="0.3"/>
    <circle cx="503.54" cy="58.4792" r="1.53415" transform="rotate(-25.3617 503.54 58.4792)" fill="white" fill-opacity="0.3"/>
    <ellipse cx="431.495" cy="104.57" rx="6.44263" ry="7.47345" transform="rotate(-175.522 431.495 104.57)" fill="white" fill-opacity="0.3"/>
    <ellipse cx="461.317" cy="33.9916" rx="6.44263" ry="7.47346" transform="rotate(-175.522 461.317 33.9916)" fill="white" fill-opacity="0.3"/>
    <path d="M194.782 65.1182C192.406 73.1399 194.287 86.563 200.554 90.7928C207.648 95.581 219.762 91.5434 224.406 91.0481C228.973 90.561 233.626 90.7011 238.161 89.9796C242.388 89.3072 242.454 86.5338 246.534 85.2897C250.814 83.9848 260.161 65.1182 251.524 65.1182C245.173 65.1182 252.788 60.6678 252.312 57.5831C251.663 53.3784 247.959 51.02 243.699 50.9057C240.64 50.8235 236.513 54.0385 236.513 54.0385C236.513 54.0385 239.362 49.0097 237.9 46.3212C235.905 42.653 230.953 43.9064 227.206 45.7672C224.14 47.2898 221.583 52.4861 221.583 52.4861C221.583 52.4861 221.019 48.3781 219.151 46.9078C215.538 44.0645 209.621 47.8946 208.719 52.4039C208.307 54.4641 209.606 57.7075 209.606 57.7075C209.606 57.7075 205.503 55.9346 202.852 56.384C198.272 57.1605 196.099 60.669 194.782 65.1182Z" fill="white" stroke="#202020" stroke-width="2" stroke-linejoin="round" color-id="shrub2"/>
    <path d="M496.798 215.535C487.911 215.01 478.953 219.737 471.936 228.929C465.077 237.914 460.695 250.372 459.748 263.674L493.677 268.438L529.619 267.8C530.167 254.556 525.706 241.566 519.91 231.764C514.025 221.81 505.685 216.06 496.798 215.535Z" fill="white" stroke="#202020" stroke-width="2" color-id="snailback"/>
    <path d="M512.626 264.883C527.124 253.71 516.836 222.535 498.564 221.458C491.362 221.033 479.18 221.99 474.778 232.542C468.72 247.065 484.523 269.47 501.506 260.817C518.489 252.165 513.377 232.932 501.558 228.449C476.712 219.025 475.237 251.953 486.468 253.113C494.097 253.901 504.091 250.349 503.142 242.738C502.58 238.23 500.227 234.353 495.72 233.78C489.959 233.048 481.24 244.467 486.903 245.755C490.627 246.601 493.985 245.088 495.818 241.738" stroke="white" stroke-opacity="0.3" stroke-width="2" stroke-linecap="round"/>
    <path d="M461.618 262.995C466.865 266.486 508.509 267.092 527.832 266.908C531.992 263.789 535.165 273.546 526.798 284.413C516.339 297.996 452.142 285.799 447.863 274.687C445.401 268.294 421.324 229.955 419.846 220.171C413.991 194.302 444.756 183.607 454.139 216.546C457.432 228.104 455.06 258.632 461.618 262.995Z" fill="white" stroke="#202020" stroke-width="2" color-id="snailbody"/>
    <path d="M521.958 281.592C513.663 286.757 515.073 288.226 502.357 284.732L503.46 277.977C513.082 277.03 530.253 276.427 521.958 281.592Z" fill="white" stroke="white" stroke-width="0" stroke-opacity="0.3" fill-opacity="0.3"/>
    <path d="M496.371 282.09C489.156 288.679 498.02 284.815 484.88 283.696L483.919 283.308C482.157 282.597 482.303 280.116 484.155 279.691C492.86 277.691 502.257 276.714 496.371 282.09Z" fill="white" stroke="white" stroke-width="0" fill-opacity="0.3" stroke-opacity="0.3"/>
    <path d="M476.67 281.335C467.474 281.205 477.779 282.673 465.047 279.235L464.171 278.682C462.563 277.669 463.162 275.512 465.049 275.739C474.336 276.857 484.676 281.449 476.67 281.335Z" fill="white" stroke="white" stroke-width="0" stroke-opacity="0.3" fill-opacity="0.3"/>
    <mask id="path-29-outside-1_1083_13815" maskUnits="userSpaceOnUse" x="424.655" y="211.895" width="16.5031" height="9.92823" fill="black">
      <rect fill="white" x="424.655" y="211.895" width="16.5031" height="9.92823"/>
      <path d="M426.525 213.214C426.513 213.213 426.502 213.222 426.502 213.235C426.411 214.878 427.033 216.495 428.232 217.733C429.437 218.975 431.126 219.733 432.927 219.84C434.728 219.946 436.495 219.393 437.838 218.3C439.174 217.213 439.982 215.68 440.086 214.038C440.087 214.025 440.077 214.015 440.065 214.014C440.052 214.013 440.042 214.023 440.041 214.035C439.938 215.667 439.136 217.189 437.808 218.269C436.474 219.354 434.719 219.905 432.929 219.799C431.14 219.693 429.462 218.94 428.265 217.705C427.074 216.476 426.456 214.87 426.546 213.237C426.547 213.225 426.538 213.214 426.525 213.214Z"/>
    </mask>
    <path d="M426.525 213.214C426.513 213.213 426.502 213.222 426.502 213.235C426.411 214.878 427.033 216.495 428.232 217.733C429.437 218.975 431.126 219.733 432.927 219.84C434.728 219.946 436.495 219.393 437.838 218.3C439.174 217.213 439.982 215.68 440.086 214.038C440.087 214.025 440.077 214.015 440.065 214.014C440.052 214.013 440.042 214.023 440.041 214.035C439.938 215.667 439.136 217.189 437.808 218.269C436.474 219.354 434.719 219.905 432.929 219.799C431.14 219.693 429.462 218.94 428.265 217.705C427.074 216.476 426.456 214.87 426.546 213.237C426.547 213.225 426.538 213.214 426.525 213.214Z" fill="#202020"/>
    <path d="M426.525 213.214C426.513 213.213 426.502 213.222 426.502 213.235C426.411 214.878 427.033 216.495 428.232 217.733C429.437 218.975 431.126 219.733 432.927 219.84C434.728 219.946 436.495 219.393 437.838 218.3C439.174 217.213 439.982 215.68 440.086 214.038C440.087 214.025 440.077 214.015 440.065 214.014C440.052 214.013 440.042 214.023 440.041 214.035C439.938 215.667 439.136 217.189 437.808 218.269C436.474 219.354 434.719 219.905 432.929 219.799C431.14 219.693 429.462 218.94 428.265 217.705C427.074 216.476 426.456 214.87 426.546 213.237C426.547 213.225 426.538 213.214 426.525 213.214Z" stroke="#202020" stroke-width="2" mask="url(#path-29-outside-1_1083_13815)"/>
    <path d="M444.36 180.192C443.384 177.054 437.204 173.614 435.711 175.376C431.879 179.897 441.531 181.09 444.36 180.192Z" fill="#202020"/>
    <path d="M442.191 197.672C441.847 191.986 445.889 185.108 444.36 180.192M444.36 180.192C443.384 177.054 437.204 173.614 435.711 175.376C431.879 179.897 441.531 181.09 444.36 180.192Z" stroke="#202020" stroke-width="2" stroke-linecap="round"/>
    <path d="M418.256 179.792C418.64 176.413 424.609 173.638 426.44 175.159C431.141 179.064 421.263 180.187 418.256 179.792Z" fill="#202020"/>
    <path d="M424.168 199.091C423.435 193.229 417.654 185.087 418.256 179.792M418.256 179.792C418.64 176.413 424.609 173.638 426.44 175.159C431.141 179.064 421.263 180.187 418.256 179.792Z" stroke="#202020" stroke-width="2" stroke-linecap="round"/>
    <circle cx="2.268" cy="2.268" r="2.268" transform="matrix(-0.998258 -0.0589938 -0.0589938 0.998258 439.592 203.203)" fill="#202020"/>
    <circle cx="2.268" cy="2.268" r="2.268" transform="matrix(-0.998258 -0.0589938 -0.0589938 0.998258 431.668 202.734)" fill="#202020"/>
    <path d="M61.9045 229.879C62.8694 237.264 62.875 241.276 60.7312 248.127" stroke="#202020" stroke-width="2" stroke-linecap="round" stroke-linejoin="round"/>
    <path d="M56.6562 231.552C66.6811 241.263 89.2439 237.728 96.8848 227.114C76.3257 202.166 103.955 193.055 102.173 193.165C88.0406 194.037 94.485 191.211 73.5486 184.533C52.6122 177.855 42.788 200.12 40.4272 199.656C39.587 199.491 38.0437 199.576 36.4428 199.793C34.6323 200.039 34.4683 202.404 35.8473 203.603C36.9083 204.525 37.9447 205.638 38.896 206.892C40.9268 209.568 43.9039 219.2 56.6562 231.552Z" fill="white" stroke="#202020" stroke-width="2" color-id="antback"/>
    <path d="M32.32 199.456C32.7948 199.026 41.4588 199.452 41.4588 199.452C40.2354 201.833 40.0876 203.762 38.8642 206.143C38.3253 205.547 36.8229 204.488 36.1417 203.736C35.6038 203.142 31.7265 199.995 32.32 199.456Z" fill="#202020" stroke="#202020" stroke-width="2" stroke-linecap="round"/>
    <path d="M45.7224 252.513C46.1694 254.014 46.1038 255.893 43.1026 256.787C40.1015 257.681 37.3062 257.189 36.8592 255.689C36.4123 254.188 38.1086 254.889 41.1097 253.995C44.1109 253.101 45.2754 251.012 45.7224 252.513Z" fill="#202020"/>
    <path d="M90.3708 268.302C90.8178 269.803 90.7522 271.682 87.7511 272.576C84.7499 273.47 81.9547 272.978 81.5077 271.478C81.0607 269.977 82.757 270.678 85.7582 269.784C88.7593 268.89 89.9239 266.802 90.3708 268.302Z" fill="#202020"/>
    <path d="M128.113 286.021C128.56 287.521 128.494 289.401 125.493 290.295C122.492 291.189 119.697 290.697 119.25 289.196C118.803 287.696 120.499 288.397 123.5 287.503C126.501 286.609 127.666 284.52 128.113 286.021Z" fill="#202020"/>
    <path d="M66.9437 245.589C67.287 247.085 67.2163 248.964 64.8052 249.886C62.3942 250.809 60.1613 250.344 59.818 248.849C59.4747 247.353 60.8258 248.038 63.2369 247.115C65.6479 246.193 66.6004 244.094 66.9437 245.589Z" fill="#202020"/>
    <path d="M108.36 257.808C108.703 259.303 108.632 261.183 106.221 262.105C103.81 263.028 101.577 262.563 101.234 261.068C100.891 259.572 102.242 260.257 104.653 259.334C107.064 258.411 108.016 256.312 108.36 257.808Z" fill="#202020"/>
    <path d="M151.651 273.534C151.994 275.03 151.923 276.909 149.512 277.832C147.101 278.754 144.868 278.29 144.525 276.794C144.182 275.299 145.533 275.983 147.944 275.061C150.355 274.138 151.307 272.039 151.651 273.534Z" fill="#202020"/>
    <path d="M103.672 237.653C105.305 247.5 104.923 252.288 101.829 260.371" stroke="#202020" stroke-width="2" stroke-linecap="round" stroke-linejoin="round"/>
    <path d="M147.485 239.819C149.201 255.382 148.678 263.164 145.342 276.063" stroke="#202020" stroke-width="2" stroke-linecap="round" stroke-linejoin="round"/>
    <path d="M48.4886 222.487C44.1222 234.477 43.02 238.907 44.7973 251.827" stroke="#202020" stroke-width="2" stroke-linecap="round" stroke-linejoin="round"/>
    <path d="M93.8561 229.227C88.4421 243.711 86.151 251.93 89.726 267.628" stroke="#202020" stroke-width="2" stroke-linecap="round" stroke-linejoin="round"/>
    <path d="M132.157 235.622C125.204 254.82 124.447 265.649 127.478 285.35" stroke="#202020" stroke-width="2" stroke-linecap="round" stroke-linejoin="round"/>
    <path d="M131.371 197.461C142.353 207.381 143.777 223.48 134.806 233.413C125.835 243.345 109.673 243.561 98.6908 233.642C87.7088 223.722 86.2858 207.622 95.2573 197.69C104.229 187.758 120.389 187.542 131.371 197.461Z" fill="white" stroke="#202020" stroke-width="2" color-id="antmid"/>
    <path d="M174.909 196.704C185.654 206.409 186.497 222.987 176.792 233.731C167.087 244.476 150.509 245.318 139.764 235.613C129.02 225.907 128.177 209.33 137.882 198.586C147.587 187.841 164.165 186.999 174.909 196.704Z" fill="white" stroke="#202020" stroke-width="2" color-id="antface"/>
    <circle cx="150.626" cy="207.57" r="2.835" transform="rotate(2.77218 150.626 207.57)" fill="#202020"/>
    <circle cx="166.484" cy="208.344" r="2.835" transform="rotate(2.77218 166.484 208.344)" fill="#202020"/>
    <path d="M165.565 218.512C166.112 218.538 166.541 219.005 166.441 219.544C166.326 220.167 166.131 220.774 165.859 221.35C165.446 222.225 164.864 223.011 164.147 223.661C163.431 224.312 162.593 224.815 161.681 225.142C160.77 225.468 159.804 225.612 158.837 225.566C157.87 225.519 156.922 225.282 156.047 224.869C155.171 224.456 154.386 223.874 153.735 223.157C153.085 222.44 152.582 221.603 152.255 220.691C152.04 220.092 151.904 219.469 151.85 218.837C151.803 218.292 152.274 217.868 152.821 217.895C153.368 217.921 153.781 218.389 153.855 218.932C153.905 219.303 153.995 219.668 154.122 220.022C154.36 220.688 154.728 221.3 155.204 221.824C155.679 222.348 156.253 222.773 156.893 223.076C157.533 223.378 158.226 223.551 158.933 223.585C159.64 223.619 160.346 223.514 161.012 223.275C161.678 223.036 162.291 222.668 162.815 222.193C163.338 221.717 163.764 221.143 164.066 220.503C164.226 220.163 164.35 219.808 164.436 219.444C164.563 218.911 165.018 218.485 165.565 218.512Z" fill="#202020"/>
    <path d="M169.019 191.157C170.332 179.678 174.93 158.178 182.822 164.01" stroke="#202020" stroke-width="2" stroke-linecap="round"/>
    <path d="M149.763 190.228C149.566 178.675 147.066 156.832 138.647 161.874" stroke="#202020" stroke-width="2" stroke-linecap="round"/>
    <path d="M69.7432 193.909C69.6372 196.099 63.6371 197.117 61.4476 197.011C59.2582 196.905 57.5692 195.044 57.6752 192.855C57.7812 190.666 59.6421 188.977 61.8315 189.083C64.021 189.189 69.8492 191.72 69.7432 193.909Z" fill="white" fill-opacity="0.3"/>
    <path d="M121.34 217.155C121.234 219.344 103.684 215.742 101.494 215.636C99.305 215.53 97.6161 213.669 97.7221 211.48C97.8281 209.291 99.689 207.602 101.878 207.708C104.068 207.814 121.446 214.965 121.34 217.155Z" fill="white" fill-opacity="0.3"/>
    <path d="M68.6087 221.692C68.5026 223.881 62.3187 224.297 60.1293 224.191C57.9398 224.085 56.2509 222.224 56.3569 220.035C56.4629 217.845 58.3237 216.156 60.5132 216.262C62.7026 216.368 68.7147 219.502 68.6087 221.692Z" fill="white" fill-opacity="0.3"/>
    <path d="M248.345 98.3559V87.6868C248.345 86.3615 247.086 85.3961 245.805 85.7357C240.55 87.1285 228.501 90.1484 222.83 90.1484C215.459 90.1484 176.53 100.356 156.491 100.356C108.949 100.356 36.2873 99.3797 36.2873 93.9143C36.2873 88.4489 -6.80469 88.4489 -6.80469 88.4489V128.706C-6.80469 128.706 61.8023 111.394 74.8433 123.452C87.8843 135.51 168.965 109.995 192.212 104.892C207.719 101.488 216.593 100.356 228.5 100.356H246.35C247.455 100.356 248.345 99.4604 248.345 98.3559Z" fill="white" stroke="#202020" stroke-width="2" stroke-linecap="round" color-id="branch1"/>
    <path d="M159.38 17.5706C158.972 14.5526 162.819 13.0105 160.852 13.2762C157.829 13.6843 157.985 15.8123 156.222 16.9729C156.222 16.9729 159.739 20.2289 159.38 17.5706Z" fill="#202020"/>
    <path d="M152.439 43.0195C149.472 35.2265 149.173 21.6119 156.222 16.9729M156.222 16.9729C157.985 15.8123 157.829 13.6843 160.852 13.2762C162.819 13.0105 158.972 14.5526 159.38 17.5706C159.739 20.2289 156.222 16.9729 156.222 16.9729Z" stroke="#202020" stroke-width="2" stroke-linejoin="round"/>
    <path d="M71.6688 86.0347C72.3783 92.5854 71.9481 98.0669 70.7078 98.2782C69.4676 98.4894 67.887 93.3503 67.1775 86.7997C66.468 80.249 62.5243 75.5124 68.1385 74.5562C73.7526 73.6 70.9593 79.4841 71.6688 86.0347Z" fill="#202020"/>
    <path d="M100.38 87.1857C101.089 93.7363 100.659 99.2179 99.4186 99.4291C98.1783 99.6403 96.5977 94.5012 95.8882 87.9506C95.1787 81.4 90.5856 75.9452 96.8492 75.7071C103.025 74.6548 99.67 80.635 100.38 87.1857Z" fill="#202020"/>
    <path d="M85.8809 24.1119C98.4959 25.6009 109.971 32.4627 117.773 43.2175C125.389 53.7161 128.888 67.0824 127.544 80.5018L79.8887 74.8766C75.0338 74.3036 69.4309 74.5468 63.8391 74.997C58.193 75.4516 52.6334 76.1087 47.6366 76.4053C42.6326 76.7022 38.4612 76.612 35.6674 75.6631C34.292 75.1959 33.3424 74.55 32.769 73.726C32.2055 72.9158 31.9194 71.8104 32.1044 70.2432C33.7276 56.4915 40.3224 43.912 50.4166 35.2669C60.5081 26.6241 73.2659 22.6228 85.8809 24.1119Z" fill="white" stroke="#202020" stroke-width="2" color-id="beetlebody"/>
    <mask id="mask1_1083_13815" style="mask-type:alpha" maskUnits="userSpaceOnUse" x="31" y="22" width="98" height="60">
      <path d="M128.432 81.6136C130.083 67.6231 126.54 53.6005 118.582 42.6306C110.624 31.6607 98.9035 24.6421 85.9981 23.1188C73.0926 21.5954 60.0597 25.6922 49.7664 34.5077C39.4731 43.3233 32.7627 56.1356 31.1112 70.126C29.4598 84.1165 60.7684 73.6267 79.7714 75.8698C98.7744 78.1129 128.432 81.6136 128.432 81.6136Z" fill="white" fill-opacity="1"/>
    </mask>
    <g mask="url(#mask1_1083_13815)">
      <ellipse cx="37.7566" cy="71.6709" rx="12.474" ry="10.773" transform="rotate(-7.69028 37.7566 71.6709)" fill="white" fill-opacity="0.3"/>
      <ellipse cx="78.9301" cy="24.9201" rx="17.577" ry="8.505" transform="rotate(-7.69028 78.9301 24.9201)" fill="white" fill-opacity="0.3"/>
      <ellipse cx="114.86" cy="45.2399" rx="8.505" ry="11.907" transform="rotate(-7.69028 114.86 45.2399)" fill="white" fill-opacity="0.3"/>
      <ellipse cx="45.0928" cy="45.5058" rx="9.639" ry="8.505" transform="rotate(-7.69028 45.0928 45.5058)" fill="white" fill-opacity="0.3"/>
      <ellipse cx="115.252" cy="77.8022" rx="9.072" ry="6.804" transform="rotate(-7.69028 115.252 77.8022)" fill="white" fill-opacity="0.3"/>
      <circle cx="73.9143" cy="72.5169" r="8.505" transform="rotate(-7.69028 73.9143 72.5169)" fill="white" fill-opacity="0.3"/>
    </g>
    <path d="M85.8809 24.1119C98.4959 25.6009 109.971 32.4627 117.773 43.2175C125.389 53.7161 128.888 67.0824 127.544 80.5018L79.8887 74.8766C75.0338 74.3036 69.4309 74.5468 63.8391 74.997C58.193 75.4516 52.6334 76.1087 47.6366 76.4053C42.6326 76.7022 38.4612 76.612 35.6674 75.6631C34.292 75.1959 33.3424 74.55 32.769 73.726C32.2055 72.9158 31.9194 71.8104 32.1044 70.2432C33.7276 56.4915 40.3224 43.912 50.4166 35.2669C60.5081 26.6241 73.2659 22.6228 85.8809 24.1119Z" stroke="#202020" stroke-width="2"/>
    <path d="M63.0829 85.7144C63.7924 92.2651 63.3621 97.7466 62.1219 97.9579C60.8817 98.1691 59.3011 93.03 58.5916 86.4794C57.8821 79.9287 53.9384 75.1921 59.5525 74.2359C65.1667 73.2797 62.3734 79.1638 63.0829 85.7144Z" fill="#202020"/>
    <path d="M91.7975 86.8653C92.507 93.416 92.0768 98.8976 90.8365 99.1088C89.5963 99.32 88.0157 94.1809 87.3062 87.6303C86.5967 81.0796 82.0036 75.6249 88.2672 75.3868C94.4428 74.3345 91.088 80.3147 91.7975 86.8653Z" fill="#202020"/>
    <path d="M130.25 89.8615C130.978 95.253 130.574 99.758 129.347 99.9237C128.12 100.089 125.358 95.5144 124.63 90.1229C123.902 84.7314 119.649 78.3717 126.71 80.3993C130.664 80.3624 129.522 84.47 130.25 89.8615Z" fill="#202020"/>
    <path d="M138.836 90.1818C139.564 95.5733 139.16 100.078 137.933 100.244C136.706 100.41 133.944 95.8348 133.216 90.4432C132.488 85.0517 128.235 78.692 135.296 80.7196C139.25 80.6827 138.108 84.7903 138.836 90.1818Z" fill="#202020"/>
    <path d="M139.244 38.9549C152.737 37.1332 165.148 48.0355 166.95 61.3797C168.738 74.6225 159.213 86.8778 145.622 88.713C138.807 89.6332 132.778 87.9701 128.235 84.4615C123.69 80.9515 120.573 75.5479 119.672 68.8803C119.199 65.3752 118.612 62.0037 118.392 58.7663C118.173 55.5451 118.331 52.5904 119.29 49.9851C121.158 44.9092 126.262 40.708 139.244 38.9549Z" fill="white" stroke="#202020" stroke-width="2" color-id="beetleface"/>
    <path d="M154.54 67.911C153.658 78.3286 158.943 79.3315 164.668 75.1255" stroke="#202020" stroke-width="2" stroke-linecap="round" stroke-linejoin="round"/>
    <mask id="path-80-inside-2_1083_13815" fill="white">
      <ellipse cx="157.441" cy="55.517" rx="1.701" ry="5.103" transform="rotate(-7.69028 157.441 55.517)"/>
    </mask>
    <ellipse cx="157.441" cy="55.517" rx="1.701" ry="5.103" transform="rotate(-7.69028 157.441 55.517)" fill="#202020"/>
    <path d="M159.127 55.2894L157.145 55.557C157.312 56.7997 157.282 57.8656 157.151 58.5591C157.119 58.7256 157.085 58.8536 157.054 58.9462C157.022 59.0415 157 59.0772 157.004 59.0715C157.005 59.0693 157.056 58.9814 157.185 58.8764C157.325 58.762 157.552 58.6331 157.856 58.5921L158.124 60.5741L158.391 62.5561C159.492 62.4075 160.134 61.6377 160.449 61.1047C160.778 60.5469 160.967 59.9036 161.081 59.3048C161.312 58.0856 161.318 56.5719 161.109 55.0217L159.127 55.2894ZM158.124 60.5741L157.856 58.5921C158.16 58.551 158.414 58.615 158.579 58.6881C158.731 58.7553 158.803 58.8265 158.805 58.8283C158.81 58.8329 158.78 58.8041 158.724 58.7207C158.669 58.6397 158.602 58.5254 158.527 58.3732C158.217 57.7395 157.905 56.7197 157.737 55.477L155.755 55.7446L153.773 56.0122C153.982 57.5625 154.39 59.0203 154.936 60.1345C155.204 60.6817 155.557 61.2518 156.023 61.7023C156.468 62.1328 157.291 62.7047 158.391 62.5561L158.124 60.5741ZM155.755 55.7446L157.737 55.477C157.569 54.2342 157.599 53.1683 157.731 52.4749C157.763 52.3083 157.797 52.1803 157.828 52.0878C157.86 51.9924 157.881 51.9567 157.878 51.9625C157.877 51.9647 157.826 52.0525 157.697 52.1576C157.557 52.2719 157.329 52.4009 157.026 52.4419L156.758 50.4599L156.49 48.4779C155.39 48.6264 154.748 49.3962 154.433 49.9293C154.104 50.4871 153.915 51.1304 153.801 51.7292C153.57 52.9484 153.564 54.462 153.773 56.0122L155.755 55.7446ZM156.758 50.4599L157.026 52.4419C156.722 52.4829 156.468 52.419 156.303 52.3459C156.151 52.2787 156.079 52.2075 156.077 52.2057C156.072 52.201 156.102 52.2298 156.158 52.3133C156.213 52.3943 156.28 52.5086 156.354 52.6608C156.665 53.2945 156.977 54.3143 157.145 55.557L159.127 55.2894L161.109 55.0217C160.899 53.4715 160.492 52.0136 159.946 50.8994C159.677 50.3522 159.324 49.7822 158.859 49.3317C158.414 48.9011 157.591 48.3293 156.49 48.4779L156.758 50.4599Z" fill="#202020" mask="url(#path-80-inside-2_1083_13815)"/>
    <path d="M175.685 25.1067C177.189 23.7539 175.648 20.4327 175.648 20.4327C178.207 21.3247 178.146 24.3072 176.691 28.1574C176.691 28.1574 172.986 27.5336 175.685 25.1067Z" fill="#202020"/>
    <path d="M162.939 49.6118C167.47 44.09 174.171 34.8232 176.691 28.1574M176.691 28.1574C178.146 24.3072 178.207 21.3247 175.648 20.4327C175.648 20.4327 177.189 23.7539 175.685 25.1067C172.986 27.5336 176.691 28.1574 176.691 28.1574Z" stroke="#202020" stroke-width="2" stroke-linejoin="round"/>
    <path d="M0.937905 301.153C-4.7674 313.273 -4.29834 337.502 -4.29834 337.502C-4.29834 337.502 39.7947 339.899 46.5808 337.502C53.546 335.042 54.5627 335.111 61.7686 333.484C68.4621 331.974 75.3339 334.501 82.1192 333.484C89.2362 332.418 87.7729 318.108 87.7729 318.108C87.7729 318.108 94.2193 307.61 94.2043 302.627C94.1838 295.834 88.8626 291.247 82.1192 290.076C77.2755 289.235 69.9418 293.354 69.9418 293.354C69.9418 293.354 75.6796 286.072 74.0023 281.485C71.7139 275.227 63.5392 276.055 57.1354 278.124C51.8959 279.816 46.5808 287.43 46.5808 287.43C46.5808 287.43 46.6731 280.809 44.0564 278.052C38.9963 272.721 28.6698 277.395 26.151 284.309C25.0002 287.468 26.2851 292.893 26.2851 292.893C26.2851 292.893 20.1901 289.139 15.8675 289.232C8.40064 289.394 4.10231 294.431 0.937905 301.153Z" fill="white" stroke="#202020" stroke-width="2" stroke-linejoin="round" color-id="shrub1"/>
    <path d="M256.163 126.278C269.068 121.82 282.54 127.549 286.414 138.764C290.289 149.98 283.227 162.804 270.322 167.262C257.417 171.72 243.946 165.99 240.071 154.774C236.197 143.559 243.259 130.736 256.163 126.278Z" fill="white" stroke="#202020" stroke-width="2" color-id="flyface"/>
    <path d="M301.088 163.221C285.853 170.435 300.241 178.645 297.363 178.267L293.752 182.507" stroke="#202020" stroke-width="2" stroke-linecap="round"/>
    <path d="M343.439 146.882C334.914 167.765 351.118 159.759 348.532 162.274L343.595 166.522" stroke="#202020" stroke-width="2" stroke-linecap="round"/>
    <path d="M292.288 160.823C282.17 169.923 287.437 173.575 289.965 174.351L285.935 178.784" stroke="#202020" stroke-width="2" stroke-linecap="round"/>
    <path d="M336.953 152.756C326.835 161.856 332.102 165.508 334.631 166.284L331.988 169.082" stroke="#202020" stroke-width="2" stroke-linecap="round"/>
    <path d="M306.784 114.799C316.089 111.585 325.367 111.283 332.83 113.346C340.297 115.41 345.846 119.802 347.957 125.912C350.068 132.023 348.413 138.903 343.812 145.136C339.214 151.365 331.728 156.856 322.423 160.07C313.118 163.285 303.84 163.586 296.377 161.523C288.91 159.459 283.361 155.068 281.25 148.957C279.139 142.847 280.794 135.966 285.395 129.733C289.993 123.504 297.479 118.014 306.784 114.799Z" fill="white" stroke="#202020" stroke-width="2" color-id="flybody"/>
    <path d="M341.358 125.381C341.769 124.355 342.968 123.842 343.78 124.591C344.815 125.545 345.569 126.925 345.948 128.609C346.509 131.103 346.201 134.058 345.094 136.824C343.986 139.589 342.168 141.939 340.04 143.356C338.603 144.313 337.105 144.791 335.698 144.767C334.594 144.748 334.08 143.548 334.491 142.523L337.924 133.952L341.358 125.381Z" fill="white" fill-opacity="0.3"/>
    <path d="M242.002 117.517C245.63 115.959 241.343 111.72 238.741 112.852C236.14 113.984 236.773 119.762 242.002 117.517Z" fill="#202020"/>
    <path d="M246.71 131.145C248.598 126.233 246.234 120.335 242.002 117.517M242.002 117.517C245.63 115.959 241.343 111.72 238.741 112.852C236.14 113.984 236.773 119.762 242.002 117.517Z" stroke="#202020" stroke-width="2" stroke-linecap="round"/>
    <path d="M232.16 131.862C229.017 133.328 227.032 127.148 229.588 126.03C233.163 124.465 235.699 130.206 232.16 131.862Z" fill="#202020"/>
    <path d="M238.659 144.732C234.668 142.543 231.51 136.942 232.16 131.862M232.16 131.862C229.017 133.328 227.032 127.148 229.588 126.03C233.163 124.465 235.699 130.206 232.16 131.862Z" stroke="#202020" stroke-width="2" stroke-linecap="round"/>
    <path d="M335.603 68.8513C318.085 56.7166 291.785 78.9605 277.261 99.2397C262.736 119.519 284.291 134.573 284.291 134.573L343.778 118.966C349.634 109.676 352.847 80.7973 335.603 68.8513Z" fill="white" stroke="#202020" stroke-width="2" stroke-linecap="round" color-id="flywing"/>
    <circle cx="249.991" cy="145.496" r="4.536" transform="rotate(-23.2366 249.991 145.496)" fill="#202020"/>
    <path d="M255.387 155.754C255.785 155.583 256.256 155.767 256.338 156.192C256.402 156.522 256.421 156.863 256.396 157.209C256.352 157.828 256.165 158.452 255.848 159.047C255.53 159.641 255.087 160.195 254.545 160.676C254.003 161.157 253.372 161.555 252.688 161.849C252.003 162.143 251.28 162.326 250.558 162.388C249.836 162.45 249.129 162.389 248.479 162.21C247.829 162.031 247.248 161.736 246.769 161.343C246.501 161.122 246.267 160.873 246.072 160.6C245.821 160.247 246.011 159.78 246.409 159.609C246.807 159.438 247.261 159.632 247.54 159.964C247.651 160.095 247.775 160.218 247.912 160.33C248.258 160.614 248.678 160.827 249.149 160.957C249.619 161.087 250.13 161.131 250.652 161.086C251.174 161.041 251.698 160.908 252.193 160.696C252.687 160.484 253.144 160.195 253.536 159.847C253.928 159.499 254.249 159.099 254.478 158.669C254.708 158.239 254.843 157.787 254.875 157.34C254.888 157.164 254.885 156.989 254.866 156.819C254.817 156.388 254.989 155.924 255.387 155.754Z" fill="#202020"/>
    <path d="M323.227 74.5362C317.024 81.3924 315.557 86.462 305.331 89.7635C304.677 89.9749 303.975 90.2126 303.234 90.4725C299.793 91.6798 297.15 86.7778 300.213 84.7981C316.012 74.5854 331.411 65.4904 323.227 74.5362Z" fill="white" fill-opacity="0.3"/>
    <circle cx="4.536" cy="4.536" r="4.536" transform="matrix(-0.838973 0.544173 0.544173 0.838973 294.512 88.4609)" fill="white" fill-opacity="0.3"/>
    <path d="M361.235 250.83C361.235 250.83 364.58 227.451 301.049 238.078L303.665 262.964C364.265 267.514 361.235 250.83 361.235 250.83Z" fill="white" stroke="#202020" stroke-width="2" stroke-linecap="round" color-id="fleawing2"/>
    <path d="M208.623 251.81C208.623 251.81 207.715 231.568 268.81 239.06L267.381 266.093C206.781 270.64 208.623 251.81 208.623 251.81Z" fill="white" stroke="#202020" stroke-width="2" stroke-linecap="round" color-id="fleawing1"/>
    <path d="M283.686 220.992C289.526 220.992 294.921 224.424 298.899 230.192C302.875 235.956 305.366 243.974 305.366 252.878C305.366 261.782 302.875 269.8 298.899 275.564C294.921 281.333 289.526 284.765 283.686 284.765C277.845 284.765 272.45 281.333 268.472 275.564C264.496 269.8 262.006 261.782 262.006 252.878C262.006 243.974 264.497 235.956 268.472 230.192C272.45 224.424 277.845 220.992 283.686 220.992Z" fill="white" stroke="#202020" stroke-width="2" color-id="fleabody"/>
    <path d="M293.324 223.452C293.324 217.782 292.757 206.669 290.489 207.576" stroke="#202020" stroke-width="2" stroke-linecap="round"/>
    <circle cx="289.924" cy="208.092" r="1" fill="#202020" stroke="#202020" stroke-width="1.402"/>
    <path d="M272.912 224.53C272.912 218.86 273.479 207.747 275.747 208.654" stroke="#202020" stroke-width="2" stroke-linecap="round"/>
    <circle cx="276.314" cy="208.092" r="1" fill="#202020" stroke="#202020" stroke-width="1.402"/>
    <path d="M281.258 285.203C277.224 290.587 276.874 293.809 281.258 299.945C281.258 299.945 281.32 300.641 281.258 301.079C280.885 303.728 275.021 303.914 275.021 303.914M287.495 285.203C290.703 290.983 290.312 294.17 287.495 299.945C287.495 299.945 287.434 300.641 287.495 301.079C287.869 303.728 293.732 303.914 293.732 303.914" stroke="#202020" stroke-width="2" stroke-linecap="round"/>
    <path d="M272.727 281.234C268.985 286.985 267.874 290.227 272.727 295.976C272.727 295.976 272.789 296.672 272.727 297.11C272.354 299.76 266.49 299.945 266.49 299.945" stroke="#202020" stroke-width="2" stroke-linecap="round"/>
    <path d="M296.001 280.102C299.419 286.199 300.243 289.528 296.001 294.844C296.001 294.844 295.939 295.539 296.001 295.978C296.375 298.627 302.238 298.813 302.238 298.813" stroke="#202020" stroke-width="2" stroke-linecap="round"/>
    <path d="M268.945 262.259C270.655 262.136 274.486 261.786 274.765 262.944" stroke="#202020" stroke-width="2" stroke-linecap="round"/>
    <path d="M268.945 255.455C270.655 255.331 274.486 254.981 274.765 256.14" stroke="#202020" stroke-width="2" stroke-linecap="round"/>
    <path d="M296.383 262.259C294.673 262.136 290.842 261.786 290.563 262.944" stroke="#202020" stroke-width="2" stroke-linecap="round"/>
    <path d="M296.383 255.455C294.673 255.331 290.842 254.981 290.563 256.14" stroke="#202020" stroke-width="2" stroke-linecap="round"/>
    <path d="M278.774 234.173C278.982 234.173 279.151 234.005 279.143 233.797C279.093 232.581 278.802 231.433 278.32 230.565C277.788 229.608 277.067 229.07 276.315 229.07C275.564 229.07 274.842 229.608 274.311 230.565C273.842 231.41 273.554 232.52 273.493 233.7C273.479 233.961 273.693 234.173 273.954 234.173C274.216 234.173 274.428 233.961 274.415 233.7C274.366 232.72 274.216 231.801 274.607 231.097C275.06 230.282 275.675 231.802 276.315 231.802C276.956 231.802 277.571 230.282 278.024 231.097C278.428 231.824 278.409 232.781 278.399 233.797C278.398 234.005 278.566 234.173 278.774 234.173Z" fill="#202020"/>
    <path d="M292.381 234.173C292.589 234.173 292.759 234.005 292.75 233.797C292.7 232.581 292.41 231.433 291.928 230.565C291.396 229.608 290.675 229.07 289.923 229.07C289.171 229.07 288.45 229.608 287.918 230.565C287.449 231.41 287.161 232.52 287.1 233.7C287.087 233.961 287.3 234.173 287.562 234.173C287.824 234.173 288.036 233.961 288.023 233.7C287.974 232.72 287.823 231.801 288.214 231.097C288.667 230.282 289.282 231.802 289.923 231.802C290.564 231.802 291.178 230.282 291.632 231.097C292.035 231.824 292.016 232.781 292.007 233.797C292.005 234.005 292.173 234.173 292.381 234.173Z" fill="#202020"/>
    <path d="M289.186 243.809C289.803 243.809 290.318 244.324 290.103 244.903C290.021 245.121 289.915 245.336 289.785 245.545C289.443 246.096 288.942 246.596 288.31 247.017C287.679 247.438 286.929 247.772 286.103 248C285.278 248.228 284.393 248.345 283.499 248.345C282.606 248.345 281.721 248.228 280.896 248C280.07 247.772 279.32 247.438 278.688 247.017C278.056 246.596 277.555 246.096 277.213 245.545C277.083 245.336 276.977 245.121 276.896 244.903C276.68 244.324 277.196 243.809 277.813 243.809C278.43 243.809 278.917 244.338 279.219 244.876C279.238 244.909 279.257 244.942 279.278 244.975C279.507 245.345 279.844 245.681 280.268 245.963C280.693 246.246 281.196 246.471 281.751 246.624C282.305 246.777 282.899 246.856 283.499 246.856C284.099 246.856 284.694 246.777 285.248 246.624C285.802 246.471 286.306 246.246 286.73 245.963C287.155 245.681 287.491 245.345 287.721 244.975C287.741 244.942 287.761 244.909 287.779 244.876C288.081 244.338 288.569 243.809 289.186 243.809Z" fill="#202020"/>
    <circle cx="233.037" cy="250.047" r="3.969" fill="white" fill-opacity="0.3"/>
    <circle cx="338.498" cy="250.047" r="3.969" fill="white" fill-opacity="0.3"/>
    <rect width="2.268" height="4.536" rx="1" transform="matrix(1 0 0 -1 282.365 240.406)" fill="#202020"/>
    <rect x="239.273" y="250.617" width="18.144" height="1.134" rx="0.567" fill="white" fill-opacity="0.3"/>
    <rect x="314.117" y="250.617" width="18.144" height="1.134" rx="0.567" fill="white" fill-opacity="0.3"/>
  </g>
</svg>