<svg width="16" height="14" viewBox="0 0 16 14" fill="none" xmlns="http://www.w3.org/2000/svg">
<path d="M14.1538 1.82609H12.0215L10.9731 0.27087C10.9169 0.187594 10.8408 0.119307 10.7516 0.0720586C10.6624 0.0248106 10.5627 6.01124e-05 10.4615 0H5.53846C5.43725 6.01124e-05 5.33762 0.0248106 5.24839 0.0720586C5.15916 0.119307 5.08309 0.187594 5.02692 0.27087L3.97769 1.82609H1.84615C1.35652 1.82609 0.886947 2.01848 0.540726 2.36094C0.194505 2.70339 0 3.16787 0 3.65217V12.1739C0 12.6582 0.194505 13.1227 0.540726 13.4652C0.886947 13.8076 1.35652 14 1.84615 14H14.1538C14.6435 14 15.1131 13.8076 15.4593 13.4652C15.8055 13.1227 16 12.6582 16 12.1739V3.65217C16 3.16787 15.8055 2.70339 15.4593 2.36094C15.1131 2.01848 14.6435 1.82609 14.1538 1.82609ZM10.7692 7.6087C10.7692 8.15044 10.6068 8.68003 10.3025 9.13048C9.99824 9.58092 9.56575 9.932 9.05974 10.1393C8.55373 10.3466 7.99693 10.4009 7.45975 10.2952C6.92257 10.1895 6.42914 9.92863 6.04186 9.54555C5.65457 9.16248 5.39083 8.67441 5.28398 8.14307C5.17713 7.61173 5.23197 7.06099 5.44156 6.56048C5.65116 6.05996 6.0061 5.63217 6.4615 5.33119C6.9169 5.03021 7.4523 4.86957 8 4.86957C8.73445 4.86957 9.43881 5.15815 9.95814 5.67184C10.4775 6.18552 10.7692 6.88223 10.7692 7.6087Z" fill="#300D37"/>
</svg>
