<svg width="300" height="150" viewBox="0 0 300 150" fill="none" xmlns="http://www.w3.org/2000/svg">
<rect width="300" height="150" fill="#DFF2F2"/>
<mask id="mask0_8548_122398" style="mask-type:alpha" maskUnits="userSpaceOnUse" x="0" y="0" width="300" height="150">
<rect width="300" height="150" fill="#DFF2F2"/>
</mask>
<g mask="url(#mask0_8548_122398)">
<path d="M133.654 53.5877C136.137 53.6637 138.264 55.1352 139.373 57.2632C140.009 56.9852 140.709 56.84 141.441 56.8624C144.195 56.9465 146.356 59.3534 146.267 62.2379C146.179 65.1225 143.875 67.3928 141.122 67.3086C139.882 67.2706 138.764 66.7605 137.916 65.9493C136.669 67.1094 135.017 67.7951 133.221 67.7403C131.421 67.6852 129.808 66.8959 128.634 65.6558C127.684 66.8116 126.264 67.5266 124.698 67.4787C121.944 67.3946 119.783 64.9877 119.872 62.1032C119.96 59.2188 122.264 56.9493 125.017 57.0334C125.85 57.0589 126.629 57.2977 127.308 57.6975C128.415 55.201 130.864 53.5024 133.654 53.5877Z" fill="#C9F1D7"/>
<path d="M163.355 105.758C164.865 105.758 166.183 106.614 166.897 107.886C167.278 107.705 167.7 107.603 168.146 107.603C169.82 107.603 171.177 109.024 171.177 110.778C171.177 112.532 169.82 113.954 168.146 113.954C167.392 113.954 166.703 113.664 166.173 113.187C165.438 113.915 164.447 114.363 163.355 114.363C162.259 114.363 161.265 113.913 160.529 113.181C159.973 113.901 159.125 114.363 158.172 114.363C156.498 114.363 155.141 112.941 155.141 111.187C155.141 109.433 156.498 108.011 158.172 108.011C158.679 108.011 159.156 108.143 159.575 108.373C160.202 106.836 161.658 105.758 163.355 105.758Z" fill="#C9F1D7"/>
<path d="M215.098 104.267C216.866 104.267 218.409 105.267 219.244 106.755C219.69 106.544 220.184 106.425 220.706 106.425C222.665 106.425 224.253 108.089 224.253 110.141C224.253 112.193 222.665 113.857 220.706 113.857C219.824 113.857 219.018 113.519 218.397 112.96C217.536 113.813 216.376 114.336 215.098 114.336C213.817 114.336 212.654 113.81 211.793 112.955C211.142 113.797 210.148 114.336 209.034 114.336C207.075 114.336 205.487 112.672 205.487 110.621C205.487 108.569 207.075 106.904 209.034 106.904C209.627 106.904 210.185 107.057 210.677 107.327C211.409 105.528 213.114 104.267 215.098 104.267Z" fill="#C9F1D7"/>
<path d="M278.244 60.2608C279.553 60.2609 280.697 61.0009 281.315 62.1035C281.645 61.9472 282.011 61.8585 282.396 61.8584C283.847 61.8584 285.024 63.0911 285.024 64.6113C285.024 66.1315 283.847 67.3643 282.396 67.3643C281.743 67.3642 281.147 67.1126 280.687 66.6992C280.05 67.3306 279.19 67.7196 278.244 67.7197C277.295 67.7196 276.433 67.3295 275.795 66.6953C275.313 67.3191 274.577 67.7196 273.752 67.7197C272.301 67.7195 271.124 66.4866 271.124 64.9668C271.124 63.4467 272.301 62.2141 273.752 62.2139C274.191 62.214 274.604 62.328 274.968 62.5274C275.51 61.1949 276.774 60.261 278.244 60.2608Z" fill="#C9F1D7"/>
<path d="M234.61 24.4586C235.919 24.4588 237.063 25.1996 237.681 26.3024C238.012 26.1458 238.377 26.0573 238.763 26.0573C240.214 26.0574 241.39 27.2892 241.39 28.8092C241.39 30.3294 240.214 31.562 238.763 31.5622C238.11 31.5622 237.514 31.3105 237.054 30.8971C236.417 31.5289 235.557 31.9175 234.61 31.9176C233.661 31.9175 232.8 31.5272 232.162 30.8932C231.68 31.5173 230.944 31.9166 230.118 31.9167C228.667 31.9164 227.491 30.6847 227.491 29.1647C227.491 27.6446 228.667 26.412 230.118 26.4118C230.557 26.4118 230.971 26.5257 231.335 26.7253C231.878 25.3928 233.14 24.4589 234.61 24.4586Z" fill="#C9F1D7"/>
<path d="M187.485 51.6833C189.317 51.6833 190.917 52.7195 191.783 54.2624C192.245 54.0429 192.759 53.9206 193.299 53.9206C195.331 53.9207 196.978 55.646 196.978 57.7741C196.978 59.9023 195.331 61.6275 193.299 61.6276C192.384 61.6276 191.548 61.277 190.905 60.6979C190.012 61.5815 188.81 62.1256 187.485 62.1257C186.156 62.1256 184.95 61.5799 184.056 60.6921C183.382 61.5654 182.351 62.1247 181.195 62.1247C179.164 62.1242 177.517 60.3991 177.517 58.2712C177.517 56.1431 179.164 54.4181 181.195 54.4176C181.81 54.4176 182.389 54.5766 182.899 54.8561C183.659 52.9908 185.427 51.6834 187.485 51.6833Z" fill="#C9F1D7"/>
<path d="M271.297 87.8577C274.071 87.8578 276.493 89.4275 277.804 91.7639C278.504 91.4318 279.281 91.2454 280.099 91.2454C283.175 91.2454 285.668 93.8574 285.668 97.0794C285.668 100.301 283.175 102.914 280.099 102.914C278.715 102.914 277.449 102.383 276.475 101.507C275.124 102.844 273.303 103.666 271.297 103.666C269.286 103.666 267.46 102.84 266.107 101.496C265.086 102.819 263.526 103.665 261.776 103.665C258.7 103.665 256.207 101.053 256.207 97.8313C256.207 94.6092 258.7 91.9973 261.776 91.9973C262.707 91.9974 263.584 92.2382 264.355 92.6614C265.506 89.8372 268.181 87.8577 271.297 87.8577Z" fill="#C9F1D7"/>
<path d="M244.358 104.639C245.47 104.64 246.44 105.271 246.965 106.208C247.246 106.074 247.558 105.999 247.887 105.999C249.12 105.999 250.12 107.046 250.12 108.339C250.12 109.631 249.12 110.677 247.887 110.677C247.331 110.677 246.824 110.463 246.433 110.111C245.891 110.648 245.162 110.979 244.358 110.979C243.551 110.979 242.819 110.647 242.277 110.107C241.867 110.638 241.242 110.979 240.539 110.979C239.306 110.979 238.306 109.931 238.306 108.639C238.306 107.347 239.306 106.3 240.539 106.3C240.913 106.3 241.264 106.397 241.573 106.566C242.035 105.434 243.108 104.639 244.358 104.639Z" fill="#C9F1D7"/>
<path d="M61.9915 31.1717C63.1042 31.1717 64.0741 31.8027 64.5999 32.7401C64.8811 32.6062 65.1927 32.5302 65.5217 32.5301C66.7552 32.5301 67.7551 33.5778 67.7551 34.87C67.7551 36.1621 66.7552 37.2098 65.5217 37.2098C64.9658 37.2098 64.4585 36.9955 64.0676 36.6434C63.5255 37.18 62.7961 37.5116 61.9915 37.5116C61.1846 37.5114 60.4528 37.1789 59.9104 36.6395C59.501 37.1704 58.8753 37.5116 58.1731 37.5116C56.94 37.5113 55.9399 36.4635 55.9397 35.1717C55.9397 33.8797 56.9399 32.8322 58.1731 32.8319C58.5464 32.8319 58.898 32.9289 59.2073 33.0985C59.6686 31.9659 60.7418 31.172 61.9915 31.1717Z" fill="#C9F1D7"/>
<path d="M29.7526 92.7054C31.9999 92.7054 33.9631 93.9774 35.025 95.8704C35.592 95.6014 36.2215 95.4505 36.8844 95.4505C39.3759 95.4507 41.396 97.5669 41.3961 100.177C41.3961 102.787 39.3759 104.903 36.8844 104.904C35.7626 104.904 34.7371 104.474 33.9479 103.764C32.8531 104.847 31.3775 105.513 29.7526 105.513C28.123 105.513 26.6432 104.843 25.5475 103.754C24.7205 104.826 23.4574 105.513 22.0397 105.513C19.5483 105.513 17.5281 103.396 17.528 100.786C17.5282 98.1765 19.5484 96.0601 22.0397 96.0598C22.7934 96.0599 23.504 96.2545 24.1285 96.597C25.0609 94.3094 27.2282 92.7056 29.7526 92.7054Z" fill="#C9F1D7"/>
<path d="M100.285 96.8084C101.855 96.8084 103.227 97.6967 103.969 99.0194C104.366 98.8312 104.806 98.7264 105.269 98.7264C107.011 98.7264 108.422 100.205 108.423 102.029C108.423 103.853 107.011 105.333 105.269 105.333C104.485 105.333 103.769 105.031 103.218 104.534C102.452 105.292 101.421 105.759 100.285 105.759C99.1462 105.759 98.1121 105.291 97.3464 104.53C96.7685 105.279 95.8857 105.759 94.8953 105.759C93.154 105.759 91.7421 104.279 91.7419 102.455C91.7421 100.631 93.154 99.1522 94.8953 99.1522C95.4221 99.1522 95.9187 99.2878 96.3552 99.5272C97.0069 97.9289 98.521 96.8086 100.285 96.8084Z" fill="#C9F1D7"/>
<path d="M51.5835 51.6833C52.5653 51.6833 53.4205 52.24 53.8843 53.0671C54.1325 52.9488 54.4083 52.8825 54.6987 52.8825C55.7869 52.8827 56.6694 53.8069 56.6694 54.9469C56.6692 56.0868 55.7868 57.0112 54.6987 57.0114C54.2078 57.0114 53.7596 56.8216 53.4146 56.5104C52.9363 56.9839 52.2935 57.277 51.5835 57.277C50.8715 57.277 50.2262 56.9834 49.7476 56.5075C49.3863 56.9763 48.8342 57.277 48.2144 57.277C47.1261 57.277 46.2437 56.3526 46.2437 55.2126C46.2437 54.0725 47.1261 53.1482 48.2144 53.1481C48.5437 53.1481 48.8536 53.2338 49.1265 53.3835C49.5335 52.3838 50.4806 51.6833 51.5835 51.6833Z" fill="#C9F1D7"/>
<path d="M12.4257 31.544C13.4076 31.5441 14.2627 32.1016 14.7264 32.9288C14.9748 32.8105 15.2503 32.7432 15.5409 32.7432C16.629 32.7434 17.5114 33.6678 17.5116 34.8077C17.5116 35.9478 16.6291 36.872 15.5409 36.8721C15.0499 36.8721 14.6017 36.6833 14.2567 36.3721C13.7785 36.8456 13.1356 37.1377 12.4257 37.1378C11.7136 37.1378 11.0684 36.8442 10.5897 36.3682C10.2285 36.8371 9.67639 37.1377 9.05652 37.1378C7.96818 37.1378 7.08582 36.2135 7.08582 35.0733C7.0861 33.9334 7.96836 33.0089 9.05652 33.0089C9.38575 33.0089 9.69584 33.0946 9.96863 33.2442C10.3758 32.2448 11.3229 31.544 12.4257 31.544Z" fill="#C9F1D7"/>
<path d="M29.5808 19.2377C30.5625 19.2378 31.4177 19.7945 31.8816 20.6215C32.1297 20.5034 32.4048 20.4369 32.6951 20.4369C33.7834 20.4369 34.6658 21.3612 34.6658 22.5014C34.6657 23.6414 33.7833 24.5658 32.6951 24.5658C32.2045 24.5657 31.7567 24.3766 31.4119 24.0658C30.9336 24.5391 30.2905 24.8313 29.5808 24.8314C28.8689 24.8314 28.2235 24.5377 27.7449 24.0619C27.3837 24.5308 26.8316 24.8314 26.2117 24.8314C25.1234 24.8314 24.241 23.9071 24.241 22.767C24.241 21.6269 25.1234 20.7025 26.2117 20.7025C26.541 20.7026 26.851 20.7882 27.1238 20.9379C27.5309 19.9383 28.4779 19.2377 29.5808 19.2377Z" fill="#C9F1D7"/>
<path d="M121.695 17.3733C122.677 17.3733 123.533 17.9297 123.997 18.7571C124.245 18.639 124.52 18.5725 124.811 18.5725C125.899 18.5725 126.781 19.4968 126.781 20.637C126.781 21.7769 125.899 22.7014 124.811 22.7014C124.32 22.7014 123.871 22.5117 123.526 22.2004C123.048 22.6739 122.405 22.967 121.695 22.967C120.983 22.9669 120.338 22.6734 119.859 22.1975C119.498 22.6662 118.946 22.967 118.326 22.967C117.238 22.9669 116.356 22.0425 116.355 20.9026C116.356 19.7626 117.238 18.8383 118.326 18.8381C118.655 18.8381 118.965 18.9239 119.238 19.0735C119.645 18.0739 120.593 17.3735 121.695 17.3733Z" fill="#C9F1D7"/>
<path d="M83.2834 41.9869C84.2652 41.9871 85.1204 42.5437 85.5842 43.3707C85.8323 43.2526 86.1074 43.1862 86.3977 43.1861C87.486 43.1861 88.3684 44.1104 88.3684 45.2506C88.3682 46.3906 87.4859 47.315 86.3977 47.315C85.9069 47.315 85.4594 47.1251 85.1145 46.8141C84.6362 47.2876 83.9934 47.5806 83.2834 47.5807C82.5715 47.5807 81.9262 47.2869 81.4475 46.8111C81.0863 47.28 80.5342 47.5806 79.9143 47.5807C78.826 47.5807 77.9437 46.6563 77.9436 45.5162C77.9437 44.3761 78.826 43.4518 79.9143 43.4518C80.2436 43.4518 80.5536 43.5375 80.8264 43.6871C81.2335 42.6875 82.1805 41.9869 83.2834 41.9869Z" fill="#C9F1D7"/>
<path d="M211.946 17.7456C212.927 17.7456 213.783 18.3025 214.247 19.1294C214.495 19.0112 214.771 18.9448 215.061 18.9448C216.149 18.945 217.032 19.8693 217.032 21.0093C217.032 22.1493 216.149 23.0735 215.061 23.0737C214.57 23.0737 214.122 22.884 213.777 22.5727C213.299 23.0464 212.656 23.3393 211.946 23.3393C211.234 23.3393 210.588 23.0458 210.11 22.5698C209.749 23.0387 209.197 23.3393 208.577 23.3393C207.488 23.3393 206.606 22.415 206.606 21.2749C206.606 20.135 207.489 19.2105 208.577 19.2104C208.906 19.2104 209.216 19.2962 209.489 19.4458C209.896 18.4463 210.843 17.7457 211.946 17.7456Z" fill="#C9F1D7"/>
<path d="M220.523 49.8179C221.505 49.8179 222.36 50.3749 222.824 51.2017C223.072 51.0835 223.348 51.0171 223.638 51.0171C224.726 51.0173 225.609 51.9417 225.609 53.0816C225.609 54.2216 224.727 55.1458 223.638 55.146C223.148 55.146 222.699 54.9571 222.354 54.646C221.876 55.1194 221.233 55.4116 220.523 55.4116C219.811 55.4115 219.166 55.1181 218.687 54.6421C218.326 55.111 217.774 55.4116 217.154 55.4116C216.066 55.4116 215.183 54.4873 215.183 53.3472C215.184 52.2073 216.066 51.2828 217.154 51.2827C217.483 51.2827 217.793 51.3685 218.066 51.5181C218.473 50.5187 219.421 49.8181 220.523 49.8179Z" fill="#C9F1D7"/>
<path d="M257.817 47.2069C258.799 47.207 259.654 47.7638 260.118 48.5907C260.366 48.4727 260.641 48.4062 260.932 48.4061C262.02 48.4061 262.902 49.3305 262.902 50.4706C262.902 51.6107 262.02 52.535 260.932 52.535C260.441 52.535 259.992 52.3462 259.647 52.035C259.169 52.5081 258.527 52.8006 257.817 52.8007C257.105 52.8007 256.46 52.5071 255.981 52.0311C255.62 52.5 255.068 52.8005 254.448 52.8007C253.36 52.8007 252.478 51.8764 252.478 50.7362C252.478 49.5963 253.36 48.6718 254.448 48.6718C254.777 48.6718 255.088 48.7575 255.36 48.9071C255.768 47.9077 256.715 47.2069 257.817 47.2069Z" fill="#C9F1D7"/>
<path d="M81.0454 20.3565C82.0272 20.3565 82.8824 20.9133 83.3462 21.7403C83.5945 21.6221 83.8702 21.5558 84.1606 21.5558C85.2489 21.5559 86.1313 22.4801 86.1313 23.6202C86.1312 24.7602 85.2488 25.6845 84.1606 25.6847C83.6696 25.6847 83.2215 25.4949 82.8765 25.1837C82.3982 25.6572 81.7554 25.9503 81.0454 25.9503C80.3334 25.9502 79.6881 25.6567 79.2095 25.1808C78.8482 25.6496 78.2962 25.9503 77.6763 25.9503C76.588 25.9503 75.7056 25.0259 75.7056 23.8858C75.7056 22.7457 76.588 21.8214 77.6763 21.8214C78.0056 21.8214 78.3155 21.9071 78.5884 22.0567C78.9954 21.0571 79.9425 20.3566 81.0454 20.3565Z" fill="#C9F1D7"/>
<path d="M179.5 17C180.482 17 181.337 17.5569 181.801 18.3838C182.049 18.2656 182.325 18.1992 182.615 18.1992C183.704 18.1994 184.586 19.1236 184.586 20.2637C184.586 21.4037 183.704 22.3279 182.615 22.3281C182.125 22.3281 181.676 22.1391 181.331 21.8281C180.853 22.3013 180.21 22.5938 179.5 22.5938C178.788 22.5936 178.143 22.3001 177.664 21.8242C177.303 22.293 176.751 22.5938 176.131 22.5938C175.043 22.5935 174.16 21.6693 174.16 20.5293C174.16 19.3893 175.043 18.4651 176.131 18.4648C176.46 18.4648 176.77 18.5507 177.043 18.7002C177.45 17.7007 178.397 17.0002 179.5 17Z" fill="#C9F1D7"/>
<path d="M261.546 19.611C262.528 19.611 263.384 20.1673 263.848 20.9948C264.096 20.8767 264.371 20.8092 264.662 20.8092C265.75 20.8094 266.632 21.7338 266.632 22.8737C266.632 24.0138 265.75 24.938 264.662 24.9381C264.171 24.9381 263.722 24.7493 263.377 24.4381C262.899 24.9116 262.256 25.2047 261.546 25.2047C260.834 25.2047 260.189 24.9111 259.71 24.4352C259.349 24.9039 258.797 25.2047 258.177 25.2047C257.089 25.2047 256.207 24.2802 256.207 23.1403C256.207 22.0002 257.089 21.0758 258.177 21.0758C258.507 21.0758 258.817 21.1615 259.089 21.3112C259.496 20.3116 260.443 19.611 261.546 19.611Z" fill="#C9F1D7"/>
<path d="M78.1468 64.5819C80.1722 64.4676 82.0056 65.5138 83.0589 67.1657C83.5561 66.8946 84.1155 66.7276 84.7127 66.6939C86.9584 66.5672 88.8871 68.3717 89.0198 70.7242C89.1524 73.0766 87.4389 75.0859 85.1934 75.2126C84.1822 75.2695 83.2366 74.934 82.4892 74.3342C81.5576 75.3662 80.2624 76.0415 78.7981 76.1241C77.3293 76.207 75.9617 75.6794 74.9188 74.7536C74.2279 75.7614 73.124 76.4441 71.8462 76.5164C69.6006 76.6431 67.6718 74.8386 67.5391 72.486C67.4064 70.1335 69.1199 68.1234 71.3655 67.9967C72.045 67.9584 72.6952 68.098 73.2756 68.3751C73.9995 66.2657 75.8714 64.7103 78.1468 64.5819Z" fill="#C9F1D7"/>
<path d="M19.4103 60.6331C22.2242 60.6332 24.6813 62.2258 26.0109 64.5959C26.7208 64.259 27.5089 64.0696 28.339 64.0696C31.4587 64.0698 33.9874 66.7202 33.9874 69.9885C33.9872 73.2566 31.4585 75.9062 28.339 75.9065C26.9344 75.9065 25.6505 75.3675 24.6622 74.4788C23.2915 75.8354 21.4447 76.6691 19.4103 76.6692C17.37 76.6692 15.5176 75.8313 14.1456 74.468C13.1101 75.8094 11.5271 76.6681 9.75208 76.6682C6.63221 76.6682 4.10272 74.0187 4.10266 70.7502C4.10286 67.482 6.6323 64.8323 9.75208 64.8323C10.6962 64.8324 11.5861 65.076 12.3683 65.5051C13.5359 62.6409 16.2494 60.6331 19.4103 60.6331Z" fill="#C9F1D7"/>
<path d="M299.084 149.387C299.084 146.406 301.145 143.546 299.084 141.438C297.023 139.33 291.01 133.461 288.095 133.461C285.181 133.461 278.937 137.396 280.325 141.438C278.264 143.546 277.106 146.406 277.106 149.387L288.095 149.387H299.084Z" fill="#D1EDAB"/>
<path d="M221.364 149.387C221.364 146.394 217.436 143.933 215.939 141.407C214.443 138.881 208.815 125.498 205.838 125.498C202.862 125.498 198.821 136.955 196.78 141.407C195.363 144.497 193.493 146.394 193.493 149.387L204.716 149.387H221.364Z" fill="#D1EDAB"/>
<path d="M34.2299 149.387C34.2299 146.394 30.3018 143.933 28.8054 141.407C27.3089 138.881 21.681 125.498 18.7044 125.498C15.7279 125.498 11.6868 136.955 9.6461 141.407C8.22943 144.497 6.35889 146.394 6.35889 149.387L17.5821 149.387H34.2299Z" fill="#D1EDAB"/>
<path d="M99.9258 150.383C99.9258 148.013 96.8394 146.064 95.6636 144.065C94.4878 142.065 90.0659 131.47 87.7272 131.47C85.3884 131.47 82.2133 140.54 80.6099 144.065C79.4968 146.511 78.0271 148.013 78.0271 150.383L86.8454 150.383H99.9258Z" fill="#D1EDAB"/>
<path d="M182.995 153.369C182.995 150.999 184.218 149.051 182.995 147.051C181.772 145.051 172.737 134.457 170.304 134.457C167.87 134.457 159.563 143.527 157.895 147.051C156.737 149.497 160.211 150.999 160.211 153.369L169.386 153.369H182.995Z" fill="#D1EDAB"/>
<path d="M61.1053 153.369C61.1053 151.748 59.001 150.414 58.1993 149.046C57.3977 147.678 54.3827 140.429 52.7881 140.429C51.1935 140.429 49.0287 146.635 47.9354 149.046C47.1765 150.72 46.1744 151.748 46.1744 153.369H52.1869H61.1053Z" fill="#D1EDAB"/>
<path d="M243.263 153.369C243.263 151.748 241.018 150.414 240.163 149.046C239.308 147.678 236.092 140.429 234.391 140.429C232.69 140.429 230.381 146.635 229.215 149.046C228.405 150.72 227.336 151.748 227.336 153.369L233.75 153.369H243.263Z" fill="#D1EDAB"/>
<path d="M270.138 151.378C270.138 149.757 268.034 148.424 267.232 147.055C266.431 145.687 263.416 138.438 261.821 138.438C260.226 138.438 258.062 144.644 256.968 147.055C256.209 148.729 255.207 149.757 255.207 151.378L261.22 151.378H270.138Z" fill="#D1EDAB"/>
<path d="M153.677 151.378C153.677 150.505 147.224 149.787 144.765 149.05C142.307 148.314 133.061 144.41 128.171 144.41C123.281 144.41 116.642 147.752 113.289 149.05C110.962 149.952 107.889 150.505 107.889 151.378L126.327 151.378H153.677Z" fill="#D1EDAB"/>
<line x1="35.0712" y1="137.361" x2="35.0712" y2="150.511" stroke="#FFE655" stroke-width="0.5"/>
<path d="M35.0559 125.151C36.0933 125.151 36.9338 126.466 36.9338 128.087C36.9338 128.127 36.93 128.167 36.929 128.207C38.109 128.293 39.0481 129.731 39.0481 131.491C39.0481 131.908 38.9918 132.306 38.8958 132.673C38.9458 132.668 38.9962 132.665 39.0471 132.665C40.3439 132.665 41.3958 134.137 41.3958 135.953C41.3956 137.768 40.3438 139.24 39.0471 139.24C38.5697 139.24 38.1267 139.039 37.7561 138.696C37.3854 139.039 36.9426 139.24 36.4651 139.24C35.8813 139.24 35.3485 138.941 34.9377 138.447C34.5271 138.94 33.9957 139.24 33.4124 139.24C32.984 139.24 32.5842 139.077 32.2385 138.797C31.8927 139.077 31.4922 139.24 31.0637 139.24C29.7672 139.24 28.7162 137.768 28.7161 135.953C28.7161 134.138 29.7671 132.665 31.0637 132.665C31.1144 132.665 31.1652 132.668 31.2151 132.673C31.1191 132.306 31.0637 131.908 31.0637 131.491C31.0637 129.732 32.0019 128.294 33.1809 128.207C33.1799 128.167 33.177 128.127 33.177 128.087C33.177 126.466 34.0184 125.151 35.0559 125.151Z" fill="#6ADF8F"/>
<line x1="72.2261" y1="145.622" x2="72.2261" y2="152.003" stroke="#FFE655" stroke-width="0.5"/>
<path d="M72.0701 139.696C72.5734 139.696 72.9812 140.334 72.9812 141.121C72.9812 141.141 72.9788 141.16 72.9783 141.18C73.551 141.222 74.0066 141.918 74.0066 142.772C74.0066 142.975 73.9793 143.169 73.9324 143.347C73.9572 143.345 73.9823 143.342 74.0076 143.342C74.6369 143.342 75.1472 144.057 75.1472 144.938C75.1472 145.819 74.6369 146.534 74.0076 146.534C73.7755 146.534 73.5597 146.436 73.3796 146.269C73.1998 146.435 72.9853 146.534 72.7537 146.534C72.4702 146.534 72.2118 146.388 72.0125 146.148C71.8131 146.387 71.5555 146.534 71.2722 146.534C71.0639 146.534 70.8699 146.453 70.7019 146.317C70.534 146.453 70.3406 146.534 70.1326 146.534C69.5032 146.534 68.9929 145.819 68.9929 144.938C68.9929 144.057 69.5032 143.342 70.1326 143.342C70.1572 143.342 70.1816 143.345 70.2058 143.347C70.159 143.169 70.1326 142.975 70.1326 142.772C70.1326 141.918 70.5878 141.223 71.1599 141.18C71.1594 141.16 71.158 141.141 71.158 141.121C71.158 140.334 71.5666 139.696 72.0701 139.696Z" fill="#6ADF8F"/>
<line x1="103.926" y1="148.978" x2="103.926" y2="155.36" stroke="#FFE655" stroke-width="0.5"/>
<path d="M104.143 143.052C104.646 143.053 105.054 143.691 105.054 144.477C105.054 144.497 105.051 144.517 105.051 144.537C105.623 144.578 106.079 145.274 106.079 146.128C106.079 146.331 106.052 146.525 106.005 146.704C106.03 146.701 106.055 146.699 106.08 146.699C106.709 146.699 107.22 147.413 107.22 148.294C107.22 149.175 106.709 149.89 106.08 149.89C105.848 149.89 105.632 149.792 105.452 149.625C105.272 149.792 105.058 149.89 104.826 149.89C104.543 149.89 104.284 149.744 104.085 149.504C103.886 149.744 103.628 149.89 103.345 149.89C103.136 149.89 102.942 149.81 102.774 149.673C102.607 149.81 102.413 149.89 102.205 149.89C101.576 149.89 101.065 149.175 101.065 148.294C101.065 147.413 101.576 146.699 102.205 146.699C102.23 146.699 102.254 146.701 102.278 146.704C102.231 146.525 102.205 146.331 102.205 146.128C102.205 145.275 102.66 144.579 103.232 144.537C103.232 144.517 103.23 144.497 103.23 144.477C103.23 143.69 103.639 143.052 104.143 143.052Z" fill="#6ADF8F"/>
<line x1="128.869" y1="140.303" x2="128.869" y2="144.171" stroke="#FFE655" stroke-width="0.5"/>
<path d="M129.036 136.712C129.341 136.712 129.589 137.099 129.589 137.576C129.589 137.588 129.586 137.6 129.586 137.612C129.933 137.636 130.21 138.059 130.21 138.577C130.21 138.699 130.192 138.817 130.164 138.925C130.179 138.924 130.194 138.922 130.21 138.922C130.591 138.922 130.9 139.355 130.9 139.889C130.9 140.423 130.591 140.856 130.21 140.856C130.069 140.856 129.939 140.797 129.83 140.696C129.721 140.797 129.59 140.856 129.45 140.856C129.278 140.856 129.122 140.768 129.001 140.622C128.88 140.768 128.724 140.856 128.552 140.856C128.426 140.856 128.309 140.808 128.207 140.725C128.105 140.808 127.988 140.856 127.862 140.856C127.481 140.856 127.171 140.423 127.171 139.889C127.171 139.355 127.481 138.922 127.862 138.922C127.877 138.922 127.892 138.924 127.907 138.925C127.879 138.817 127.862 138.699 127.862 138.577C127.862 138.059 128.138 137.637 128.485 137.612C128.485 137.6 128.483 137.588 128.483 137.576C128.483 137.099 128.731 136.712 129.036 136.712Z" fill="#6ADF8F"/>
<line x1="170.638" y1="130.98" x2="170.638" y2="134.847" stroke="#FFE655" stroke-width="0.5"/>
<path d="M170.804 127.389C171.109 127.389 171.357 127.775 171.357 128.252C171.357 128.264 171.354 128.276 171.354 128.288C171.701 128.312 171.979 128.735 171.979 129.253C171.979 129.376 171.961 129.494 171.933 129.602C171.948 129.6 171.963 129.599 171.979 129.599C172.36 129.599 172.669 130.032 172.669 130.566C172.669 131.099 172.36 131.532 171.979 131.532C171.838 131.532 171.707 131.474 171.598 131.372C171.489 131.473 171.359 131.532 171.219 131.532C171.047 131.532 170.891 131.444 170.77 131.299C170.649 131.444 170.493 131.532 170.322 131.532C170.195 131.532 170.078 131.484 169.976 131.402C169.874 131.484 169.756 131.532 169.63 131.532C169.249 131.532 168.94 131.1 168.94 130.566C168.94 130.032 169.249 129.599 169.63 129.599C169.645 129.599 169.66 129.6 169.675 129.602C169.647 129.494 169.631 129.376 169.631 129.253C169.631 128.735 169.907 128.313 170.254 128.288C170.254 128.276 170.252 128.264 170.252 128.252C170.252 127.776 170.499 127.389 170.804 127.389Z" fill="#6ADF8F"/>
<line x1="205.322" y1="122.402" x2="205.322" y2="126.27" stroke="#FFE655" stroke-width="0.5"/>
<path d="M205.487 118.811C205.792 118.811 206.04 119.198 206.04 119.675C206.04 119.687 206.037 119.699 206.037 119.711C206.384 119.735 206.661 120.157 206.661 120.676C206.661 120.799 206.644 120.916 206.616 121.024C206.631 121.023 206.647 121.021 206.662 121.021C207.043 121.022 207.352 121.454 207.352 121.988C207.352 122.522 207.043 122.955 206.662 122.955C206.521 122.955 206.39 122.896 206.281 122.795C206.172 122.896 206.042 122.955 205.902 122.955C205.73 122.955 205.574 122.867 205.453 122.722C205.332 122.867 205.175 122.955 205.004 122.955C204.877 122.955 204.76 122.907 204.658 122.824C204.556 122.907 204.439 122.955 204.313 122.955C203.932 122.955 203.623 122.522 203.623 121.988C203.623 121.454 203.932 121.021 204.313 121.021C204.328 121.021 204.343 121.023 204.358 121.024C204.33 120.916 204.313 120.798 204.313 120.676C204.313 120.158 204.59 119.736 204.937 119.711C204.937 119.699 204.935 119.687 204.935 119.675C204.935 119.198 205.182 118.812 205.487 118.811Z" fill="#6ADF8F"/>
<line x1="273.848" y1="146.27" x2="273.848" y2="150.138" stroke="#FFE655" stroke-width="0.5"/>
<path d="M274.014 142.679C274.319 142.679 274.567 143.066 274.567 143.543C274.567 143.555 274.564 143.567 274.564 143.579C274.911 143.603 275.189 144.025 275.189 144.543C275.189 144.666 275.171 144.784 275.143 144.892C275.158 144.891 275.173 144.889 275.189 144.889C275.57 144.889 275.879 145.322 275.879 145.856C275.879 146.39 275.57 146.823 275.189 146.823C275.048 146.823 274.917 146.764 274.808 146.663C274.699 146.763 274.569 146.823 274.429 146.823C274.257 146.823 274.101 146.735 273.98 146.589C273.859 146.734 273.703 146.823 273.531 146.823C273.405 146.823 273.288 146.775 273.186 146.692C273.084 146.775 272.966 146.823 272.84 146.823C272.459 146.823 272.15 146.39 272.15 145.856C272.15 145.322 272.459 144.889 272.84 144.889C272.855 144.889 272.87 144.891 272.885 144.892C272.857 144.784 272.841 144.666 272.841 144.543C272.841 144.026 273.117 143.604 273.464 143.579C273.464 143.567 273.462 143.555 273.462 143.543C273.462 143.066 273.709 142.68 274.014 142.679Z" fill="#6ADF8F"/>
<line x1="65.0044" y1="146.27" x2="65.0044" y2="150.138" stroke="#FFE655" stroke-width="0.5"/>
<path d="M65.1699 142.679C65.4751 142.679 65.7227 143.066 65.7227 143.543C65.7227 143.555 65.72 143.567 65.7197 143.579C66.0675 143.603 66.3446 144.025 66.3447 144.543C66.3447 144.666 66.3272 144.784 66.2988 144.892C66.314 144.891 66.3294 144.889 66.3447 144.889C66.726 144.889 67.035 145.322 67.0352 145.856C67.0352 146.39 66.7261 146.823 66.3447 146.823C66.2039 146.823 66.0731 146.764 65.9639 146.663C65.8549 146.763 65.7253 146.823 65.585 146.823C65.4131 146.823 65.2566 146.735 65.1357 146.589C65.015 146.734 64.8591 146.823 64.6875 146.823C64.5611 146.823 64.4427 146.775 64.3408 146.692C64.2392 146.774 64.122 146.823 63.9961 146.823C63.6148 146.823 63.3057 146.39 63.3057 145.856C63.3058 145.322 63.6149 144.889 63.9961 144.889C64.0111 144.889 64.0262 144.891 64.041 144.892C64.0127 144.784 63.9961 144.666 63.9961 144.543C63.9962 144.026 64.2729 143.604 64.6201 143.579C64.6198 143.567 64.6182 143.555 64.6182 143.543C64.6182 143.066 64.865 142.68 65.1699 142.679Z" fill="#6ADF8F"/>
<line x1="42.6284" y1="146.27" x2="42.6284" y2="150.138" stroke="#FFE655" stroke-width="0.5"/>
<path d="M42.7938 142.679C43.099 142.679 43.3466 143.066 43.3466 143.543C43.3466 143.555 43.3439 143.567 43.3436 143.579C43.6914 143.603 43.9685 144.025 43.9686 144.543C43.9686 144.666 43.9511 144.784 43.9227 144.892C43.9379 144.891 43.9533 144.889 43.9686 144.889C44.3499 144.889 44.6589 145.322 44.6591 145.856C44.6591 146.39 44.35 146.823 43.9686 146.823C43.8278 146.823 43.697 146.764 43.5878 146.663C43.4788 146.763 43.3492 146.823 43.2089 146.823C43.037 146.823 42.8805 146.735 42.7596 146.589C42.6389 146.734 42.483 146.823 42.3114 146.823C42.1851 146.823 42.0675 146.775 41.9657 146.692C41.8639 146.775 41.7462 146.823 41.62 146.823C41.2387 146.823 40.9296 146.39 40.9296 145.856C40.9297 145.322 41.2388 144.889 41.62 144.889C41.6353 144.889 41.6508 144.891 41.6659 144.892C41.6375 144.784 41.621 144.666 41.621 144.543C41.6211 144.026 41.897 143.604 42.244 143.579C42.2437 143.567 42.2421 143.555 42.2421 143.543C42.2421 143.066 42.4889 142.68 42.7938 142.679Z" fill="#6ADF8F"/>
<line x1="224.951" y1="142.694" x2="224.951" y2="152.749" stroke="#FFE655" stroke-width="0.5"/>
<path d="M225.252 133.356C226.046 133.356 226.689 134.361 226.689 135.6C226.689 135.632 226.687 135.664 226.686 135.696C227.588 135.762 228.305 136.858 228.305 138.204C228.305 138.523 228.263 138.828 228.189 139.11C228.228 139.106 228.267 139.102 228.306 139.102C229.298 139.102 230.101 140.227 230.101 141.616C230.101 143.004 229.298 144.129 228.306 144.129C227.941 144.129 227.601 143.976 227.318 143.714C227.034 143.976 226.696 144.129 226.331 144.129C225.884 144.129 225.477 143.901 225.163 143.524C224.849 143.901 224.442 144.129 223.997 144.129C223.669 144.129 223.363 144.005 223.098 143.79C222.834 144.005 222.528 144.129 222.201 144.129C221.209 144.129 220.405 143.004 220.405 141.616C220.405 140.227 221.209 139.102 222.201 139.102C222.239 139.102 222.278 139.106 222.316 139.11C222.242 138.829 222.201 138.523 222.201 138.204C222.201 136.859 222.918 135.763 223.819 135.696C223.818 135.664 223.816 135.632 223.816 135.6C223.816 134.361 224.459 133.356 225.252 133.356Z" fill="#6ADF8F"/>
<line x1="4.54602" y1="140.829" x2="4.54602" y2="150.885" stroke="#FFE655" stroke-width="0.5"/>
<path d="M4.84766 131.491C5.64093 131.491 6.28405 132.496 6.28418 133.735C6.28418 133.767 6.2821 133.799 6.28125 133.831C7.1831 133.897 7.90038 134.993 7.90039 136.339C7.90039 136.659 7.85803 136.964 7.78418 137.245C7.8229 137.242 7.86201 137.237 7.90137 137.237C8.89289 137.237 9.69623 138.363 9.69629 139.751C9.69629 141.139 8.89293 142.264 7.90137 142.265C7.53615 142.265 7.19659 142.112 6.91309 141.85C6.62966 142.112 6.29083 142.265 5.92578 142.265C5.47949 142.265 5.07189 142.036 4.75781 141.659C4.44389 142.036 4.03766 142.265 3.5918 142.265C3.26407 142.265 2.95784 142.14 2.69336 141.926C2.42901 142.14 2.12342 142.265 1.7959 142.265C0.804208 142.265 0 141.139 0 139.751C5.79804e-05 138.363 0.804244 137.237 1.7959 137.237C1.83469 137.237 1.87295 137.242 1.91113 137.245C1.83734 136.964 1.7959 136.658 1.7959 136.339C1.79591 134.994 2.5128 133.898 3.41406 133.831C3.41322 133.799 3.41113 133.767 3.41113 133.735C3.41126 132.496 4.05459 131.492 4.84766 131.491Z" fill="#6ADF8F"/>
<line x1="249.509" y1="138.481" x2="249.509" y2="151.63" stroke="#FFE655" stroke-width="0.5"/>
<path d="M249.867 126.27C250.904 126.27 251.746 127.585 251.746 129.206C251.746 129.246 251.742 129.286 251.741 129.326C252.92 129.412 253.858 130.85 253.858 132.61C253.858 133.027 253.803 133.425 253.707 133.792C253.757 133.787 253.808 133.784 253.859 133.784C255.156 133.784 256.207 135.256 256.207 137.072C256.206 138.887 255.155 140.359 253.859 140.359C253.381 140.359 252.937 140.158 252.566 139.815C252.195 140.158 251.752 140.359 251.275 140.359C250.692 140.359 250.159 140.06 249.749 139.567C249.338 140.06 248.806 140.359 248.223 140.359C247.795 140.359 247.395 140.196 247.049 139.916C246.704 140.196 246.304 140.359 245.875 140.359C244.579 140.359 243.527 138.887 243.527 137.072C243.527 135.256 244.579 133.784 245.875 133.784C245.926 133.784 245.976 133.787 246.026 133.792C245.93 133.425 245.875 133.027 245.875 132.61C245.876 130.851 246.813 129.413 247.992 129.326C247.991 129.286 247.988 129.246 247.988 129.206C247.988 127.585 248.829 126.27 249.867 126.27Z" fill="#6ADF8F"/>
<line x1="288.122" y1="130.49" x2="288.122" y2="135.324" stroke="#FFE655" stroke-width="0.5"/>
<path d="M288.331 126C288.712 126 289.021 126.483 289.021 127.079C289.021 127.094 289.019 127.109 289.019 127.124C289.453 127.155 289.799 127.683 289.799 128.331C289.799 128.484 289.778 128.631 289.742 128.766C289.761 128.764 289.78 128.763 289.799 128.763C290.275 128.763 290.662 129.303 290.662 129.971C290.662 130.638 290.276 131.18 289.799 131.18C289.623 131.18 289.461 131.106 289.324 130.979C289.188 131.106 289.025 131.18 288.85 131.18C288.635 131.18 288.439 131.069 288.288 130.888C288.137 131.069 287.941 131.18 287.727 131.18C287.569 131.18 287.422 131.12 287.295 131.017C287.168 131.12 287.021 131.18 286.863 131.18C286.387 131.179 286 130.638 286 129.971C286 129.304 286.387 128.763 286.863 128.763C286.882 128.763 286.901 128.764 286.919 128.766C286.884 128.631 286.863 128.484 286.863 128.331C286.863 127.684 287.209 127.156 287.643 127.124C287.642 127.109 287.641 127.094 287.641 127.079C287.641 126.483 287.95 126 288.331 126Z" fill="#6ADF8F"/>
</g>
</svg>
