<svg width="500" height="282" viewBox="0 0 500 282" fill="none" xmlns="http://www.w3.org/2000/svg">

<g data-element-id="page-sea-bg" class="page-sea-bg">
<path d="M0 4.99999C0 2.23857 2.23858 0 5 0H495C497.761 0 500 2.23858 500 5V281.2H0V4.99999Z" fill="#00B9FF" color-id="background"/>
</g>


<mask id="mask0_1469_21981" style="mask-type:alpha" maskUnits="userSpaceOnUse" x="0" y="0" width="500" height="281">
<path d="M5 1H495C497.209 1 499 2.79086 499 5V280H1V5C1 2.79086 2.79086 1 5 1Z" fill="white" stroke="#02C1C1" stroke-width="2"/>
</mask>
<g mask="url(#mask0_1469_21981)">

<g data-element-id="shrub-firstbg" class="shrub-firstbg">

<path d="M7.50865 243.248C3.21963 250.591 11.0032 262.368 17.5706 274.167L92.9495 255.823C93.0026 253.029 94.2146 244.779 89.9684 238.463C74.3271 215.199 70.6684 238.364 64.7879 230.704C58.9074 223.045 50.1071 221.444 40.8881 230.906C37.0341 234.862 36.6084 239.446 30.1087 243.947C23.609 248.447 14.1083 231.948 7.50865 243.248Z" fill="#57B48D" stroke="#202020" stroke-width="2" stroke-linecap="round" stroke-linejoin="round" color-id="shrub-first"/>

</g>


<g data-element-id="shrub-secondbg" class="shrub-secondbg">

<path d="M22.5972 9.39603C15.9568 6.54527 3.43662 12.3183 -8.95101 17.2339L-0.61387 69.9799C2.1135 69.9507 10.0347 70.6088 16.7585 67.4619C41.5259 55.8704 19.318 53.8423 27.5658 49.5103C35.8135 45.1783 38.5029 38.931 30.4179 32.6524C27.038 30.0276 22.6051 29.8368 19.0294 25.3584C15.4538 20.88 32.8151 13.7826 22.5972 9.39603Z" fill="#6ADF8F" stroke="#202020" stroke-width="2" stroke-linecap="round" stroke-linejoin="round" color-id="shrub-second"/>

</g>


<g data-element-id="shrub-thirdbg" class="shrub-thirdbg">

<path d="M251 212.998C237.393 218.694 258.216 224.134 263.782 240H299.681C302.186 234.606 316.41 204.302 299.681 204.302C295.5 204.302 291.557 209.99 291 223C289.052 219.827 293.607 183.512 273.5 188.499C261.691 191.427 272.409 203.826 272.13 223.817C272.13 221.279 263.748 207.662 251 212.998Z" fill="#6ADF8F" color-id="shrub-third"/>
<path d="M263.782 240L262.838 240.331L263.073 241H263.782V240ZM251 212.998L250.614 212.076V212.076L251 212.998ZM272.13 223.817L271.13 223.817C271.13 224.367 271.574 224.813 272.123 224.817C272.673 224.821 273.123 224.381 273.13 223.831L272.13 223.817ZM273.5 188.499L273.259 187.528V187.528L273.5 188.499ZM291 223L290.148 223.523C290.378 223.898 290.826 224.078 291.251 223.968C291.677 223.857 291.98 223.482 291.999 223.043L291 223ZM299.681 240V241H300.319L300.588 240.421L299.681 240ZM263.782 240L264.725 239.669C261.843 231.454 255.002 225.93 250.896 221.966C249.852 220.959 249.001 220.071 248.398 219.263C247.788 218.445 247.511 217.811 247.471 217.309C247.436 216.872 247.568 216.406 248.123 215.849C248.71 215.259 249.734 214.612 251.387 213.921L251 212.998L250.614 212.076C248.865 212.808 247.563 213.577 246.706 214.437C245.817 215.33 245.387 216.347 245.477 217.469C245.562 218.526 246.099 219.526 246.796 220.459C247.5 221.404 248.45 222.385 249.506 223.405C253.801 227.551 260.154 232.681 262.838 240.331L263.782 240ZM251 212.998L251.387 213.921C257.325 211.435 262.219 213.336 265.708 216.225C267.462 217.677 268.841 219.368 269.777 220.842C270.245 221.578 270.595 222.248 270.823 222.792C271.066 223.37 271.13 223.708 271.13 223.817L272.13 223.817L273.13 223.817C273.13 223.292 272.932 222.649 272.667 222.017C272.388 221.352 271.982 220.583 271.465 219.769C270.432 218.143 268.919 216.287 266.984 214.684C263.095 211.464 257.424 209.225 250.614 212.076L251 212.998ZM272.13 223.817L273.13 223.831C273.271 213.697 270.615 205.4 269.472 199.567C268.887 196.581 268.725 194.377 269.287 192.772C269.802 191.3 271.002 190.149 273.741 189.469L273.5 188.499L273.259 187.528C270.093 188.313 268.205 189.81 267.399 192.111C266.64 194.28 266.926 196.974 267.51 199.952C268.704 206.049 271.268 213.947 271.13 223.803L272.13 223.817ZM273.5 188.499L273.741 189.469C276.12 188.879 278.065 188.916 279.667 189.38C281.264 189.842 282.586 190.748 283.693 192.002C285.939 194.544 287.275 198.492 288.076 202.869C288.871 207.22 289.111 211.838 289.272 215.612C289.352 217.484 289.413 219.17 289.516 220.48C289.568 221.136 289.632 221.724 289.719 222.211C289.8 222.664 289.921 223.153 290.148 223.523L291 223L291.852 222.477C291.853 222.478 291.828 222.435 291.792 222.317C291.758 222.205 291.723 222.054 291.688 221.859C291.618 221.467 291.56 220.955 291.51 220.324C291.411 219.06 291.352 217.427 291.27 215.527C291.109 211.755 290.866 207.011 290.043 202.51C289.225 198.035 287.809 193.641 285.192 190.678C283.869 189.179 282.233 188.04 280.223 187.459C278.217 186.878 275.907 186.872 273.259 187.528L273.5 188.499ZM291 223L291.999 223.043C292.274 216.613 293.384 212.101 294.869 209.232C296.357 206.358 298.113 205.302 299.681 205.302V204.302V203.302C297.068 203.302 294.762 205.09 293.093 208.312C291.422 211.54 290.282 216.377 290.001 222.957L291 223ZM299.681 204.302V205.302C301.621 205.302 303.015 205.74 304.016 206.436C305.013 207.129 305.707 208.138 306.143 209.439C307.033 212.097 306.797 215.83 305.916 219.917C304.165 228.042 300.032 236.869 298.774 239.579L299.681 240L300.588 240.421C301.834 237.737 306.066 228.715 307.871 220.339C308.768 216.176 309.108 211.996 308.039 208.804C307.495 207.18 306.575 205.779 305.158 204.794C303.744 203.811 301.923 203.302 299.681 203.302V204.302ZM299.681 240V239H263.782V240V241H299.681V240Z" fill="#202020"/>

</g>


<g data-element-id="shrub-fourthbg" class="shrub-fourthbg">

<path d="M469.693 215.345C473.537 232.985 474.498 263.118 474.498 275.981L499.208 285C499.894 272.806 501.541 243.407 502.64 223.362C504.012 198.306 514.512 157.594 489.598 153.205C469.693 149.698 495.355 192.477 474.498 183.775C455.278 175.756 464.888 193.296 469.693 215.345Z" fill="#57B48D" color-id="shrub-fourth" stroke="#202020" stroke-width="2" stroke-linecap="round" stroke-linejoin="round"/>

</g>

<g data-element-id="base-grassbg" class="base-grassbg">

<path d="M256.051 239C325.575 239 388.487 245.152 433.992 255.086C456.753 260.055 475.105 265.958 487.742 272.48C494.062 275.742 498.902 279.134 502.151 282.6C505.396 286.061 507 289.535 507 293C507 296.465 505.396 299.939 502.151 303.4C498.902 306.866 494.062 310.258 487.742 313.52C475.105 320.042 456.753 325.945 433.992 330.914C388.487 340.848 325.575 347 256.051 347C186.502 347 116.539 343.492 63.9824 336.194C37.6953 332.544 15.8158 327.954 0.53125 322.402C-7.11587 319.625 -13.0475 316.629 -17.0498 313.436C-21.0544 310.24 -23 306.956 -23 303.588C-22.9999 300.192 -21.0261 296.566 -16.9893 292.778C-12.9661 289.004 -7.01642 285.188 0.631836 281.423C15.9213 273.897 37.8024 266.668 64.0781 260.376C116.617 247.795 186.552 239 256.051 239Z" fill="#81C127" color-id="base-grass" stroke="#202020" stroke-width="2"/>

</g>


<g data-slot-id="turtle" class="turtle">

<path d="M332.796 155.551C334.809 155.322 336.621 155.715 338.644 156.811C340.622 157.883 342.827 159.641 345.656 162.148C348.412 164.59 351.837 167.812 356.287 171.903C361.468 170.753 375.143 170.104 393.78 175.54C403.606 178.406 412.005 184.785 418.063 191.426C421.097 194.751 423.56 198.16 425.334 201.26C426.932 204.053 428.002 206.656 428.392 208.75L430.541 209.495C433.027 210.086 436.269 210.211 439 208.634C440.161 207.964 441.253 207.624 442.204 207.883C443.258 208.169 443.74 209.056 443.935 209.865C444.128 210.67 444.102 211.609 443.994 212.474C443.884 213.355 443.679 214.242 443.458 214.982C443.38 215.244 443.199 215.462 442.956 215.586C442.713 215.71 442.431 215.73 442.173 215.641L430.366 211.551C430.897 212.161 431.489 212.817 432.124 213.515C433.759 215.31 435.644 217.341 437.335 219.431C439.022 221.515 440.565 223.718 441.495 225.88C442.424 228.039 442.801 230.3 441.922 232.388C441.386 233.66 440.392 234.401 439.141 234.637C437.958 234.859 436.602 234.624 435.22 234.143C432.442 233.174 429.138 231.055 425.975 228.433C422.798 225.798 419.69 222.596 417.316 219.391C415.469 216.897 414.006 214.316 413.352 211.952C411.32 213.357 408.226 214 404.429 213.633C399.53 213.159 393.255 211.002 385.962 206.343C379.065 201.936 373.809 198.672 370.006 196.129C369.362 195.698 368.757 195.283 368.187 194.886C369.627 197.151 371.177 199.78 372.512 202.535C373.961 205.526 375.183 208.708 375.736 211.769C376.289 214.824 376.193 217.85 374.895 220.447C374.199 221.839 373.176 222.738 371.825 222.849C370.565 222.951 369.312 222.332 368.18 221.447C365.893 219.66 363.448 216.277 361.263 212.335C359.061 208.364 357.062 203.711 355.705 199.283C354.435 195.139 353.695 191.087 353.949 187.945L347.652 182.981C347.633 182.966 347.614 182.949 347.596 182.933C346.083 181.546 342.146 178.022 338.743 173.691C337.737 172.411 336.968 171.76 336.319 171.44C335.71 171.14 335.124 171.09 334.364 171.21C333.539 171.34 332.649 171.64 331.354 172.005C330.102 172.358 328.593 172.73 326.71 172.928C322.604 173.36 319.515 170.838 319.058 167.408C318.6 163.975 320.811 160.109 326.199 157.715C328.763 156.575 330.845 155.773 332.796 155.551Z" fill="#FF8756" color-id="turtle-body" stroke="#202020" stroke-width="2" stroke-linecap="round" stroke-linejoin="round"/>
<path d="M322 170.984C324 171.484 327 170.984 328.5 168.984" stroke="#202020" stroke-linecap="round" stroke-linejoin="round"/>
<circle cx="330" cy="162.984" r="2" fill="#202020"/>
<circle cx="330" cy="162.984" r="2" fill="#202020"/>
<path d="M407.479 151.459C412.66 154.007 417.304 157.514 421.148 161.778C424.992 166.043 427.961 170.98 429.884 176.308C431.806 181.636 432.647 187.251 432.359 192.83C432.072 198.409 430.662 203.845 428.211 208.829C428.099 209.056 427.834 209.304 427.1 209.407C426.354 209.511 425.299 209.431 423.94 209.146C421.237 208.578 417.644 207.267 413.574 205.526C405.444 202.047 395.675 196.972 387.771 193.086C379.869 189.199 369.578 184.408 361.551 179.94C357.533 177.704 354.144 175.583 351.926 173.728C350.811 172.796 350.054 171.981 349.648 171.304C349.244 170.63 349.284 170.27 349.385 170.064C351.836 165.08 355.281 160.645 359.524 157.011C363.768 153.377 368.728 150.615 374.122 148.886C379.516 147.156 385.238 146.492 390.962 146.933C396.686 147.374 402.299 148.912 407.479 151.459Z" fill="#409F5C" color-id="turtle-shell" stroke="#202020" stroke-width="2"/>
<mask id="mask1_1469_21981" style="mask-type:alpha" maskUnits="userSpaceOnUse" x="348" y="145" width="86" height="66">
<path d="M407.479 151.459C412.659 154.007 417.304 157.514 421.148 161.778C424.992 166.042 427.96 170.98 429.883 176.308C431.806 181.636 432.646 187.251 432.359 192.83C432.071 198.409 430.661 203.845 428.21 208.829C428.099 209.056 427.834 209.304 427.099 209.407C426.353 209.511 425.298 209.431 423.94 209.146C421.237 208.578 417.644 207.267 413.574 205.526C405.443 202.047 395.675 196.972 387.771 193.085C379.869 189.199 369.577 184.408 361.551 179.94C357.533 177.704 354.143 175.583 351.925 173.728C350.811 172.796 350.054 171.981 349.648 171.304C349.243 170.629 349.283 170.27 349.385 170.064C351.836 165.08 355.281 160.644 359.524 157.011C363.767 153.377 368.728 150.615 374.122 148.885C379.516 147.156 385.238 146.492 390.962 146.933C396.686 147.374 402.299 148.912 407.479 151.459Z" fill="white" stroke="#202020" stroke-width="2"/>
</mask>
<g mask="url(#mask1_1469_21981)">
<ellipse cx="429.641" cy="180.526" rx="5.13487" ry="7" transform="rotate(-25.4059 429.641 180.526)" fill="#6ADF8F" mark-id="turtle-ellipse1" mode="color"/>
<ellipse cx="370.006" cy="183.708" rx="6.57052" ry="15.2697" transform="rotate(-51.0588 370.006 183.708)" fill="#6ADF8F" mark-id="turtle-ellipse2" mode="color"/>
<ellipse cx="383.796" cy="147.012" rx="5.15882" ry="9.35586" transform="rotate(-95.3682 383.796 147.012)" fill="#6ADF8F" mark-id="turtle-ellipse3" mode="color"/>
<ellipse cx="378.618" cy="165.06" rx="3.4847" ry="6.31972" transform="rotate(-95.3682 378.618 165.06)" fill="#6ADF8F" mark-id="turtle-ellipse4" mode="color"/>
<ellipse cx="418.032" cy="194.475" rx="2.12316" ry="3.85049" transform="rotate(-95.3682 418.032 194.475)" fill="#6ADF8F" mark-id="turtle-ellipse5" mode="color"/>
<ellipse cx="399.032" cy="154.475" rx="2.12316" ry="3.85049" transform="rotate(-95.3682 399.032 154.475)" fill="#6ADF8F" mark-id="turtle-ellipse6" mode="color"/>
<ellipse cx="390.032" cy="186.474" rx="2.12316" ry="3.85049" transform="rotate(-95.3682 390.032 186.474)" fill="#6ADF8F" mark-id="turtle-ellipse7" mode="color"/>
<ellipse cx="356.99" cy="162.146" rx="3" ry="7" transform="rotate(-136.576 356.99 162.146)" fill="#6ADF8F" mark-id="turtle-ellipse8" mode="color"/>
<ellipse cx="413.499" cy="154.787" rx="6.34479" ry="8.78453" transform="rotate(-25.4059 413.499 154.787)" fill="#6ADF8F" mark-id="turtle-ellipse9" mode="color"/>
<ellipse cx="424.059" cy="208.142" rx="3" ry="7" transform="rotate(-88.8412 424.059 208.142)" fill="#6ADF8F" mark-id="turtle-ellipse10" mode="color"/>
<ellipse cx="399.198" cy="199.332" rx="6.15829" ry="10.5471" transform="rotate(-62.5068 399.198 199.332)" fill="#6ADF8F" mark-id="turtle-ellipse11" mode="color"/>
<path d="M407.479 151.459C412.66 154.007 417.304 157.514 421.148 161.778C424.992 166.043 427.961 170.98 429.884 176.308C431.806 181.636 432.647 187.251 432.359 192.83C432.072 198.409 430.662 203.845 428.211 208.829C428.099 209.056 427.834 209.304 427.1 209.407C426.354 209.511 425.299 209.431 423.94 209.146C421.237 208.578 417.644 207.267 413.574 205.526C405.444 202.047 395.675 196.972 387.771 193.086C379.869 189.199 369.578 184.408 361.551 179.94C357.533 177.704 354.144 175.583 351.926 173.728C350.811 172.796 350.054 171.981 349.648 171.304C349.244 170.63 349.284 170.27 349.385 170.064C351.836 165.08 355.281 160.645 359.524 157.011C363.768 153.377 368.728 150.615 374.122 148.886C379.516 147.156 385.238 146.492 390.962 146.933C396.686 147.374 402.299 148.912 407.479 151.459Z" stroke="#202020" stroke-width="2"/>
</g>
</g>


<g data-slot-id="star-fish" class="star-fish">

<path d="M237.017 16.633C236.786 15.6924 237.892 15.0056 238.633 15.6304L261.543 34.9753C262.536 35.8138 263.956 35.918 265.06 35.2329L290.538 19.422C291.362 18.9112 292.357 19.7517 291.992 20.6488L280.673 48.4158C280.182 49.6193 280.522 51.0023 281.515 51.8408L304.426 71.1857C305.166 71.8107 304.674 73.0179 303.708 72.9473L273.802 70.7628C272.506 70.6682 271.296 71.419 270.806 72.6222L259.487 100.389C259.121 101.286 257.821 101.191 257.589 100.251L250.425 71.1341C250.115 69.872 249.027 68.9531 247.731 68.8584L217.825 66.674C216.859 66.6029 216.548 65.3381 217.371 64.8273L242.849 49.0164C243.953 48.3311 244.491 47.0122 244.18 45.7502L237.017 16.633Z" fill="#F34D08" color-id="star-fishbody" stroke="#202020" stroke-width="2"/>
<ellipse cx="252.126" cy="49.1406" rx="2.5" ry="3.5" transform="rotate(-23.5944 252.126 49.1406)" fill="#202020"/>
<ellipse cx="262.859" cy="43.6811" rx="2.5" ry="3.5" transform="rotate(-23.5944 262.859 43.6811)" fill="#202020"/>
<path d="M257.061 85.1204L262.263 85.5487M289.725 68.9246L292.097 62.8729M280.903 28.4101L283.815 33.311M233.711 65.2262L231.994 58.6457M241.528 27.4751L246.894 24.7454" stroke="#FFE655" mark-id="starfish-lineset1" special="true" mode="color" stroke-width="2" stroke-linecap="round" stroke-linejoin="round"/>
<path d="M257.012 78.1199L261.169 78.4766M283.044 65.4167L284.918 60.6364M276.385 33.0838L278.549 37.1543M238.296 62.2983L236.902 57.0856M244.409 32.4543L248.686 30.3127" stroke="#FFE655" mark-id="starfish-lineset2" special="true" mode="color" stroke-width="2" stroke-linecap="round" stroke-linejoin="round"/>
<path d="M257.612 70.8363L260.727 71.1097M277.095 61.4145L278.49 57.8547M271.767 36.644L273.179 39.3455M243.559 59.0093L242.505 55.1212M248.086 36.7749L251.287 35.1863" stroke="#FFE655" mark-id="starfish-lineset3" special="true" mode="color" stroke-width="2" stroke-linecap="round" stroke-linejoin="round"/>
<path d="M264.946 51.9687C265.178 51.8676 265.449 51.9728 265.529 52.2125C265.895 53.3168 265.866 54.5197 265.438 55.6118C264.954 56.8464 264 57.8382 262.785 58.3689C261.569 58.8997 260.193 58.926 258.958 58.442C257.866 58.0139 256.964 57.2176 256.403 56.1984C256.281 55.9771 256.389 55.7063 256.62 55.6052V55.6052C256.852 55.5041 257.119 55.6114 257.245 55.8302C257.706 56.628 258.426 57.251 259.292 57.5905C260.301 57.986 261.426 57.9645 262.418 57.5308C263.411 57.0971 264.191 56.2868 264.587 55.278C264.926 54.4119 264.959 53.4604 264.686 52.5802C264.612 52.3389 264.715 52.0698 264.946 51.9687V51.9687Z" fill="#202020"/>
</g>

<g data-slot-id="fishy-fish" class="fishy-fish">

<path d="M411.941 31.9044C412.175 31.8168 412.567 31.6871 412.965 31.7622C413.213 31.8091 413.514 31.9467 413.719 32.2529C413.908 32.5347 413.926 32.8267 413.914 33.0068C413.894 33.3371 413.752 33.6492 413.648 33.8564C413.414 34.3193 413.012 34.918 412.562 35.5588C412.331 35.8875 412.077 36.2428 411.811 36.6144C411.544 36.9875 411.264 37.3791 410.978 37.7857C409.827 39.4232 408.616 41.2527 407.848 42.9541C407.465 43.8031 407.21 44.5787 407.117 45.252C407.023 45.9238 407.097 46.4308 407.292 46.8083C407.345 46.9096 407.629 47.2021 408.739 47.3123C409.771 47.4148 411.212 47.3258 413.015 47.0521C416.606 46.5068 421.396 45.2656 426.721 43.6499C437.324 40.4326 449.885 35.7782 458.964 32.3637L473.89 23.4095C474.271 23.181 474.757 23.2313 475.083 23.5332C475.41 23.8352 475.497 24.3165 475.298 24.7141L471.159 32.9914L478.029 38.4865C478.374 38.763 478.497 39.2339 478.33 39.6438C478.164 40.0535 477.747 40.3051 477.307 40.2625L462.322 38.8118L453.161 49.4211C453.135 49.4504 453.108 49.4785 453.08 49.5046C446.438 55.5967 437.282 61.0495 429.319 64.6773C425.546 66.3958 423.014 68.7824 420.522 71.4278C418.339 73.745 416.148 76.3102 413.214 78.6476C413.281 78.6885 413.35 78.7293 413.42 78.773C414.314 79.3294 415.481 80.1297 416.521 81.0817C417.804 82.2567 419.47 84.1814 420.787 85.7745C421.452 86.5785 422.039 87.3116 422.46 87.8433C422.67 88.1091 422.839 88.3251 422.956 88.4749C423.014 88.5497 423.06 88.6076 423.091 88.6475C423.106 88.6673 423.118 88.6833 423.126 88.6937L423.138 88.7089L423.138 88.7098L423.224 88.8396C423.396 89.1539 423.388 89.5418 423.193 89.852C422.97 90.2066 422.55 90.3846 422.14 90.2983C417.312 89.2815 414.039 88.0414 411.513 86.8833C410.26 86.3086 409.19 85.7526 408.239 85.2748C407.279 84.7919 406.444 84.3906 405.606 84.0839C402.403 82.9115 398.861 83.0039 388.272 87.1997C377.47 91.4794 370.121 90.3355 365.363 86.8498C360.721 83.4487 358.802 77.998 358.421 73.9929C356.994 70.2141 356.687 64.3998 361.809 59.1439C366.861 53.9589 377.064 49.4702 396.231 47.822C397.171 45.8462 399.098 43.0486 401.506 40.3144C404.164 37.2959 407.504 34.2426 410.927 32.3869C411.313 32.1775 411.652 32.0128 411.941 31.9044Z" fill="#CA3AE6" color-id="fishy-body" stroke="#202020" stroke-width="2" stroke-linecap="round" stroke-linejoin="round"/>
<path d="M446.323 40.1108L454.321 39.5321L450.183 47.1399L446.323 40.1108Z" fill="#FFE655" mark-id="fishy-triangle1" mode="color"/>
<path d="M426.902 54.7429L434.049 51.1069L433.187 59.724L426.902 54.7429Z" fill="#FFE655" mark-id="fishy-triangle2" mode="color"/>
<path d="M418.438 48.7439L426.43 49.3985L421.175 56.2818L418.438 48.7439Z" fill="#FFE655" mark-id="fishy-triangle3" mode="color"/>
<path d="M439.228 52.7683L436.823 45.1181L445.179 47.3923L439.228 52.7683Z" fill="#FFE655" mark-id="fishy-triangle4" mode="color"/>
<path d="M407.901 54.7468L415.049 51.1108L414.186 59.7279L407.901 54.7468Z" fill="#FFE655" mark-id="fishy-triangle5" mode="color"/>
<path d="M403.009 56.7149L409.623 61.2495L401.645 64.6175L403.009 56.7149Z" fill="#FFE655" mark-id="fishy-triangle6" mode="color"/>
<path d="M417.221 59.9984L424.886 62.359L418.271 67.949L417.221 59.9984Z" fill="#FFE655" mark-id="fishy-triangle7" mode="color"/>
<path d="M408.221 66.9945L415.886 69.3551L409.271 74.9451L408.221 66.9945Z" fill="#FFE655" mark-id="fishy-triangle8" mode="color"/>
<circle cx="362.795" cy="66.3821" r="2" transform="rotate(-12.7835 362.795 66.3821)" fill="#202020"/>
<circle cx="368.795" cy="83.3821" r="2" transform="rotate(-12.7835 368.795 83.3821)" fill="#202020"/>
<path d="M373.395 76.9496C375.571 74.4244 378.154 68.8531 371.079 66.7695" stroke="#202020" stroke-width="2" stroke-linecap="round" stroke-linejoin="round"/>
</g>

<g data-slot-id="octopus" class="octopus">

<path d="M164.628 129.737C173.357 131.426 179.699 134.527 184.154 138.537C188.615 142.552 191.13 147.429 192.278 152.566C194.306 161.637 192.076 171.512 188.872 179.062C191.355 177.666 194.64 175.809 198.012 174.394C200.425 173.383 202.968 172.555 205.432 172.235C207.897 171.916 210.347 172.098 212.512 173.176C217.18 175.502 217.947 179.607 218.592 183.163C219.254 186.815 219.795 189.831 223.217 191.547C223.471 191.675 223.647 191.688 223.77 191.674C223.9 191.659 224.051 191.602 224.232 191.473C224.632 191.188 224.996 190.697 225.412 190.108C225.598 189.845 225.811 189.538 226.022 189.295C226.196 189.094 226.544 188.715 227.05 188.606C227.353 188.541 227.67 188.58 227.957 188.733C228.219 188.872 228.404 189.078 228.532 189.262C228.778 189.617 228.959 190.106 229.116 190.667C229.562 192.264 229.429 193.661 228.892 194.834C228.364 195.989 227.481 196.849 226.551 197.464C225.62 198.078 224.602 198.474 223.725 198.69C223.286 198.799 222.865 198.866 222.494 198.889C222.18 198.909 221.826 198.902 221.51 198.818C218.957 198.4 217.676 196.396 216.586 194.363C215.439 192.22 214.399 189.837 212.396 187.69C211.453 186.68 210.147 186.162 208.548 186.043C206.936 185.924 205.082 186.217 203.164 186.776C199.502 187.844 195.805 189.823 193.489 191.343C193.473 191.55 193.491 191.855 193.585 192.263C193.721 192.859 193.991 193.554 194.378 194.245C195.172 195.663 196.329 196.847 197.522 197.236C198.345 197.505 199.417 197.635 200.696 197.674C201.967 197.712 203.376 197.658 204.856 197.594C207.76 197.468 210.988 197.289 213.585 197.792C215.012 198.068 216.136 199.14 216.921 200.35C217.72 201.581 218.269 203.106 218.489 204.578C218.705 206.029 218.622 207.575 217.985 208.771C217.658 209.386 217.177 209.918 216.517 210.264C215.857 210.61 215.089 210.733 214.244 210.648C212.86 210.508 211.737 210.362 210.855 210.188C209.997 210.018 209.265 209.803 208.736 209.478C208.46 209.308 208.194 209.082 208.006 208.772C207.81 208.447 207.735 208.091 207.76 207.737C207.805 207.103 208.169 206.519 208.525 206.044C209.075 205.31 209.877 205.186 210.449 205.195C210.737 205.2 211.018 205.237 211.249 205.273C211.316 205.284 211.376 205.293 211.432 205.302C211.403 205.226 211.37 205.142 211.332 205.051C211.04 204.354 210.899 203.778 210.821 203.327C210.187 203.61 209.204 204.056 207.712 204.644C204.624 205.862 202.517 206.398 200.318 206.581C198.168 206.759 195.938 206.596 192.707 206.471C191.203 206.413 189.874 205.468 188.799 204.354C187.699 203.215 186.712 201.739 185.895 200.299C185.099 198.897 184.445 197.489 183.984 196.379C183.882 196.961 183.82 197.644 183.808 198.366C183.791 199.398 183.873 200.458 184.043 201.35C184.222 202.289 184.47 202.876 184.671 203.113C186.571 205.346 190.189 207.159 193.62 208.59C195.328 209.303 196.88 209.879 198.145 210.386C198.761 210.634 199.312 210.866 199.741 211.08C199.955 211.188 200.16 211.301 200.337 211.42C200.455 211.499 200.608 211.613 200.744 211.763L200.873 211.926L200.936 212.029C201.07 212.272 201.119 212.532 201.144 212.698C201.178 212.924 201.192 213.18 201.197 213.443C201.207 213.972 201.179 214.635 201.135 215.358C201.044 216.845 200.891 218.582 200.809 220.318C200.728 222.054 200.73 223.62 200.924 224.675C201.01 225.14 201.118 225.398 201.194 225.52C201.215 225.514 201.235 225.507 201.256 225.501C201.159 225.266 201.156 225 201.249 224.76L201.25 224.758L201.257 224.74C201.262 224.728 201.268 224.712 201.277 224.691C201.293 224.649 201.318 224.591 201.349 224.518C201.41 224.373 201.498 224.171 201.606 223.941C201.817 223.493 202.128 222.891 202.487 222.396C202.665 222.151 202.886 221.887 203.148 221.682C203.398 221.487 203.818 221.243 204.347 221.303C204.912 221.369 205.288 221.742 205.512 222.103C205.731 222.457 205.882 222.909 205.993 223.423C206.172 224.245 206.51 225.031 206.859 225.862C207.181 226.628 207.561 227.531 207.615 228.385C207.644 228.842 207.585 229.326 207.359 229.795C207.132 230.264 206.771 230.65 206.305 230.962C205.412 231.561 204.05 231.947 202.153 232.195C200.676 232.389 199.43 232.302 198.389 231.938C197.333 231.569 196.544 230.933 195.969 230.131C194.864 228.589 194.589 226.472 194.449 224.603C194.413 224.123 194.385 223.641 194.358 223.176C194.331 222.708 194.306 222.258 194.272 221.824C194.204 220.947 194.108 220.191 193.937 219.576C193.765 218.959 193.543 218.581 193.293 218.363C193.071 218.168 192.725 218.011 192.085 218.045C189.732 218.172 187.394 217.254 185.272 215.827C183.143 214.394 181.155 212.397 179.474 210.22C177.79 208.041 176.387 205.65 175.443 203.402C174.873 202.045 174.454 200.696 174.256 199.455C173.904 200.665 173.6 202.081 173.461 203.484C173.294 205.167 173.371 206.734 173.796 207.899C174.737 210.484 175.878 211.858 176.841 212.722C177.336 213.167 177.793 213.487 178.226 213.801C178.616 214.084 179.103 214.438 179.417 214.902C179.706 215.331 179.72 215.853 179.71 216.18C179.699 216.56 179.636 216.99 179.562 217.414C179.404 218.318 179.194 219.232 179.069 220.203C178.944 221.168 178.94 221.965 179.117 222.526C179.2 222.789 179.314 222.968 179.448 223.093C179.578 223.215 179.777 223.331 180.108 223.395C181.961 223.754 182.898 223.701 183.809 223.637C184.807 223.568 185.815 223.482 187.661 223.839C188.093 223.923 188.636 224.137 188.932 224.671C189.243 225.231 189.1 225.804 188.913 226.181C188.557 226.902 187.744 227.578 186.802 228.13C184.84 229.281 181.662 230.279 177.936 230.095C175.832 229.991 174.468 229.027 173.646 227.624C172.875 226.307 172.618 224.666 172.479 223.226C172.41 222.505 172.364 221.757 172.314 221.128C172.262 220.474 172.203 219.922 172.107 219.478C172.007 219.015 171.892 218.794 171.814 218.704C171.792 218.678 171.781 218.645 171.628 218.659C169.125 218.877 167.325 217.268 166.088 215.164C164.848 213.054 164.011 210.204 163.439 207.315C162.754 203.853 162.428 200.206 162.296 197.439C162.159 197.818 162.018 198.213 161.873 198.62C161.216 200.462 160.491 202.516 159.819 204.271C159.165 205.98 158.512 207.542 157.991 208.31C156.385 210.676 154.165 212.266 152.618 213.699C151.031 215.167 149.952 216.592 149.897 218.904C149.879 219.648 150.174 220.458 150.695 221.368C151.228 222.299 151.868 223.135 152.5 224.086C153.073 224.946 153.684 225.964 153.773 226.994C153.822 227.551 153.72 228.121 153.398 228.654C153.085 229.173 152.604 229.59 152.003 229.932C150.512 230.78 149.918 231.643 149.467 232.166C149.365 232.283 149.183 232.491 148.948 232.633C148.813 232.713 148.621 232.798 148.382 232.814C148.132 232.83 147.905 232.767 147.719 232.665C147.402 232.491 147.205 232.204 147.096 232.032C146.968 231.829 146.836 231.574 146.697 231.289C145.854 229.552 146.399 228.133 146.5 227.286C146.554 226.837 146.547 226.388 146.351 225.829C146.147 225.25 145.719 224.493 144.834 223.482C142.771 221.122 141.356 217.101 141.169 213.109C140.983 209.115 142.018 204.858 145.225 202.239C146.491 201.204 147.348 199.365 148.029 197.175C148.364 196.1 148.643 194.991 148.914 193.913C149.174 192.875 149.431 191.85 149.718 190.967C149.453 190.951 149.008 190.996 148.4 191.169C147.662 191.379 146.841 191.733 146.121 192.166C145.384 192.608 144.839 193.08 144.565 193.486C141.351 198.245 140.876 203.499 139.819 208.549C139.3 211.03 138.632 213.461 137.353 215.596C136.059 217.759 134.163 219.578 131.271 220.883C126.234 223.156 120.427 221.56 116.011 219.894C114.89 219.471 113.836 219.036 112.892 218.643C111.939 218.246 111.111 217.9 110.408 217.643C109.709 217.386 109.223 217.253 108.914 217.221C108.582 218.108 108.543 218.658 108.531 219.143C108.516 219.723 108.551 220.436 108.157 221.383C107.893 222.018 107.443 222.481 106.825 222.662C106.261 222.827 105.725 222.706 105.353 222.568C104.968 222.426 104.637 222.221 104.415 222.068C104.301 221.988 104.207 221.917 104.141 221.863C104.107 221.836 104.08 221.814 104.06 221.797C104.058 221.795 104.056 221.793 104.054 221.792C104.044 221.783 104.031 221.772 104.015 221.759C103.982 221.733 103.939 221.696 103.887 221.65C103.784 221.558 103.646 221.427 103.489 221.257C103.177 220.92 102.782 220.422 102.453 219.773C101.778 218.444 101.406 216.53 102.462 214.232C103.594 211.769 105.479 210.638 107.688 210.242C109.804 209.861 112.259 210.147 114.637 210.444C117.081 210.75 119.495 211.079 121.763 210.918C124.001 210.759 126.006 210.127 127.658 208.571C130.422 205.966 132.666 201.703 134.348 197.641C136.02 193.6 137.073 189.923 137.543 188.496C137.543 188.494 137.544 188.491 137.545 188.485C137.545 188.478 137.544 188.465 137.54 188.446C137.532 188.405 137.51 188.341 137.458 188.265C137.35 188.105 137.16 187.954 136.932 187.88C136.72 187.812 136.483 187.812 136.234 187.933C135.978 188.058 135.625 188.354 135.285 189.023C134.821 189.937 133.849 191.273 132.68 192.744C131.491 194.239 130.042 195.945 128.571 197.622C125.632 200.974 122.577 204.245 121.292 205.546C118.846 208.022 115.516 208.535 112.022 207.734C108.55 206.937 104.81 204.83 101.276 201.895C100.476 201.231 99.7738 200.236 99.1816 199.292C98.8788 198.809 98.5895 198.315 98.3212 197.853C98.0495 197.385 97.8026 196.956 97.5703 196.579C97.4666 196.411 97.3691 196.261 97.2797 196.128C97.278 196.136 97.2765 196.144 97.2748 196.153C96.894 198.12 97.3372 199.931 97.6636 201.203C97.7418 201.508 97.8214 201.816 97.8708 202.07C97.8959 202.2 97.919 202.343 97.9276 202.486C97.9354 202.617 97.9369 202.823 97.8687 203.042C97.7915 203.289 97.6076 203.595 97.2413 203.76C96.9183 203.905 96.6139 203.866 96.4425 203.827C96.1153 203.752 95.7823 203.558 95.4984 203.375L95.4745 203.36C94.3899 202.662 93.1159 201.859 92.3005 200.724C91.4154 199.492 91.1206 197.967 91.7084 195.994C92.3282 193.913 93.7055 191.976 95.4201 190.931C96.2873 190.403 97.2781 190.082 98.3158 190.139C99.3676 190.197 100.38 190.64 101.272 191.485C103.613 193.701 106.681 196.147 109.485 197.371C110.889 197.984 112.123 198.242 113.118 198.106C114.049 197.979 114.861 197.497 115.49 196.38C116.747 194.149 118.137 192.058 119.282 190.231C120.216 188.741 120.971 187.444 121.445 186.321C118.772 185.017 116.26 182.957 113.992 180.609C111.472 177.997 109.207 174.983 107.312 172.138C105.415 169.291 103.878 166.596 102.815 164.614C102.284 163.622 101.869 162.807 101.587 162.239C101.518 162.099 101.458 161.974 101.405 161.865C101.242 161.853 101.048 161.84 100.828 161.83C100.137 161.799 99.2159 161.792 98.2708 161.88C97.3149 161.97 96.394 162.153 95.6735 162.471C94.9546 162.789 94.5508 163.186 94.3918 163.651C94.1533 164.347 93.9337 164.947 93.7897 165.527C93.6474 166.102 93.6077 166.557 93.6759 166.932C93.7859 167.536 94.2627 168.344 96.5193 169.02C96.7219 169.081 96.9723 169.177 97.1867 169.349C97.4222 169.539 97.7031 169.908 97.6391 170.424C97.5858 170.852 97.316 171.123 97.174 171.244C97.0093 171.384 96.8214 171.49 96.6533 171.57C95.9966 171.881 94.9625 172.112 93.9272 172.2C92.8908 172.287 91.678 172.245 90.6898 171.879C90.1874 171.693 89.6812 171.401 89.3064 170.938C88.9156 170.455 88.7237 169.856 88.7569 169.183C88.7998 168.315 88.7794 167.358 88.801 166.192C88.8218 165.066 88.8826 163.827 89.0957 162.574C89.5245 160.052 90.5801 157.421 93.1949 155.463C95.8099 153.505 98.2016 152.92 100.71 153.175C103.122 153.421 105.612 154.45 108.381 155.541C113.955 157.737 116.08 163.122 118.094 167.587C120.185 172.224 122.14 175.889 126.987 176.444C128.292 176.594 129.73 176.305 130.891 175.945C131.418 175.782 131.868 175.607 132.201 175.469C132.18 175.086 132.154 174.558 132.134 173.904C132.089 172.471 132.064 170.435 132.147 168.016C132.312 163.184 132.903 156.784 134.623 150.579C136.338 144.389 139.206 138.284 144.002 134.167C148.844 130.008 155.532 127.977 164.628 129.737Z" fill="#F974AD" color-id="octopus-body" stroke="#202020" stroke-width="2" stroke-linecap="round" stroke-linejoin="round"/>
<ellipse cx="122.306" cy="199.601" rx="1" ry="2.5" transform="rotate(18.2221 122.306 199.601)" fill="#FFFF0B" mark-id="octopus-ellipse1" mode="color"/>
<ellipse cx="126.395" cy="193.577" rx="1" ry="2.5" transform="rotate(18.2221 126.395 193.577)" fill="#FFFF0B" mark-id="octopus-ellipse2" mode="color"/>
<ellipse cx="117.256" cy="202.15" rx="1" ry="2.5" transform="rotate(18.2221 117.256 202.15)" fill="#FFFF0B" mark-id="octopus-ellipse3" mode="color"/>
<ellipse cx="123.952" cy="216.988" rx="1" ry="2.5" transform="rotate(18.2221 123.952 216.988)" fill="#FFFF0B" mark-id="octopus-ellipse4" mode="color"/>
<ellipse cx="130.902" cy="215.064" rx="1" ry="2.5" transform="rotate(18.2221 130.902 215.064)" fill="#FFFF0B" mark-id="octopus-ellipse5" mode="color"/>
<ellipse cx="136.253" cy="208.404" rx="1" ry="2.5" transform="rotate(18.2221 136.253 208.404)" fill="#FFFF0B" mark-id="octopus-ellipse6" mode="color"/>
<ellipse cx="146.365" cy="206.469" rx="1" ry="2.5" transform="rotate(18.2221 146.365 206.469)" fill="#FFFF0B" mark-id="octopus-ellipse7" mode="color"/>
<ellipse cx="144.813" cy="214.38" rx="1" ry="2.5" transform="rotate(18.2221 144.813 214.38)" fill="#FFFF0B" mark-id="octopus-ellipse8" mode="color"/>
<ellipse cx="150.766" cy="199.495" rx="1" ry="2.5" transform="rotate(18.2221 150.766 199.495)" fill="#FFFF0B" mark-id="octopus-ellipse9" mode="color"/>
<ellipse cx="166.925" cy="207.973" rx="1" ry="2.5" transform="rotate(18.2221 166.925 207.973)" fill="#FFFF0B" mark-id="octopus-ellipse10" mode="color"/>
<ellipse cx="170.424" cy="213.336" rx="1" ry="2.5" transform="rotate(18.2221 170.424 213.336)" fill="#FFFF0B" mark-id="octopus-ellipse11" mode="color"/>
<ellipse cx="175.509" cy="220.275" rx="1" ry="2.5" transform="rotate(18.2221 175.509 220.275)" fill="#FFFF0B" mark-id="octopus-ellipse12" mode="color"/>
<ellipse cx="181.15" cy="206.339" rx="1" ry="2.5" transform="rotate(18.2221 181.15 206.339)" fill="#FFFF0B" mark-id="octopus-ellipse13" mode="color"/>
<ellipse cx="184.011" cy="210.44" rx="1" ry="2.5" transform="rotate(18.2221 184.011 210.44)" fill="#FFFF0B" mark-id="octopus-ellipse14" mode="color"/>
<ellipse cx="187.498" cy="212.64" rx="1" ry="2.5" transform="rotate(18.2221 187.498 212.64)" fill="#FFFF0B" mark-id="octopus-ellipse15" mode="color"/>
<ellipse cx="191.25" cy="201.242" rx="1" ry="2.5" transform="rotate(18.2221 191.25 201.242)" fill="#FFFF0B" mark-id="octopus-ellipse16" mode="color"/>
<ellipse cx="195.362" cy="201.543" rx="1" ry="2.5" transform="rotate(18.2221 195.362 201.543)" fill="#FFFF0B" mark-id="octopus-ellipse17" mode="color"/>
<ellipse cx="199.474" cy="201.844" rx="1" ry="2.5" transform="rotate(18.2221 199.474 201.844)" fill="#FFFF0B" mark-id="octopus-ellipse18" mode="color"/>
<ellipse cx="206.655" cy="176.835" rx="1" ry="2.5" transform="rotate(18.2221 206.655 176.835)" fill="#FFFF0B" mark-id="octopus-ellipse19" mode="color"/>
<ellipse cx="210.454" cy="178.086" rx="1" ry="2.5" transform="rotate(18.2221 210.454 178.086)" fill="#FFFF0B" mark-id="octopus-ellipse20" mode="color"/>
<ellipse cx="213.628" cy="181.237" rx="1" ry="2.5" transform="rotate(18.2221 213.628 181.237)" fill="#FFFF0B" mark-id="octopus-ellipse21" mode="color"/>
<ellipse cx="109.203" cy="162.651" rx="1" ry="2.5" transform="rotate(18.2221 109.203 162.651)" fill="#FFFF0B" mark-id="octopus-ellipse22" mode="color"/>
<ellipse cx="112.065" cy="166.751" rx="1" ry="2.5" transform="rotate(18.2221 112.065 166.751)" fill="#FFFF0B" mark-id="octopus-ellipse23" mode="color"/>
<ellipse cx="115.563" cy="172.114" rx="1" ry="2.5" transform="rotate(18.2221 115.563 172.114)" fill="#FFFF0B" mark-id="octopus-ellipse24" mode="color"/>
<circle cx="156.771" cy="155.675" r="3" transform="rotate(18.2221 156.771 155.675)" fill="#202020"/>
<circle cx="170.069" cy="160.053" r="3" transform="rotate(18.2221 170.069 160.053)" fill="#202020"/>
<path d="M165.544 171.197C165.971 171.337 166.207 171.799 166.018 172.206C165.747 172.791 165.395 173.338 164.972 173.829C164.373 174.525 163.642 175.097 162.821 175.511C162 175.925 161.106 176.174 160.189 176.242C159.273 176.311 158.351 176.198 157.478 175.911C156.605 175.623 155.797 175.167 155.1 174.567C154.404 173.967 153.832 173.236 153.418 172.416C153.004 171.595 152.755 170.701 152.687 169.784C152.638 169.138 152.68 168.49 152.809 167.858C152.899 167.418 153.364 167.187 153.79 167.327V167.327C154.216 167.467 154.442 167.927 154.367 168.369C154.295 168.795 154.275 169.23 154.307 169.663C154.36 170.367 154.551 171.053 154.869 171.683C155.187 172.314 155.626 172.875 156.161 173.335C156.696 173.796 157.316 174.146 157.986 174.367C158.657 174.588 159.364 174.674 160.068 174.622C160.772 174.569 161.459 174.378 162.089 174.06C162.719 173.742 163.28 173.303 163.741 172.768C164.024 172.439 164.266 172.078 164.461 171.692C164.664 171.292 165.118 171.056 165.544 171.197V171.197Z" fill="#202020"/>
</g>

<g data-slot-id="whale" class="whale">

<path d="M20.4284 96.7494C20.6153 96.4747 20.9261 96.3101 21.2583 96.3111L143.469 96.7368C143.891 96.7382 144.268 97.0046 144.409 97.4031C144.549 97.8016 144.424 98.2457 144.096 98.5121C135.006 105.894 105.514 125.426 76.9995 135.575C62.3466 140.791 49.7801 135.412 40.138 126.748C30.5181 118.105 23.6864 106.104 20.3265 97.682C20.2035 97.3735 20.2417 97.0241 20.4284 96.7494Z" fill="#6D8C87" color-id="whale-lower" stroke="#202020" stroke-width="2" stroke-linecap="round" stroke-linejoin="round"/>
<path d="M22.1995 99.5121C30.6388 111.427 52.7414 131.58 63.5158 132.746C80.6207 134.596 118.909 108.117 138.251 99.4697" stroke="#FFE655" mark-id="whale-lineset1"  special="true" mode="color" stroke-linecap="round" stroke-linejoin="round" stroke-dasharray="10 10"/>
<path d="M25.3795 98.3204C33.8189 110.236 52.0915 127.492 62.8658 128.657C79.9708 130.507 114.358 106.952 133.7 98.3051" stroke="#FFE655" mark-id="whale-lineset2"  special="true" mode="color" stroke-linecap="round" stroke-linejoin="round" stroke-dasharray="10 10"/>
<path d="M32.1171 100.479C40.5564 112.394 53.8924 122.391 64.6667 123.557C81.7716 125.407 116.159 101.852 135.501 93.2047" stroke="#FFE655" mark-id="whale-lineset3"  special="true" mode="color" stroke-linecap="round" stroke-linejoin="round" stroke-dasharray="10 10"/>
<path d="M33.7338 94.6519C42.1731 106.567 55.5091 116.565 66.2834 117.73C83.3883 119.58 117.776 96.0251 137.118 87.3779" stroke="#FFE655" mark-id="whale-lineset4"   special="true" mode="color" stroke-linecap="round" stroke-linejoin="round" stroke-dasharray="10 10"/>
<path d="M178.212 5.12203C178.584 5.02348 179.149 4.99008 179.622 5.39681C180.053 5.76699 180.157 6.29669 180.177 6.67767C180.219 7.45434 179.963 8.56228 179.487 9.96997C175.641 21.3525 172.907 24.2486 172.674 37.4022C172.611 40.9052 171.345 46.1105 169.399 51.9542C167.442 57.829 164.765 64.4492 161.811 70.8246C158.859 77.1989 155.621 83.3492 152.539 88.2787C150.998 90.7429 149.488 92.9152 148.063 94.6634C146.651 96.3974 145.277 97.772 144 98.58C142.759 99.3644 140.839 100.201 138.471 101.059C136.085 101.923 133.184 102.829 129.943 103.741C123.459 105.567 115.572 107.426 107.638 109.029C99.7046 110.631 91.7072 111.978 85.0009 112.775C81.6483 113.174 78.6063 113.436 76.0502 113.522C74.7542 113.566 73.5648 113.564 72.5126 113.509C73.3605 114.591 74.1921 115.791 74.8383 116.985C75.3753 117.978 75.8105 119.011 76.0037 119.998C76.1961 120.98 76.1684 122.027 75.6319 122.928C74.7821 124.356 73.0768 125.17 71.2277 125.508C69.3403 125.852 67.1046 125.743 64.9043 125.138C60.4989 123.925 56.0423 120.652 54.8651 114.72C54.5049 112.905 52.9954 111.032 50.4959 109.17C48.0262 107.331 44.7471 105.618 41.1468 104.078C33.9521 100.999 25.646 98.6758 20.4059 97.397C20.0139 97.3013 19.7174 96.9797 19.6548 96.5811C19.5923 96.1824 19.7757 95.7847 20.1195 95.5735C25.4878 92.279 34.8687 87.3941 44.8894 83.6781C54.8637 79.9793 65.6715 77.3614 73.8037 78.8052C83.6063 80.5456 96.184 83.7611 107.319 86.0287C112.925 87.1701 118.195 88.0798 122.67 88.4742C127.184 88.8721 130.735 88.7285 132.992 87.8812C134.086 87.4708 135.565 86.5447 137.324 85.1409C139.067 83.75 141.027 81.9365 143.078 79.8133C147.179 75.5665 151.6 70.1199 155.319 64.4238C159.045 58.7166 162.026 52.8192 163.304 47.6632C164.588 42.4778 164.092 38.3317 161.318 35.7323C154.968 29.7802 149.563 24.1344 146.865 20.4967C146.19 19.5867 145.656 18.7656 145.321 18.0734C145.154 17.7283 145.019 17.3785 144.95 17.0422C144.883 16.7198 144.855 16.2962 145.037 15.8866C145.244 15.4223 145.639 15.1559 146.057 15.0486C146.433 14.9519 146.831 14.9788 147.195 15.0451C147.928 15.1789 148.873 15.5426 150.015 16.0996C154.668 18.3688 157.669 21.9169 159.705 23.7544C160.227 24.2257 160.661 24.5656 161.038 24.7803C161.412 24.9932 161.659 25.042 161.828 25.0302C162.124 25.0096 162.729 24.7394 163.636 23.0171C165.517 19.4413 170.022 13.1078 173.58 9.07378C174.474 8.06126 175.325 7.17436 176.074 6.50373C176.448 6.16861 176.81 5.87553 177.15 5.6454C177.477 5.42345 177.841 5.2203 178.212 5.12203Z" fill="#5D44BD" color-id="whale-upper" stroke="#202020" stroke-width="2" stroke-linecap="round" stroke-linejoin="round"/>
<circle cx="34.4612" cy="94.4683" r="2.24995" transform="rotate(-14.2368 34.4612 94.4683)" fill="#202020"/>
</g>

<g data-slot-id="gold-fish" class="gold-fish">

<path d="M247.047 147.529C247.171 146.039 248.262 145.017 249.608 145.192C249.608 145.192 247.013 136.61 251.907 130.093C256.958 123.366 265.093 121.812 265.093 121.812C265.178 120.67 263.759 115.79 272.902 113.313C281.27 111.045 273.562 119.831 278.591 119.046C282.613 118.418 288.056 127.322 290.897 131.796C291.313 128.063 292.044 120.128 299.911 119.834C307.777 119.541 307.837 127.842 302.029 131.468C304.397 132.733 313.533 130.351 309.236 140.529C306.056 148.061 292.602 136.699 293.093 138.111C293.442 139.113 296.084 150.405 291.868 154.914L291.862 154.918C290.803 155.553 290.288 155.862 291.669 158.036C293.089 160.273 290.84 164.429 284.565 165.326C278.171 164.497 282.475 162.09 279.349 162.803C275.33 163.718 270.385 165.054 266.463 164.553C259.869 163.71 255.041 157.822 252.748 154.221C252.189 154.308 251.735 154.541 250.15 153.679C248.168 152.6 250.344 152.39 249.527 150.04C249.078 148.75 246.854 149.832 247.047 147.529Z" fill="#FFFF0B" color-id="gold-fishbody" stroke="#202020" stroke-width="2" stroke-linecap="round"/>
<path d="M261.621 142.892C262.16 142.604 263.165 141.821 262.869 140.988" stroke="#202020" stroke-linecap="round"/>
<path d="M252.458 141.567C257.183 143.537 259.349 143.464 260.952 137.81" stroke="#202020" stroke-width="2" stroke-linecap="round"/>
<ellipse cx="271.682" cy="117.627" rx="1.09391" ry="2.73477" transform="rotate(76.9942 271.682 117.627)" fill="#FF8756" mark-id="goldfish-ellipse1" mode="color"/>
<ellipse cx="285.911" cy="161.681" rx="1.09391" ry="2.73477" transform="rotate(76.9942 285.911 161.681)" fill="#FF8756" mark-id="goldfish-ellipse2" mode="color"/>
<ellipse cx="294.916" cy="129.303" rx="0.266883" ry="1.35422" transform="rotate(30.3773 294.916 129.303)" fill="#FF8756" mark-id="goldfish-ellipse3" mode="color"/>
<ellipse cx="296.379" cy="130.565" rx="0.266883" ry="1.35422" transform="rotate(76.9942 296.379 130.565)" fill="#FF8756" mark-id="goldfish-ellipse4" mode="color"/>
<ellipse cx="296.358" cy="132.284" rx="0.266883" ry="1.35422" transform="rotate(89.267 296.358 132.284)" fill="#FF8756" mark-id="goldfish-ellipse5" mode="color"/>
<ellipse cx="296.328" cy="133.851" rx="0.266883" ry="1.35422" transform="rotate(116.922 296.328 133.851)" fill="#FF8756" mark-id="goldfish-ellipse6" mode="color"/>
<ellipse cx="295.149" cy="135.145" rx="0.266883" ry="1.35422" transform="rotate(134.832 295.149 135.145)" fill="#FF8756" mark-id="goldfish-ellipse7" mode="color"/>
<path d="M274.5 131.502C277.5 131.501 280.5 130.5 281.5 138C282.446 145.093 277.5 145.002 276 145.002" stroke="#FF8756" mark-id="goldfish-curve1" special="true" mode="color" stroke-width="2" stroke-linecap="round"/>
<path d="M275 135.023C276.264 135.023 277.528 134.506 277.95 138.381C278.348 142.047 276.264 142 275.632 142" stroke="#FF8756" mark-id="goldfish-curve2" special="true" mode="color" stroke-width="2" stroke-linecap="round"/>
</g>


<circle cx="236" cy="129" r="4" fill="white" fill-opacity="0.3"/>
<circle cx="347.5" cy="64.5" r="2.5" fill="white" fill-opacity="0.3"/>
<circle cx="340.5" cy="59.5" r="1.5" fill="white" fill-opacity="0.3"/>
<circle cx="336.5" cy="54.5" r="0.5" fill="white" fill-opacity="0.3"/>
<circle cx="223" cy="120" r="3" fill="white" fill-opacity="0.3"/>
<circle cx="214" cy="108" r="2" fill="white" fill-opacity="0.3"/>
</g>
</svg>
