<svg xmlns="http://www.w3.org/2000/svg" width="36" height="36" viewBox="0 0 36 36" fill="none">
  <path d="M17.6909 35.38C27.4613 35.38 35.3818 27.4599 35.3818 17.69C35.3818 7.92008 27.4613 0 17.6909 0C7.92049 0 0 7.92008 0 17.69C0 27.4599 7.92049 35.38 17.6909 35.38Z" fill="#F34D08"/>
  <path d="M7.50249 23.0752C7.67866 28.507 12.1271 32.8524 17.6032 32.8524C23.0793 32.8524 27.5277 28.507 27.7039 23.0752C20.9211 27.7289 14.1824 27.7436 7.48779 23.0752H7.50249Z" fill="#FFC805"/>
  <path d="M17.618 12.6172C12.553 12.6172 8.35418 16.346 7.62012 21.2053C14.168 26.1526 20.8332 26.2407 27.616 21.2053C26.8819 16.346 22.6831 12.6172 17.618 12.6172ZM16.2821 23.2459C15.9444 23.2459 15.6654 22.6293 15.6654 21.8806C15.6654 21.1319 15.9444 20.5153 16.2821 20.5153C16.6197 20.5153 16.8987 21.1319 16.8987 21.8806C16.8987 22.6293 16.6197 23.2459 16.2821 23.2459ZM18.5136 23.2459C18.1759 23.2459 17.897 22.6293 17.897 21.8806C17.897 21.1319 18.1759 20.5153 18.5136 20.5153C18.8513 20.5153 19.1302 21.1319 19.1302 21.8806C19.1302 22.6293 18.8513 23.2459 18.5136 23.2459Z" fill="#FFC805"/>
  <path d="M28.2621 10.543H7.10641C4.70637 10.543 2.76074 12.4885 2.76074 14.8884V14.9618C2.76074 17.3617 4.70637 19.3072 7.10641 19.3072H28.2621C30.6621 19.3072 32.6077 17.3617 32.6077 14.9618V14.8884C32.6077 12.4885 30.6621 10.543 28.2621 10.543Z" fill="#FFC805"/>
  <path d="M13.1115 18.6416C15.0899 18.6416 16.6937 17.0379 16.6937 15.0596C16.6937 13.0813 15.0899 11.4775 13.1115 11.4775C11.1331 11.4775 9.5293 13.0813 9.5293 15.0596C9.5293 17.0379 11.1331 18.6416 13.1115 18.6416Z" fill="white"/>
  <path d="M12.5669 18.0896C13.2804 18.0896 13.8588 17.5112 13.8588 16.7977C13.8588 16.0843 13.2804 15.5059 12.5669 15.5059C11.8533 15.5059 11.2749 16.0843 11.2749 16.7977C11.2749 17.5112 11.8533 18.0896 12.5669 18.0896Z" fill="#2D2D2D"/>
  <path d="M22.433 18.7201C24.4519 18.7201 26.0886 17.0835 26.0886 15.0646C26.0886 13.0458 24.4519 11.4092 22.433 11.4092C20.414 11.4092 18.7773 13.0458 18.7773 15.0646C18.7773 17.0835 20.414 18.7201 22.433 18.7201Z" fill="white"/>
  <path d="M21.9198 18.0494C22.609 18.0494 23.1677 17.4907 23.1677 16.8016C23.1677 16.1124 22.609 15.5537 21.9198 15.5537C21.2306 15.5537 20.6719 16.1124 20.6719 16.8016C20.6719 17.4907 21.2306 18.0494 21.9198 18.0494Z" fill="#2D2D2D"/>
</svg>
