<svg width="50" height="50" viewBox="0 0 50 50" fill="none" xmlns="http://www.w3.org/2000/svg">
<circle cx="25" cy="25" r="25" fill="#FF0000"/>
<path d="M34.1667 18.2308H15.8333C15.6123 18.2308 15.4004 18.3159 15.2441 18.4673C15.0878 18.6188 15 18.8242 15 19.0385C15 19.2527 15.0878 19.4581 15.2441 19.6096C15.4004 19.7611 15.6123 19.8462 15.8333 19.8462H16.6667V34.3846C16.6667 34.813 16.8423 35.2239 17.1548 35.5269C17.4674 35.8298 17.8913 36 18.3333 36H31.6667C32.1087 36 32.5326 35.8298 32.8452 35.5269C33.1577 35.2239 33.3333 34.813 33.3333 34.3846V19.8462H34.1667C34.3877 19.8462 34.5996 19.7611 34.7559 19.6096C34.9122 19.4581 35 19.2527 35 19.0385C35 18.8242 34.9122 18.6188 34.7559 18.4673C34.5996 18.3159 34.3877 18.2308 34.1667 18.2308ZM31.6667 34.3846H18.3333V19.8462H31.6667V34.3846ZM20 15.8077C20 15.5935 20.0878 15.388 20.2441 15.2366C20.4004 15.0851 20.6123 15 20.8333 15H29.1667C29.3877 15 29.5996 15.0851 29.7559 15.2366C29.9122 15.388 30 15.5935 30 15.8077C30 16.0219 29.9122 16.2273 29.7559 16.3788C29.5996 16.5303 29.3877 16.6154 29.1667 16.6154H20.8333C20.6123 16.6154 20.4004 16.5303 20.2441 16.3788C20.0878 16.2273 20 16.0219 20 15.8077Z" fill="white"/>
</svg>
