<svg xmlns="http://www.w3.org/2000/svg" width="24" height="24" viewBox="0 0 24 24" fill="none">
  <g clip-path="url(#clip0_553_2326)">
    <path d="M3.24818 19.5272C2.95594 19.4252 2.68043 19.2804 2.43061 19.0977C1.12264 18.1468 0.437168 16.1371 0.201201 14.5837C0.11885 13.8946 0.00713098 13.1177 0.0397474 12.4241C0.179528 9.51102 1.68332 6.78906 3.26576 4.4154C3.52631 4.02456 3.95548 3.7821 4.36835 4.1181C4.63526 4.33532 4.96069 4.86993 5.14242 5.16676C6.2303 6.94377 7.50429 9.27381 7.75875 11.3696C7.62216 11.5289 7.26377 11.8305 7.09369 11.9808L5.38959 13.4913C5.1147 13.7352 4.6212 14.1505 4.39303 14.4159C4.24959 14.5795 4.1351 14.7663 4.05448 14.9684C3.84246 15.4974 3.84809 16.0888 4.07016 16.6137C4.32902 17.2159 4.75978 17.547 5.35252 17.7816C5.38538 18.0639 5.4288 18.9795 5.29798 19.2111C5.15053 19.3267 4.84371 19.4543 4.66348 19.532C4.64201 20.2254 4.66554 20.9353 4.65741 21.63C4.6538 21.9378 4.66852 22.2725 4.64754 22.5776L6.91896 22.5831C6.94134 20.4009 6.94889 18.0933 6.92391 15.9113C6.62508 16.1347 6.3165 16.5329 5.91762 16.475C5.26015 16.3797 5.09449 15.6163 5.58206 15.1996C6.21734 14.6196 6.8598 14.0544 7.5027 13.4859L10.9219 10.4452L13.0954 8.51279C13.4709 8.17778 13.8495 7.81049 14.2528 7.51236C14.5461 7.29557 14.9051 7.42895 15.1527 7.64029C15.5939 8.01688 16.0229 8.40639 16.4557 8.79201L18.8613 10.931C19.2982 11.3192 19.8059 11.7919 20.2545 12.1556L20.2534 10.6303C20.2523 10.2484 20.1785 9.55204 20.4644 9.27203C20.6017 9.14012 20.7864 9.06922 20.9767 9.07541C21.8494 9.10255 21.6442 10.1643 21.6618 10.7428C21.6886 11.6216 21.6213 12.5393 21.6647 13.4144C22.1248 13.8673 22.6507 14.2793 23.1354 14.726C23.5648 15.1217 24.3548 15.6208 23.7305 16.2759C23.2311 16.7996 22.7151 16.2545 22.3267 15.896L22.327 19.7994C22.3269 20.7142 22.3431 21.6705 22.3207 22.5798C22.6128 22.5753 22.9114 22.5685 23.2035 22.5808C23.6564 22.5998 23.7907 22.7526 24 23.112V23.4599C23.8303 23.766 23.7722 23.8296 23.4637 23.9999H0.536414C0.243539 23.8359 0.166304 23.7771 0 23.4843V23.0894C0.323862 22.5749 0.459134 22.5829 1.059 22.5785C1.22822 22.5773 1.40979 22.5786 1.57984 22.5789L3.24398 22.5867C3.25912 21.6762 3.2892 20.4269 3.24818 19.5272ZM19.5791 20.7497C19.7932 20.713 19.9748 20.6503 20.1013 20.456C20.294 20.16 20.2401 19.653 20.2427 19.3022C20.2489 18.4625 20.2424 17.6218 20.2386 16.7822C20.2319 16.2579 20.0063 15.9858 19.4766 15.9665C18.7953 15.9416 18.1146 15.961 17.433 15.9556C17.215 15.9554 16.3319 15.9411 16.1526 15.9701C15.3216 16.0172 15.4416 16.7688 15.4403 17.3809C15.4384 18.2743 15.4329 19.1706 15.4524 20.0634C15.4619 20.4137 15.7013 20.7161 16.055 20.7364C16.9613 20.7883 17.8766 20.7418 18.7851 20.7553C19.045 20.7592 19.3211 20.7605 19.5791 20.7497ZM8.78555 22.5792L10.1921 22.5839C10.2036 20.845 10.2059 19.1061 10.1991 17.3672C10.6663 17.3567 11.1337 17.355 11.6011 17.3621C11.5976 17.6137 11.5976 17.8654 11.601 18.117L11.5998 21.0158C11.6 21.4585 11.621 22.154 11.5924 22.5783L12.9918 22.5856C13.0345 20.8396 12.9877 19.0853 13.0084 17.3391C13.0189 16.4562 13.0675 15.9361 11.9813 15.9558C11.4623 15.9652 10.9139 15.9462 10.3921 15.9557C10.1818 15.9575 9.69187 15.9438 9.50416 15.9697C8.98552 15.9994 8.80488 16.2901 8.7963 16.7785C8.78862 17.2153 8.79166 17.6526 8.79178 18.0896L8.79455 21.0085C8.79511 21.4459 8.81698 22.1585 8.78555 22.5792Z" fill="#300D37"/>
    <path d="M16.844 17.3702C17.3876 17.3399 18.0671 17.3598 18.6183 17.3617C18.7264 17.4611 18.7409 19.004 18.6203 19.2149C18.6093 19.234 18.4912 19.2447 18.4635 19.2488C18.4912 19.2695 18.5916 19.2634 18.6362 19.2645C18.4873 19.3744 17.0903 19.2176 16.8438 19.3521C16.862 18.8208 16.8686 17.8875 16.844 17.3702Z" fill="#300D37"/>
    <path d="M18.6183 17.3621C18.694 17.3617 18.7659 17.3501 18.8231 17.392C18.8712 17.602 18.8521 19.1014 18.8276 19.3607C18.5905 19.378 17.0101 19.4016 16.8438 19.3525C17.0903 19.218 18.4873 19.3748 18.6362 19.2649C18.5916 19.2638 18.4912 19.2699 18.4635 19.2492C18.4912 19.2451 18.6093 19.2344 18.6203 19.2153C18.7409 19.0044 18.7264 17.4616 18.6183 17.3621Z" fill="#300D37"/>
    <path d="M10.7676 0H11.8759C11.9711 0.0405687 12.5007 0.138202 12.6432 0.173847C13.3822 0.366002 14.0704 0.717009 14.6598 1.2024C15.8599 2.18718 16.525 3.60157 16.5737 5.14603C16.5917 5.71603 16.5382 6.51274 16.5894 7.0391C16.1703 6.57244 15.585 6.12366 14.9376 6.03234C13.7063 5.85872 13.0804 6.65677 12.2244 7.41813L10.144 9.26827C9.81108 9.56412 9.31821 10.0257 8.97441 10.2873C8.45463 8.08144 7.39786 6.11988 6.20215 4.21868C6.51724 2.1853 8.41073 0.382268 10.4196 0.0869358C10.5172 0.072585 10.6558 0.0393909 10.7489 0.00669021L10.7676 0Z" fill="#300D37"/>
    <path d="M20.3719 0H21.3223C21.4221 0.0543345 21.8423 0.150381 21.9863 0.208398C22.7329 0.509055 23.336 1.0754 23.6695 1.7993C24.011 2.54517 24.044 3.39563 23.7616 4.16573C23.4672 4.95555 22.8678 5.59397 22.0982 5.93749C21.3675 6.2667 20.5042 6.27668 19.7582 5.99208C18.9894 5.69438 18.3695 5.10495 18.0334 4.35218C17.7044 3.59243 17.6876 2.73375 17.9866 1.9617C18.3325 1.07913 19.0638 0.376216 19.9817 0.131725C20.0917 0.102427 20.2551 0.0525101 20.3558 0.00735605L20.3719 0Z" fill="#300D37"/>
    <path d="M5.35239 17.7812C5.45095 17.8206 5.45584 17.8049 5.51048 17.8779C5.54238 18.1969 5.52365 18.5344 5.52257 18.8551C5.52184 19.0734 5.4816 19.108 5.29785 19.2108C5.42868 18.9791 5.38525 18.0635 5.35239 17.7812Z" fill="#300D37"/>
  </g>
  <defs>
    <clipPath id="clip0_553_2326">
      <rect width="24" height="24" fill="white"/>
    </clipPath>
  </defs>
</svg>
