<svg xmlns="http://www.w3.org/2000/svg" width="24" height="24" viewBox="0 0 24 24" fill="none">
  <g clip-path="url(#clip0_553_2333)">
    <path d="M11.7945 0H16.0446C16.3487 0.216591 16.4533 0.418964 16.256 0.789145C16.0818 1.11604 15.8679 1.43303 15.6766 1.75162C15.9064 2.15146 16.95 3.43767 15.8488 3.53023C15.2205 3.58303 14.5148 3.50909 13.8787 3.53981C13.613 3.53939 12.9103 3.56545 12.7095 3.53234C12.6855 4.71382 12.7238 5.91103 12.7015 7.08698C12.7981 7.24702 13.1288 7.59844 13.2641 7.7501L14.3391 8.9542L16.5418 11.4235C16.7306 11.6351 17.7868 12.8855 18 12.9427C18.2717 13.0156 19.3937 12.9768 19.7458 12.9839C21.1524 13.0123 22.5949 12.9389 24 12.9906V23.4752C23.831 23.7602 23.7717 23.8331 23.479 24H14.0907C14.0641 23.6733 14.081 23.1167 14.081 22.7698L14.0816 20.5096C14.0822 20.2081 14.1041 19.5157 14.0537 19.2484C14.0301 19.1268 13.9717 19.0147 13.8856 18.9258C13.7268 18.7599 13.5124 18.7204 13.2903 18.7217C12.4977 18.721 11.6929 18.738 10.901 18.7237C10.4965 18.7163 9.94296 18.7443 9.88582 19.2687C9.83459 19.7388 9.86011 20.2927 9.86025 20.7725L9.85772 24H0.521505C0.237293 23.8364 0.166571 23.7762 0 23.4991V12.9826L3.92461 12.9831C4.54071 12.9832 5.20148 13.0012 5.81803 12.9606C5.88387 12.9562 5.98458 12.9378 6.0356 12.8929C6.39518 12.5764 6.70289 12.2017 7.02305 11.8462L8.6182 10.0746L10.365 8.13258C10.6477 7.81842 11.0302 7.42364 11.2829 7.09943C11.3122 6.56916 11.2943 5.91192 11.2941 5.37063L11.2918 2.26741C11.2916 1.72201 11.2617 1.02642 11.335 0.491119C11.367 0.257198 11.6058 0.116523 11.7945 0ZM12.1993 13.3422C13.3567 13.2309 14.2041 12.2017 14.0913 11.0445C13.9785 9.88725 12.9482 9.04109 11.7911 9.15532C10.6361 9.26937 9.79174 10.2974 9.90436 11.4526C10.017 12.6078 11.044 13.4534 12.1993 13.3422ZM3.75305 17.2687C4.42645 17.0669 4.27917 16.341 4.28876 15.7834C4.29909 15.1826 3.9649 14.9445 3.39457 14.9837C2.79136 15.1827 2.90255 15.6448 2.87655 16.1266C2.84309 16.7474 2.96438 17.3985 3.75305 17.2687ZM3.75279 21.0185C4.42699 20.8158 4.27891 20.0922 4.28878 19.5334C4.29938 18.9334 3.96471 18.6945 3.39485 18.7333C2.79084 18.9345 2.90283 19.3929 2.87655 19.8766C2.8429 20.497 2.96454 21.1483 3.75279 21.0185ZM6.56571 17.2686C7.23855 17.0663 7.09102 16.3412 7.10098 15.7834C7.11169 15.1825 6.77726 14.9448 6.20688 14.9837C5.60379 15.1827 5.71505 15.6448 5.68905 16.1266C5.65556 16.7472 5.77709 17.3989 6.56571 17.2686ZM6.56538 21.0184C7.24041 20.8152 7.09078 20.0862 7.10063 19.5262C7.1111 18.9307 6.77208 18.695 6.20733 18.7334C5.60337 18.9345 5.71521 19.393 5.68905 19.8766C5.65547 20.4972 5.77699 21.1482 6.56538 21.0184ZM20.0648 18.7339C19.4698 18.9032 19.5596 19.3916 19.5343 19.8569C19.501 20.4679 19.6167 21.1567 20.4075 21.0198C20.9664 20.877 20.9374 20.3665 20.9457 19.9219C20.9586 19.2336 20.9307 18.6585 20.0648 18.7339ZM10.6757 17.2789C11.2741 17.1482 11.2598 16.6616 11.2628 16.1685C11.2668 15.4864 11.2671 14.9259 10.3875 14.9822C9.78012 15.1575 9.87698 15.6372 9.84926 16.115C9.8156 16.6945 9.92152 17.3767 10.6757 17.2789ZM13.2656 14.9822C12.6618 15.165 12.765 15.625 12.7386 16.1037C12.7043 16.7264 12.8055 17.4007 13.6125 17.27C14.1953 17.0982 14.1421 16.5801 14.1508 16.1005C14.1634 15.4122 14.0815 14.9299 13.2656 14.9822ZM20.0645 14.9841C19.4723 15.1525 19.559 15.6381 19.5343 16.1027C19.5018 16.7156 19.6117 17.4045 20.4068 17.2702C20.967 17.1268 20.9372 16.6176 20.9457 16.1719C20.9588 15.4839 20.9305 14.9079 20.0645 14.9841ZM17.2517 18.7339C16.6595 18.9028 16.7468 19.3882 16.7218 19.8527C16.689 20.4655 16.7997 21.1549 17.5946 21.0199C18.321 20.8348 18.142 19.776 18.0918 19.2159C18.0552 18.8089 17.5789 18.7056 17.2517 18.7339ZM17.2525 14.9838C16.6593 15.1533 16.7468 15.6371 16.7218 16.1027C16.6889 16.7152 16.7998 17.4055 17.5946 17.2701C18.3214 17.0844 18.1418 16.0262 18.0918 15.4657C18.0555 15.0592 17.5789 14.9561 17.2525 14.9838Z" fill="white"/>
    <path d="M11.8638 10.5608C12.2406 10.4878 12.6061 10.7312 12.6842 11.107C12.7622 11.4828 12.5239 11.8516 12.1491 11.9348C11.9021 11.9896 11.6448 11.9072 11.4756 11.7192C11.3063 11.5311 11.2514 11.2666 11.3318 11.0267C11.4122 10.7869 11.6154 10.6089 11.8638 10.5608Z" fill="white"/>
    <path d="M1.796 6.57281C2.118 6.56425 2.4552 6.56559 2.77752 6.5696C5.14163 6.59889 7.52462 6.52724 9.88728 6.58155C9.72713 6.71772 9.07625 7.47065 8.89531 7.67214L6.70911 10.0995C6.39458 10.4604 6.06617 10.8115 5.75044 11.1717C5.62527 11.3145 5.49894 11.4604 5.35484 11.5843C5.03541 11.6242 4.42564 11.6044 4.07558 11.6045L1.36999 11.6045C1.03043 11.6042 0.446782 11.5769 0.137207 11.6001C0.38985 10.5462 0.554651 9.4421 0.80236 8.3846C0.899103 7.97158 0.960057 7.54755 1.07264 7.13744C1.18862 6.71496 1.39242 6.61375 1.796 6.57281Z" fill="white"/>
    <path d="M14.4432 6.5737C16.0955 6.55282 17.7759 6.57061 19.4305 6.56927L21.1775 6.56728C21.5342 6.56693 21.8915 6.55884 22.2462 6.58214C22.5707 6.59766 22.8225 6.75691 22.9077 7.08492C23.0424 7.60329 23.1516 8.15309 23.2562 8.67963C23.4487 9.64908 23.676 10.6171 23.8513 11.5892L23.5841 11.5973L20.3757 11.6028C19.8182 11.6033 19.1417 11.6277 18.5965 11.6009C18.2527 11.2702 17.7319 10.6496 17.3982 10.2753L15.1453 7.75043C14.8982 7.47417 14.3344 6.79533 14.0903 6.58214L14.4432 6.5737Z" fill="white"/>
    <path d="M11.2712 20.0977C11.7197 20.1199 12.2139 20.1029 12.6679 20.1096C12.6827 21.3224 12.7035 22.7896 12.6696 24.0001H11.2787C11.2518 23.5604 11.2668 23.0063 11.2671 22.5596L11.2712 20.0977Z" fill="white"/>
  </g>
  <defs>
    <clipPath id="clip0_553_2333">
      <rect width="24" height="24" fill="white"/>
    </clipPath>
  </defs>
</svg>
