<svg width="48" height="48" viewBox="0 0 48 48" fill="none" xmlns="http://www.w3.org/2000/svg">
<path d="M29.6569 7.99976L42.8289 21.1718C43.5787 21.9219 44 22.9391 44 23.9998C44 25.0604 43.5787 26.0777 42.8289 26.8278L29.6569 39.9998C29.0975 40.5595 28.3846 40.9407 27.6085 41.0952C26.8324 41.2497 26.028 41.1706 25.2969 40.8678L25.0069 40.7318C24.3513 40.3963 23.8011 39.8865 23.4168 39.2583C23.0325 38.6302 22.829 37.9081 22.8289 37.1718V31.9998H8.82885C7.76799 31.9998 6.75057 31.5783 6.00043 30.8282C5.25028 30.078 4.82885 29.0606 4.82885 27.9998V19.9998L4.83885 19.6998C4.91454 18.6935 5.36779 17.7529 6.10776 17.0668C6.84772 16.3806 7.8197 15.9994 8.82885 15.9998L22.8289 15.9978V10.8278C22.829 10.0368 23.0637 9.26357 23.5032 8.60593C23.9428 7.94829 24.5674 7.43573 25.2982 7.13305C26.029 6.83037 26.8332 6.75116 27.609 6.90543C28.3848 7.0597 29.0974 7.44052 29.6569 7.99976Z" fill="white"/>
</svg>
