<svg width="48" height="48" viewBox="0 0 48 48" fill="none" xmlns="http://www.w3.org/2000/svg">
<path d="M28.0168 24.0201L39.2038 12.833C39.7347 12.3031 40.0333 11.5838 40.0339 10.8337C40.0348 10.0833 39.7373 9.36361 39.2073 8.83281C38.6773 8.30187 37.958 8.00313 37.2078 8.00252C36.4577 8.00191 35.738 8.29922 35.2071 8.82927L24.02 20.0163L12.833 8.82927C12.302 8.29833 11.5819 8 10.8312 8C10.0801 8 9.36013 8.29833 8.82913 8.82927C8.2982 9.36013 8 10.0802 8 10.8312C8 11.582 8.2982 12.302 8.82913 12.833L20.0163 24.0201L8.82913 35.2071C8.2982 35.738 8 36.458 8 37.209C8 37.9599 8.2982 38.68 8.82913 39.2109C9.36013 39.7418 10.0801 40.04 10.8312 40.04C11.5819 40.04 12.302 39.7418 12.833 39.2109L24.02 28.0238L35.2071 39.2109C35.738 39.7418 36.4581 40.04 37.209 40.04C37.9598 40.04 38.6799 39.7418 39.2108 39.2109C39.7417 38.68 40.04 37.9599 40.04 37.209C40.04 36.458 39.7417 35.738 39.2108 35.2071L28.0168 24.0201Z" fill="#F34D08"/>
</svg>
