<svg width="26" height="36" viewBox="0 0 26 36" fill="none" xmlns="http://www.w3.org/2000/svg">
<path d="M14.1257 29.9181L14.4147 29.8218C16.9043 28.9918 18.149 28.5769 18.3808 27.5952C18.6126 26.6134 17.6847 25.6856 15.8292 23.83L13.9991 22C13.9975 22.0051 13.9958 22.0104 13.994 22.016C13.9728 22.083 13.942 22.1816 13.905 22.3055C13.8307 22.5538 13.7315 22.9014 13.6325 23.2977C13.4299 24.1089 13.2461 25.0549 13.2461 25.7676C13.2461 26.4803 13.4299 27.4263 13.6325 28.2375C13.7315 28.6338 13.8307 28.9814 13.905 29.2297C13.942 29.3537 13.9728 29.4522 13.994 29.5192C14.0046 29.5527 14.0129 29.5782 14.0183 29.5949L14.0244 29.6134L14.0258 29.6176L14.1257 29.9181Z" fill="#F55376"/>
<path d="M8.09422 31.9298C5.6442 32.7376 4.35334 33.0756 3.63926 32.3615C2.84856 31.5708 3.34786 30.0729 4.34649 27.077L6.17677 21.5862C6.86146 19.5321 7.26368 18.3254 7.93487 17.8359L7.92923 17.8639C7.92141 17.9028 7.91011 17.9597 7.89587 18.0328C7.86741 18.179 7.82721 18.3905 7.77974 18.6539C7.68485 19.1805 7.5606 19.9163 7.44296 20.7546C7.20989 22.4156 6.99403 24.5378 7.10523 26.2338C7.17253 27.2599 7.38602 28.5329 7.57656 29.5275C7.67272 30.0296 7.76478 30.4695 7.83283 30.7842C7.86688 30.9416 7.89498 31.0679 7.91466 31.1554L7.93756 31.2562L8.09422 31.9298Z" fill="#F55376"/>
<path d="M9.58813 17.8672L9.53324 18.1329L9.5327 18.1355L9.53072 18.1452L9.52258 18.1855C9.51538 18.2213 9.50471 18.275 9.49113 18.3448C9.46396 18.4844 9.42516 18.6884 9.37916 18.9437C9.28708 19.4546 9.16645 20.1691 9.05237 20.982C8.82203 22.6236 8.62722 24.6082 8.72694 26.1289C8.78731 27.0497 8.9845 28.2408 9.17273 29.2234C9.26594 29.7101 9.35529 30.1371 9.42129 30.4422C9.45427 30.5948 9.48136 30.7165 9.50012 30.7998L9.52169 30.8949L9.52721 30.9188L9.64293 31.4162L12.5842 30.4358L12.4731 30.1013C12.4665 30.0811 12.4571 30.0519 12.4453 30.0146C12.4216 29.94 12.3882 29.8329 12.3483 29.6995C12.2686 29.4333 12.1624 29.061 12.056 28.635C11.8479 27.8017 11.6212 26.6942 11.6212 25.7714C11.6212 24.8487 11.8479 23.7412 12.056 22.9079C12.1624 22.4819 12.2686 22.1096 12.3483 21.8434C12.3882 21.71 12.4216 21.6029 12.4453 21.5282C12.4571 21.491 12.4665 21.4618 12.4731 21.4416L12.483 21.4114L12.7134 20.718L12.1687 20.1733C11.0381 19.0427 10.2519 18.2565 9.58813 17.8672Z" fill="#FFC805"/>
<path d="M11.837 12.5569C12.2198 12.7909 12.3405 13.291 12.1064 13.6739C11.9367 13.9517 11.9792 14.3097 12.2094 14.54L12.3155 14.646C12.9532 15.2837 13.1883 16.2206 12.9274 17.0839C12.7976 17.5134 12.3441 17.7563 11.9146 17.6265C11.485 17.4967 11.242 17.0432 11.3719 16.6137C11.4596 16.3238 11.3806 16.0092 11.1664 15.7951L11.0604 15.689C10.2993 14.928 10.1586 13.7446 10.72 12.8263C10.9541 12.4435 11.4541 12.3228 11.837 12.5569Z" fill="#02C1C1"/>
<path d="M14.6908 14.7591C14.9086 14.5413 15.0175 14.4324 15.1434 14.3925C15.25 14.3587 15.3643 14.3587 15.4708 14.3925C15.5968 14.4324 15.7056 14.5413 15.9235 14.7591C16.1413 14.977 16.2501 15.0859 16.2901 15.2118C16.3239 15.3183 16.3239 15.4326 16.2901 15.5392C16.2501 15.6651 16.1413 15.774 15.9235 15.9918C15.7056 16.2096 15.5968 16.3185 15.4708 16.3584C15.3643 16.3922 15.25 16.3922 15.1434 16.3584C15.0175 16.3185 14.9086 16.2096 14.6908 15.9918C14.473 15.774 14.364 15.6651 14.3242 15.5392C14.2904 15.4326 14.2904 15.3183 14.3242 15.2118C14.364 15.0859 14.473 14.977 14.6908 14.7591Z" fill="#CF1565"/>
<path d="M7.50418 14.2718C7.7311 14.0448 8.09903 14.0448 8.32594 14.2718C8.55287 14.4987 8.55287 14.8666 8.32594 15.0935C8.09903 15.3204 7.7311 15.3204 7.50418 15.0935C7.27725 14.8666 7.27725 14.4987 7.50418 14.2718Z" fill="#CF1565"/>
<path d="M21.6389 17.6366C21.489 17.6944 21.3561 17.8273 21.0902 18.0932C20.8244 18.359 20.6914 18.4919 20.6337 18.6419C20.5661 18.8174 20.5661 19.0117 20.6337 19.1872C20.6914 19.3371 20.8244 19.47 21.0902 19.7359C21.3561 20.0017 21.489 20.1346 21.6389 20.1924C21.8144 20.26 22.0088 20.26 22.1843 20.1924C22.3342 20.1346 22.4671 20.0017 22.733 19.7359C22.9988 19.47 23.1318 19.3371 23.1895 19.1872C23.2571 19.0117 23.2571 18.8174 23.1895 18.6419C23.1318 18.4919 22.9988 18.359 22.733 18.0932C22.4671 17.8273 22.3342 17.6944 22.1843 17.6366C22.0088 17.569 21.8144 17.569 21.6389 17.6366Z" fill="#CF1565"/>
<path d="M20.6458 26.5921C20.8727 26.3651 21.2407 26.3651 21.4675 26.5921C21.6945 26.8189 21.6945 27.1868 21.4675 27.4138C21.2407 27.6408 20.8727 27.6408 20.6458 27.4138C20.4188 27.1868 20.4188 26.8189 20.6458 26.5921Z" fill="#CF1565"/>
<path d="M19.1636 15.1175C19.6037 15.2055 19.889 15.6335 19.8011 16.0736L19.6451 16.8535C19.4304 17.9269 18.657 18.8029 17.6185 19.1491C17.1333 19.3108 16.7719 19.7202 16.6715 20.2218L16.5156 21.0017C16.4276 21.4417 15.9995 21.7271 15.5595 21.6391C15.1196 21.551 14.8342 21.123 14.9222 20.683L15.0782 19.9031C15.2928 18.8297 16.0662 17.9536 17.1047 17.6075C17.5899 17.4457 17.9513 17.0364 18.0516 16.5348L18.2076 15.7549C18.2956 15.3149 18.7236 15.0295 19.1636 15.1175Z" fill="#CA3AE6"/>
<path d="M23.1924 23.6075C22.8006 23.4363 22.3448 23.5082 22.0248 23.7919C21.1482 24.5693 19.8724 24.6986 18.8576 24.1127L18.6271 23.9796C18.2385 23.7552 18.1053 23.2583 18.3297 22.8697C18.554 22.4811 19.051 22.3478 19.4396 22.5723L19.6701 22.7053C20.0792 22.9415 20.5934 22.8894 20.9467 22.5761C21.7407 21.8722 22.8712 21.6936 23.8434 22.1186L24.1592 22.2567C24.5703 22.4365 24.7579 22.9155 24.5781 23.3266C24.3984 23.7379 23.9194 23.9254 23.5082 23.7457L23.1924 23.6075Z" fill="#81C127"/>
<path d="M18.9582 20.553C19.1852 20.3261 19.5531 20.3261 19.78 20.553C20.007 20.7799 20.007 21.1479 19.78 21.3747C19.5531 21.6017 19.1852 21.6017 18.9582 21.3747C18.7314 21.1479 18.7314 20.7799 18.9582 20.553Z" fill="#FFFF0B"/>
<path fill-rule="evenodd" clip-rule="evenodd" d="M9.36 8.17575C11.4082 7.67025 12.75 5.87775 12.75 3.75C12.75 2.75544 12.3549 1.80161 11.6517 1.09835C10.9484 0.395088 9.99456 0 9 0C8.00544 0 7.05161 0.395088 6.34835 1.09835C5.64509 1.80161 5.25 2.75544 5.25 3.75C5.25 5.87775 6.59175 7.67025 8.64 8.17575L8.457 8.541C8.44597 8.56306 8.43939 8.58708 8.43764 8.61168C8.43589 8.63629 8.43901 8.661 8.44681 8.6844C8.46256 8.73166 8.49644 8.77072 8.541 8.793C8.58556 8.81528 8.63714 8.81894 8.6844 8.80319C8.73166 8.78744 8.77072 8.75356 8.793 8.709L8.823 8.649C8.82975 8.7765 8.841 8.88525 8.86125 8.9865C8.91225 9.2445 9.01725 9.453 9.19725 9.813L9.207 9.834C9.366 10.1505 9.3435 10.4715 9.2445 10.7685C9.14325 11.07 8.97 11.3317 8.844 11.5208C8.81635 11.5621 8.80627 11.6128 8.81598 11.6616C8.82568 11.7104 8.85438 11.7534 8.89575 11.781C8.93712 11.8086 8.98779 11.8187 9.03659 11.809C9.0854 11.7993 9.12835 11.7706 9.156 11.7292L9.159 11.724C9.2835 11.538 9.48225 11.2395 9.6 10.8878C9.72 10.5285 9.759 10.0995 9.543 9.666C9.3495 9.27975 9.26925 9.117 9.22875 8.913C9.21424 8.84152 9.20497 8.76908 9.201 8.69625L9.207 8.709C9.22928 8.75356 9.26834 8.78744 9.3156 8.80319C9.36286 8.81894 9.41444 8.81528 9.459 8.793C9.50356 8.77072 9.53744 8.73166 9.55319 8.6844C9.56894 8.63714 9.56528 8.58556 9.543 8.541L9.36 8.17575ZM6.264 2.517C6.47534 2.04825 6.80362 1.64168 7.21733 1.33633C7.63103 1.03097 8.11628 0.837076 8.6265 0.77325C8.8305 0.74775 9 0.918 9 1.125C9 1.332 8.8305 1.497 8.6265 1.5315C7.914 1.653 7.31475 2.1165 6.99675 2.74425C6.96131 2.81844 6.90622 2.8815 6.83747 2.92659C6.76871 2.97168 6.68892 2.99707 6.60675 3C6.34725 3 6.1575 2.75325 6.264 2.517Z" fill="#F55376"/>
</svg>
