<svg width="33" height="33" viewBox="0 0 33 33" fill="none" xmlns="http://www.w3.org/2000/svg">
<g clip-path="url(#clip0_9158_2290)">
<path d="M9.97979 15.0049C10.3131 14.4276 10.6724 13.8652 11.0577 13.3179C11.0773 13.2899 11.0912 13.2583 11.0986 13.2249C11.106 13.1915 11.1067 13.157 11.1008 13.1234C11.0826 13.0543 11.0378 12.9952 10.9762 12.9591L8.30021 11.4141C8.25151 11.3885 8.19595 11.379 8.14154 11.387C8.08712 11.3951 8.03664 11.4201 7.99736 11.4586C7.50945 11.9624 7.08461 12.5236 6.7322 13.1299C6.38217 13.7341 6.11006 14.3801 5.92236 15.0526C5.9051 15.1058 5.90693 15.1633 5.92753 15.2152C5.94813 15.2672 5.98621 15.3103 6.03521 15.3372L8.71123 16.8822C8.77332 16.9175 8.84687 16.9267 8.91577 16.9079C8.97726 16.8853 9.02796 16.8403 9.05773 16.782C9.33911 16.1746 9.64646 15.5823 9.97979 15.0049Z" fill="#F55376"/>
<path d="M17.8212 17.2187C17.8432 17.1619 17.8446 17.0993 17.8251 17.0416C17.8057 16.9839 17.7666 16.9349 17.7147 16.9031L12.6918 14.0031C12.6383 13.9741 12.5763 13.9648 12.5167 13.9768C12.457 13.9887 12.4034 14.0212 12.3653 14.0687C11.9933 14.5929 11.6187 15.1618 11.2787 15.7507C10.9387 16.3396 10.5837 16.9545 10.3653 17.5328C10.3433 17.5895 10.3419 17.6522 10.3614 17.7098C10.3808 17.7675 10.4199 17.8165 10.4718 17.8483L15.4947 20.7483C15.5482 20.7773 15.6102 20.7866 15.6698 20.7746C15.7295 20.7627 15.7831 20.7302 15.8212 20.6828C16.1932 20.1585 16.5678 19.5896 16.9078 19.0007C17.2478 18.4118 17.5682 17.7769 17.8212 17.2187Z" fill="#FFC805"/>
<path d="M19.8879 23.3197C19.9371 23.348 19.9941 23.3594 20.0503 23.3523C20.1066 23.3452 20.1589 23.3198 20.1994 23.2802C20.6819 22.7806 21.1033 22.2253 21.4546 21.6262C21.799 21.0273 22.0705 20.3893 22.2631 19.7258C22.2768 19.6726 22.2733 19.6163 22.253 19.5652C22.2327 19.5141 22.1967 19.4707 22.1503 19.4413L19.4656 17.8913C19.4365 17.8735 19.4038 17.8625 19.37 17.8589C19.3361 17.8553 19.3018 17.8593 19.2697 17.8706C19.2356 17.8789 19.2038 17.8948 19.1769 17.9173C19.1499 17.9398 19.1284 17.9681 19.1141 18.0001C18.8327 18.6075 18.5253 19.1998 18.192 19.7772C17.8587 20.3545 17.4994 20.9169 17.1141 21.4642C17.0935 21.4927 17.0797 21.5254 17.0737 21.56C17.0678 21.5946 17.0698 21.6301 17.0797 21.6638C17.086 21.6972 17.0997 21.7289 17.1197 21.7564C17.1398 21.784 17.1657 21.8067 17.1956 21.823L19.8879 23.3197Z" fill="#F55376"/>
<path d="M9.96604 19.3227C9.93696 19.307 9.90483 19.2977 9.87185 19.2955C9.83887 19.2934 9.80581 19.2983 9.77492 19.3101C9.74403 19.3218 9.71603 19.3401 9.69284 19.3636C9.66964 19.3872 9.65179 19.4155 9.64051 19.4465C8.86379 22.0119 9.04972 23.9898 9.9677 24.5198C10.8857 25.0498 12.678 24.2255 14.4962 22.2962C14.5234 22.2699 14.5434 22.2371 14.5542 22.2008C14.565 22.1646 14.5663 22.1262 14.5579 22.0893C14.5529 22.0526 14.54 22.0174 14.5203 21.9861C14.5005 21.9548 14.4743 21.9281 14.4434 21.9077L9.96604 19.3227Z" fill="#F55376"/>
<path d="M16.2196 22.9361C16.169 22.9077 16.1104 22.897 16.053 22.9057C15.9957 22.9144 15.9429 22.9421 15.9031 22.9843C15.112 23.911 14.183 24.7105 13.1488 25.3548C13.1038 25.3817 13.0685 25.4221 13.0477 25.4703C13.0269 25.5184 13.0218 25.5719 13.0331 25.6231C13.0444 25.6743 13.0715 25.7207 13.1106 25.7556C13.1497 25.7906 13.1988 25.8124 13.251 25.8179C15.0666 25.9971 16.8919 25.5901 18.4594 24.6565C18.4974 24.6346 18.529 24.603 18.5509 24.565C18.5729 24.527 18.5844 24.4839 18.5844 24.44C18.5844 24.3975 18.5732 24.3558 18.5517 24.3191C18.5303 24.2824 18.4996 24.252 18.4626 24.2311L16.2196 22.9361Z" fill="#FFC805"/>
<path d="M8.30879 18.6553C8.32542 18.5997 8.32299 18.5401 8.30188 18.4861C8.28077 18.4321 8.24219 18.3867 8.19228 18.3571L5.95794 17.0671C5.92133 17.0455 5.87964 17.034 5.83715 17.0338C5.79466 17.0336 5.75287 17.0447 5.71607 17.066C5.67807 17.0879 5.64651 17.1195 5.62457 17.1575C5.60262 17.1955 5.59107 17.2386 5.59107 17.2825C5.57996 19.0895 6.14232 20.8534 7.19723 22.3205C7.22808 22.363 7.27149 22.3946 7.32131 22.411C7.37113 22.4273 7.42483 22.4276 7.47483 22.4118C7.52483 22.396 7.56858 22.3648 7.5999 22.3228C7.63123 22.2807 7.64853 22.2299 7.64936 22.1774C7.68982 20.9768 7.91216 19.7892 8.30879 18.6553Z" fill="#FFC805"/>
<path d="M11.967 11.8161C12.0176 11.8446 12.0762 11.8553 12.1335 11.8465C12.1909 11.8378 12.2437 11.8101 12.2835 11.7679C13.0796 10.8357 14.015 10.032 15.0564 9.38515C15.1046 9.36483 15.1449 9.32929 15.1711 9.28395C15.1973 9.23861 15.2079 9.18595 15.2014 9.134C15.1991 9.10186 15.1904 9.0705 15.1758 9.04179C15.1612 9.01308 15.1409 8.98761 15.1163 8.9669C15.0916 8.94619 15.063 8.93066 15.0322 8.92123C15.0014 8.9118 14.969 8.90868 14.9369 8.91204C13.116 8.73515 11.2865 9.14838 9.71845 10.0907C9.68044 10.1127 9.64888 10.1442 9.62694 10.1822C9.605 10.2202 9.59345 10.2633 9.59345 10.3072C9.59345 10.3497 9.60473 10.3914 9.62614 10.4282C9.64755 10.4649 9.67832 10.4952 9.71531 10.5161L11.967 11.8161Z" fill="#FFC805"/>
<path d="M19.8531 16.1403C19.8364 16.1959 19.8389 16.2555 19.86 16.3095C19.8811 16.3635 19.9197 16.409 19.9696 16.4385L22.2126 17.7335C22.2492 17.7551 22.2909 17.7666 22.3334 17.7668C22.3759 17.767 22.4177 17.7559 22.4545 17.7346C22.4925 17.7127 22.524 17.6811 22.546 17.6431C22.5679 17.6051 22.5795 17.562 22.5795 17.5181C22.6129 15.6916 22.0592 13.9026 20.9996 12.4144C20.9688 12.371 20.9249 12.3385 20.8743 12.3218C20.8237 12.3051 20.7692 12.3049 20.7185 12.3214C20.6712 12.343 20.6318 12.3788 20.6059 12.4238C20.5799 12.4688 20.5686 12.5208 20.5735 12.5725C20.5176 13.7917 20.2746 14.995 19.8531 16.1403Z" fill="#FFC805"/>
<path d="M18.8936 11.2237C18.8829 11.1931 18.8788 11.1606 18.8815 11.1284C18.8842 11.0961 18.8937 11.0648 18.9093 11.0364L21.4593 6.61971C21.5919 6.39003 21.6279 6.11707 21.5592 5.86089C21.4906 5.60471 21.323 5.3863 21.0933 5.25369C20.8636 5.12108 20.5907 5.08514 20.3345 5.15379C20.0783 5.22243 19.8599 5.39003 19.7273 5.61971L17.1773 10.0364C17.1606 10.0642 17.1382 10.0881 17.1116 10.1065C17.085 10.125 17.0548 10.1377 17.023 10.1437C15.7291 10.6106 14.5799 11.4082 13.6898 12.457C13.6581 12.4782 13.6318 12.5065 13.6127 12.5395C13.5936 12.5725 13.5824 12.6095 13.5798 12.6475C13.5976 12.7213 13.6436 12.7852 13.708 12.8254L18.1507 15.3904C18.1836 15.409 18.2202 15.4198 18.2578 15.4221C18.2954 15.4245 18.3331 15.4183 18.368 15.404C18.4029 15.3897 18.4342 15.3677 18.4594 15.3397C18.4846 15.3116 18.5031 15.2782 18.5135 15.242C18.9911 13.9592 19.1222 12.5732 18.8936 11.2237Z" fill="#F55376"/>
<path d="M25.2376 14.5768C25.4105 14.6736 25.6143 14.6991 25.8057 14.6478C25.9971 14.5965 26.1608 14.4726 26.2621 14.3023L26.5121 13.8693C26.5453 13.8118 26.5999 13.7699 26.6639 13.7528C26.728 13.7356 26.7962 13.7446 26.8536 13.7778L27.2867 14.0278C27.4589 14.1272 27.6636 14.1542 27.8558 14.1027C28.0479 14.0512 28.2117 13.9255 28.3112 13.7532C28.4106 13.581 28.4376 13.3763 28.3861 13.1841C28.3346 12.992 28.2089 12.8282 28.0367 12.7287L27.6036 12.4787C27.5462 12.4456 27.5043 12.391 27.4872 12.3269C27.47 12.2629 27.479 12.1946 27.5121 12.1372L27.7621 11.7042C27.8616 11.5319 27.8885 11.3272 27.8371 11.1351C27.7856 10.943 27.6599 10.7791 27.4876 10.6797C27.3154 10.5802 27.1106 10.5533 26.9185 10.6048C26.7264 10.6562 26.5626 10.7819 26.4631 10.9542L26.2131 11.3872C26.1799 11.4446 26.1253 11.4865 26.0613 11.5037C25.9973 11.5209 25.929 11.5119 25.8716 11.4787L25.4386 11.2287C25.2663 11.1293 25.0616 11.1023 24.8695 11.1538C24.6773 11.2053 24.5135 11.331 24.4141 11.5032C24.3146 11.6755 24.2877 11.8802 24.3391 12.0724C24.3906 12.2645 24.5163 12.4283 24.6886 12.5278L25.1216 12.7778C25.179 12.8109 25.2209 12.8655 25.2381 12.9296C25.2552 12.9936 25.2463 13.0618 25.2131 13.1193L24.9631 13.5523C24.8663 13.7251 24.8408 13.929 24.8921 14.1203C24.9434 14.3117 25.0673 14.4755 25.2376 14.5768Z" fill="#02C1C1"/>
<path d="M21.8851 29.3805L21.0191 28.8805C20.9617 28.8473 20.9198 28.7927 20.9026 28.7287C20.8854 28.6646 20.8944 28.5964 20.9276 28.539L21.4276 27.673C21.527 27.5007 21.554 27.296 21.5025 27.1038C21.451 26.9117 21.3253 26.7479 21.1531 26.6484C20.9808 26.549 20.7761 26.522 20.5839 26.5735C20.3918 26.625 20.228 26.7507 20.1285 26.923L19.6285 27.789C19.5954 27.8464 19.5408 27.8883 19.4767 27.9055C19.4127 27.9226 19.3444 27.9136 19.287 27.8805L18.421 27.3805C18.2487 27.281 18.044 27.2541 17.8519 27.3056C17.6598 27.357 17.4959 27.4827 17.3965 27.655C17.297 27.8273 17.2701 28.032 17.3216 28.2241C17.373 28.4163 17.4987 28.5801 17.671 28.6795L18.537 29.1795C18.5944 29.2127 18.6363 29.2673 18.6535 29.3313C18.6707 29.3954 18.6617 29.4636 18.6285 29.521L18.1285 30.3871C18.0291 30.5593 18.0021 30.764 18.0536 30.9562C18.1051 31.1483 18.2308 31.3121 18.4031 31.4116C18.5753 31.511 18.78 31.538 18.9722 31.4865C19.1643 31.435 19.3281 31.3093 19.4276 31.1371L19.9276 30.271C19.9607 30.2136 20.0153 30.1717 20.0794 30.1546C20.1434 30.1374 20.2117 30.1464 20.2691 30.1795L21.1351 30.6795C21.3074 30.779 21.5121 30.8059 21.7042 30.7545C21.8964 30.703 22.0602 30.5773 22.1596 30.405C22.2591 30.2327 22.286 30.028 22.2346 29.8359C22.1831 29.6438 22.0574 29.4799 21.8851 29.3805Z" fill="#CA3AE6"/>
<path d="M13.2476 5.34591L12.8146 5.09591C12.7572 5.06276 12.7153 5.00816 12.6981 4.94411C12.6809 4.88007 12.6899 4.81183 12.7231 4.75441L12.9731 4.32139C13.0725 4.14913 13.0995 3.94441 13.048 3.75228C12.9965 3.56015 12.8708 3.39633 12.6986 3.29688C12.5263 3.19742 12.3216 3.17047 12.1294 3.22195C11.9373 3.27343 11.7735 3.39913 11.674 3.57139L11.424 4.00441C11.3909 4.06183 11.3363 4.10373 11.2722 4.12089C11.2082 4.13805 11.14 4.12907 11.0825 4.09591L10.6495 3.84591C10.4773 3.74646 10.2725 3.71951 10.0804 3.77099C9.88827 3.82247 9.72446 3.94817 9.625 4.12043C9.52554 4.2927 9.49859 4.49741 9.55007 4.68955C9.60156 4.88168 9.72726 5.04549 9.89952 5.14495L10.3325 5.39495C10.39 5.4281 10.4319 5.48271 10.449 5.54675C10.4662 5.6108 10.4572 5.67904 10.424 5.73646L10.174 6.16947C10.0746 6.34173 10.0476 6.54645 10.0991 6.73858C10.1506 6.93072 10.2763 7.09453 10.4486 7.19399C10.6208 7.29345 10.8255 7.3204 11.0177 7.26891C11.2098 7.21743 11.3736 7.09173 11.4731 6.91947L11.7231 6.48646C11.7562 6.42904 11.8108 6.38714 11.8749 6.36998C11.9389 6.35282 12.0072 6.3618 12.0646 6.39495L12.4976 6.64495C12.6699 6.74441 12.8746 6.77136 13.0667 6.71988C13.2588 6.66839 13.4227 6.5427 13.5221 6.37043C13.6216 6.19817 13.6485 5.99345 13.597 5.80132C13.5456 5.60918 13.4199 5.44537 13.2476 5.34591Z" fill="#CF1565"/>
</g>
<defs>
<clipPath id="clip0_9158_2290">
<rect width="24" height="24" fill="white" transform="translate(12) rotate(30)"/>
</clipPath>
</defs>
</svg>
