<svg width="24" height="24" viewBox="0 0 24 24" fill="none" xmlns="http://www.w3.org/2000/svg">
<path fill-rule="evenodd" clip-rule="evenodd" d="M12.7353 16.3796C29.1183 5.07263 16.9203 -3.58087 12.0003 1.47863C7.07883 -3.58087 -5.11917 5.07263 11.2653 16.3796L10.9143 17.0816C10.8923 17.1258 10.8791 17.1738 10.8756 17.223C10.8721 17.2722 10.8783 17.3216 10.8939 17.3684C10.9255 17.4629 10.9932 17.5411 11.0823 17.5856C11.1714 17.6302 11.2746 17.6375 11.3691 17.606C11.4636 17.5745 11.5418 17.5067 11.5863 17.4176L11.6463 17.2976C11.6598 17.5526 11.6823 17.7701 11.7228 17.9726C11.8248 18.4886 12.0348 18.9056 12.3948 19.6256L12.4143 19.6676C12.7323 20.3006 12.6873 20.9426 12.4893 21.5366C12.2868 22.1396 11.9403 22.6631 11.6883 23.0411C11.633 23.1239 11.6129 23.2252 11.6323 23.3228C11.6517 23.4204 11.7091 23.5063 11.7918 23.5616C11.8746 23.6169 11.9759 23.6371 12.0735 23.6177C12.1711 23.5983 12.257 23.5409 12.3123 23.4581L12.3183 23.4476C12.5673 23.0756 12.9648 22.4786 13.2003 21.7751C13.4403 21.0566 13.5183 20.1986 13.0863 19.3316C12.6993 18.5591 12.5388 18.2336 12.4578 17.8256C12.4288 17.6827 12.4103 17.5378 12.4023 17.3921L12.4143 17.4176C12.4589 17.5067 12.537 17.5745 12.6315 17.606C12.7261 17.6375 12.8292 17.6302 12.9183 17.5856C13.0074 17.5411 13.0752 17.4629 13.1067 17.3684C13.1382 17.2739 13.1309 17.1707 13.0863 17.0816L12.7353 16.3796ZM10.0893 1.90313C8.33883 0.988134 5.88933 1.69013 4.90833 3.60563C4.55283 4.30013 4.36833 5.22563 4.60533 6.38063C4.68783 6.78563 5.30583 6.67613 5.39583 6.27413C5.82333 4.39013 7.16133 2.58113 9.87933 2.48213C10.2303 2.47013 10.4013 2.06513 10.0893 1.90313Z" fill="#F55376"/>
</svg>
