<svg xmlns="http://www.w3.org/2000/svg" width="15" height="15" viewBox="0 0 15 15" fill="none">
  <g clip-path="url(#clip0_12149_10438)">
    <path d="M7.5 13.125C10.6066 13.125 13.125 10.6066 13.125 7.5C13.125 4.3934 10.6066 1.875 7.5 1.875C4.3934 1.875 1.875 4.3934 1.875 7.5C1.875 10.6066 4.3934 13.125 7.5 13.125Z" fill="white" stroke="#1A71F6" stroke-width="1.2" stroke-linecap="round" stroke-linejoin="round"/>
    <path d="M7.03125 7.03125C7.15557 7.03125 7.2748 7.08064 7.36271 7.16854C7.45061 7.25645 7.5 7.37568 7.5 7.5V9.84375C7.5 9.96807 7.54939 10.0873 7.63729 10.1752C7.7252 10.2631 7.84443 10.3125 7.96875 10.3125" stroke="#1A71F6" stroke-width="1.2" stroke-linecap="round" stroke-linejoin="round"/>
    <path d="M7.26562 5.625C7.65395 5.625 7.96875 5.3102 7.96875 4.92188C7.96875 4.53355 7.65395 4.21875 7.26562 4.21875C6.8773 4.21875 6.5625 4.53355 6.5625 4.92188C6.5625 5.3102 6.8773 5.625 7.26562 5.625Z" fill="#1A71F6"/>
  </g>
  <defs>
    <clipPath id="clip0_12149_10438">
      <rect width="15" height="15" fill="white"/>
    </clipPath>
  </defs>
</svg>
