<svg width="837" height="837" viewBox="0 0 837 837" fill="none" xmlns="http://www.w3.org/2000/svg">
<path d="M836.02 418.01C836.02 530.201 791.819 632.07 719.883 707.15C643.798 786.572 536.677 836.02 418.01 836.02C299.343 836.02 192.222 786.572 116.137 707.15C44.201 632.069 0 530.201 0 418.01C0 187.152 187.152 0 418.01 0C648.868 0 836.02 187.152 836.02 418.01Z" fill="#E7E7E7"/>
<path d="M418.01 440.443C512.323 440.443 588.778 363.988 588.778 269.675C588.778 175.363 512.323 98.9072 418.01 98.9072C323.698 98.9072 247.242 175.363 247.242 269.675C247.242 363.988 323.698 440.443 418.01 440.443Z" fill="#B0B6B7"/>
<path d="M705.719 672.589C702.372 676.373 698.947 680.095 695.448 683.745C625.521 756.738 527.073 802.183 418.01 802.183C308.947 802.183 210.499 756.738 140.572 683.745C137.074 680.096 133.649 676.374 130.301 672.589C181.764 565.499 291.258 491.574 418.01 491.574C544.762 491.574 654.257 565.5 705.719 672.589Z" fill="#B0B6B7"/>
</svg>
