<svg width="24" height="24" viewBox="0 0 24 24" fill="none" xmlns="http://www.w3.org/2000/svg">
<g clip-path="url(#clip0_9158_2237)">
<path d="M21.6806 17.7891C21.3771 17.7871 21.08 17.8754 20.8268 18.0428C20.5737 18.2101 20.376 18.449 20.259 18.729C20.142 19.0089 20.1108 19.3174 20.1695 19.6151C20.2283 19.9128 20.3742 20.1864 20.5888 20.4009C20.8033 20.6155 21.0769 20.7614 21.3746 20.8201C21.6723 20.8789 21.9808 20.8477 22.2607 20.7307C22.5407 20.6136 22.7796 20.416 22.9469 20.1629C23.1143 19.9097 23.2026 19.6125 23.2006 19.3091C23.2006 18.906 23.0405 18.5193 22.7554 18.2343C22.4703 17.9492 22.0837 17.7891 21.6806 17.7891Z" fill="#02C1C1"/>
<path d="M21.6802 3.05216C21.9832 3.05414 22.28 2.96609 22.5329 2.79918C22.7858 2.63227 22.9835 2.39401 23.1008 2.11462C23.2181 1.83523 23.2499 1.52729 23.192 1.22984C23.1341 0.932398 22.9891 0.658844 22.7756 0.443868C22.562 0.228892 22.2894 0.0821773 21.9923 0.0223268C21.6953 -0.0375236 21.3871 -0.00781409 21.107 0.107688C20.8268 0.223191 20.5873 0.419284 20.4187 0.671103C20.2502 0.922922 20.1602 1.21913 20.1602 1.52216C20.1601 1.92621 20.32 2.31386 20.6047 2.60051C20.8895 2.88715 21.2761 3.04951 21.6802 3.05216Z" fill="#02C1C1"/>
<path d="M2.84 3.05344C3.06205 3.09807 3.29124 3.09284 3.51103 3.03814C3.73081 2.98344 3.93571 2.88062 4.11093 2.73712C4.28616 2.59361 4.42733 2.41299 4.52427 2.20829C4.62121 2.00359 4.6715 1.77993 4.6715 1.55344C4.6715 1.32695 4.62121 1.10328 4.52427 0.898585C4.42733 0.693889 4.28616 0.513268 4.11093 0.369759C3.93571 0.226251 3.73081 0.123435 3.51103 0.0687323C3.29124 0.0140301 3.06205 0.00880611 2.84 0.0534375C2.45687 0.0844879 2.09947 0.258613 1.83887 0.541181C1.57828 0.823748 1.43359 1.19405 1.43359 1.57844C1.43359 1.96282 1.57828 2.33313 1.83887 2.61569C2.09947 2.89826 2.45687 3.07239 2.84 3.10344V3.05344Z" fill="#02C1C1"/>
<path d="M2.32027 18.3125C2.01725 18.3106 1.72046 18.3986 1.46754 18.5655C1.21463 18.7324 1.01697 18.9707 0.899629 19.2501C0.782292 19.5295 0.750562 19.8374 0.808464 20.1348C0.866365 20.4323 1.01129 20.7058 1.22486 20.9208C1.43843 21.1358 1.71103 21.2825 2.00809 21.3424C2.30515 21.4022 2.61329 21.3725 2.89345 21.257C3.1736 21.1415 3.41315 20.9454 3.58171 20.6936C3.75028 20.4418 3.84027 20.1456 3.84027 19.8425C3.84028 19.4385 3.68046 19.0508 3.39569 18.7642C3.11092 18.4775 2.72432 18.3152 2.32027 18.3125Z" fill="#02C1C1"/>
<path d="M12.2606 8.71875C11.5658 8.71875 10.8994 8.99478 10.408 9.48613C9.91666 9.97748 9.64062 10.6439 9.64062 11.3387V22.9987C9.64062 23.264 9.74598 23.5183 9.93352 23.7059C10.1211 23.8934 10.3754 23.9987 10.6406 23.9987H13.8806C14.1458 23.9987 14.4002 23.8934 14.5877 23.7059C14.7753 23.5183 14.8806 23.264 14.8806 22.9987V11.3387C14.8806 10.6439 14.6046 9.97748 14.1132 9.48613C13.6219 8.99478 12.9555 8.71875 12.2606 8.71875Z" fill="#F55376"/>
<path d="M21.9407 9.42188H17.7607C17.4955 9.42188 17.2412 9.52723 17.0536 9.71477C16.8661 9.9023 16.7607 10.1567 16.7607 10.4219C16.7607 10.6871 16.8661 10.9414 17.0536 11.129C17.2412 11.3165 17.4955 11.4219 17.7607 11.4219H21.9407C22.206 11.4219 22.4603 11.3165 22.6478 11.129C22.8354 10.9414 22.9407 10.6871 22.9407 10.4219C22.9407 10.1567 22.8354 9.9023 22.6478 9.71477C22.4603 9.52723 22.206 9.42188 21.9407 9.42188Z" fill="#F55376"/>
<path d="M1.58008 10.4219C1.58008 10.6871 1.68543 10.9414 1.87297 11.129C2.06051 11.3165 2.31486 11.4219 2.58008 11.4219H6.77008C7.03529 11.4219 7.28965 11.3165 7.47718 11.129C7.66472 10.9414 7.77008 10.6871 7.77008 10.4219C7.77008 10.1567 7.66472 9.9023 7.47718 9.71477C7.28965 9.52723 7.03529 9.42188 6.77008 9.42188H2.58008C2.31486 9.42188 2.06051 9.52723 1.87297 9.71477C1.68543 9.9023 1.58008 10.1567 1.58008 10.4219Z" fill="#F55376"/>
<path d="M12.2607 7.4925C12.526 7.4925 12.7803 7.38714 12.9678 7.19961C13.1554 7.01207 13.2607 6.75772 13.2607 6.4925V2.3125C13.2607 2.04728 13.1554 1.79293 12.9678 1.60539C12.7803 1.41786 12.526 1.3125 12.2607 1.3125C11.9955 1.3125 11.7412 1.41786 11.5536 1.60539C11.3661 1.79293 11.2607 2.04728 11.2607 2.3125V6.4925C11.2607 6.75772 11.3661 7.01207 11.5536 7.19961C11.7412 7.38714 11.9955 7.4925 12.2607 7.4925Z" fill="#FFC805"/>
<path d="M20.3 16.0023L18.46 14.1623C18.2687 13.9985 18.0226 13.9129 17.771 13.9226C17.5193 13.9323 17.2806 14.0367 17.1025 14.2148C16.9244 14.3929 16.82 14.6316 16.8103 14.8833C16.8006 15.135 16.8862 15.381 17.05 15.5723L18.89 17.4223C18.9835 17.515 19.0943 17.5883 19.2161 17.6381C19.338 17.6879 19.4684 17.7131 19.6 17.7123C19.8624 17.7112 20.1138 17.6071 20.3 17.4223C20.3938 17.3294 20.4682 17.2188 20.5189 17.0969C20.5697 16.975 20.5958 16.8443 20.5958 16.7123C20.5958 16.5803 20.5697 16.4496 20.5189 16.3278C20.4682 16.2059 20.3938 16.0953 20.3 16.0023Z" fill="#FFC805"/>
<path d="M6.68052 3.16299C6.58756 3.06926 6.47696 2.99486 6.3551 2.94409C6.23324 2.89333 6.10253 2.86719 5.97052 2.86719C5.83851 2.86719 5.7078 2.89333 5.58594 2.94409C5.46408 2.99486 5.35348 3.06926 5.26052 3.16299C5.07427 3.35035 4.96973 3.6038 4.96973 3.86799C4.96973 4.13217 5.07427 4.38562 5.26052 4.57299L7.11052 6.42299C7.29882 6.60996 7.55369 6.71448 7.81905 6.71354C8.08442 6.7126 8.33854 6.60629 8.52552 6.41799C8.7125 6.22968 8.81701 5.97481 8.81608 5.70945C8.81514 5.44409 8.70882 5.18996 8.52052 5.00299L6.68052 3.16299Z" fill="#FFC805"/>
<path d="M19.2601 4.57299C19.4464 4.38562 19.5509 4.13217 19.5509 3.86799C19.5509 3.6038 19.4464 3.35035 19.2601 3.16299C19.1672 3.06926 19.0566 2.99486 18.9347 2.94409C18.8129 2.89333 18.6821 2.86719 18.5501 2.86719C18.4181 2.86719 18.2874 2.89333 18.1656 2.94409C18.0437 2.99486 17.9331 3.06926 17.8401 3.16299L15.7401 5.26299C15.6464 5.35595 15.572 5.46655 15.5212 5.58841C15.4705 5.71027 15.4443 5.84097 15.4443 5.97299C15.4443 6.105 15.4705 6.2357 15.5212 6.35756C15.572 6.47942 15.6464 6.59002 15.7401 6.68299C15.8336 6.77567 15.9444 6.84899 16.0662 6.89876C16.1881 6.94852 16.3185 6.97375 16.4501 6.97299C16.7125 6.97188 16.9639 6.86773 17.1501 6.68299L19.2601 4.57299Z" fill="#FFC805"/>
<path d="M6.32037 13.9052L4.22037 16.0052C4.03206 16.1922 3.92575 16.4463 3.92481 16.7116C3.92387 16.977 4.02839 17.2319 4.21537 17.4202C4.40234 17.6085 4.65647 17.7148 4.92183 17.7157C5.1872 17.7167 5.44206 17.6122 5.63037 17.4252L7.74037 15.3152C7.92662 15.1278 8.03116 14.8744 8.03116 14.6102C8.03116 14.346 7.92662 14.0925 7.74037 13.9052C7.6474 13.8114 7.5368 13.7371 7.41494 13.6863C7.29308 13.6355 7.16238 13.6094 7.03037 13.6094C6.89836 13.6094 6.76765 13.6355 6.64579 13.6863C6.52393 13.7371 6.41333 13.8114 6.32037 13.9052Z" fill="#FFC805"/>
</g>
<defs>
<clipPath id="clip0_9158_2237">
<rect width="24" height="24" fill="white"/>
</clipPath>
</defs>
</svg>
