<svg width="80" height="42" viewBox="0 0 80 42" fill="none" xmlns="http://www.w3.org/2000/svg">
<path d="M58.666 4.14648C69.3383 1.748 79.3484 10.208 78.7627 21.1309C78.1803 31.9883 67.4399 39.3255 57.1143 35.9189L47.0029 32.583C44.8294 31.8659 42.5553 31.5 40.2666 31.5H12C5.64871 31.5 0.500056 26.3513 0.5 20L0.503906 19.6777C0.674892 12.9231 6.20417 7.5 13 7.5H41.3604C42.9464 7.5 44.5278 7.32437 46.0752 6.97656L58.666 4.14648Z" fill="white" stroke="#F34D08"/>
<circle cx="62.4575" cy="20.5195" r="16.4805" fill="#F34D08"/>
<path d="M61.4741 10.2552C61.7735 9.33387 63.0769 9.33387 63.3763 10.2552L65.155 15.7295C65.2889 16.1415 65.6728 16.4205 66.106 16.4205H71.8621C72.8308 16.4205 73.2336 17.6601 72.4499 18.2295L67.7931 21.6128C67.4426 21.8675 67.296 22.3188 67.4299 22.7309L69.2086 28.2052C69.5079 29.1265 68.4534 29.8926 67.6697 29.3232L63.013 25.9399C62.6625 25.6853 62.1879 25.6853 61.8374 25.9399L57.1807 29.3232C56.397 29.8926 55.3425 29.1265 55.6418 28.2052L57.4205 22.7309C57.5544 22.3188 57.4078 21.8675 57.0573 21.6128L52.4005 18.2295C51.6168 17.6601 52.0196 16.4205 52.9883 16.4205H58.7444C59.1776 16.4205 59.5616 16.1415 59.6954 15.7295L61.4741 10.2552Z" fill="#FFFF0B"/>
</svg>
