<svg width="500" height="282" viewBox="0 0 500 282" fill="none" xmlns="http://www.w3.org/2000/svg"><g data-slot-id="turtle" class="turtle"><path d="M332.796 155.551C334.809 155.322 336.621 155.715 338.644 156.811C340.622 157.883 342.827 159.641 345.656 162.148C348.412 164.59 351.837 167.812 356.287 171.903C361.468 170.753 375.143 170.104 393.78 175.54C403.606 178.406 412.005 184.785 418.063 191.426C421.097 194.751 423.56 198.16 425.334 201.26C426.932 204.053 428.002 206.656 428.392 208.75L430.541 209.495C433.027 210.086 436.269 210.211 439 208.634C440.161 207.964 441.253 207.624 442.204 207.883C443.258 208.169 443.74 209.056 443.935 209.865C444.128 210.67 444.102 211.609 443.994 212.474C443.884 213.355 443.679 214.242 443.458 214.982C443.38 215.244 443.199 215.462 442.956 215.586C442.713 215.71 442.431 215.73 442.173 215.641L430.366 211.551C430.897 212.161 431.489 212.817 432.124 213.515C433.759 215.31 435.644 217.341 437.335 219.431C439.022 221.515 440.565 223.718 441.495 225.88C442.424 228.039 442.801 230.3 441.922 232.388C441.386 233.66 440.392 234.401 439.141 234.637C437.958 234.859 436.602 234.624 435.22 234.143C432.442 233.174 429.138 231.055 425.975 228.433C422.798 225.798 419.69 222.596 417.316 219.391C415.469 216.897 414.006 214.316 413.352 211.952C411.32 213.357 408.226 214 404.429 213.633C399.53 213.159 393.255 211.002 385.962 206.343C379.065 201.936 373.809 198.672 370.006 196.129C369.362 195.698 368.757 195.283 368.187 194.886C369.627 197.151 371.177 199.78 372.512 202.535C373.961 205.526 375.183 208.708 375.736 211.769C376.289 214.824 376.193 217.85 374.895 220.447C374.199 221.839 373.176 222.738 371.825 222.849C370.565 222.951 369.312 222.332 368.18 221.447C365.893 219.66 363.448 216.277 361.263 212.335C359.061 208.364 357.062 203.711 355.705 199.283C354.435 195.139 353.695 191.087 353.949 187.945L347.652 182.981C347.633 182.966 347.614 182.949 347.596 182.933C346.083 181.546 342.146 178.022 338.743 173.691C337.737 172.411 336.968 171.76 336.319 171.44C335.71 171.14 335.124 171.09 334.364 171.21C333.539 171.34 332.649 171.64 331.354 172.005C330.102 172.358 328.593 172.73 326.71 172.928C322.604 173.36 319.515 170.838 319.058 167.408C318.6 163.975 320.811 160.109 326.199 157.715C328.763 156.575 330.845 155.773 332.796 155.551Z" fill="#FF8756" color-id="turtle-body" stroke="#202020" stroke-width="2" stroke-linecap="round" stroke-linejoin="round"></path><path d="M322 170.984C324 171.484 327 170.984 328.5 168.984" stroke="#202020" stroke-linecap="round" stroke-linejoin="round"></path><circle cx="330" cy="162.984" r="2" fill="#202020"></circle><circle cx="330" cy="162.984" r="2" fill="#202020"></circle><path d="M407.479 151.459C412.66 154.007 417.304 157.514 421.148 161.778C424.992 166.043 427.961 170.98 429.884 176.308C431.806 181.636 432.647 187.251 432.359 192.83C432.072 198.409 430.662 203.845 428.211 208.829C428.099 209.056 427.834 209.304 427.1 209.407C426.354 209.511 425.299 209.431 423.94 209.146C421.237 208.578 417.644 207.267 413.574 205.526C405.444 202.047 395.675 196.972 387.771 193.086C379.869 189.199 369.578 184.408 361.551 179.94C357.533 177.704 354.144 175.583 351.926 173.728C350.811 172.796 350.054 171.981 349.648 171.304C349.244 170.63 349.284 170.27 349.385 170.064C351.836 165.08 355.281 160.645 359.524 157.011C363.768 153.377 368.728 150.615 374.122 148.886C379.516 147.156 385.238 146.492 390.962 146.933C396.686 147.374 402.299 148.912 407.479 151.459Z" fill="#409F5C" color-id="turtle-shell" stroke="#202020" stroke-width="2"></path><mask id="mask1_1469_21981" maskUnits="userSpaceOnUse" x="348" y="145" width="86" height="66" style="mask-type: alpha;"><path d="M407.479 151.459C412.659 154.007 417.304 157.514 421.148 161.778C424.992 166.042 427.96 170.98 429.883 176.308C431.806 181.636 432.646 187.251 432.359 192.83C432.071 198.409 430.661 203.845 428.21 208.829C428.099 209.056 427.834 209.304 427.099 209.407C426.353 209.511 425.298 209.431 423.94 209.146C421.237 208.578 417.644 207.267 413.574 205.526C405.443 202.047 395.675 196.972 387.771 193.085C379.869 189.199 369.577 184.408 361.551 179.94C357.533 177.704 354.143 175.583 351.925 173.728C350.811 172.796 350.054 171.981 349.648 171.304C349.243 170.629 349.283 170.27 349.385 170.064C351.836 165.08 355.281 160.644 359.524 157.011C363.767 153.377 368.728 150.615 374.122 148.885C379.516 147.156 385.238 146.492 390.962 146.933C396.686 147.374 402.299 148.912 407.479 151.459Z" fill="white" stroke="#202020" stroke-width="2"></path></mask><g mask="url(#mask1_1469_21981)"><ellipse cx="429.641" cy="180.526" rx="5.13487" ry="7" transform="rotate(-25.4059 429.641 180.526)" fill="#6ADF8F" mark-id="turtle-ellipse1" mode="color"></ellipse><ellipse cx="370.006" cy="183.708" rx="6.57052" ry="15.2697" transform="rotate(-51.0588 370.006 183.708)" fill="#6ADF8F" mark-id="turtle-ellipse2" mode="color"></ellipse><ellipse cx="383.796" cy="147.012" rx="5.15882" ry="9.35586" transform="rotate(-95.3682 383.796 147.012)" fill="#6ADF8F" mark-id="turtle-ellipse3" mode="color"></ellipse><ellipse cx="378.618" cy="165.06" rx="3.4847" ry="6.31972" transform="rotate(-95.3682 378.618 165.06)" fill="#6ADF8F" mark-id="turtle-ellipse4" mode="color"></ellipse><ellipse cx="418.032" cy="194.475" rx="2.12316" ry="3.85049" transform="rotate(-95.3682 418.032 194.475)" fill="#6ADF8F" mark-id="turtle-ellipse5" mode="color"></ellipse><ellipse cx="399.032" cy="154.475" rx="2.12316" ry="3.85049" transform="rotate(-95.3682 399.032 154.475)" fill="#6ADF8F" mark-id="turtle-ellipse6" mode="color"></ellipse><ellipse cx="390.032" cy="186.474" rx="2.12316" ry="3.85049" transform="rotate(-95.3682 390.032 186.474)" fill="#6ADF8F" mark-id="turtle-ellipse7" mode="color"></ellipse><ellipse cx="356.99" cy="162.146" rx="3" ry="7" transform="rotate(-136.576 356.99 162.146)" fill="#6ADF8F" mark-id="turtle-ellipse8" mode="color"></ellipse><ellipse cx="413.499" cy="154.787" rx="6.34479" ry="8.78453" transform="rotate(-25.4059 413.499 154.787)" fill="#6ADF8F" mark-id="turtle-ellipse9" mode="color"></ellipse><ellipse cx="424.059" cy="208.142" rx="3" ry="7" transform="rotate(-88.8412 424.059 208.142)" fill="#6ADF8F" mark-id="turtle-ellipse10" mode="color"></ellipse><ellipse cx="399.198" cy="199.332" rx="6.15829" ry="10.5471" transform="rotate(-62.5068 399.198 199.332)" fill="#6ADF8F" mark-id="turtle-ellipse11" mode="color"></ellipse><path d="M407.479 151.459C412.66 154.007 417.304 157.514 421.148 161.778C424.992 166.043 427.961 170.98 429.884 176.308C431.806 181.636 432.647 187.251 432.359 192.83C432.072 198.409 430.662 203.845 428.211 208.829C428.099 209.056 427.834 209.304 427.1 209.407C426.354 209.511 425.299 209.431 423.94 209.146C421.237 208.578 417.644 207.267 413.574 205.526C405.444 202.047 395.675 196.972 387.771 193.086C379.869 189.199 369.578 184.408 361.551 179.94C357.533 177.704 354.144 175.583 351.926 173.728C350.811 172.796 350.054 171.981 349.648 171.304C349.244 170.63 349.284 170.27 349.385 170.064C351.836 165.08 355.281 160.645 359.524 157.011C363.768 153.377 368.728 150.615 374.122 148.886C379.516 147.156 385.238 146.492 390.962 146.933C396.686 147.374 402.299 148.912 407.479 151.459Z" stroke="#202020" stroke-width="2"></path></g></g></svg>