<?xml version="1.0" encoding="UTF-8"?>
<svg xmlns="http://www.w3.org/2000/svg" viewBox="0 0 483.97 646.67">
  <defs>
    <style>
      .cls-1 {
        fill: #fcf4d9;
      }

      .cls-2 {
        fill: #0b6d5c;
      }

      .cls-3 {
        fill: #df5004;
      }

      .cls-4 {
        fill: #faca5a;
      }

      .cls-5 {
        fill: #097f6e;
      }

      .cls-6 {
        fill: #b23f02;
      }

      .cls-7 {
        fill: #f5bd42;
      }

      .cls-8 {
        fill: #fd5500;
      }

      .cls-9 {
        fill: #cc4601;
      }

      .cls-10 {
        fill: #dc4a00;
      }

      .cls-11 {
        fill: #e1dbff;
      }

      .cls-12 {
        fill: #b43f02;
      }

      .cls-13 {
        fill: #fff;
      }

      .cls-14 {
        fill: #ffdc8c;
      }

      .cls-15 {
        fill: #dd5004;
      }

      .cls-16 {
        fill: #b64102;
      }

      .cls-17 {
        fill: #f5bc41;
      }

      .cls-18 {
        fill: #dd5e0c;
      }

      .cls-19 {
        fill: #444c8e;
      }

      .cls-20 {
        fill: #e45405;
      }

      .cls-21 {
        fill: #b94001;
      }

      .cls-22 {
        stroke: #5e2e2e;
        stroke-miterlimit: 10;
      }

      .cls-22, .cls-23 {
        fill: #8e5448;
      }

      .cls-24 {
        fill: #e04f03;
      }

      .cls-25 {
        isolation: isolate;
      }

      .cls-26 {
        fill: #ec602a;
      }

      .cls-27 {
        fill: #5e2e2e;
      }

      .cls-28 {
        fill: #f55;
      }

      .cls-29 {
        fill: #d65547;
      }

      .cls-30 {
        fill: #ed622b;
      }

      .cls-31 {
        fill: #8d5448;
      }

      .cls-32 {
        fill: #f9b755;
      }

      .cls-33 {
        fill: #d14801;
      }

      .cls-34 {
        fill: #fd5501;
      }

      .cls-35 {
        fill: #f7aa44;
      }

      .cls-36 {
        fill: #1f1313;
      }

      .cls-37 {
        fill: #635ba9;
      }

      .cls-38 {
        fill: #ef5000;
      }

      .cls-39 {
        fill: #da4d03;
      }

      .cls-40 {
        fill: #fdf0c4;
      }

      .cls-41 {
        fill: #232323;
      }

      .cls-42 {
        fill: #068e7b;
      }

      .cls-43 {
        fill: #d84f04;
      }

      .cls-44 {
        fill: #f0a74a;
      }

      .cls-45 {
        fill: #361629;
      }

      .cls-46 {
        fill: #ae3e02;
      }

      .cls-47 {
        fill: #c24402;
      }

      .cls-48 {
        fill: #75413c;
      }

      .cls-49 {
        fill: #009691;
        mix-blend-mode: multiply;
        opacity: .5;
      }

      .cls-50 {
        fill: #282726;
      }

      .cls-51 {
        fill: #d0f8fc;
      }

      .cls-52 {
        fill: #f5bd41;
      }

      .cls-53 {
        fill: #facf6c;
      }

      .cls-54 {
        fill: #3d3c3b;
      }

      .cls-55 {
        fill: #009e8b;
      }

      .cls-56 {
        fill: #fffdf8;
      }
    </style>
  </defs>
  <g class="cls-25">
    <g id="Layer_1" data-name="Layer 1">
      <g>
        <g>
          <g>
            <g>
              <path class="cls-37" d="M131.3,616.18c-19.86,4.7-27.99,15.35-30.21,21.92-1.68,5-1.03,8.57-1.03,8.57l91.17-1.09-1.32-6.87-7.62-25.22-50.98,2.69Z"/>
              <path class="cls-11" d="M101.11,638.1c-1.68,5-1.03,8.57-1.03,8.57l91.17-1.09-1.32-6.87-88.81-.61Z"/>
            </g>
            <g>
              <polygon class="cls-23" points="221.73 494.62 214.67 516.96 202.26 556.32 182.89 617.86 130.75 617.55 151.62 524.39 158.74 492.73 164.72 465.91 221.73 494.62"/>
              <polygon class="cls-48" points="214.67 516.96 202.26 556.32 151.62 524.39 158.74 492.73 214.67 516.96"/>
            </g>
          </g>
          <g>
            <g>
              <path class="cls-37" d="M328.89,616.18c19.86,4.7,27.99,15.35,30.21,21.92,1.68,5,1.03,8.57,1.03,8.57l-91.17-1.09,1.32-6.87,7.62-25.22,50.98,2.69Z"/>
              <path class="cls-11" d="M359.11,638.1c1.68,5,1.03,8.57,1.03,8.57l-91.17-1.09,1.32-6.87,88.81-.61Z"/>
            </g>
            <g>
              <polygon class="cls-23" points="238.48 494.62 245.52 516.96 257.93 556.32 277.33 617.86 329.44 617.55 308.59 524.39 301.47 492.73 295.47 465.91 238.48 494.62"/>
              <polygon class="cls-48" points="245.52 516.96 257.93 556.32 308.59 524.39 301.47 492.73 245.52 516.96"/>
            </g>
          </g>
          <g>
            <polygon class="cls-19" points="330.91 610.24 272.67 613.5 231.85 503.64 189.89 611.62 128.9 609.78 167.68 438.62 171.65 423.12 293.64 442.92 300.3 467.09 330.91 610.24"/>
            <polygon class="cls-29" points="300.3 467.09 167.68 438.62 171.65 423.12 293.64 442.92 300.3 467.09"/>
          </g>
        </g>
        <polygon class="cls-23" points="420.69 423.38 394.48 447.54 344.58 426.42 323.9 417.64 326.5 387.58 328.79 361.35 336.81 366.77 355.94 379.68 420.69 423.38"/>
        <polygon class="cls-48" points="355.94 379.68 344.58 426.42 325.94 418.47 348.41 375.09 355.94 379.68"/>
        <g>
          <rect class="cls-41" x="364.16" y="412.39" width="119.54" height="57.44" rx="5.67" ry="5.67" transform="translate(-187.82 434.13) rotate(-45.48)"/>
          <rect class="cls-51" x="368.47" y="416.2" width="108.92" height="51.84" rx="4.39" ry="4.39" transform="translate(-188.85 433.72) rotate(-45.48)"/>
          <g>
            <path class="cls-34" d="M389.16,478.39c-2.25-2.65-4.09-7.67-3.44-11.14.7-3.69,4-5.57,7.39-6.37-.73-.84-1.48-1.68-2.31-2.42-.7-.62-1.48-1.03-2.13-1.79-1.94-2.27-1.07-5.89,1.77-6.93s5.7,1.78,7.56,3.67c1.66-2.34,4.4-4.28,7.33-3.2l.1-.2c-.3-.64-.48-1.32-.46-2.02-3.07-.16-5.36-3.25-4.39-6.21,1.32-4.03,6.77-4.1,8.62-.48.29-.39.39-.89.7-1.28.88-1.13,2.1-1.53,3.46-1.67.62-1.54,1.48-2.59,2.97-3.38.29-.15,1.2-.41,1.31-.49.2-.17.5-1.06.68-1.39,1.06-1.84,2.75-3.26,4.88-3.54.27-.04,1.09.07,1.24-.09-1.25-2.87.61-6.04,3.82-6.1,1.43-2.55,3.98-4.21,6.92-4.08l-5.24-5.15c-.15-.15-.62-1.25-.69-1.52-.82-2.95,1.99-6.02,5.01-5.34.48.11,1.64.57,1.97.9l5.83,5.73c-.05-1.29-.16-2.55.18-3.82.83-3.06,3.73-5.85,6.76-6.69,4.13-1.14,8.18,2.01,7.91,6.33,3.64-1.79,6.64,1.62,6.21,5.25-.6,5.02-5.81,9.69-10.94,9.31,2.35,3.56-1.6,7.82-5.38,6.06.21,2.54-.55,5-2.39,6.83,1.76,1.85,4.15,3.29,3.78,6.19-.08.58-.46,1.62-.81,2.08l-.79.81c-1.22.74-2.51,1.06-3.89.64-.25-.08-1.25-.49-1.39-.62l-2.82-2.77c-.83,1.63-2.37,2.49-4.17,2.4-.18,0-.75-.25-.76-.03,1.6,3.77-2.46,7.28-6.04,5.41-.1.1.02.92,0,1.16-.18,2.45-2.59,4.62-5.06,3.98.35,2.61-1.54,4.87-4.17,5,.26,3.91-3.47,6.21-6.86,4.16l-4.9-3.66c1.37,1.43,3.3,3.08,4.11,4.91,1.45,3.29-1.19,6.4-4.64,6.06-.29,1.74-.86,3.69-1.86,5.17-1.69,2.5-5,4.02-7.99,3.86-2.13-.12-3.86-.97-5.58-2.16-.42-.47-.99-.89-1.39-1.37ZM391.47,456.1c.05.1.06.16.15.29.07.11.06.18.22.36.54.59,1.36,1.08,1.98,1.65.07.07.2.21.29.29.7.65,1.38,1.34,2.05,2.02,0,0-.05.09.07.22,2.64,2.63,5.41,5.17,7.99,7.85-.07.34.27.51.44.72.19.24.31.48.55.69.83.76,2.37.8,3.21.03.12-.11.74-.72.46-.91.42-.68.29-1.19-.01-1.89-.02-.06-.02-.13-.07-.22-.03-.05-.11-.09-.15-.14-.26-.41-1.08-1.64-1.36-1.92l-1.54-1.51c-.35-.34-.81-1.3-1.07-1.77-.03-.05-.12-.09-.15-.14.24-.16.04-.25,0-.4-.1-.3-.21-.61-.29-.91-.02-.07-.05-.13-.07-.22.14-.36.2-1.02.06-1.38.04-.07.16-.14.22-.22.15-.17.25-.26.47-.11.42.28,1.13,1.11,1.54,1.51,1.07,1.06,1.99,1.95,3.22,2.88.15.12.21.39.4.11.05.05.1.09.15.14.05.05.09.37.29.43l.14-.15c.07.08.15.14.22.22.03.04-.04.39.22.07.04.05.11.09.15.14.07.1.04.47.29.14.04.05.11.09.15.14.07.09.04.47.29.14.08.07.14.15.22.22.15.12.35.33.53.38.12.03.18-.1.2-.09.05.01.15.17.33.18,1.51.14,2.73-1.41,2.45-2.87s-1.55-1.83-2.56-2.62c-1.81-1.4-3.39-2.97-5.13-4.44-.55-.47-1.32-1.08-2.01-1.26-3.1-1.91-5.96.45-6.6,3.63-1.45-1.39-2.72-3.19-4.51-4.16-.22-.12-.35-.1-.47-.15-1.02-.43-1.9-.7-2.79.22s-.68,1.82-.18,2.79ZM432.65,414.22c.03.05.02.26.17.32,4.76,4.44,9.18,9.38,14.05,13.66.05.05.09.1.15.14.03.02,0,.22.33.4.67.37,1.92.27,2.46-.31.05-.06.03-.17.05-.19.06-.08.17-.14.22-.22.2.06.3-.19.37-.33.46-.9.24-1.78-.36-2.54l-14.15-13.92c-.07-.16-.27-.13-.33-.17-2.22-1.22-4.26,1.02-2.96,3.16ZM407.61,442.77c-1.98-1.96-4.9-.03-3.98,2.4.13.35.3.54.51.83,2.47,3.39,6.59-.32,3.87-3.13-.13-.14-.24-.36-.4-.1ZM413.37,445.26c.96,1.28,2.26,2.24,3.41,3.34,1.59,1.53,3.26,3.45,4.91,4.84.27.22,1.06.75,1.37.78.14.01.18-.11.2-.11.19,0,.39,0,.58,0,.12,0,.23.2.62-.08.31-.22.33-.45.4-.52.05-.05.1-.1.14-.15,0-.01.16,0,.26-.1.2-.19.66-.81.39-1,.01-.03.06-.05.07-.07.15-.37.17-.35,0-.73-.01-.03-.06-.04-.07-.07.23-.03-.07-.64-.11-.69l-3.96-3.89c-.18-.18-.24-.26-.48-.47-.37-.32-.25-.23-.27-.55,0-.04-.1-.07-.1-.1,0-.12.21.04,0-.29-.02-.03-.06-.04-.07-.07.25-.25,0-.56-.08-.8-.02-.07-.05-.13-.07-.22l.21-.8c1.72,1.4,3.46,2.79,5.16,4.21.72.6,1.83,1.88,2.64,2.13.16.05.26.2.4-.02.03.01.04.06.07.07,1.09.46,2.45-.84,2.57-1.95.14-1.25-.64-1.97-1.48-2.75-1.53-1.43-3.35-2.57-4.9-3.96-.27-.24-.89-.77-.96-1.08-.07-.26.24-.65-.03-.91.04-.11.09-.19.14-.29.12-.23.17-.54.39-.63.44-.07,6.11,4.8,7.03,5.46.52.37,1.43,1.08,2.08.76.04,0,.11,0,.15,0,.85.28,1.71-.73,1.99-1.44.46-1.16-.05-2.04-.9-2.83-1.06-.99-2.62-2.08-3.81-3-1.56-1.22-3.18-2.48-4.86-3.5-.03-.02-.05-.05-.07-.07-.09-.08-.15-.17-.29-.14-3.32-1.77-5.78.28-6.48,3.65-2.4-.04-3.89,1.77-3.87,4.09-1.15-.76-3.01-.56-3.41.94-.25.95.56,2.28,1.11,3.01ZM427.67,430.28c1.29,1.73,3.41,3.14,5.02,4.64,3.19,2.96,6.14,6.18,9.31,9.16,1.61,1.16,3.95-.26,3.62-2.22-.19-1.1-1.12-1.61-1.84-2.38-.17-.18-.26-.4-.43-.58-.28-.3-1.81-1.64-1.77-1.88,2.25-1.73,3.3-4.02,2.57-6.79-.65-2.43-2.37-4.26-4.36-5.67-1.59-1.12-3.56-2.32-5.58-2.09s-3.69,1.96-4.27,3.89c-2.99-.91-3.95,1.67-2.26,3.92ZM391.41,477.13c-.26.18-.03.25.11.4,4.32,4.57,11,2.32,12.03-3.82.25-1.47.08-2.18-1.2-3.01-.59-.38-1.22-.6-1.93-.45-1.76.39-1.31,2.59-2.17,3.73-.74.99-2.28,1.6-3.37.8-.53-.87-1.05-1.61-1.42-2.57-.25-.66-.7-2.28-.2-2.84,1.13-1.24,3.22-.29,3.68-2.43.23-1.09-.42-1.95-1.27-2.5-1.99-1.3-5.22.35-6.58,1.99-2.3,2.79.11,8.49,2.3,10.71ZM408.02,449.97c.59,1.19,1.1,1.41,1.95,2.35,2.05,2.26,4.21,4.71,6.59,6.62.12.1.77.58.91.33.03.02.05.06.07.07,1.65.86,3.93-1.78,2.42-3.55s-3.74-3.58-5.44-5.33c-1.01-1.04-1.86-2.33-3-3.25-.15-.12-.27-.21-.47-.17-1.54-1.24-3.81.2-3.42,2.11.08.37.24.54.38.83ZM447.68,419.31c.03.24.23.52.4.69.69.71,1.92,1.55,2.86,1.89.16.06.63.26.76.07.03.01.04.06.07.07,3.81,1.41,9.04-3.47,9.01-7.26,0-.98-.51-2.43-1.58-2.64-1.14-.97-2.27-.39-2.84.86-.24.53-.24,1.09-.43,1.61-.49,1.33-1.32,2.1-2.59,2.61l1.58-5.15c.39-1.73.23-4.13-1.65-4.9-2.02-1.8-4.64-.82-6.43.82-3.71,3.39-2.3,8.12.85,11.31ZM398.61,466.29c-.58,1.34-1.25,2.22-2.62,2.82.44,1.38.59,2.72.3,4.15.17.01.29.02.43-.08.79-.54.85-2.18,1.26-3.06.51-1.11,1.21-1.72,2.38-2.1l-1.76-1.73Z"/>
            <path class="cls-52" d="M413.37,445.26c-.55-.73-1.36-2.06-1.11-3.01.4-1.51,2.26-1.71,3.41-.94-.02-2.33,1.47-4.13,3.87-4.09.7-3.37,3.16-5.41,6.48-3.65.08.04.15.21.29.14.03.02.05.05.07.07,2.57,2.29,5.91,4.19,8.38,6.51.28.26.48.55.62.9.64,1.61-.93,3.31-2.6,2.94-.03-.02-.05-.05-.07-.07-.11-.08-.25-.13-.37-.21-1.71-1.54-4.3-3.49-6.18-4.91-.34-.25-.82-.69-1.21-.77l-.73-.57c-.31,0-.73,2.13-.57,2.45.07.14.2.21.3.32,1.43,1.61,3.81,3.01,5.45,4.5.45.41.97.88,1.28,1.41,1.06,1.76-.8,3.83-2.67,3.01-.91-.4-1.43-1.21-2.16-1.83-1.75-1.49-3.56-2.85-5.24-4.43-.12-.12-.47-.62-.62-.39-.12.29.14,2.76.31,3.05s.47.51.7.76c.74.78,1.56,1.5,2.31,2.27.43.77,1.31,1.22,1.72,1.98.6,1.12-.23,2.62-1.4,2.97-.4.12-.73.01-1.13.04-.03-.02-.05-.05-.07-.07-.14-.09-.21-.06-.22-.07-.22-.15-.93-.62-1.06-.75l-5.94-5.84s-.19-.05-.29-.14c-.54-.5-1.04-1.06-1.58-1.55Z"/>
            <path class="cls-52" d="M439.79,424.55c1.28,1.18,2.46,2.41,3.38,3.9,0,0-.04.08,0,.15.02.03.06.04.07.07,1.25,3.06.48,6.21-2.42,8.03.14.15.3.29.44.43.92.95,3.23,2.84,3.67,3.89.77,1.84-1.11,3.46-2.89,2.79-.18-.12-.38-.24-.55-.39-3.25-2.8-6.27-6.36-9.45-9.31-1.08-1-2.27-1.89-3.37-2.87-.35-.31-.65-.67-.99-.98-1.69-2.25-.73-4.82,2.26-3.92.58-1.94,2.2-3.66,4.27-3.89s4,.97,5.58,2.09ZM434.15,430.29c.26.27.53.38.77.61.85.8,1.64,1.65,2.48,2.46.12.07.18-.15.26-.18,1.16-.52,2.27-1.87,1.29-3.07,0-.21-.13-.39-.26-.54-.69-.8-1.69-1.76-2.6-2.27-.26-.15-.54-.4-.88-.38-.88.04-1.37,1.66-1.4,2.41-.02.55-.07.57.33.98Z"/>
            <path class="cls-52" d="M394.44,453.09c.22.18.75.45.91.61l3.08,3.03s.05.19.14.29c.24.27.53.49.78.76.05,0,.06-.3.07-.36.63-3.18,3.5-5.54,6.6-3.63,1.84,1.14,3.68,3.23,5.46,4.64.92.74,2.98,1.91,3.48,2.84.84,1.56-.74,3.56-2.45,3.08-.03-.02-.05-.05-.07-.07l-2.63-1.58c-1.5-1.49-3.39-3.16-4.98-4.61-.6-.54-.71-.53-1.04.34-.51,1.34.38,3.77,1.37,4.75-.04.03-.06.06-.03.11.2.23.46.42.66.65.09.1.12.27.14.29l1.39,1.37c.25.25.81,1.07.99,1.41,1.1,2.01-.64,3.65-2.67,3.16-.03-.02-.05-.05-.07-.07-.04-.03-.1-.02-.15,0-.2-.15-.48-.46-.66-.65-.14-.16-.22-.35-.37-.51l-1.79-2.06c-2.87-2.61-5.49-5.47-8.21-8.22-.94-.95-1.96-1.63-2.9-2.56-.5-.97-.67-1.91.18-2.79s1.77-.65,2.79-.22Z"/>
            <path class="cls-52" d="M453.27,407.18c2.95,2.62.07,7.01-.61,10.09l.1.25c.09.01.49-.26.58-.29,1.27-.5,2.1-1.28,2.59-2.61.19-.52.19-1.07.43-1.61.57-1.26,1.7-1.84,2.84-.86.58.49.63.77.96,1.37.41,2.64-1.39,5.36-3.48,6.87-1.19.86-2.48,1.29-3.92,1.4-.33.02-.44-.16-.76.04-.4-.19-.66-.15-1.02-.28-.14-.05-.35-.11-.44-.14-.03-.01-.04-.06-.07-.07-1.14-.49-1.92-1.14-2.78-2.01-3.14-3.19-4.56-7.92-.85-11.31,1.79-1.64,4.41-2.62,6.43-.82ZM450.09,410.85c-1.17.91-1.61,2.07-.92,3.43.31-.79.63-1.63.84-2.45.03-.1.3-1,.08-.98Z"/>
            <path class="cls-52" d="M395.68,464.43c.24.26.43.55.59.87.01.03.06.04.07.07.02.05.06.17.07.22.26,1.01-.21,1.97-1.18,2.36s-1.5.02-2.47.93c-.65.61.01,2.84.43,3.51.02.03.05.04.07.07-.04.18.05.3.15.44.04.05.12.09.15.14l.15.29c.35.57.58,1,1.17,1.44,1.08.81,2.62.19,3.37-.8.85-1.13.41-3.34,2.17-3.73.71-.16,1.35.07,1.93.45.39.24.45.61.66.94.24,1.5-.33,3.49-1.14,4.78-1.51,2.4-4.4,3.43-7.1,2.87-.09-.04-.19-.1-.29-.14-.04-.02-.12.01-.15,0-.03-.01-.04-.06-.07-.07-.05-.03-.13,0-.15,0-1.1-.56-1.83-1.05-2.71-1.94-2.19-2.22-4.6-7.92-2.3-10.71,1.36-1.64,4.58-3.29,6.58-1.99Z"/>
            <path class="cls-7" d="M435.61,411.06l13.46,13.22c.21.29.47.55.69.83-.03.05-.03.1,0,.15s.1.1.15.14c.88,1.88-1.22,3.76-2.96,2.72-.19-.12-.4-.21-.55-.39l-13.74-13.52c-1.3-2.13.74-4.38,2.96-3.16Z"/>
            <path class="cls-52" d="M411.06,447.03c1.24,1,2.16,2.36,3.26,3.5s2.19,2.19,3.3,3.25c.74.71,1.63,1.17,2.09,2.19.77,1.71-.87,3.33-2.6,2.94-2.05-1.5-3.85-3.39-5.61-5.22-1.17-1.23-2.33-2.47-3.48-3.71-.14-.29-.31-.47-.38-.83-.39-1.91,1.88-3.35,3.42-2.11Z"/>
            <path class="cls-17" d="M407.61,442.77c2.44,2.42-1.22,5.73-3.47,3.24-.21-.29-.38-.48-.51-.83-.92-2.43,2-4.37,3.98-2.4Z"/>
            <path class="cls-26" d="M398.61,466.29l1.76,1.73c-1.16.38-1.86.99-2.38,2.1-.41.89-.47,2.53-1.26,3.06-.15.1-.27.09-.43.08.28-1.43.14-2.77-.3-4.15,1.37-.6,2.04-1.48,2.62-2.82Z"/>
            <path class="cls-33" d="M442.04,443.82c1.86,1.26,4.04-.41,3.2-2.47-.05-.13-.09-.41-.31-.32-.44-1.06-2.75-2.94-3.67-3.89.13-.42.49-.51.76-.77,2.36-2.25,2.81-4.89,1.22-7.7-.02-.03-.06-.04-.07-.07v-.15c-.92-1.49-2.09-2.72-3.38-3.9,1.99,1.41,3.71,3.24,4.36,5.67.74,2.77-.32,5.06-2.57,6.79-.03.24,1.49,1.58,1.77,1.88.17.18.26.4.43.58.72.77,1.66,1.29,1.84,2.38.33,1.96-2.01,3.38-3.62,2.22-3.17-2.98-6.12-6.21-9.31-9.16-1.61-1.5-3.73-2.91-5.02-4.64.34.31.64.67.99.98,1.1.97,2.29,1.87,3.37,2.87,3.19,2.95,6.2,6.51,9.45,9.31.17.15.37.27.55.39Z"/>
            <path class="cls-16" d="M453.34,417.22c-.09.04-.5.31-.58.29l-.1-.25c.68-3.08,3.56-7.46.61-10.09,1.88.77,2.04,3.17,1.65,4.9l-1.58,5.15Z"/>
            <path class="cls-9" d="M391.41,477.13c.88.89,1.6,1.38,2.71,1.94h.15s.04.06.07.07h.15c.1.04.21.11.29.14,0,0-.05.1.1.17.8.39,3.17.23,4.01-.08,2.64-.97,5.03-4.43,4.46-7.27-.08-.42-.31-.44-.33-.47-.21-.33-.28-.7-.66-.94,1.28.83,1.44,1.54,1.2,3.01-1.03,6.14-7.71,8.39-12.03,3.82-.14-.14-.37-.21-.11-.4Z"/>
            <path class="cls-21" d="M407.61,442.77c.17-.26.27-.04.4.1,2.71,2.82-1.4,6.53-3.87,3.13,2.25,2.49,5.91-.81,3.47-3.24Z"/>
            <path class="cls-30" d="M411.41,465.59c.08.53-.33,1.04-.79,1.24-.81-1.83-2.74-3.48-4.11-4.91l4.9,3.66Z"/>
            <path class="cls-9" d="M451.78,422.04c.08-.06.14-.17.22-.22,2.74,1.29,6.65-2.06,7.83-4.41.43-.86,1.06-3.02.49-3.87-.09-.14-.15-.02-.15-.03-.33-.6-.38-.88-.96-1.37,1.07.21,1.57,1.66,1.58,2.64.03,3.78-5.19,8.67-9.01,7.26Z"/>
            <path class="cls-24" d="M412.42,464.27s.05.05.07.07c.13.09.13.24.37.36.03.01.04.05.07.07-.01,0-.07.13-.2.09-.18-.05-.38-.26-.53-.38l.22-.22Z"/>
            <path class="cls-24" d="M412.93,464.77l.07-.07c1.02.13,1.77-.22,2.28-1.15.32-.59.43-1.99-.33-2.29-.5-.93-2.55-2.11-3.48-2.84-1.77-1.41-3.61-3.5-5.46-4.64.69.18,1.46.79,2.01,1.26,1.73,1.47,3.32,3.04,5.13,4.44,1.01.78,2.28,1.22,2.56,2.62s-.94,3.01-2.45,2.87c-.18-.02-.27-.17-.33-.18Z"/>
            <path class="cls-43" d="M417.55,459.34c.25-.19.52-.02.84-.06.66-.07,1.27-.63,1.63-1.17.33-.49.38-1.89-.31-2.14-.46-1.02-1.35-1.49-2.09-2.19-1.11-1.06-2.24-2.14-3.3-3.25s-2.02-2.5-3.26-3.5c.2-.03.32.05.47.17,1.14.92,1.99,2.21,3,3.25,1.7,1.75,3.89,3.52,5.44,5.33s-.77,4.41-2.42,3.55Z"/>
            <path class="cls-3" d="M433.96,444.55c.93-.1,1.77-1.04,1.91-1.95.06-.39.07-1.38-.48-1.41-.14-.35-.34-.64-.62-.9-2.47-2.32-5.81-4.22-8.38-6.51,1.69,1.02,3.3,2.28,4.86,3.5,1.18.92,2.75,2.01,3.81,3,.84.79,1.36,1.67.9,2.83-.28.71-1.15,1.72-1.99,1.44Z"/>
            <path class="cls-3" d="M424.97,438.16c.39.08.87.52,1.21.77,1.89,1.42,4.47,3.36,6.18,4.91.02.02-.03.39.37.21.03.02.05.05.07.07.11.07.17.19.33.26.04.02.66.17.7.17-.65.32-1.56-.39-2.08-.76-.92-.66-6.59-5.53-7.03-5.46-.22.09-.27.4-.39.63-.25-.43.08-.92.65-.81Z"/>
            <path class="cls-20" d="M417.11,458.91s.18.24.37.36c-.15.25-.79-.24-.91-.33-2.38-1.91-4.54-4.36-6.59-6.62-.85-.94-1.37-1.16-1.95-2.35,1.15,1.25,2.31,2.49,3.48,3.71,1.75,1.83,3.56,3.72,5.61,5.22Z"/>
            <path class="cls-18" d="M404.37,468.93s-.1-.09-.15-.14c-2.58-2.69-5.35-5.22-7.99-7.85l-.07-.22c-.68-.67-1.35-1.37-2.05-2.02.08-.14-.16-.37-.29-.29-.62-.57-1.43-1.06-1.98-1.65l-.22-.36c-.08-.13-.1-.19-.15-.29.94.92,1.96,1.61,2.9,2.56,2.72,2.75,5.34,5.61,8.21,8.22l1.79,2.06Z"/>
            <path class="cls-15" d="M424.17,439.26c.27.26-.03.65.03.91.08.31.69.84.96,1.08,1.56,1.39,3.37,2.53,4.9,3.96.84.78,1.62,1.5,1.48,2.75-.13,1.11-1.48,2.42-2.57,1.95.86-.19,1.4-.26,1.99-1,.53-.66.56-2.21-.27-2.65-.31-.52-.83-.99-1.28-1.41-1.64-1.49-4.03-2.89-5.45-4.5.02-.42.06-.69.21-1.09Z"/>
            <path class="cls-9" d="M394.88,474.77c-.59-.44-.83-.87-1.17-1.44-.03-.05-.1-.19-.15-.29-.03-.05-.11-.09-.15-.14l.14-.15c-.08-.1-.22-.19-.29-.29-.02-.03-.06-.04-.07-.07.21-.14.06-.24.01-.4-.18-.58-.64-1.93-.32-2.47.83-1.44,2.59-.8,3.45-1.77.44-.5.5-1.14.38-1.76-.02-.1-.1-.5-.29-.4-.01-.05-.05-.17-.07-.22l.03-.11-.11.04c-.15-.32-.35-.61-.59-.87.85.55,1.5,1.41,1.27,2.5-.46,2.14-2.55,1.19-3.68,2.43-.51.56-.06,2.18.2,2.84.37.96.89,1.7,1.42,2.57Z"/>
            <path class="cls-10" d="M450.07,428.02c.51-.81.59-1.79-.02-2.58-.04-.06-.14-.03-.15-.04-.05-.04-.12-.1-.15-.14.03-.04.03-.11,0-.15-.22-.28-.48-.54-.69-.83l-13.46-13.22c.06.03.26,0,.33.17l14.15,13.92c.59.77.81,1.65.36,2.54-.07.14-.17.4-.37.33Z"/>
            <path class="cls-15" d="M420.63,443.01c1.67,1.58,3.49,2.94,5.24,4.43.73.62,1.25,1.43,2.16,1.83,0,.32.6.46.88.57-.14.21-.24.07-.4.02-.81-.25-1.92-1.54-2.64-2.13-1.7-1.42-3.45-2.81-5.16-4.21l-.21.8c-.11-.42-.3-.98.14-1.31Z"/>
            <path class="cls-12" d="M408.65,467.07c.03.05.12.09.15.14l-.14.15.11.11.11-.04c.31.7.43,1.21.01,1.89-.74,1.2-2.1,1.68-3.27.83,2.03.49,3.77-1.15,2.67-3.16l.36.07Z"/>
            <path class="cls-16" d="M404.81,458.08l-.51.37.15.14c-.05.08-.18.15-.22.22-.27.52-.2.88-.06,1.38.02.08.05.15.07.22-.25.37.12.95.3,1.31.03.05.12.09.15.14-.24.16-.04.24.04.4.15.32.29.66.55.91-.04.02-.13-.01-.15,0-.98-.98-1.88-3.42-1.37-4.75.33-.87.44-.88,1.04-.34Z"/>
            <path class="cls-12" d="M428.98,449.91s-.04-.06-.07-.07c-.28-.11-.88-.26-.88-.57,1.87.82,3.73-1.25,2.67-3.01.83.44.81,1.99.27,2.65-.6.74-1.14.81-1.99,1Z"/>
            <path class="cls-16" d="M449.91,425.4s.1-.02.15.04c.61.79.52,1.77.02,2.58-.05.08-.16.14-.22.22-.9.63-1.9.69-2.84.1-.05-.04-.1-.1-.15-.14l.07-.07c1.74,1.04,3.84-.85,2.96-2.72Z"/>
            <path class="cls-10" d="M446.94,428.12l-.07.07c-4.87-4.28-9.29-9.22-14.05-13.66-.15-.06-.14-.27-.17-.32l13.74,13.52c.15.18.36.27.55.39Z"/>
            <path class="cls-6" d="M425.64,451.4s.06.04.07.07c-.17.21-.16.52,0,.73-.01.03-.06.04-.07.07-.2.42-.43.71-.65,1.1-.05.05-.1.1-.14.15l-1.01.59c-.19,0-.39,0-.58,0-.29-.1-.49-.27-.73-.43.4-.03.73.08,1.13-.04,1.16-.35,2-1.85,1.4-2.97.3.01.46.46.59.72Z"/>
            <path class="cls-12" d="M433.96,444.55s-.1,0-.15,0c-.04,0-.66-.15-.7-.17-.15-.07-.22-.19-.33-.26,1.67.37,3.24-1.32,2.6-2.94.55.03.54,1.03.48,1.41-.14.9-.99,1.85-1.91,1.95Z"/>
            <path class="cls-6" d="M417.55,459.34s-.04-.05-.07-.07c-.19-.12-.32-.33-.37-.36,1.73.39,3.36-1.23,2.6-2.94.69.25.64,1.65.31,2.14-.36.54-.97,1.09-1.63,1.17-.31.04-.59-.14-.84.06Z"/>
            <path class="cls-39" d="M422.24,453.54l.22.07s.05.05.07.07c.24.16.44.33.73.43-.02,0-.06.12-.2.11-.32-.03-1.11-.55-1.37-.78-1.65-1.39-3.32-3.31-4.91-4.84-1.14-1.1-2.44-2.06-3.41-3.34.54.5,1.03,1.06,1.58,1.55.1.09.26.11.29.14l5.94,5.84c.13.13.84.6,1.06.75Z"/>
            <path class="cls-24" d="M404.81,458.08c1.59,1.45,3.48,3.12,4.98,4.61.1.1.2.19.29.29-.19.28-.24,0-.4-.11-1.23-.93-2.15-1.82-3.22-2.88-.41-.41-1.12-1.23-1.54-1.51-.22-.15-.32-.06-.47.11l-.15-.14.51-.37Z"/>
            <path class="cls-3" d="M399.41,457.41c-.01.06-.01.37-.07.36-.25-.26-.53-.49-.78-.76-.09-.1-.12-.26-.14-.29l-3.08-3.03c-.16-.16-.7-.43-.91-.61.12.05.26.04.47.15,1.79.98,3.06,2.78,4.51,4.16Z"/>
            <path class="cls-24" d="M404.69,461.87c.25.47.72,1.43,1.07,1.77l1.54,1.51c.28.28,1.1,1.5,1.36,1.92l-.36-.07c-.19-.34-.74-1.16-.99-1.41l-1.39-1.37s-.06-.19-.14-.29c-.2-.23-.46-.42-.66-.65-.03-.05,0-.08.03-.11.01-.01.1.02.15,0-.26-.25-.4-.59-.55-.91-.08-.16-.28-.24-.04-.4Z"/>
            <path class="cls-12" d="M421.02,446.42c-.23-.25-.54-.46-.7-.76s-.42-2.77-.31-3.05c.15-.22.5.28.62.39-.43.33-.25.9-.14,1.31.02.09.06.15.07.22-.21.23-.04.56.08.8.01.03.05.04.07.07l-.14.15.15.14s.09.06.1.1c.02.32-.1.23.27.55l-.07.07Z"/>
            <path class="cls-6" d="M423.96,440.36c-.1-.11-.23-.18-.3-.32-.16-.32.26-2.44.57-2.45l.73.57c-.57-.12-.9.37-.65.81-.05.1-.1.18-.14.29-.15.4-.19.67-.21,1.09Z"/>
            <path class="cls-9" d="M450.46,421.32l-.03.11.11-.04c.09.04.3.09.44.14-.05.18.52.35.73.43-.13.19-.61,0-.76-.07-.94-.34-2.17-1.19-2.86-1.89-.17-.17-.37-.45-.4-.69.86.88,1.64,1.52,2.78,2.01Z"/>
            <path class="cls-39" d="M421.09,446.35c.24.21.29.29.48.47l3.96,3.89s.34.66.11.69c-.13-.26-.29-.71-.59-.72-.41-.76-1.29-1.22-1.72-1.98-.75-.77-1.57-1.49-2.31-2.27l.07-.07Z"/>
            <path class="cls-24" d="M405.4,470.08s.1.03.15,0c.03.02.05.05.07.07,1.17.85,2.53.37,3.27-.83.28.2-.34.8-.46.91-.84.76-2.38.72-3.21-.03-.24-.22-.36-.45-.55-.69l.07-.07c.18.19.46.5.66.65Z"/>
            <path class="cls-10" d="M449.86,428.24s0,.13-.05.19c-.54.58-1.79.69-2.46.31-.32-.18-.3-.38-.33-.4.94.59,1.94.53,2.84-.1Z"/>
            <path class="cls-9" d="M412.42,464.27l-.22.22c-.08-.06-.14-.15-.22-.22-.08-.08-.16-.2-.29-.14-.04-.05-.1-.09-.15-.14-.07-.08-.17-.2-.29-.14-.04-.05-.1-.09-.15-.14l-.22-.07c-.07-.08-.15-.14-.22-.22-.11-.12-.27-.34-.44-.29-.04-.05-.1-.09-.15-.14-.09-.1-.2-.19-.29-.29l2.63,1.58Z"/>
            <path class="cls-24" d="M404.23,458.81c.14.37.08,1.03-.06,1.38-.14-.51-.21-.86.06-1.38Z"/>
            <path class="cls-24" d="M404.24,460.41c.09.3.2.61.29.91.05.15.24.24,0,.4-.18-.35-.55-.94-.3-1.31Z"/>
            <path class="cls-39" d="M425.65,452.27c.27.19-.19.81-.39,1-.1.09-.25.09-.26.1.22-.39.45-.68.65-1.1Z"/>
            <path class="cls-46" d="M450.97,421.54c.36.13.62.09,1.02.28.32-.2.44-.01.76-.04,1.44-.11,2.73-.54,3.92-1.4,2.09-1.51,3.89-4.23,3.48-6.87,0,0,.06-.11.15.03.58.85-.05,3.01-.49,3.87-1.18,2.34-5.1,5.7-7.83,4.41-.07.05-.14.16-.22.22-.03-.01-.04-.06-.07-.07-.21-.08-.78-.25-.73-.43Z"/>
            <path class="cls-39" d="M424.86,453.52c-.06.06-.09.3-.4.52-.39.27-.5.07-.62.08l1.01-.59Z"/>
            <path class="cls-15" d="M420.57,444.54c.07.24.32.55.08.8-.12-.24-.29-.57-.08-.8Z"/>
            <path class="cls-39" d="M425.72,451.47c.18.38.15.36,0,.73-.17-.2-.17-.52,0-.73Z"/>
            <path class="cls-38" d="M404.37,468.93c.14.15.23.35.37.51l-.07.07c-.17-.22-.51-.38-.44-.72.05.05.1.09.15.14Z"/>
            <path class="cls-24" d="M410.67,463.41l-.14.15c-.21-.06-.25-.38-.29-.43.17-.05.33.17.44.29Z"/>
            <path class="cls-38" d="M394.11,458.69c-.09-.08-.22-.22-.29-.29.13-.09.38.14.29.29Z"/>
            <path class="cls-24" d="M411.54,463.98c-.26.32-.22-.04-.29-.14.12-.06.22.06.29.14Z"/>
            <path class="cls-24" d="M411.98,464.27c-.26.33-.22-.06-.29-.14.13-.06.21.07.29.14Z"/>
            <path class="cls-24" d="M408.8,467.21c.05.09.05.16.07.22l-.11.04-.11-.11.14-.15Z"/>
            <path class="cls-38" d="M391.84,456.75c-.16-.18-.15-.25-.22-.36l.22.36Z"/>
            <path class="cls-15" d="M420.72,445.41c.21.33,0,.17,0,.29l-.15-.14.14-.15Z"/>
            <path class="cls-24" d="M411.1,463.7c-.26.32-.19-.03-.22-.07l.22.07Z"/>
            <path class="cls-3" d="M426.32,433.71c-.15.07-.21-.1-.29-.14.14-.02.2.06.29.14Z"/>
            <path class="cls-38" d="M396.24,460.93c-.13-.13-.07-.21-.07-.22l.07.22Z"/>
            <path class="cls-12" d="M432.72,444.05c-.4.17-.34-.2-.37-.21.11.08.25.13.37.21Z"/>
            <path class="cls-6" d="M422.46,453.62l-.22-.07s.08-.02.22.07Z"/>
            <path class="cls-8" d="M438.95,430.09c.99,1.2-.12,2.55-1.29,3.07l-3.23-3.06c-.1-.86.44-2.98,1.63-2.52.68.26,2.4,1.91,2.89,2.52ZM435.89,428.52l-.22.22c.69.61,1.42,1.18,2.05,1.87.11-.05-.1-.38-.11-.4l-1.72-1.69Z"/>
            <path class="cls-46" d="M441.26,437.13c-.14-.15-.3-.29-.44-.43,2.9-1.82,3.67-4.96,2.42-8.03,1.6,2.8,1.14,5.45-1.22,7.7-.27.26-.63.35-.76.77Z"/>
            <path class="cls-3" d="M436.09,427.28c.91.51,1.9,1.47,2.6,2.27.13.15.27.33.26.54-.49-.6-2.21-2.25-2.89-2.52-1.19-.46-1.72,1.66-1.63,2.52l3.23,3.06c-.08.03-.15.25-.26.18-.84-.81-1.64-1.66-2.48-2.46-.24-.22-.51-.34-.77-.61.15-1.26.26-3.08,1.94-3Z"/>
            <path class="cls-6" d="M434.15,430.29c-.4-.41-.35-.43-.33-.98.03-.75.52-2.36,1.4-2.41.33-.02.61.24.88.38-1.68-.08-1.8,1.74-1.94,3Z"/>
            <path class="cls-6" d="M444.93,441.03c.22-.08.26.19.31.32.84,2.06-1.34,3.72-3.2,2.47,1.78.67,3.66-.95,2.89-2.79Z"/>
            <path class="cls-46" d="M443.16,428.6c-.04-.07,0-.14,0-.15v.15Z"/>
            <path class="cls-12" d="M413,464.7s-.1,0-.15,0c-.24-.12-.24-.27-.37-.36,1.71.47,3.29-1.52,2.45-3.08.76.3.66,1.7.33,2.29-.51.93-1.26,1.28-2.28,1.15Z"/>
            <path class="cls-12" d="M405.55,470.08s-.11.03-.15,0c.04-.02.11-.03.15,0Z"/>
            <path class="cls-47" d="M450.09,410.85c.22-.02-.05.88-.08.98-.21.82-.54,1.65-.84,2.45-.69-1.36-.25-2.52.92-3.43Z"/>
            <path class="cls-46" d="M450.53,421.39l-.11.04.03-.11s.04.06.07.07Z"/>
            <path class="cls-46" d="M394.77,479.28c2.71.56,5.59-.47,7.1-2.87.81-1.28,1.38-3.28,1.14-4.78.02.03.25.05.33.47.57,2.84-1.82,6.3-4.46,7.27-.85.31-3.21.47-4.01.08-.14-.07-.09-.17-.1-.17Z"/>
            <path class="cls-46" d="M396.42,465.59c.19-.1.27.29.29.4.13.62.06,1.26-.38,1.76-.86.97-2.62.34-3.45,1.77-.31.54.14,1.89.32,2.47.05.16.2.26-.01.4-.42-.67-1.08-2.9-.43-3.51.97-.91,1.53-.55,2.47-.93s1.44-1.35,1.18-2.36Z"/>
            <path class="cls-46" d="M393.26,472.46c.08.1.21.18.29.29l-.14.15c-.1-.14-.19-.25-.15-.44Z"/>
            <path class="cls-46" d="M393.71,473.33l-.15-.29c.05.1.12.24.15.29Z"/>
            <path class="cls-46" d="M394.48,479.14h-.15s.1-.02.15,0Z"/>
            <path class="cls-46" d="M396.34,465.37s-.06-.04-.07-.07l.11-.04-.03.11Z"/>
            <path class="cls-46" d="M394.26,479.07h-.15s.09-.03.15,0Z"/>
            <path class="cls-16" d="M449.76,425.26s-.03-.1,0-.15c.03.04.03.1,0,.15Z"/>
            <path class="cls-26" d="M435.89,428.52l1.72,1.69s.22.35.11.4c-.63-.69-1.36-1.26-2.05-1.87l.22-.22Z"/>
          </g>
        </g>
        <g>
          <path class="cls-31" d="M428.43,464.38c-3.05,2.05-2.63,8.01.93,13.31,3.56,5.3,8.93,7.94,11.98,5.89,3.05-2.05,2.63-8.01-.93-13.31-3.56-5.3-8.93-7.94-11.98-5.89Z"/>
          <path class="cls-31" d="M438.18,460.41c-3.05,2.05-2.63,8.01.93,13.31,3.56,5.3,8.93,7.94,11.98,5.89,3.05-2.05,2.63-8.01-.93-13.31-3.56-5.3-8.93-7.94-11.98-5.89Z"/>
          <path class="cls-31" d="M445.15,453.14c-3.05,2.05-2.63,8.01.93,13.31,3.56,5.3,8.93,7.94,11.98,5.89,3.05-2.05,2.63-8.01-.93-13.31-3.56-5.3-8.93-7.94-11.98-5.89Z"/>
          <path class="cls-31" d="M449.06,443.18c-3.05,2.05-2.63,8.01.93,13.31,3.56,5.3,8.93,7.94,11.98,5.89,3.05-2.05,2.63-8.01-.93-13.31-3.56-5.3-8.93-7.94-11.98-5.89Z"/>
        </g>
        <g>
          <g>
            <path class="cls-28" d="M397.17,424.09c6.07-11.06,2.02-24.99-9.09-30.97-62.83-33.79-89.14-69.65-91.12-78.16l-.57-.56-25.34,38.87c11.24,59.96,57.14,69.89,86.54,90.37,11.14,7.76,26.53,4.22,33.06-7.68l6.51-11.87Z"/>
            <path class="cls-55" d="M302.48,468.98l-141.05-16.96,17.53-112.6c3.84-23.38,19.73-46.96,43.11-43.12l33.18,5.45c23.38,3.84,39.22,25.9,35.38,49.28l11.85,117.95Z"/>
            <path class="cls-28" d="M295.53,461.05l-133.58-15.77c-8.75-1.25-14.65-9.59-12.93-18.26l18.46-86.14c3.84-23.38,31.63-50.92,55-47.09l33.18,5.45c23.38,3.84,48.35,7.83,44.51,31.2l13.93,91.07c8.86,16.89-7.5,41.12-18.56,39.54Z"/>
            <path class="cls-55" d="M165.89,431.52c3.66-.47,7.1-1.95,10.81-2.17,3.41-.2,6.75.56,9.88,1.88,5.75,2.43,11.01,6.87,17.29,7.93,7.21,1.22,14.37-2.01,21.62-1.54,7.4.48,12.88,5.39,19.66,7.67,6.57,2.22,13.56-.2,20.12-1.21,3.51-.54,7.17-.83,10.68-.18,3.68.68,6.94,2.29,10.18,4.09,3.16,1.76,6.36,3.79,9.96,4.47,4.34.82,8.77-.03,13.1-.42.23-.02.47-.04.7-.05-2.01,2.8-4.31,5.13-6.66,6.74-1.99.15-3.99.21-5.98.02-3.57-.34-6.84-1.57-10-3.23-3.08-1.62-6.02-3.56-9.29-4.79-2.92-1.1-6.01-1.31-9.1-.99-6.9.7-13.68,3.12-20.69,2.39-7.13-.74-12.48-5.45-19.07-7.66-6.61-2.21-13.63.59-20.32.94-3.5.19-6.89-.23-10.2-1.44-3.16-1.16-6.1-2.86-9.04-4.49-2.57-1.42-5.2-2.8-8.04-3.61-3.19-.91-6.23-.34-9.37.48-4.05,1.05-7.96,1.75-12.13.88-3.83-.8-7.36-2.38-10.93-3.92-.44-2.01-.49-4.14-.06-6.3l.06-.27c5.41,2.32,10.94,5.52,16.81,4.76Z"/>
            <path class="cls-55" d="M278.71,306.85c-6.94,22.07-20.92,37.45-36.98,33.6-15.97-3.83-27.03-23.17-28.04-46.3,2.98-.76,5.93-.9,8.79-.31l33.06,6.81c7.96,1.64,16.1,3.3,23.17,6.2Z"/>
            <path class="cls-55" d="M257.63,354.81c-10.63,1.59-21.24-.99-30.71-6.91-8.73-5.46-16.79-13.36-22.32-24.28-3.41-6.73-5.83-14.42-7.12-22.54,1.86-1.58,3.76-2.99,5.67-4.22.84,6.45,2.5,12.64,4.89,18.23,4.36,10.19,11.27,17.9,18.83,23.21,8.37,5.88,17.77,9.06,27.4,8.46,8.37-.52,16.59-4.37,23.89-10.53,6.43-5.42,11.96-12.73,16.49-21.07,1.5,2.03,2.72,4.34,3.6,6.98-10.13,17.55-24.71,30.29-40.62,32.67Z"/>
            <g>
              <path class="cls-55" d="M381.29,393.48c.42-1.13.82-2.27,1.24-3.4,1.82,1.02,3.67,2.03,5.55,3.05.19.1.37.23.56.34-6.39,17.3-13.6,34.3-21.63,50.91-.45.94-.93,1.86-1.38,2.8-2.2-.5-4.35-1.33-6.4-2.51,8.18-16.68,15.55-33.77,22.06-51.17Z"/>
              <path class="cls-55" d="M357.66,374.85c1.87,1.26,3.8,2.52,5.77,3.78-8.41,17.01-17.38,33.74-26.91,50.15-.34.59-.69,1.17-1.04,1.76-1.99-1.1-4-2.2-6.02-3.33,10.02-17.11,19.44-34.57,28.2-52.35Z"/>
            </g>
          </g>
          <path class="cls-48" d="M225.2,297.82s2.88,27.63,16.05,31.47c13.19,3.82,28.3-19.85,28.3-19.85l-44.35-11.62Z"/>
        </g>
        <g>
          <g>
            <path class="cls-23" d="M304.7,287.29c1.19-11.08,12.57-18.95,25.41-17.57,12.84,1.38,22.29,11.48,21.1,22.56-1.19,11.08-12.57,18.95-25.41,17.57-12.84-1.38-22.29-11.48-21.1-22.56Z"/>
            <path class="cls-48" d="M309.94,293.21c.66-6.5,8.44-11.02,17.37-10.11,8.93.91,15.63,6.91,14.97,13.41-.66,6.5-8.44,11.02-17.37,10.11-8.93-.91-15.63-6.91-14.97-13.41Z"/>
          </g>
          <g>
            <path class="cls-23" d="M165.32,249.94c4.95-9.98,18.35-13.42,29.92-7.68,11.57,5.74,16.94,18.49,11.98,28.47-4.95,9.98-18.35,13.42-29.92,7.68-11.57-5.74-16.94-18.49-11.98-28.47Z"/>
            <path class="cls-48" d="M170.62,258.29c2.93-5.83,11.81-7.29,19.83-3.26,8.02,4.03,12.14,12.03,9.2,17.86-2.93,5.83-11.81,7.29-19.83,3.26-8.02-4.03-12.14-12.03-9.2-17.86Z"/>
          </g>
          <g>
            <path class="cls-23" d="M332.04,275.96c7.58-39.68-.65-94.17-62.25-99.48-44.66-7.66-74.81,32.19-82.39,71.87-7.58,39.68,28.39,57.99,65.89,68.34,38.42,10.6,71.18-1.05,78.76-40.73Z"/>
            <path class="cls-48" d="M190.86,241.09c10.69-17.03,23.07-32.98,37.77-48.21,3.91,4.14,9.34,6.8,15.01,7.31,5.67.52,11.51-1.09,16.4-3.49,4.39,4.64,10.29,7.81,16.59,8.9,6.28,1.09,12.91.08,18.5-1.91,5.63,7.5,16.19,10.9,25.78,8.06,5.25,17.11,9.55,34.54,12.83,52.13,1.76-11.23,3.21-22.57,2.96-33.95s-2.29-22.84-7.75-32.88c-33.91-9.15-68.15-17.13-102.65-23.77-15.16,17.32-26.83,37.69-35.44,67.8Z"/>
          </g>
          <g>
            <g>
              <path class="cls-50" d="M291.31,213.08c2.71-3.82,7.79-5.69,12.51-5.17s9.01,3.21,12.03,6.76c3.04,3.57,4.91,7.96,5.67,12.56-6.51-9.81-19.51-15.05-30.21-14.15Z"/>
              <path class="cls-50" d="M250.45,207.18c-2.83-6.36-9.24-10.69-15.85-10.73-6.61-.02-13.12,4.24-17.53,12.89,9.62-8.78,22.76-6.59,33.38-2.16Z"/>
            </g>
            <g>
              <path class="cls-36" d="M281.06,252.3c3.23-6.19,7.2-9.2,13.94-10.94,6.26-1.6,14.4.52,18.69,7.87,2.31,3.97,3.07,7.03,3.53,11.51,1.45-4.39,1.32-9.3-.78-13.84-3.8-8.27-13.33-12.6-22.07-9.97-7.35,2.2-12.24,8.42-13.31,15.37Z"/>
              <path class="cls-36" d="M247.85,243.84c-.4-6.97-2.77-11.34-8.21-15.71-5.04-4.05-13.35-5.46-20.28-.52-3.76,2.67-5.69,5.14-7.96,9.03.48-4.6,2.62-9.03,6.4-12.3,6.87-5.96,17.34-5.98,24.21,0,5.82,5.06,7.73,12.74,5.84,19.51Z"/>
            </g>
            <g>
              <path class="cls-27" d="M267.25,249.76c.23,2.88-.06,5.77-.86,8.55,1.78-.38,3.28-1.93,3.57-3.74s-.59-3.76-2.71-4.81Z"/>
              <g>
                <path class="cls-45" d="M270.71,294.21c-9.07,3.57-20.68,1.32-27.78-5.88-6.47-6.51-8.48-16.82-4.79-24.54.38-.8.82-1.55,1.32-2.31,16.08,1.68,31.12,5.38,45.75,10.33.34.1.65.19.97.31-.25,9.66-6.42,18.54-15.47,22.09Z"/>
                <path class="cls-13" d="M285.2,271.81c-2.6,5.38-9.72,5.33-18.27,3.59-10.27-2.08-19.46-6.47-28.81-11.63.38-.8.82-1.55,1.32-2.31,16.08,1.72,31.12,5.4,45.75,10.35Z"/>
              </g>
            </g>
          </g>
          <g>
            <path class="cls-50" d="M349.66,249.63c-1.43,2.27-3.19,4.3-5.25,5.96,6.97,10.52-3.42,26.41-14.13,28.55,2.88-24.52.61-53.98-7.77-78.08-8.92,3.72-21.46-1.78-26.29-10.83-12.83,7.87-27.46,2.81-35-6.76-9.91,9.34-23.54,7.12-31.03-3.04-20.14,22.07-33.3,45.96-44.15,73.82-9.45-11.95-9.99-28.01,1.72-37.63-12.43-13.75,1.05-38.17,19.53-36.7-1.36-9.39,3.88-17.64,11.4-22.23,8.04-4.87,18.69-5.58,26.73.88,10.14-18.35,37.04-12.77,46.17,3.99,13.92-6.59,35.46-.55,35.9,18.37,17.95-3.8,26.08,21.4,18.31,35.55,9.51,5.54,9.7,18.77,3.86,28.16Z"/>
            <path class="cls-54" d="M349.66,249.63c.61-3.76.9-7.56.4-11.34-.86-6.28-4.37-12.56-10.23-14.93,1.91-4.47,3.51-8.17,4.01-12.07.5-3.93-.19-8.17-2.77-11.17-3.65-4.28-9.95-4.96-15.58-4.85-.31-7.87-4.85-14.68-11.3-17.95-6.45-3.28-14.63-2.83-20.72,1.05-5.14-8.78-13.33-14.15-22.13-15.24-8.82-1.07-18.04,2.23-24.19,8.61-7.98-6.91-18.52-10.06-28.43-9.03,8.04-4.87,18.69-5.58,26.73.88,10.14-18.35,37.04-12.77,46.17,3.99,13.92-6.59,35.46-.55,35.9,18.37,17.95-3.8,26.08,21.4,18.31,35.55,9.47,5.52,9.66,18.75,3.82,28.13Z"/>
          </g>
        </g>
        <g>
          <g>
            <path class="cls-23" d="M167.69,263.35l-22.45,46.42c-4.87-5.3-9.74-11.51-14.46-18.26-27.69-39.57-51.04-97.48-51.04-97.48l29.52-21.91c18.53,36.2,46.65,75.29,55.59,87.43,1.82,2.45,2.84,3.79,2.84,3.79Z"/>
            <path class="cls-48" d="M167.69,263.35l-22.45,46.42c-4.87-5.3-9.74-11.51-14.46-18.26l34.06-31.97c1.82,2.47,2.84,3.81,2.84,3.81Z"/>
          </g>
          <polygon class="cls-28" points="123.71 196.45 118.3 186.09 84.08 206.97 89.04 215.43 123.71 196.45"/>
          <path class="cls-28" d="M209.73,299.45s-48.95-41.79-83.35-105.61c-9.57-2.75-39.11,13.18-40.41,23.7,16.41,81.18,95.67,148.97,95.67,148.97,9.28-12.09,33.49-49.22,28.09-67.05Z"/>
          <polygon class="cls-55" points="130.21 200.91 89 228.46 91.82 239.06 133.26 206.01 130.21 200.91"/>
          <polygon class="cls-55" points="143.93 222.98 99.67 258.8 102.9 265.6 147.49 228.22 143.93 222.98"/>
          <g>
            <path class="cls-23" d="M111.26,170.77c5-6.45,8.05-9.99,6.73-16.52s-9.16-8.52-12.77-6.82c-2.78-5.7-5.87-11.71-11.41-14.78s-12.27-2.05-13.84,4.08c-7.31-2.83-12.37,3.92-11.59,8.31-4.62.3-10.22,2.83-10.44,13.71-4.16,2.49-5.37,8.84-3.4,13.27,4.73,10.63,14.55,20.89,26.06,22.45,11.34-6.18,22.65-13.44,30.64-23.71Z"/>
            <g>
              <path class="cls-53" d="M255.62,151.53c3.53-5.31,5.04-10.78,4.78-15.87-.49-9.59-7.23-17.9-18.49-21.48,1.52-.93,3.06-1.82,4.63-2.67.17-.09.21-.25.18-.39,3.61-1.8,7.37-3.3,11.31-4.41C229.34,48.93,172.09,9.66,164.07,4.87c-1.05,2.84-2.31,5.57-3.74,8.19-.15-.1-.37-.11-.49.1-1.44,2.34-2.98,4.58-4.61,6.76-2.86-11.65-10.95-18.96-20.79-19.83-4.8-.42-10.02.69-15.25,3.59-14.12,7.83-24.43,22.59-26.22,38.56-.17,1.49-.27,2.98-.28,4.49-.13,12.58,5.51,25.12,14.74,33.53-2.61,6.71-3.96,13.78-3.03,20.8.03.25.24.37.46.36,0,3.16.25,6.32.73,9.44.5,3.2,1.26,6.3,2.27,9.29-1.19.54-2.26,1.32-3.19,2.26-2.6,2.66-4.04,6.65-3.86,10.44.12,2.44.76,4.97,1.82,7.46-4.31,4.31-8.84,8.46-13.6,12.23-5.9,4.68-24.32,20.01-30.99,23.18-4.75-3.95-9.87-7.4-15.57-9.84-9.05-3.87-19.01-5.66-28.84-4.94-1.42.1-2.9.29-4.16.88-2.68.73-7.31,2.76-8.94,8.33-.14.47-.25.96-.35,1.47-.11.46-.18.95-.19,1.44-.04,1.17.16,2.4.51,3.63.34,1.22.82,2.41,1.33,3.5,7.35,15.5,17.19,29.8,28.98,42.26,11.48,12.75,24.94,23.71,39.8,32.28,1.84,1.06,4.04,2.04,6.13,2.33,1.53.41,2.97.27,4.28-.2,5.25-1.88,8.44-9.23,8.44-9.23.49-1.08.74-2.31.92-3.5,1.49-9.64.54-19.61-2.52-28.86-1.98-5.99-4.96-11.58-8.54-16.77,5.99-10.3,26.48-30.57,35.6-38.67,1.05-.93,2.11-1.85,3.17-2.76,2.39,1.25,4.86,2.1,7.29,2.42,3.79.48,7.9-.65,10.76-3.07.99-.83,1.83-1.81,2.45-2.94,2.9,1.24,5.93,2.25,9.08,3,4.21,1.01,8.52,1.57,12.85,1.67.01.16.11.31.33.35,5.67,1.18,11.64.43,17.47-1.4,7.65,9.88,19.69,16.51,32.24,17.39,2.65.19,5.29.13,7.91-.15h.01c14.82-1.58,28.81-10.32,37.11-22.81ZM114.69,61.24c-.72-1-1.36-2.07-1.9-3.17-2.61-5.36-3.16-11.58-2.23-17.47,1.33-8.49,6.18-17.62,14.72-20.62,6.83-2.4,13.45.15,15.93,6.78.18.48.34.99.47,1.52.5,1.96.82,4.07.96,6.25-7.45,7.82-15.29,15.32-22.05,23.79-1.34,1.68-2.67,3.44-3.97,5.28-.69-.74-1.34-1.53-1.92-2.36ZM123.98,55.94c3.43-3.99,7.08-7.79,10.76-11.56-5.72,5.93-11.37,11.91-16.19,18.39,1.71-2.35,3.53-4.63,5.43-6.83ZM218.13,157.17c-5.95.45-12.1-.59-17.23-3.63-1.37-.81-2.66-1.77-3.82-2.86-.58-.54-1.14-1.11-1.66-1.71,2.55-1.58,4.96-3.21,7.17-4.78,8.12-5.8,15.63-12.39,23.41-18.61,2.44.31,4.79.83,6.93,1.56.09.03.18.06.26.1,7.37,2.66,9.82,9.89,6.7,16.9-3.67,8.28-13.16,12.37-21.73,13.02Z"/>
              <path class="cls-32" d="M88.28,249.38c.52-.5.9-1.1,1.2-1.76.49-1.08.74-2.31.92-3.5,1.49-9.64.54-19.61-2.52-28.86-1.98-5.99-4.96-11.58-8.54-16.77-1.41,2.43-2.7,4.93-3.83,7.5-.71,1.61-1.36,3.25-1.94,4.92-.77,2.18-3.23,3.25-5.35,2.35-13.41-5.65-22.36-19.72-25.47-27.49-.9-2.24.33-4.8,2.67-5.4,1.57-.41,3.13-.89,4.66-1.41,2.72-.93,5.37-2.02,7.97-3.25-4.75-3.95-9.87-7.4-15.57-9.84-9.05-3.87-19.01-5.66-28.84-4.94-1.42.1-2.9.29-4.16.88-.45.21-.87.48-1.25.81-3.04,2.66-1.68,7.6.05,11.26,1.08,2.28,2.21,4.53,3.4,6.76-.22.04-.4.26-.26.52,4.14,7.88,9.41,15.42,14.95,22.37.07.08.14.13.22.14,3.35,4.33,6.91,8.49,10.67,12.47,2.81,3.12,5.74,6.13,8.77,9.03-.26.15-.4.5-.13.79,10.11,10.43,22.9,20.3,36.68,25.24.33.12.61-.14.68-.43,1.87.24,3.65-.07,5.01-1.39Z"/>
              <path class="cls-32" d="M100.82,132.85c.12,2.44.76,4.97,1.82,7.46,2.9,6.83,8.89,13.32,15.47,16.77,2.39,1.25,4.86,2.1,7.29,2.42,3.79.48,7.9-.65,10.76-3.07.99-.83,1.83-1.81,2.45-2.94-14.59-6.24-25.71-18.34-30.75-33.33-1.19.54-2.26,1.32-3.19,2.26-2.6,2.66-4.04,6.65-3.86,10.44Z"/>
              <path class="cls-4" d="M107.44,80.26c-2.61,6.71-3.96,13.78-3.03,20.8.03.25.24.37.46.36.23,0,.47-.17.47-.44.15-8.36,1.35-16.06,4.77-23.77,2.26-5.11,5.16-9.91,8.45-14.43,1.71-2.35,3.53-4.63,5.43-6.83,3.43-3.99,7.08-7.79,10.76-11.56,9.39-9.62,19-19.04,25.7-30.85.11-.19.03-.37-.11-.47-.15-.1-.37-.11-.49.1-1.44,2.34-2.98,4.58-4.61,6.76-2.86-11.65-10.95-18.96-20.79-19.83,2.51.8,4.89,1.98,6.94,3.63,4.2,3.39,6.82,9.06,5.56,14.3-.66,2.74-2.3,5.16-4.22,7.24-.49.52-.99,1.03-1.52,1.51.18.48.34.99.47,1.52.5,1.96.82,4.07.96,6.25-7.45,7.82-15.29,15.32-22.05,23.79-1.34,1.68-2.67,3.44-3.97,5.28-.69-.74-1.34-1.53-1.92-2.36-2.16.86-4.68.97-6.94.34-3.89-1.09-7.04-3.99-9.42-7.26-2.6-3.59-4.43-7.73-5.36-12.07-.17,1.49-.27,2.98-.28,4.49-.13,12.58,5.51,25.12,14.74,33.53Z"/>
              <path class="cls-4" d="M202.71,168.5c-3.22-2.3-6.03-5.41-7.05-9.23-.78-2.89-.3-6.2,1.41-8.59-.58-.54-1.14-1.11-1.66-1.71,2.55-1.58,4.96-3.21,7.17-4.78,8.12-5.8,15.63-12.39,23.41-18.61,2.44.31,4.79.83,6.93,1.56.09.03.18.06.26.1,4.71-1.54,9.86-1.72,14.61-.33,5,1.46,9.44,4.62,12.62,8.74-.49-9.59-7.23-17.9-18.49-21.48,1.52-.93,3.06-1.82,4.63-2.67.17-.09.21-.25.18-.39-.05-.21-.26-.38-.51-.25-14.62,7.67-26.52,18.65-39.42,28.77-6.66,5.22-13.77,9.89-21.54,13.27-8.06,3.51-15.53,4.55-24.22,4.69-.31,0-.51.31-.48.57.01.16.11.31.33.35,5.67,1.18,11.64.43,17.47-1.4,7.65,9.88,19.69,16.51,32.24,17.39,2.65.19,5.29.13,7.91-.15-5.67-.69-11.18-2.53-15.79-5.84Z"/>
              <path class="cls-4" d="M114.94,159.83c1.05-.93,2.11-1.85,3.17-2.76-6.58-3.45-12.57-9.94-15.47-16.77-4.31,4.31-8.84,8.46-13.6,12.23,8.9.88,17.71,3.48,25.9,7.29Z"/>
              <path class="cls-4" d="M147.96,77.29c-5.08,2.98-9.73,6.71-13.75,11.02-3.48,3.73-5.17,8.51-.74,12.27,4.91,4.16,10.79,6.9,16.81,9.27,1.27,5.76,3.37,11.33,6.23,16.49,1.21,2.17,2.77,4.01,4.63,4.99,1.97,1.03,4.26,1.08,6.81-.49,5.47-3.39,9.9-8.14,14.02-13.13,3.25.32,6.52.37,9.78.17,2.62-.17,5.24-.5,7.82-1,5.02-.98,9.19-3.85,7.81-9.49-.57-2.35-1.38-4.61-2.34-6.82-1.6-3.66-3.64-7.15-5.81-10.56,2.36-5.4,3.93-11.15,4.64-17,.62-5.07-.82-9.93-6.61-10.36-6.42-.47-12.79.76-19.05,2.38-4.41-3.91-9.39-7.19-14.73-9.67-.35-.16-.71-.31-1.06-.45-4.33-1.69-8.81-1.43-10.84,3.54-2.43,5.96-3.22,12.4-3.62,18.86Z"/>
              <path class="cls-4" d="M.54,170.16c-.14.47-.25.96-.35,1.47-.11.46-.18.95-.19,1.44-.04,1.17.16,2.4.51,3.63.34,1.22.82,2.41,1.33,3.5,7.35,15.5,17.19,29.8,28.98,42.26,11.48,12.75,24.94,23.71,39.8,32.28,1.84,1.06,4.04,2.04,6.13,2.33,1.53.41,2.97.27,4.28-.2-17.01-8.13-32.37-19.74-45.32-33.48-14.65-15.54-26.28-33.77-35.17-53.22Z"/>
              <path class="cls-1" d="M204.12,106.41c-.53-2.16-1.26-4.23-2.15-6.26-1.47-3.36-3.34-6.56-5.33-9.69,2.16-4.96,3.6-10.23,4.26-15.6.57-4.65-.75-9.11-6.06-9.5-5.89-.44-11.73.7-17.48,2.19-4.05-3.59-8.61-6.59-13.51-8.87-.32-.15-.65-.29-.97-.42-3.97-1.55-8.08-1.31-9.94,3.25-2.23,5.47-2.96,11.38-3.32,17.3-4.66,2.74-8.93,6.16-12.62,10.11-3.19,3.43-4.74,7.81-.68,11.25,4.51,3.81,9.9,6.33,15.43,8.5,1.16,5.28,3.09,10.4,5.72,15.13,1.11,1.99,2.54,3.68,4.25,4.58,1.81.94,3.91.99,6.24-.45,5.02-3.11,9.08-7.47,12.86-12.04,2.98.29,5.98.34,8.97.16,2.41-.15,4.81-.46,7.18-.92,4.6-.9,8.43-3.53,7.17-8.71Z"/>
              <path class="cls-35" d="M39.88,178.25c-4.09,3.77.63,15.55,10.55,26.3,9.92,10.75,21.27,16.4,25.36,12.63,2.14-1.97,1.87-6.12-.29-11.17-.71,1.61-1.36,3.25-1.94,4.92-.77,2.18-3.23,3.25-5.35,2.35-13.41-5.65-22.36-19.72-25.47-27.49-.9-2.24.33-4.8,2.67-5.4,1.57-.41,3.13-.89,4.66-1.41-4.46-2.16-8.19-2.56-10.19-.72Z"/>
              <path class="cls-35" d="M107.87,120.15c-1.19.54-2.26,1.32-3.19,2.26,1.99,8.41,6.32,16.27,12.43,22.4,5.3,5.32,11.9,9.31,19.05,11.61.99-.83,1.83-1.81,2.45-2.94-14.59-6.24-25.71-18.34-30.75-33.33Z"/>
              <path class="cls-56" d="M178.13,74.94c1.3,1.41,3.5,1.5,4.91.2.03-.03.06-.05.09-.08.25.74.68,1.43,1.23,1.99,2.97,2.98,8.75,2.62,11.57-.39,2.6-2.78,1.5-6.46-1.65-8.21-.99-.55-2.13-.84-3.29-.89-2.78-.12-5.72,1.13-7.23,3.41-.14-.26-.31-.5-.52-.73-1.3-1.41-3.5-1.5-4.91-.2s-1.5,3.5-.2,4.91Z"/>
              <path class="cls-56" d="M160.64,121.49c.55.6,1.3.91,2.05.92,0,.88.38,1.68,1.4,2.08,2.86,1.12,6.26-.52,8.43-2.36,1.89-1.61,5.31-6.4,1.86-8.27-2.86-1.55-6.88,1.45-9.3,4.09-.07-.11-.16-.21-.25-.31-1.07-1.16-2.87-1.23-4.03-.16s-1.23,2.87-.16,4.03Z"/>
              <path class="cls-40" d="M161.71,128.37c-1.97-3.82-3.77-7.73-5.3-11.74-4.05-10.62-6.22-22.14-4.75-33.41,1.2-9.18,4.99-18.18,11.22-24.97-3.97-1.55-8.08-1.31-9.94,3.25-2.23,5.47-2.96,11.38-3.32,17.3-4.66,2.74-8.93,6.16-12.62,10.11-3.19,3.43-4.74,7.81-.68,11.25,4.51,3.81,9.9,6.33,15.43,8.5,1.16,5.28,3.09,10.4,5.72,15.13,1.11,1.99,2.54,3.68,4.25,4.58Z"/>
              <path class="cls-40" d="M196.95,115.11c4.6-.9,8.43-3.53,7.17-8.71-.53-2.16-1.26-4.23-2.15-6.26-3.38,5.78-7.48,11.13-12.2,15.88,2.41-.15,4.81-.46,7.18-.92Z"/>
              <path class="cls-44" d="M105.33,100.98c.15-8.36,1.35-16.06,4.77-23.77,2.26-5.11,5.16-9.91,8.45-14.43,1.71-2.35,3.53-4.63,5.43-6.83,3.43-3.99,7.08-7.79,10.76-11.56,9.39-9.62,19-19.04,25.7-30.85.11-.19.03-.37-.11-.47-.15-.1-.37-.11-.49.1-1.44,2.34-2.98,4.58-4.61,6.76-3.86,5.17-8.16,9.95-12.6,14.61-7.45,7.82-15.29,15.32-22.05,23.79-1.34,1.68-2.67,3.44-3.97,5.28-3.59,5.09-6.88,10.73-9.18,16.66-2.61,6.71-3.96,13.78-3.03,20.8.03.25.24.37.46.36.23,0,.47-.17.47-.44Z"/>
              <path class="cls-44" d="M246.22,110.86c-14.62,7.67-26.52,18.65-39.42,28.77-6.66,5.22-13.77,9.89-21.54,13.27-8.06,3.51-15.53,4.55-24.22,4.69-.31,0-.51.31-.48.57.01.16.11.31.33.35,5.67,1.18,11.64.43,17.47-1.4,5.99-1.88,11.84-4.9,17.07-8.13,2.55-1.58,4.96-3.21,7.17-4.78,8.12-5.8,15.63-12.39,23.41-18.61,5.11-4.08,10.33-7.99,15.93-11.42,1.52-.93,3.06-1.82,4.63-2.67.17-.09.21-.25.18-.39-.05-.21-.26-.38-.51-.25Z"/>
              <path class="cls-44" d="M45.91,225.97c10.11,10.43,22.9,20.3,36.68,25.24.33.12.61-.14.68-.43.05-.21,0-.43-.24-.54-13.6-6.46-25.36-14.67-36.34-24.98-.21-.19-.46-.18-.65-.07-.26.15-.4.5-.13.79Z"/>
              <path class="cls-44" d="M11.42,181.17c4.14,7.88,9.41,15.42,14.95,22.37.07.08.14.13.22.14.3.05.62-.36.38-.69-5.24-7.24-10.01-14.69-14.88-22.17-.1-.16-.26-.2-.41-.18-.22.04-.4.26-.26.52Z"/>
              <path class="cls-14" d="M179.01,148.97c2.67-1.37,5.42-3.52,5.98-6.35,2.26,1.51,5.35,1.34,7.44-.58,2.45-2.26,2.6-6.07.34-8.52s-6.07-2.6-8.52-.34c-1.14,1.05-1.78,2.44-1.91,3.87-1.59-.81-3.61-.95-5.38-.45-7.92,2.24-15.62,3.76-23.87,2.29-3.09-.55-6.3-1.48-9.29-.53-1.39.44-2.7,1.33-3.29,2.66-.74,1.64-.23,3.63.86,5.06,1.09,1.42,2.69,2.37,4.3,3.17,10.34,5.11,23.09,5.01,33.34-.27Z"/>
              <path class="cls-14" d="M132.97,5.19c-1.44-.83-3.21-.79-4.85-.57-4.82.65-9.4,2.7-13.16,5.78-2.52,2.07-5.65,5.27-7.26,8.64-.47.99-.81,1.99-.97,2.98-.02.12-.03.24-.04.36-.9-.11-1.85.16-2.57.83-1.3,1.2-1.39,3.24-.18,4.54s3.24,1.39,4.54.18c.96-.88,1.26-2.21.87-3.37.48-.14.97-.39,1.42-.72,3.39-2.49,6.17-5.69,9.48-8.28,3.39-2.64,6.98-3.86,11-5.26,2.25-.79,4.81-3.32,1.71-5.11Z"/>
              <path class="cls-14" d="M244.51,150.6c-.16.04-.31.09-.48.15-2.19.76-3.82,2.61-5.71,3.87-2.66,1.77-5.47,3.02-8.33,4.13-3.85,1.5-7.78,2.75-11.54,4.67-1.69.86-3.5,2.43-3.06,4.27.41,1.69,2.46,2.36,4.19,2.48,9.9.69,23.59-5.98,28.17-15.03.19-.37.32-.73.42-1.07,1.07.08,2.17-.27,3.02-1.05,1.63-1.5,1.73-4.04.23-5.67s-4.04-1.73-5.67-.23c-1,.92-1.42,2.22-1.26,3.47Z"/>
              <path class="cls-14" d="M177.48,39.67c3.28-4.91,5.03-12.29-.1-16.64-2.95-2.5-6.81-2.24-10.34-1.38-5.58,1.36-11.87,4.94-15.89,9.84-2.14,2.61-3.96,6.31-4.11,9.9-1.91-.62-4.1-.22-5.68,1.24-2.34,2.16-2.48,5.8-.33,8.13,2.16,2.34,5.8,2.48,8.13.33.61-.56,1.07-1.23,1.38-1.95,2.92,2.14,7.12,2.32,10.74,1.47,6.35-1.49,12.51-5.43,16.2-10.95Z"/>
              <path class="cls-14" d="M75.51,185.12c-5.09,1.53-9.53,7.56-11.59,12.11-1.07,2.36-1.74,5.19-.53,7.48,1.51,2.85,4.94,2.91,7.07.76,1.81-1.83,2.63-4.42,3.92-6.6,1.37-2.3,3.2-4.26,4.98-6.23,1.32-1.46,1.57-3.68.91-5.36.52-.17,1-.45,1.43-.84,1.57-1.45,1.67-3.91.22-5.48s-3.91-1.67-5.48-.22c-1.24,1.15-1.57,2.92-.93,4.39Z"/>
            </g>
            <path class="cls-23" d="M109.52,166.89c5-6.45,9.79-6.11,8.47-12.64s-9.16-8.52-12.77-6.82c-2.78-5.7-5.87-11.71-11.41-14.78s-12.27-2.05-13.84,4.08c-7.31-2.83,21.55,40.42,29.54,30.15Z"/>
            <path class="cls-22" d="M79.59,136.9s3.61,1.12,6.51,5.64c4.51,6.99,9.18,18,4.75,21.97-7.43,6.68-20.53-15.41-20.53-15.41"/>
            <path class="cls-22" d="M104.52,148.37s-20.71,13.6-16.07,20.31c4.62,6.7,18.66-1.11,18.66-1.11"/>
            <path class="cls-22" d="M71.03,145.59s3.61,1.12,6.51,5.64c4.51,6.99,9.18,18,4.75,21.97-7.43,6.68-19.31-12.84-19.31-12.84"/>
            <path class="cls-22" d="M58.59,160.22s3.6-3.2,9.12,1.56c3.41,2.94,12.52,14.53,8.22,18.31-5.53,4.86-15.74-6.92-15.74-6.92"/>
          </g>
        </g>
        <g>
          <path class="cls-2" d="M238.78,337.8c-.58-3.91-4.55-7.2-7.68-8.58-2.41-1.06-8.44-2.84-10.56.28-6.05,8.93-9.34,13.49-11.33,20.06-2.07,6.8-6.86,38.16-5.59,42.49,1.32,4.49,6.7,6.25,10.36,7.43,3.25,1.05,9.22,4.09,12.52,3.35,3-.67,3.53-7.22,4.37-9.82,7.59-23.44-1.87-13.2,5.64-36.67,1.91-5.96,3.2-12.2,2.27-18.54Z"/>
          <path class="cls-49" d="M238.78,337.8c-.58-3.91-4.55-7.2-7.68-8.58-2.41-1.06-8.74-3.06-10.56.28-1.11,2.04-2.2,4.08-3.29,6.13-.3.56,2.12,2.88,2.5,3.15,5.94,4.36,6.47,10.46,3.51,20.97-2.68,9.54-5.38,33.28.11,42.95,1.16.24,2.25.32,3.13.12,3-.67,3.53-7.22,4.37-9.82,7.59-23.44-1.87-13.2,5.64-36.67,1.91-5.96,3.2-12.2,2.27-18.54Z"/>
          <g>
            <path class="cls-5" d="M304.12,338.91c.07-2.27-.05-4.64-.09-7.14,0-.21.02-.43.03-.65.81-1.14,1.52-2.33,2.07-3.56.81-1.84,2.28-5.78,1.82-7.88-.35-1.58-1.57-5.68-3.16-6.25-2.03-.72-2.65.36-4.49,1.56-3.66,2.41-8.08,3.83-12.28,4.45-4.48.66-9.49.87-14.33.64-5.38-.93-10.68-2.45-15.93-3.99-6.11-1.79-12.25-4.32-18.24-6.58-2.68-1.01-5.43-1.79-8.13-2.72-3.95-1.36-6.18-4.67-9.67-6.66-2.52-1.44-4.86-2.61-7.66-3.23-3.31-.74-6.71-.91-9.68-2.88-3.02-2.01-5.35-4.94-7.03-8.31-.95-1.91-1.95-3.67-3.46-5.12-2.41-2.31-7.16,2.71-8.41,4.47-.92,1.3-1.58,2.71-2.04,4.19-1.82.87-3.45,2.05-4.6,3.97-2.35,3.95-2.55,9.93-.76,14.12,2.03,4.75,5.98,8.17,9.96,10.87,2.51,1.7,5.15,3.12,7.73,4.67,10.45,6.27,21.64,11.11,33.13,14.5,2.99.88,6,1.67,9.03,2.32,5.59,1.21,11.29,2.09,16.76,3.86,10.3,3.34,19.63,10.2,30.36,11.92,5.18.84,11.36-.31,15.04-4.7,3.12-3.73,3.9-7.63,4.03-11.88Z"/>
            <g>
              <path class="cls-49" d="M187.32,283.71c-2.23,1.99-3.61,4.92-3.8,7.93.02.31.06.61.1.91.36,2.65,2.05,5.21,3.46,7.34.27.4.54.78.82,1.16,1.01.95,2.11,1.85,3.27,2.63-2.64-2.58-4.36-5.84-5.94-9.39-1.77-3.99-.18-7.57,2.08-10.57Z"/>
              <path class="cls-49" d="M304.53,329.08c-.67.91-1.35,1.78-1.93,2.63-1.61,2.36-3.52,4.53-5.52,6.49-1.91,1.87-4.13,3.27-6.24,4.84-1.19.89-2.46,1.69-3.77,2.39,7.48-2.46,13.73-8.85,17.46-16.35Z"/>
            </g>
          </g>
          <g>
            <path class="cls-42" d="M260.26,398.18c.12-1.85-.21-3.77-.44-5.75-.48-4.07-.34-7.47-1.84-11.24-1.02-2.57,4.1-26.6,5.51-29.3,1.47-2.82,2.97-2.6,4.22-5.55,1.87-4.41,3.34-9.04,4.18-13.82,1.39-7.93-1.92-18.05-8.06-22.8-1.81-1.4-3.88-2.43-6.07-2.83-2.04-.39-4.11-.25-6.17-.32-1.06-.04-3.46.11-4.11-1.05-2-3.58-6.12-6.14-9.98-5.03-1.54.44-2.95,1.32-4.21,2.35-3.62,2.96-6.77,1.12-5.71,1.91,1.79,1.33,3.85,2.03,4.4,2.24,1.69.65,3.55,1.2,5.12,2.15,2.78,1.7.17,7.55-.45,9.75-1.93,6.85-3.86,13.7-5.82,20.54-2,6.97-4.75,35.14-4.97,41.27-.15,4.18,3.98,14.83,5.36,18.83,3.75,10.84,21.67,11.66,27.61,2.94.94-1.38,1.32-2.81,1.42-4.29Z"/>
            <path class="cls-49" d="M257.19,319.21c-3.55-2.82-5.73-6.25-7.72-10.47-1.42-3.01-2.74-5.49-5.54-7.18-.09-.06-.15.09-.09.16,1.32,1.42,2.79,2.84,3.66,4.65.88,1.83,1.57,3.77,2.57,5.53,1.85,3.23,3.89,5.65,7.01,7.5.1.06.19-.11.1-.18Z"/>
          </g>
        </g>
      </g>
    </g>
  </g>
</svg>