<?xml version="1.0" encoding="UTF-8"?>
<svg id="Layer_1" data-name="Layer 1" xmlns="http://www.w3.org/2000/svg" viewBox="0 0 211.13 204.99">
  <defs>
    <style>
      .cls-1 {
        fill: #4f5457;
      }

      .cls-2 {
        fill: #1689bf;
      }

      .cls-3 {
        fill: #1589bf;
      }

      .cls-4 {
        fill: #19689a;
      }

      .cls-5 {
        fill: #18689c;
      }

      .cls-6 {
        fill: #085782;
      }
    </style>
  </defs>
  <path class="cls-1" d="M22.78,53.08l.7,6.4c8.33,8.36,17.45,16.02,25.88,24.27,3.69,3.61,13.36,12.13,15.66,15.77,2.79,4.41-.48,12.44-4.49,9.74L11.99,62c-5.74-8.05-1.76-13.85,2.44-21.16C6.32,33.09-5.31,26.04,2.69,13.16,4.15,10.81,13.48,1.72,15.87.89c3.42-1.19,7.17-1.3,10.43.4,6.8,3.56,10.34,12.67,18.91,13.28,15.62,17.62,38.04,33.35,53.19,50.86,2.27,2.62,1.64,5.46,3.31,7.92l75.66,73.3c12.83,15.04,20.44,29.24,27.72,47.13,1.16,2.86,6.81,6.35,5.97,10.52-1.86,2.85-8.56-3.83-10.33-4.66-6.21-2.88-13.52-5.18-19.93-8.51-41.58-21.57-70.62-62.56-105.92-92.32l-3.04.7L22.78,53.08ZM16.69,38.76l21.79-23.47C30.69,8.2,24.34-3.68,12.69,5.2,6.64,9.81-.61,19.33,3.41,27.16c.45.88,9.69,10.3,10.72,10.99.76.51,1.65,1.13,2.56.61ZM41.28,15.76c-4.14,1.16-19.21,21.77-24.54,24.94-1.7,2.11.48,4.22,1.89,5.67,8.29,8.51,17.68,16.39,26.25,24.65,7.07,6.81,14,15.02,21.3,21.36,1.37,1.19,5.68,5.11,6.97,4.77,1.75-.46,24.57-24.18,25.09-25.91.27-.9.3-1.77,0-2.67L43.72,16.03c-.78-.5-1.58-.51-2.44-.26ZM63.19,107.72c.65-2.52,1.57-5.47.05-7.9L22.03,60.94c-3.22-2.68-.23-7.23-.85-9.56-.42-1.58-5.11-4.85-6.26-6.52-3.99,3.9-5.26,10-2.22,14.93,16.01,14.32,31.46,33.75,48.24,46.82.75.58.96,1.44,2.24,1.11ZM98.85,74.09l-22.13,23.42,61.59,58.81,22.13-23.42-61.59-58.81ZM161.77,135.5l-22.22,22.75c12.73,13.09,27.04,23.98,43.66,31.7.81-.16,11.23-10.57,11.76-11.46.68-1.15.85-1.28.4-2.66-.91-2.79-6.79-10.76-8.82-13.69-2.77-4-6.49-9.2-9.61-12.84-2.39-2.78-10.44-11.42-13.04-13.17-.76-.51-1.09-.9-2.13-.62ZM196.11,179.6l-10.14,10.83c5.09,5.09,19.1,12.1,16.28-1.33-.32-1.54-4.62-9.84-6.14-9.5Z"/>
  <path class="cls-5" d="M41.28,15.76c.87-.24,1.66-.23,2.44.26l54.53,52.56c.3.89.26,1.77,0,2.67-.52,1.73-23.34,25.45-25.09,25.91-1.29.34-5.6-3.59-6.97-4.77-7.3-6.35-14.23-14.55-21.3-21.36-8.57-8.26-17.96-16.14-26.25-24.65-1.41-1.45-3.59-3.57-1.89-5.67,5.33-3.17,20.41-23.79,24.54-24.94Z"/>
  <polygon class="cls-3" points="98.85 74.09 160.45 132.9 138.32 156.32 76.72 97.52 98.85 74.09"/>
  <path class="cls-3" d="M161.77,135.5c1.04-.27,1.37.12,2.13.62,2.6,1.75,10.65,10.39,13.04,13.17,3.13,3.64,6.85,8.84,9.61,12.84,2.03,2.94,7.91,10.91,8.82,13.69.45,1.38.28,1.52-.4,2.66-.53.89-10.96,11.31-11.76,11.46-16.63-7.72-30.93-18.61-43.66-31.7l22.22-22.75Z"/>
  <path class="cls-2" d="M16.69,38.76c-.92.52-1.8-.1-2.56-.61-1.03-.68-10.27-10.1-10.72-10.99C-.61,19.33,6.64,9.81,12.69,5.2c11.65-8.88,18,3,25.79,10.09l-21.79,23.47Z"/>
  <path class="cls-4" d="M63.19,107.72c-1.29.33-1.5-.53-2.24-1.11-16.78-13.06-32.23-32.49-48.24-46.82-3.05-4.93-1.78-11.03,2.22-14.93,1.14,1.67,5.84,4.93,6.26,6.52.62,2.34-2.37,6.88.85,9.56l41.21,38.88c1.52,2.43.6,5.38-.05,7.9Z"/>
  <path class="cls-6" d="M196.11,179.6c1.52-.34,5.81,7.96,6.14,9.5,2.82,13.43-11.19,6.42-16.28,1.33l10.14-10.83Z"/>
</svg>