<?xml version="1.0" encoding="UTF-8"?>
<svg id="Layer_1" data-name="Layer 1" xmlns="http://www.w3.org/2000/svg" viewBox="0 0 231.39 216.77">
  <defs>
    <style>
      .cls-1 {
        fill: #0d9bd5;
      }

      .cls-2 {
        fill: #e8e3da;
      }

      .cls-3 {
        fill: #2fa6dc;
      }

      .cls-4 {
        fill: #83cdd9;
      }

      .cls-5 {
        fill: #30a6dc;
      }

      .cls-6 {
        fill: #96e5f0;
      }

      .cls-7 {
        fill: #fef8ec;
      }

      .cls-8 {
        fill: #fde1ce;
      }

      .cls-9 {
        fill: #ebfafc;
      }

      .cls-10 {
        fill: #37aee5;
      }

      .cls-11 {
        fill: #79c5cf;
      }

      .cls-12 {
        fill: #f2ece1;
      }

      .cls-13 {
        fill: #fcd9c1;
      }

      .cls-14 {
        fill: #2ea6dc;
      }

      .cls-15 {
        fill: #e0dbcf;
      }

      .cls-16 {
        fill: #37aee6;
      }

      .cls-17 {
        fill: #3aafe6;
      }

      .cls-18 {
        fill: #3cafe6;
      }

      .cls-19 {
        fill: #88d1dc;
      }

      .cls-20 {
        fill: #4abdf5;
      }
    </style>
  </defs>
  <path class="cls-17" d="M211.69,4.77l-38.93,32.55c-42.81,39.91-92.05,77.58-131.37,120.88-.84.93-1.87,1.53-1.86,3.01-2.94-3.34-8.15-3.69-11.23-6.74,3.78-6.29,4.56-8.86,10.09-14.98,29.62-32.8,66.31-64.18,99.2-93.92,13.58-12.28,27.12-26.54,41.55-37.79,7.78-6.07,12.48-8.97,23-7.33,3.97.62,6.53,2.65,9.54,4.31ZM122.61,66.9c-1.26-1.26-10.87,7.03-12.33,8.25-20.41,17.05-43.82,39.09-62.16,58.35-2.03,2.13-8.28,8.75-9.36,10.84-.62,1.2-1,1.95-.73,3.38,1.27,1.35,10.63-7.37,11.98-8.59,21.17-19.25,43.51-40.91,64.01-60.99,1.4-1.37,10.36-9.47,8.58-11.24Z"/>
  <path class="cls-6" d="M227.41,141l-60.63,29.94c-.05-.44.21-.95-.13-1.37-.32-.34-1.27-.02-1.37-.13-5.72-6.08-11.31-12.44-16.85-18.7-1.8-2.03-5.34-8.24-7.85-8.24-2.19-2.25,1.92-3.4,3.58-4.28,17.62-9.28,37.18-16.44,55.26-24.9,5.96,1.18,8.59,7.73,12.25,11.61s7.49,7.52,11.21,11.24c1.73,1.72,4.05,1.81,4.52,4.83ZM224.41,139.5l-23.22,11.61c-.82-.21-2.35,1.15-1.47,1.86.99.8,19.93-10.18,22.97-11.08l1.72-2.39ZM198.96,152.97c-.9-.74-18.77,8.82-20.97,10.11-.43.25-2.89.71-1.47,1.86.9.73,18.2-9.21,20.97-10.11.82.21,2.35-1.13,1.47-1.86ZM175.76,164.95c-1.9-.11-3.7.95-5.25,1.88-.95.57-1.9-.15-1.48,1.85,1.9.11,3.7-.95,5.25-1.88.95-.57,1.9.15,1.48-1.85Z"/>
  <path class="cls-14" d="M61.24,191.89c-2.23-.17-2.47-1.22-2.99-2.99-.12-.41.12-1.07,0-1.5,3.21-.32,6.55-2.84,9.22-4.63,11.33-7.61,23.84-18.74,34.55-27.57,28.37-23.4,57.49-48.49,84.24-73.7,10.49-9.88,28.65-25.72,36.64-36.71,4.45-6.12,3.45-6.98,3.02-14.57.81-.67,1.48-2.59,2.99-2.99.11.33,1.09,1.01,1.34,1.99,3.36,13.25-1,17.37-9.19,26.46-35.09,38.98-86.12,81.24-127.27,114.49-9.11,7.36-18.74,15.65-29.03,21.14-1.28.68-3.13.38-3.51.58Z"/>
  <path class="cls-1" d="M228.91,27.22c-1.51.4-2.18,2.32-2.99,2.99-56.51,46.66-108.21,99.21-163.16,147.84-1.6,1.42-3.97,3.42-6,4.11-.28-.69-1.98-4.16-2.25-4.49l54.65-50.51c37.61-34.76,75.01-69.42,113.76-102.93,1.19-1.03,2.47-2.06,3.74-2.99,1.36,2.84,1.33,3.3,2.25,5.99Z"/>
  <path class="cls-19" d="M227.41,164.2l-3.41,1.48.42,1.52c-1.25.72-2.03,1.36-3.74,2.25-.97-2.59-4.53-1.21-3.74,1.5-4.42,2.18-8.97,4.52-13.47,6.74-1.31-1.02-2.13-.65-3.51-.19-6.18,2.07-19.43,9.8-25.6,13.37-1.11.64-2.11,1.69-3.08,2.54-1.2.49-2.21,2.48-3.74.75,0-.5,0-1,0-1.5,1.23-1.2.89-4.06.78-5.65-.39-5.3-.93-10.77-1.52-16.06l60.63-29.94c.91,5.77.08,16.82,0,23.2Z"/>
  <path class="cls-8" d="M28.31,154.47c3.07,3.05,8.29,3.39,11.23,6.74.24.27,1.98,3.21,2.25,3.74.73,1.47.67,4.71,2.27,6.34,2.01,2.05,7.75,2.97,10.46,6.38.26.33,1.97,3.8,2.25,4.49.71,1.77,1.01,3.44,1.5,5.24.12.43-.12,1.09,0,1.5l-35.93,17.22c-.78-7.89-6-13.78-14.22-13.47,6.42-13.82,12.39-25.16,20.21-38.17Z"/>
  <path class="cls-1" d="M211.69,4.77c1.57.87,2.17,1.09,3.74,2.25l-1.5,3.74c-45.37,37.87-90.3,76.51-133.24,117.13-12.03,11.38-23.74,24.16-35.91,35.2-.93.84-1.53,1.87-3.01,1.86-.26-.53-2.01-3.47-2.25-3.74-.02-1.48,1.01-2.08,1.86-3.01,39.32-43.3,88.56-80.97,131.37-120.88L211.69,4.77Z"/>
  <path class="cls-7" d="M139.09,143.24l25.44,29.57c-6.61,2.62-12.09,9.13-19.45,9.35-9.11-7.74-16.86-16.79-25.43-25.12-.63-.61-1.38-1-2.25-1.09l2.24-2.98c3.52-2.7,15.22-8.62,19.46-9.73Z"/>
  <path class="cls-12" d="M119.62,152.97l-2.24,2.98c.88.09,1.63.48,2.25,1.09,8.58,8.33,16.33,17.38,25.43,25.12v23.2c-.12.03-.33.79-.97.65l-.9-.58c-3.98-3.92-7.81-7.94-11.6-12.04-.92-3.12-4.41-5.4-6.74-7.49-.16-.15-1.21-.11-1.89-.7-1.3-1.11-1.92-3.42-4.09-4.34.39-4.87-3.75-23.26-1.87-26.41.51-.85,1.96-.98,2.62-1.48Z"/>
  <path class="cls-15" d="M140.58,142.49c2.51,0,6.05,6.21,7.85,8.24,5.54,6.26,11.13,12.62,16.85,18.7.41,7.46,2.28,15.85,2.25,23.2,0,.5,0,1,0,1.5-7.51,2.79-14.82,9.07-22.46,11.23v-23.2c7.37-.22,12.84-6.73,19.45-9.35l-25.44-29.57c.25-.06.63-.75,1.5-.75Z"/>
  <path class="cls-18" d="M22.32,206.12c.02.25,0,.5,0,.75-6.66,1.85-15.01,8.97-21.71,4.49,1.13-7.85,4.37-12,7.49-18.71,8.22-.31,13.44,5.58,14.22,13.47Z"/>
  <path class="cls-13" d="M58.25,188.9c.53,1.77.77,2.83,2.99,2.99-14.27,7.64-23.64,12.68-38.92,18.71-.03-1.25.05-2.5,0-3.74,0-.25.02-.5,0-.75l35.93-17.22Z"/>
  <path class="cls-5" d="M22.32,206.86c.05,1.24-.03,2.5,0,3.74-.43.17-1.44,1.73-3.2,2.39-3.7,1.38-14.5,5.18-17.77,3.24-2.37-2.03-.96-3.34-.74-4.87,6.69,4.48,15.04-2.64,21.71-4.49Z"/>
  <path class="cls-3" d="M226.66,21.23c-1.27.93-2.55,1.96-3.74,2.99-.28-4.96-4.42-11.48-8.98-13.47l1.5-3.74c6.94,5.1,7.57,6.58,11.23,14.22Z"/>
  <path class="cls-4" d="M203.46,177.67c-10.67,5.25-21.14,11.22-32.19,15.72.96-.85,1.97-1.89,3.08-2.54,6.17-3.57,19.42-11.3,25.6-13.37,1.38-.46,2.2-.83,3.51.19Z"/>
  <path class="cls-4" d="M220.67,169.44c-1.61.84-2.84,1.05-3.74,1.5-.78-2.7,2.77-4.08,3.74-1.5Z"/>
  <path class="cls-4" d="M224.42,167.19l-.42-1.52,3.41-1.48c0,.07.74.43.63.99l-.55.92c-1.2,1.3-2.55.78-3.08,1.08Z"/>
  <path class="cls-2" d="M131.6,193.39c-2.27-2.45-4.6-4.91-6.74-7.49,2.32,2.09,5.81,4.36,6.74,7.49Z"/>
  <path class="cls-20" d="M122.61,66.9c1.78,1.78-7.19,9.87-8.58,11.24-20.49,20.08-42.84,41.74-64.01,60.99-1.35,1.23-10.71,9.94-11.98,8.59-.27-1.44.1-2.18.73-3.38,1.08-2.09,7.33-8.71,9.36-10.84,18.34-19.26,41.75-41.31,62.16-58.35,1.46-1.22,11.07-9.51,12.33-8.25Z"/>
  <path class="cls-9" d="M224.41,139.5l-1.72,2.39c-3.04.9-21.98,11.88-22.97,11.08-.88-.71.65-2.07,1.47-1.86l23.22-11.61Z"/>
  <path class="cls-9" d="M198.96,152.97c.88.72-.65,2.06-1.47,1.86-2.77.9-20.07,10.84-20.97,10.11-1.41-1.15,1.04-1.6,1.47-1.86,2.2-1.29,20.07-10.85,20.97-10.11Z"/>
  <path class="cls-11" d="M165.28,169.44c.1.11,1.04-.21,1.37.13.34.42.08.93.13,1.37.59,5.28,1.13,10.76,1.52,16.06.12,1.59.45,4.45-.78,5.65.04-7.36-1.84-15.75-2.25-23.2Z"/>
  <path class="cls-9" d="M175.76,164.95c.42,2-.53,1.28-1.48,1.85-1.55.93-3.35,1.99-5.25,1.88-.42-2,.53-1.28,1.48-1.85,1.55-.93,3.35-1.99,5.25-1.88Z"/>
  <path class="cls-10" d="M225.91,30.22c.43,7.59,1.43,8.45-3.02,14.57-7.99,10.99-26.16,26.82-36.64,36.71-26.74,25.2-55.87,50.29-84.24,73.7-10.71,8.84-23.22,19.97-34.55,27.57-2.67,1.79-6.01,4.31-9.22,4.63-.48-1.8-.78-3.47-1.5-5.24,2.03-.68,4.4-2.69,6-4.11,54.95-48.63,106.65-101.18,163.16-147.84Z"/>
  <path class="cls-16" d="M222.92,24.23c-38.75,33.51-76.15,68.17-113.76,102.93l-54.65,50.51c-2.71-3.41-8.45-4.33-10.46-6.38-1.6-1.63-1.54-4.88-2.27-6.34,1.48.02,2.08-1.01,3.01-1.86,12.17-11.05,23.87-23.82,35.91-35.2C123.64,87.26,168.57,48.63,213.94,10.76c4.56,1.99,8.7,8.52,8.98,13.47Z"/>
</svg>