<svg width="57" height="44" viewBox="0 0 57 44" fill="none" xmlns="http://www.w3.org/2000/svg">
<g id="Property 1=2b">
<path id="Rectangle 1130" d="M27.1069 0.282524L54.1818 1.4244C54.4203 1.43446 54.4445 1.77849 54.2097 1.82101L41.268 4.16497L27.1069 8.00026L1.83712 2.77978C1.6109 2.73305 1.63027 2.40378 1.86037 2.38462L27.1069 0.282524Z" fill="#FFD234"/>
<g id="Rectangle 1128">
<path d="M26.6046 7.98039C26.6046 7.01332 27.2966 6.18478 28.2481 6.01241L53.566 1.42636C54.7933 1.20405 55.9225 2.14706 55.9225 3.39434V35.8645C55.9225 36.8015 55.2721 37.6129 54.3575 37.8167L26.6046 44.001V7.98039Z" fill="#FFC805"/>
<path d="M26.6046 7.98039C26.6046 7.01332 27.2966 6.18478 28.2481 6.01241L53.566 1.42636C54.7933 1.20405 55.9225 2.14706 55.9225 3.39434V35.8645C55.9225 36.8015 55.2721 37.6129 54.3575 37.8167L26.6046 44.001V7.98039Z" fill="black" fill-opacity="0.2"/>
</g>
<circle id="Ellipse 1549" cx="31.5002" cy="26.5015" r="1.5" fill="#CF1565"/>
<circle id="Ellipse 1550" cx="35.4999" cy="36.501" r="1.5" fill="#CF1565"/>
<circle id="Ellipse 1551" cx="49.5002" cy="30.5029" r="1.5" fill="#CF1565"/>
<circle id="Ellipse 1545" cx="47.0585" cy="6.05743" r="1.5" transform="rotate(31.0112 47.0585 6.05743)" fill="#CF1565"/>
<ellipse id="Ellipse 1547" cx="51.7315" cy="15.77" rx="1.69231" ry="1.76462" transform="rotate(31.0112 51.7315 15.77)" fill="#CF1565"/>
<circle id="Ellipse 1541" cx="37.0577" cy="11.0589" r="1.5" transform="rotate(31.0112 37.0577 11.0589)" fill="#CF1565"/>
<g id="Rectangle 1131" filter="url(#filter0_i_1_83014)">
<path d="M34.8301 22.1723C34.3345 21.2874 34.5797 20.1717 35.4005 19.5761L43.5502 13.6629C44.5192 12.9598 45.8846 13.2598 46.4697 14.3043L50.3265 21.19C50.8093 22.0519 50.5905 23.137 49.8116 23.7445L41.8343 29.9657C40.8683 30.7191 39.4582 30.4348 38.8595 29.366L34.8301 22.1723Z" fill="#CF1565"/>
</g>
<path id="Rectangle 1129" d="M0 4.61744C0 3.39382 1.08897 2.45705 2.29885 2.63989L24.9021 6.05576C25.8802 6.20357 26.6033 7.04414 26.6033 8.03331V44.0037L1.52302 37.8447C0.628748 37.625 0 36.8232 0 35.9024V4.61744Z" fill="#FFC805"/>
<g id="Rectangle 1134" filter="url(#filter1_i_1_83014)">
<path d="M12.9151 15.7093C13.8399 14.0587 16.3272 14.496 16.6335 16.363L18.2534 26.237C18.4459 27.4099 17.5789 28.4908 16.3922 28.5576L8.72451 28.989C7.11346 29.0796 6.06383 27.3233 6.90676 25.9474L10.0921 20.7478L12.9151 15.7093Z" fill="#CF1565"/>
</g>
<g id="Line 60" filter="url(#filter2_i_1_83014)">
<line x1="14.8651" y1="15.383" x2="16.8445" y2="11.9071" stroke="#CF1565" stroke-linecap="round"/>
</g>
<path id="Line 62" d="M8.11761 27.0781L3.75389 28.6568" stroke="#CF1565" stroke-linecap="round"/>
<path id="Line 63" d="M16.439 32.0342L16.1475 27.0442" stroke="#CF1565" stroke-linecap="round"/>
<circle id="Ellipse 2118" cx="14.4993" cy="7.51562" r="1.5" fill="#CF1565"/>
<circle id="Ellipse 2119" cx="13.3281" cy="23.1383" r="2" transform="rotate(29.6603 13.3281 23.1383)" fill="#02C1C1"/>
<circle id="Ellipse 2120" cx="3.49933" cy="21.5171" r="1.5" fill="#CF1565"/>
<circle id="Ellipse 2121" cx="12.4993" cy="37.5156" r="1.5" fill="#CF1565"/>
<circle id="Ellipse 2122" cx="23.4808" cy="20.4995" r="1.5" fill="#CF1565"/>
<g id="Line 56" filter="url(#filter3_i_1_83014)">
<line x1="44.6557" y1="13.7998" x2="45.7438" y2="9.95068" stroke="#CF1565" stroke-linecap="round"/>
</g>
<line id="Line 59" x1="39.2163" y1="33.0415" x2="40.3044" y2="29.1924" stroke="#CF1565" stroke-linecap="round"/>
<g id="Line 57" filter="url(#filter4_i_1_83014)">
<line x1="0.5" y1="-0.5" x2="4.5" y2="-0.5" transform="matrix(-0.989983 -0.141186 -0.141186 0.989983 35.7734 21.1611)" stroke="#CF1565" stroke-linecap="round"/>
</g>
<g id="Line 58" filter="url(#filter5_i_1_83014)">
<line x1="53.6889" y1="22.6807" x2="50.6177" y2="22.4437" stroke="#CF1565" stroke-linecap="round"/>
</g>
<g id="Ellipse 2117" filter="url(#filter6_d_1_83014)">
<circle cx="42.5287" cy="21.5434" r="3" transform="rotate(-11.7758 42.5287 21.5434)" fill="#02C1C1"/>
</g>
<path id="Rectangle 1132" d="M17.9806 3.99219L31.9806 1.49219L35.4806 1.99219L21.9806 4.49219L17.9806 3.99219Z" fill="#CF1565"/>
<path id="Rectangle 1133" d="M19.0001 2.33648L32.0001 4.00098L35.0001 3.66548L21.5001 2.00098L19.0001 2.33648Z" fill="#CF1565"/>
</g>
<defs>
<filter id="filter0_i_1_83014" x="34.5749" y="13.2812" width="16.0069" height="18.1079" filterUnits="userSpaceOnUse" color-interpolation-filters="sRGB">
<feFlood flood-opacity="0" result="BackgroundImageFix"/>
<feBlend mode="normal" in="SourceGraphic" in2="BackgroundImageFix" result="shape"/>
<feColorMatrix in="SourceAlpha" type="matrix" values="0 0 0 0 0 0 0 0 0 0 0 0 0 0 0 0 0 0 127 0" result="hardAlpha"/>
<feOffset dy="2"/>
<feGaussianBlur stdDeviation="0.5"/>
<feComposite in2="hardAlpha" operator="arithmetic" k2="-1" k3="1"/>
<feColorMatrix type="matrix" values="0 0 0 0 0 0 0 0 0 0 0 0 0 0 0 0 0 0 0.25 0"/>
<feBlend mode="normal" in2="shape" result="effect1_innerShadow_1_83014"/>
</filter>
<filter id="filter1_i_1_83014" x="6.6084" y="14.6855" width="11.6718" height="15.3066" filterUnits="userSpaceOnUse" color-interpolation-filters="sRGB">
<feFlood flood-opacity="0" result="BackgroundImageFix"/>
<feBlend mode="normal" in="SourceGraphic" in2="BackgroundImageFix" result="shape"/>
<feColorMatrix in="SourceAlpha" type="matrix" values="0 0 0 0 0 0 0 0 0 0 0 0 0 0 0 0 0 0 127 0" result="hardAlpha"/>
<feOffset dy="2"/>
<feGaussianBlur stdDeviation="0.5"/>
<feComposite in2="hardAlpha" operator="arithmetic" k2="-1" k3="1"/>
<feColorMatrix type="matrix" values="0 0 0 0 0 0 0 0 0 0 0 0 0 0 0 0 0 0 0.25 0"/>
<feBlend mode="normal" in2="shape" result="effect1_innerShadow_1_83014"/>
</filter>
<filter id="filter2_i_1_83014" x="14.365" y="11.4072" width="3.97961" height="4.47607" filterUnits="userSpaceOnUse" color-interpolation-filters="sRGB">
<feFlood flood-opacity="0" result="BackgroundImageFix"/>
<feBlend mode="normal" in="SourceGraphic" in2="BackgroundImageFix" result="shape"/>
<feColorMatrix in="SourceAlpha" type="matrix" values="0 0 0 0 0 0 0 0 0 0 0 0 0 0 0 0 0 0 127 0" result="hardAlpha"/>
<feOffset dx="2"/>
<feGaussianBlur stdDeviation="0.5"/>
<feComposite in2="hardAlpha" operator="arithmetic" k2="-1" k3="1"/>
<feColorMatrix type="matrix" values="0 0 0 0 0 0 0 0 0 0 0 0 0 0 0 0 0 0 0.25 0"/>
<feBlend mode="normal" in2="shape" result="effect1_innerShadow_1_83014"/>
</filter>
<filter id="filter3_i_1_83014" x="44.1556" y="9.45068" width="3.08838" height="4.84912" filterUnits="userSpaceOnUse" color-interpolation-filters="sRGB">
<feFlood flood-opacity="0" result="BackgroundImageFix"/>
<feBlend mode="normal" in="SourceGraphic" in2="BackgroundImageFix" result="shape"/>
<feColorMatrix in="SourceAlpha" type="matrix" values="0 0 0 0 0 0 0 0 0 0 0 0 0 0 0 0 0 0 127 0" result="hardAlpha"/>
<feOffset dx="2"/>
<feGaussianBlur stdDeviation="0.5"/>
<feComposite in2="hardAlpha" operator="arithmetic" k2="-1" k3="1"/>
<feColorMatrix type="matrix" values="0 0 0 0 0 0 0 0 0 0 0 0 0 0 0 0 0 0 0.25 0"/>
<feBlend mode="normal" in2="shape" result="effect1_innerShadow_1_83014"/>
</filter>
<filter id="filter4_i_1_83014" x="30.889" y="19.5308" width="4.96008" height="2.56494" filterUnits="userSpaceOnUse" color-interpolation-filters="sRGB">
<feFlood flood-opacity="0" result="BackgroundImageFix"/>
<feBlend mode="normal" in="SourceGraphic" in2="BackgroundImageFix" result="shape"/>
<feColorMatrix in="SourceAlpha" type="matrix" values="0 0 0 0 0 0 0 0 0 0 0 0 0 0 0 0 0 0 127 0" result="hardAlpha"/>
<feOffset dy="2"/>
<feGaussianBlur stdDeviation="0.5"/>
<feComposite in2="hardAlpha" operator="arithmetic" k2="-1" k3="1"/>
<feColorMatrix type="matrix" values="0 0 0 0 0 0 0 0 0 0 0 0 0 0 0 0 0 0 0.25 0"/>
<feBlend mode="normal" in2="shape" result="effect1_innerShadow_1_83014"/>
</filter>
<filter id="filter5_i_1_83014" x="50.1176" y="21.9438" width="5.07129" height="1.23682" filterUnits="userSpaceOnUse" color-interpolation-filters="sRGB">
<feFlood flood-opacity="0" result="BackgroundImageFix"/>
<feBlend mode="normal" in="SourceGraphic" in2="BackgroundImageFix" result="shape"/>
<feColorMatrix in="SourceAlpha" type="matrix" values="0 0 0 0 0 0 0 0 0 0 0 0 0 0 0 0 0 0 127 0" result="hardAlpha"/>
<feOffset dx="2"/>
<feGaussianBlur stdDeviation="0.5"/>
<feComposite in2="hardAlpha" operator="arithmetic" k2="-1" k3="1"/>
<feColorMatrix type="matrix" values="0 0 0 0 0 0 0 0 0 0 0 0 0 0 0 0 0 0 0.25 0"/>
<feBlend mode="normal" in2="shape" result="effect1_innerShadow_1_83014"/>
</filter>
<filter id="filter6_d_1_83014" x="38.5281" y="18.543" width="8.00122" height="8.00098" filterUnits="userSpaceOnUse" color-interpolation-filters="sRGB">
<feFlood flood-opacity="0" result="BackgroundImageFix"/>
<feColorMatrix in="SourceAlpha" type="matrix" values="0 0 0 0 0 0 0 0 0 0 0 0 0 0 0 0 0 0 127 0" result="hardAlpha"/>
<feOffset dy="1"/>
<feGaussianBlur stdDeviation="0.5"/>
<feComposite in2="hardAlpha" operator="out"/>
<feColorMatrix type="matrix" values="0 0 0 0 0 0 0 0 0 0 0 0 0 0 0 0 0 0 0.5 0"/>
<feBlend mode="normal" in2="BackgroundImageFix" result="effect1_dropShadow_1_83014"/>
<feBlend mode="normal" in="SourceGraphic" in2="effect1_dropShadow_1_83014" result="shape"/>
</filter>
</defs>
</svg>
