<svg width="58" height="44" viewBox="0 0 58 44" fill="none" xmlns="http://www.w3.org/2000/svg">
<g id="Property 1=1b">
<path id="Rectangle 1130" d="M28.1068 0.283012L55.1817 1.42489C55.4202 1.43494 55.4443 1.77898 55.2095 1.8215L42.2678 4.16546L28.1068 8.00075L2.837 2.78027C2.61078 2.73354 2.63015 2.40426 2.86024 2.38511L28.1068 0.283012Z" fill="#FFD234"/>
<g id="Rectangle 1128">
<path d="M27.6044 7.98088C27.6044 7.01381 28.2964 6.18527 29.248 6.0129L54.5659 1.42685C55.7932 1.20454 56.9223 2.14755 56.9223 3.39482V35.865C56.9223 36.802 56.2719 37.6134 55.3573 37.8172L27.6044 44.0015V7.98088Z" fill="#FFC805"/>
<path d="M27.6044 7.98088C27.6044 7.01381 28.2964 6.18527 29.248 6.0129L54.5659 1.42685C55.7932 1.20454 56.9223 2.14755 56.9223 3.39482V35.865C56.9223 36.802 56.2719 37.6134 55.3573 37.8172L27.6044 44.0015V7.98088Z" fill="black" fill-opacity="0.2"/>
</g>
<circle id="Ellipse 1549" cx="34.4799" cy="30.4966" r="1.5" fill="#CF1565"/>
<circle id="Ellipse 1550" cx="41.4799" cy="37.4941" r="1.5" fill="#CF1565"/>
<circle id="Ellipse 1551" cx="53.4799" cy="31.4966" r="1.5" fill="#CF1565"/>
<circle id="Ellipse 1545" cx="39.4799" cy="8.5" r="1.5" fill="#CF1565"/>
<ellipse id="Ellipse 1547" cx="51.6722" cy="10.7612" rx="1.69231" ry="1.76462" fill="#CF1565"/>
<circle id="Ellipse 1541" cx="33.4804" cy="15.5005" r="1.5" fill="#CF1565"/>
<g id="Rectangle 1131" filter="url(#filter0_i_1_82960)">
<path d="M36.3022 24.2258C35.5846 23.5091 35.517 22.3688 36.1449 21.5724L42.3787 13.6652C43.1199 12.725 44.5154 12.6422 45.3625 13.4882L50.9471 19.0652C51.646 19.7632 51.7307 20.8669 51.1464 21.6634L45.1623 29.82C44.4377 30.8077 43.0033 30.9178 42.1365 30.0521L36.3022 24.2258Z" fill="#CF1565"/>
</g>
<path id="Rectangle 1129" d="M0.999878 4.61793C0.999878 3.39431 2.08885 2.45754 3.29873 2.64038L25.902 6.05625C26.8801 6.20405 27.6032 7.04463 27.6032 8.03379V44.0042L2.5229 37.8451C1.62863 37.6255 0.999878 36.8237 0.999878 35.9029V4.61793Z" fill="#FFC805"/>
<g id="Rectangle 1134" filter="url(#filter1_i_1_82960)">
<path d="M9.96364 15.7517C9.95045 13.8598 12.3283 13.0089 13.5184 14.4797L19.8122 22.2583C20.5599 23.1823 20.3414 24.5507 19.3432 25.1959L12.8937 29.3652C11.5386 30.2412 9.75736 29.2344 9.80895 27.6216L10.0039 21.5271L9.96364 15.7517Z" fill="#CF1565"/>
</g>
<g id="Line 60" filter="url(#filter2_i_1_82960)">
<line x1="11.4968" y1="14.5" x2="11.4968" y2="10.5" stroke="#CF1565" stroke-linecap="round"/>
</g>
<path id="Line 62" d="M11.4208 28.0015L8.41003 31.5327" stroke="#CF1565" stroke-linecap="round"/>
<path id="Line 63" d="M21.1046 28.1938L18.382 24.0019" stroke="#CF1565" stroke-linecap="round"/>
<circle id="Ellipse 2118" cx="5.48035" cy="7.5" r="1.5" fill="#CF1565"/>
<circle id="Ellipse 2119" cx="13.9996" cy="22.0029" r="2" fill="#02C1C1"/>
<circle id="Ellipse 2120" cx="3.48035" cy="35.498" r="1.5" fill="#CF1565"/>
<circle id="Ellipse 2121" cx="24.4804" cy="40.498" r="1.5" fill="#CF1565"/>
<circle id="Ellipse 2122" cx="24.4804" cy="10.5005" r="1.5" fill="#CF1565"/>
<g id="Line 56" filter="url(#filter3_i_1_82960)">
<line x1="43.4799" y1="13.4966" x2="43.4799" y2="9.49658" stroke="#CF1565" stroke-linecap="round"/>
</g>
<line id="Line 59" x1="43.4799" y1="33.4941" x2="43.4799" y2="29.4941" stroke="#CF1565" stroke-linecap="round"/>
<g id="Line 57" filter="url(#filter4_i_1_82960)">
<line x1="0.5" y1="-0.5" x2="4.5" y2="-0.5" transform="matrix(-0.991057 0.13344 0.13344 0.991057 36.935 22.9966)" stroke="#CF1565" stroke-linecap="round"/>
</g>
<g id="Line 58" filter="url(#filter5_i_1_82960)">
<line x1="54.5883" y1="19.5854" x2="51.5684" y2="20.1927" stroke="#CF1565" stroke-linecap="round"/>
</g>
<g id="Ellipse 2117" filter="url(#filter6_d_1_82960)">
<circle cx="43.529" cy="21.5438" r="3" transform="rotate(-11.7758 43.529 21.5438)" fill="#02C1C1"/>
</g>
<path id="Rectangle 1132" d="M18.9804 3.99268L32.9804 1.49268L36.4804 1.99268L22.9804 4.49268L18.9804 3.99268Z" fill="#CF1565"/>
<path id="Rectangle 1133" d="M19.9999 2.33697L32.9999 4.00146L35.9999 3.66596L22.4999 2.00146L19.9999 2.33697Z" fill="#CF1565"/>
</g>
<defs>
<filter id="filter0_i_1_82960" x="35.7155" y="12.9033" width="15.8184" height="18.7339" filterUnits="userSpaceOnUse" color-interpolation-filters="sRGB">
<feFlood flood-opacity="0" result="BackgroundImageFix"/>
<feBlend mode="normal" in="SourceGraphic" in2="BackgroundImageFix" result="shape"/>
<feColorMatrix in="SourceAlpha" type="matrix" values="0 0 0 0 0 0 0 0 0 0 0 0 0 0 0 0 0 0 127 0" result="hardAlpha"/>
<feOffset dy="2"/>
<feGaussianBlur stdDeviation="0.5"/>
<feComposite in2="hardAlpha" operator="arithmetic" k2="-1" k3="1"/>
<feColorMatrix type="matrix" values="0 0 0 0 0 0 0 0 0 0 0 0 0 0 0 0 0 0 0.25 0"/>
<feBlend mode="normal" in2="shape" result="effect1_innerShadow_1_82960"/>
</filter>
<filter id="filter1_i_1_82960" x="9.80786" y="13.7339" width="10.4498" height="16.9556" filterUnits="userSpaceOnUse" color-interpolation-filters="sRGB">
<feFlood flood-opacity="0" result="BackgroundImageFix"/>
<feBlend mode="normal" in="SourceGraphic" in2="BackgroundImageFix" result="shape"/>
<feColorMatrix in="SourceAlpha" type="matrix" values="0 0 0 0 0 0 0 0 0 0 0 0 0 0 0 0 0 0 127 0" result="hardAlpha"/>
<feOffset dy="2"/>
<feGaussianBlur stdDeviation="0.5"/>
<feComposite in2="hardAlpha" operator="arithmetic" k2="-1" k3="1"/>
<feColorMatrix type="matrix" values="0 0 0 0 0 0 0 0 0 0 0 0 0 0 0 0 0 0 0.25 0"/>
<feBlend mode="normal" in2="shape" result="effect1_innerShadow_1_82960"/>
</filter>
<filter id="filter2_i_1_82960" x="10.9968" y="10" width="2" height="5" filterUnits="userSpaceOnUse" color-interpolation-filters="sRGB">
<feFlood flood-opacity="0" result="BackgroundImageFix"/>
<feBlend mode="normal" in="SourceGraphic" in2="BackgroundImageFix" result="shape"/>
<feColorMatrix in="SourceAlpha" type="matrix" values="0 0 0 0 0 0 0 0 0 0 0 0 0 0 0 0 0 0 127 0" result="hardAlpha"/>
<feOffset dx="2"/>
<feGaussianBlur stdDeviation="0.5"/>
<feComposite in2="hardAlpha" operator="arithmetic" k2="-1" k3="1"/>
<feColorMatrix type="matrix" values="0 0 0 0 0 0 0 0 0 0 0 0 0 0 0 0 0 0 0.25 0"/>
<feBlend mode="normal" in2="shape" result="effect1_innerShadow_1_82960"/>
</filter>
<filter id="filter3_i_1_82960" x="42.9799" y="8.99658" width="2" height="5" filterUnits="userSpaceOnUse" color-interpolation-filters="sRGB">
<feFlood flood-opacity="0" result="BackgroundImageFix"/>
<feBlend mode="normal" in="SourceGraphic" in2="BackgroundImageFix" result="shape"/>
<feColorMatrix in="SourceAlpha" type="matrix" values="0 0 0 0 0 0 0 0 0 0 0 0 0 0 0 0 0 0 127 0" result="hardAlpha"/>
<feOffset dx="2"/>
<feGaussianBlur stdDeviation="0.5"/>
<feComposite in2="hardAlpha" operator="arithmetic" k2="-1" k3="1"/>
<feColorMatrix type="matrix" values="0 0 0 0 0 0 0 0 0 0 0 0 0 0 0 0 0 0 0.25 0"/>
<feBlend mode="normal" in2="shape" result="effect1_innerShadow_1_82960"/>
</filter>
<filter id="filter4_i_1_82960" x="31.9084" y="22.0679" width="4.96436" height="2.53369" filterUnits="userSpaceOnUse" color-interpolation-filters="sRGB">
<feFlood flood-opacity="0" result="BackgroundImageFix"/>
<feBlend mode="normal" in="SourceGraphic" in2="BackgroundImageFix" result="shape"/>
<feColorMatrix in="SourceAlpha" type="matrix" values="0 0 0 0 0 0 0 0 0 0 0 0 0 0 0 0 0 0 127 0" result="hardAlpha"/>
<feOffset dy="2"/>
<feGaussianBlur stdDeviation="0.5"/>
<feComposite in2="hardAlpha" operator="arithmetic" k2="-1" k3="1"/>
<feColorMatrix type="matrix" values="0 0 0 0 0 0 0 0 0 0 0 0 0 0 0 0 0 0 0.25 0"/>
<feBlend mode="normal" in2="shape" result="effect1_innerShadow_1_82960"/>
</filter>
<filter id="filter5_i_1_82960" x="51.0683" y="19.0854" width="5.02014" height="1.60742" filterUnits="userSpaceOnUse" color-interpolation-filters="sRGB">
<feFlood flood-opacity="0" result="BackgroundImageFix"/>
<feBlend mode="normal" in="SourceGraphic" in2="BackgroundImageFix" result="shape"/>
<feColorMatrix in="SourceAlpha" type="matrix" values="0 0 0 0 0 0 0 0 0 0 0 0 0 0 0 0 0 0 127 0" result="hardAlpha"/>
<feOffset dx="2"/>
<feGaussianBlur stdDeviation="0.5"/>
<feComposite in2="hardAlpha" operator="arithmetic" k2="-1" k3="1"/>
<feColorMatrix type="matrix" values="0 0 0 0 0 0 0 0 0 0 0 0 0 0 0 0 0 0 0.25 0"/>
<feBlend mode="normal" in2="shape" result="effect1_innerShadow_1_82960"/>
</filter>
<filter id="filter6_d_1_82960" x="39.5284" y="18.5435" width="8.00122" height="8.00098" filterUnits="userSpaceOnUse" color-interpolation-filters="sRGB">
<feFlood flood-opacity="0" result="BackgroundImageFix"/>
<feColorMatrix in="SourceAlpha" type="matrix" values="0 0 0 0 0 0 0 0 0 0 0 0 0 0 0 0 0 0 127 0" result="hardAlpha"/>
<feOffset dy="1"/>
<feGaussianBlur stdDeviation="0.5"/>
<feComposite in2="hardAlpha" operator="out"/>
<feColorMatrix type="matrix" values="0 0 0 0 0 0 0 0 0 0 0 0 0 0 0 0 0 0 0.5 0"/>
<feBlend mode="normal" in2="BackgroundImageFix" result="effect1_dropShadow_1_82960"/>
<feBlend mode="normal" in="SourceGraphic" in2="effect1_dropShadow_1_82960" result="shape"/>
</filter>
</defs>
</svg>
