<svg width="58" height="44" viewBox="0 0 58 44" fill="none" xmlns="http://www.w3.org/2000/svg">
<path d="M28.1072 0.283012L55.1821 1.42489C55.4206 1.43494 55.4448 1.77898 55.21 1.8215L42.2683 4.16546L28.1072 8.00075L2.83743 2.78027C2.61121 2.73354 2.63057 2.40426 2.86067 2.38511L28.1072 0.283012Z" fill="#FFD234"/>
<path d="M27.6049 7.98088C27.6049 7.01381 28.2968 6.18527 29.2484 6.0129L54.5663 1.42685C55.7936 1.20454 56.9228 2.14755 56.9228 3.39482V35.865C56.9228 36.802 56.2723 37.6134 55.3578 37.8172L27.6049 44.0015V7.98088Z" fill="#FFC805"/>
<path d="M27.6049 7.98088C27.6049 7.01381 28.2968 6.18527 29.2484 6.0129L54.5663 1.42685C55.7936 1.20454 56.9228 2.14755 56.9228 3.39482V35.865C56.9228 36.802 56.2723 37.6134 55.3578 37.8172L27.6049 44.0015V7.98088Z" fill="black" fill-opacity="0.2"/>
<circle cx="34.4803" cy="30.4966" r="1.5" fill="#F55376"/>
<circle cx="41.4803" cy="37.494" r="1.5" fill="#F55376"/>
<circle cx="53.4803" cy="31.4966" r="1.5" fill="#F55376"/>
<circle cx="39.4803" cy="8.49988" r="1.5" fill="#F55376"/>
<ellipse cx="51.6726" cy="10.7612" rx="1.69231" ry="1.76462" fill="#F55376"/>
<circle cx="33.4808" cy="15.5005" r="1.5" fill="#F55376"/>
<g filter="url(#filter0_i_1430_20201)">
<path d="M36.3026 24.2258C35.585 23.5091 35.5174 22.3688 36.1452 21.5724L42.379 13.6652C43.1202 12.725 44.5158 12.6422 45.3629 13.4882L50.9474 19.0652C51.6464 19.7632 51.7311 20.8669 51.1468 21.6634L45.1627 29.82C44.438 30.8077 43.0037 30.9178 42.1369 30.0521L36.3026 24.2258Z" fill="#F55376"/>
</g>
<path d="M1.00031 4.61805C1.00031 3.39443 2.08927 2.45766 3.29916 2.6405L25.9024 6.05637C26.8805 6.20418 27.6036 7.04475 27.6036 8.03392V44.0043L2.52333 37.8453C1.62905 37.6257 1.00031 36.8238 1.00031 35.903V4.61805Z" fill="#FFC805"/>
<g filter="url(#filter1_i_1430_20201)">
<path d="M9.96413 15.7516C9.95093 13.8596 12.3288 13.0088 13.5189 14.4796L19.8127 22.2582C20.5604 23.1822 20.3419 24.5505 19.3437 25.1958L12.8942 29.3651C11.5391 30.2411 9.75784 29.2343 9.80944 27.6215L10.0044 21.5269L9.96413 15.7516Z" fill="#F55376"/>
</g>
<g filter="url(#filter2_i_1430_20201)">
<line x1="11.4973" y1="14.5" x2="11.4973" y2="10.5" stroke="#F55376" stroke-linecap="round"/>
</g>
<path d="M11.4213 28.0013L8.41052 31.5326" stroke="#F55376" stroke-linecap="round"/>
<path d="M21.105 28.194L18.3824 24.002" stroke="#F55376" stroke-linecap="round"/>
<circle cx="5.48077" cy="7.49988" r="1.5" fill="#F55376"/>
<circle cx="14.0001" cy="22.0027" r="2" fill="#02C1C1"/>
<circle cx="3.48077" cy="35.4979" r="1.5" fill="#F55376"/>
<circle cx="24.4808" cy="40.4979" r="1.5" fill="#F55376"/>
<circle cx="24.4808" cy="10.5005" r="1.5" fill="#F55376"/>
<g filter="url(#filter3_i_1430_20201)">
<line x1="43.4803" y1="13.4966" x2="43.4803" y2="9.49658" stroke="#F55376" stroke-linecap="round"/>
</g>
<line x1="43.4803" y1="33.494" x2="43.4803" y2="29.494" stroke="#F55376" stroke-linecap="round"/>
<g filter="url(#filter4_i_1430_20201)">
<line x1="0.5" y1="-0.5" x2="4.5" y2="-0.5" transform="matrix(-0.991057 0.13344 0.13344 0.991057 36.9354 22.9966)" stroke="#F55376" stroke-linecap="round"/>
</g>
<g filter="url(#filter5_i_1430_20201)">
<line x1="54.5887" y1="19.5854" x2="51.5688" y2="20.1927" stroke="#F55376" stroke-linecap="round"/>
</g>
<g filter="url(#filter6_d_1430_20201)">
<circle cx="43.5294" cy="21.5438" r="3" transform="rotate(-11.7758 43.5294 21.5438)" fill="#02C1C1"/>
</g>
<path d="M18.9808 3.9928L32.9808 1.4928L36.4808 1.9928L22.9808 4.4928L18.9808 3.9928Z" fill="#F55376"/>
<path d="M20.0004 2.33697L33.0004 4.00146L36.0004 3.66596L22.5004 2.00146L20.0004 2.33697Z" fill="#F55376"/>
<defs>
<filter id="filter0_i_1430_20201" x="35.7158" y="12.9033" width="15.8184" height="18.7336" filterUnits="userSpaceOnUse" color-interpolation-filters="sRGB">
<feFlood flood-opacity="0" result="BackgroundImageFix"/>
<feBlend mode="normal" in="SourceGraphic" in2="BackgroundImageFix" result="shape"/>
<feColorMatrix in="SourceAlpha" type="matrix" values="0 0 0 0 0 0 0 0 0 0 0 0 0 0 0 0 0 0 127 0" result="hardAlpha"/>
<feOffset dy="2"/>
<feGaussianBlur stdDeviation="0.5"/>
<feComposite in2="hardAlpha" operator="arithmetic" k2="-1" k3="1"/>
<feColorMatrix type="matrix" values="0 0 0 0 0 0 0 0 0 0 0 0 0 0 0 0 0 0 0.25 0"/>
<feBlend mode="normal" in2="shape" result="effect1_innerShadow_1430_20201"/>
</filter>
<filter id="filter1_i_1430_20201" x="9.80835" y="13.7335" width="10.4498" height="16.9556" filterUnits="userSpaceOnUse" color-interpolation-filters="sRGB">
<feFlood flood-opacity="0" result="BackgroundImageFix"/>
<feBlend mode="normal" in="SourceGraphic" in2="BackgroundImageFix" result="shape"/>
<feColorMatrix in="SourceAlpha" type="matrix" values="0 0 0 0 0 0 0 0 0 0 0 0 0 0 0 0 0 0 127 0" result="hardAlpha"/>
<feOffset dy="2"/>
<feGaussianBlur stdDeviation="0.5"/>
<feComposite in2="hardAlpha" operator="arithmetic" k2="-1" k3="1"/>
<feColorMatrix type="matrix" values="0 0 0 0 0 0 0 0 0 0 0 0 0 0 0 0 0 0 0.25 0"/>
<feBlend mode="normal" in2="shape" result="effect1_innerShadow_1430_20201"/>
</filter>
<filter id="filter2_i_1430_20201" x="10.9973" y="10" width="2" height="5" filterUnits="userSpaceOnUse" color-interpolation-filters="sRGB">
<feFlood flood-opacity="0" result="BackgroundImageFix"/>
<feBlend mode="normal" in="SourceGraphic" in2="BackgroundImageFix" result="shape"/>
<feColorMatrix in="SourceAlpha" type="matrix" values="0 0 0 0 0 0 0 0 0 0 0 0 0 0 0 0 0 0 127 0" result="hardAlpha"/>
<feOffset dx="2"/>
<feGaussianBlur stdDeviation="0.5"/>
<feComposite in2="hardAlpha" operator="arithmetic" k2="-1" k3="1"/>
<feColorMatrix type="matrix" values="0 0 0 0 0 0 0 0 0 0 0 0 0 0 0 0 0 0 0.25 0"/>
<feBlend mode="normal" in2="shape" result="effect1_innerShadow_1430_20201"/>
</filter>
<filter id="filter3_i_1430_20201" x="42.9803" y="8.99658" width="2" height="5" filterUnits="userSpaceOnUse" color-interpolation-filters="sRGB">
<feFlood flood-opacity="0" result="BackgroundImageFix"/>
<feBlend mode="normal" in="SourceGraphic" in2="BackgroundImageFix" result="shape"/>
<feColorMatrix in="SourceAlpha" type="matrix" values="0 0 0 0 0 0 0 0 0 0 0 0 0 0 0 0 0 0 127 0" result="hardAlpha"/>
<feOffset dx="2"/>
<feGaussianBlur stdDeviation="0.5"/>
<feComposite in2="hardAlpha" operator="arithmetic" k2="-1" k3="1"/>
<feColorMatrix type="matrix" values="0 0 0 0 0 0 0 0 0 0 0 0 0 0 0 0 0 0 0.25 0"/>
<feBlend mode="normal" in2="shape" result="effect1_innerShadow_1430_20201"/>
</filter>
<filter id="filter4_i_1430_20201" x="31.9088" y="22.0677" width="4.96436" height="2.53381" filterUnits="userSpaceOnUse" color-interpolation-filters="sRGB">
<feFlood flood-opacity="0" result="BackgroundImageFix"/>
<feBlend mode="normal" in="SourceGraphic" in2="BackgroundImageFix" result="shape"/>
<feColorMatrix in="SourceAlpha" type="matrix" values="0 0 0 0 0 0 0 0 0 0 0 0 0 0 0 0 0 0 127 0" result="hardAlpha"/>
<feOffset dy="2"/>
<feGaussianBlur stdDeviation="0.5"/>
<feComposite in2="hardAlpha" operator="arithmetic" k2="-1" k3="1"/>
<feColorMatrix type="matrix" values="0 0 0 0 0 0 0 0 0 0 0 0 0 0 0 0 0 0 0.25 0"/>
<feBlend mode="normal" in2="shape" result="effect1_innerShadow_1430_20201"/>
</filter>
<filter id="filter5_i_1430_20201" x="51.0687" y="19.0852" width="5.02014" height="1.60754" filterUnits="userSpaceOnUse" color-interpolation-filters="sRGB">
<feFlood flood-opacity="0" result="BackgroundImageFix"/>
<feBlend mode="normal" in="SourceGraphic" in2="BackgroundImageFix" result="shape"/>
<feColorMatrix in="SourceAlpha" type="matrix" values="0 0 0 0 0 0 0 0 0 0 0 0 0 0 0 0 0 0 127 0" result="hardAlpha"/>
<feOffset dx="2"/>
<feGaussianBlur stdDeviation="0.5"/>
<feComposite in2="hardAlpha" operator="arithmetic" k2="-1" k3="1"/>
<feColorMatrix type="matrix" values="0 0 0 0 0 0 0 0 0 0 0 0 0 0 0 0 0 0 0.25 0"/>
<feBlend mode="normal" in2="shape" result="effect1_innerShadow_1430_20201"/>
</filter>
<filter id="filter6_d_1430_20201" x="39.5288" y="18.5432" width="8.00122" height="8.00122" filterUnits="userSpaceOnUse" color-interpolation-filters="sRGB">
<feFlood flood-opacity="0" result="BackgroundImageFix"/>
<feColorMatrix in="SourceAlpha" type="matrix" values="0 0 0 0 0 0 0 0 0 0 0 0 0 0 0 0 0 0 127 0" result="hardAlpha"/>
<feOffset dy="1"/>
<feGaussianBlur stdDeviation="0.5"/>
<feComposite in2="hardAlpha" operator="out"/>
<feColorMatrix type="matrix" values="0 0 0 0 0 0 0 0 0 0 0 0 0 0 0 0 0 0 0.5 0"/>
<feBlend mode="normal" in2="BackgroundImageFix" result="effect1_dropShadow_1430_20201"/>
<feBlend mode="normal" in="SourceGraphic" in2="effect1_dropShadow_1430_20201" result="shape"/>
</filter>
</defs>
</svg>
