<svg width="95vw" viewBox="0 0 770 250" fill="none" xmlns="http://www.w3.org/2000/svg">
    <path d="M70.804 69.6523C79.4367 91.5 47.3462 69.6523 70.804 69.6523Z" stroke="#81C127" stroke-width="3.01814"
        stroke-linecap="round" stroke-linejoin="round" />
    <g>
    <path d="M70.8044 69.6535C101.195 69.6535 186.388 55.8228 200.836 54.9297" stroke="#81C127" stroke-width="3.01814"
        stroke-linecap="round" stroke-linejoin="round" />
    <path d="M200.833 54.9282C215.281 54.0351 289.514 86.6065 312.431 86.6065" stroke="#81C127" stroke-width="3.01814"
        stroke-linecap="round" stroke-linejoin="round" />
    <path d="M312.432 86.6051C335.35 86.6051 398.912 57.6055 420.543 57.6055" stroke="#81C127" stroke-width="3.01814"
        stroke-linecap="round" stroke-linejoin="round" />
    <path d="M420.542 57.6055C440.969 57.6055 510.718 85.2651 535.628 85.2651" stroke="#81C127" stroke-width="3.01814"
        stroke-linecap="round" stroke-linejoin="round" />
    <path d="M535.627 85.2676C560.537 85.2676 622.813 52.2534 640.25 55.3763" stroke="#81C127" stroke-width="3.01814"
        stroke-linecap="round" stroke-linejoin="round" />
    </g>
    <path
        d="M128.882 55.6289L128.471 59.5446C129.351 59.2549 133.491 55.1923 135.569 54.1903C142.045 51.068 136.514 51.8039 135.569 51.5141C135.473 51.4846 135.31 51.4387 135.096 51.3822C131.445 50.4132 129.226 52.3595 128.882 55.6289Z"
        fill="#81C127" />
    <path
        d="M128.096 63.1131L128.882 55.6289C129.226 52.3595 131.445 50.4132 135.096 51.3822C135.31 51.4387 135.473 51.4846 135.569 51.5141C136.514 51.8039 142.045 51.068 135.569 54.1903C133.491 55.1923 129.351 59.2549 128.471 59.5446"
        stroke="#81C127" stroke-width="2.41451" stroke-linecap="round" stroke-linejoin="round" />
    <path
        d="M353.077 69.0156L352.666 72.9314C353.546 72.6417 357.686 68.579 359.764 67.577C366.24 64.4547 360.709 65.1906 359.764 64.9009C359.668 64.8714 359.505 64.8254 359.291 64.769C355.64 63.7999 353.421 65.7463 353.077 69.0156Z"
        fill="#81C127" />
    <path
        d="M352.289 76.4998L353.075 69.0156C353.419 65.7463 355.638 63.7999 359.289 64.769C359.503 64.8254 359.666 64.8714 359.762 64.9009C360.707 65.1906 366.238 64.4547 359.762 67.577C357.684 68.579 353.544 72.6417 352.664 72.9314"
        stroke="#81C127" stroke-width="2.41451" stroke-linecap="round" stroke-linejoin="round" />
    <path
        d="M474.775 63.0065L471.772 65.5611C472.647 65.8607 478.749 65.2365 481.052 65.705C488.224 67.1648 483.516 64.4633 483.016 63.6883C482.97 63.6163 482.892 63.5012 482.788 63.3543C480.734 60.4422 477.549 60.6468 474.775 63.0065Z"
        fill="#81C127" />
    <path
        d="M468.872 68.0296L474.777 63.0065C477.551 60.6468 480.736 60.4422 482.79 63.3543C482.893 63.5012 482.972 63.6163 483.018 63.6883C483.518 64.4633 488.226 67.1648 481.054 65.705C478.751 65.2365 472.649 65.8607 471.773 65.5611"
        stroke="#81C127" stroke-width="2.41451" stroke-linecap="round" stroke-linejoin="round" />
    <path
        d="M601.045 73.0163L600.318 69.1719C599.552 69.6554 596.725 74.5383 595.006 75.9873C589.651 80.5026 594.782 78.5114 595.779 78.5725C595.879 78.5787 596.047 78.5851 596.266 78.5904C600.079 78.6824 601.661 76.2753 601.045 73.0163Z"
        fill="#81C127" />
    <path
        d="M599.65 65.6406L601.045 73.0189C601.661 76.2779 600.079 78.685 596.266 78.593C596.047 78.5877 595.879 78.5812 595.779 78.5751C594.782 78.514 589.651 80.5052 595.006 75.9899C596.725 74.5409 599.552 69.658 600.318 69.1745"
        stroke="#81C127" stroke-width="2.41451" stroke-linecap="round" stroke-linejoin="round" />
    <path
        d="M265.324 80.2129L263.385 76.8516C262.82 77.5209 261.785 82.9423 260.64 84.7908C257.072 90.5507 261.283 87.2565 262.254 87.0431C262.347 87.0227 262.499 86.9857 262.694 86.9352C266.378 85.9834 267.055 83.2153 265.324 80.2129Z"
        fill="#81C127" />
    <path
        d="M261.549 73.6641L265.324 80.2099C267.055 83.2123 266.378 85.9804 262.694 86.9323C262.499 86.9827 262.347 87.0197 262.254 87.0402C261.283 87.2536 257.072 90.5477 260.64 84.7878C261.785 82.9393 262.82 77.5179 263.385 76.8486"
        stroke="#81C127" stroke-width="2.41451" stroke-linecap="round" stroke-linejoin="round" />
    <path
        d="M156.859 66.64L154.499 65.168C154.44 66.0058 154.948 69.5451 155.996 71.4394C157.305 73.8072 159.979 76.3461 159.979 78.1313C159.979 78.5217 160.389 76.0303 160.7 73.5763C161.061 70.718 159.561 68.3253 156.859 66.64Z"
        fill="#81C127" />
    <path
        d="M149.536 62.0703L156.859 66.6391C159.562 68.3245 161.062 70.7171 160.701 73.5755C160.39 76.0295 159.98 78.5209 159.98 78.1304C159.98 76.3453 157.306 73.8063 155.997 71.4386C154.948 69.5443 154.441 66.005 154.5 65.1671"
        stroke="#81C127" stroke-width="2.41451" stroke-linecap="round" stroke-linejoin="round" />
    <path
        d="M375.511 76.4564L373.152 74.9844C373.092 75.8222 373.6 79.3616 374.647 81.2558C375.957 83.6237 378.632 86.1626 378.632 87.9478C378.632 88.3381 379.041 85.8467 379.351 83.3927C379.713 80.5344 378.212 78.1418 375.511 76.4564Z"
        fill="#81C127" />
    <path
        d="M368.184 71.8867L375.509 76.4555C378.21 78.1409 379.711 80.5335 379.349 83.3918C379.038 85.8458 378.63 88.3372 378.63 87.9468C378.63 86.1617 375.954 83.6228 374.645 81.2549C373.598 79.3607 373.09 75.8213 373.15 74.9835"
        stroke="#81C127" stroke-width="2.41451" stroke-linecap="round" stroke-linejoin="round" />
    <path
        d="M486.493 82.9826L488.262 80.6112C487.326 80.5746 483.384 81.0976 481.29 82.0723C478.671 83.2906 475.889 85.7348 473.895 85.7692C473.456 85.7769 476.301 86.1008 479.07 86.3317C482.23 86.5953 484.775 85.2858 486.493 82.9826Z"
        fill="#81C127" />
    <path
        d="M491.624 76.1094L486.493 82.9856C484.775 85.2888 482.23 86.5983 479.07 86.3347C476.301 86.1039 473.456 85.7799 473.895 85.7723C475.889 85.7378 478.671 83.2936 481.29 82.0753C483.384 81.1006 487.326 80.5777 488.262 80.6142"
        stroke="#81C127" stroke-width="2.41451" stroke-linecap="round" stroke-linejoin="round" />
    <path
        d="M252.196 60.9959L250.297 63.265C251.23 63.3471 255.198 63.0166 257.348 62.1452C260.036 61.056 262.964 58.7509 264.956 58.8133C265.395 58.8271 262.578 58.3658 259.828 58.0006C256.686 57.5834 254.06 58.7715 252.196 60.9959Z"
        fill="#81C127" />
    <path
        d="M246.668 67.5997L252.197 60.9959C254.06 58.7715 256.687 57.5834 259.828 58.0006C262.579 58.3658 265.395 58.8271 264.956 58.8133C262.964 58.7509 260.037 61.056 257.348 62.1452C255.198 63.0166 251.23 63.3471 250.298 63.265"
        stroke="#81C127" stroke-width="2.41451" stroke-linecap="round" stroke-linejoin="round" />
    <path
        d="M595.415 55.3778C600.284 47.7479 590.434 54.9302 584.455 54.038C581.334 53.5721 580.306 59.0341 580.154 64.7453C581.588 62.8121 584.743 61.9707 585.949 58.9456C588.44 52.6996 593.422 58.5005 595.415 55.3778Z"
        fill="#81C127" />
    <path
        d="M580.468 73.222C580.236 70.897 580.07 67.7859 580.152 64.7453M580.152 64.7453C580.304 59.0341 581.331 53.5721 584.453 54.038C590.432 54.9302 600.282 47.7479 595.413 55.3778C593.42 58.5005 588.438 52.6996 585.947 58.9456C584.741 61.9707 581.586 62.8121 580.152 64.7453Z"
        stroke="#81C127" stroke-width="2.41451" stroke-linecap="round" stroke-linejoin="round" />
    <path
        d="M92.5003 118C95.5379 118 98.0003 115.538 98.0003 112.5C98.0003 109.463 95.5379 107 92.5003 107C89.4627 107 87.0003 109.463 87.0003 112.5C87.0003 115.538 89.4627 118 92.5003 118Z"
        fill="#02C1C1" />
    <path
        d="M117 29.0002C119.762 29.0002 122 26.7617 122 24.0002C122 21.2388 119.762 19.0002 117 19.0002C114.239 19.0002 112 21.2388 112 24.0002C112 26.7617 114.239 29.0002 117 29.0002Z"
        fill="#02C1C1" />
    <path
        d="M354 86.0002C355.105 86.0002 356 85.1048 356 84.0002C356 82.8957 355.105 82.0002 354 82.0002C352.896 82.0002 352 82.8957 352 84.0002C352 85.1048 352.896 86.0002 354 86.0002Z"
        fill="#F55376" />
    <path
        d="M387.5 101C387.776 101 388 100.776 388 100.5C388 100.224 387.776 100 387.5 100C387.224 100 387 100.224 387 100.5C387 100.776 387.224 101 387.5 101Z"
        fill="#81C127" />
    <path
        d="M524 118C526.762 118 529 115.762 529 113C529 110.239 526.762 108 524 108C521.239 108 519 110.239 519 113C519 115.762 521.239 118 524 118Z"
        fill="#02C1C1" />
    <path
        d="M673 55.0002C675.762 55.0002 678 52.7617 678 50.0002C678 47.2388 675.762 45.0002 673 45.0002C670.239 45.0002 668 47.2388 668 50.0002C668 52.7617 670.239 55.0002 673 55.0002Z"
        fill="#81C127" />
    <path
        d="M677.5 97.0002C679.433 97.0002 681 95.4332 681 93.5002C681 91.5672 679.433 90.0002 677.5 90.0002C675.567 90.0002 674 91.5672 674 93.5002C674 95.4332 675.567 97.0002 677.5 97.0002Z"
        fill="#81C127" />
    <path
        d="M669.5 88.0002C670.329 88.0002 671 87.5525 671 87.0002C671 86.448 670.329 86.0002 669.5 86.0002C668.672 86.0002 668 86.448 668 87.0002C668 87.5525 668.672 88.0002 669.5 88.0002Z"
        fill="#02C1C1" />
    <path
        d="M603 58.0002C603.553 58.0002 604 57.5525 604 57.0002C604 56.448 603.553 56.0002 603 56.0002C602.448 56.0002 602 56.448 602 57.0002C602 57.5525 602.448 58.0002 603 58.0002Z"
        fill="#F55376" />
    <path
        d="M370 56.0002C370.553 56.0002 371 55.7764 371 55.5002C371 55.2241 370.553 55.0002 370 55.0002C369.448 55.0002 369 55.2241 369 55.5002C369 55.7764 369.448 56.0002 370 56.0002Z"
        fill="#02C1C1" />
    <path
        d="M265 66.0002C265.553 66.0002 266 65.5525 266 65.0002C266 64.448 265.553 64.0002 265 64.0002C264.448 64.0002 264 64.448 264 65.0002C264 65.5525 264.448 66.0002 265 66.0002Z"
        fill="#F55376" />
    <path
        d="M144 57.0002C144.553 57.0002 145 56.5525 145 56.0002C145 55.448 144.553 55.0002 144 55.0002C143.448 55.0002 143 55.448 143 56.0002C143 56.5525 143.448 57.0002 144 57.0002Z"
        fill="#F55376" />
    <path
        d="M111 13.0002C111.553 13.0002 112 12.5525 112 12.0002C112 11.448 111.553 11.0002 111 11.0002C110.448 11.0002 110 11.448 110 12.0002C110 12.5525 110.448 13.0002 111 13.0002Z"
        fill="#F55376" />
    <path
        d="M74.5003 18.0002C75.881 18.0002 77.0003 16.881 77.0003 15.5002C77.0003 14.1195 75.881 13.0002 74.5003 13.0002C73.1196 13.0002 72.0003 14.1195 72.0003 15.5002C72.0003 16.881 73.1196 18.0002 74.5003 18.0002Z"
        fill="#02C1C1" />
    <path
        d="M14.5003 46.0002C16.4333 46.0002 18.0003 44.6571 18.0003 43.0002C18.0003 41.3434 16.4333 40.0002 14.5003 40.0002C12.5673 40.0002 11.0003 41.3434 11.0003 43.0002C11.0003 44.6571 12.5673 46.0002 14.5003 46.0002Z"
        fill="#02C1C1" />
    <path
        d="M582.5 108C584.433 108 586 106.433 586 104.5C586 102.567 584.433 101 582.5 101C580.567 101 579 102.567 579 104.5C579 106.433 580.567 108 582.5 108Z"
        fill="#81C127" />
    <path
        d="M380 111C382.209 111 384 109.209 384 107C384 104.791 382.209 103 380 103C377.791 103 376 104.791 376 107C376 109.209 377.791 111 380 111Z"
        fill="#02C1C1" />
    <path
        d="M148.5 76.0002C150.433 76.0002 152 74.6571 152 73.0002C152 71.3434 150.433 70.0002 148.5 70.0002C146.567 70.0002 145 71.3434 145 73.0002C145 74.6571 146.567 76.0002 148.5 76.0002Z"
        fill="#02C1C1" />
    <path
        d="M251 85.0002C253.209 85.0002 255 83.2094 255 81.0002C255 78.7911 253.209 77.0002 251 77.0002C248.791 77.0002 247 78.7911 247 81.0002C247 83.2094 248.791 85.0002 251 85.0002Z"
        fill="#02C1C1" />
    <path
        d="M465 98.0002C467.209 98.0002 469 96.2094 469 94.0002C469 91.7911 467.209 90.0002 465 90.0002C462.791 90.0002 461 91.7911 461 94.0002C461 96.2094 462.791 98.0002 465 98.0002Z"
        fill="#F55376" />
    <path
        d="M588.5 91.0002C590.433 91.0002 592 89.4332 592 87.5002C592 85.5672 590.433 84.0002 588.5 84.0002C586.567 84.0002 585 85.5672 585 87.5002C585 89.4332 586.567 91.0002 588.5 91.0002Z"
        fill="#02C1C1" />
    <path
        d="M687.5 69.0002C689.433 69.0002 691 67.4332 691 65.5002C691 63.5672 689.433 62.0002 687.5 62.0002C685.567 62.0002 684 63.5672 684 65.5002C684 67.4332 685.567 69.0002 687.5 69.0002Z"
        fill="#F55376" />
</svg>