<svg width="192" height="194" viewBox="0 0 192 194" fill="none" xmlns="http://www.w3.org/2000/svg">
<path d="M50.0406 110.692C50.8915 117.204 50.8964 120.742 49.006 126.784" stroke="#26306D" stroke-width="2" stroke-linecap="round" stroke-linejoin="round"/>
<path d="M45.4142 112.161C54.2545 120.724 74.1511 117.607 80.8891 108.247C62.7594 86.2468 87.1237 78.2127 85.5523 78.3096C73.09 79.078 78.7729 76.5864 60.3105 70.6975C41.848 64.8087 33.1847 84.4426 31.1029 84.0332C30.4688 83.9085 29.3807 83.9456 28.1951 84.079C26.3795 84.2833 26.1827 86.675 27.5175 87.9226C28.2943 88.6486 29.0498 89.4876 29.7526 90.4138C31.5434 92.7741 34.1687 101.268 45.4142 112.161Z" fill="#FFC805" stroke="#202020" stroke-width="2"/>
<path d="M23.9541 83.8566C24.3728 83.4766 32.013 83.8526 32.013 83.8526C30.9341 85.9523 30.8038 87.653 29.725 89.7527C29.2497 89.2278 27.9249 88.2933 27.3242 87.6302C26.8499 87.1067 23.4307 84.3315 23.9541 83.8566Z" fill="#F55376" stroke="#F55376" stroke-width="2" stroke-linecap="round"/>
<path d="M35.7712 130.645C36.1654 131.968 36.1075 133.625 33.461 134.414C30.8145 135.202 28.3495 134.768 27.9554 133.445C27.5612 132.122 29.0571 132.74 31.7036 131.952C34.3501 131.164 35.377 129.322 35.7712 130.645Z" fill="#233169"/>
<path d="M75.1442 144.567C75.5384 145.89 75.4805 147.547 72.834 148.336C70.1875 149.124 67.7226 148.69 67.3284 147.367C66.9342 146.044 68.4301 146.662 71.0766 145.874C73.7231 145.086 74.7501 143.244 75.1442 144.567Z" fill="#233169"/>
<path d="M108.427 160.196C108.822 161.519 108.764 163.176 106.117 163.965C103.471 164.753 101.006 164.319 100.612 162.996C100.217 161.673 101.713 162.291 104.36 161.503C107.006 160.714 108.033 158.872 108.427 160.196Z" fill="#233169"/>
<path d="M54.4863 124.548C54.7891 125.867 54.7267 127.524 52.6006 128.337C50.4744 129.151 48.5054 128.741 48.2027 127.422C47.8999 126.104 49.0914 126.707 51.2176 125.894C53.3437 125.08 54.1836 123.229 54.4863 124.548Z" fill="#233169"/>
<path d="M91.0078 135.325C91.3106 136.644 91.2482 138.301 89.1221 139.115C86.9959 139.928 85.0269 139.519 84.7242 138.2C84.4214 136.881 85.6129 137.484 87.739 136.671C89.8652 135.857 90.7051 134.006 91.0078 135.325Z" fill="#233169"/>
<path d="M129.184 149.188C129.486 150.507 129.424 152.164 127.298 152.978C125.172 153.791 123.203 153.382 122.9 152.063C122.597 150.744 123.789 151.348 125.915 150.534C128.041 149.721 128.881 147.87 129.184 149.188Z" fill="#233169"/>
<path d="M86.872 117.541C88.3118 126.224 87.9752 130.447 85.247 137.575" stroke="#26306D" stroke-width="2" stroke-linecap="round" stroke-linejoin="round"/>
<path d="M125.511 119.454C127.024 133.178 126.563 140.041 123.621 151.416" stroke="#26306D" stroke-width="2" stroke-linecap="round" stroke-linejoin="round"/>
<path d="M38.2092 104.173C34.3587 114.747 33.3868 118.653 34.9541 130.046" stroke="#26306D" stroke-width="2" stroke-linecap="round" stroke-linejoin="round"/>
<path d="M78.2189 110.118C73.4447 122.89 71.4243 130.138 74.5769 143.982" stroke="#26306D" stroke-width="2" stroke-linecap="round" stroke-linejoin="round"/>
<path d="M111.993 115.754C105.862 132.683 105.194 142.233 107.867 159.606" stroke="#26306D" stroke-width="2" stroke-linecap="round" stroke-linejoin="round"/>
<path d="M111.22 82.1933C120.863 90.9037 122.101 105.027 114.24 113.73C106.378 122.433 92.203 122.633 82.5599 113.923C72.9168 105.212 71.6785 91.0902 79.5396 82.3868C87.401 73.6835 101.577 73.483 111.22 82.1933Z" fill="#FFC805" stroke="#202020" stroke-width="2"/>
<path d="M149.612 81.5168C159.038 90.0314 159.777 104.575 151.263 114.002C142.748 123.428 128.204 124.168 118.778 115.653C109.352 107.138 108.612 92.5943 117.127 83.1679C125.641 73.7416 140.185 73.0024 149.612 81.5168Z" fill="#FFC805" stroke="#202020" stroke-width="2"/>
<circle cx="128.28" cy="91.0203" r="2.5" transform="rotate(2.77218 128.28 91.0203)" fill="#272F6C"/>
<circle cx="142.264" cy="91.6961" r="2.5" transform="rotate(2.77218 142.264 91.6961)" fill="#272F6C"/>
<path d="M141.699 100.684C142.046 100.701 142.317 100.997 142.267 101.341C142.174 101.975 141.988 102.594 141.713 103.175C141.349 103.947 140.836 104.64 140.204 105.214C139.572 105.787 138.833 106.231 138.03 106.519C137.226 106.807 136.374 106.934 135.521 106.893C134.669 106.852 133.832 106.643 133.061 106.278C132.289 105.914 131.596 105.401 131.022 104.769C130.449 104.137 130.005 103.398 129.717 102.595C129.5 101.989 129.374 101.356 129.343 100.715C129.326 100.368 129.625 100.1 129.972 100.117V100.117C130.319 100.133 130.583 100.429 130.608 100.776C130.642 101.251 130.741 101.72 130.902 102.17C131.134 102.817 131.492 103.413 131.955 103.923C132.417 104.433 132.976 104.846 133.598 105.14C134.22 105.434 134.895 105.602 135.582 105.635C136.269 105.669 136.957 105.566 137.605 105.334C138.252 105.102 138.848 104.744 139.358 104.281C139.868 103.819 140.281 103.26 140.575 102.638C140.779 102.206 140.922 101.749 141.002 101.279C141.061 100.937 141.352 100.668 141.699 100.684V100.684Z" fill="#272F6C"/>
<path d="M144.498 76.546C145.656 66.4235 149.711 47.4641 156.67 52.6067" stroke="#F55376" stroke-width="2" stroke-linecap="round"/>
<path d="M127.518 75.7218C127.344 65.5348 125.139 46.2723 117.716 50.7185" stroke="#F55376" stroke-width="2" stroke-linecap="round"/>
<path d="M56.9544 78.9688C56.8609 80.8995 51.5698 81.7975 49.6391 81.7041C47.7083 81.6106 46.219 79.9696 46.3124 78.0389C46.4059 76.1081 48.0469 74.6188 49.9776 74.7122C51.9084 74.8057 57.0479 77.038 56.9544 78.9688Z" fill="#5D44BD"/>
<path d="M102.454 99.4687C102.361 101.399 86.8843 98.2233 84.9535 98.1298C83.0228 98.0363 81.5334 96.3954 81.6269 94.4647C81.7204 92.5339 83.3613 91.0445 85.2921 91.138C87.2228 91.2315 102.548 97.538 102.454 99.4687Z" fill="#5D44BD"/>
<path d="M55.9544 103.469C55.8609 105.399 50.4077 105.766 48.477 105.673C46.5462 105.579 45.0568 103.938 45.1503 102.008C45.2438 100.077 46.8848 98.5875 48.8155 98.681C50.7463 98.7745 56.0479 101.538 55.9544 103.469Z" fill="#5D44BD"/>
</svg>
