<svg width="146" height="102" viewBox="0 0 146 102" fill="none" xmlns="http://www.w3.org/2000/svg">
<path d="M120.546 16.4994C120.187 13.838 123.579 12.4782 121.844 12.7124C119.179 13.0723 119.317 14.9489 117.761 15.9724C117.761 15.9724 120.863 18.8436 120.546 16.4994Z" fill="#293068"/>
<path d="M114.426 38.9411C111.809 32.069 111.545 20.0631 117.761 15.9724M117.761 15.9724C119.317 14.9489 119.179 13.0723 121.844 12.7124C123.579 12.4782 120.187 13.838 120.546 16.4994C120.863 18.8436 117.761 15.9724 117.761 15.9724Z" stroke="#293068" stroke-width="2" stroke-linejoin="round"/>
<path d="M43.1999 76.8681C43.8256 82.6446 43.4462 87.4785 42.3525 87.6648C41.2588 87.851 39.865 83.3192 39.2393 77.5426C38.6136 71.766 35.136 67.5891 40.0867 66.7459C45.0375 65.9027 42.5742 71.0915 43.1999 76.8681Z" fill="#4751A7"/>
<path d="M68.5192 77.8822C69.1449 83.6588 68.7655 88.4926 67.6718 88.6789C66.5781 88.8652 65.1843 84.3333 64.5586 78.5567C63.933 72.7802 59.8826 67.97 65.406 67.76C70.8519 66.832 67.8935 72.1056 68.5192 77.8822Z" fill="#4751A7"/>
<path d="M55.7187 22.3817C66.8087 23.6907 76.8985 29.7236 83.76 39.1821C90.4356 48.3845 93.5186 60.0939 92.3686 71.8599L50.4622 66.9134C46.1687 66.4066 41.2179 66.6218 36.2857 67.0188C31.2992 67.4203 26.4068 67.9986 22.0007 68.2601C17.5872 68.522 13.9298 68.441 11.4905 67.6124C10.2925 67.2055 9.48099 66.648 8.99445 65.949C8.51755 65.2637 8.26742 64.3194 8.428 62.9586C9.85609 50.8601 15.6584 39.7949 24.5363 32.1915C33.4115 24.5905 44.6287 21.0727 55.7187 22.3817Z" fill="#F55376" stroke="#202020" stroke-width="2"/>
<mask id="mask0_982_8453" style="mask-type:alpha" maskUnits="userSpaceOnUse" x="7" y="21" width="87" height="52">
<path d="M93.2534 72.9713C94.7096 60.6341 91.5854 48.2685 84.5679 38.5948C77.5504 28.9212 67.2145 22.7319 55.834 21.3886C44.4535 20.0453 32.9607 23.6579 23.8837 31.4318C14.8067 39.2057 8.88923 50.504 7.43296 62.8412C5.97669 75.1785 33.5857 65.9283 50.3432 67.9063C67.1006 69.8843 93.2534 72.9713 93.2534 72.9713Z" fill="white"/>
</mask>
<g mask="url(#mask0_982_8453)">
<ellipse cx="13.2934" cy="64.2036" rx="11" ry="9.5" transform="rotate(-7.69028 13.2934 64.2036)" fill="#FFE655"/>
<ellipse cx="49.6025" cy="22.9749" rx="15.5" ry="7.5" transform="rotate(-7.69028 49.6025 22.9749)" fill="#FFE655"/>
<ellipse cx="81.2869" cy="40.8974" rx="7.5" ry="10.5" transform="rotate(-7.69028 81.2869 40.8974)" fill="#FFE655"/>
<ellipse cx="19.7651" cy="41.1304" rx="8.5" ry="7.5" transform="rotate(-7.69028 19.7651 41.1304)" fill="#FFE655"/>
<ellipse cx="81.6313" cy="69.6092" rx="8" ry="6" transform="rotate(-7.69028 81.6313 69.6092)" fill="#FFE655"/>
<circle cx="45.1803" cy="64.9439" r="7.5" transform="rotate(-7.69028 45.1803 64.9439)" fill="#FFE655"/>
</g>
<path d="M55.7187 22.3817C66.8087 23.6907 76.8985 29.7236 83.76 39.1821C90.4356 48.3845 93.5186 60.0939 92.3686 71.8599L50.4622 66.9134C46.1687 66.4066 41.2179 66.6218 36.2857 67.0188C31.2992 67.4203 26.4068 67.9986 22.0007 68.2601C17.5872 68.522 13.9298 68.441 11.4905 67.6124C10.2925 67.2055 9.48099 66.648 8.99445 65.949C8.51755 65.2637 8.26742 64.3194 8.428 62.9586C9.85609 50.8601 15.6584 39.7949 24.5363 32.1915C33.4115 24.5905 44.6287 21.0727 55.7187 22.3817Z" stroke="#202020" stroke-width="2"/>
<path d="M35.6296 76.5868C36.2552 82.3634 35.8758 87.1972 34.7822 87.3835C33.6885 87.5698 32.2947 83.0379 31.669 77.2614C31.0433 71.4848 27.5657 67.3079 32.5164 66.4647C37.4672 65.6215 35.0039 70.8102 35.6296 76.5868Z" fill="#293068"/>
<path d="M60.9489 77.6009C61.5746 83.3775 61.1952 88.2114 60.1015 88.3976C59.0078 88.5839 57.614 84.0521 56.9883 78.2755C56.3626 72.4989 52.3123 67.6887 57.8357 67.4788C63.2816 66.5508 60.3232 71.8244 60.9489 77.6009Z" fill="#293068"/>
<path d="M94.8598 80.2455C95.5018 84.9999 95.145 88.9726 94.0629 89.1187C92.9808 89.2648 90.5453 85.2305 89.9033 80.4761C89.2613 75.7217 85.5115 70.1134 91.738 71.9015C95.2249 71.8689 94.2178 75.4911 94.8598 80.2455Z" fill="#293068"/>
<path d="M102.428 80.5268C103.07 85.2812 102.713 89.2538 101.631 89.4C100.549 89.5461 98.1137 85.5117 97.4717 80.7573C96.8297 76.0029 93.0799 70.3947 99.3064 72.1827C102.793 72.1502 101.786 75.7724 102.428 80.5268Z" fill="#4751A7"/>
<path d="M102.805 35.4658C114.63 33.8692 125.524 43.4268 127.106 55.139C128.673 66.7498 120.322 77.4997 108.399 79.1098C102.418 79.9174 97.1333 78.4572 93.1539 75.3839C89.1728 72.3093 86.438 67.5732 85.6478 61.7216C85.2296 58.6246 84.7143 55.6605 84.5204 52.8109C84.3277 49.9774 84.4672 47.391 85.3045 45.1162C86.9295 40.7013 91.3744 37.0094 102.805 35.4658Z" fill="#C094EF" stroke="#202020" stroke-width="2"/>
<path d="M116.278 60.8916C115.501 70.0783 120.161 70.9626 125.21 67.2536" stroke="#293068" stroke-width="2" stroke-linecap="round" stroke-linejoin="round"/>
<ellipse cx="118.837" cy="49.9495" rx="1.5" ry="4.5" transform="rotate(-7.69028 118.837 49.9495)" fill="#242D70"/>
<path d="M134.926 23.1467C136.252 21.9537 134.893 19.025 134.893 19.025C137.15 19.8116 137.097 22.4416 135.813 25.8368C135.813 25.8368 132.546 25.2867 134.926 23.1467Z" fill="#293068"/>
<path d="M123.686 44.7561C127.682 39.8868 133.591 31.715 135.813 25.8368M135.813 25.8368C137.097 22.4416 137.15 19.8116 134.893 19.025C134.893 19.025 136.252 21.9537 134.926 23.1467C132.546 25.2867 135.813 25.8368 135.813 25.8368Z" stroke="#293068" stroke-width="2" stroke-linejoin="round"/>
</svg>
