<svg width="500" height="282" viewBox="0 0 500 282" fill="none" xmlns="http://www.w3.org/2000/svg">
<path d="M0 4.99999C0 2.23857 2.23858 0 5 0H495C497.761 0 500 2.23858 500 5V281.2H0V4.99999Z" fill="#DAFFF2"/>
<mask id="mask0_982_8554" style="mask-type:alpha" maskUnits="userSpaceOnUse" x="0" y="0" width="500" height="282">
<path d="M5 0.5H495C497.485 0.5 499.5 2.51472 499.5 5V280.7H0.5V5C0.5 2.51472 2.51472 0.5 5 0.5Z" fill="white" stroke="#02C1C1"/>
</mask>
<g mask="url(#mask0_982_8554)">
<path d="M344.221 246.463C391.931 241.649 435.875 245.188 468.341 254.765C484.577 259.554 497.892 265.839 507.372 273.301C516.849 280.762 522.427 289.341 523.375 298.74C524.323 308.14 520.572 317.66 512.777 326.863C504.979 336.07 493.187 344.887 478.236 352.824C448.338 368.694 405.987 380.941 358.277 385.756C310.567 390.57 266.624 387.031 234.157 377.454C217.922 372.664 204.606 366.38 195.126 358.917C185.924 351.674 180.4 343.375 179.218 334.295C209.669 325.205 229.362 315.779 243.22 306.569C257.211 297.271 265.213 288.221 272.29 280.08C279.363 271.943 285.454 264.791 295.687 259.033C305.926 253.272 320.391 248.868 344.221 246.463Z" fill="#81C127" stroke="#202020" stroke-width="2"/>
<path d="M38.4203 218.456C96.5461 230.17 147.572 248.495 183.077 268.623C200.834 278.69 214.659 289.179 223.554 299.477C232.46 309.787 236.307 319.759 234.472 328.865C232.637 337.971 225.228 345.673 213.023 351.729C200.834 357.778 184.026 362.094 163.755 364.496C123.225 369.301 69.0849 366.431 10.9592 354.717C-47.1665 343.002 -98.1923 324.678 -133.698 304.549C-151.455 294.483 -165.279 283.993 -174.174 273.696C-183.08 263.385 -186.928 253.414 -185.092 244.308C-183.257 235.202 -175.848 227.499 -163.644 221.443C-151.454 215.395 -134.646 211.079 -114.376 208.676C-73.8459 203.872 -19.7054 206.742 38.4203 218.456Z" fill="#81C127" stroke="#202020" stroke-width="2"/>
<g data-slot-id="butterfly">
<path d="M363.699 71.4714C369.162 56.024 398.695 64.2565 398.695 64.2565L438.346 81.812C438.346 81.812 443.105 103.733 438.346 108.434C433.588 113.135 418.314 114.169 412.497 112.935C405.403 111.431 400.493 87.61 400.493 87.61C400.493 87.61 398.084 106.355 387.765 108.434C373.132 111.382 357.854 87.9987 363.699 71.4714Z" fill="white" stroke="white" stroke-width="0.75" stroke-linejoin="round"/>
<path d="M379.086 36.8698C374.908 52.712 403.951 62.5312 403.951 62.5312L446.605 70.3401C446.605 70.3401 461.865 57.5945 460.274 46.8702C458.951 37.9487 449.931 30.3138 441.635 31.7638C434.492 33.0124 420.936 41.5773 420.936 41.5773C420.936 41.5773 427.14 27.3932 419.781 19.8669C409.345 9.19398 383.556 19.9201 379.086 36.8698Z" fill="white" stroke="white" stroke-width="0.75" stroke-linejoin="round"/>
<path d="M362.869 58.2735C359.55 58.5947 352.961 59.9657 353.152 62.8797C353.343 65.7936 362.869 58.2735 362.869 58.2735Z" fill="white" stroke="white" stroke-width="0.75" stroke-linecap="round" stroke-linejoin="round"/>
<path d="M364.924 46.3786C361.892 44.9916 356.111 41.5445 357.243 38.8526C358.375 36.1607 364.924 46.3786 364.924 46.3786Z" fill="white" stroke="white" stroke-width="0.75" stroke-linecap="round" stroke-linejoin="round"/>
<path d="M452.73 79.5054C455.839 78.301 467.356 76.7403 468.494 79.4293C469.633 82.1183 452.73 79.5054 452.73 79.5054Z" fill="white" stroke="white" stroke-width="0.75" stroke-linecap="round" stroke-linejoin="round"/>
<path d="M451.419 81.2664C454.421 82.718 463.418 90.0732 462.229 92.7403C461.04 95.4073 451.419 81.2664 451.419 81.2664Z" fill="white" stroke="white" stroke-width="0.75" stroke-linecap="round" stroke-linejoin="round"/>
<circle cx="365.829" cy="58.204" r="2.70574" transform="rotate(-25.3617 365.829 58.204)" fill="white"/>
<circle cx="368.057" cy="48.1649" r="2.70574" transform="rotate(-25.3617 368.057 48.1649)" fill="white"/>
<path d="M371.421 53.723C366.166 60.8227 418.246 79.3068 431.763 82.3639C445.281 85.4209 450.527 80.1026 450.527 80.1026C450.527 80.1026 450.526 71.0869 439.28 67.3649L439.192 67.3359C427.769 63.5554 376.662 46.6415 371.421 53.723Z" fill="white" stroke="white" stroke-width="0.75" stroke-linejoin="round"/>
<circle cx="415.993" cy="99.8032" r="1.35287" transform="rotate(-25.3617 415.993 99.8032)" fill="white"/>
<circle cx="420.37" cy="102.721" r="1.35287" transform="rotate(-25.3617 420.37 102.721)" fill="white"/>
<circle cx="421.364" cy="98.1313" r="1.35287" transform="rotate(-25.3617 421.364 98.1313)" fill="white"/>
<circle cx="448.07" cy="51.6586" r="1.35287" transform="rotate(-25.3617 448.07 51.6586)" fill="white"/>
<circle cx="444.937" cy="47.1547" r="1.35287" transform="rotate(-25.3617 444.937 47.1547)" fill="white"/>
<circle cx="444.036" cy="51.5766" r="1.35287" transform="rotate(-25.3617 444.036 51.5766)" fill="white"/>
<ellipse cx="380.505" cy="92.2127" rx="5.68133" ry="6.59035" transform="rotate(-175.522 380.505 92.2127)" fill="white"/>
<ellipse cx="406.802" cy="29.9823" rx="5.68133" ry="6.59035" transform="rotate(-175.522 406.802 29.9823)" fill="white"/>
</g>
<path d="M171.765 57.4171C169.671 64.4909 171.329 76.3279 176.855 80.0579C183.111 84.2803 193.794 80.7198 197.889 80.283C201.916 79.8534 206.02 79.977 210.019 79.3407C213.746 78.7478 213.804 76.3021 217.402 75.2051C221.176 74.0543 229.419 57.4171 221.803 57.4171C216.202 57.4171 222.917 53.4926 222.497 50.7724C221.925 47.0646 218.659 44.9848 214.903 44.884C212.205 44.8116 208.565 47.6466 208.565 47.6466C208.565 47.6466 211.077 43.2121 209.788 40.8413C208.03 37.6066 203.662 38.7118 200.358 40.3528C197.655 41.6954 195.399 46.2777 195.399 46.2777C195.399 46.2777 194.903 42.6551 193.255 41.3585C190.069 38.8512 184.851 42.2287 184.056 46.2052C183.692 48.022 184.838 50.8821 184.838 50.8821C184.838 50.8821 181.22 49.3187 178.882 49.715C174.844 50.3997 172.927 53.4937 171.765 57.4171Z" fill="#81C127" stroke="#202020" stroke-width="2" stroke-linejoin="round"/>
<g data-slot-id="snail">
<path d="M438.115 189.679C430.118 189.207 422.106 193.465 415.865 201.641C409.702 209.713 405.802 220.916 405.016 232.841L435.315 237.095L467.397 236.526C467.982 224.63 463.992 212.957 458.802 204.178C453.566 195.324 446.112 190.152 438.115 189.679Z" fill="white" stroke="white"/>
<path d="M452.05 233.576C464.835 223.724 455.762 196.233 439.649 195.283C433.298 194.909 422.556 195.753 418.674 205.058C413.332 217.864 427.268 237.621 442.244 229.992C457.22 222.362 452.712 205.402 442.29 201.449C420.38 193.138 419.079 222.175 428.983 223.198C435.71 223.892 444.524 220.76 443.687 214.049C443.191 210.073 441.116 206.654 437.142 206.149C432.062 205.504 424.373 215.573 429.367 216.709C432.65 217.455 435.612 216.121 437.228 213.166" stroke="white" stroke-linecap="round"/>
<path d="M407.069 231.911C411.696 234.989 448.42 235.523 465.459 235.361C469.128 232.611 471.925 241.215 464.547 250.798C455.324 262.775 398.714 252.02 394.94 242.221C392.769 236.583 371.537 202.774 370.233 194.147C365.07 171.335 392.2 161.904 400.474 190.95C403.378 201.143 401.286 228.063 407.069 231.911Z" fill="white" stroke="white"/>
<path d="M459.785 250.227C452.47 254.782 453.714 256.077 442.501 252.996L443.473 247.039C451.958 246.204 467.1 245.673 459.785 250.227Z" fill="white" stroke="white"/>
</g>    
<path d="M437.716 249.747C431.354 255.558 439.17 252.15 427.583 251.163L427.371 251.078C425.608 250.367 425.756 247.892 427.611 247.481C435.088 245.823 442.756 245.144 437.716 249.747Z" fill="white" stroke="white"/>
<path d="M420.998 248.167C412.998 249.496 422.17 249.154 410.583 248.167L410.371 248.082C408.608 247.371 408.821 245.176 410.72 245.1C418.792 244.777 427.772 247.042 420.998 248.167Z" fill="white" stroke="white"/>
<mask id="path-29-outside-1_982_8554" maskUnits="userSpaceOnUse" x="374.725" y="187.455" width="14.3886" height="7.81372" fill="black">
<rect fill="white" x="374.725" y="187.455" width="14.3886" height="7.81372"/>
<path d="M376.557 188.04C376.308 188.025 376.093 188.215 376.1 188.464C376.14 189.762 376.679 191.016 377.631 191.999C378.694 193.095 380.183 193.763 381.772 193.857C383.36 193.951 384.918 193.463 386.102 192.5C387.163 191.636 387.847 190.454 388.039 189.17C388.076 188.923 387.884 188.709 387.635 188.694V188.694C387.386 188.68 387.175 188.87 387.134 189.116C386.958 190.181 386.383 191.159 385.499 191.878C384.493 192.696 383.17 193.111 381.82 193.031C380.471 192.952 379.206 192.384 378.303 191.453C377.511 190.635 377.055 189.596 377.005 188.517C376.993 188.268 376.806 188.054 376.557 188.04V188.04Z"/>
</mask>
<path d="M376.557 188.04C376.308 188.025 376.093 188.215 376.1 188.464C376.14 189.762 376.679 191.016 377.631 191.999C378.694 193.095 380.183 193.763 381.772 193.857C383.36 193.951 384.918 193.463 386.102 192.5C387.163 191.636 387.847 190.454 388.039 189.17C388.076 188.923 387.884 188.709 387.635 188.694V188.694C387.386 188.68 387.175 188.87 387.134 189.116C386.958 190.181 386.383 191.159 385.499 191.878C384.493 192.696 383.17 193.111 381.82 193.031C380.471 192.952 379.206 192.384 378.303 191.453C377.511 190.635 377.055 189.596 377.005 188.517C376.993 188.268 376.806 188.054 376.557 188.04V188.04Z" fill="white"/>
<path d="M376.557 188.04C376.308 188.025 376.093 188.215 376.1 188.464C376.14 189.762 376.679 191.016 377.631 191.999C378.694 193.095 380.183 193.763 381.772 193.857C383.36 193.951 384.918 193.463 386.102 192.5C387.163 191.636 387.847 190.454 388.039 189.17C388.076 188.923 387.884 188.709 387.635 188.694V188.694C387.386 188.68 387.175 188.87 387.134 189.116C386.958 190.181 386.383 191.159 385.499 191.878C384.493 192.696 383.17 193.111 381.82 193.031C380.471 192.952 379.206 192.384 378.303 191.453C377.511 190.635 377.055 189.596 377.005 188.517C376.993 188.268 376.806 188.054 376.557 188.04V188.04Z" stroke="white" stroke-width="0.5" mask="url(#path-29-outside-1_982_8554)"/>
<path d="M391.851 158.892C390.991 156.125 385.54 153.092 384.224 154.645C380.845 158.633 389.357 159.684 391.851 158.892Z" fill="white"/>
<path d="M389.938 174.307C389.635 169.292 393.199 163.227 391.851 158.892M391.851 158.892C390.991 156.125 385.54 153.092 384.224 154.645C380.845 158.633 389.357 159.684 391.851 158.892Z" stroke="white" stroke-linecap="round"/>
<path d="M368.832 158.538C369.17 155.557 374.434 153.111 376.049 154.452C380.195 157.895 371.484 158.885 368.832 158.538Z" fill="white"/>
<path d="M374.046 175.556C373.399 170.386 368.301 163.207 368.832 158.538M368.832 158.538C369.17 155.557 374.434 153.111 376.049 154.452C380.195 157.895 371.484 158.885 368.832 158.538Z" stroke="white" stroke-linecap="round"/>
<circle cx="2" cy="2" r="2" transform="matrix(-0.998258 -0.0589938 -0.0589938 0.998258 387.648 179.18)" fill="white"/>
<circle cx="2" cy="2" r="2" transform="matrix(-0.998258 -0.0589938 -0.0589938 0.998258 380.66 178.766)" fill="white"/>
<path d="M54.5882 202.724C55.439 209.236 55.444 212.773 53.5535 218.815" stroke="white" stroke-linecap="round" stroke-linejoin="round"/>
<path d="M49.9598 204.196C58.8001 212.759 78.6968 209.642 85.4348 200.282C67.305 178.282 91.6693 170.248 90.0979 170.345C77.6356 171.113 83.3185 168.622 64.8561 162.733C46.3936 156.844 37.7304 176.478 35.6485 176.068C35.0144 175.944 33.9263 175.981 32.7408 176.114C30.9252 176.318 30.7283 178.71 32.0631 179.958C32.8399 180.684 33.5954 181.523 34.2982 182.449C36.089 184.809 38.7143 193.303 49.9598 204.196Z" fill="white" stroke="white"/>
<path d="M28.4997 175.888C28.9184 175.508 36.5586 175.884 36.5586 175.884C35.4797 177.984 35.3495 179.684 34.2706 181.784C33.7954 181.259 32.4705 180.325 31.8698 179.661C31.3955 179.138 27.9763 176.363 28.4997 175.888Z" fill="white" stroke="white" stroke-linecap="round"/>
<path d="M40.3188 222.676C40.7129 223.999 40.6551 225.657 38.0085 226.445C35.362 227.233 32.8971 226.8 32.5029 225.476C32.1088 224.153 33.6046 224.772 36.2511 223.983C38.8976 223.195 39.9246 221.353 40.3188 222.676Z" fill="white"/>
<path d="M79.6899 236.598C80.084 237.921 80.0261 239.579 77.3796 240.367C74.7331 241.155 72.2682 240.722 71.874 239.398C71.4799 238.075 72.9757 238.693 75.6222 237.905C78.2687 237.117 79.2957 235.275 79.6899 236.598Z" fill="white"/>
<path d="M112.973 252.231C113.367 253.554 113.309 255.211 110.663 256C108.016 256.788 105.551 256.354 105.157 255.031C104.763 253.708 106.259 254.326 108.905 253.538C111.552 252.75 112.579 250.908 112.973 252.231Z" fill="white"/>
<path d="M59.0319 216.579C59.3347 217.898 59.2724 219.555 57.1462 220.369C55.0201 221.182 53.051 220.772 52.7483 219.454C52.4456 218.135 53.637 218.738 55.7632 217.925C57.8893 217.111 58.7292 215.26 59.0319 216.579Z" fill="white"/>
<path d="M95.5534 227.356C95.8562 228.675 95.7938 230.332 93.6677 231.146C91.5415 231.959 89.5725 231.55 89.2698 230.231C88.967 228.912 90.1585 229.516 92.2847 228.702C94.4108 227.889 95.2507 226.038 95.5534 227.356Z" fill="white"/>
<path d="M133.731 241.22C134.034 242.539 133.972 244.196 131.845 245.009C129.719 245.823 127.75 245.413 127.448 244.094C127.145 242.775 128.336 243.379 130.462 242.565C132.589 241.752 133.428 239.901 133.731 241.22Z" fill="white"/>
<path d="M91.4196 209.572C92.8594 218.255 92.5228 222.478 89.7946 229.606" stroke="white" stroke-linecap="round" stroke-linejoin="round"/>
<path d="M130.058 211.486C131.572 225.209 131.111 232.072 128.169 243.447" stroke="white" stroke-linecap="round" stroke-linejoin="round"/>
<path d="M42.7568 196.204C38.9063 206.778 37.9344 210.685 39.5016 222.077" stroke="white" stroke-linecap="round" stroke-linejoin="round"/>
<path d="M82.7645 202.15C77.9903 214.922 75.9699 222.17 79.1225 236.013" stroke="white" stroke-linecap="round" stroke-linejoin="round"/>
<path d="M116.538 207.789C110.407 224.718 109.739 234.268 112.413 251.641" stroke="white" stroke-linecap="round" stroke-linejoin="round"/>
<g data-slot-id="ant">
<path d="M116.103 173.854C125.92 182.721 127.231 197.159 119.158 206.096C111.085 215.034 96.5898 215.193 86.7724 206.325C76.9549 197.457 75.6435 183.02 83.7161 174.083C91.7891 165.145 106.285 164.986 116.103 173.854Z" fill="white" stroke="white"/>
<path d="M154.495 173.181C164.126 181.881 164.881 196.741 156.182 206.372C147.482 216.003 132.622 216.759 122.99 208.059C113.359 199.359 112.604 184.499 121.303 174.868C130.003 165.237 144.863 164.481 154.495 173.181Z" fill="white" stroke="white"/>
<circle cx="132.825" cy="183.052" r="2.5" transform="rotate(2.77218 132.825 183.052)" fill="white"/>
<circle cx="146.81" cy="183.727" r="2.5" transform="rotate(2.77218 146.81 183.727)" fill="white"/>
<path d="M146.245 192.716C146.592 192.733 146.863 193.028 146.813 193.372C146.72 194.007 146.534 194.625 146.259 195.207C145.895 195.979 145.382 196.671 144.75 197.245C144.118 197.819 143.379 198.262 142.575 198.55C141.772 198.838 140.919 198.965 140.067 198.924C139.214 198.883 138.378 198.674 137.606 198.31C136.834 197.945 136.142 197.432 135.568 196.8C134.994 196.168 134.551 195.429 134.263 194.626C134.045 194.02 133.92 193.387 133.889 192.747C133.872 192.399 134.17 192.131 134.518 192.148V192.148C134.865 192.165 135.129 192.461 135.154 192.807C135.188 193.282 135.286 193.751 135.448 194.201C135.68 194.849 136.038 195.444 136.5 195.954C136.963 196.464 137.521 196.877 138.144 197.171C138.766 197.465 139.44 197.633 140.128 197.667C140.815 197.7 141.502 197.597 142.15 197.365C142.798 197.133 143.394 196.775 143.904 196.313C144.413 195.85 144.827 195.292 145.121 194.669C145.325 194.237 145.468 193.78 145.548 193.311C145.606 192.968 145.898 192.699 146.245 192.716V192.716Z" fill="white"/>
<path d="M149.046 168.577C150.204 158.455 154.259 139.495 161.218 144.638" stroke="white" stroke-linecap="round"/>
</g>
<path d="M132.065 167.753C131.891 157.566 129.687 138.304 122.263 142.75" stroke="white" stroke-linecap="round"/>
<path d="M61.5 171C61.4065 172.931 56.1154 173.829 54.1847 173.735C52.254 173.642 50.7646 172.001 50.8581 170.07C50.9516 168.139 52.5925 166.65 54.5232 166.743C56.454 166.837 61.5935 169.069 61.5 171Z" fill="white"/>
<path d="M107 191.5C106.907 193.431 91.4299 190.255 89.4991 190.161C87.5684 190.068 86.079 188.427 86.1725 186.496C86.266 184.565 87.907 183.076 89.8377 183.169C91.7684 183.263 107.093 189.569 107 191.5Z" fill="white"/>
<path d="M60.5 195.504C60.4065 197.435 54.9533 197.801 53.0226 197.708C51.0919 197.614 49.6025 195.974 49.696 194.043C49.7894 192.112 51.4304 190.623 53.3611 190.716C55.2919 190.81 60.5935 193.573 60.5 195.504Z" fill="white"/>
<path d="M219 86.5V77.6399C219 76.3146 217.736 75.3505 216.454 75.6883C211.673 76.9486 201.394 79.4987 196.5 79.4987C190 79.4987 155.671 88.5 138 88.5C96.0752 88.5 32 87.6392 32 82.8196C32 78 -6 78 -6 78V113.5C-6 113.5 54.5 98.2341 66 108.867C77.5 119.5 149 97 169.5 92.5C183.174 89.4983 191 88.5 201.5 88.5H217.002C218.107 88.5 219 87.6046 219 86.5Z" fill="#409F5C" stroke="#202020" stroke-width="2" stroke-linecap="round"/>
<path d="M140.546 15.504C140.187 12.8426 143.579 11.4827 141.844 11.717C139.179 12.0769 139.317 13.9535 137.761 14.9769C137.761 14.9769 140.863 17.8482 140.546 15.504Z" fill="white"/>
<path d="M134.426 37.9457C131.809 31.0736 131.545 19.0677 137.761 14.9769M137.761 14.9769C139.317 13.9535 139.179 12.0769 141.844 11.717C143.579 11.4827 140.187 12.8426 140.546 15.504C140.863 17.8482 137.761 14.9769 137.761 14.9769Z" stroke="white" stroke-width="0.75" stroke-linejoin="round"/>
<path d="M63.1999 75.8726C63.8256 81.6492 63.4462 86.4831 62.3525 86.6693C61.2588 86.8556 59.865 82.3238 59.2393 76.5472C58.6136 70.7706 55.136 66.5937 60.0867 65.7505C65.0375 64.9073 62.5742 70.096 63.1999 75.8726Z" fill="white"/>
<path d="M88.5192 76.8868C89.1449 82.6633 88.7655 87.4972 87.6718 87.6835C86.5781 87.8697 85.1843 83.3379 84.5586 77.5613C83.933 71.7847 79.8826 66.9746 85.406 66.7646C90.8519 65.8366 87.8935 71.1102 88.5192 76.8868Z" fill="white"/>
<path d="M75.7753 20.8858C87.0106 22.212 97.2239 28.3233 104.163 37.8894C111.01 47.3273 114.111 59.364 112.809 71.4163L70.4017 66.4106C66.1603 65.9099 61.2513 66.1213 56.3242 66.5179C51.3699 66.9168 46.4351 67.4983 42.0283 67.7598C37.6178 68.0216 33.8698 67.9504 31.3274 67.0867C30.067 66.6586 29.1496 66.05 28.5822 65.2346C28.0197 64.4261 27.7582 63.3521 27.9295 61.9007C29.3717 49.683 35.2312 38.5011 44.2085 30.8124C53.1845 23.125 64.5401 19.5596 75.7753 20.8858Z" fill="white" stroke="white"/>
<mask id="mask1_982_8554" style="mask-type:alpha" maskUnits="userSpaceOnUse" x="27" y="20" width="87" height="52">
<path d="M113.253 71.9759C114.71 59.6386 111.585 47.2731 104.568 37.5994C97.5504 27.9258 87.2145 21.7365 75.834 20.3932C64.4535 19.0498 52.9607 22.6625 43.8837 30.4364C34.8067 38.2102 28.8892 49.5085 27.433 61.8458C25.9767 74.1831 53.5857 64.9328 70.3432 66.9109C87.1006 68.8889 113.253 71.9759 113.253 71.9759Z" fill="white"/>
</mask>
<g mask="url(#mask1_982_8554)">
<ellipse cx="33.2934" cy="63.2082" rx="11" ry="9.5" transform="rotate(-7.69028 33.2934 63.2082)" fill="white"/>
<ellipse cx="69.6025" cy="21.9795" rx="15.5" ry="7.5" transform="rotate(-7.69028 69.6025 21.9795)" fill="white"/>
<ellipse cx="101.287" cy="39.898" rx="7.5" ry="10.5" transform="rotate(-7.69028 101.287 39.898)" fill="white"/>
<ellipse cx="39.7651" cy="40.1349" rx="8.5" ry="7.5" transform="rotate(-7.69028 39.7651 40.1349)" fill="white"/>
<ellipse cx="101.631" cy="68.6099" rx="8" ry="6" transform="rotate(-7.69028 101.631 68.6099)" fill="white"/>
<circle cx="65.1803" cy="63.9484" r="7.5" transform="rotate(-7.69028 65.1803 63.9484)" fill="white"/>
</g>
<path d="M75.7773 20.8897C87.0125 22.2159 97.2258 28.3272 104.165 37.8933C111.012 47.3312 114.113 59.3679 112.811 71.4202L70.4036 66.4145C66.1622 65.9138 61.2533 66.1252 56.3262 66.5218C51.3719 66.9207 46.4371 67.5022 42.0303 67.7638C37.6198 68.0255 33.8717 67.9543 31.3294 67.0906C30.069 66.6625 29.1516 66.0539 28.5842 65.2385C28.0216 64.43 27.7602 63.356 27.9314 61.9046C29.3736 49.6869 35.2332 38.505 44.2104 30.8163C53.1865 23.1289 64.542 19.5636 75.7773 20.8897Z" fill="white" stroke="white"/>
<path d="M55.6296 75.5914C56.2552 81.368 55.8758 86.2018 54.7822 86.3881C53.6885 86.5744 52.2947 82.0425 51.669 76.2659C51.0433 70.4894 47.5657 66.3124 52.5164 65.4692C57.4672 64.626 55.0039 69.8148 55.6296 75.5914Z" fill="white"/>
<path d="M80.9489 76.6055C81.5746 82.3821 81.1952 87.2159 80.1015 87.4022C79.0078 87.5885 77.614 83.0566 76.9883 77.2801C76.3626 71.5035 72.3123 66.6933 77.8357 66.4834C83.2816 65.5553 80.3232 70.8289 80.9489 76.6055Z" fill="white"/>
<path d="M114.858 79.2501C115.5 84.0045 115.143 87.9772 114.061 88.1233C112.979 88.2694 110.543 84.2351 109.901 79.4807C109.259 74.7262 105.51 69.118 111.736 70.906C115.223 70.8735 114.216 74.4957 114.858 79.2501Z" fill="white"/>
<path d="M122.428 79.5313C123.07 84.2858 122.713 88.2584 121.631 88.4045C120.549 88.5507 118.114 84.5163 117.472 79.7619C116.83 75.0075 113.08 69.3992 119.306 71.1873C122.793 71.1547 121.786 74.7769 122.428 79.5313Z" fill="white"/>
<path d="M122.738 33.9749C134.875 32.336 145.988 42.1313 147.601 54.0766C149.207 65.9713 140.652 76.9642 128.466 78.6099C122.363 79.4339 116.942 77.9456 112.849 74.7845C108.755 71.6226 105.959 66.7636 105.152 60.7931C104.738 57.7223 104.217 54.7209 104.021 51.8493C103.827 48.9858 103.963 46.318 104.836 43.9476C106.556 39.2742 111.236 35.5282 122.738 33.9749Z" fill="white" stroke="white"/>
<path d="M136.278 59.8962C135.501 69.0829 140.161 69.9672 145.21 66.2582" stroke="white" stroke-linecap="round" stroke-linejoin="round"/>
<ellipse cx="138.837" cy="48.9541" rx="1.5" ry="4.5" transform="rotate(-7.69028 138.837 48.9541)" fill="white"/>
<path d="M154.924 22.1512C156.25 20.9582 154.891 18.0296 154.891 18.0296C157.148 18.8162 157.095 21.4462 155.811 24.8414C155.811 24.8414 152.544 24.2913 154.924 22.1512Z" fill="white"/>
<path d="M143.684 43.7607C147.68 38.8914 153.589 30.7196 155.811 24.8414M155.811 24.8414C157.095 21.4462 157.148 18.8162 154.891 18.0296C154.891 18.0296 156.25 20.9582 154.924 22.1512C152.544 24.2913 155.811 24.8414 155.811 24.8414Z" stroke="white" stroke-width="0.75" stroke-linejoin="round"/>
<path d="M0.82687 265.564C-4.20426 276.252 -3.79063 297.618 -3.79063 297.618C-3.79063 297.618 35.0921 299.731 41.0763 297.618C47.2185 295.448 48.115 295.509 54.4695 294.074C60.372 292.742 66.4318 294.971 72.4153 294.074C78.6913 293.134 77.4009 280.515 77.4009 280.515C77.4009 280.515 83.0856 271.258 83.0724 266.863C83.0543 260.873 78.3618 256.828 72.4153 255.795C68.144 255.054 61.6768 258.686 61.6768 258.686C61.6768 258.686 66.7367 252.265 65.2576 248.22C63.2395 242.701 56.0308 243.431 50.3837 245.255C45.7634 246.748 41.0763 253.462 41.0763 253.462C41.0763 253.462 41.1577 247.624 38.8503 245.193C34.388 240.491 25.2818 244.613 23.0606 250.71C22.0458 253.496 23.1789 258.28 23.1789 258.28C23.1789 258.28 17.8041 254.969 13.9923 255.052C7.40776 255.194 3.61735 259.636 0.82687 265.564Z" fill="#409F5C" stroke="#202020" stroke-width="2" stroke-linejoin="round"/>
<path d="M225.77 110.993C237.308 107.007 249.432 112.112 252.931 122.241C256.43 132.369 250.043 143.869 238.504 147.855C226.966 151.841 214.842 146.736 211.343 136.608C207.844 126.479 214.232 114.979 225.77 110.993Z" fill="white" stroke="white"/>
<path d="M265.511 143.922C252.076 150.283 264.764 157.522 262.226 157.189L259.041 160.928" stroke="white" stroke-linecap="round"/>
<path d="M302.859 129.518C295.341 147.934 309.631 140.873 307.35 143.091L302.996 146.837" stroke="white" stroke-linecap="round"/>
<path d="M257.751 141.815C248.829 149.84 253.474 153.06 255.703 153.744L252.149 157.653" stroke="white" stroke-linecap="round"/>
<path d="M297.138 134.695C288.216 142.72 292.86 145.94 295.09 146.624L292.759 149.092" stroke="white" stroke-linecap="round"/>
<path d="M270.409 100.86C278.678 98.0031 286.94 97.7292 293.604 99.5709C300.27 101.414 305.289 105.354 307.203 110.896C309.117 116.437 307.601 122.635 303.494 128.2C299.388 133.762 292.719 138.646 284.45 141.503C276.181 144.359 267.92 144.633 261.256 142.791C254.589 140.949 249.571 137.009 247.656 131.467C245.742 125.925 247.258 119.727 251.365 114.163C255.472 108.6 262.141 103.716 270.409 100.86Z" fill="white" stroke="white"/>
<path d="M300.934 110.775C301.345 109.75 302.55 109.239 303.328 110.023C304.153 110.856 304.756 112.012 305.069 113.403C305.564 115.602 305.293 118.208 304.316 120.647C303.339 123.086 301.736 125.158 299.859 126.407C298.673 127.198 297.438 127.618 296.267 127.65C295.163 127.681 294.643 126.479 295.054 125.453L297.994 118.114L300.934 110.775Z" fill="white"/>
<path d="M213.406 103.625C216.605 102.251 212.824 98.5125 210.531 99.5106C208.237 100.509 208.795 105.604 213.406 103.625Z" fill="white"/>
<path d="M217.557 115.642C219.222 111.311 217.138 106.109 213.406 103.625M213.406 103.625C216.605 102.251 212.824 98.5125 210.531 99.5106C208.237 100.509 208.795 105.604 213.406 103.625Z" stroke="white" stroke-linecap="round"/>
<path d="M204.728 116.267C201.956 117.561 200.205 112.111 202.46 111.124C205.612 109.745 207.848 114.807 204.728 116.267Z" fill="white"/>
<path d="M210.458 127.617C206.939 125.686 204.154 120.747 204.728 116.267M204.728 116.267C201.956 117.561 200.205 112.111 202.46 111.124C205.612 109.745 207.848 114.807 204.728 116.267Z" stroke="white" stroke-linecap="round"/>
<path d="M295.946 60.7064C280.499 50.0055 257.307 69.621 244.499 87.5039C231.691 105.387 250.698 118.662 250.698 118.662L303.156 104.9C308.32 96.7069 311.153 71.2408 295.946 60.7064Z" fill="white" stroke="white" stroke-linecap="round"/>
<circle cx="220.451" cy="128.297" r="4" transform="rotate(-23.2366 220.451 128.297)" fill="white"/>
<path d="M225.38 137.271C225.638 137.16 225.941 137.279 226.01 137.551C226.097 137.896 226.128 138.258 226.101 138.627C226.062 139.172 225.897 139.722 225.617 140.247C225.337 140.771 224.947 141.26 224.469 141.684C223.991 142.108 223.434 142.459 222.831 142.718C222.227 142.977 221.589 143.139 220.952 143.193C220.316 143.248 219.693 143.195 219.12 143.037C218.547 142.878 218.034 142.619 217.612 142.272C217.326 142.037 217.085 141.766 216.895 141.465C216.745 141.228 216.867 140.926 217.126 140.815V140.815C217.384 140.704 217.679 140.827 217.839 141.058C217.98 141.264 218.153 141.451 218.353 141.615C218.689 141.891 219.097 142.098 219.554 142.224C220.01 142.35 220.506 142.392 221.013 142.349C221.521 142.305 222.029 142.177 222.51 141.97C222.99 141.764 223.434 141.484 223.814 141.146C224.195 140.808 224.506 140.42 224.729 140.002C224.952 139.584 225.083 139.146 225.115 138.711C225.133 138.453 225.117 138.2 225.065 137.956C225.007 137.681 225.121 137.382 225.38 137.271V137.271Z" fill="white"/>
<path d="M285.036 65.7243C279.566 71.7703 278.272 76.2409 269.255 79.1523C265.985 80.208 263.494 75.5701 266.385 73.7143C279.711 65.1603 291.968 58.0618 285.036 65.7243Z" fill="white"/>
<circle cx="4" cy="4" r="4" transform="matrix(-0.838973 0.544173 0.544173 0.838973 259.711 78.0039)" fill="white"/>
<path d="M318.549 221.192C318.549 221.192 321.499 200.576 265.475 209.947L267.781 231.892C321.22 235.905 318.549 221.192 318.549 221.192Z" fill="white" stroke="white" stroke-linecap="round"/>
<path d="M183.972 222.057C183.972 222.057 183.17 204.207 237.046 210.814L235.786 234.652C182.347 238.663 183.972 222.057 183.972 222.057Z" fill="white" stroke="white" stroke-linecap="round"/>
<path d="M250.164 194.5C255.475 194.5 260.338 197.621 263.895 202.777C267.449 207.932 269.664 215.08 269.664 223C269.664 230.92 267.449 238.068 263.895 243.223C260.338 248.379 255.475 251.5 250.164 251.5C244.853 251.5 239.99 248.379 236.434 243.223C232.879 238.068 230.664 230.92 230.664 223C230.664 215.08 232.879 207.932 236.434 202.777C239.99 197.621 244.853 194.5 250.164 194.5Z" fill="white" stroke="white"/>
<path d="M258.664 197.046C258.664 192.046 258.164 182.246 256.164 183.046" stroke="white" stroke-linecap="round"/>
<circle cx="255.664" cy="183.5" r="1" fill="white" stroke="white"/>
<path d="M240.664 197.999C240.664 192.999 241.164 183.199 243.164 183.999" stroke="white" stroke-linecap="round"/>
<circle cx="243.664" cy="183.5" r="1" fill="white" stroke="white"/>
<path d="M248.023 251.5C244.466 256.248 244.157 259.089 248.023 264.5C248.023 264.5 248.078 265.113 248.023 265.5C247.694 267.836 242.523 268 242.523 268M253.523 251.5C256.352 256.597 256.007 259.407 253.523 264.5C253.523 264.5 253.469 265.113 253.523 265.5C253.853 267.836 259.023 268 259.023 268" stroke="white" stroke-linecap="round"/>
<path d="M240.5 248C237.2 253.072 236.221 255.93 240.5 261C240.5 261 240.555 261.613 240.5 262C240.171 264.336 235 264.5 235 264.5" stroke="white" stroke-linecap="round"/>
<path d="M261.023 247C264.037 252.377 264.764 255.312 261.023 260C261.023 260 260.969 260.613 261.023 261C261.353 263.336 266.523 263.5 266.523 263.5" stroke="white" stroke-linecap="round"/>
<path d="M237.165 231.268C238.673 231.159 242.051 230.85 242.298 231.872" stroke="white" stroke-linecap="round"/>
<path d="M237.165 225.268C238.673 225.159 242.051 224.85 242.298 225.872" stroke="white" stroke-linecap="round"/>
<path d="M261.36 231.268C259.852 231.159 256.474 230.85 256.228 231.872" stroke="white" stroke-linecap="round"/>
<path d="M261.36 225.268C259.852 225.159 256.474 224.85 256.228 225.872" stroke="white" stroke-linecap="round"/>
<path d="M245.98 206.5C246.081 206.5 246.164 206.417 246.162 206.316C246.136 205.189 245.876 204.118 245.432 203.318C244.963 202.474 244.327 202 243.664 202C243.001 202 242.365 202.474 241.896 203.318C241.452 204.118 241.192 205.189 241.166 206.316C241.164 206.417 241.247 206.5 241.349 206.5C241.45 206.5 241.533 206.417 241.535 206.316C241.561 205.365 241.782 204.463 242.157 203.788C242.557 203.068 243.099 203.318 243.664 203.318C244.229 203.318 244.771 203.068 245.171 203.788C245.546 204.463 245.767 205.365 245.793 206.316C245.795 206.417 245.878 206.5 245.98 206.5Z" fill="white"/>
<path d="M257.98 206.5C258.081 206.5 258.164 206.417 258.162 206.316C258.136 205.189 257.876 204.118 257.432 203.318C256.963 202.474 256.327 202 255.664 202C255.001 202 254.365 202.474 253.896 203.318C253.452 204.118 253.192 205.189 253.166 206.316C253.164 206.417 253.247 206.5 253.349 206.5C253.45 206.5 253.533 206.417 253.535 206.316C253.561 205.365 253.782 204.463 254.157 203.788C254.557 203.068 255.099 203.318 255.664 203.318C256.229 203.318 256.771 203.068 257.171 203.788C257.546 204.463 257.767 205.365 257.793 206.316C257.795 206.417 257.878 206.5 257.98 206.5Z" fill="white"/>
<path d="M255.272 215C255.674 215 256.009 215.331 255.902 215.719C255.826 215.997 255.706 216.269 255.543 216.531C255.242 217.016 254.8 217.457 254.243 217.828C253.685 218.2 253.024 218.494 252.296 218.696C251.568 218.897 250.788 219 250 219C249.212 219 248.432 218.897 247.704 218.696C246.976 218.494 246.315 218.2 245.757 217.828C245.2 217.457 244.758 217.016 244.457 216.531C244.294 216.269 244.174 215.997 244.098 215.719C243.991 215.331 244.326 215 244.728 215V215C245.13 215 245.446 215.335 245.583 215.713C245.638 215.865 245.711 216.014 245.801 216.159C246.03 216.527 246.365 216.861 246.787 217.142C247.209 217.424 247.71 217.647 248.261 217.799C248.812 217.951 249.403 218.03 250 218.03C250.597 218.03 251.188 217.951 251.739 217.799C252.29 217.647 252.791 217.424 253.213 217.142C253.635 216.861 253.97 216.527 254.199 216.159C254.289 216.014 254.362 215.865 254.417 215.713C254.554 215.335 254.87 215 255.272 215V215Z" fill="white"/>
<circle cx="205.5" cy="220.5" r="3.5" fill="white"/>
<circle cx="298.5" cy="220.5" r="3.5" fill="white"/>
<rect width="2" height="4" rx="1" transform="matrix(1 0 0 -1 249 212)" fill="white"/>
<rect x="211" y="221" width="16" height="1" rx="0.5" fill="white"/>
<rect x="277" y="221" width="16" height="1" rx="0.5" fill="white"/>
</g>
</svg>
