<svg width="162" height="143" viewBox="0 0 162 143" fill="none" xmlns="http://www.w3.org/2000/svg">
<path d="M36.9469 71.4714C42.4104 56.024 71.9434 64.2565 71.9434 64.2565L111.594 81.812C111.594 81.812 116.353 103.733 111.594 108.434C106.836 113.135 91.5619 114.169 85.7452 112.935C78.6514 111.431 73.7407 87.61 73.7407 87.61C73.7407 87.61 71.3321 106.355 61.0133 108.434C46.3804 111.382 31.1016 87.9987 36.9469 71.4714Z" fill="white" stroke="white" stroke-width="0.75" stroke-linejoin="round"/>
<path d="M52.3337 36.8698C48.1556 52.712 77.1993 62.5312 77.1993 62.5312L119.853 70.3401C119.853 70.3401 135.113 57.5945 133.522 46.8702C132.199 37.9487 123.179 30.3138 114.883 31.7638C107.74 33.0124 94.1845 41.5773 94.1845 41.5773C94.1845 41.5773 100.388 27.3932 93.0287 19.8669C82.5931 9.19398 56.804 19.9201 52.3337 36.8698Z" fill="white" stroke="white" stroke-width="0.75" stroke-linejoin="round"/>
<path d="M36.1173 58.2735C32.7985 58.5947 26.2087 59.9657 26.3999 62.8797C26.591 65.7936 36.1173 58.2735 36.1173 58.2735Z" fill="white" stroke="white" stroke-width="0.75" stroke-linecap="round" stroke-linejoin="round"/>
<path d="M38.1725 46.3786C35.1404 44.9916 29.3591 41.5445 30.4911 38.8526C31.623 36.1607 38.1725 46.3786 38.1725 46.3786Z" fill="white" stroke="white" stroke-width="0.75" stroke-linecap="round" stroke-linejoin="round"/>
<path d="M125.978 79.5054C129.088 78.301 140.604 76.7403 141.742 79.4293C142.881 82.1183 125.978 79.5054 125.978 79.5054Z" fill="white" stroke="white" stroke-width="0.75" stroke-linecap="round" stroke-linejoin="round"/>
<path d="M124.667 81.2664C127.669 82.718 136.666 90.0732 135.477 92.7403C134.288 95.4073 124.667 81.2664 124.667 81.2664Z" fill="white" stroke="white" stroke-width="0.75" stroke-linecap="round" stroke-linejoin="round"/>
<circle cx="39.0766" cy="58.204" r="2.70574" transform="rotate(-25.3617 39.0766 58.204)" fill="white"/>
<circle cx="41.3051" cy="48.1649" r="2.70574" transform="rotate(-25.3617 41.3051 48.1649)" fill="white"/>
<path d="M44.669 53.723C39.4144 60.8227 91.4942 79.3068 105.011 82.3639C118.529 85.4209 123.775 80.1026 123.775 80.1026C123.775 80.1026 123.774 71.0869 112.528 67.3649L112.44 67.3359C101.017 63.5554 49.91 46.6415 44.669 53.723Z" fill="white" stroke="white" stroke-width="0.75" stroke-linejoin="round"/>
<circle cx="89.2414" cy="99.8032" r="1.35287" transform="rotate(-25.3617 89.2414 99.8032)" fill="white"/>
<circle cx="93.6184" cy="102.721" r="1.35287" transform="rotate(-25.3617 93.6184 102.721)" fill="white"/>
<circle cx="94.6125" cy="98.1313" r="1.35287" transform="rotate(-25.3617 94.6125 98.1313)" fill="white"/>
<circle cx="121.318" cy="51.6586" r="1.35287" transform="rotate(-25.3617 121.318 51.6586)" fill="white"/>
<circle cx="118.185" cy="47.1547" r="1.35287" transform="rotate(-25.3617 118.185 47.1547)" fill="white"/>
<circle cx="117.284" cy="51.5766" r="1.35287" transform="rotate(-25.3617 117.284 51.5766)" fill="white"/>
<ellipse cx="53.7529" cy="92.2127" rx="5.68133" ry="6.59035" transform="rotate(-175.522 53.7529 92.2127)" fill="white"/>
<ellipse cx="80.0498" cy="29.9823" rx="5.68133" ry="6.59035" transform="rotate(-175.522 80.0498 29.9823)" fill="white"/>
</svg>
