<svg width="162" height="159" viewBox="0 0 162 159" fill="none" xmlns="http://www.w3.org/2000/svg">
<path d="M36.9469 87.4772C42.4104 72.0298 71.9434 80.2623 71.9434 80.2623L111.594 97.8177C111.594 97.8177 116.353 119.739 111.594 124.44C106.836 129.14 91.5619 130.174 85.7452 128.941C78.6514 127.437 73.7407 103.616 73.7407 103.616C73.7407 103.616 71.3321 122.361 61.0133 124.44C46.3804 127.388 31.1016 104.004 36.9469 87.4772Z" fill="#FF8756" stroke="#202020" stroke-width="2" stroke-linejoin="round"/>
<path d="M52.3337 52.8756C48.1556 68.7178 77.1993 78.537 77.1993 78.537L119.853 86.3459C119.853 86.3459 135.113 73.6003 133.522 62.876C132.199 53.9545 123.179 46.3196 114.883 47.7696C107.74 49.0181 94.1845 57.5831 94.1845 57.5831C94.1845 57.5831 100.388 43.399 93.0287 35.8727C82.5931 25.1997 56.804 35.9259 52.3337 52.8756Z" fill="#FF8756" stroke="#202020" stroke-width="2" stroke-linejoin="round"/>
<path d="M36.1173 74.2753C32.7985 74.5966 26.2087 75.9676 26.3999 78.8815C26.591 81.7955 36.1173 74.2753 36.1173 74.2753Z" fill="#FFC805" stroke="#FFC805" stroke-width="2" stroke-linecap="round" stroke-linejoin="round"/>
<path d="M38.1725 62.3844C35.1404 60.9973 29.3591 57.5503 30.4911 54.8584C31.623 52.1665 38.1725 62.3844 38.1725 62.3844Z" fill="#FFC805" stroke="#FFC805" stroke-width="2" stroke-linecap="round" stroke-linejoin="round"/>
<path d="M125.978 95.5112C129.088 94.3068 140.604 92.7461 141.742 95.4351C142.881 98.1241 125.978 95.5112 125.978 95.5112Z" fill="#17A98A" stroke="#17A98A" stroke-width="2" stroke-linecap="round" stroke-linejoin="round"/>
<path d="M124.667 97.2722C127.669 98.7238 136.666 106.079 135.477 108.746C134.288 111.413 124.667 97.2722 124.667 97.2722Z" fill="#17A98A" stroke="#17A98A" stroke-width="2" stroke-linecap="round" stroke-linejoin="round"/>
<circle cx="39.0766" cy="74.2098" r="2.70574" transform="rotate(-25.3617 39.0766 74.2098)" fill="#F34D08"/>
<circle cx="41.3051" cy="64.1707" r="2.70574" transform="rotate(-25.3617 41.3051 64.1707)" fill="#F34D08"/>
<path d="M44.669 69.7287C39.4144 76.8285 91.4942 95.3125 105.011 98.3696C118.529 101.427 123.775 96.1084 123.775 96.1084C123.775 96.1084 123.774 87.0927 112.528 83.3707L112.44 83.3417C101.017 79.5612 49.91 62.6473 44.669 69.7287Z" fill="#5D44BD" stroke="#202020" stroke-width="2" stroke-linejoin="round"/>
<circle cx="89.2395" cy="115.805" r="1.35287" transform="rotate(-25.3617 89.2395 115.805)" fill="white"/>
<circle cx="93.6164" cy="118.723" r="1.35287" transform="rotate(-25.3617 93.6164 118.723)" fill="white"/>
<circle cx="94.6105" cy="114.133" r="1.35287" transform="rotate(-25.3617 94.6105 114.133)" fill="white"/>
<circle cx="121.318" cy="67.6644" r="1.35287" transform="rotate(-25.3617 121.318 67.6644)" fill="white"/>
<circle cx="118.185" cy="63.1605" r="1.35287" transform="rotate(-25.3617 118.185 63.1605)" fill="white"/>
<circle cx="117.284" cy="67.5824" r="1.35287" transform="rotate(-25.3617 117.284 67.5824)" fill="white"/>
<ellipse cx="53.751" cy="108.215" rx="5.68133" ry="6.59035" transform="rotate(-175.522 53.751 108.215)" fill="white"/>
<ellipse cx="80.0498" cy="45.9841" rx="5.68133" ry="6.59035" transform="rotate(-175.522 80.0498 45.9841)" fill="white"/>
</svg>
