<svg width="137" height="87" viewBox="0 0 137 87" fill="none" xmlns="http://www.w3.org/2000/svg">
<path d="M135.568 39.1921C135.568 39.1921 138.518 18.5759 82.4941 27.9469L84.801 49.8921C138.24 53.9046 135.568 39.1921 135.568 39.1921Z" fill="#FFFF0B" stroke="#202020" stroke-width="2" stroke-linecap="round"/>
<path d="M0.99123 40.057C0.99123 40.057 0.189771 22.2074 54.0658 28.8138L52.8055 52.6522C-0.633586 56.6627 0.99123 40.057 0.99123 40.057Z" fill="#FFFF0B" stroke="#202020" stroke-width="2" stroke-linecap="round"/>
<path d="M67.1836 13C72.2838 13 77.0098 15.9964 80.5029 21.0615C83.9931 26.1224 86.1836 33.1688 86.1836 41C86.1836 48.8312 83.9931 55.8776 80.5029 60.9385C77.0098 66.0036 72.2838 69 67.1836 69C62.0834 69 57.3574 66.0036 53.8643 60.9385C50.374 55.8776 48.1836 48.8312 48.1836 41C48.1836 33.1688 50.374 26.1224 53.8643 21.0615C57.3574 15.9964 62.0834 13 67.1836 13Z" fill="#65A6D3" stroke="#202020" stroke-width="2"/>
<path d="M75.6836 15.0461C75.6836 10.0461 75.1836 0.246147 73.1836 1.04615" stroke="#F55376" stroke-width="2" stroke-linecap="round"/>
<circle cx="72.6836" cy="1.5" r="1" fill="#F55376" stroke="#F55376"/>
<path d="M57.6836 15.9993C57.6836 10.9993 58.1836 1.19927 60.1836 1.99927" stroke="#F55376" stroke-width="2" stroke-linecap="round"/>
<circle cx="60.6836" cy="1.5" r="1" fill="#F55376" stroke="#F55376"/>
<path d="M65.043 69.5C61.4855 74.2479 61.1768 77.0887 65.043 82.5C65.043 82.5 65.0975 83.1133 65.043 83.5C64.7135 85.8362 59.543 86 59.543 86M70.543 69.5C73.3711 74.597 73.0263 77.4069 70.543 82.5C70.543 82.5 70.4884 83.1133 70.543 83.5C70.8724 85.8362 76.043 86 76.043 86" stroke="#5D44BD" stroke-width="2" stroke-linecap="round"/>
<path d="M57.5195 66C54.2195 71.0715 53.24 73.9298 57.5195 79C57.5195 79 57.5741 79.6133 57.5195 80C57.1901 82.3362 52.0195 82.5 52.0195 82.5" stroke="#5D44BD" stroke-width="2" stroke-linecap="round"/>
<path d="M78.043 65C81.057 70.377 81.7835 73.3123 78.043 78C78.043 78 77.9884 78.6133 78.043 79C78.3724 81.3362 83.543 81.5 83.543 81.5" stroke="#5D44BD" stroke-width="2" stroke-linecap="round"/>
<path d="M54.1845 49.2678C55.6927 49.159 59.0709 48.8501 59.3171 49.872" stroke="#F55376" stroke-width="2" stroke-linecap="round"/>
<path d="M54.1845 43.2678C55.6927 43.159 59.0709 42.8501 59.3171 43.872" stroke="#F55376" stroke-width="2" stroke-linecap="round"/>
<path d="M78.3799 49.2678C76.8717 49.159 73.4936 48.8501 73.2473 49.872" stroke="#F55376" stroke-width="2" stroke-linecap="round"/>
<path d="M78.3799 43.2678C76.8717 43.159 73.4936 42.8501 73.2473 43.872" stroke="#F55376" stroke-width="2" stroke-linecap="round"/>
<path d="M62.9991 24.5C63.101 24.5 63.1838 24.4174 63.1815 24.3155C63.1558 23.1891 62.896 22.1183 62.4514 21.318C61.9825 20.4741 61.3466 20 60.6836 20C60.0206 20 59.3847 20.4741 58.9158 21.318C58.4712 22.1183 58.2113 23.1891 58.1857 24.3155C58.1834 24.4174 58.2662 24.5 58.3681 24.5C58.4699 24.5 58.5523 24.4174 58.555 24.3155C58.5804 23.3653 58.8013 22.4634 59.1767 21.7876C59.5764 21.0682 60.1184 21.318 60.6836 21.318C61.2488 21.318 61.7908 21.0682 62.1905 21.7876C62.5659 22.4634 62.7868 23.3653 62.8122 24.3155C62.8149 24.4174 62.8972 24.5 62.9991 24.5Z" fill="#5D44BD"/>
<path d="M74.9991 24.5C75.101 24.5 75.1838 24.4174 75.1815 24.3155C75.1558 23.1891 74.896 22.1183 74.4514 21.318C73.9825 20.4741 73.3466 20 72.6836 20C72.0206 20 71.3847 20.4741 70.9158 21.318C70.4712 22.1183 70.2113 23.1891 70.1857 24.3155C70.1834 24.4174 70.2662 24.5 70.3681 24.5C70.4699 24.5 70.5523 24.4174 70.555 24.3155C70.5804 23.3653 70.8013 22.4634 71.1767 21.7876C71.5764 21.0682 72.1184 21.318 72.6836 21.318C73.2488 21.318 73.7908 21.0682 74.1905 21.7876C74.5659 22.4634 74.7868 23.3653 74.8122 24.3155C74.8149 24.4174 74.8972 24.5 74.9991 24.5Z" fill="#5D44BD"/>
<path d="M72.2918 33C72.6937 33 73.0281 33.3313 72.9218 33.719C72.8457 33.9966 72.7256 34.2687 72.5628 34.5307C72.2613 35.016 71.8193 35.457 71.2622 35.8284C70.705 36.1999 70.0436 36.4945 69.3156 36.6955C68.5877 36.8965 67.8075 37 67.0195 37C66.2316 37 65.4514 36.8965 64.7234 36.6955C63.9955 36.4945 63.334 36.1999 62.7769 35.8284C62.2197 35.457 61.7778 35.016 61.4763 34.5307C61.3135 34.2687 61.1933 33.9966 61.1172 33.719C61.011 33.3313 61.3454 33 61.7473 33V33C62.1492 33 62.4654 33.3349 62.6026 33.7127C62.6578 33.8648 62.7307 34.0142 62.821 34.1594C63.0493 34.527 63.3841 34.861 63.8061 35.1423C64.2281 35.4236 64.7291 35.6468 65.2804 35.799C65.8318 35.9513 66.4227 36.0297 67.0195 36.0297C67.6163 36.0297 68.2073 35.9513 68.7586 35.799C69.31 35.6468 69.811 35.4236 70.233 35.1423C70.655 34.861 70.9897 34.527 71.2181 34.1594C71.3083 34.0142 71.3813 33.8648 71.4365 33.7127C71.5736 33.3349 71.8899 33 72.2918 33V33Z" fill="#5D44BD"/>
<circle cx="22.5195" cy="38.5" r="3.5" fill="#F55376"/>
<circle cx="115.52" cy="38.5" r="3.5" fill="#F55376"/>
<rect width="2" height="4" rx="1" transform="matrix(1 0 0 -1 66.0195 30)" fill="#F55376"/>
<rect x="28.0195" y="39" width="16" height="1" rx="0.5" fill="#F55376"/>
<rect x="94.0195" y="39" width="16" height="1" rx="0.5" fill="#F55376"/>
</svg>
