<svg width="136" height="125" viewBox="0 0 136 125" fill="none" xmlns="http://www.w3.org/2000/svg">
<path d="M33.5659 59.2185C44.8969 55.3041 56.7002 60.3401 60.0915 70.1568C63.4828 79.9735 57.3049 91.2212 45.9739 95.1357C34.6429 99.0501 22.8397 94.0141 19.4484 84.1974C16.0571 74.3808 22.2349 63.133 33.5659 59.2185Z" fill="#F974AD" stroke="#202020" stroke-width="2"/>
<path d="M73.1434 91.6746C59.7083 98.0359 72.3967 105.275 69.8587 104.942L66.6739 108.681" stroke="#27336C" stroke-width="2" stroke-linecap="round"/>
<path d="M110.492 77.2709C102.974 95.6867 117.264 88.6265 114.983 90.8437L110.629 94.5898" stroke="#27336C" stroke-width="2" stroke-linecap="round"/>
<path d="M65.3841 89.564C56.462 97.5887 61.1066 100.809 63.3362 101.493L59.782 105.403" stroke="#27336C" stroke-width="2" stroke-linecap="round"/>
<path d="M104.771 82.4482C95.8487 90.473 100.493 93.6929 102.723 94.3775L100.392 96.8447" stroke="#27336C" stroke-width="2" stroke-linecap="round"/>
<path d="M78.2054 49.0853C86.3909 46.2575 94.5486 45.9944 101.103 47.806C107.663 49.6191 112.518 53.4706 114.363 58.8119C116.208 64.1532 114.766 70.1801 110.724 75.6558C106.686 81.127 100.105 85.9554 91.9195 88.7832C83.734 91.611 75.5763 91.8741 69.0216 90.0625C62.4617 88.2494 57.6068 84.3979 55.7616 79.0566C53.9164 73.7153 55.3586 67.6883 59.4005 62.2127C63.4393 56.7415 70.0198 51.9131 78.2054 49.0853Z" fill="#F974AD" stroke="#202020" stroke-width="2"/>
<path d="M108.567 58.5245C108.977 57.4991 110.183 56.9882 110.961 57.7725C111.786 58.6046 112.389 59.761 112.702 61.152C113.196 63.3514 112.926 65.9572 111.949 68.396C110.972 70.8348 109.369 72.9069 107.492 74.1564C106.306 74.9467 105.071 75.367 103.9 75.3993C102.795 75.4298 102.276 74.2278 102.687 73.2024L105.627 65.8634L108.567 58.5245Z" fill="#FFFF0B"/>
<path d="M21.0385 51.3776C24.2376 50.004 20.4573 46.2655 18.1634 47.2636C15.8695 48.2618 16.4275 53.3574 21.0385 51.3776Z" fill="#F974AD"/>
<path d="M25.1901 63.3952C26.8548 59.0637 24.7708 53.8625 21.0385 51.3776M21.0385 51.3776C24.2376 50.004 20.4573 46.2655 18.1634 47.2636C15.8695 48.2618 16.4275 53.3574 21.0385 51.3776Z" stroke="#DA0963" stroke-width="2" stroke-linecap="round"/>
<path d="M12.3608 64.0201C9.58926 65.3136 7.83801 59.8639 10.0926 58.8772C13.2449 57.4977 15.4812 62.5604 12.3608 64.0201Z" fill="#F974AD"/>
<path d="M18.0911 75.3701C14.5723 73.4392 11.7871 68.4998 12.3608 64.0201M12.3608 64.0201C9.58926 65.3136 7.83801 59.8639 10.0926 58.8772C13.2449 57.4977 15.4812 62.5604 12.3608 64.0201Z" stroke="#DA0963" stroke-width="2" stroke-linecap="round"/>
<path d="M103.579 8.45937C88.1319 -2.24148 64.9398 17.374 52.1316 35.2569C39.3234 53.1398 58.331 66.415 58.331 66.415L110.789 52.6526C115.953 44.4599 118.786 18.9938 103.579 8.45937Z" fill="#8EFFFF" stroke="#202020" stroke-width="2" stroke-linecap="round"/>
<circle cx="28.0837" cy="76.0458" r="4" transform="rotate(-23.2366 28.0837 76.0458)" fill="#292B69"/>
<path d="M33.0124 85.0238C33.2706 84.913 33.5739 85.0321 33.6427 85.3045C33.7298 85.6493 33.7607 86.0109 33.734 86.3798C33.6946 86.9249 33.5302 87.4754 33.2501 87.9999C32.97 88.5244 32.5797 89.0126 32.1016 89.4366C31.6235 89.8607 31.0669 90.2122 30.4635 90.4713C29.8602 90.7303 29.2219 90.8918 28.5852 90.9464C27.9485 91.001 27.3257 90.9478 26.7526 90.7896C26.1794 90.6315 25.667 90.3716 25.2447 90.0248C24.9588 89.7901 24.7179 89.5186 24.5279 89.218C24.3777 88.9805 24.5003 88.6785 24.7584 88.5677V88.5677C25.0166 88.4569 25.3121 88.5802 25.4716 88.8115C25.6132 89.0167 25.7855 89.2035 25.9855 89.3678C26.3219 89.644 26.73 89.851 27.1866 89.9769C27.6431 90.1029 28.1391 90.1453 28.6463 90.1018C29.1535 90.0583 29.6618 89.9297 30.1424 89.7234C30.623 89.517 31.0664 89.237 31.4472 88.8992C31.828 88.5615 32.1388 88.1726 32.3619 87.7549C32.585 87.3371 32.716 86.8986 32.7474 86.4645C32.7661 86.2064 32.7493 85.9528 32.698 85.7088C32.6402 85.4338 32.7542 85.1347 33.0124 85.0238V85.0238Z" fill="#5D44BD"/>
<path d="M92.6687 13.4773C87.1988 19.5233 85.9046 23.9939 76.8876 26.9053C73.6181 27.961 71.1268 23.3232 74.0181 21.4673C87.3442 12.9133 99.601 5.81486 92.6687 13.4773Z" fill="#FFFF0B"/>
<circle cx="4" cy="4" r="4" transform="matrix(-0.838973 0.544173 0.544173 0.838973 67.3438 25.7569)" fill="#FFFF0B"/>
</svg>
