<svg width="113" height="107" viewBox="0 0 113 107" fill="none" xmlns="http://www.w3.org/2000/svg">
<path d="M76.1835 37.1797C68.3964 36.7195 60.5315 40.8617 54.3606 48.945C48.3467 56.8227 44.4945 67.7411 43.6443 79.4108L73.4444 83.5951L105.018 83.0348C105.471 71.4225 101.555 60.0361 96.4688 51.4335C91.2929 42.6796 83.9707 37.6399 76.1835 37.1797Z" fill="#FFC805" stroke="#202020" stroke-width="2"/>
<path d="M90.1478 80.5776C102.933 70.7255 93.8602 43.2344 77.7473 42.2842C71.3963 41.9097 60.654 42.7536 56.7721 52.0589C51.4297 64.8652 65.3659 84.6226 80.3421 76.9928C95.3183 69.363 90.8104 52.4029 80.3882 48.4496C58.4781 40.1388 57.1768 69.1757 67.0813 70.1986C73.8084 70.8934 82.6217 67.7611 81.7851 61.0501C81.2895 57.0745 79.2142 53.6554 75.2397 53.1502C70.1596 52.5046 62.4712 62.5745 67.4648 63.71C70.7482 64.4565 73.7101 63.1218 75.3259 60.1676" stroke="#CF1565" stroke-width="2" stroke-linecap="round"/>
<path d="M45.1675 78.9158C49.794 81.9941 86.5178 82.5281 103.557 82.3664C107.226 79.616 110.023 88.2203 102.645 97.8025C93.4224 109.78 36.8116 99.0247 33.0381 89.2261C30.8669 83.5882 9.63516 49.7794 8.33116 41.1522C3.16793 18.3402 30.2976 8.90877 38.5724 37.955C41.4762 48.1477 39.3844 75.0679 45.1675 78.9158Z" fill="#02C1C1" stroke="#202020" stroke-width="2"/>
<path d="M97.8812 97.2284C90.5664 101.783 91.8104 103.078 80.5969 99.9974L81.569 94.0405C90.0542 93.2053 105.196 92.6737 97.8812 97.2284Z" fill="#78FFFF" stroke="#78FFFF" stroke-width="2"/>
<path d="M75.8142 96.7519C69.4516 102.563 77.2679 99.1551 65.6807 98.1685L65.4685 98.0829C63.7061 97.3718 63.8539 94.8971 65.7093 94.4857C73.1862 92.8279 80.8542 92.1486 75.8142 96.7519Z" fill="#78FFFF" stroke="#78FFFF" stroke-width="2"/>
<path d="M59.0961 95.1685C51.0961 96.4972 60.2679 96.1551 48.6807 95.1685L48.4685 95.0829C46.7061 94.3718 46.9188 92.1771 48.8178 92.101C56.8902 91.7777 65.8695 94.0435 59.0961 95.1685Z" fill="#78FFFF" stroke="#78FFFF" stroke-width="2"/>
<mask id="path-7-outside-1_982_8417" maskUnits="userSpaceOnUse" x="12.8209" y="33.4616" width="14.4476" height="8.81198" fill="black">
<rect fill="white" x="12.8209" y="33.4616" width="14.4476" height="8.81198"/>
<path d="M14.6532 35.0446C14.4044 35.0299 14.1886 35.22 14.1962 35.4692C14.2357 36.7674 14.7751 38.0214 15.7275 39.004C16.7899 40.1 18.2792 40.7685 19.8677 40.8623C21.4563 40.9562 23.0139 40.4678 24.198 39.5045C25.2595 38.641 25.9429 37.4592 26.135 36.1747C26.1719 35.9282 25.98 35.714 25.7312 35.6993V35.6993C25.4824 35.6846 25.2711 35.8751 25.2304 36.121C25.0538 37.1863 24.4787 38.1642 23.5954 38.8828C22.5894 39.7011 21.2661 40.1161 19.9166 40.0363C18.567 39.9566 17.3018 39.3886 16.3992 38.4575C15.6067 37.6399 15.1508 36.6011 15.1009 35.5224C15.0894 35.2734 14.9021 35.0593 14.6532 35.0446V35.0446Z"/>
</mask>
<path d="M14.6532 35.0446C14.4044 35.0299 14.1886 35.22 14.1962 35.4692C14.2357 36.7674 14.7751 38.0214 15.7275 39.004C16.7899 40.1 18.2792 40.7685 19.8677 40.8623C21.4563 40.9562 23.0139 40.4678 24.198 39.5045C25.2595 38.641 25.9429 37.4592 26.135 36.1747C26.1719 35.9282 25.98 35.714 25.7312 35.6993V35.6993C25.4824 35.6846 25.2711 35.8751 25.2304 36.121C25.0538 37.1863 24.4787 38.1642 23.5954 38.8828C22.5894 39.7011 21.2661 40.1161 19.9166 40.0363C18.567 39.9566 17.3018 39.3886 16.3992 38.4575C15.6067 37.6399 15.1508 36.6011 15.1009 35.5224C15.0894 35.2734 14.9021 35.0593 14.6532 35.0446V35.0446Z" fill="#243268"/>
<path d="M14.6532 35.0446C14.4044 35.0299 14.1886 35.22 14.1962 35.4692C14.2357 36.7674 14.7751 38.0214 15.7275 39.004C16.7899 40.1 18.2792 40.7685 19.8677 40.8623C21.4563 40.9562 23.0139 40.4678 24.198 39.5045C25.2595 38.641 25.9429 37.4592 26.135 36.1747C26.1719 35.9282 25.98 35.714 25.7312 35.6993V35.6993C25.4824 35.6846 25.2711 35.8751 25.2304 36.121C25.0538 37.1863 24.4787 38.1642 23.5954 38.8828C22.5894 39.7011 21.2661 40.1161 19.9166 40.0363C18.567 39.9566 17.3018 39.3886 16.3992 38.4575C15.6067 37.6399 15.1508 36.6011 15.1009 35.5224C15.0894 35.2734 14.9021 35.0593 14.6532 35.0446V35.0446Z" stroke="#243268" stroke-width="2" mask="url(#path-7-outside-1_982_8417)"/>
<path d="M29.9492 5.89305C29.0886 3.12614 23.6384 0.0931524 22.3219 1.64654C18.9429 5.6337 27.4547 6.68505 29.9492 5.89305Z" fill="#78FFFF"/>
<path d="M28.0362 21.3081C27.7329 16.2936 31.2974 10.2281 29.9492 5.89305M29.9492 5.89305C29.0886 3.12614 23.6384 0.0931523 22.3219 1.64654C18.9429 5.6337 27.4547 6.68505 29.9492 5.89305Z" stroke="#02C1C1" stroke-width="2" stroke-linecap="round"/>
<path d="M6.92993 5.54256C7.26849 2.56229 12.5325 0.115735 14.1475 1.45706C18.2927 4.8999 9.58213 5.89022 6.92993 5.54256Z" fill="#78FFFF"/>
<path d="M12.1436 22.5609C11.497 17.3913 6.39949 10.2119 6.92993 5.54256M6.92993 5.54256C7.26849 2.56229 12.5325 0.115735 14.1475 1.45706C18.2927 4.8999 9.58213 5.89022 6.92993 5.54256Z" stroke="#02C1C1" stroke-width="2" stroke-linecap="round"/>
<circle cx="2" cy="2" r="2" transform="matrix(-0.998258 -0.0589938 -0.0589938 0.998258 25.7445 26.1808)" fill="#243268"/>
<circle cx="2" cy="2" r="2" transform="matrix(-0.998258 -0.0589938 -0.0589938 0.998258 18.7562 25.7667)" fill="#243268"/>
</svg>
