<svg width="113" height="107" viewBox="0 0 113 107" fill="none" xmlns="http://www.w3.org/2000/svg">
<path d="M76.213 36.6807C68.2157 36.2081 60.2044 40.4658 53.9628 48.6418C47.8 56.7147 43.9 67.9172 43.114 79.8423L73.4129 84.0961L105.495 83.5269C106.08 71.6316 102.09 59.9583 96.8996 51.1793C91.6643 42.325 84.2103 37.1533 76.213 36.6807Z" fill="white" stroke="white"/>
<path d="M90.1478 80.5777C102.933 70.7256 93.8601 43.2345 77.7473 42.2843C71.3963 41.9098 60.654 42.7537 56.7721 52.059C51.4297 64.8653 65.3659 84.6227 80.3421 76.9929C95.3183 69.3631 90.8104 52.4031 80.3881 48.4497C58.4781 40.1389 57.1768 69.1758 67.0813 70.1988C73.8084 70.8936 82.6216 67.7612 81.7851 61.0503C81.2895 57.0746 79.2142 53.6555 75.2397 53.1504C70.1595 52.5047 62.4712 62.5746 67.4647 63.7101C70.7482 64.4567 73.7101 63.122 75.3259 60.1677" stroke="white" stroke-linecap="round"/>
<path d="M45.1675 78.912C49.794 81.9903 86.5178 82.5243 103.557 82.3626C107.226 79.6122 110.023 88.2165 102.645 97.7988C93.4224 109.777 36.8116 99.0209 33.0381 89.2224C30.8669 83.5844 9.63515 49.7757 8.33115 41.1484C3.16792 18.3364 30.2976 8.90498 38.5724 37.9512C41.4762 48.1439 39.3844 75.0641 45.1675 78.912Z" fill="white" stroke="white"/>
<path d="M97.8831 97.2286C90.5684 101.783 91.8124 103.079 80.5988 99.9975L81.571 94.0406C90.0562 93.2054 105.198 92.6738 97.8831 97.2286Z" fill="white" stroke="white"/>
<path d="M75.8142 96.7481C69.4516 102.559 77.2679 99.1513 65.6807 98.1647L65.4685 98.0791C63.7061 97.368 63.8539 94.8933 65.7093 94.4819C73.1862 92.8241 80.8542 92.1448 75.8142 96.7481Z" fill="white" stroke="white"/>
<path d="M59.0961 95.1686C51.0961 96.4973 60.2679 96.1552 48.6807 95.1686L48.4685 95.083C46.7061 94.3719 46.9188 92.1772 48.8178 92.1011C56.8902 91.7778 65.8695 94.0436 59.0961 95.1686Z" fill="white" stroke="white"/>
<mask id="path-7-outside-1_982_8582" maskUnits="userSpaceOnUse" x="12.8229" y="34.456" width="14.3886" height="7.81372" fill="black">
<rect fill="white" x="12.8229" y="34.456" width="14.3886" height="7.81372"/>
<path d="M14.6552 35.0408C14.4063 35.0261 14.1906 35.2162 14.1981 35.4654C14.2376 36.7636 14.7771 38.0176 15.7295 39.0002C16.7919 40.0962 18.2812 40.7647 19.8697 40.8586C21.4582 40.9524 23.0159 40.464 24.2 39.5007C25.2615 38.6372 25.9449 37.4554 26.137 36.1709C26.1738 35.9244 25.982 35.7102 25.7331 35.6955V35.6955C25.4843 35.6808 25.2731 35.8713 25.2323 36.1172C25.0557 37.1825 24.4806 38.1604 23.5973 38.879C22.5913 39.6973 21.268 40.1123 19.9185 40.0325C18.569 39.9528 17.3038 39.3849 16.4012 38.4537C15.6087 37.6361 15.1527 36.5973 15.1028 35.5186C15.0913 35.2696 14.904 35.0555 14.6552 35.0408V35.0408Z"/>
</mask>
<path d="M14.6552 35.0408C14.4063 35.0261 14.1906 35.2162 14.1981 35.4654C14.2376 36.7636 14.7771 38.0176 15.7295 39.0002C16.7919 40.0962 18.2812 40.7647 19.8697 40.8586C21.4582 40.9524 23.0159 40.464 24.2 39.5007C25.2615 38.6372 25.9449 37.4554 26.137 36.1709C26.1738 35.9244 25.982 35.7102 25.7331 35.6955V35.6955C25.4843 35.6808 25.2731 35.8713 25.2323 36.1172C25.0557 37.1825 24.4806 38.1604 23.5973 38.879C22.5913 39.6973 21.268 40.1123 19.9185 40.0325C18.569 39.9528 17.3038 39.3849 16.4012 38.4537C15.6087 37.6361 15.1527 36.5973 15.1028 35.5186C15.0913 35.2696 14.904 35.0555 14.6552 35.0408V35.0408Z" fill="white"/>
<path d="M14.6552 35.0408C14.4063 35.0261 14.1906 35.2162 14.1981 35.4654C14.2376 36.7636 14.7771 38.0176 15.7295 39.0002C16.7919 40.0962 18.2812 40.7647 19.8697 40.8586C21.4582 40.9524 23.0159 40.464 24.2 39.5007C25.2615 38.6372 25.9449 37.4554 26.137 36.1709C26.1738 35.9244 25.982 35.7102 25.7331 35.6955V35.6955C25.4843 35.6808 25.2731 35.8713 25.2323 36.1172C25.0557 37.1825 24.4806 38.1604 23.5973 38.879C22.5913 39.6973 21.268 40.1123 19.9185 40.0325C18.569 39.9528 17.3038 39.3849 16.4012 38.4537C15.6087 37.6361 15.1527 36.5973 15.1028 35.5186C15.0913 35.2696 14.904 35.0555 14.6552 35.0408V35.0408Z" stroke="white" stroke-width="0.5" mask="url(#path-7-outside-1_982_8582)"/>
<path d="M29.9492 5.89317C29.0886 3.12626 23.6384 0.0932676 22.3219 1.64666C18.9429 5.63381 27.4547 6.68517 29.9492 5.89317Z" fill="white"/>
<path d="M28.0362 21.3083C27.7329 16.2937 31.2974 10.2282 29.9492 5.89317M29.9492 5.89317C29.0886 3.12626 23.6384 0.0932675 22.3219 1.64666C18.9429 5.63381 27.4547 6.68517 29.9492 5.89317Z" stroke="white" stroke-linecap="round"/>
<path d="M6.92992 5.53877C7.26848 2.5585 12.5325 0.111944 14.1474 1.45327C18.2927 4.89611 9.58211 5.88643 6.92992 5.53877Z" fill="white"/>
<path d="M12.1436 22.5571C11.497 17.3875 6.39948 10.2081 6.92992 5.53877M6.92992 5.53877C7.26848 2.5585 12.5325 0.111944 14.1474 1.45327C18.2927 4.89611 9.58211 5.88643 6.92992 5.53877Z" stroke="white" stroke-linecap="round"/>
<circle cx="2" cy="2" r="2" transform="matrix(-0.998258 -0.0589938 -0.0589938 0.998258 25.7465 26.1809)" fill="white"/>
<circle cx="2" cy="2" r="2" transform="matrix(-0.998258 -0.0589938 -0.0589938 0.998258 18.7582 25.7668)" fill="white"/>
</svg>
