<svg width="500" height="282" viewBox="0 0 500 282" fill="none" xmlns="http://www.w3.org/2000/svg">
<path d="M0 4.99999C0 2.23857 2.23858 0 5 0H495C497.761 0 500 2.23858 500 5V281.2H0V4.99999Z" fill="#DAFFF2"/>
<mask id="mask0_982_8173" style="mask-type:alpha" maskUnits="userSpaceOnUse" x="0" y="0" width="500" height="282">
<path d="M5 1H495C497.209 1 499 2.79086 499 5V280.2H1V5C1 2.79086 2.79086 1 5 1Z" fill="white" stroke="#02C1C1" stroke-width="2"/>
</mask>
<g mask="url(#mask0_982_8173)">
<path d="M344.221 246.463C391.931 241.649 435.875 245.188 468.341 254.765C484.577 259.554 497.892 265.839 507.372 273.301C516.849 280.762 522.427 289.341 523.375 298.74C524.323 308.14 520.572 317.66 512.777 326.863C504.979 336.07 493.187 344.887 478.236 352.824C448.338 368.694 405.987 380.941 358.277 385.756C310.567 390.57 266.624 387.031 234.157 377.454C217.922 372.664 204.606 366.38 195.126 358.917C185.924 351.674 180.4 343.375 179.218 334.295C209.669 325.205 229.362 315.779 243.22 306.569C257.211 297.271 265.213 288.221 272.29 280.08C279.363 271.943 285.454 264.791 295.687 259.033C305.926 253.272 320.391 248.868 344.221 246.463Z" fill="#81C127" stroke="#202020" stroke-width="2"/>
<path d="M38.4203 218.456C96.5461 230.17 147.572 248.495 183.077 268.623C200.834 278.69 214.659 289.179 223.554 299.477C232.46 309.787 236.307 319.759 234.472 328.865C232.637 337.971 225.228 345.673 213.023 351.729C200.834 357.778 184.026 362.094 163.755 364.496C123.225 369.301 69.0849 366.431 10.9592 354.717C-47.1665 343.002 -98.1923 324.678 -133.698 304.549C-151.455 294.483 -165.279 283.993 -174.174 273.696C-183.08 263.385 -186.928 253.414 -185.092 244.308C-183.257 235.202 -175.848 227.499 -163.644 221.443C-151.454 215.395 -134.646 211.079 -114.376 208.676C-73.8459 203.872 -19.7054 206.742 38.4203 218.456Z" fill="#81C127" stroke="#202020" stroke-width="2"/>
<path d="M363.699 71.4714C369.162 56.024 398.695 64.2565 398.695 64.2565L438.346 81.812C438.346 81.812 443.105 103.733 438.346 108.434C433.588 113.135 418.314 114.169 412.497 112.935C405.403 111.431 400.493 87.61 400.493 87.61C400.493 87.61 398.084 106.355 387.765 108.434C373.132 111.382 357.854 87.9987 363.699 71.4714Z" fill="#FF8756" stroke="#202020" stroke-width="2" stroke-linejoin="round"/>
<path d="M379.086 36.8698C374.908 52.712 403.951 62.5312 403.951 62.5312L446.605 70.3401C446.605 70.3401 461.865 57.5945 460.274 46.8702C458.951 37.9487 449.931 30.3138 441.635 31.7638C434.492 33.0124 420.936 41.5773 420.936 41.5773C420.936 41.5773 427.14 27.3932 419.781 19.8669C409.345 9.19398 383.556 19.9201 379.086 36.8698Z" fill="#FF8756" stroke="#202020" stroke-width="2" stroke-linejoin="round"/>
<path d="M362.869 58.2696C359.55 58.5908 352.961 59.9618 353.152 62.8758C353.343 65.7897 362.869 58.2696 362.869 58.2696Z" fill="#FFC805" stroke="#FFC805" stroke-width="2" stroke-linecap="round" stroke-linejoin="round"/>
<path d="M364.924 46.3786C361.892 44.9916 356.111 41.5445 357.243 38.8526C358.375 36.1607 364.924 46.3786 364.924 46.3786Z" fill="#FFC805" stroke="#FFC805" stroke-width="2" stroke-linecap="round" stroke-linejoin="round"/>
<path d="M452.73 79.5054C455.839 78.301 467.356 76.7403 468.494 79.4293C469.633 82.1183 452.73 79.5054 452.73 79.5054Z" fill="#17A98A" stroke="#17A98A" stroke-width="2" stroke-linecap="round" stroke-linejoin="round"/>
<path d="M451.419 81.2664C454.421 82.718 463.418 90.0732 462.229 92.7403C461.04 95.4073 451.419 81.2664 451.419 81.2664Z" fill="#17A98A" stroke="#17A98A" stroke-width="2" stroke-linecap="round" stroke-linejoin="round"/>
<circle cx="365.829" cy="58.204" r="2.70574" transform="rotate(-25.3617 365.829 58.204)" fill="#F34D08"/>
<circle cx="368.057" cy="48.1649" r="2.70574" transform="rotate(-25.3617 368.057 48.1649)" fill="#F34D08"/>
<path d="M371.421 53.7191C366.166 60.8188 418.246 79.3029 431.763 82.3599C445.281 85.417 450.527 80.0987 450.527 80.0987C450.527 80.0987 450.526 71.083 439.28 67.361L439.192 67.332C427.769 63.5515 376.662 46.6376 371.421 53.7191Z" fill="#5D44BD" stroke="#202020" stroke-width="2" stroke-linejoin="round"/>
<circle cx="415.993" cy="99.7993" r="1.35287" transform="rotate(-25.3617 415.993 99.7993)" fill="white"/>
<circle cx="420.37" cy="102.717" r="1.35287" transform="rotate(-25.3617 420.37 102.717)" fill="white"/>
<circle cx="421.364" cy="98.1274" r="1.35287" transform="rotate(-25.3617 421.364 98.1274)" fill="white"/>
<circle cx="448.07" cy="51.6586" r="1.35287" transform="rotate(-25.3617 448.07 51.6586)" fill="white"/>
<circle cx="444.937" cy="47.1547" r="1.35287" transform="rotate(-25.3617 444.937 47.1547)" fill="white"/>
<circle cx="444.036" cy="51.5766" r="1.35287" transform="rotate(-25.3617 444.036 51.5766)" fill="white"/>
<ellipse cx="380.505" cy="92.2088" rx="5.68133" ry="6.59035" transform="rotate(-175.522 380.505 92.2088)" fill="white"/>
<ellipse cx="406.802" cy="29.9784" rx="5.68133" ry="6.59035" transform="rotate(-175.522 406.802 29.9784)" fill="white"/>
<path d="M171.765 57.4171C169.671 64.4909 171.329 76.3279 176.855 80.0579C183.111 84.2803 193.794 80.7198 197.889 80.283C201.916 79.8534 206.02 79.977 210.019 79.3407C213.746 78.7478 213.804 76.3021 217.402 75.2051C221.176 74.0543 229.419 57.4171 221.803 57.4171C216.202 57.4171 222.917 53.4926 222.497 50.7724C221.925 47.0646 218.659 44.9848 214.903 44.884C212.205 44.8116 208.565 47.6466 208.565 47.6466C208.565 47.6466 211.077 43.2121 209.788 40.8413C208.03 37.6066 203.662 38.7118 200.358 40.3528C197.655 41.6954 195.399 46.2777 195.399 46.2777C195.399 46.2777 194.903 42.6551 193.255 41.3585C190.069 38.8512 184.851 42.2287 184.056 46.2052C183.692 48.022 184.838 50.8821 184.838 50.8821C184.838 50.8821 181.22 49.3187 178.882 49.715C174.844 50.3997 172.927 53.4937 171.765 57.4171Z" fill="#81C127" stroke="#202020" stroke-width="2" stroke-linejoin="round"/>
<path d="M438.087 190.179C430.3 189.718 422.435 193.861 416.265 201.944C410.251 209.822 406.398 220.74 405.548 232.41L435.348 236.594L466.922 236.034C467.375 224.421 463.459 213.035 458.373 204.432C453.197 195.678 445.875 190.639 438.087 190.179Z" fill="#FFC805" stroke="#202020" stroke-width="2"/>
<path d="M452.052 233.576C464.837 223.724 455.764 196.233 439.651 195.283C433.3 194.909 422.558 195.753 418.676 205.058C413.334 217.864 427.27 237.621 442.246 229.992C457.222 222.362 452.714 205.402 442.292 201.449C420.382 193.138 419.081 222.175 428.985 223.198C435.712 223.892 444.526 220.76 443.689 214.049C443.193 210.073 441.118 206.654 437.144 206.149C432.063 205.504 424.375 215.573 429.369 216.709C432.652 217.455 435.614 216.121 437.23 213.166" stroke="#CF1565" stroke-width="2" stroke-linecap="round"/>
<path d="M407.071 231.915C411.698 234.993 448.422 235.527 465.461 235.365C469.13 232.615 471.927 241.219 464.549 250.801C455.326 262.779 398.716 252.024 394.942 242.225C392.771 236.587 371.539 202.778 370.235 194.151C365.072 171.339 392.201 161.908 400.476 190.954C403.38 201.147 401.288 228.067 407.071 231.915Z" fill="#02C1C1" stroke="#202020" stroke-width="2"/>
<path d="M459.787 250.227C452.472 254.782 453.716 256.077 442.503 252.996L443.475 247.039C451.96 246.204 467.102 245.673 459.787 250.227Z" fill="#78FFFF" stroke="#78FFFF" stroke-width="2"/>
<path d="M437.718 249.751C431.356 255.562 439.172 252.154 427.585 251.167L427.372 251.082C425.61 250.371 425.758 247.896 427.613 247.485C435.09 245.827 442.758 245.148 437.718 249.751Z" fill="#78FFFF" stroke="#78FFFF" stroke-width="2"/>
<path d="M421 248.167C413 249.496 422.172 249.154 410.585 248.167L410.372 248.082C408.61 247.371 408.823 245.176 410.722 245.1C418.794 244.777 427.773 247.042 421 248.167Z" fill="#78FFFF" stroke="#78FFFF" stroke-width="2"/>
<mask id="path-29-outside-1_982_8173" maskUnits="userSpaceOnUse" x="374.727" y="186.457" width="14.4476" height="8.81198" fill="black">
<rect fill="white" x="374.727" y="186.457" width="14.4476" height="8.81198"/>
<path d="M376.559 188.04C376.31 188.025 376.095 188.215 376.102 188.464C376.142 189.762 376.681 191.016 377.633 191.999C378.696 193.095 380.185 193.763 381.774 193.857C383.362 193.951 384.92 193.463 386.104 192.5C387.165 191.636 387.849 190.454 388.041 189.17C388.078 188.923 387.886 188.709 387.637 188.694V188.694C387.388 188.68 387.177 188.87 387.136 189.116C386.96 190.181 386.385 191.159 385.501 191.878C384.495 192.696 383.172 193.111 381.822 193.031C380.473 192.952 379.208 192.384 378.305 191.453C377.513 190.635 377.057 189.596 377.007 188.517C376.995 188.268 376.808 188.054 376.559 188.04V188.04Z"/>
</mask>
<path d="M376.559 188.04C376.31 188.025 376.095 188.215 376.102 188.464C376.142 189.762 376.681 191.016 377.633 191.999C378.696 193.095 380.185 193.763 381.774 193.857C383.362 193.951 384.92 193.463 386.104 192.5C387.165 191.636 387.849 190.454 388.041 189.17C388.078 188.923 387.886 188.709 387.637 188.694V188.694C387.388 188.68 387.177 188.87 387.136 189.116C386.96 190.181 386.385 191.159 385.501 191.878C384.495 192.696 383.172 193.111 381.822 193.031C380.473 192.952 379.208 192.384 378.305 191.453C377.513 190.635 377.057 189.596 377.007 188.517C376.995 188.268 376.808 188.054 376.559 188.04V188.04Z" fill="#243268"/>
<path d="M376.559 188.04C376.31 188.025 376.095 188.215 376.102 188.464C376.142 189.762 376.681 191.016 377.633 191.999C378.696 193.095 380.185 193.763 381.774 193.857C383.362 193.951 384.92 193.463 386.104 192.5C387.165 191.636 387.849 190.454 388.041 189.17C388.078 188.923 387.886 188.709 387.637 188.694V188.694C387.388 188.68 387.177 188.87 387.136 189.116C386.96 190.181 386.385 191.159 385.501 191.878C384.495 192.696 383.172 193.111 381.822 193.031C380.473 192.952 379.208 192.384 378.305 191.453C377.513 190.635 377.057 189.596 377.007 188.517C376.995 188.268 376.808 188.054 376.559 188.04V188.04Z" stroke="#243268" stroke-width="2" mask="url(#path-29-outside-1_982_8173)"/>
<path d="M391.853 158.892C390.993 156.125 385.542 153.092 384.226 154.645C380.847 158.633 389.359 159.684 391.853 158.892Z" fill="#78FFFF"/>
<path d="M389.94 174.307C389.637 169.292 393.201 163.227 391.853 158.892M391.853 158.892C390.993 156.125 385.542 153.092 384.226 154.645C380.847 158.633 389.359 159.684 391.853 158.892Z" stroke="#02C1C1" stroke-width="2" stroke-linecap="round"/>
<path d="M368.834 158.541C369.172 155.561 374.436 153.115 376.051 154.456C380.197 157.899 371.486 158.889 368.834 158.541Z" fill="#78FFFF"/>
<path d="M374.048 175.56C373.401 170.39 368.303 163.211 368.834 158.541M368.834 158.541C369.172 155.561 374.436 153.115 376.051 154.456C380.197 157.899 371.486 158.889 368.834 158.541Z" stroke="#02C1C1" stroke-width="2" stroke-linecap="round"/>
<circle cx="2" cy="2" r="2" transform="matrix(-0.998258 -0.0589938 -0.0589938 0.998258 387.648 179.18)" fill="#243268"/>
<circle cx="2" cy="2" r="2" transform="matrix(-0.998258 -0.0589938 -0.0589938 0.998258 380.662 178.766)" fill="#243268"/>
<path d="M54.5882 202.72C55.439 209.232 55.444 212.769 53.5535 218.811" stroke="#26306D" stroke-width="2" stroke-linecap="round" stroke-linejoin="round"/>
<path d="M49.9598 204.192C58.8001 212.755 78.6968 209.638 85.4348 200.278C67.305 178.278 91.6693 170.244 90.0979 170.341C77.6356 171.109 83.3185 168.618 64.8561 162.729C46.3936 156.84 37.7304 176.474 35.6485 176.064C35.0144 175.94 33.9263 175.977 32.7408 176.11C30.9252 176.315 30.7283 178.706 32.0631 179.954C32.8399 180.68 33.5954 181.519 34.2982 182.445C36.089 184.805 38.7143 193.299 49.9598 204.192Z" fill="#FFC805" stroke="#202020" stroke-width="2"/>
<path d="M28.4997 175.884C28.9184 175.504 36.5586 175.88 36.5586 175.88C35.4797 177.98 35.3495 179.68 34.2706 181.78C33.7954 181.255 32.4705 180.321 31.8698 179.658C31.3955 179.134 27.9763 176.359 28.4997 175.884Z" fill="#F55376" stroke="#F55376" stroke-width="2" stroke-linecap="round"/>
<path d="M40.3188 222.676C40.7129 223.999 40.6551 225.657 38.0085 226.445C35.362 227.233 32.8971 226.8 32.5029 225.476C32.1088 224.153 33.6046 224.772 36.2511 223.983C38.8976 223.195 39.9246 221.353 40.3188 222.676Z" fill="#233169"/>
<path d="M79.6899 236.598C80.084 237.921 80.0261 239.579 77.3796 240.367C74.7331 241.155 72.2682 240.722 71.874 239.398C71.4799 238.075 72.9757 238.693 75.6222 237.905C78.2687 237.117 79.2957 235.275 79.6899 236.598Z" fill="#233169"/>
<path d="M112.973 252.227C113.367 253.55 113.309 255.207 110.663 255.996C108.016 256.784 105.551 256.351 105.157 255.027C104.763 253.704 106.259 254.322 108.905 253.534C111.552 252.746 112.579 250.904 112.973 252.227Z" fill="#233169"/>
<path d="M59.0319 216.575C59.3347 217.894 59.2724 219.551 57.1462 220.365C55.0201 221.178 53.051 220.769 52.7483 219.45C52.4456 218.131 53.637 218.734 55.7632 217.921C57.8893 217.107 58.7292 215.256 59.0319 216.575Z" fill="#233169"/>
<path d="M95.5534 227.353C95.8562 228.671 95.7938 230.328 93.6677 231.142C91.5415 231.955 89.5725 231.546 89.2698 230.227C88.967 228.908 90.1585 229.512 92.2847 228.698C94.4108 227.885 95.2507 226.034 95.5534 227.353Z" fill="#233169"/>
<path d="M133.729 241.216C134.032 242.535 133.97 244.192 131.843 245.005C129.717 245.819 127.748 245.409 127.446 244.09C127.143 242.771 128.334 243.375 130.46 242.562C132.587 241.748 133.426 239.897 133.729 241.216Z" fill="#233169"/>
<path d="M91.4196 209.572C92.8594 218.255 92.5228 222.478 89.7946 229.606" stroke="#26306D" stroke-width="2" stroke-linecap="round" stroke-linejoin="round"/>
<path d="M130.058 211.482C131.572 225.205 131.111 232.068 128.169 243.443" stroke="#26306D" stroke-width="2" stroke-linecap="round" stroke-linejoin="round"/>
<path d="M42.7568 196.204C38.9063 206.778 37.9344 210.685 39.5016 222.077" stroke="#26306D" stroke-width="2" stroke-linecap="round" stroke-linejoin="round"/>
<path d="M82.7645 202.15C77.9903 214.922 75.9699 222.17 79.1225 236.013" stroke="#26306D" stroke-width="2" stroke-linecap="round" stroke-linejoin="round"/>
<path d="M116.538 207.785C110.407 224.714 109.739 234.264 112.413 251.637" stroke="#26306D" stroke-width="2" stroke-linecap="round" stroke-linejoin="round"/>
<path d="M115.767 174.221C125.411 182.931 126.648 197.054 118.787 205.757C110.926 214.46 96.7506 214.66 87.1075 205.95C77.4644 197.24 76.2261 183.118 84.0872 174.414C91.9486 165.711 106.124 165.51 115.767 174.221Z" fill="#FFC805" stroke="#202020" stroke-width="2"/>
<path d="M154.159 173.548C163.586 182.063 164.325 196.607 155.811 206.033C147.296 215.459 132.752 216.199 123.326 207.684C113.899 199.17 113.16 184.626 121.674 175.199C130.189 165.773 144.733 165.034 154.159 173.548Z" fill="#FFC805" stroke="#202020" stroke-width="2"/>
<circle cx="132.825" cy="183.048" r="2.5" transform="rotate(2.77218 132.825 183.048)" fill="#272F6C"/>
<circle cx="146.81" cy="183.727" r="2.5" transform="rotate(2.77218 146.81 183.727)" fill="#272F6C"/>
<path d="M146.245 192.712C146.592 192.729 146.863 193.025 146.813 193.369C146.72 194.003 146.534 194.621 146.259 195.203C145.895 195.975 145.382 196.667 144.75 197.241C144.118 197.815 143.379 198.258 142.575 198.546C141.772 198.834 140.919 198.962 140.067 198.92C139.214 198.879 138.378 198.67 137.606 198.306C136.834 197.941 136.142 197.428 135.568 196.796C134.994 196.164 134.551 195.425 134.263 194.622C134.045 194.016 133.92 193.383 133.889 192.743C133.872 192.395 134.17 192.127 134.518 192.144V192.144C134.865 192.161 135.129 192.457 135.154 192.803C135.188 193.278 135.286 193.747 135.448 194.197C135.68 194.845 136.038 195.441 136.5 195.95C136.963 196.46 137.521 196.873 138.144 197.167C138.766 197.461 139.44 197.629 140.128 197.663C140.815 197.696 141.502 197.594 142.15 197.361C142.798 197.129 143.394 196.771 143.904 196.309C144.413 195.846 144.827 195.288 145.121 194.665C145.325 194.233 145.468 193.776 145.548 193.307C145.606 192.964 145.898 192.695 146.245 192.712V192.712Z" fill="#272F6C"/>
<path d="M149.046 168.573C150.204 158.451 154.259 139.491 161.218 144.634" stroke="#F55376" stroke-width="2" stroke-linecap="round"/>
<path d="M132.065 167.753C131.891 157.566 129.687 138.304 122.263 142.75" stroke="#F55376" stroke-width="2" stroke-linecap="round"/>
<path d="M61.5 170.996C61.4065 172.927 56.1154 173.825 54.1847 173.731C52.254 173.638 50.7646 171.997 50.8581 170.066C50.9516 168.135 52.5925 166.646 54.5232 166.74C56.454 166.833 61.5935 169.065 61.5 170.996Z" fill="#5D44BD"/>
<path d="M107 191.5C106.907 193.431 91.4299 190.255 89.4991 190.161C87.5684 190.068 86.079 188.427 86.1725 186.496C86.266 184.565 87.907 183.076 89.8377 183.169C91.7684 183.263 107.093 189.569 107 191.5Z" fill="#5D44BD"/>
<path d="M60.5 195.5C60.4065 197.431 54.9533 197.798 53.0226 197.704C51.0919 197.611 49.6025 195.97 49.696 194.039C49.7894 192.108 51.4304 190.619 53.3611 190.712C55.2919 190.806 60.5935 193.569 60.5 195.5Z" fill="#5D44BD"/>
<path d="M219 86.5V77.6399C219 76.3146 217.736 75.3505 216.454 75.6883C211.673 76.9486 201.394 79.4987 196.5 79.4987C190 79.4987 155.671 88.5 138 88.5C96.0752 88.5 32 87.6392 32 82.8196C32 78 -6 78 -6 78V113.5C-6 113.5 54.5 98.2341 66 108.867C77.5 119.5 149 97 169.5 92.5C183.174 89.4983 191 88.5 201.5 88.5H217.002C218.107 88.5 219 87.6046 219 86.5Z" fill="#409F5C" stroke="#202020" stroke-width="2" stroke-linecap="round"/>
<path d="M140.548 15.504C140.189 12.8426 143.581 11.4827 141.846 11.717C139.181 12.0769 139.318 13.9535 137.763 14.9769C137.763 14.9769 140.865 17.8482 140.548 15.504Z" fill="#293068"/>
<path d="M134.428 37.9457C131.811 31.0736 131.547 19.0677 137.763 14.9769M137.763 14.9769C139.318 13.9535 139.181 12.0769 141.846 11.717C143.581 11.4827 140.189 12.8426 140.548 15.504C140.865 17.8482 137.763 14.9769 137.763 14.9769Z" stroke="#293068" stroke-width="2" stroke-linejoin="round"/>
<path d="M63.2018 75.8726C63.8275 81.6492 63.4481 86.4831 62.3544 86.6693C61.2607 86.8556 59.8669 82.3238 59.2413 76.5472C58.6156 70.7706 55.1379 66.5937 60.0887 65.7505C65.0394 64.9073 62.5762 70.096 63.2018 75.8726Z" fill="#4751A7"/>
<path d="M88.5212 76.8868C89.1468 82.6633 88.7674 87.4972 87.6737 87.6835C86.5801 87.8697 85.1862 83.3379 84.5606 77.5613C83.9349 71.7847 79.8846 66.9746 85.408 66.7646C90.8539 65.8366 87.8955 71.1102 88.5212 76.8868Z" fill="#4751A7"/>
<path d="M75.7206 21.3824C86.8106 22.6914 96.9004 28.7243 103.762 38.1828C110.438 47.3852 113.521 59.0946 112.371 70.8606L70.4642 65.914C66.1706 65.4072 61.2199 65.6224 56.2877 66.0195C51.3012 66.421 46.4088 66.9993 42.0027 67.2608C37.5891 67.5227 33.9318 67.4417 31.4924 66.6131C30.2944 66.2061 29.4829 65.6486 28.9964 64.9497C28.5195 64.2643 28.2694 63.32 28.43 61.9593C29.858 49.8607 35.6603 38.7956 44.5383 31.1921C53.4134 23.5911 64.6306 20.0733 75.7206 21.3824Z" fill="#F55376" stroke="#202020" stroke-width="2"/>
<mask id="mask1_982_8173" style="mask-type:alpha" maskUnits="userSpaceOnUse" x="27" y="20" width="87" height="52">
<path d="M113.257 71.972C114.714 59.6347 111.589 47.2691 104.572 37.5955C97.5543 27.9219 87.2184 21.7326 75.8379 20.3893C64.4574 19.0459 52.9646 22.6586 43.8876 30.4324C34.8106 38.2063 28.8931 49.5046 27.4369 61.8419C25.9806 74.1792 53.5896 64.9289 70.3471 66.907C87.1045 68.885 113.257 71.972 113.257 71.972Z" fill="white"/>
</mask>
<g mask="url(#mask1_982_8173)">
<ellipse cx="33.2973" cy="63.2082" rx="11" ry="9.5" transform="rotate(-7.69028 33.2973 63.2082)" fill="#FFE655"/>
<ellipse cx="69.6064" cy="21.9756" rx="15.5" ry="7.5" transform="rotate(-7.69028 69.6064 21.9756)" fill="#FFE655"/>
<ellipse cx="101.289" cy="39.898" rx="7.5" ry="10.5" transform="rotate(-7.69028 101.289 39.898)" fill="#FFE655"/>
<ellipse cx="39.767" cy="40.1349" rx="8.5" ry="7.5" transform="rotate(-7.69028 39.767 40.1349)" fill="#FFE655"/>
<ellipse cx="101.635" cy="68.6099" rx="8" ry="6" transform="rotate(-7.69028 101.635 68.6099)" fill="#FFE655"/>
<circle cx="65.1823" cy="63.9445" r="7.5" transform="rotate(-7.69028 65.1823 63.9445)" fill="#FFE655"/>
</g>
<path d="M75.7206 21.3863C86.8106 22.6953 96.9004 28.7282 103.762 38.1867C110.438 47.3891 113.521 59.0985 112.371 70.8645L70.4642 65.9179C66.1706 65.4111 61.2199 65.6263 56.2877 66.0234C51.3012 66.4249 46.4088 67.0032 42.0027 67.2647C37.5891 67.5266 33.9318 67.4456 31.4924 66.617C30.2944 66.21 29.4829 65.6526 28.9964 64.9536C28.5195 64.2682 28.2694 63.3239 28.43 61.9632C29.858 49.8646 35.6603 38.7995 44.5383 31.196C53.4134 23.595 64.6306 20.0772 75.7206 21.3863Z" stroke="#202020" stroke-width="2"/>
<path d="M55.6315 75.5914C56.2572 81.368 55.8778 86.2018 54.7841 86.3881C53.6904 86.5744 52.2966 82.0425 51.6709 76.2659C51.0453 70.4894 47.5676 66.3124 52.5184 65.4692C57.4691 64.626 55.0059 69.8148 55.6315 75.5914Z" fill="#293068"/>
<path d="M80.9509 76.6055C81.5765 82.3821 81.1971 87.2159 80.1034 87.4022C79.0097 87.5885 77.6159 83.0566 76.9903 77.2801C76.3646 71.5035 72.3142 66.6933 77.8377 66.4834C83.2835 65.5553 80.3252 70.8289 80.9509 76.6055Z" fill="#293068"/>
<path d="M114.862 79.2501C115.504 84.0045 115.147 87.9772 114.065 88.1233C112.983 88.2694 110.547 84.2351 109.905 79.4807C109.263 74.7262 105.513 69.118 111.74 70.906C115.227 70.8735 114.22 74.4957 114.862 79.2501Z" fill="#293068"/>
<path d="M122.43 79.5313C123.072 84.2858 122.715 88.2584 121.633 88.4045C120.551 88.5507 118.116 84.5163 117.474 79.7619C116.832 75.0075 113.082 69.3992 119.308 71.1873C122.795 71.1547 121.788 74.7769 122.43 79.5313Z" fill="#4751A7"/>
<path d="M122.807 34.4704C134.632 32.8737 145.526 42.4313 147.108 54.1436C148.675 65.7543 140.324 76.5042 128.401 78.1144C122.42 78.922 117.135 77.4617 113.156 74.3885C109.175 71.3138 106.44 66.5778 105.65 60.7262C105.232 57.6292 104.716 54.665 104.522 51.8154C104.33 48.982 104.469 46.3956 105.306 44.1208C106.931 39.7059 111.376 36.014 122.807 34.4704Z" fill="#C094EF" stroke="#202020" stroke-width="2"/>
<path d="M136.28 59.8962C135.503 69.0829 140.163 69.9672 145.212 66.2582" stroke="#293068" stroke-width="2" stroke-linecap="round" stroke-linejoin="round"/>
<ellipse cx="138.839" cy="48.9541" rx="1.5" ry="4.5" transform="rotate(-7.69028 138.839 48.9541)" fill="#242D70"/>
<path d="M154.926 22.1512C156.252 20.9582 154.893 18.0296 154.893 18.0296C157.15 18.8162 157.097 21.4462 155.813 24.8414C155.813 24.8414 152.546 24.2913 154.926 22.1512Z" fill="#293068"/>
<path d="M143.686 43.7607C147.682 38.8914 153.591 30.7196 155.813 24.8414M155.813 24.8414C157.097 21.4462 157.15 18.8162 154.893 18.0296C154.893 18.0296 156.252 20.9582 154.926 22.1512C152.546 24.2913 155.813 24.8414 155.813 24.8414Z" stroke="#293068" stroke-width="2" stroke-linejoin="round"/>
<path d="M0.82687 265.564C-4.20426 276.252 -3.79063 297.618 -3.79063 297.618C-3.79063 297.618 35.0921 299.731 41.0763 297.618C47.2185 295.448 48.115 295.509 54.4695 294.074C60.372 292.742 66.4318 294.971 72.4153 294.074C78.6913 293.134 77.4009 280.515 77.4009 280.515C77.4009 280.515 83.0856 271.258 83.0724 266.863C83.0543 260.873 78.3618 256.828 72.4153 255.795C68.144 255.054 61.6768 258.686 61.6768 258.686C61.6768 258.686 66.7367 252.265 65.2576 248.22C63.2395 242.701 56.0308 243.431 50.3837 245.255C45.7634 246.748 41.0763 253.462 41.0763 253.462C41.0763 253.462 41.1577 247.624 38.8503 245.193C34.388 240.491 25.2818 244.613 23.0606 250.71C22.0458 253.496 23.1789 258.28 23.1789 258.28C23.1789 258.28 17.8041 254.969 13.9923 255.052C7.40776 255.194 3.61735 259.636 0.82687 265.564Z" fill="#409F5C" stroke="#202020" stroke-width="2" stroke-linejoin="round"/>
<path d="M225.935 111.469C237.266 107.555 249.069 112.591 252.461 122.408C255.852 132.224 249.674 143.472 238.343 147.387C227.012 151.301 215.209 146.265 211.818 136.448C208.426 126.632 214.604 115.384 225.935 111.469Z" fill="#F974AD" stroke="#202020" stroke-width="2"/>
<path d="M265.511 143.926C252.076 150.287 264.764 157.526 262.226 157.193L259.041 160.932" stroke="#27336C" stroke-width="2" stroke-linecap="round"/>
<path d="M302.859 129.522C295.341 147.938 309.631 140.877 307.35 143.095L302.996 146.841" stroke="#27336C" stroke-width="2" stroke-linecap="round"/>
<path d="M257.751 141.819C248.829 149.844 253.474 153.063 255.703 153.748L252.149 157.657" stroke="#27336C" stroke-width="2" stroke-linecap="round"/>
<path d="M297.138 134.699C288.216 142.724 292.86 145.944 295.09 146.628L292.759 149.096" stroke="#27336C" stroke-width="2" stroke-linecap="round"/>
<path d="M270.573 101.336C278.758 98.5084 286.916 98.2453 293.47 100.057C300.03 101.87 304.885 105.722 306.73 111.063C308.576 116.404 307.133 122.431 303.092 127.907C299.053 133.378 292.472 138.206 284.287 141.034C276.101 143.862 267.943 144.125 261.389 142.313C254.829 140.5 249.974 136.649 248.129 131.307C246.284 125.966 247.726 119.939 251.768 114.464C255.806 108.992 262.387 104.164 270.573 101.336Z" fill="#F974AD" stroke="#202020" stroke-width="2"/>
<path d="M300.934 110.779C301.345 109.754 302.55 109.243 303.328 110.027C304.153 110.859 304.756 112.016 305.069 113.407C305.564 115.606 305.293 118.212 304.316 120.651C303.339 123.09 301.736 125.162 299.859 126.411C298.673 127.201 297.438 127.622 296.267 127.654C295.163 127.685 294.643 126.483 295.054 125.457L297.994 118.118L300.934 110.779Z" fill="#FFFF0B"/>
<path d="M213.406 103.628C216.605 102.255 212.824 98.5164 210.531 99.5145C208.237 100.513 208.795 105.608 213.406 103.628Z" fill="#F974AD"/>
<path d="M217.557 115.646C219.222 111.315 217.138 106.113 213.406 103.628M213.406 103.628C216.605 102.255 212.824 98.5164 210.531 99.5145C208.237 100.513 208.795 105.608 213.406 103.628Z" stroke="#DA0963" stroke-width="2" stroke-linecap="round"/>
<path d="M204.728 116.275C201.956 117.568 200.205 112.119 202.46 111.132C205.612 109.752 207.848 114.815 204.728 116.275Z" fill="#F974AD"/>
<path d="M210.458 127.625C206.939 125.694 204.154 120.755 204.728 116.275M204.728 116.275C201.956 117.568 200.205 112.119 202.46 111.132C205.612 109.752 207.848 114.815 204.728 116.275Z" stroke="#DA0963" stroke-width="2" stroke-linecap="round"/>
<path d="M295.946 60.7103C280.499 50.0094 257.307 69.6249 244.499 87.5078C231.691 105.391 250.698 118.666 250.698 118.666L303.156 104.903C308.32 96.7108 311.153 71.2447 295.946 60.7103Z" fill="#8EFFFF" stroke="#202020" stroke-width="2" stroke-linecap="round"/>
<circle cx="220.451" cy="128.301" r="4" transform="rotate(-23.2366 220.451 128.301)" fill="#292B69"/>
<path d="M225.38 137.275C225.638 137.164 225.941 137.283 226.01 137.555C226.097 137.9 226.128 138.262 226.101 138.631C226.062 139.176 225.897 139.726 225.617 140.251C225.337 140.775 224.947 141.263 224.469 141.687C223.991 142.112 223.434 142.463 222.831 142.722C222.227 142.981 221.589 143.143 220.952 143.197C220.316 143.252 219.693 143.199 219.12 143.041C218.547 142.882 218.034 142.622 217.612 142.276C217.326 142.041 217.085 141.769 216.895 141.469C216.745 141.231 216.867 140.929 217.126 140.819V140.819C217.384 140.708 217.679 140.831 217.839 141.062C217.98 141.268 218.153 141.454 218.353 141.619C218.689 141.895 219.097 142.102 219.554 142.228C220.01 142.354 220.506 142.396 221.013 142.353C221.521 142.309 222.029 142.181 222.51 141.974C222.99 141.768 223.434 141.488 223.814 141.15C224.195 140.812 224.506 140.424 224.729 140.006C224.952 139.588 225.083 139.15 225.115 138.715C225.133 138.457 225.117 138.204 225.065 137.96C225.007 137.685 225.121 137.386 225.38 137.275V137.275Z" fill="#5D44BD"/>
<path d="M285.036 65.7282C279.566 71.7742 278.272 76.2448 269.255 79.1562C265.985 80.2119 263.494 75.5741 266.385 73.7182C279.711 65.1642 291.968 58.0657 285.036 65.7282Z" fill="#FFFF0B"/>
<circle cx="4" cy="4" r="4" transform="matrix(-0.838973 0.544173 0.544173 0.838973 259.711 78.0078)" fill="#FFFF0B"/>
<path d="M318.549 221.192C318.549 221.192 321.499 200.576 265.475 209.947L267.781 231.892C321.22 235.905 318.549 221.192 318.549 221.192Z" fill="#FFFF0B" stroke="#202020" stroke-width="2" stroke-linecap="round"/>
<path d="M183.972 222.057C183.972 222.057 183.17 204.207 237.046 210.814L235.786 234.652C182.347 238.663 183.972 222.057 183.972 222.057Z" fill="#FFFF0B" stroke="#202020" stroke-width="2" stroke-linecap="round"/>
<path d="M250.164 195C255.264 195 259.99 197.996 263.483 203.062C266.974 208.122 269.164 215.169 269.164 223C269.164 230.831 266.974 237.878 263.483 242.938C259.99 248.004 255.264 251 250.164 251C245.064 251 240.338 248.004 236.845 242.938C233.355 237.878 231.164 230.831 231.164 223C231.164 215.169 233.355 208.122 236.845 203.062C240.338 197.996 245.064 195 250.164 195Z" fill="#65A6D3" stroke="#202020" stroke-width="2"/>
<path d="M258.664 197.046C258.664 192.046 258.164 182.246 256.164 183.046" stroke="#F55376" stroke-width="2" stroke-linecap="round"/>
<circle cx="255.664" cy="183.5" r="1" fill="#F55376" stroke="#F55376"/>
<path d="M240.664 197.999C240.664 192.999 241.164 183.199 243.164 183.999" stroke="#F55376" stroke-width="2" stroke-linecap="round"/>
<circle cx="243.664" cy="183.5" r="1" fill="#F55376" stroke="#F55376"/>
<path d="M248.023 251.5C244.466 256.248 244.157 259.089 248.023 264.5C248.023 264.5 248.078 265.113 248.023 265.5C247.694 267.836 242.523 268 242.523 268M253.523 251.5C256.352 256.597 256.007 259.407 253.523 264.5C253.523 264.5 253.469 265.113 253.523 265.5C253.853 267.836 259.023 268 259.023 268" stroke="#5D44BD" stroke-width="2" stroke-linecap="round"/>
<path d="M240.5 248C237.2 253.072 236.221 255.93 240.5 261C240.5 261 240.555 261.613 240.5 262C240.171 264.336 235 264.5 235 264.5" stroke="#5D44BD" stroke-width="2" stroke-linecap="round"/>
<path d="M261.023 247C264.037 252.377 264.764 255.312 261.023 260C261.023 260 260.969 260.613 261.023 261C261.353 263.336 266.523 263.5 266.523 263.5" stroke="#5D44BD" stroke-width="2" stroke-linecap="round"/>
<path d="M237.165 231.268C238.673 231.159 242.051 230.85 242.298 231.872" stroke="#F55376" stroke-width="2" stroke-linecap="round"/>
<path d="M237.165 225.268C238.673 225.159 242.051 224.85 242.298 225.872" stroke="#F55376" stroke-width="2" stroke-linecap="round"/>
<path d="M261.36 231.268C259.852 231.159 256.474 230.85 256.228 231.872" stroke="#F55376" stroke-width="2" stroke-linecap="round"/>
<path d="M261.36 225.268C259.852 225.159 256.474 224.85 256.228 225.872" stroke="#F55376" stroke-width="2" stroke-linecap="round"/>
<path d="M245.98 206.5C246.081 206.5 246.164 206.417 246.162 206.316C246.136 205.189 245.876 204.118 245.432 203.318C244.963 202.474 244.327 202 243.664 202C243.001 202 242.365 202.474 241.896 203.318C241.452 204.118 241.192 205.189 241.166 206.316C241.164 206.417 241.247 206.5 241.349 206.5C241.45 206.5 241.533 206.417 241.535 206.316C241.561 205.365 241.782 204.463 242.157 203.788C242.557 203.068 243.099 203.318 243.664 203.318C244.229 203.318 244.771 203.068 245.171 203.788C245.546 204.463 245.767 205.365 245.793 206.316C245.795 206.417 245.878 206.5 245.98 206.5Z" fill="#5D44BD"/>
<path d="M257.98 206.5C258.081 206.5 258.164 206.417 258.162 206.316C258.136 205.189 257.876 204.118 257.432 203.318C256.963 202.474 256.327 202 255.664 202C255.001 202 254.365 202.474 253.896 203.318C253.452 204.118 253.192 205.189 253.166 206.316C253.164 206.417 253.247 206.5 253.349 206.5C253.45 206.5 253.533 206.417 253.535 206.316C253.561 205.365 253.782 204.463 254.157 203.788C254.557 203.068 255.099 203.318 255.664 203.318C256.229 203.318 256.771 203.068 257.171 203.788C257.546 204.463 257.767 205.365 257.793 206.316C257.795 206.417 257.878 206.5 257.98 206.5Z" fill="#5D44BD"/>
<path d="M255.272 215C255.674 215 256.009 215.331 255.902 215.719C255.826 215.997 255.706 216.269 255.543 216.531C255.242 217.016 254.8 217.457 254.243 217.828C253.685 218.2 253.024 218.494 252.296 218.696C251.568 218.897 250.788 219 250 219C249.212 219 248.432 218.897 247.704 218.696C246.976 218.494 246.315 218.2 245.757 217.828C245.2 217.457 244.758 217.016 244.457 216.531C244.294 216.269 244.174 215.997 244.098 215.719C243.991 215.331 244.326 215 244.728 215V215C245.13 215 245.446 215.335 245.583 215.713C245.638 215.865 245.711 216.014 245.801 216.159C246.03 216.527 246.365 216.861 246.787 217.142C247.209 217.424 247.71 217.647 248.261 217.799C248.812 217.951 249.403 218.03 250 218.03C250.597 218.03 251.188 217.951 251.739 217.799C252.29 217.647 252.791 217.424 253.213 217.142C253.635 216.861 253.97 216.527 254.199 216.159C254.289 216.014 254.362 215.865 254.417 215.713C254.554 215.335 254.87 215 255.272 215V215Z" fill="#5D44BD"/>
<circle cx="205.5" cy="220.5" r="3.5" fill="#F55376"/>
<circle cx="298.5" cy="220.5" r="3.5" fill="#F55376"/>
<rect width="2" height="4" rx="1" transform="matrix(1 0 0 -1 249 212)" fill="#F55376"/>
<rect x="211" y="221" width="16" height="1" rx="0.5" fill="#F55376"/>
<rect x="277" y="221" width="16" height="1" rx="0.5" fill="#F55376"/>
</g>
</svg>
