<?xml version="1.0" encoding="UTF-8"?><svg id="Layer_2" xmlns="http://www.w3.org/2000/svg" viewBox="0 0 137.3 164"><defs><style>.cls-1,.cls-2,.cls-3,.cls-4{fill:none;stroke-linecap:round;stroke-miterlimit:10;}.cls-1,.cls-4{stroke:#fff;stroke-width:1.5px;}.cls-2{stroke-dasharray:0 0 1 1;}.cls-2,.cls-3{stroke:#ff7925;stroke-width:.5px;}.cls-5{fill:#fff;}.cls-6{fill:#ff605a;}.cls-7{fill:#bc4646;}.cls-8{fill:#ce4a4a;}.cls-4{stroke-dasharray:0 0 3.02 3.02;}.cls-9{opacity:.2;}.cls-10{opacity:.3;}</style></defs><g id="Graphic_Elements"><g><g><path class="cls-6" d="M20.27,0H117.03C128.22,0,137.3,9.08,137.3,20.27v125.84c0,9.88-8.02,17.89-17.89,17.89H17.89C8.02,164,0,155.98,0,146.11V20.27C0,9.08,9.08,0,20.27,0Z"/><path class="cls-8" d="M16.97,0h5.94V149.67H0V16.97C0,7.6,7.6,0,16.97,0Z"/><g class="cls-9"><g><line class="cls-1" x1="22.91" y1="2.23" x2="22.91" y2="3.73"/><line class="cls-4" x1="22.91" y1="6.76" x2="22.91" y2="132.24"/><line class="cls-1" x1="22.91" y1="133.76" x2="22.91" y2="135.26"/></g></g><path class="cls-7" d="M124.01,135.26c6.11,0,11.25-4.45,12.81-10.51,.08-.31,.49-.25,.49,.07v24.81c0,7.94-5.95,14.37-13.3,14.37H13.3C5.95,164,0,157.57,0,149.63H0c0-7.94,5.95-14.37,13.3-14.37H124.01"/><path class="cls-6" d="M125.4,142.24c2.12-.02,4.75-1.68,6.17-4.12,.3-.51,1.03-.24,1.03,.36v11.54c0,4.3-3.22,7.78-7.2,7.78H13.36c-3.98,0-7.2-3.48-7.2-7.78h0c0-4.3,3.22-7.78,7.2-7.78H125.4"/><path class="cls-7" d="M59.01,35.51l-11.69-5.7-11.69,5.7c-.97,.47-2.07-.29-2.07-1.45V0h27.52V34.07c0,1.15-1.1,1.92-2.07,1.45Z"/></g><g><g class="cls-10"><path class="cls-5" d="M83.19,35.61c.74-.19,1.8-.27,3.18-.23,1.38,.03,2.72,.23,4.02,.61,1.85,.53,3.42,1.27,4.7,2.23,1.27,.94,1.95,2.05,2.03,3.33,.11,2.12,.19,4.58,.23,7.36,.04,2.79,.06,5.66,.06,8.61,0,2.95-.02,5.87-.04,8.73-.02,2.87-.04,5.41-.07,7.61-.6,.39-1.38,.62-2.37,.67-.98,.06-2.08-.08-3.31-.44-.89-.25-1.62-.55-2.19-.87-.57-.33-1.01-.69-1.31-1.11-.3-.4-.51-.89-.61-1.44-.1-.55-.16-1.17-.16-1.86l.1-4.13-10.08-2.89c-.62,1.03-1.24,2.1-1.88,3.2-.64,1.1-1.27,2.17-1.89,3.2-.57,.04-1.17,.04-1.78,0-.62-.03-1.33-.17-2.14-.4-1.9-.54-3.2-1.27-3.93-2.19-.72-.91-.92-1.94-.59-3.09,.15-.53,.37-1.02,.67-1.5,.3-.48,.64-1.04,1.03-1.7,.55-.93,1.27-2.06,2.16-3.42,.89-1.35,1.87-2.81,2.92-4.38,1.05-1.57,2.16-3.17,3.31-4.81,1.15-1.64,2.24-3.19,3.26-4.64,1.02-1.45,1.95-2.74,2.77-3.87,.83-1.13,1.47-2,1.92-2.59Zm4.62,9.1c-.97,1.41-2.05,2.98-3.25,4.71-1.2,1.73-2.34,3.5-3.43,5.32l6.91,1.99c.06-2.15,.09-4.26,.1-6.33,.01-2.07,.01-3.93,0-5.58l-.33-.1Z"/></g><g class="cls-10"><path class="cls-5" d="M47.4,114.67c-.61,0-1.33-.02-2.16-.05-.83-.04-1.68-.11-2.56-.22-.88-.11-1.75-.24-2.62-.41-.86-.16-1.66-.39-2.37-.67-1.98-.76-2.97-2.07-2.97-3.94v-25.19c0-.75,.21-1.34,.62-1.75,.41-.41,.98-.75,1.7-1,1.22-.43,2.75-.75,4.58-.94,1.84-.2,3.72-.3,5.66-.3,4.6,0,8.15,.77,10.63,2.32,2.48,1.54,3.72,3.94,3.72,7.17,0,1.62-.47,3.01-1.4,4.18-.93,1.17-2.19,2.02-3.78,2.56,1.8,.5,3.3,1.42,4.5,2.75,1.2,1.33,1.81,3.01,1.81,5.02,0,3.56-1.32,6.19-3.96,7.9-2.64,1.71-6.45,2.56-11.41,2.56Zm-3.51-20.77h3.94c1.55,0,2.67-.29,3.37-.86,.7-.57,1.05-1.42,1.05-2.53,0-.97-.41-1.74-1.21-2.32-.81-.57-2.02-.86-3.64-.86-.54,0-1.16,.02-1.86,.06-.7,.03-1.25,.09-1.65,.16v6.37Zm0,13.16c.5,.15,1.15,.24,1.94,.3s1.55,.08,2.27,.08c1.44,0,2.63-.29,3.59-.89,.95-.59,1.43-1.52,1.43-2.78,0-1.19-.4-2.03-1.19-2.53-.79-.5-2-.76-3.61-.76h-4.42v6.58Z"/></g><g class="cls-10"><path class="cls-5" d="M115.95,90.62c-2.81,0-4.96,.86-6.45,2.57-1.5,1.72-2.24,4.14-2.24,7.27s.83,5.61,2.49,7.32c1.66,1.72,3.89,2.57,6.7,2.57,1.49,0,2.76-.2,3.8-.6,1.04-.4,2.03-.86,2.98-1.36,.62,.51,1.1,1.12,1.45,1.83,.35,.71,.52,1.54,.52,2.49,0,1.5-.83,2.76-2.49,3.8s-4.18,1.56-7.57,1.56c-2.44,0-4.74-.35-6.89-1.04-2.15-.69-4.03-1.76-5.63-3.2-1.6-1.44-2.87-3.26-3.8-5.47-.93-2.2-1.39-4.84-1.39-7.9,0-2.84,.45-5.35,1.34-7.52,.89-2.17,2.11-4,3.66-5.49,1.55-1.5,3.36-2.62,5.44-3.39,2.08-.76,4.3-1.15,6.67-1.15,3.35,0,5.95,.55,7.79,1.64,1.84,1.09,2.76,2.5,2.76,4.21,0,.95-.24,1.77-.71,2.46-.47,.69-1.02,1.24-1.64,1.64-.95-.62-1.96-1.15-3.04-1.58-1.08-.44-2.32-.66-3.74-.66Z"/></g><g><path class="cls-3" d="M124.17,111.09c-.13,.1-.27,.2-.4,.3"/><path class="cls-2" d="M122.93,111.93c-2.96,1.76-6.47,2.34-9.69,2.34-7.3,0-12.13-6.57-12.13-14.19s5.92-13.78,13.21-13.78c3.25,0,6.23,1.22,8.53,3.25"/><path class="cls-3" d="M123.22,89.9c.12,.11,.24,.23,.36,.35"/></g></g></g></g></svg>