<svg width="365" height="133" viewBox="0 0 344 116" fill="none" xmlns="http://www.w3.org/2000/svg">
<path d="M31.7251 11.1715C29.6307 10.6033 21.462 8.30256 19.793 8.97115C20.518 9.77113 27.4339 14.1984 29.7236 15.0263C32.5857 16.0611 36.7846 15.9063 37.3509 15.0259C37.9171 14.1455 34.3228 11.8763 31.7251 11.1715Z" fill="#81C127" stroke="#81C127" stroke-linejoin="round"/>
<path d="M4.5059 57.2269C6.03017 58.5649 11.9209 63.8779 13.8556 63.6955C13.7152 62.5606 10.3195 55.3017 8.78571 53.6087C6.86853 51.4925 2.98196 50.2507 1.90604 51.0403C0.830116 51.8299 2.61529 55.5672 4.5059 57.2269Z" fill="#81C127" stroke="#81C127" stroke-linejoin="round"/>
<path d="M187.032 19.8824C187.456 21.8658 189.01 29.6449 190.671 30.6537C191.236 29.6595 192.846 21.8089 192.626 19.5351C192.351 16.6928 189.975 13.3762 188.641 13.3672C187.306 13.3583 186.507 17.4222 187.032 19.8824Z" fill="#81C127" stroke="#81C127" stroke-linejoin="round"/>
<path d="M104.864 13.9118C104.53 15.9124 103.119 23.7187 104.293 25.2667C105.184 24.5493 109.564 17.838 110.194 15.6423C110.982 12.8977 109.989 8.94027 108.751 8.442C107.513 7.94372 105.278 11.4304 104.864 13.9118Z" fill="#81C127" stroke="#81C127" stroke-linejoin="round"/>
<path d="M33.072 99.1786C31.0817 98.7883 23.3185 97.1573 21.7378 98.2875C22.4297 99.198 29.0145 103.766 31.1915 104.458C33.9127 105.323 37.8967 104.443 38.4297 103.219C38.9628 101.996 35.5407 99.6628 33.072 99.1786Z" fill="#81C127" stroke="#81C127" stroke-linejoin="round"/>
<path d="M334.404 91.3968L338.76 90.9002C338.217 90.1006 332.61 86.9732 330.968 85.159C325.852 79.5056 328.039 84.7881 327.942 85.7889C327.933 85.885 327.922 86.043 327.911 86.2473C327.702 90.1022 330.514 91.8403 334.404 91.3968Z" fill="#81C127"/>
<path d="M342.886 90.4298L334.404 91.3968C330.514 91.8403 327.702 90.1022 327.911 86.2473C327.922 86.043 327.933 85.885 327.942 85.7889C328.039 84.7881 325.852 79.5056 330.968 85.159C332.61 86.9732 338.217 90.1006 338.76 90.9002" stroke="#81C127" stroke-width="2" stroke-linecap="round" stroke-linejoin="round"/>
<path d="M162.005 89.0913L160.462 93.1942C161.421 93.0754 166.761 89.5104 169.124 88.8761C176.488 86.8997 170.789 86.4377 169.942 85.8959C169.861 85.8439 169.725 85.762 169.549 85.659C166.213 83.7162 163.384 85.4266 162.005 89.0913Z" fill="#81C127"/>
<path d="M159 97.0812L162.005 89.0913C163.384 85.4266 166.213 83.7162 169.549 85.659C169.725 85.762 169.861 85.8439 169.942 85.8959C170.789 86.4377 176.488 86.8997 169.124 88.8761C166.761 89.5104 161.421 93.0754 160.462 93.1942" stroke="#81C127" stroke-width="2" stroke-linecap="round" stroke-linejoin="round"/>
<path d="M305.903 31.4492L301.704 30.1914C301.888 31.1402 305.811 36.222 306.607 38.536C309.084 45.7467 309.154 40.0301 309.636 39.1479C309.682 39.0632 309.755 38.9224 309.845 38.7389C311.554 35.2773 309.654 32.5727 305.903 31.4492Z" fill="#81C127"/>
<path d="M297.725 28.9997L305.903 31.4492C309.654 32.5727 311.554 35.2773 309.845 38.7389C309.755 38.9224 309.682 39.0632 309.636 39.1479C309.154 40.0301 309.084 45.7467 306.607 38.536C305.811 36.222 301.888 31.1402 301.704 30.1914" stroke="#81C127" stroke-width="2" stroke-linecap="round" stroke-linejoin="round"/>
<path d="M253.414 17.5325L253.558 13.1514C252.688 13.5718 248.776 18.6621 246.741 20.0214C240.401 24.257 245.946 22.8654 246.923 23.1066C247.016 23.1297 247.171 23.1638 247.371 23.2046C251.154 23.9737 253.284 21.4458 253.414 17.5325Z" fill="#81C127"/>
<path d="M253.695 9.00071L253.414 17.5325C253.284 21.4458 251.154 23.9737 247.371 23.2046C247.171 23.1638 247.016 23.1297 246.923 23.1066C245.946 22.8654 240.401 24.257 246.741 20.0214C248.776 18.6621 252.688 13.5718 253.558 13.1514" stroke="#81C127" stroke-width="2" stroke-linecap="round" stroke-linejoin="round"/>
<ellipse cx="281" cy="16.968" rx="3" ry="3.12819" fill="#F92A82"/>
<ellipse cx="10" cy="29.1282" rx="3" ry="3.12819" fill="#F92A82"/>
<ellipse cx="267" cy="104.128" rx="3" ry="3.12819" fill="#F92A82"/>
<ellipse cx="13" cy="84.1282" rx="3" ry="3.12819" fill="#F92A82"/>
<ellipse cx="61" cy="100.128" rx="3" ry="3.12819" fill="#0267C1"/>
<path d="M150.549 10.9692L148.642 13.6209C149.578 13.7168 153.56 13.3306 155.719 12.3123C158.417 11.0394 161.354 8.34553 163.354 8.41855C163.795 8.43466 160.967 7.89559 158.207 7.46879C155.054 6.98127 152.418 8.36971 150.549 10.9692Z" fill="#81C127"/>
<path d="M144.999 18.6865L150.549 10.9692C152.418 8.36971 155.054 6.98127 158.207 7.46879C160.967 7.89559 163.795 8.43466 163.354 8.41855C161.354 8.34553 158.417 11.0394 155.719 12.3123C153.56 13.3306 149.578 13.7168 148.642 13.6209" stroke="#81C127" stroke-width="2" stroke-linecap="round" stroke-linejoin="round"/>
<path d="M105.299 107.104L107.799 105.002C106.915 104.679 102.96 104.075 100.618 104.532C97.6896 105.103 94.1804 106.993 92.2601 106.431C91.8366 106.307 94.4451 107.524 97.0159 108.616C99.9524 109.863 102.849 109.165 105.299 107.104Z" fill="#81C127"/>
<path d="M112.574 100.986L105.299 107.104C102.849 109.165 99.9524 109.863 97.0159 108.616C94.4451 107.524 91.8366 106.307 92.2601 106.431C94.1804 106.993 97.6896 105.103 100.618 104.532C102.96 104.075 106.915 104.679 107.799 105.002" stroke="#81C127" stroke-width="2" stroke-linecap="round" stroke-linejoin="round"/>
<path d="M68.6253 13.9879L71.1519 16.0577C71.3064 15.1293 71.1714 11.1309 70.2908 8.91272C69.1901 6.14006 66.6862 3.03904 66.8848 1.04809C66.9286 0.608966 66.2128 3.39704 65.6133 6.12493C64.9285 9.24093 66.1485 11.9589 68.6253 13.9879Z" fill="#81C127"/>
<path d="M75.9784 20.0116L68.6253 13.9879C66.1485 11.9589 64.9285 9.24093 65.6133 6.12493C66.2128 3.39704 66.9286 0.608966 66.8848 1.04809C66.6862 3.03904 69.1901 6.14006 70.2908 8.91272C71.1714 11.1309 71.3064 15.1293 71.1519 16.0577" stroke="#81C127" stroke-width="2" stroke-linecap="round" stroke-linejoin="round"/>
<ellipse cx="134" cy="19.9253" rx="2" ry="2.08546" fill="#F92A82"/>
<ellipse cx="331" cy="66.0855" rx="2" ry="2.08546" fill="#F92A82"/>
<path d="M225.717 108.111C228.666 109.437 240.132 114.777 242.995 113.594C242.25 111.93 233.676 102.456 230.546 100.593C226.634 98.265 220.129 98.1915 218.859 99.8986C217.588 101.606 222.059 106.466 225.717 108.111Z" fill="#81C127" stroke="#81C127" stroke-linejoin="round"/>
<ellipse cx="194" cy="106.085" rx="2" ry="2.08546" fill="#F92A82"/>
<ellipse cx="314" cy="107.085" rx="2" ry="2.08546" fill="#F92A82"/>
<ellipse cx="213" cy="18.968" rx="3" ry="3.12819" fill="#0267C1"/>
<ellipse cx="296" cy="103.128" rx="3" ry="3.12819" fill="#0267C1"/>
<ellipse cx="334" cy="40.1282" rx="3" ry="3.12819" fill="#0267C1"/>
<ellipse cx="64" cy="31.1282" rx="3" ry="3.12819" fill="#0267C1"/>
<ellipse cx="129" cy="94.1282" rx="3" ry="3.12819" fill="#0267C1"/>
</svg>
