<?xml version="1.0" encoding="utf-8"?>
<svg xmlns="http://www.w3.org/2000/svg" viewBox="0 0 250 250">
  <path d="M 96.872 101.593 C 96.872 109.537 96.872 117.445 96.9 125.386 C 96.9 133.327 96.96 141.235 96.989 149.177 C 97.018 157.154 97.074 165.096 97.133 173.073 C 97.133 177.026 97.19 180.946 97.19 184.899 C 97.19 188.234 97.104 191.606 97.279 194.905 C 97.51 199.547 98.147 204.154 97.945 208.83 C 97.945 209.378 97.884 209.929 97.828 210.444 C 97.856 210.067 97.913 209.69 97.973 209.312 C 97.884 210.137 97.742 210.996 97.452 211.751 C 97.567 211.408 97.684 211.065 97.828 210.718 C 97.713 211.03 97.567 211.34 97.422 211.615 C 97.625 211.34 97.799 211.03 98.001 210.753 C 97.884 210.926 97.742 211.065 97.596 211.2 C 97.828 210.961 98.087 210.753 98.32 210.514 C 97.973 210.823 97.567 211.03 97.19 211.235 C 97.482 211.1 97.771 210.961 98.059 210.789 C 96.437 211.615 94.671 211.993 92.99 212.542 C 91.166 213.126 89.834 215.637 90.444 217.872 C 91.05 220.106 92.962 221.516 94.931 220.895 C 97.452 220.072 100.261 219.589 102.376 217.631 C 104.722 215.465 105.155 211.751 105.272 208.416 C 105.358 205.425 105.155 202.433 104.925 199.479 C 104.837 198.205 104.722 196.898 104.634 195.626 C 104.548 194.149 104.548 192.669 104.548 191.226 C 104.49 181.668 104.431 172.076 104.373 162.517 C 104.316 152.995 104.259 143.435 104.23 133.911 C 104.199 124.319 104.171 114.764 104.171 105.169 L 104.171 101.593 C 104.171 99.324 102.491 97.16 100.521 97.261 C 98.551 97.365 96.872 99.152 96.872 101.593 Z" fill="#FF5500" style=""/>
  <path d="M 142.546 101.629 C 142.546 111.221 142.546 120.779 142.482 130.373 C 142.418 139.965 142.385 149.525 142.321 159.084 C 142.258 168.64 142.195 178.235 142.131 187.794 C 142.131 191.025 142.131 194.258 141.876 197.455 C 141.621 200.413 141.334 203.334 141.304 206.291 C 141.238 209.387 141.366 212.72 142.768 215.507 C 143.723 217.465 145.445 218.429 147.259 219.22 C 148.534 219.77 149.905 220.148 151.242 220.492 C 151.753 220.63 152.231 220.731 152.742 220.904 C 154.747 221.49 157.169 220.182 157.678 217.877 C 158.156 215.608 157.04 213.202 154.875 212.549 C 152.995 211.999 151.083 211.621 149.298 210.796 C 149.618 210.933 149.937 211.071 150.256 211.243 C 149.809 211.036 149.395 210.796 149.013 210.519 C 149.269 210.761 149.554 210.968 149.809 211.208 C 149.649 211.071 149.491 210.933 149.363 210.761 C 149.586 211.036 149.777 211.345 150.001 211.621 C 149.809 211.345 149.649 211.036 149.554 210.727 C 149.681 211.071 149.809 211.413 149.969 211.757 C 149.681 210.968 149.523 210.142 149.395 209.318 C 149.426 209.695 149.491 210.073 149.554 210.451 C 148.98 205.775 149.681 200.963 150.065 196.32 C 150.287 193.534 150.224 190.715 150.256 187.895 C 150.256 183.942 150.319 180.022 150.319 176.068 C 150.383 168.091 150.415 160.148 150.478 152.17 C 150.51 144.23 150.575 136.32 150.606 128.378 C 150.606 120.437 150.669 112.528 150.669 104.585 L 150.669 101.593 C 150.669 99.324 148.821 97.16 146.656 97.261 C 144.489 97.365 142.64 99.152 142.64 101.593 L 142.546 101.629 Z" fill="#FF5500" style=""/>
  <path d="M 204.012 57.242 C 203.983 57.242 203.921 57.242 203.89 57.242 C 204.228 57.172 204.536 57.102 204.873 57.032 C 204.751 57.032 204.629 57.102 204.505 57.172 C 204.812 56.999 205.12 56.825 205.428 56.651 C 205.304 56.72 205.182 56.825 205.09 56.895 C 205.336 56.651 205.611 56.373 205.857 56.095 C 205.704 56.27 205.582 56.443 205.459 56.651 C 205.643 56.338 205.827 56.026 206.012 55.713 C 205.827 56.06 205.675 56.443 205.582 56.825 C 205.675 56.476 205.798 56.128 205.889 55.747 C 205.52 57.102 205.397 58.528 205.336 59.918 C 205.336 59.536 205.365 59.188 205.397 58.806 C 205.182 62.906 205.397 67.009 205.49 71.076 C 205.52 73.128 205.551 75.211 205.459 77.262 C 205.365 79.348 205.273 81.433 204.843 83.451 C 204.289 85.987 203.244 88.421 202.106 90.714 C 200.751 93.426 199.183 96.067 197.338 98.397 C 193.771 102.951 189.338 106.53 184.357 108.719 C 179.127 111.015 173.436 111.568 167.899 110.805 C 167.222 110.702 166.545 110.598 165.868 110.459 C 163.868 110.076 162.331 107.644 162.792 105.348 C 163.284 103.02 165.193 101.456 167.316 101.872 C 168.637 102.151 169.99 102.325 171.345 102.428 C 171.005 102.428 170.698 102.395 170.359 102.36 C 172.975 102.532 175.621 102.36 178.205 101.768 C 177.865 101.838 177.556 101.907 177.22 101.976 C 179.649 101.422 182.019 100.484 184.262 99.231 C 183.956 99.404 183.648 99.579 183.34 99.752 C 185.679 98.432 187.834 96.763 189.77 94.781 C 189.524 95.025 189.248 95.303 189 95.582 C 191.156 93.357 193.032 90.821 194.63 88.039 C 194.447 88.35 194.262 88.665 194.077 88.978 C 194.786 87.726 195.43 86.403 196.046 85.084 C 196.538 83.972 197.032 82.824 197.399 81.642 C 197.308 81.99 197.185 82.338 197.091 82.721 C 197.584 80.982 197.738 79.14 197.83 77.333 C 197.83 77.715 197.799 78.063 197.768 78.445 C 197.983 74.101 197.768 69.755 197.706 65.41 C 197.644 61.274 197.492 56.93 198.69 52.968 C 199.43 50.498 201.274 48.76 203.582 48.412 C 205.582 48.134 207.643 50.186 207.705 52.479 C 207.766 54.947 206.258 56.858 204.105 57.137 L 204.012 57.242 Z" fill="#FF5500" style=""/>
  <path d="M 48.941 55.266 C 48.971 55.266 49.03 55.266 49.06 55.266 C 48.765 55.162 48.438 55.057 48.143 54.953 C 48.262 54.988 48.379 55.057 48.496 55.125 C 48.202 54.916 47.933 54.706 47.638 54.499 C 47.757 54.567 47.846 54.673 47.933 54.777 C 47.696 54.499 47.49 54.219 47.254 53.904 C 47.402 54.08 47.49 54.29 47.61 54.499 C 47.462 54.149 47.313 53.833 47.166 53.487 C 47.313 53.833 47.431 54.256 47.521 54.639 C 47.462 54.29 47.373 53.904 47.313 53.555 C 47.578 54.953 47.578 56.383 47.55 57.781 C 47.55 57.397 47.55 57.047 47.55 56.663 C 47.431 60.784 46.928 64.867 46.544 68.954 C 46.366 71.014 46.188 73.074 46.098 75.134 C 46.009 77.23 45.95 79.324 46.217 81.384 C 46.544 84.004 47.373 86.518 48.291 88.926 C 49.386 91.791 50.689 94.583 52.288 97.098 C 55.368 101.989 59.336 106.038 63.956 108.727 C 68.576 111.416 74.201 112.673 79.59 112.463 C 80.242 112.463 80.893 112.393 81.544 112.322 C 83.499 112.114 85.156 109.843 84.891 107.539 C 84.594 105.164 82.908 103.383 80.833 103.592 C 79.533 103.733 78.228 103.767 76.956 103.733 C 77.28 103.733 77.578 103.733 77.902 103.733 C 75.384 103.628 72.868 103.209 70.441 102.334 C 70.736 102.441 71.062 102.547 71.358 102.65 C 69.047 101.848 66.858 100.696 64.815 99.192 C 65.11 99.403 65.377 99.613 65.673 99.823 C 63.541 98.25 61.617 96.366 59.899 94.2 C 60.136 94.481 60.342 94.759 60.579 95.074 C 58.654 92.629 57.055 89.905 55.752 86.972 C 55.901 87.322 56.049 87.635 56.197 87.985 C 55.604 86.656 55.07 85.297 54.627 83.899 C 54.244 82.748 53.857 81.559 53.59 80.338 C 53.65 80.687 53.74 81.072 53.798 81.422 C 53.443 79.639 53.443 77.754 53.503 75.939 C 53.503 76.323 53.503 76.671 53.503 77.055 C 53.622 72.69 54.152 68.361 54.568 64.031 C 54.952 59.874 55.426 55.546 54.568 51.459 C 54.035 48.912 52.406 46.99 50.214 46.431 C 48.319 45.943 46.188 47.795 45.95 50.063 C 45.714 52.542 46.987 54.567 49.03 55.091 L 48.941 55.266 Z" fill="#FF5500" style=""/>
  <path d="M 175.033 92.175 C 183.731 92.175 190.781 84.962 190.781 76.067 C 190.781 67.169 183.731 59.957 175.033 59.957 C 166.335 59.957 159.285 67.169 159.285 76.067 C 159.285 84.962 166.335 92.175 175.033 92.175 Z" fill="#FF5500" style=""/>
  <path d="M 175.035 87.093 C 180.42 87.093 184.785 82.915 184.785 77.764 C 184.785 72.616 180.42 68.44 175.035 68.44 C 169.649 68.44 165.286 72.616 165.286 77.764 C 165.286 82.915 169.649 87.093 175.035 87.093 Z" fill="#FFBC00" style=""/>
  <path d="M 76.045 92.175 C 84.742 92.175 91.794 84.962 91.794 76.067 C 91.794 67.169 84.742 59.957 76.045 59.957 C 67.349 59.957 60.296 67.169 60.296 76.067 C 60.296 84.962 67.349 92.175 76.045 92.175 Z" fill="#FF5500" style=""/>
  <path d="M 76.046 87.093 C 81.43 87.093 85.795 82.915 85.795 77.764 C 85.795 72.616 81.43 68.44 76.046 68.44 C 70.661 68.44 66.298 72.616 66.298 77.764 C 66.298 82.915 70.661 87.093 76.046 87.093 Z" fill="#FFBC00" style=""/>
  <path d="M 124.792 137.958 C 152.957 137.958 175.788 112.906 175.788 82.002 C 175.788 51.096 152.957 26.044 124.792 26.044 C 96.627 26.044 73.796 51.096 73.796 82.002 C 73.796 112.906 96.627 137.958 124.792 137.958 Z" fill="#FF5500" style=""/>
  <path d="M 126.288 127.785 C 141.199 127.785 153.285 114.121 153.285 97.262 C 153.285 80.408 141.199 66.741 126.288 66.741 C 111.378 66.741 99.291 80.408 99.291 97.262 C 99.291 114.121 111.378 127.785 126.288 127.785 Z" fill="#FFBC00" style=""/>
  <path d="M 153.941 59.957 L 97.133 59.957 C 90.869 59.957 85.79 66.029 85.79 73.521 C 85.79 81.014 90.869 87.088 97.133 87.088 L 153.941 87.088 C 160.204 87.088 165.284 81.014 165.284 73.521 C 165.284 66.029 160.204 59.957 153.941 59.957 Z" fill="#FFBC00" style=""/>
  <path d="M 122.653 74.161 C 123.512 68.16 119.906 62.508 114.599 61.536 C 109.292 60.564 104.292 64.641 103.43 70.641 C 102.571 76.643 106.176 82.297 111.485 83.268 C 116.793 84.239 121.793 80.162 122.653 74.161 Z" fill="white" style=""/>
  <path d="M 112.794 82.004 C 114.451 82.004 115.793 80.105 115.793 77.764 C 115.793 75.423 114.451 73.525 112.794 73.525 C 111.137 73.525 109.794 75.423 109.794 77.764 C 109.794 80.105 111.137 82.004 112.794 82.004 Z" fill="#2D2D2D" style=""/>
  <path d="M 137.539 83.698 C 142.924 83.698 147.288 78.764 147.288 72.677 C 147.288 66.589 142.924 61.655 137.539 61.655 C 132.154 61.655 127.791 66.589 127.791 72.677 C 127.791 78.764 132.154 83.698 137.539 83.698 Z" fill="white" style=""/>
  <path d="M 139.042 82.004 C 141.112 82.004 142.791 80.105 142.791 77.764 C 142.791 75.423 141.112 73.525 139.042 73.525 C 136.971 73.525 135.292 75.423 135.292 77.764 C 135.292 80.105 136.971 82.004 139.042 82.004 Z" fill="#2D2D2D" style=""/>
  <path d="M 121.791 98.961 C 120.961 98.961 120.291 97.076 120.291 94.721 C 120.291 92.366 120.961 90.483 121.791 90.483 C 122.617 90.483 123.288 92.366 123.288 94.721 C 123.288 97.076 122.617 98.961 121.791 98.961 Z" fill="#FF5500" style=""/>
  <path d="M 127.791 98.961 C 128.62 98.961 129.291 97.062 129.291 94.721 C 129.291 92.38 128.62 90.483 127.791 90.483 C 126.962 90.483 126.292 92.38 126.292 94.721 C 126.292 97.062 126.962 98.961 127.791 98.961 Z" fill="#FF5500" style=""/>
  <path d="M 125.283 112.524 C 121.96 112.524 118.97 111.985 116.407 111.28 C 108.479 109.059 103.263 104.649 103.049 104.48 C 102.196 103.74 102.043 102.428 102.713 101.485 C 103.385 100.543 104.574 100.375 105.428 101.116 C 105.52 101.183 110.339 105.221 117.504 107.206 C 127.023 109.833 135.989 107.779 144.193 101.083 C 145.048 100.375 146.267 100.577 146.907 101.522 C 147.549 102.464 147.366 103.808 146.512 104.515 C 138.978 110.64 131.597 112.524 125.283 112.524 Z" fill="#FF5500" style=""/>
</svg>