<svg width="117" height="115" viewBox="0 0 117 115" fill="none" xmlns="http://www.w3.org/2000/svg">
<g> 
<ellipse cx="27" cy="28.1537" rx="27" ry="28.1537" transform="matrix(1 -0.000682945 0.000628121 1 27.0625 27.6016)" fill="#FFD873"/>
<g filter="url(#filter0_ddddii_1556_66072)">
<ellipse cx="21.9231" cy="22.8598" rx="21.9231" ry="22.8598" transform="matrix(1 -0.000682945 0.000628121 1 32.0176 31.7891)" fill="#FFC805"/>
</g>
<ellipse cx="2" cy="1.56409" rx="2" ry="1.56409" transform="matrix(1 -0.000682945 0.000628121 1 52.1152 39.0391)" fill="#FFC700"/>
<ellipse cx="1.5" cy="1.56409" rx="1.5" ry="1.56409" transform="matrix(1 -0.000682945 0.000628121 1 61.1133 37.9883)" fill="#FFC700"/>
<ellipse cx="1.5" cy="1.56409" rx="1.5" ry="1.56409" transform="matrix(1 -0.000682945 0.000628121 1 53.1348 72.4023)" fill="#FFC700"/>
<ellipse cx="1.5" cy="1.56409" rx="1.5" ry="1.56409" transform="matrix(1 -0.000682945 0.000628121 1 36.1289 60.9414)" fill="#FFC700"/>
<ellipse cx="1.5" cy="1.56409" rx="1.5" ry="1.56409" transform="matrix(1 -0.000682945 0.000628121 1 62.1309 66.1406)" fill="#FFC700"/>
<ellipse cx="1" cy="1.56409" rx="1" ry="1.56409" transform="matrix(1 -0.000682945 0.000628121 1 59.1191 45.2852)" fill="#FFC700"/>
<ellipse cx="1" cy="1.04273" rx="1" ry="1.04273" transform="matrix(1 -0.000682945 0.000628121 1 42.1152 39.043)" fill="#FFC700"/>
<ellipse cx="1" cy="0.521364" rx="1" ry="0.521364" transform="matrix(1 -0.000682945 0.000628121 1 43.1348 70.3242)" fill="#FFC700"/>
<ellipse cx="1" cy="0.521364" rx="1" ry="0.521364" transform="matrix(1 -0.000682945 0.000628121 1 49.1289 61.9766)" fill="#FFC700"/>
<ellipse cx="1" cy="1.04273" rx="1" ry="1.04273" transform="matrix(1 -0.000682945 0.000628121 1 70.1289 63.0078)" fill="#FFC700"/>
<ellipse cx="0.5" cy="0.521364" rx="0.5" ry="0.521364" transform="matrix(1 -0.000682945 0.000628121 1 35.125 55.7305)" fill="#FFC700"/>
<ellipse cx="0.5" cy="0.521364" rx="0.5" ry="0.521364" transform="matrix(1 -0.000682945 0.000628121 1 48.1191 45.293)" fill="#FFC700"/>
<ellipse cx="1" cy="0.521364" rx="1" ry="0.521364" transform="matrix(1 -0.000682945 0.000628121 1 49.1113 34.8672)" fill="#FFC700"/>
<ellipse cx="0.5" cy="1.04273" rx="0.5" ry="1.04273" transform="matrix(1 -0.000682945 0.000628121 1 69.1172 43.1953)" fill="#FFC700"/>
<ellipse cx="1" cy="1.04273" rx="1" ry="1.04273" transform="matrix(1 -0.000682945 0.000628121 1 37.1191 46.3438)" fill="#FFC700"/>
<path d="M33.5204 17.587C30.5888 20.7471 32.9708 32.5962 33.9126 38.0077C35.5209 38.0066 42.6713 29.0667 48.3011 28.2084C54.2725 27.2979 64.142 31.4712 66.5548 31.0423C68.9675 30.6133 63.2659 13.2067 54.0143 9.81201C48.4901 7.78505 43.8759 9.2456 40.8629 10.3905C38.1712 11.4132 34.6585 16.3601 33.5204 17.587Z" fill="#F55376" stroke="#F55376" stroke-linejoin="round"/>
<path d="M69.1503 96.2804C65.5042 94.6594 61.5008 86.5719 58.3726 82.652C59.3446 81.4355 67.5942 80.3109 71.5803 76.5591C75.5664 72.8072 76.7666 65.0267 78.5166 63.455C80.2666 61.8832 91.2574 76.0226 87.9896 85.0362C86.0385 90.4181 83.6747 93.8691 81.0731 95.4708C78.749 96.9017 70.6427 96.9438 69.1503 96.2804Z" fill="#F55376" stroke="#F55376" stroke-linejoin="round"/>
<path d="M84.1073 26.4843C78.7221 25.2824 73.1963 29.46 68.1255 31.6865C68.4923 33.4263 78.4213 40.7951 79.6687 46.7117C81.0446 53.2374 77.6886 62.7206 80.2837 62.5818C82.8787 62.443 95.6531 57.467 96.8646 46.7C97.588 40.2711 97.8368 34.6932 96.0336 31.6889C94.4226 29.005 85.6757 26.8343 84.1073 26.4843Z" fill="#F55376" stroke="#F55376" stroke-linejoin="round"/>
<path d="M15.6519 37.7585C19.444 36.6628 27.8212 37.9274 32.5763 38.9502C32.5442 40.5217 28.0799 49.6508 27.971 54.9953C27.8507 60.89 32.3436 66.8935 30.0743 67.2364C27.805 67.5792 10.4044 66.9218 7.58745 57.8175C5.74389 51.8593 6.51106 47.5054 7.57913 44.5829C8.5333 41.972 14.0997 38.207 15.6519 37.7585Z" fill="#F55376" stroke="#F55376" stroke-linejoin="round"/>
<path d="M48.7659 97.4892C51.9025 95.2728 54.5863 86.9207 56.8335 82.646C55.7081 81.69 47.2333 82.7339 42.835 79.9741C38.1699 77.0469 33.742 69.7667 31.8242 68.6259C29.9065 67.485 22.5756 82.8525 27.2231 90.6862C29.9981 95.3636 35.6604 98.496 38.3824 99.5025C40.8141 100.402 47.4821 98.3964 48.7659 97.4892Z" fill="#F55376" stroke="#F55376" stroke-linejoin="round"/>
<path d="M37.2246 78.6602L37.3208 78.6601" stroke="white" stroke-linecap="round"/>
<path d="M37.2324 89.8906L37.3286 89.8906" stroke="white" stroke-linecap="round"/>
<path d="M37.2266 80.2656L37.3227 80.2656" stroke="white" stroke-linecap="round"/>
<path d="M42.6113 81.0625L42.7075 81.0624" stroke="white" stroke-linecap="round"/>
<path d="M37.3266 87.4804L37.2305 87.4805" stroke="white" stroke-linecap="round"/>
<path d="M39.7294 85.0741L39.5371 85.0742" stroke="white" stroke-linecap="round"/>
<path d="M46.5552 85.1705L46.459 85.0703" stroke="white" stroke-linecap="round"/>
<path d="M39.5332 81.0664L39.5333 81.1667" stroke="white" stroke-linecap="round"/>
<path d="M39.5352 83.569L39.5352 83.4688" stroke="white" stroke-linecap="round"/>
<path d="M36.4571 81.9714L36.457 81.8711" stroke="white" stroke-linecap="round"/>
<path d="M45.0161 84.2695L44.9199 84.2695" stroke="white" stroke-linecap="round"/>
<path d="M38.0922 81.871L37.9961 81.8711" stroke="white" stroke-linecap="round"/>
<path d="M34.2465 82.6718L34.1504 82.6719" stroke="white" stroke-linecap="round"/>
<path d="M35.6914 85.8828L35.7876 85.983" stroke="white" stroke-linecap="round"/>
<path d="M34.2485 85.0781L34.1523 85.0781" stroke="white" stroke-linecap="round"/>
<path d="M34.918 81.0664L35.0141 81.0663" stroke="white" stroke-linecap="round"/>
<path d="M35.6875 79.4609L35.976 79.4607" stroke="white" stroke-linecap="round"/>
<path d="M35.6855 77.8594L35.7817 77.8593" stroke="white" stroke-linecap="round"/>
<path d="M41.9419 86.6796L41.8458 86.7799" stroke="white" stroke-linecap="round"/>
<path d="M44.3447 85.9751C44.2113 85.9665 44.2253 85.951 44.1523 85.875" stroke="white" stroke-linecap="round"/>
<path d="M41.0742 84.2734L41.0743 84.474" stroke="white" stroke-linecap="round"/>
<path d="M38.7676 86.6797L38.9599 86.6796" stroke="white" stroke-linecap="round"/>
<path d="M44.3428 82.8684L44.1504 82.668" stroke="white" stroke-linecap="round"/>
<path d="M37.2285 85.0781L37.2286 85.2786" stroke="white" stroke-linecap="round"/>
<path d="M38.3795 79.9622C38.3559 79.8916 38.3339 79.8145 38.2832 79.7617" stroke="white" stroke-linecap="round"/>
<path d="M42.6133 83.4688L42.7094 83.4687" stroke="white" stroke-linecap="round"/>
<path d="M48.0922 82.664L47.9961 82.6641" stroke="white" stroke-linecap="round"/>
<path d="M41.0743 82.7682C41.0853 82.6758 41.1054 82.7018 41.1704 82.6679" stroke="white" stroke-linecap="round"/>
<path d="M41.1684 80.2617L41.0723 80.2617" stroke="white" stroke-linecap="round"/>
<path d="M46.459 83.5651L46.5551 83.4648" stroke="white" stroke-linecap="round"/>
<path d="M42.7113 85.1744C42.5918 85.108 42.6152 85.1149 42.6151 85.0742" stroke="white" stroke-linecap="round"/>
<path d="M38.0884 77.1549L37.9922 77.0547" stroke="white" stroke-linecap="round"/>
<path d="M37.9981 83.5729L37.998 83.4727" stroke="white" stroke-linecap="round"/>
<path d="M40.3087 89.9909L40.3086 89.8906" stroke="white" stroke-linecap="round"/>
<path d="M35.6934 88.2891L35.6934 88.3893" stroke="white" stroke-linecap="round"/>
<path d="M40.4028 87.4804L40.3066 87.4805" stroke="white" stroke-linecap="round"/>
<path d="M38.7695 89.0859C38.8581 89.0974 38.8332 89.1184 38.8657 89.1861" stroke="white" stroke-linecap="round"/>
<path d="M35.7856 83.4726L35.6895 83.4727" stroke="white" stroke-linecap="round"/>
<path d="M46.5532 81.8593L46.457 81.8594" stroke="white" stroke-linecap="round"/>
<path d="M50.2075 82.4609L50.1113 82.4609" stroke="white" stroke-linecap="round"/>
<path d="M36.4551 76.3055C36.4551 76.2419 36.4551 76.2419 36.4551 76.3055" stroke="white" stroke-linecap="round"/>
<path d="M34.2505 87.4843L34.1543 87.4844" stroke="white" stroke-linecap="round"/>
<path d="M44.4375 81.4609L44.5337 81.4609" stroke="white" stroke-linecap="round"/>
<path d="M38.8676 90.6913L38.7715 90.6914" stroke="white" stroke-linecap="round"/>
<path d="M43.3848 87.5768L43.3848 87.4766" stroke="white" stroke-linecap="round"/>
<path d="M41.8477 89.082L42.04 89.0819" stroke="white" stroke-linecap="round"/>
<path d="M39.5332 78.6602L39.7255 78.66" stroke="white" stroke-linecap="round"/>
<path d="M69.5469 81.0703L69.5743 80.9742" stroke="white" stroke-linecap="round"/>
<path d="M79.8691 84.2734L79.8966 84.1773" stroke="white" stroke-linecap="round"/>
<path d="M71.0215 81.5273L71.0489 81.4312" stroke="white" stroke-linecap="round"/>
<path d="M73.2949 76.3711L73.3223 76.275" stroke="white" stroke-linecap="round"/>
<path d="M77.6837 83.4898L77.6562 83.5859" stroke="white" stroke-linecap="round"/>
<path d="M76.1564 80.4055L76.1016 80.5977" stroke="white" stroke-linecap="round"/>
<path d="M78.1958 73.6083L78.0762 73.6758" stroke="white" stroke-linecap="round"/>
<path d="M72.416 79.4531L72.5078 79.4816" stroke="white" stroke-linecap="round"/>
<path d="M74.7207 80.1652L74.6289 80.1367" stroke="white" stroke-linecap="round"/>
<path d="M72.3692 82.7824L72.2773 82.7539" stroke="white" stroke-linecap="round"/>
<path d="M76.9278 74.8883L76.9004 74.9844" stroke="white" stroke-linecap="round"/>
<path d="M72.7423 81.1227L72.7148 81.2188" stroke="white" stroke-linecap="round"/>
<path d="M72.3829 85.193L72.3555 85.2891" stroke="white" stroke-linecap="round"/>
<path d="M75.7422 84.6641L75.8618 84.5966" stroke="white" stroke-linecap="round"/>
<path d="M74.5938 85.8805L74.5664 85.9766" stroke="white" stroke-linecap="round"/>
<path d="M71.0996 84.0625L71.127 83.9664" stroke="white" stroke-linecap="round"/>
<path d="M69.8457 82.8359L69.928 82.5476" stroke="white" stroke-linecap="round"/>
<path d="M68.3711 82.3789L68.3985 82.2828" stroke="white" stroke-linecap="round"/>
<path d="M78.2637 78.65L78.3285 78.7747" stroke="white" stroke-linecap="round"/>
<path d="M78.3033 76.0473C78.2572 76.1782 78.2469 76.1597 78.1562 76.2109" stroke="white" stroke-linecap="round"/>
<path d="M75.8047 78.8281L75.9884 78.8851" stroke="white" stroke-linecap="round"/>
<path d="M77.3574 81.8164L77.4123 81.6242" stroke="white" stroke-linecap="round"/>
<path d="M75.4462 75.158L75.207 75.293" stroke="white" stroke-linecap="round"/>
<path d="M75.4434 82.9023L75.627 82.9593" stroke="white" stroke-linecap="round"/>
<path d="M71.0731 80.2892C71.0015 80.2926 70.9244 80.2925 70.8613 80.3281" stroke="white" stroke-linecap="round"/>
<path d="M75.5059 77.0625L75.5333 76.9664" stroke="white" stroke-linecap="round"/>
<path d="M76.3321 71.357L76.3047 71.4531" stroke="white" stroke-linecap="round"/>
<path d="M74.4222 78.3958C74.3405 78.3584 74.3701 78.3457 74.3575 78.2711" stroke="white" stroke-linecap="round"/>
<path d="M72.1446 77.5875L72.1172 77.6836" stroke="white" stroke-linecap="round"/>
<path d="M76.6937 73.2434L76.629 73.1187" stroke="white" stroke-linecap="round"/>
<path d="M77.1006 77.4463C77.0054 77.5468 77.0184 77.5254 76.981 77.5138" stroke="white" stroke-linecap="round"/>
<path d="M68.4106 79.7801L68.291 79.8477" stroke="white" stroke-linecap="round"/>
<path d="M74.2813 81.7043L74.1895 81.6758" stroke="white" stroke-linecap="round"/>
<path d="M80.8379 81.2238L80.7461 81.1953" stroke="white" stroke-linecap="round"/>
<path d="M77.9551 85.3555L78.0469 85.384" stroke="white" stroke-linecap="round"/>
<path d="M78.5626 80.4156L78.5352 80.5117" stroke="white" stroke-linecap="round"/>
<path d="M79.5703 82.5078C79.6062 82.4226 79.6184 82.4534 79.6899 82.4403" stroke="white" stroke-linecap="round"/>
<path d="M73.5587 83.8844L73.5312 83.9805" stroke="white" stroke-linecap="round"/>
<path d="M75.1563 72.6617L75.1289 72.7578" stroke="white" stroke-linecap="round"/>
<path d="M76.7501 69.1852L76.7227 69.2812" stroke="white" stroke-linecap="round"/>
<path d="M67.1589 81.1659C67.1007 81.1478 67.1007 81.1478 67.1589 81.1659" stroke="white" stroke-linecap="round"/>
<path d="M76.8067 86.5641L76.7793 86.6602" stroke="white" stroke-linecap="round"/>
<path d="M74.1836 74.6602L74.211 74.5641" stroke="white" stroke-linecap="round"/>
<path d="M81.0723 82.8648L81.0449 82.9609" stroke="white" stroke-linecap="round"/>
<path d="M79.5039 77.4621L79.4121 77.4336" stroke="white" stroke-linecap="round"/>
<path d="M80.4473 79.4297L80.5021 79.2375" stroke="white" stroke-linecap="round"/>
<path d="M70.2051 78.7617L70.2599 78.5695" stroke="white" stroke-linecap="round"/>
<path d="M82.8438 50.0078L82.7738 49.939" stroke="white" stroke-linecap="round"/>
<path d="M90.2324 41.8398L90.1625 41.7711" stroke="white" stroke-linecap="round"/>
<path d="M83.8984 48.8398L83.8285 48.7711" stroke="white" stroke-linecap="round"/>
<path d="M80.5098 44.4062L80.4398 44.3375" stroke="white" stroke-linecap="round"/>
<path d="M88.5785 43.5172L88.6484 43.5859" stroke="white" stroke-linecap="round"/>
<path d="M85.2468 43.5499L85.3867 43.6875" stroke="white" stroke-linecap="round"/>
<path d="M80.3456 38.5926L80.3496 38.7344" stroke="white" stroke-linecap="round"/>
<path d="M82.748 46.6055L82.814 46.5325" stroke="white" stroke-linecap="round"/>
<path d="M84.398 44.7825L84.332 44.8555" stroke="white" stroke-linecap="round"/>
<path d="M85.5816 48.1536L85.5156 48.2266" stroke="white" stroke-linecap="round"/>
<path d="M80.8715 40.3492L80.9414 40.418" stroke="white" stroke-linecap="round"/>
<path d="M84.3246 47.0523L84.3945 47.1211" stroke="white" stroke-linecap="round"/>
<path d="M87.6507 49.2242L87.7207 49.293" stroke="white" stroke-linecap="round"/>
<path d="M88.7129 45.8555L88.7089 45.7137" stroke="white" stroke-linecap="round"/>
<path d="M89.2347 47.4703L89.3047 47.5391" stroke="white" stroke-linecap="round"/>
<path d="M86.1074 49.9062L86.0375 49.8375" stroke="white" stroke-linecap="round"/>
<path d="M84.4922 50.5234L84.2823 50.3171" stroke="white" stroke-linecap="round"/>
<path d="M83.4355 51.6914L83.3656 51.6226" stroke="white" stroke-linecap="round"/>
<path d="M84.6937 40.7984L84.8296 40.7942" stroke="white" stroke-linecap="round"/>
<path d="M82.4827 39.5903C82.574 39.692 82.5536 39.6933 82.5566 39.8008" stroke="white" stroke-linecap="round"/>
<path d="M83.7402 43.1719L83.8722 43.026" stroke="white" stroke-linecap="round"/>
<path d="M87.002 43.0742L86.862 42.9366" stroke="white" stroke-linecap="round"/>
<path d="M80.4393 41.8533L80.4473 42.1367" stroke="white" stroke-linecap="round"/>
<path d="M87.0664 45.3359L87.1983 45.19" stroke="white" stroke-linecap="round"/>
<path d="M82.8628 48.2345C82.8335 48.3027 82.7987 48.3745 82.8008 48.4492" stroke="white" stroke-linecap="round"/>
<path d="M82.0938 42.6523L82.0238 42.5836" stroke="white" stroke-linecap="round"/>
<path d="M77.5785 39.314L77.6484 39.3828" stroke="white" stroke-linecap="round"/>
<path d="M82.7515 44.263C82.6827 44.3223 82.6851 44.289 82.6156 44.2672" stroke="white" stroke-linecap="round"/>
<path d="M81.0316 46.0211L81.1016 46.0898" stroke="white" stroke-linecap="round"/>
<path d="M79.3609 39.8294L79.225 39.8336" stroke="white" stroke-linecap="round"/>
<path d="M83.1431 41.3413C83.1863 41.4752 83.1739 41.4534 83.1471 41.4831" stroke="white" stroke-linecap="round"/>
<path d="M81.2245 50.4833L81.2285 50.625" stroke="white" stroke-linecap="round"/>
<path d="M85.5171 45.8841L85.4512 45.957" stroke="white" stroke-linecap="round"/>
<path d="M88.0601 39.5638L87.9941 39.6367" stroke="white" stroke-linecap="round"/>
<path d="M90.2969 44.1016L90.3628 44.0286" stroke="white" stroke-linecap="round"/>
<path d="M86.3402 41.3179L86.4102 41.3867" stroke="white" stroke-linecap="round"/>
<path d="M88.5859 41.3164C88.5291 41.2446 88.561 41.2472 88.5819 41.1747" stroke="white" stroke-linecap="round"/>
<path d="M87.059 47.5367L87.1289 47.6055" stroke="white" stroke-linecap="round"/>
<path d="M78.1683 41.0015L78.2383 41.0703" stroke="white" stroke-linecap="round"/>
<path d="M75.9066 37.9507L75.9766 38.0195" stroke="white" stroke-linecap="round"/>
<path d="M81.8517 52.2778C81.8099 52.3241 81.8099 52.3241 81.8517 52.2778" stroke="white" stroke-linecap="round"/>
<path d="M90.8187 45.7203L90.8887 45.7891" stroke="white" stroke-linecap="round"/>
<path d="M79.4453 42.8047L79.3754 42.7359" stroke="white" stroke-linecap="round"/>
<path d="M89.5726 40.0836L89.6426 40.1523" stroke="white" stroke-linecap="round"/>
<path d="M84.2378 39.1146L84.1719 39.1875" stroke="white" stroke-linecap="round"/>
<path d="M86.3457 39.1172L86.2058 38.9796" stroke="white" stroke-linecap="round"/>
<path d="M81.166 48.3555L81.0261 48.2179" stroke="white" stroke-linecap="round"/>
<path d="M53.6973 25.3203L53.6193 25.379" stroke="white" stroke-linecap="round"/>
<path d="M47.3926 16.2188L47.3146 16.2774" stroke="white" stroke-linecap="round"/>
<path d="M52.7969 24.0234L52.7189 24.0821" stroke="white" stroke-linecap="round"/>
<path d="M47.9805 26.6562L47.9025 26.7149" stroke="white" stroke-linecap="round"/>
<path d="M48.6681 18.2267L48.7461 18.168" stroke="white" stroke-linecap="round"/>
<path d="M48.0687 21.6447L48.2246 21.5273" stroke="white" stroke-linecap="round"/>
<path d="M42.4771 25.7313L42.6113 25.7539" stroke="white" stroke-linecap="round"/>
<path d="M50.4746 24.7812L50.4183 24.7" stroke="white" stroke-linecap="round"/>
<path d="M49.0687 22.7468L49.125 22.8281" stroke="white" stroke-linecap="round"/>
<path d="M52.4632 22.1726L52.5195 22.2539" stroke="white" stroke-linecap="round"/>
<path d="M44.2306 25.5235L44.3086 25.4648" stroke="white" stroke-linecap="round"/>
<path d="M51.1935 23.2501L51.2715 23.1914" stroke="white" stroke-linecap="round"/>
<path d="M53.8634 20.2501L53.9414 20.1914" stroke="white" stroke-linecap="round"/>
<path d="M50.8926 18.5312L50.7583 18.5087" stroke="white" stroke-linecap="round"/>
<path d="M52.5119 18.3009L52.5898 18.2422" stroke="white" stroke-linecap="round"/>
<path d="M54.2188 21.9648L54.1408 22.0235" stroke="white" stroke-linecap="round"/>
<path d="M54.4961 23.7344L54.2622 23.9104" stroke="white" stroke-linecap="round"/>
<path d="M55.3965 25.0312L55.3185 25.0899" stroke="white" stroke-linecap="round"/>
<path d="M45.3752 21.6993L45.3968 21.5593" stroke="white" stroke-linecap="round"/>
<path d="M43.821 23.7275C43.934 23.6531 43.9314 23.6743 44.0332 23.6914" stroke="white" stroke-linecap="round"/>
<path d="M47.4277 23.1172L47.3152 22.9546" stroke="white" stroke-linecap="round"/>
<path d="M47.9473 19.7578L47.7913 19.8752" stroke="white" stroke-linecap="round"/>
<path d="M45.5635 26.2478L45.832 26.293" stroke="white" stroke-linecap="round"/>
<path d="M50.0957 20.1211L49.9831 19.9585" stroke="white" stroke-linecap="round"/>
<path d="M52.0302 24.9703C52.0889 25.0132 52.15 25.0623 52.2207 25.0742" stroke="white" stroke-linecap="round"/>
<path d="M46.6309 24.707L46.5529 24.7657" stroke="white" stroke-linecap="round"/>
<path d="M42.6369 28.7032L42.7148 28.6445" stroke="white" stroke-linecap="round"/>
<path d="M48.2718 24.3367C48.3147 24.4183 48.2838 24.4096 48.2502 24.4767" stroke="white" stroke-linecap="round"/>
<path d="M49.6017 26.4259L49.6797 26.3672" stroke="white" stroke-linecap="round"/>
<path d="M43.4554 26.9734L43.4338 27.1134" stroke="white" stroke-linecap="round"/>
<path d="M45.5947 23.3848C45.729 23.3657 45.7061 23.3744 45.729 23.4074" stroke="white" stroke-linecap="round"/>
<path d="M53.8404 27.0712L53.9746 27.0938" stroke="white" stroke-linecap="round"/>
<path d="M50.3168 21.8093L50.373 21.8906" stroke="white" stroke-linecap="round"/>
<path d="M44.8422 18.0125L44.8984 18.0938" stroke="white" stroke-linecap="round"/>
<path d="M49.541 16.5781L49.4847 16.4968" stroke="white" stroke-linecap="round"/>
<path d="M46.172 20.1056L46.25 20.0469" stroke="white" stroke-linecap="round"/>
<path d="M46.5957 17.8047C46.5174 17.8494 46.5258 17.8172 46.4615 17.7821" stroke="white" stroke-linecap="round"/>
<path d="M52.1642 20.5392L52.2422 20.4805" stroke="white" stroke-linecap="round"/>
<path d="M44.3342 28.4142L44.4121 28.3555" stroke="white" stroke-linecap="round"/>
<path d="M41.0353 30.1524L41.1133 30.0938" stroke="white" stroke-linecap="round"/>
<path d="M55.6451 26.766C55.6808 26.8176 55.6808 26.8176 55.6451 26.766" stroke="white" stroke-linecap="round"/>
<path d="M51.1623 16.3478L51.2402 16.2891" stroke="white" stroke-linecap="round"/>
<path d="M46.2754 27.4453L46.1974 27.504" stroke="white" stroke-linecap="round"/>
<path d="M45.6174 16.5665L45.6953 16.5078" stroke="white" stroke-linecap="round"/>
<path d="M43.6996 21.8445L43.7559 21.9258" stroke="white" stroke-linecap="round"/>
<path d="M44.1016 19.6875L43.9456 19.8049" stroke="white" stroke-linecap="round"/>
<path d="M51.8281 26.7305L51.6722 26.8478" stroke="white" stroke-linecap="round"/>
<path d="M28.0312 46.0391L28.0577 46.1355" stroke="white" stroke-linecap="round"/>
<path d="M17.6777 49.125L17.7042 49.2214" stroke="white" stroke-linecap="round"/>
<path d="M26.5508 46.4766L26.5772 46.573" stroke="white" stroke-linecap="round"/>
<path d="M27.293 52.0977L27.3194 52.1941" stroke="white" stroke-linecap="round"/>
<path d="M19.9229 48.5612L19.8965 48.4648" stroke="white" stroke-linecap="round"/>
<path d="M22.8009 50.31L22.748 50.1172" stroke="white" stroke-linecap="round"/>
<path d="M24.5863 57.1787L24.6523 57.0547" stroke="white" stroke-linecap="round"/>
<path d="M26.4473 49.0156L26.3551 49.0431" stroke="white" stroke-linecap="round"/>
<path d="M24.1364 49.7033L24.2285 49.6758" stroke="white" stroke-linecap="round"/>
<path d="M24.7692 46.1759L24.8613 46.1484" stroke="white" stroke-linecap="round"/>
<path d="M24.9952 55.3933L24.9688 55.2969" stroke="white" stroke-linecap="round"/>
<path d="M25.3116 47.7878L25.2852 47.6914" stroke="white" stroke-linecap="round"/>
<path d="M23.5128 44.155L23.4863 44.0586" stroke="white" stroke-linecap="round"/>
<path d="M20.9531 46.4805L20.8871 46.6044" stroke="white" stroke-linecap="round"/>
<path d="M21.294 44.8112L21.2676 44.7148" stroke="white" stroke-linecap="round"/>
<path d="M25.1777 44.3867L25.2042 44.4831" stroke="white" stroke-linecap="round"/>
<path d="M26.8672 44.7148L26.9465 45.004" stroke="white" stroke-linecap="round"/>
<path d="M28.3477 44.2734L28.3741 44.3698" stroke="white" stroke-linecap="round"/>
<path d="M21.9307 52.9675L21.8118 52.8987" stroke="white" stroke-linecap="round"/>
<path d="M23.2397 55.1813C23.2111 55.0452 23.2292 55.055 23.2793 54.9609" stroke="white" stroke-linecap="round"/>
<path d="M23.9102 51.4375L23.7259 51.4925" stroke="white" stroke-linecap="round"/>
<path d="M21.0586 49.7852L21.1115 49.978" stroke="white" stroke-linecap="round"/>
<path d="M26.1043 54.33L26.2363 54.082" stroke="white" stroke-linecap="round"/>
<path d="M22.1152 47.8008L21.9309 47.8557" stroke="white" stroke-linecap="round"/>
<path d="M27.1462 47.55C27.2048 47.507 27.2699 47.4638 27.3047 47.3984" stroke="white" stroke-linecap="round"/>
<path d="M25.0742 52.7578L25.1007 52.8542" stroke="white" stroke-linecap="round"/>
<path d="M27.3194 58.0339L27.293 57.9375" stroke="white" stroke-linecap="round"/>
<path d="M25.2982 51.0237C25.3864 51.0094 25.368 51.0367 25.4171 51.0925" stroke="white" stroke-linecap="round"/>
<path d="M27.6358 50.4323L27.6094 50.3359" stroke="white" stroke-linecap="round"/>
<path d="M26.0384 56.6448L26.1573 56.7136" stroke="white" stroke-linecap="round"/>
<path d="M23.5282 53.325C23.5567 53.1869 23.5567 53.2123 23.5943 53.2011" stroke="white" stroke-linecap="round"/>
<path d="M29.6547 46.4912L29.7207 46.3672" stroke="white" stroke-linecap="round"/>
<path d="M23.7125 48.1603L23.8047 48.1328" stroke="white" stroke-linecap="round"/>
<path d="M18.4293 52.2345L18.5215 52.207" stroke="white" stroke-linecap="round"/>
<path d="M18.7344 47.1406L18.6422 47.1681" stroke="white" stroke-linecap="round"/>
<path d="M20.7686 51.6472L20.7422 51.5508" stroke="white" stroke-linecap="round"/>
<path d="M18.8398 50.4492C18.8536 50.5412 18.8273 50.522 18.7738 50.5732" stroke="white" stroke-linecap="round"/>
<path d="M23.1964 45.9128L23.1699 45.8164" stroke="white" stroke-linecap="round"/>
<path d="M27.6378 56.2683L27.6113 56.1719" stroke="white" stroke-linecap="round"/>
<path d="M28.087 60.0964L28.0605 60" stroke="white" stroke-linecap="round"/>
<path d="M29.9933 44.6224C30.0517 44.605 30.0517 44.605 29.9933 44.6224" stroke="white" stroke-linecap="round"/>
<path d="M19.0753 45.4753L19.0488 45.3789" stroke="white" stroke-linecap="round"/>
<path d="M27.4238 54.0391L27.4503 54.1355" stroke="white" stroke-linecap="round"/>
<path d="M17.3858 50.987L17.3594 50.8906" stroke="white" stroke-linecap="round"/>
<path d="M21.4938 54.6603L21.5859 54.6328" stroke="white" stroke-linecap="round"/>
<path d="M19.6855 53.5312L19.7384 53.724" stroke="white" stroke-linecap="round"/>
<path d="M28.666 48.3516L28.7189 48.5444" stroke="white" stroke-linecap="round"/>
<path d="M65.1747 102.877C64.1097 99.8326 60.1002 87.8778 57.3393 86.5488C56.6793 88.1926 55.8464 100.739 56.6583 104.269C57.6732 108.681 62.0146 113.518 64.0657 113.33C66.1168 113.142 66.4957 106.652 65.1747 102.877Z" fill="#81C127" stroke="#81C127" stroke-linejoin="round"/>
<path d="M14.9527 84.4326C17.3165 82.2387 26.6695 73.7812 26.7833 70.7192C25.0128 70.7719 13.1806 75.0279 10.2702 77.1842C6.63205 79.8797 3.93536 85.7938 4.92837 87.5983C5.92138 89.4027 12.0207 87.1537 14.9527 84.4326Z" fill="#81C127" stroke="#81C127" stroke-linejoin="round"/>
<path d="M7.85825 29.0703C10.8342 30.3125 22.4064 35.3201 25.2403 34.1547C24.4589 32.5652 15.6834 23.5602 12.5151 21.8049C8.55468 19.6107 2.05494 19.6072 0.824062 21.2587C-0.406818 22.9103 4.16702 27.5294 7.85825 29.0703Z" fill="#81C127" stroke="#81C127" stroke-linejoin="round"/>
<path d="M72.454 9.12277C71.6749 12.2522 68.4703 24.4479 70.0499 27.0735C71.5033 26.061 79.0813 16.0266 80.3386 12.6296C81.9102 8.38329 80.9332 1.95741 79.1149 0.989919C77.2966 0.0224296 73.4203 5.2412 72.454 9.12277Z" fill="#81C127" stroke="#81C127" stroke-linejoin="round"/>
<path d="M103.639 67.7817C100.518 66.9348 88.3567 63.4588 85.7145 65.0767C86.7114 66.6033 96.6646 74.6155 100.048 75.964C104.277 77.6495 110.713 76.7018 111.7 74.8166C112.687 72.9314 107.51 68.8321 103.639 67.7817Z" fill="#81C127" stroke="#81C127" stroke-linejoin="round"/>
<path d="M4.63508 72.9358C5.82837 72.935 6.63558 73.7258 6.63608 74.5204C6.63625 75.3148 5.83012 76.1059 4.63707 76.1067C3.44403 76.1075 2.6369 75.3175 2.63608 74.5231C2.63558 73.7285 3.44179 72.9366 4.63508 72.9358Z" fill="#81C127" stroke="#81C127"/>
<path d="M87.0921 3.01426C87.901 3.01371 88.5925 3.70363 88.5931 4.59917C88.5934 5.49448 87.9029 6.1846 87.0941 6.18516C86.2853 6.18571 85.5939 5.49653 85.5931 4.60122C85.5925 3.70567 86.2832 3.01481 87.0921 3.01426Z" fill="#81C127" stroke="#81C127"/>
<path d="M23.0628 7.00254C23.4273 7.00229 23.7916 7.19384 24.0807 7.5702C24.3701 7.94699 24.5637 8.48886 24.5641 9.10796C24.5645 9.72729 24.3717 10.2701 24.0827 10.6474C23.794 11.0241 23.4299 11.2162 23.0655 11.2164C22.701 11.2167 22.3367 11.0251 22.0475 10.6487C21.7581 10.2719 21.5645 9.72934 21.5641 9.11001C21.5638 8.49091 21.7567 7.94877 22.0456 7.57159C22.3343 7.19483 22.6983 7.00279 23.0628 7.00254Z" fill="#81C127" stroke="#81C127"/>
<path d="M51.1585 109.397C51.523 109.397 51.8873 109.588 52.1765 109.965C52.4658 110.342 52.6594 110.883 52.6598 111.502C52.6602 112.122 52.4674 112.665 52.1784 113.042C51.8897 113.419 51.5256 113.611 51.1612 113.611C50.7967 113.611 50.4324 113.42 50.1432 113.043C49.8538 112.666 49.6602 112.124 49.6598 111.505C49.6595 110.885 49.8524 110.343 50.1413 109.966C50.43 109.589 50.794 109.397 51.1585 109.397Z" fill="#81C127" stroke="#81C127"/>
<path d="M113.563 80.2405C114.756 80.2397 115.563 81.0305 115.564 81.8251C115.564 82.6195 114.758 83.4106 113.565 83.4114C112.372 83.4122 111.565 82.6222 111.564 81.8278C111.563 81.0332 112.37 80.2413 113.563 80.2405Z" fill="#81C127" stroke="#81C127"/>
<defs>
<filter id="filter0_ddddii_1556_66072" x="28.0312" y="31.7734" width="51.8477" height="53.7188" filterUnits="userSpaceOnUse" color-interpolation-filters="sRGB">
<feFlood flood-opacity="0" result="BackgroundImageFix"/>
<feColorMatrix in="SourceAlpha" type="matrix" values="0 0 0 0 0 0 0 0 0 0 0 0 0 0 0 0 0 0 127 0" result="hardAlpha"/>
<feOffset dy="2"/>
<feGaussianBlur stdDeviation="1"/>
<feComposite in2="hardAlpha" operator="out"/>
<feColorMatrix type="matrix" values="0 0 0 0 0 0 0 0 0 0 0 0 0 0 0 0 0 0 0.25 0"/>
<feBlend mode="normal" in2="BackgroundImageFix" result="effect1_dropShadow_1556_66072"/>
<feColorMatrix in="SourceAlpha" type="matrix" values="0 0 0 0 0 0 0 0 0 0 0 0 0 0 0 0 0 0 127 0" result="hardAlpha"/>
<feOffset dy="4"/>
<feGaussianBlur stdDeviation="2"/>
<feComposite in2="hardAlpha" operator="out"/>
<feColorMatrix type="matrix" values="0 0 0 0 0 0 0 0 0 0 0 0 0 0 0 0 0 0 0.25 0"/>
<feBlend mode="normal" in2="effect1_dropShadow_1556_66072" result="effect2_dropShadow_1556_66072"/>
<feColorMatrix in="SourceAlpha" type="matrix" values="0 0 0 0 0 0 0 0 0 0 0 0 0 0 0 0 0 0 127 0" result="hardAlpha"/>
<feOffset dy="2"/>
<feGaussianBlur stdDeviation="0.5"/>
<feComposite in2="hardAlpha" operator="out"/>
<feColorMatrix type="matrix" values="0 0 0 0 0 0 0 0 0 0 0 0 0 0 0 0 0 0 0.25 0"/>
<feBlend mode="normal" in2="effect2_dropShadow_1556_66072" result="effect3_dropShadow_1556_66072"/>
<feColorMatrix in="SourceAlpha" type="matrix" values="0 0 0 0 0 0 0 0 0 0 0 0 0 0 0 0 0 0 127 0" result="hardAlpha"/>
<feOffset dy="4"/>
<feGaussianBlur stdDeviation="2"/>
<feComposite in2="hardAlpha" operator="out"/>
<feColorMatrix type="matrix" values="0 0 0 0 0 0 0 0 0 0 0 0 0 0 0 0 0 0 0.25 0"/>
<feBlend mode="normal" in2="effect3_dropShadow_1556_66072" result="effect4_dropShadow_1556_66072"/>
<feBlend mode="normal" in="SourceGraphic" in2="effect4_dropShadow_1556_66072" result="shape"/>
<feColorMatrix in="SourceAlpha" type="matrix" values="0 0 0 0 0 0 0 0 0 0 0 0 0 0 0 0 0 0 127 0" result="hardAlpha"/>
<feOffset dx="4"/>
<feGaussianBlur stdDeviation="2"/>
<feComposite in2="hardAlpha" operator="arithmetic" k2="-1" k3="1"/>
<feColorMatrix type="matrix" values="0 0 0 0 0 0 0 0 0 0 0 0 0 0 0 0 0 0 0.25 0"/>
<feBlend mode="normal" in2="shape" result="effect5_innerShadow_1556_66072"/>
<feColorMatrix in="SourceAlpha" type="matrix" values="0 0 0 0 0 0 0 0 0 0 0 0 0 0 0 0 0 0 127 0" result="hardAlpha"/>
<feOffset dx="-2" dy="2"/>
<feGaussianBlur stdDeviation="2"/>
<feComposite in2="hardAlpha" operator="arithmetic" k2="-1" k3="1"/>
<feColorMatrix type="matrix" values="0 0 0 0 1 0 0 0 0 0.25 0 0 0 0 0.412037 0 0 0 0.5 0"/>
<feBlend mode="normal" in2="effect5_innerShadow_1556_66072" result="effect6_innerShadow_1556_66072"/>
</filter>
</defs>
</g>
</svg>
