<svg width="77" height="82" viewBox="0 0 77 82" fill="none" xmlns="http://www.w3.org/2000/svg">
<g>
<g filter="url(#filter0_d_1556_66590)">
<ellipse cx="35.2618" cy="38.0193" rx="18.9884" ry="20.742" fill="#FAFAFA"/>
</g>
<ellipse cx="34.9871" cy="38.304" rx="16.2" ry="16.8899" fill="#DFDFDF"/>
<ellipse cx="35.2103" cy="27.2682" rx="1.30401" ry="1.42444" fill="#AFAFAF"/>
<ellipse cx="41.2962" cy="26.319" rx="1.30401" ry="1.42444" fill="#AFAFAF"/>
<ellipse cx="35.6428" cy="51.4848" rx="0.869342" ry="0.949627" fill="#AFAFAF"/>
<ellipse cx="23.9056" cy="43.4127" rx="1.30401" ry="1.42444" fill="#AFAFAF"/>
<ellipse cx="41.7287" cy="47.2131" rx="0.869342" ry="0.474813" fill="#AFAFAF"/>
<ellipse cx="39.1193" cy="31.5395" rx="0.869342" ry="0.949627" fill="#AFAFAF"/>
<ellipse cx="27.3878" cy="26.7934" rx="0.434671" ry="0.949627" fill="#AFAFAF"/>
<ellipse cx="28.255" cy="49.1115" rx="0.434671" ry="0.474813" fill="#AFAFAF"/>
<ellipse cx="31.8097" cy="52.3615" rx="0.434671" ry="0.474813" fill="#AFAFAF"/>
<ellipse cx="47.38" cy="44.3654" rx="0.434671" ry="0.474813" fill="#AFAFAF"/>
<ellipse cx="22.169" cy="38.6623" rx="0.434671" ry="0.474813" fill="#AFAFAF"/>
<ellipse cx="31.7315" cy="31.0647" rx="0.434671" ry="0.474813" fill="#AFAFAF"/>
<ellipse cx="32.5987" cy="23.4748" rx="0.434671" ry="0.474813" fill="#AFAFAF"/>
<ellipse cx="46.0764" cy="29.641" rx="0.869342" ry="0.949627" fill="#AFAFAF"/>
<ellipse cx="23.9073" cy="32.0178" rx="0.434671" ry="0.474813" fill="#AFAFAF"/>
<path d="M20.9792 10.2833C18.939 12.5431 20.5904 21.023 21.2431 24.8957C22.3616 24.8957 27.3384 18.5022 31.2542 17.8907C35.4075 17.2422 42.2697 20.2332 43.9478 19.9275C45.626 19.6217 41.6683 7.16346 35.2355 4.72983C31.3945 3.27672 28.1848 4.31957 26.0888 5.13732C24.2164 5.86785 21.7713 9.40592 20.9792 10.2833Z" fill="#DFDFDF" stroke="#DFDFDF" stroke-linejoin="round"/>
<path d="M45.8424 68.2405C43.2716 67.041 40.4516 61.0636 38.2471 58.1658C38.9332 57.2675 44.752 56.4408 47.565 53.6707C50.378 50.9007 51.2279 45.1527 52.4628 43.9923C53.6978 42.8319 61.4431 53.2843 59.1344 59.9423C57.7559 63.9177 56.0873 66.4663 54.2517 67.6484C52.6119 68.7044 46.8947 68.7315 45.8424 68.2405Z" fill="#DFDFDF" stroke="#DFDFDF" stroke-linejoin="round"/>
<path d="M56.4234 16.6866C52.6259 15.7959 48.7267 18.8797 45.1494 20.5222C45.4074 21.8078 52.4068 27.2572 53.284 31.6293C54.2515 36.4515 51.8804 43.4564 53.7107 43.3552C55.541 43.2539 64.5527 39.5839 65.412 31.6293C65.925 26.8797 66.103 22.7586 64.8325 20.538C63.6975 18.5542 57.5294 16.946 56.4234 16.6866Z" fill="#DFDFDF" stroke="#DFDFDF" stroke-linejoin="round"/>
<path d="M8.13602 24.9824C10.811 24.1747 16.7187 25.1133 20.072 25.8714C20.0487 27.0325 16.896 33.7752 16.8168 37.724C16.7294 42.0792 19.8955 46.5171 18.2948 46.7693C16.6942 47.0214 4.42217 46.5269 2.43943 39.7988C1.14185 35.3957 1.68484 32.1792 2.43943 30.0205C3.11354 28.0919 7.04113 25.313 8.13602 24.9824Z" fill="#DFDFDF" stroke="#DFDFDF" stroke-linejoin="round"/>
<path d="M31.4708 69.1283C33.684 67.4922 35.5805 61.3226 37.1673 58.1655C36.374 57.4586 30.3964 58.2256 27.2956 56.1843C24.0066 54.0192 20.8869 48.638 19.5349 47.7941C18.1828 46.9502 13.0057 58.3007 16.28 64.091C18.2351 67.5483 22.2272 69.8655 24.1466 70.6105C25.8612 71.2761 30.5649 69.7979 31.4708 69.1283Z" fill="#DFDFDF" stroke="#DFDFDF" stroke-linejoin="round"/>
<g filter="url(#filter1_i_1556_66590)">
<path d="M23.3242 55.2148H23.3911" stroke="#E3E3E3" stroke-linecap="round"/>
<path d="M23.3242 63.5156H23.3911" stroke="#E3E3E3" stroke-linecap="round"/>
<path d="M23.3242 56.3984H23.3911" stroke="#E3E3E3" stroke-linecap="round"/>
<path d="M27.125 56.9961H27.1919" stroke="#E3E3E3" stroke-linecap="round"/>
<path d="M23.3911 61.7344H23.3242" stroke="#E3E3E3" stroke-linecap="round"/>
<path d="M25.0888 59.9531H24.9531" stroke="#E3E3E3" stroke-linecap="round"/>
<path d="M29.9029 60.0262L29.8359 59.9531" stroke="#E3E3E3" stroke-linecap="round"/>
<path d="M24.9531 56.9961V57.0692" stroke="#E3E3E3" stroke-linecap="round"/>
<path d="M24.9531 58.8426V58.7695" stroke="#E3E3E3" stroke-linecap="round"/>
<path d="M22.7812 57.6629V57.5898" stroke="#E3E3E3" stroke-linecap="round"/>
<path d="M28.8169 59.3672H28.75" stroke="#E3E3E3" stroke-linecap="round"/>
<path d="M23.9341 57.5898H23.8672" stroke="#E3E3E3" stroke-linecap="round"/>
<path d="M21.2232 58.1797H21.1562" stroke="#E3E3E3" stroke-linecap="round"/>
<path d="M22.2422 60.5508L22.3091 60.6239" stroke="#E3E3E3" stroke-linecap="round"/>
<path d="M21.2232 59.9531H21.1562" stroke="#E3E3E3" stroke-linecap="round"/>
<path d="M21.6953 56.9961H21.7622" stroke="#E3E3E3" stroke-linecap="round"/>
<path d="M22.2422 55.8086H22.4456" stroke="#E3E3E3" stroke-linecap="round"/>
<path d="M22.2422 54.625H22.3091" stroke="#E3E3E3" stroke-linecap="round"/>
<path d="M26.6489 61.1406L26.582 61.2137" stroke="#E3E3E3" stroke-linecap="round"/>
<path d="M28.3466 60.6239C28.2525 60.6175 28.2624 60.6062 28.2109 60.5508" stroke="#E3E3E3" stroke-linecap="round"/>
<path d="M26.0391 59.3672V59.5153" stroke="#E3E3E3" stroke-linecap="round"/>
<path d="M24.4102 61.1406H24.5458" stroke="#E3E3E3" stroke-linecap="round"/>
<path d="M28.3466 58.3278L28.2109 58.1797" stroke="#E3E3E3" stroke-linecap="round"/>
<path d="M23.3242 59.9531V60.1013" stroke="#E3E3E3" stroke-linecap="round"/>
<path d="M24.1411 56.1833C24.1247 56.1312 24.1095 56.0742 24.0742 56.0352" stroke="#E3E3E3" stroke-linecap="round"/>
<path d="M27.125 58.7695H27.1919" stroke="#E3E3E3" stroke-linecap="round"/>
<path d="M30.9888 58.1797H30.9219" stroke="#E3E3E3" stroke-linecap="round"/>
<path d="M26.0391 58.2528C26.0468 58.1854 26.0608 58.2044 26.106 58.1797" stroke="#E3E3E3" stroke-linecap="round"/>
<path d="M26.106 56.3984H26.0391" stroke="#E3E3E3" stroke-linecap="round"/>
<path d="M29.8359 58.8426L29.9029 58.7695" stroke="#E3E3E3" stroke-linecap="round"/>
<path d="M27.1932 60.0262C27.11 59.9778 27.1263 59.9828 27.1263 59.9531" stroke="#E3E3E3" stroke-linecap="round"/>
<path d="M23.9341 54.1004L23.8672 54.0273" stroke="#E3E3E3" stroke-linecap="round"/>
<path d="M23.8672 58.8426V58.7695" stroke="#E3E3E3" stroke-linecap="round"/>
<path d="M25.4961 63.5887V63.5156" stroke="#E3E3E3" stroke-linecap="round"/>
<path d="M22.2422 62.3242V62.3973" stroke="#E3E3E3" stroke-linecap="round"/>
<path d="M25.563 61.7344H25.4961" stroke="#E3E3E3" stroke-linecap="round"/>
<path d="M24.4102 62.918C24.4718 62.9264 24.4545 62.9417 24.4771 62.9911" stroke="#E3E3E3" stroke-linecap="round"/>
<path d="M22.3091 58.7695H22.2422" stroke="#E3E3E3" stroke-linecap="round"/>
<path d="M29.9029 57.5898H29.8359" stroke="#E3E3E3" stroke-linecap="round"/>
<path d="M32.481 58.0273H32.4141" stroke="#E3E3E3" stroke-linecap="round"/>
<path d="M22.7812 53.474C22.7812 53.4253 22.7812 53.4253 22.7812 53.474" stroke="#E3E3E3" stroke-linecap="round"/>
<path d="M21.2232 61.7344H21.1562" stroke="#E3E3E3" stroke-linecap="round"/>
<path d="M28.4141 57.2891H28.481" stroke="#E3E3E3" stroke-linecap="round"/>
<path d="M24.4771 64.1094H24.4102" stroke="#E3E3E3" stroke-linecap="round"/>
<path d="M27.668 61.8075V61.7344" stroke="#E3E3E3" stroke-linecap="round"/>
<path d="M26.582 62.918H26.7177" stroke="#E3E3E3" stroke-linecap="round"/>
<path d="M24.9531 55.2148H25.0888" stroke="#E3E3E3" stroke-linecap="round"/>
</g>
<g filter="url(#filter2_i_1556_66590)">
<path d="M46.125 57.0117L46.1442 56.9415" stroke="#E3E3E3" stroke-linecap="round"/>
<path d="M53.4023 59.3867L53.4215 59.3165" stroke="#E3E3E3" stroke-linecap="round"/>
<path d="M47.168 57.3555L47.1871 57.2852" stroke="#E3E3E3" stroke-linecap="round"/>
<path d="M48.7695 53.5469L48.7887 53.4766" stroke="#E3E3E3" stroke-linecap="round"/>
<path d="M51.8668 58.8087L51.8477 58.8789" stroke="#E3E3E3" stroke-linecap="round"/>
<path d="M50.7888 56.5218L50.75 56.6641" stroke="#E3E3E3" stroke-linecap="round"/>
<path d="M52.2317 51.5094L52.1484 51.5586" stroke="#E3E3E3" stroke-linecap="round"/>
<path d="M48.1523 55.8164L48.2162 55.8372" stroke="#E3E3E3" stroke-linecap="round"/>
<path d="M49.7748 56.3489L49.7109 56.3281" stroke="#E3E3E3" stroke-linecap="round"/>
<path d="M48.1146 58.2786L48.0508 58.2578" stroke="#E3E3E3" stroke-linecap="round"/>
<path d="M51.3356 52.4493L51.3164 52.5195" stroke="#E3E3E3" stroke-linecap="round"/>
<path d="M48.3786 57.0548L48.3594 57.125" stroke="#E3E3E3" stroke-linecap="round"/>
<path d="M48.1207 60.0665L48.1016 60.1367" stroke="#E3E3E3" stroke-linecap="round"/>
<path d="M50.4922 59.6719L50.5754 59.6227" stroke="#E3E3E3" stroke-linecap="round"/>
<path d="M49.6832 60.5665L49.6641 60.6367" stroke="#E3E3E3" stroke-linecap="round"/>
<path d="M47.2188 59.2227L47.2379 59.1524" stroke="#E3E3E3" stroke-linecap="round"/>
<path d="M46.3359 58.3164L46.3942 58.1031" stroke="#E3E3E3" stroke-linecap="round"/>
<path d="M45.2969 57.9805L45.3161 57.9102" stroke="#E3E3E3" stroke-linecap="round"/>
<path d="M52.273 55.2346L52.318 55.3256" stroke="#E3E3E3" stroke-linecap="round"/>
<path d="M52.3021 53.3088C52.2697 53.4053 52.2626 53.3918 52.1992 53.4297" stroke="#E3E3E3" stroke-linecap="round"/>
<path d="M50.5391 55.3594L50.6683 55.4015" stroke="#E3E3E3" stroke-linecap="round"/>
<path d="M51.6328 57.5742L51.6716 57.432" stroke="#E3E3E3" stroke-linecap="round"/>
<path d="M50.2898 52.6465L50.1211 52.7461" stroke="#E3E3E3" stroke-linecap="round"/>
<path d="M50.2852 58.3711L50.4144 58.4132" stroke="#E3E3E3" stroke-linecap="round"/>
<path d="M47.2037 56.437C47.1533 56.4393 47.099 56.439 47.0547 56.4648" stroke="#E3E3E3" stroke-linecap="round"/>
<path d="M50.3281 54.0547L50.3473 53.9844" stroke="#E3E3E3" stroke-linecap="round"/>
<path d="M50.9137 49.8438L50.8945 49.9141" stroke="#E3E3E3" stroke-linecap="round"/>
<path d="M49.5641 55.0365C49.5072 55.0092 49.5279 54.9999 49.5191 54.9456" stroke="#E3E3E3" stroke-linecap="round"/>
<path d="M47.9606 54.4415L47.9414 54.5117" stroke="#E3E3E3" stroke-linecap="round"/>
<path d="M51.1696 51.2357L51.1246 51.1448" stroke="#E3E3E3" stroke-linecap="round"/>
<path d="M51.4508 54.344C51.3845 54.4173 51.3936 54.4017 51.3676 54.3932" stroke="#E3E3E3" stroke-linecap="round"/>
<path d="M45.3254 56.0602L45.2422 56.1094" stroke="#E3E3E3" stroke-linecap="round"/>
<path d="M49.4623 57.4778L49.3984 57.457" stroke="#E3E3E3" stroke-linecap="round"/>
<path d="M54.0912 57.1341L54.0273 57.1133" stroke="#E3E3E3" stroke-linecap="round"/>
<path d="M52.0547 60.1797L52.1185 60.2005" stroke="#E3E3E3" stroke-linecap="round"/>
<path d="M52.4801 56.5391L52.4609 56.6094" stroke="#E3E3E3" stroke-linecap="round"/>
<path d="M53.1953 58.0781C53.2203 58.016 53.2288 58.0385 53.2786 58.029" stroke="#E3E3E3" stroke-linecap="round"/>
<path d="M48.9528 59.1016L48.9336 59.1719" stroke="#E3E3E3" stroke-linecap="round"/>
<path d="M50.0856 50.8009L50.0664 50.8711" stroke="#E3E3E3" stroke-linecap="round"/>
<path d="M51.2106 48.2344L51.1914 48.3047" stroke="#E3E3E3" stroke-linecap="round"/>
<path d="M44.4413 57.0843C44.3998 57.0708 44.3998 57.0708 44.4413 57.0843" stroke="#E3E3E3" stroke-linecap="round"/>
<path d="M51.2418 61.0743L51.2227 61.1445" stroke="#E3E3E3" stroke-linecap="round"/>
<path d="M49.3984 52.2812L49.4176 52.211" stroke="#E3E3E3" stroke-linecap="round"/>
<path d="M54.2536 58.3438L54.2344 58.4141" stroke="#E3E3E3" stroke-linecap="round"/>
<path d="M53.1498 54.3528L53.0859 54.332" stroke="#E3E3E3" stroke-linecap="round"/>
<path d="M53.8164 55.8047L53.8552 55.6625" stroke="#E3E3E3" stroke-linecap="round"/>
<path d="M46.5898 55.3086L46.6287 55.1664" stroke="#E3E3E3" stroke-linecap="round"/>
</g>
<g filter="url(#filter3_i_1556_66590)">
<path d="M55.5156 34.0586L55.4664 34.0078" stroke="#E3E3E3" stroke-linecap="round"/>
<path d="M60.7344 28.0312L60.6851 27.9804" stroke="#E3E3E3" stroke-linecap="round"/>
<path d="M56.2617 33.1914L56.2124 33.1406" stroke="#E3E3E3" stroke-linecap="round"/>
<path d="M53.875 29.918L53.8257 29.8671" stroke="#E3E3E3" stroke-linecap="round"/>
<path d="M59.564 29.2695L59.6133 29.3203" stroke="#E3E3E3" stroke-linecap="round"/>
<path d="M57.2152 29.2903L57.3125 29.3906" stroke="#E3E3E3" stroke-linecap="round"/>
<path d="M53.759 25.6257L53.7617 25.7305" stroke="#E3E3E3" stroke-linecap="round"/>
<path d="M55.4531 31.543L55.4997 31.4891" stroke="#E3E3E3" stroke-linecap="round"/>
<path d="M56.613 30.2L56.5664 30.2539" stroke="#E3E3E3" stroke-linecap="round"/>
<path d="M57.445 32.6922L57.3984 32.7461" stroke="#E3E3E3" stroke-linecap="round"/>
<path d="M54.1304 26.9218L54.1797 26.9727" stroke="#E3E3E3" stroke-linecap="round"/>
<path d="M56.564 31.8789L56.6133 31.9297" stroke="#E3E3E3" stroke-linecap="round"/>
<path d="M58.9078 33.4804L58.957 33.5312" stroke="#E3E3E3" stroke-linecap="round"/>
<path d="M59.6562 30.9961L59.6536 30.8914" stroke="#E3E3E3" stroke-linecap="round"/>
<path d="M60.0249 32.1875L60.0742 32.2383" stroke="#E3E3E3" stroke-linecap="round"/>
<path d="M57.8203 33.9883L57.771 33.9375" stroke="#E3E3E3" stroke-linecap="round"/>
<path d="M56.6797 34.4453L56.5318 34.2927" stroke="#E3E3E3" stroke-linecap="round"/>
<path d="M55.9336 35.3047L55.8843 35.2539" stroke="#E3E3E3" stroke-linecap="round"/>
<path d="M56.8257 27.2617L56.9216 27.2586" stroke="#E3E3E3" stroke-linecap="round"/>
<path d="M55.265 26.366C55.3285 26.4402 55.3143 26.4412 55.3164 26.5195" stroke="#E3E3E3" stroke-linecap="round"/>
<path d="M56.1523 29.0039L56.2449 28.8968" stroke="#E3E3E3" stroke-linecap="round"/>
<path d="M58.4531 28.9414L58.3558 28.841" stroke="#E3E3E3" stroke-linecap="round"/>
<path d="M53.8227 28.0341L53.8281 28.2422" stroke="#E3E3E3" stroke-linecap="round"/>
<path d="M58.4961 30.6094L58.5886 30.5023" stroke="#E3E3E3" stroke-linecap="round"/>
<path d="M55.5319 32.7487C55.5113 32.7987 55.4869 32.8514 55.4883 32.9062" stroke="#E3E3E3" stroke-linecap="round"/>
<path d="M54.9883 28.625L54.939 28.5742" stroke="#E3E3E3" stroke-linecap="round"/>
<path d="M51.8062 26.1601L51.8555 26.2109" stroke="#E3E3E3" stroke-linecap="round"/>
<path d="M55.4528 29.8133C55.4042 29.8571 55.406 29.8325 55.357 29.8164" stroke="#E3E3E3" stroke-linecap="round"/>
<path d="M54.2398 31.1171L54.2891 31.168" stroke="#E3E3E3" stroke-linecap="round"/>
<path d="M53.0661 26.5359L52.9703 26.539" stroke="#E3E3E3" stroke-linecap="round"/>
<path d="M55.7307 27.656C55.7611 27.7549 55.7523 27.7389 55.7334 27.7607" stroke="#E3E3E3" stroke-linecap="round"/>
<path d="M54.3762 34.4109L54.3789 34.5156" stroke="#E3E3E3" stroke-linecap="round"/>
<path d="M57.4021 31.0125L57.3555 31.0664" stroke="#E3E3E3" stroke-linecap="round"/>
<path d="M59.2028 26.3484L59.1562 26.4023" stroke="#E3E3E3" stroke-linecap="round"/>
<path d="M60.7734 29.707L60.82 29.6531" stroke="#E3E3E3" stroke-linecap="round"/>
<path d="M57.9898 27.6445L58.0391 27.6953" stroke="#E3E3E3" stroke-linecap="round"/>
<path d="M59.5742 27.6445C59.5342 27.5915 59.5567 27.5934 59.5715 27.5398" stroke="#E3E3E3" stroke-linecap="round"/>
<path d="M58.4898 32.2382L58.5391 32.2891" stroke="#E3E3E3" stroke-linecap="round"/>
<path d="M52.2242 27.4023L52.2734 27.4531" stroke="#E3E3E3" stroke-linecap="round"/>
<path d="M50.6304 25.1445L50.6797 25.1953" stroke="#E3E3E3" stroke-linecap="round"/>
<path d="M54.819 35.7361C54.7895 35.7703 54.7895 35.7703 54.819 35.7361" stroke="#E3E3E3" stroke-linecap="round"/>
<path d="M61.1421 30.8945L61.1914 30.9453" stroke="#E3E3E3" stroke-linecap="round"/>
<path d="M53.125 28.7305L53.0757 28.6796" stroke="#E3E3E3" stroke-linecap="round"/>
<path d="M60.2671 26.7304L60.3164 26.7812" stroke="#E3E3E3" stroke-linecap="round"/>
<path d="M56.5036 26.0086L56.457 26.0625" stroke="#E3E3E3" stroke-linecap="round"/>
<path d="M57.9922 26.0117L57.8949 25.9114" stroke="#E3E3E3" stroke-linecap="round"/>
<path d="M54.332 32.832L54.2347 32.7317" stroke="#E3E3E3" stroke-linecap="round"/>
</g>
<g filter="url(#filter4_i_1556_66590)">
<path d="M34.9688 15.8086L34.9146 15.8512" stroke="#E3E3E3" stroke-linecap="round"/>
<path d="M30.5312 9.07422L30.4771 9.11687" stroke="#E3E3E3" stroke-linecap="round"/>
<path d="M34.3359 14.8438L34.2818 14.8864" stroke="#E3E3E3" stroke-linecap="round"/>
<path d="M30.9375 16.7852L30.8833 16.8278" stroke="#E3E3E3" stroke-linecap="round"/>
<path d="M31.4263 10.5622L31.4805 10.5195" stroke="#E3E3E3" stroke-linecap="round"/>
<path d="M30.9999 13.0823L31.1094 12.9961" stroke="#E3E3E3" stroke-linecap="round"/>
<path d="M27.0589 16.1006L27.1523 16.1172" stroke="#E3E3E3" stroke-linecap="round"/>
<path d="M32.6992 15.3984L32.6596 15.3384" stroke="#E3E3E3" stroke-linecap="round"/>
<path d="M31.7065 13.897L31.7461 13.957" stroke="#E3E3E3" stroke-linecap="round"/>
<path d="M34.101 13.4712L34.1406 13.5312" stroke="#E3E3E3" stroke-linecap="round"/>
<path d="M28.2935 15.9489L28.3477 15.9062" stroke="#E3E3E3" stroke-linecap="round"/>
<path d="M33.2076 14.2731L33.2617 14.2305" stroke="#E3E3E3" stroke-linecap="round"/>
<path d="M35.0904 12.0544L35.1445 12.0117" stroke="#E3E3E3" stroke-linecap="round"/>
<path d="M32.9961 10.7812L32.9027 10.7647" stroke="#E3E3E3" stroke-linecap="round"/>
<path d="M34.1412 10.6169L34.1953 10.5742" stroke="#E3E3E3" stroke-linecap="round"/>
<path d="M35.3359 13.3203L35.2818 13.363" stroke="#E3E3E3" stroke-linecap="round"/>
<path d="M35.5312 14.6328L35.3662 14.7628" stroke="#E3E3E3" stroke-linecap="round"/>
<path d="M36.168 15.5938L36.1138 15.6364" stroke="#E3E3E3" stroke-linecap="round"/>
<path d="M29.102 13.117L29.1171 13.0149" stroke="#E3E3E3" stroke-linecap="round"/>
<path d="M28.0075 14.6204C28.0868 14.5658 28.0849 14.5813 28.1562 14.5938" stroke="#E3E3E3" stroke-linecap="round"/>
<path d="M30.5469 14.1719L30.4679 14.0522" stroke="#E3E3E3" stroke-linecap="round"/>
<path d="M30.918 11.6953L30.8085 11.7815" stroke="#E3E3E3" stroke-linecap="round"/>
<path d="M29.2325 16.486L29.4219 16.5195" stroke="#E3E3E3" stroke-linecap="round"/>
<path d="M32.4297 11.9648L32.3507 11.8452" stroke="#E3E3E3" stroke-linecap="round"/>
<path d="M33.7923 15.5405C33.8334 15.5721 33.8762 15.6083 33.9258 15.6172" stroke="#E3E3E3" stroke-linecap="round"/>
<path d="M29.9883 15.3438L29.9341 15.3864" stroke="#E3E3E3" stroke-linecap="round"/>
<path d="M27.1685 18.2966L27.2227 18.2539" stroke="#E3E3E3" stroke-linecap="round"/>
<path d="M31.1445 15.0735C31.1743 15.1331 31.1528 15.1267 31.1293 15.1756" stroke="#E3E3E3" stroke-linecap="round"/>
<path d="M32.0787 16.6169L32.1328 16.5742" stroke="#E3E3E3" stroke-linecap="round"/>
<path d="M27.746 17.0188L27.7309 17.1209" stroke="#E3E3E3" stroke-linecap="round"/>
<path d="M29.2571 14.371C29.3505 14.3572 29.3346 14.3635 29.3505 14.3875" stroke="#E3E3E3" stroke-linecap="round"/>
<path d="M35.0707 17.0967L35.1641 17.1133" stroke="#E3E3E3" stroke-linecap="round"/>
<path d="M32.5854 13.2056L32.625 13.2656" stroke="#E3E3E3" stroke-linecap="round"/>
<path d="M28.726 10.4009L28.7656 10.4609" stroke="#E3E3E3" stroke-linecap="round"/>
<path d="M32.043 9.33984L32.0034 9.27982" stroke="#E3E3E3" stroke-linecap="round"/>
<path d="M29.6646 11.945L29.7188 11.9023" stroke="#E3E3E3" stroke-linecap="round"/>
<path d="M29.9648 10.25C29.9103 10.2826 29.9162 10.2591 29.8714 10.2335" stroke="#E3E3E3" stroke-linecap="round"/>
<path d="M33.8912 12.2731L33.9453 12.2305" stroke="#E3E3E3" stroke-linecap="round"/>
<path d="M28.3638 18.0856L28.418 18.043" stroke="#E3E3E3" stroke-linecap="round"/>
<path d="M26.0357 19.363L26.0898 19.3203" stroke="#E3E3E3" stroke-linecap="round"/>
<path d="M36.3407 16.8741C36.3656 16.9118 36.3656 16.9118 36.3407 16.8741" stroke="#E3E3E3" stroke-linecap="round"/>
<path d="M33.1841 9.17156L33.2383 9.12891" stroke="#E3E3E3" stroke-linecap="round"/>
<path d="M29.7344 17.375L29.6802 17.4177" stroke="#E3E3E3" stroke-linecap="round"/>
<path d="M29.2779 9.33562L29.332 9.29297" stroke="#E3E3E3" stroke-linecap="round"/>
<path d="M27.9213 13.229L27.9609 13.2891" stroke="#E3E3E3" stroke-linecap="round"/>
<path d="M28.207 11.6367L28.0975 11.723" stroke="#E3E3E3" stroke-linecap="round"/>
<path d="M33.6484 16.8398L33.5389 16.9261" stroke="#E3E3E3" stroke-linecap="round"/>
</g>
<g filter="url(#filter5_i_1556_66590)">
<path d="M16.8535 31.082L16.8719 31.1525" stroke="#E3E3E3" stroke-linecap="round"/>
<path d="M9.55078 33.3594L9.56918 33.4298" stroke="#E3E3E3" stroke-linecap="round"/>
<path d="M15.8105 31.4102L15.8289 31.4806" stroke="#E3E3E3" stroke-linecap="round"/>
<path d="M16.332 35.5586L16.3504 35.6291" stroke="#E3E3E3" stroke-linecap="round"/>
<path d="M11.1356 32.9377L11.1172 32.8672" stroke="#E3E3E3" stroke-linecap="round"/>
<path d="M13.1623 34.2443L13.125 34.1016" stroke="#E3E3E3" stroke-linecap="round"/>
<path d="M14.4189 39.313L14.4648 39.2227" stroke="#E3E3E3" stroke-linecap="round"/>
<path d="M15.7344 33.2812L15.6703 33.3012" stroke="#E3E3E3" stroke-linecap="round"/>
<path d="M14.1058 33.7856L14.1699 33.7656" stroke="#E3E3E3" stroke-linecap="round"/>
<path d="M14.5551 31.184L14.6191 31.1641" stroke="#E3E3E3" stroke-linecap="round"/>
<path d="M14.7098 37.9923L14.6914 37.9219" stroke="#E3E3E3" stroke-linecap="round"/>
<path d="M14.9344 32.3791L14.916 32.3086" stroke="#E3E3E3" stroke-linecap="round"/>
<path d="M13.6688 29.6838L13.6504 29.6133" stroke="#E3E3E3" stroke-linecap="round"/>
<path d="M11.8613 31.4023L11.8153 31.4927" stroke="#E3E3E3" stroke-linecap="round"/>
<path d="M12.1043 30.172L12.0859 30.1016" stroke="#E3E3E3" stroke-linecap="round"/>
<path d="M14.8438 29.8594L14.8622 29.9298" stroke="#E3E3E3" stroke-linecap="round"/>
<path d="M16.0352 30.1055L16.0911 30.3195" stroke="#E3E3E3" stroke-linecap="round"/>
<path d="M17.0762 29.7773L17.0946 29.8478" stroke="#E3E3E3" stroke-linecap="round"/>
<path d="M12.5477 36.1953L12.465 36.1451" stroke="#E3E3E3" stroke-linecap="round"/>
<path d="M13.4728 37.8343C13.4526 37.7338 13.4652 37.7411 13.5 37.6719" stroke="#E3E3E3" stroke-linecap="round"/>
<path d="M13.9473 35.0664L13.8175 35.1068" stroke="#E3E3E3" stroke-linecap="round"/>
<path d="M11.9355 33.8516L11.9728 33.9943" stroke="#E3E3E3" stroke-linecap="round"/>
<path d="M15.4908 37.2026L15.584 37.0195" stroke="#E3E3E3" stroke-linecap="round"/>
<path d="M12.6797 32.3789L12.5499 32.4193" stroke="#E3E3E3" stroke-linecap="round"/>
<path d="M16.2279 32.193C16.2693 32.1615 16.3152 32.1298 16.3398 32.082" stroke="#E3E3E3" stroke-linecap="round"/>
<path d="M14.7656 36.0469L14.784 36.1173" stroke="#E3E3E3" stroke-linecap="round"/>
<path d="M16.3485 39.9455L16.3301 39.875" stroke="#E3E3E3" stroke-linecap="round"/>
<path d="M14.9259 34.7661C14.9873 34.7558 14.9745 34.7757 15.0086 34.8164" stroke="#E3E3E3" stroke-linecap="round"/>
<path d="M16.5731 34.3322L16.5547 34.2617" stroke="#E3E3E3" stroke-linecap="round"/>
<path d="M15.4435 38.9146L15.5262 38.9648" stroke="#E3E3E3" stroke-linecap="round"/>
<path d="M13.6751 36.4589C13.6949 36.3582 13.6949 36.3767 13.7211 36.3685" stroke="#E3E3E3" stroke-linecap="round"/>
<path d="M18.0009 31.4106L18.0469 31.3203" stroke="#E3E3E3" stroke-linecap="round"/>
<path d="M13.807 32.6489L13.8711 32.6289" stroke="#E3E3E3" stroke-linecap="round"/>
<path d="M10.0824 35.6606L10.1465 35.6406" stroke="#E3E3E3" stroke-linecap="round"/>
<path d="M10.2949 31.8945L10.2308 31.9145" stroke="#E3E3E3" stroke-linecap="round"/>
<path d="M11.7293 35.2267L11.7109 35.1562" stroke="#E3E3E3" stroke-linecap="round"/>
<path d="M10.3691 34.332C10.3786 34.3991 10.3604 34.3851 10.3231 34.4224" stroke="#E3E3E3" stroke-linecap="round"/>
<path d="M13.4422 30.9923L13.4238 30.9219" stroke="#E3E3E3" stroke-linecap="round"/>
<path d="M16.5711 38.6408L16.5527 38.5703" stroke="#E3E3E3" stroke-linecap="round"/>
<path d="M16.8856 41.4689L16.8672 41.3984" stroke="#E3E3E3" stroke-linecap="round"/>
<path d="M18.2383 30.0371C18.2799 30.0241 18.2799 30.0241 18.2383 30.0371" stroke="#E3E3E3" stroke-linecap="round"/>
<path d="M10.5399 30.6681L10.5215 30.5977" stroke="#E3E3E3" stroke-linecap="round"/>
<path d="M16.4219 36.9961L16.4403 37.0666" stroke="#E3E3E3" stroke-linecap="round"/>
<path d="M9.34262 34.7267L9.32422 34.6562" stroke="#E3E3E3" stroke-linecap="round"/>
<path d="M12.2426 37.4497L12.3066 37.4297" stroke="#E3E3E3" stroke-linecap="round"/>
<path d="M10.9648 36.6211L11.0021 36.7638" stroke="#E3E3E3" stroke-linecap="round"/>
<path d="M17.3008 32.7969L17.338 32.9396" stroke="#E3E3E3" stroke-linecap="round"/>
</g>
<path d="M70.7706 43.9588C68.9375 43.9584 61.7706 43.8667 60.5391 45.0677C61.297 45.714 67.8716 48.4476 69.9179 48.6693C72.4758 48.9465 75.8863 47.561 76.1705 46.4534C76.4547 45.3459 73.0442 43.9591 70.7706 43.9588Z" fill="#DFDFDF" stroke="#DFDFDF" stroke-linejoin="round"/>
<path d="M41.7855 73.0711C41.2088 71.2667 39.0376 64.1803 37.5402 63.3916C37.1816 64.3655 36.7254 71.8006 37.1647 73.8928C37.7138 76.5082 40.0675 79.3765 41.1803 79.2657C42.2931 79.1549 42.5009 75.3091 41.7855 73.0711Z" fill="#DFDFDF" stroke="#DFDFDF" stroke-linejoin="round"/>
<path d="M8.78104 59.3935C9.79656 57.8372 13.8391 51.8088 13.5639 50.018C12.629 50.2605 6.80859 54.1471 5.4985 55.7471C3.86088 57.747 3.07629 61.5024 3.80172 62.4309C4.52714 63.3593 7.52145 61.3238 8.78104 59.3935Z" fill="#DFDFDF" stroke="#DFDFDF" stroke-linejoin="round"/>
<path d="M7.93479 16.152C9.4354 17.1346 15.2568 21.0596 16.8693 20.6182C16.574 19.6193 12.5665 13.5889 11.0027 12.2889C9.04796 10.664 5.55874 10.1068 4.76885 10.9703C3.97896 11.8337 6.07351 14.9332 7.93479 16.152Z" fill="#DFDFDF" stroke="#DFDFDF" stroke-linejoin="round"/>
<path d="M49.3683 5.29907C48.7634 7.09239 46.3154 14.0703 47.0123 15.7189C47.8559 15.2162 52.535 9.79368 53.4135 7.87356C54.5117 5.47341 54.3641 1.62483 53.4406 0.937585C52.5171 0.250336 50.1186 3.07473 49.3683 5.29907Z" fill="#DFDFDF" stroke="#DFDFDF" stroke-linejoin="round"/>
<ellipse cx="1.73868" cy="52.4344" rx="1.73868" ry="1.89925" fill="#DFDFDF"/>
<ellipse cx="58.679" cy="11.5985" rx="1.30401" ry="1.89925" fill="#DFDFDF"/>
<ellipse cx="9.12628" cy="7.8016" rx="1.30401" ry="1.89925" fill="#DFDFDF"/>
<ellipse cx="35.2103" cy="79.4305" rx="1.30401" ry="1.89925" fill="#DFDFDF"/>
<ellipse cx="68.6762" cy="52.9127" rx="1.73868" ry="1.42444" fill="#DFDFDF"/>
<defs>
<filter id="filter0_d_1556_66590" x="12.2734" y="17.2773" width="45.9766" height="49.4844" filterUnits="userSpaceOnUse" color-interpolation-filters="sRGB">
<feFlood flood-opacity="0" result="BackgroundImageFix"/>
<feColorMatrix in="SourceAlpha" type="matrix" values="0 0 0 0 0 0 0 0 0 0 0 0 0 0 0 0 0 0 127 0" result="hardAlpha"/>
<feOffset dy="4"/>
<feGaussianBlur stdDeviation="2"/>
<feComposite in2="hardAlpha" operator="out"/>
<feColorMatrix type="matrix" values="0 0 0 0 0 0 0 0 0 0 0 0 0 0 0 0 0 0 0.25 0"/>
<feBlend mode="normal" in2="BackgroundImageFix" result="effect1_dropShadow_1556_66590"/>
<feBlend mode="normal" in="SourceGraphic" in2="effect1_dropShadow_1556_66590" result="shape"/>
</filter>
<filter id="filter1_i_1556_66590" x="20.6562" y="53.4375" width="12.3242" height="15.1719" filterUnits="userSpaceOnUse" color-interpolation-filters="sRGB">
<feFlood flood-opacity="0" result="BackgroundImageFix"/>
<feBlend mode="normal" in="SourceGraphic" in2="BackgroundImageFix" result="shape"/>
<feColorMatrix in="SourceAlpha" type="matrix" values="0 0 0 0 0 0 0 0 0 0 0 0 0 0 0 0 0 0 127 0" result="hardAlpha"/>
<feOffset dy="4"/>
<feGaussianBlur stdDeviation="2"/>
<feComposite in2="hardAlpha" operator="arithmetic" k2="-1" k3="1"/>
<feColorMatrix type="matrix" values="0 0 0 0 0 0 0 0 0 0 0 0 0 0 0 0 0 0 0.25 0"/>
<feBlend mode="normal" in2="shape" result="effect1_innerShadow_1556_66590"/>
</filter>
<filter id="filter2_i_1556_66590" x="44.2773" y="47.7266" width="10.4688" height="17.9258" filterUnits="userSpaceOnUse" color-interpolation-filters="sRGB">
<feFlood flood-opacity="0" result="BackgroundImageFix"/>
<feBlend mode="normal" in="SourceGraphic" in2="BackgroundImageFix" result="shape"/>
<feColorMatrix in="SourceAlpha" type="matrix" values="0 0 0 0 0 0 0 0 0 0 0 0 0 0 0 0 0 0 127 0" result="hardAlpha"/>
<feOffset dy="4"/>
<feGaussianBlur stdDeviation="2"/>
<feComposite in2="hardAlpha" operator="arithmetic" k2="-1" k3="1"/>
<feColorMatrix type="matrix" values="0 0 0 0 0 0 0 0 0 0 0 0 0 0 0 0 0 0 0.25 0"/>
<feBlend mode="normal" in2="shape" result="effect1_innerShadow_1556_66590"/>
</filter>
<filter id="filter3_i_1556_66590" x="50.1523" y="24.6211" width="11.5156" height="15.5" filterUnits="userSpaceOnUse" color-interpolation-filters="sRGB">
<feFlood flood-opacity="0" result="BackgroundImageFix"/>
<feBlend mode="normal" in="SourceGraphic" in2="BackgroundImageFix" result="shape"/>
<feColorMatrix in="SourceAlpha" type="matrix" values="0 0 0 0 0 0 0 0 0 0 0 0 0 0 0 0 0 0 127 0" result="hardAlpha"/>
<feOffset dy="4"/>
<feGaussianBlur stdDeviation="2"/>
<feComposite in2="hardAlpha" operator="arithmetic" k2="-1" k3="1"/>
<feColorMatrix type="matrix" values="0 0 0 0 0 0 0 0 0 0 0 0 0 0 0 0 0 0 0.25 0"/>
<feBlend mode="normal" in2="shape" result="effect1_innerShadow_1556_66590"/>
</filter>
<filter id="filter4_i_1556_66590" x="25.5547" y="8.55469" width="11.1992" height="15.3281" filterUnits="userSpaceOnUse" color-interpolation-filters="sRGB">
<feFlood flood-opacity="0" result="BackgroundImageFix"/>
<feBlend mode="normal" in="SourceGraphic" in2="BackgroundImageFix" result="shape"/>
<feColorMatrix in="SourceAlpha" type="matrix" values="0 0 0 0 0 0 0 0 0 0 0 0 0 0 0 0 0 0 127 0" result="hardAlpha"/>
<feOffset dy="4"/>
<feGaussianBlur stdDeviation="2"/>
<feComposite in2="hardAlpha" operator="arithmetic" k2="-1" k3="1"/>
<feColorMatrix type="matrix" values="0 0 0 0 0 0 0 0 0 0 0 0 0 0 0 0 0 0 0.25 0"/>
<feBlend mode="normal" in2="shape" result="effect1_innerShadow_1556_66590"/>
</filter>
<filter id="filter5_i_1556_66590" x="8.83008" y="29.1055" width="9.71094" height="16.8711" filterUnits="userSpaceOnUse" color-interpolation-filters="sRGB">
<feFlood flood-opacity="0" result="BackgroundImageFix"/>
<feBlend mode="normal" in="SourceGraphic" in2="BackgroundImageFix" result="shape"/>
<feColorMatrix in="SourceAlpha" type="matrix" values="0 0 0 0 0 0 0 0 0 0 0 0 0 0 0 0 0 0 127 0" result="hardAlpha"/>
<feOffset dy="4"/>
<feGaussianBlur stdDeviation="2"/>
<feComposite in2="hardAlpha" operator="arithmetic" k2="-1" k3="1"/>
<feColorMatrix type="matrix" values="0 0 0 0 0 0 0 0 0 0 0 0 0 0 0 0 0 0 0.25 0"/>
<feBlend mode="normal" in2="shape" result="effect1_innerShadow_1556_66590"/>
</filter>
</defs>
</g>
</svg>
