<svg width="552" height="154" viewBox="0 0 552 154" fill="none" xmlns="http://www.w3.org/2000/svg">
<path d="M311.208 31.6464C312.067 31.8489 312.748 30.9214 312.298 30.1628L300.586 10.425C300.215 9.7989 299.32 9.76692 298.905 10.3649L288.775 24.9523C288.372 25.5316 288.68 26.3341 289.366 26.496L311.208 31.6464Z" fill="#FFC805"/>
<mask id="mask0_9294_129570" style="mask-type:alpha" maskUnits="userSpaceOnUse" x="288" y="9" width="25" height="23">
<path d="M311.208 31.6464C312.067 31.8489 312.748 30.9214 312.298 30.1628L300.586 10.425C300.215 9.7989 299.32 9.76692 298.905 10.3649L288.775 24.9523C288.372 25.5316 288.68 26.3341 289.366 26.496L311.208 31.6464Z" fill="#FFC805"/>
</mask>
<g mask="url(#mask0_9294_129570)">
<path d="M305.482 18.0657C305.535 17.9765 305.556 17.8716 305.541 17.7688C305.48 17.3588 304.944 17.2433 304.72 17.5919L300.909 23.5171C300.879 23.5637 300.846 23.6077 300.808 23.6487L296.803 28.0566C296.46 28.4342 296.748 29.0377 297.257 29.0087C297.408 29.0001 297.55 28.9318 297.65 28.8189L301.802 24.1601C301.844 24.1135 301.881 24.0631 301.913 24.0095L305.482 18.0657Z" fill="#F55376"/>
<path d="M308.235 22.6409C308.353 22.4168 308.289 22.1429 308.087 21.9901C307.857 21.8155 307.527 21.8603 307.363 22.0982C306.412 23.4745 305.996 24.6786 304.85 26.1759C303.759 27.6016 302.867 28.1437 301.772 29.4777C301.588 29.7011 301.634 30.0305 301.865 30.205C302.066 30.3579 302.348 30.3448 302.532 30.1705C303.22 29.5168 304.864 27.916 305.823 26.64C306.75 25.4078 307.804 23.4628 308.235 22.6409Z" fill="#F55376"/>
<path d="M310.984 27.3829C311.093 27.2086 311.062 26.9839 310.913 26.8423C310.687 26.6277 310.312 26.706 310.179 26.9875C309.892 27.5952 309.402 28.5279 308.864 29.084C308.35 29.6159 307.482 30.1256 306.906 30.4315C306.631 30.5777 306.57 30.9564 306.796 31.1712C306.944 31.3124 307.17 31.3329 307.338 31.2164C307.818 30.8853 308.781 30.1921 309.363 29.5879C309.978 28.9496 310.665 27.8956 310.984 27.3829Z" fill="#F55376"/>
<path d="M302.898 13.9829C303.013 13.7899 303.007 13.5479 302.882 13.3609C302.643 13.0025 302.112 13.0173 301.894 13.3884L297.402 21.0225C297.378 21.0634 297.351 21.1026 297.322 21.1397L292.552 27.107C292.276 27.4533 292.522 27.9661 292.966 27.966C293.125 27.966 293.277 27.8936 293.377 27.7692L298.366 21.5847L302.898 13.9829Z" fill="#F55376"/>
</g>
<path d="M240.665 31.5605C239.806 31.7629 239.125 30.8355 239.575 30.0769L251.287 10.3391C251.658 9.71296 252.553 9.68098 252.968 10.2789L263.098 24.8663C263.501 25.4456 263.193 26.2481 262.507 26.41L240.665 31.5605Z" fill="#FFC805"/>
<mask id="mask1_9294_129570" style="mask-type:alpha" maskUnits="userSpaceOnUse" x="239" y="9" width="25" height="23">
<path d="M240.665 31.5605C239.806 31.7629 239.125 30.8355 239.575 30.0769L251.287 10.3391C251.658 9.71296 252.553 9.68098 252.968 10.2789L263.098 24.8663C263.501 25.4456 263.193 26.2481 262.507 26.41L240.665 31.5605Z" fill="#FFC805"/>
</mask>
<g mask="url(#mask1_9294_129570)">
<path d="M246.391 17.9797C246.338 17.8906 246.317 17.7857 246.332 17.6828C246.393 17.2729 246.929 17.1574 247.153 17.5059L250.964 23.4312C250.994 23.4778 251.027 23.5218 251.065 23.5628L255.07 27.9707C255.413 28.3482 255.125 28.9517 254.616 28.9228C254.465 28.9142 254.323 28.8459 254.223 28.733L250.071 24.0742C250.029 24.0275 249.992 23.9771 249.96 23.9236L246.391 17.9797Z" fill="#F55376"/>
<path d="M243.638 22.555C243.52 22.3309 243.584 22.057 243.786 21.9041C244.016 21.7295 244.346 21.7743 244.51 22.0123C245.461 23.3886 245.877 24.5926 247.023 26.09C248.114 27.5157 249.006 28.0577 250.101 29.3918C250.285 29.6152 250.239 29.9446 250.008 30.1191C249.807 30.272 249.525 30.2588 249.342 30.0845C248.653 29.4309 247.009 27.8301 246.05 26.5541C245.123 25.3218 244.069 23.3768 243.638 22.555Z" fill="#F55376"/>
<path d="M240.887 27.3009C240.778 27.1266 240.809 26.9019 240.958 26.7603C241.184 26.5456 241.559 26.6239 241.692 26.9055C241.979 27.5132 242.469 28.4459 243.007 29.002C243.521 29.5339 244.39 30.0435 244.965 30.3495C245.241 30.4957 245.301 30.8744 245.075 31.0891C244.927 31.2304 244.701 31.2509 244.533 31.1344C244.054 30.8033 243.09 30.1101 242.508 29.5059C241.893 28.8676 241.206 27.8136 240.887 27.3009Z" fill="#F55376"/>
<path d="M248.976 13.9009C248.86 13.7078 248.867 13.4659 248.991 13.2788C249.23 12.9205 249.761 12.9353 249.979 13.3064L254.471 20.9404C254.495 20.9814 254.522 21.0206 254.551 21.0577L259.321 27.025C259.597 27.3713 259.351 27.884 258.908 27.884C258.748 27.8839 258.596 27.8116 258.496 27.6872L253.507 21.5027L248.976 13.9009Z" fill="#F55376"/>
</g>
<path d="M265.89 21.9049C267.301 22.4153 269.976 22.9578 269.392 21.0449C268.662 18.6539 265.751 14.9421 269.342 16.7732C272.215 18.2381 273.187 16.9248 273.313 16.0849" stroke="#02C1C1" stroke-linecap="round"/>
<path d="M287.546 22.3066C286.69 22.3066 285.149 22.0566 285.834 21.0564C286.69 19.8061 288.973 18.2433 286.69 18.5558C284.864 18.8059 284.597 17.8272 284.692 17.3066" stroke="#5D44BD" stroke-linecap="round"/>
<path d="M268.268 7.54632C267.793 7.86284 266.854 8.30772 266.902 7.55509C266.961 6.61431 267.707 4.98994 266.545 5.99005C265.614 6.79015 265.141 6.39994 265.021 6.10483" stroke="#F34D08" stroke-width="0.5" stroke-linecap="round"/>
<path d="M285.529 7.37986C285.57 7.86743 285.501 8.75699 284.899 8.4147C284.146 7.98684 283.147 6.76129 283.434 8.04655C283.664 9.07476 283.119 9.27313 282.818 9.2438" stroke="#CF1565" stroke-width="0.5" stroke-linecap="round"/>
<path d="M261.917 9.29466C261.947 9.20253 262.077 9.20253 262.107 9.29466L262.663 11.0058C262.676 11.047 262.715 11.0749 262.758 11.0749H264.557C264.654 11.0749 264.694 11.1989 264.616 11.2558L263.16 12.3133C263.125 12.3388 263.111 12.384 263.124 12.4252L263.68 14.1363C263.71 14.2284 263.604 14.305 263.526 14.2481L262.07 13.1906C262.035 13.1651 261.988 13.1651 261.953 13.1906L260.497 14.2481C260.419 14.305 260.314 14.2284 260.343 14.1363L260.899 12.4252C260.913 12.384 260.898 12.3388 260.863 12.3133L259.408 11.2558C259.329 11.1989 259.369 11.0749 259.466 11.0749H261.266C261.309 11.0749 261.347 11.047 261.361 11.0058L261.917 9.29466Z" fill="#CA3AE6"/>
<path d="M276.917 17.2947C276.947 17.2025 277.077 17.2025 277.107 17.2947L277.663 19.0058C277.676 19.047 277.715 19.0749 277.758 19.0749H279.557C279.654 19.0749 279.694 19.1989 279.616 19.2558L278.16 20.3133C278.125 20.3388 278.111 20.384 278.124 20.4252L278.68 22.1363C278.71 22.2284 278.604 22.305 278.526 22.2481L277.07 21.1906C277.035 21.1651 276.988 21.1651 276.953 21.1906L275.497 22.2481C275.419 22.305 275.314 22.2284 275.343 22.1363L275.899 20.4252C275.913 20.384 275.898 20.3388 275.863 20.3133L274.408 19.2558C274.329 19.1989 274.369 19.0749 274.466 19.0749H276.266C276.309 19.0749 276.347 19.047 276.361 19.0058L276.917 17.2947Z" fill="#F34D08"/>
<path d="M288.917 9.29466C288.947 9.20253 289.077 9.20253 289.107 9.29466L289.663 11.0058C289.676 11.047 289.715 11.0749 289.758 11.0749H291.557C291.654 11.0749 291.694 11.1989 291.616 11.2558L290.16 12.3133C290.125 12.3388 290.111 12.384 290.124 12.4252L290.68 14.1363C290.71 14.2284 290.604 14.305 290.526 14.2481L289.07 13.1906C289.035 13.1651 288.988 13.1651 288.953 13.1906L287.497 14.2481C287.419 14.305 287.314 14.2284 287.343 14.1363L287.899 12.4252C287.913 12.384 287.898 12.3388 287.863 12.3133L286.408 11.2558C286.329 11.1989 286.369 11.0749 286.466 11.0749H288.266C288.309 11.0749 288.347 11.047 288.361 11.0058L288.917 9.29466Z" fill="#F55376"/>
<path d="M275.917 4.29466C275.947 4.20253 276.077 4.20253 276.107 4.29466L276.663 6.0058C276.676 6.04701 276.715 6.0749 276.758 6.0749H278.557C278.654 6.0749 278.694 6.19886 278.616 6.2558L277.16 7.31335C277.125 7.33881 277.111 7.38395 277.124 7.42515L277.68 9.1363C277.71 9.22843 277.604 9.30504 277.526 9.2481L276.07 8.19056C276.035 8.16509 275.988 8.16509 275.953 8.19056L274.497 9.2481C274.419 9.30504 274.314 9.22843 274.343 9.1363L274.899 7.42515C274.913 7.38395 274.898 7.33881 274.863 7.31335L273.408 6.2558C273.329 6.19886 273.369 6.0749 273.466 6.0749H275.266C275.309 6.0749 275.347 6.04701 275.361 6.0058L275.917 4.29466Z" fill="#02C1C1"/>
<line x1="371.512" y1="151.502" x2="378.512" y2="151.502" stroke="#F55376" stroke-linecap="round"/>
<line x1="401.512" y1="151.502" x2="408.512" y2="151.502" stroke="#FFC805" stroke-linecap="round"/>
<line x1="386.512" y1="151.502" x2="393.512" y2="151.502" stroke="#6ADF8F" stroke-linecap="round"/>
<line x1="371.512" y1="1.50195" x2="378.512" y2="1.50195" stroke="#F55376" stroke-linecap="round"/>
<line x1="401.512" y1="1.50195" x2="408.512" y2="1.50195" stroke="#FFC805" stroke-linecap="round"/>
<line x1="386.512" y1="1.50195" x2="393.512" y2="1.50195" stroke="#6ADF8F" stroke-linecap="round"/>
<line x1="134.512" y1="2.50195" x2="141.512" y2="2.50195" stroke="#F55376" stroke-linecap="round"/>
<line x1="164.512" y1="2.50195" x2="171.512" y2="2.50195" stroke="#FFC805" stroke-linecap="round"/>
<line x1="149.512" y1="2.50195" x2="156.512" y2="2.50195" stroke="#6ADF8F" stroke-linecap="round"/>
<line x1="137.512" y1="151.502" x2="144.512" y2="151.502" stroke="#F55376" stroke-linecap="round"/>
<line x1="167.512" y1="151.502" x2="174.512" y2="151.502" stroke="#FFC805" stroke-linecap="round"/>
<line x1="152.512" y1="151.502" x2="159.512" y2="151.502" stroke="#6ADF8F" stroke-linecap="round"/>
<line x1="19.5117" y1="2.50195" x2="26.5117" y2="2.50195" stroke="#F55376" stroke-linecap="round"/>
<line x1="49.5117" y1="2.50195" x2="56.5117" y2="2.50195" stroke="#FFC805" stroke-linecap="round"/>
<line x1="34.5117" y1="2.50195" x2="41.5117" y2="2.50195" stroke="#6ADF8F" stroke-linecap="round"/>
<line x1="486.512" y1="1.50195" x2="493.512" y2="1.50195" stroke="#F55376" stroke-linecap="round"/>
<line x1="516.512" y1="1.50195" x2="523.512" y2="1.50195" stroke="#FFC805" stroke-linecap="round"/>
<line x1="501.512" y1="1.50195" x2="508.512" y2="1.50195" stroke="#6ADF8F" stroke-linecap="round"/>
<line x1="19.5117" y1="151.502" x2="26.5117" y2="151.502" stroke="#F55376" stroke-linecap="round"/>
<line x1="49.5117" y1="151.502" x2="56.5117" y2="151.502" stroke="#FFC805" stroke-linecap="round"/>
<line x1="34.5117" y1="151.502" x2="41.5117" y2="151.502" stroke="#6ADF8F" stroke-linecap="round"/>
<line x1="260.512" y1="151.502" x2="267.512" y2="151.502" stroke="#F55376" stroke-linecap="round"/>
<line x1="290.512" y1="151.502" x2="297.512" y2="151.502" stroke="#FFC805" stroke-linecap="round"/>
<line x1="275.512" y1="151.502" x2="282.512" y2="151.502" stroke="#6ADF8F" stroke-linecap="round"/>
<line x1="486.512" y1="151.502" x2="493.512" y2="151.502" stroke="#F55376" stroke-linecap="round"/>
<line x1="516.512" y1="151.502" x2="523.512" y2="151.502" stroke="#FFC805" stroke-linecap="round"/>
<line x1="501.512" y1="151.502" x2="508.512" y2="151.502" stroke="#6ADF8F" stroke-linecap="round"/>
<line x1="2.51172" y1="49.502" x2="2.51172" y2="56.502" stroke="#FFC805" stroke-linecap="round"/>
<line x1="2.51172" y1="60.502" x2="2.51172" y2="67.502" stroke="#F55376" stroke-linecap="round"/>
<line x1="2.51172" y1="72.502" x2="2.51172" y2="79.502" stroke="#6ADF8F" stroke-linecap="round"/>
<line x1="2.51172" y1="83.502" x2="2.51172" y2="90.502" stroke="#FFC805" stroke-linecap="round"/>
<line x1="2.51172" y1="94.502" x2="2.51172" y2="101.502" stroke="#F55376" stroke-linecap="round"/>
<line x1="550.512" y1="49.502" x2="550.512" y2="56.502" stroke="#FFC805" stroke-linecap="round"/>
<line x1="550.512" y1="60.502" x2="550.512" y2="67.502" stroke="#F55376" stroke-linecap="round"/>
<line x1="550.512" y1="72.502" x2="550.512" y2="79.502" stroke="#6ADF8F" stroke-linecap="round"/>
<line x1="550.512" y1="83.502" x2="550.512" y2="90.502" stroke="#FFC805" stroke-linecap="round"/>
<line x1="550.512" y1="94.502" x2="550.512" y2="101.502" stroke="#F55376" stroke-linecap="round"/>
<circle cx="90.9396" cy="1.92805" r="1.43746" transform="rotate(-26.5059 90.9396 1.92805)" fill="#F55376"/>
<circle cx="89.9396" cy="151.928" r="1.43746" transform="rotate(-26.5059 89.9396 151.928)" fill="#6ADF8F"/>
<circle cx="224.94" cy="151.928" r="1.43746" transform="rotate(-26.5059 224.94 151.928)" fill="#F55376"/>
<circle cx="340.94" cy="151.928" r="1.43746" transform="rotate(-26.5059 340.94 151.928)" fill="#6ADF8F"/>
<circle cx="174.94" cy="14.6468" r="1.43746" transform="rotate(-26.5059 174.94 14.6468)" fill="#6ADF8F"/>
<circle cx="343.94" cy="21.6468" r="1.43746" transform="rotate(-26.5059 343.94 21.6468)" fill="#6ADF8F"/>
<circle cx="231.94" cy="13.928" r="1.43746" transform="rotate(-26.5059 231.94 13.928)" fill="#FFC805"/>
<circle cx="315.94" cy="13.93" r="1.43746" transform="rotate(-26.5059 315.94 13.93)" fill="#FFC805"/>
<circle cx="366.94" cy="14.6468" r="1.43746" transform="rotate(-26.5059 366.94 14.6468)" fill="#F55376"/>
<circle cx="202.94" cy="21.6487" r="1.43746" transform="rotate(-26.5059 202.94 21.6487)" fill="#F55376"/>
<circle cx="453.94" cy="151.928" r="1.43746" transform="rotate(-26.5059 453.94 151.928)" fill="#F55376"/>
<circle cx="453.94" cy="1.92805" r="1.43746" transform="rotate(-26.5059 453.94 1.92805)" fill="#6ADF8F"/>
<path d="M319.012 25.002C336.012 29.4999 368.212 27.804 365.012 25.004" stroke="#FFC805" stroke-linecap="round" stroke-dasharray="2 2"/>
<circle cx="549.512" cy="130.902" r="1.5" fill="#F55376"/>
<circle cx="543.512" cy="130.902" r="1.5" fill="#FFC805"/>
<circle cx="546.512" cy="125.502" r="1.5" fill="#6ADF8F"/>
<circle cx="544.253" cy="24.6627" r="1.50968" transform="rotate(84.4337 544.253 24.6627)" fill="#F55376"/>
<circle cx="543.667" cy="18.651" r="1.50968" transform="rotate(84.4337 543.667 18.651)" fill="#FFC805"/>
<circle cx="549.367" cy="21.1275" r="1.50968" transform="rotate(84.4337 549.367 21.1275)" fill="#6ADF8F"/>
<circle cx="5.84947" cy="131.257" r="1.33801" transform="rotate(42.2827 5.84947 131.257)" fill="#F55376"/>
<circle cx="1.89049" cy="127.656" r="1.33801" transform="rotate(42.2827 1.89049 127.656)" fill="#FFC805"/>
<circle cx="7.10924" cy="125.892" r="1.33801" transform="rotate(42.2827 7.10924 125.892)" fill="#6ADF8F"/>
<circle cx="7.08414" cy="21.2777" r="1.43746" transform="rotate(-26.5059 7.08414 21.2777)" fill="#F55376"/>
<circle cx="1.9396" cy="23.846" r="1.43746" transform="rotate(-26.5059 1.9396 23.846)" fill="#FFC805"/>
<circle cx="2.20132" cy="17.93" r="1.43746" transform="rotate(-26.5059 2.20132 17.93)" fill="#6ADF8F"/>
<path d="M177.012 24.002C193.345 32.1686 227.312 26.802 230.512 24.002" stroke="#FFC805" stroke-linecap="round" stroke-dasharray="2 2"/>
</svg>
