<svg width="75" height="81" viewBox="0 0 75 81" fill="none" xmlns="http://www.w3.org/2000/svg">
<ellipse cx="37.5" cy="78.5" rx="24.5" ry="2.5" fill="#FF5500" fill-opacity="0.23"/>
<path d="M23.6202 30.981C23.6202 34.2377 23.6202 37.4803 23.6336 40.737C23.6336 43.9937 23.6605 47.2363 23.6739 50.493C23.6873 53.7638 23.7142 57.0205 23.741 60.2913C23.741 61.9126 23.7679 63.5198 23.7679 65.1411C23.7679 66.5086 23.7276 67.8903 23.8082 69.2437C23.9156 71.147 24.211 73.0362 24.117 74.9535C24.117 75.1791 24.0901 75.4047 24.0633 75.6161C24.0767 75.4611 24.1036 75.306 24.1304 75.1509C24.0901 75.4893 24.023 75.8417 23.8887 76.1519C23.9424 76.0109 23.9962 75.8699 24.0633 75.7289C24.0096 75.8558 23.9424 75.9827 23.8753 76.0955C23.9693 75.9827 24.0499 75.8558 24.1438 75.743C24.0901 75.8135 24.023 75.8699 23.9559 75.9263C24.0633 75.8276 24.1841 75.743 24.2915 75.6443C24.1304 75.7712 23.9424 75.8558 23.7679 75.9404C23.9022 75.884 24.0364 75.8276 24.1707 75.7571C23.4188 76.0955 22.5997 76.2506 21.821 76.4762C20.9751 76.7158 20.3575 77.745 20.6394 78.6614C20.9214 79.5778 21.8076 80.1558 22.7206 79.902C23.8887 79.5637 25.1911 79.3663 26.1713 78.5627C27.2589 77.6745 27.4603 76.1519 27.514 74.7844C27.5543 73.5578 27.4603 72.3313 27.3529 71.1188C27.3126 70.5972 27.2589 70.0614 27.2186 69.5398C27.1783 68.9335 27.1783 68.3273 27.1783 67.7352C27.1515 63.8159 27.1246 59.8825 27.0977 55.9631C27.0709 52.0579 27.044 48.1386 27.0306 44.2334C27.0172 40.2999 27.0038 36.3806 27.0038 32.4472V30.981C27.0038 30.0505 26.225 29.1623 25.312 29.2046C24.3989 29.2469 23.6202 29.98 23.6202 30.981Z" fill="#F35908"/>
<path d="M44.7929 30.9952C44.7929 34.9288 44.7929 38.8484 44.7634 42.782C44.7338 46.7157 44.7191 50.6352 44.6895 54.5548C44.66 58.4743 44.6304 62.408 44.6009 66.3275C44.6009 67.6528 44.6009 68.9782 44.4828 70.2894C44.3646 71.5019 44.2317 72.7003 44.2169 73.9129C44.1873 75.1818 44.2464 76.5494 44.8963 77.6914C45.3394 78.4951 46.137 78.8898 46.9789 79.2141C47.5697 79.4397 48.2048 79.5948 48.8251 79.7358C49.0615 79.7922 49.283 79.8345 49.5193 79.905C50.4499 80.1447 51.5724 79.6089 51.8087 78.6642C52.0303 77.7337 51.5133 76.7468 50.5089 76.4789C49.6375 76.2533 48.7513 76.0982 47.9242 75.7598C48.0719 75.8162 48.2196 75.8726 48.3673 75.9431C48.1605 75.8585 47.9685 75.7598 47.7912 75.6471C47.9094 75.7458 48.0423 75.8303 48.1605 75.929C48.0866 75.8726 48.0128 75.8162 47.9537 75.7457C48.0571 75.8585 48.1457 75.9854 48.2491 76.0982C48.1605 75.9854 48.0866 75.8585 48.0423 75.7316C48.1014 75.8726 48.1605 76.0136 48.2343 76.1546C48.1014 75.8303 48.0276 75.492 47.9685 75.1536C47.9833 75.3087 48.0128 75.4637 48.0423 75.6188C47.7765 73.7014 48.1014 71.7275 48.2787 69.8241C48.382 68.6821 48.3525 67.526 48.3673 66.3698C48.3673 64.7484 48.3968 63.1411 48.3968 61.5197C48.4264 58.2487 48.4411 54.9918 48.4707 51.7208C48.4854 48.4639 48.515 45.2212 48.5297 41.9643C48.5297 38.7074 48.5593 35.4646 48.5593 32.2077V30.9811C48.5593 30.0505 47.7026 29.1623 46.6983 29.2046C45.6939 29.2469 44.8372 29.98 44.8372 30.9811L44.7929 30.9952Z" fill="#F35908"/>
<path d="M73.2881 12.7942C73.2738 12.7942 73.2453 12.7942 73.231 12.7942C73.3879 12.7657 73.5305 12.7372 73.6873 12.7087C73.6303 12.7087 73.5733 12.7372 73.5162 12.7657C73.6588 12.6945 73.8014 12.6232 73.944 12.5519C73.887 12.5804 73.83 12.6232 73.7872 12.6517C73.9013 12.5519 74.0296 12.4379 74.1437 12.3239C74.0724 12.3951 74.0153 12.4664 73.9583 12.5519C74.0439 12.4237 74.1294 12.2954 74.215 12.1671C74.1294 12.3096 74.0581 12.4664 74.0154 12.6232C74.0581 12.4807 74.1152 12.3381 74.158 12.1813C73.9868 12.7372 73.9298 13.3216 73.9013 13.8917C73.9013 13.7349 73.9155 13.5924 73.9298 13.4356C73.83 15.1175 73.9298 16.7994 73.9726 18.467C73.9868 19.3079 74.0011 20.1631 73.9583 21.0041C73.9155 21.8593 73.8727 22.7144 73.6731 23.5411C73.4164 24.5816 72.9315 25.5793 72.4039 26.52C71.7764 27.6318 71.0491 28.715 70.1935 29.67C68.5393 31.5371 66.4857 33.0052 64.1755 33.9032C61.7512 34.8439 59.113 35.0719 56.5461 34.7584C56.2323 34.7156 55.9186 34.6728 55.6049 34.6158C54.6779 34.459 53.9649 33.4613 54.1788 32.5206C54.407 31.5656 55.2911 30.9242 56.2751 31.0953C56.8883 31.2093 57.5158 31.2806 58.1433 31.3233C57.9864 31.3233 57.8438 31.3091 57.6869 31.2948C58.8991 31.3661 60.1255 31.2948 61.3234 31.0525C61.1665 31.081 61.0239 31.1095 60.8671 31.1381C61.9936 30.91 63.0917 30.5252 64.1327 30.012C63.9901 30.0833 63.8475 30.1546 63.7049 30.2258C64.7887 29.6842 65.787 29.0001 66.6854 28.1876C66.5713 28.2874 66.443 28.4014 66.3289 28.5155C67.3271 27.6033 68.197 26.5628 68.9386 25.4225C68.853 25.5508 68.7674 25.6791 68.6819 25.8074C69.0099 25.2943 69.3093 24.7526 69.5946 24.211C69.8227 23.7549 70.0509 23.2846 70.222 22.8C70.1792 22.9425 70.1222 23.085 70.0794 23.2418C70.3076 22.5291 70.3789 21.7737 70.4217 21.0326C70.4217 21.1893 70.4074 21.3319 70.3931 21.4887C70.493 19.707 70.3932 17.9254 70.3646 16.1437C70.3361 14.4476 70.2648 12.6659 70.821 11.0411C71.1632 10.0291 72.0189 9.31647 73.0884 9.17394C74.0154 9.05992 74.9708 9.90084 74.9993 10.8416C75.0279 11.8535 74.3291 12.6375 73.3308 12.7515L73.2881 12.7942Z" fill="#F35908"/>
<path d="M1.39962 11.9825C1.41334 11.9825 1.44079 11.9825 1.45451 11.9825C1.31723 11.9396 1.16623 11.8966 1.02895 11.8537C1.08387 11.868 1.13879 11.8966 1.1937 11.9253C1.05642 11.8393 0.932866 11.7534 0.795587 11.6675C0.850499 11.6962 0.891682 11.7391 0.932866 11.7821C0.823043 11.6675 0.726941 11.553 0.617119 11.4241C0.685758 11.4957 0.726951 11.5816 0.781863 11.6675C0.713224 11.5243 0.644585 11.3955 0.575945 11.2523C0.644585 11.3955 0.699489 11.5673 0.740673 11.7248C0.713217 11.5816 0.67204 11.4241 0.644585 11.2809C0.768135 11.8537 0.768125 12.4407 0.754397 13.0135C0.754397 12.856 0.754397 12.7128 0.754397 12.5553C0.699486 14.2448 0.466109 15.9201 0.287647 17.5953C0.20528 18.4401 0.122913 19.2849 0.08173 20.1297C0.0405465 20.9888 0.0130942 21.8479 0.136645 22.6927C0.287651 23.7666 0.67203 24.7975 1.09759 25.7855C1.60552 26.9596 2.20955 28.1051 2.95085 29.136C4.37855 31.1406 6.21808 32.8015 8.35962 33.904C10.5012 35.0066 13.1095 35.522 15.6079 35.4361C15.9099 35.4361 16.2119 35.4075 16.514 35.3788C17.42 35.2929 18.1887 34.3622 18.0652 33.4172C17.9279 32.4436 17.1454 31.7133 16.1845 31.7992C15.5805 31.8565 14.9764 31.8708 14.3861 31.8565C14.5371 31.8565 14.6744 31.8565 14.8254 31.8565C13.6586 31.8135 12.4917 31.6417 11.366 31.2838C11.5033 31.3267 11.6543 31.3697 11.7916 31.4126C10.7208 31.0833 9.70495 30.6108 8.75773 29.9951C8.89501 30.081 9.01856 30.1669 9.15584 30.2528C8.16744 29.6085 7.27513 28.8353 6.47891 27.9476C6.58874 28.0621 6.68482 28.1767 6.79464 28.3055C5.90233 27.3032 5.16104 26.1864 4.55702 24.9837C4.62566 25.1268 4.6943 25.2557 4.76293 25.3989C4.48838 24.8548 4.24127 24.2964 4.03535 23.7236C3.85689 23.2511 3.67843 22.7643 3.55488 22.2632C3.58233 22.4063 3.62351 22.5638 3.65097 22.707C3.48623 21.9768 3.48623 21.2036 3.51369 20.459C3.51369 20.6165 3.51369 20.7597 3.51369 20.9172C3.5686 19.1274 3.81571 17.3519 4.0079 15.5765C4.18637 13.8726 4.40601 12.0971 4.0079 10.4218C3.7608 9.37658 3.00576 8.58904 1.9899 8.35995C1.11132 8.15949 0.122913 8.91839 0.0130908 9.84909C-0.0967319 10.8657 0.493568 11.6961 1.44079 11.9109L1.39962 11.9825Z" fill="#F35908"/>
<path d="M59.8516 27.1135C63.8838 27.1135 67.1525 24.1561 67.1525 20.508C67.1525 16.8598 63.8838 13.9023 59.8516 13.9023C55.8195 13.9023 52.5508 16.8598 52.5508 20.508C52.5508 24.1561 55.8195 27.1135 59.8516 27.1135Z" fill="#F35908"/>
<path d="M59.8555 25.0314C62.3516 25.0314 64.3751 23.3192 64.3751 21.2071C64.3751 19.095 62.3516 17.3828 59.8555 17.3828C57.3594 17.3828 55.3359 19.095 55.3359 21.2071C55.3359 23.3192 57.3594 25.0314 59.8555 25.0314Z" fill="#FFC805"/>
<path d="M13.9688 27.1135C18.001 27.1135 21.2697 24.1561 21.2697 20.5079C21.2697 16.8598 18.001 13.9023 13.9688 13.9023C9.93667 13.9023 6.66797 16.8598 6.66797 20.5079C6.66797 24.1561 9.93667 27.1135 13.9688 27.1135Z" fill="#F35908"/>
<path d="M13.9649 25.0314C16.461 25.0314 18.4845 23.3192 18.4845 21.2071C18.4845 19.095 16.461 17.3828 13.9649 17.3828C11.4688 17.3828 9.44531 19.095 9.44531 21.2071C9.44531 23.3192 11.4688 25.0314 13.9649 25.0314Z" fill="#FFC805"/>
<path d="M36.5627 45.8916C49.6192 45.8916 60.2035 35.6184 60.2035 22.9458C60.2035 10.2732 49.6192 0 36.5627 0C23.5062 0 12.9219 10.2732 12.9219 22.9458C12.9219 35.6184 23.5062 45.8916 36.5627 45.8916Z" fill="#F35908"/>
<path d="M37.2501 41.7193C44.1623 41.7193 49.7658 36.1157 49.7658 29.2034C49.7658 22.2911 44.1623 16.6875 37.2501 16.6875C30.3379 16.6875 24.7344 22.2911 24.7344 29.2034C24.7344 36.1157 30.3379 41.7193 37.2501 41.7193Z" fill="#FFC805"/>
<path d="M50.0737 13.9023H23.7391C20.8349 13.9023 18.4805 16.3928 18.4805 19.4649C18.4805 22.5371 20.8349 25.0276 23.7391 25.0276H50.0737C52.978 25.0276 55.3324 22.5371 55.3324 19.4649C55.3324 16.3928 52.978 13.9023 50.0737 13.9023Z" fill="#FFC805"/>
<path d="M35.5742 19.7338C35.9727 17.273 34.301 14.9551 31.8403 14.5565C29.3795 14.1579 27.0616 15.8297 26.6631 18.2905C26.2645 20.7512 27.9362 23.0692 30.397 23.4677C32.8577 23.8663 35.1756 22.1946 35.5742 19.7338Z" fill="white"/>
<path d="M31.3421 22.9415C32.3013 22.9415 33.0788 22.1632 33.0788 21.2032C33.0788 20.2431 32.3013 19.4648 31.3421 19.4648C30.383 19.4648 29.6055 20.2431 29.6055 21.2032C29.6055 22.1632 30.383 22.9415 31.3421 22.9415Z" fill="#2D2D2D"/>
<path d="M42.4727 23.6408C44.9688 23.6408 46.9923 21.6173 46.9923 19.1212C46.9923 16.6251 44.9688 14.6016 42.4727 14.6016C39.9766 14.6016 37.9531 16.6251 37.9531 19.1212C37.9531 21.6173 39.9766 23.6408 42.4727 23.6408Z" fill="white"/>
<path d="M43.1641 22.9415C44.1241 22.9415 44.9024 22.1632 44.9024 21.2032C44.9024 20.2431 44.1241 19.4648 43.1641 19.4648C42.204 19.4648 41.4258 20.2431 41.4258 21.2032C41.4258 22.1632 42.204 22.9415 43.1641 22.9415Z" fill="#2D2D2D"/>
<path d="M35.1719 29.8985C34.7882 29.8985 34.4766 29.1259 34.4766 28.1602C34.4766 27.1945 34.7882 26.4219 35.1719 26.4219C35.5555 26.4219 35.8672 27.1945 35.8672 28.1602C35.8672 29.1259 35.5555 29.8985 35.1719 29.8985Z" fill="#F35908"/>
<path d="M37.9531 29.8985C38.3371 29.8985 38.6484 29.1202 38.6484 28.1602C38.6484 27.2001 38.3371 26.4219 37.9531 26.4219C37.5691 26.4219 37.2578 27.2001 37.2578 28.1602C37.2578 29.1202 37.5691 29.8985 37.9531 29.8985Z" fill="#F35908"/>
<path d="M36.79 35.4571C35.2488 35.4571 33.8632 35.2364 32.6755 34.9466C28.9992 34.0358 26.5814 32.2282 26.4824 32.1592C26.0865 31.8556 26.0159 31.3174 26.3269 30.9311C26.638 30.5447 27.1894 30.4757 27.5853 30.7793C27.6277 30.8069 29.8617 32.4628 33.1845 33.2769C37.5959 34.3532 41.7529 33.5115 45.5564 30.7655C45.9523 30.4757 46.5178 30.5585 46.8148 30.9449C47.1117 31.3312 47.0268 31.8832 46.6309 32.173C43.1385 34.6844 39.7168 35.4571 36.79 35.4571Z" fill="#F35908"/>
</svg>
