<svg width="91" height="101" viewBox="0 0 91 101" fill="none" xmlns="http://www.w3.org/2000/svg">
<ellipse cx="44.5" cy="98.5" rx="35.5" ry="2.5" fill="#FF5500" fill-opacity="0.23"/>
<path d="M28.3561 37.1945C28.3561 41.1043 28.3561 44.9972 28.3722 48.9071C28.3722 52.817 28.4044 56.7099 28.4205 60.6198C28.4367 64.5466 28.4689 68.4564 28.5011 72.3832C28.5011 74.3297 28.5334 76.2592 28.5334 78.2057C28.5334 79.8475 28.485 81.5062 28.5817 83.1311C28.7107 85.4161 29.0653 87.6842 28.9525 89.9861C28.9525 90.2569 28.9203 90.5277 28.888 90.7816C28.9041 90.5954 28.9364 90.4092 28.9686 90.223C28.9203 90.6292 28.8397 91.0524 28.6785 91.4248C28.7429 91.2555 28.8074 91.0863 28.888 90.917C28.8235 91.0693 28.7429 91.2216 28.6623 91.357C28.7752 91.2216 28.8719 91.0693 28.9847 90.9339C28.9203 91.0185 28.8397 91.0862 28.7591 91.1539C28.888 91.0355 29.0331 90.9339 29.1621 90.8154C28.9686 90.9678 28.7429 91.0693 28.5334 91.1709C28.6946 91.1032 28.8558 91.0355 29.017 90.9508C28.1143 91.3571 27.1309 91.5433 26.196 91.8141C25.1804 92.1018 24.4389 93.3374 24.7774 94.4376C25.116 95.5377 26.1799 96.2317 27.276 95.927C28.6785 95.5208 30.2421 95.2838 31.4188 94.3191C32.7245 93.2527 32.9663 91.4248 33.0308 89.783C33.0792 88.3104 32.9664 86.8379 32.8374 85.3823C32.789 84.756 32.7246 84.1128 32.6762 83.4865C32.6278 82.7587 32.6278 82.0309 32.6278 81.3201C32.5956 76.6147 32.5634 71.8924 32.5311 67.187C32.4989 62.4986 32.4666 57.7932 32.4505 53.1047C32.4344 48.3824 32.4183 43.677 32.4183 38.9547V37.1945C32.4183 36.0773 31.4833 35.011 30.3872 35.0618C29.291 35.1126 28.3561 35.9927 28.3561 37.1945Z" fill="#F35908"/>
<path d="M53.7759 37.2115C53.7759 41.9341 53.7758 46.6397 53.7404 51.3623C53.7049 56.0849 53.6872 60.7905 53.6517 65.4962C53.6163 70.2018 53.5808 74.9244 53.5453 79.63C53.5453 81.2212 53.5453 82.8123 53.4035 84.3865C53.2616 85.8422 53.102 87.281 53.0843 88.7367C53.0488 90.2601 53.1197 91.902 53.9 93.2731C54.432 94.2379 55.3895 94.7118 56.4003 95.1011C57.1096 95.3719 57.8721 95.5582 58.6168 95.7274C58.9006 95.7951 59.1666 95.8459 59.4503 95.9306C60.5674 96.2183 61.9151 95.5751 62.1988 94.441C62.4648 93.3238 61.8442 92.1389 60.6383 91.8173C59.5921 91.5465 58.5282 91.3603 57.5352 90.9541C57.7125 91.0218 57.8898 91.0895 58.0671 91.1741C57.8189 91.0726 57.5883 90.9541 57.3756 90.8187C57.5174 90.9372 57.677 91.0387 57.8189 91.1572C57.7302 91.0895 57.6416 91.0218 57.5706 90.9372C57.6948 91.0726 57.8012 91.2249 57.9253 91.3603C57.8189 91.2249 57.7302 91.0726 57.677 90.9202C57.748 91.0895 57.8189 91.2587 57.9075 91.428C57.7479 91.0387 57.6593 90.6325 57.5884 90.2262C57.6061 90.4124 57.6416 90.5986 57.677 90.7848C57.3578 88.4827 57.7479 86.113 57.9607 83.8279C58.0849 82.4568 58.0494 81.0688 58.0671 79.6808C58.0671 77.7343 58.1026 75.8046 58.1026 73.858C58.1381 69.931 58.1558 66.0209 58.1913 62.0939C58.209 58.1838 58.2444 54.2906 58.2622 50.3805C58.2622 46.4705 58.2977 42.5773 58.2977 38.6672V37.1946C58.2977 36.0774 57.2692 35.011 56.0634 35.0618C54.8575 35.1126 53.829 35.9928 53.829 37.1946L53.7759 37.2115Z" fill="#F35908"/>
<path d="M87.9879 15.3588C87.9708 15.3588 87.9365 15.3588 87.9194 15.3588C88.1077 15.3246 88.2789 15.2904 88.4672 15.2562C88.3988 15.2562 88.3303 15.2904 88.2618 15.3246C88.433 15.2391 88.6042 15.1535 88.7754 15.068C88.7069 15.1022 88.6385 15.1535 88.5871 15.1877C88.7241 15.0679 88.8782 14.931 89.0151 14.7941C88.9295 14.8797 88.861 14.9653 88.7925 15.068C88.8953 14.9139 88.998 14.7599 89.1007 14.6059C88.998 14.7771 88.9124 14.9653 88.861 15.1535C88.9124 14.9824 88.9809 14.8113 89.0322 14.623C88.8268 15.2904 88.7583 15.992 88.7241 16.6765C88.7241 16.4882 88.7412 16.3171 88.7583 16.1289C88.6385 18.1481 88.7583 20.1672 88.8097 22.1693C88.8268 23.1789 88.8439 24.2056 88.7925 25.2152C88.7412 26.2419 88.6898 27.2686 88.4501 28.2611C88.142 29.5103 87.5598 30.7081 86.9264 31.8375C86.173 33.1722 85.2999 34.4727 84.2726 35.6191C82.2866 37.8608 79.8212 39.6233 77.0476 40.7013C74.1371 41.8307 70.9697 42.1045 67.8879 41.728C67.5113 41.6767 67.1346 41.6254 66.758 41.5569C65.6451 41.3687 64.789 40.1709 65.0459 39.0415C65.3198 37.895 66.3813 37.125 67.5626 37.3303C68.2988 37.4672 69.0521 37.5528 69.8055 37.6041C69.6171 37.6041 69.4459 37.587 69.2576 37.5699C70.7129 37.6554 72.1853 37.5699 73.6234 37.279C73.4351 37.3132 73.2639 37.3474 73.0756 37.3817C74.4281 37.1079 75.7464 36.6459 76.9962 36.0298C76.825 36.1154 76.6538 36.2009 76.4826 36.2865C77.7838 35.6363 78.9823 34.8149 80.0609 33.8395C79.9239 33.9593 79.7698 34.0962 79.6329 34.2331C80.8313 33.1379 81.8757 31.8888 82.766 30.5199C82.6633 30.6739 82.5605 30.8279 82.4578 30.9819C82.8516 30.3658 83.2111 29.7156 83.5536 29.0654C83.8275 28.5178 84.1014 27.9531 84.3069 27.3713C84.2555 27.5424 84.187 27.7135 84.1357 27.9018C84.4096 27.0462 84.4952 26.1392 84.5466 25.2494C84.5466 25.4377 84.5294 25.6088 84.5123 25.797C84.6322 23.658 84.5123 21.5191 84.4781 19.3801C84.4438 17.3438 84.3582 15.2048 85.0259 13.2541C85.4368 12.0392 86.4641 11.1836 87.7482 11.0125C88.861 10.8756 90.0081 11.8852 90.0424 13.0145C90.0766 14.2295 89.2377 15.1706 88.0392 15.3075L87.9879 15.3588Z" fill="#F35908"/>
<path d="M1.68034 14.388C1.69682 14.388 1.72977 14.388 1.74625 14.388C1.58144 14.3364 1.40015 14.2848 1.23533 14.2333C1.30126 14.2505 1.36719 14.2848 1.43312 14.3192C1.26831 14.2161 1.11997 14.1129 0.95516 14.0098C1.02108 14.0442 1.07053 14.0957 1.11997 14.1473C0.988122 14.0098 0.872745 13.8723 0.740895 13.7176C0.823302 13.8035 0.872757 13.9066 0.938682 14.0098C0.856276 13.8379 0.77387 13.6832 0.691464 13.5113C0.77387 13.6832 0.839787 13.8894 0.889231 14.0785C0.856268 13.9066 0.806832 13.7176 0.77387 13.5457C0.922201 14.2333 0.922189 14.9381 0.905708 15.6257C0.905708 15.4366 0.905708 15.2647 0.905708 15.0756C0.839783 17.104 0.559598 19.1152 0.345341 21.1265C0.246454 22.1407 0.147566 23.1549 0.0981227 24.1691C0.0486789 25.2005 0.0157205 26.2319 0.164052 27.2462C0.345345 28.5354 0.80682 29.7731 1.31774 30.9592C1.92755 32.3688 2.65272 33.744 3.54271 34.9817C5.25676 37.3883 7.46525 39.3824 10.0363 40.706C12.6074 42.0296 15.7388 42.6485 18.7384 42.5453C19.101 42.5453 19.4636 42.511 19.8262 42.4766C20.914 42.3734 21.8369 41.2561 21.6886 40.1215C21.5237 38.9526 20.5843 38.0759 19.4306 38.1791C18.7055 38.2478 17.9803 38.265 17.2716 38.2478C17.4529 38.2478 17.6177 38.2478 17.799 38.2478C16.3981 38.1962 14.9972 37.99 13.6457 37.5602C13.8105 37.6118 13.9918 37.6634 14.1566 37.7149C12.8711 37.3196 11.6515 36.7523 10.5143 36.0131C10.6791 36.1162 10.8274 36.2194 10.9922 36.3225C9.80559 35.549 8.73431 34.6207 7.7784 33.5549C7.91025 33.6924 8.02561 33.83 8.15746 33.9847C7.08618 32.7814 6.1962 31.4405 5.47103 29.9966C5.55343 30.1685 5.63584 30.3232 5.71824 30.4951C5.38862 29.8419 5.09195 29.1714 4.84473 28.4838C4.63047 27.9166 4.41622 27.3321 4.26789 26.7305C4.30085 26.9024 4.35028 27.0914 4.38325 27.2633C4.18547 26.3866 4.18547 25.4584 4.21843 24.5645C4.21843 24.7536 4.21843 24.9255 4.21843 25.1146C4.28436 22.9658 4.58104 20.8343 4.81178 18.7027C5.02603 16.6571 5.28973 14.5255 4.81178 12.5143C4.51511 11.2594 3.60863 10.3139 2.38902 10.0389C1.33422 9.79819 0.147566 10.7093 0.0157164 11.8267C-0.116134 13.0471 0.592564 14.0442 1.72977 14.302L1.68034 14.388Z" fill="#F35908"/>
<path d="M71.8595 32.5576C76.7004 32.5576 80.6247 29.007 80.6247 24.6272C80.6247 20.2473 76.7004 16.6968 71.8595 16.6968C67.0187 16.6968 63.0944 20.2473 63.0944 24.6272C63.0944 29.007 67.0187 32.5576 71.8595 32.5576Z" fill="#F35908"/>
<path d="M71.8601 30.0548C74.8569 30.0548 77.2862 27.9992 77.2862 25.4635C77.2862 22.9278 74.8569 20.8722 71.8601 20.8722C68.8634 20.8722 66.4341 22.9278 66.4341 25.4635C66.4341 27.9992 68.8634 30.0548 71.8601 30.0548Z" fill="#FFC805"/>
<path d="M16.7652 32.5576C21.6061 32.5576 25.5304 29.007 25.5304 24.6272C25.5304 20.2473 21.6061 16.6968 16.7652 16.6968C11.9243 16.6968 8 20.2473 8 24.6272C8 29.007 11.9243 32.5576 16.7652 32.5576Z" fill="#F35908"/>
<path d="M16.7659 30.0548C19.7627 30.0548 22.192 27.9992 22.192 25.4635C22.192 22.9278 19.7627 20.8722 16.7659 20.8722C13.7692 20.8722 11.3398 22.9278 11.3398 25.4635C11.3398 27.9992 13.7692 30.0548 16.7659 30.0548Z" fill="#FFC805"/>
<path d="M43.8953 55.0955C59.5705 55.0955 72.2778 42.7619 72.2778 27.5477C72.2778 12.3335 59.5705 0 43.8953 0C28.2201 0 15.5128 12.3335 15.5128 27.5477C15.5128 42.7619 28.2201 55.0955 43.8953 55.0955Z" fill="#F35908"/>
<path d="M44.729 50.0864C53.0277 50.0864 59.7551 43.359 59.7551 35.0603C59.7551 26.7617 53.0277 20.0343 44.729 20.0343C36.4304 20.0343 29.703 26.7617 29.703 35.0603C29.703 43.359 36.4304 50.0864 44.729 50.0864Z" fill="#FFC805"/>
<path d="M60.1201 16.6968H28.5036C25.0168 16.6968 22.1902 19.6867 22.1902 23.375C22.1902 27.0633 25.0168 30.0533 28.5036 30.0533H60.1201C63.6069 30.0533 66.4335 27.0633 66.4335 23.375C66.4335 19.6867 63.6069 16.6968 60.1201 16.6968Z" fill="#FFC805"/>
<path d="M42.705 23.6873C43.1835 20.733 41.1764 17.9501 38.2221 17.4716C35.2678 16.9931 32.485 19.0002 32.0065 21.9545C31.528 24.9088 33.5351 27.6916 36.4894 28.1701C39.4437 28.6486 42.2265 26.6416 42.705 23.6873Z" fill="white"/>
<path d="M37.6338 27.5489C38.7853 27.5489 39.7188 26.6145 39.7188 25.4619C39.7188 24.3094 38.7853 23.375 37.6338 23.375C36.4823 23.375 35.5488 24.3094 35.5488 25.4619C35.5488 26.6145 36.4823 27.5489 37.6338 27.5489Z" fill="#2D2D2D"/>
<path d="M50.9904 28.3822C53.9871 28.3822 56.4165 25.9528 56.4165 22.9561C56.4165 19.9594 53.9871 17.53 50.9904 17.53C47.9937 17.53 45.5643 19.9594 45.5643 22.9561C45.5643 25.9528 47.9937 28.3822 50.9904 28.3822Z" fill="white"/>
<path d="M51.8266 27.5504C52.9792 27.5504 53.9135 26.616 53.9135 25.4634C53.9135 24.3108 52.9792 23.3765 51.8266 23.3765C50.674 23.3765 49.7396 24.3108 49.7396 25.4634C49.7396 26.616 50.674 27.5504 51.8266 27.5504Z" fill="#2D2D2D"/>
<path d="M42.226 35.8964C41.7654 35.8964 41.3912 34.9689 41.3912 33.8095C41.3912 32.6501 41.7654 31.7225 42.226 31.7225C42.6866 31.7225 43.0608 32.6501 43.0608 33.8095C43.0608 34.9689 42.6866 35.8964 42.226 35.8964Z" fill="#F35908"/>
<path d="M45.5659 35.8964C46.0269 35.8964 46.4006 34.9621 46.4006 33.8095C46.4006 32.6569 46.0269 31.7225 45.5659 31.7225C45.1048 31.7225 44.7311 32.6569 44.7311 33.8095C44.7311 34.9621 45.1048 35.8964 45.5659 35.8964Z" fill="#F35908"/>
<path d="M44.1689 42.5745C42.3186 42.5745 40.655 42.3095 39.2291 41.9616C34.8155 40.8682 31.9127 38.698 31.7939 38.6151C31.3186 38.2507 31.2337 37.6046 31.6072 37.1407C31.9806 36.6769 32.6427 36.594 33.118 36.9585C33.1689 36.9916 35.851 38.9796 39.8402 39.957C45.1365 41.2492 50.1272 40.2387 54.6935 36.9419C55.1688 36.594 55.8478 36.6934 56.2043 37.1573C56.5608 37.6212 56.4589 38.2838 55.9836 38.6317C51.7907 41.6468 47.6827 42.5745 44.1689 42.5745Z" fill="#F35908"/>
</svg>
