<?xml version="1.0" encoding="utf-8"?>
<svg width="80vw" height="300" viewBox="-18.915 -6.637 770 300" fill="none" xmlns="http://www.w3.org/2000/svg">
  <g style="" transform="matrix(1.129065, 0, 0, 1.290864, -26.547329, 0)">
    <path d="M60.5635 65.54C85.063 79.872 37.0212 65.54 60.5635 65.54Z" stroke="#81C127" stroke-width="2.5" stroke-linecap="round" stroke-linejoin="round"/>
    <g>
      <path d="M60.5635 65.54C91.0635 65.54 176.563 49.3773 191.063 48.3336" stroke="#81C127" stroke-width="2.5" stroke-linecap="round" stroke-linejoin="round"/>
      <path d="M191.063 48.3336C205.563 47.2899 280.063 85.3533 303.063 85.3533" stroke="#81C127" stroke-width="2.5" stroke-linecap="round" stroke-linejoin="round"/>
      <path d="M303.063 85.3533C326.063 85.3533 389.854 51.4639 411.563 51.4639" stroke="#81C127" stroke-width="2.5" stroke-linecap="round" stroke-linejoin="round"/>
      <path d="M411.563 51.4639C432.063 51.4639 502.063 83.7873 527.063 83.7873" stroke="#81C127" stroke-width="2.5" stroke-linecap="round" stroke-linejoin="round"/>
      <path d="M527.063 83.7873C552.063 83.7873 614.563 45.2064 632.063 48.8559" stroke="#81C127" stroke-width="2.5" stroke-linecap="round" stroke-linejoin="round"/>
    </g>
    <g>
      <path d="M118.851 49.1516L118.439 53.7276C119.322 53.389 123.477 48.6414 125.562 47.4704C132.062 43.8217 126.511 44.6817 125.562 44.343C125.466 44.3085 125.302 44.2549 125.088 44.1889C121.423 43.0565 119.196 45.3309 118.851 49.1516Z" fill="#81C127"/>
      <path d="M118.062 57.8977L118.851 49.1516C119.196 45.3309 121.423 43.0565 125.088 44.1889C125.302 44.2549 125.466 44.3085 125.562 44.343C126.511 44.6817 132.062 43.8217 125.562 47.4704C123.477 48.6414 119.322 53.389 118.439 53.7276" stroke="#81C127" stroke-width="2" stroke-linecap="round" stroke-linejoin="round"/>
      <path d="M343.851 64.7922L343.439 69.3682C344.322 69.0297 348.477 64.282 350.562 63.111C357.062 59.4623 351.511 60.3223 350.562 59.9837C350.466 59.9492 350.302 59.8955 350.088 59.8295C346.423 58.6971 344.196 60.9716 343.851 64.7922Z" fill="#81C127"/>
      <path d="M343.062 73.5383L343.851 64.7922C344.196 60.9716 346.423 58.6971 350.088 59.8295C350.302 59.8955 350.466 59.9492 350.562 59.9837C351.511 60.3223 357.062 59.4623 350.562 63.111C348.477 64.282 344.322 69.0297 343.439 69.3682" stroke="#81C127" stroke-width="2" stroke-linecap="round" stroke-linejoin="round"/>
      <path d="M465.989 57.7728L462.975 60.7582C463.854 61.1083 469.978 60.3788 472.289 60.9263C479.487 62.6323 474.762 59.4753 474.26 58.5696C474.214 58.4855 474.135 58.351 474.031 58.1793C471.97 54.7762 468.773 55.0153 465.989 57.7728Z" fill="#81C127"/>
      <path d="M460.063 63.6429L465.989 57.7728C468.773 55.0153 471.97 54.7762 474.031 58.1793C474.135 58.351 474.214 58.4855 474.26 58.5696C474.762 59.4753 479.487 62.6323 472.289 60.9263C469.978 60.3788 463.854 61.1083 462.975 60.7582" stroke="#81C127" stroke-width="2" stroke-linecap="round" stroke-linejoin="round"/>
      <path d="M592.714 69.4728L591.984 64.9802C591.215 65.5453 588.378 71.2515 586.653 72.9448C581.279 78.2214 586.428 75.8945 587.429 75.9659C587.529 75.9731 587.698 75.9806 587.917 75.9868C591.744 76.0943 593.332 73.2814 592.714 69.4728Z" fill="#81C127"/>
      <path d="M591.314 60.8505L592.714 69.4728C593.332 73.2814 591.744 76.0943 587.917 75.9868C587.698 75.9806 587.529 75.9731 587.429 75.9659C586.428 75.8945 581.279 78.2214 586.653 72.9448C588.378 71.2515 591.215 65.5453 591.984 64.9802" stroke="#81C127" stroke-width="2" stroke-linecap="round" stroke-linejoin="round"/>
      <path d="M255.782 77.8809L253.837 73.9528C253.269 74.735 252.231 81.0705 251.082 83.2307C247.501 89.9618 251.727 86.1122 252.701 85.8628C252.795 85.8389 252.947 85.7957 253.143 85.7367C256.84 84.6244 257.52 81.3895 255.782 77.8809Z" fill="#81C127"/>
      <path d="M251.994 70.2313L255.782 77.8809C257.52 81.3895 256.84 84.6244 253.143 85.7367C252.947 85.7957 252.795 85.8389 252.701 85.8628C251.727 86.1122 247.501 89.9618 251.082 83.2307C252.231 81.0705 253.269 74.735 253.837 73.9528" stroke="#81C127" stroke-width="2" stroke-linecap="round" stroke-linejoin="round"/>
      <path d="M146.929 62.0186L144.561 60.2984C144.502 61.2775 145.011 65.4136 146.063 67.6273C147.377 70.3943 150.061 73.3613 150.061 75.4475C150.061 75.9038 150.472 72.9923 150.784 70.1245C151.147 66.7842 149.641 63.9881 146.929 62.0186Z" fill="#81C127"/>
      <path d="M139.579 56.6794L146.929 62.0186C149.641 63.9881 151.147 66.7842 150.784 70.1245C150.472 72.9923 150.061 75.9038 150.061 75.4475C150.061 73.3613 147.377 70.3943 146.063 67.6273C145.011 65.4136 144.502 61.2775 144.561 60.2984" stroke="#81C127" stroke-width="2" stroke-linecap="round" stroke-linejoin="round"/>
      <path d="M366.367 73.4873L363.999 71.7671C363.939 72.7462 364.449 76.8824 365.5 79.096C366.814 81.8631 369.499 84.8301 369.499 86.9163C369.499 87.3725 369.909 84.461 370.221 81.5932C370.584 78.2529 369.078 75.4569 366.367 73.4873Z" fill="#81C127"/>
      <path d="M359.016 68.1482L366.367 73.4873C369.078 75.4569 370.584 78.2529 370.221 81.5932C369.909 84.461 369.499 87.3725 369.499 86.9163C369.499 84.8301 366.814 81.8631 365.5 79.096C364.449 76.8824 363.939 72.7462 363.999 71.7671" stroke="#81C127" stroke-width="2" stroke-linecap="round" stroke-linejoin="round"/>
      <path d="M477.751 81.1206L479.527 78.3493C478.587 78.3066 474.631 78.9177 472.529 80.0568C469.901 81.4805 467.109 84.3368 465.108 84.3771C464.667 84.386 467.522 84.7646 470.301 85.0344C473.473 85.3424 476.027 83.8121 477.751 81.1206Z" fill="#81C127"/>
      <path d="M482.901 73.0849L477.751 81.1206C476.027 83.8121 473.473 85.3424 470.301 85.0344C467.522 84.7646 464.667 84.386 465.108 84.3771C467.109 84.3368 469.901 81.4805 472.529 80.0568C474.631 78.9177 478.587 78.3066 479.527 78.3493" stroke="#81C127" stroke-width="2" stroke-linecap="round" stroke-linejoin="round"/>
      <path d="M242.611 55.4223L240.705 58.074C241.641 58.1699 245.623 57.7837 247.781 56.7654C250.479 55.4925 253.417 52.7987 255.416 52.8717C255.857 52.8878 253.03 52.3487 250.27 51.9219C247.117 51.4344 244.481 52.8228 242.611 55.4223Z" fill="#81C127"/>
      <path d="M237.062 63.1396L242.611 55.4223C244.481 52.8228 247.117 51.4344 250.27 51.9219C253.03 52.3487 255.857 52.8878 255.416 52.8717C253.417 52.7987 250.479 55.4925 247.781 56.7654C245.623 57.7837 241.641 58.1699 240.705 58.074" stroke="#81C127" stroke-width="2" stroke-linecap="round" stroke-linejoin="round"/>
      <path d="M587.064 48.8591C591.951 39.9427 582.065 48.3361 576.065 47.2934C572.932 46.749 571.901 53.132 571.748 59.8062C573.187 57.547 576.354 56.5637 577.564 53.0285C580.064 45.7294 585.064 52.5084 587.064 48.8591Z" fill="#81C127"/>
      <path d="M572.065 69.7121C571.833 66.9951 571.666 63.3594 571.748 59.8062M571.748 59.8062C571.901 53.132 572.932 46.749 576.065 47.2934C582.065 48.3361 591.951 39.9427 587.064 48.8591C585.064 52.5084 580.064 45.7294 577.564 53.0285C576.354 56.5637 573.187 57.547 571.748 59.8062Z" stroke="#81C127" stroke-width="2" stroke-linecap="round" stroke-linejoin="round"/>
    </g>
  </g>
  <g style="" transform="matrix(1.129065, 0, 0, 1.290864, -26.547329, 0)">
    <ellipse cx="81.063" cy="108.295" rx="4" ry="3.645" fill="#02C1C1" style=""/>
    <ellipse cx="105.062" cy="21.75" rx="4" ry="3.647" fill="#02C1C1" style=""/>
    <ellipse cx="349.062" cy="78.945" rx="2" ry="1.715" fill="#F55376" style=""/>
    <ellipse cx="375.062" cy="87.9568" rx="1" ry="1.04273" fill="#81C127"/>
    <ellipse cx="511.562" cy="120.709" rx="5.5" ry="4.788" fill="#02C1C1" style=""/>
    <ellipse cx="662.562" cy="45.58" rx="5.5" ry="4.839" fill="#81C127" style=""/>
    <ellipse cx="665.062" cy="82.181" rx="3" ry="2.65" fill="#81C127" style=""/>
    <ellipse cx="658.062" cy="75.578" rx="1" ry="0.909" fill="#02C1C1" style=""/>
    <ellipse cx="594.062" cy="53.5505" rx="1" ry="1.04273" fill="#F55376"/>
    <ellipse cx="359.062" cy="62.9334" rx="1" ry="1.04273" fill="#02C1C1"/>
    <ellipse cx="254.062" cy="59.8044" rx="1" ry="1.04273" fill="#F55376"/>
    <ellipse cx="133.062" cy="49.3787" rx="1" ry="1.04273" fill="#F55376"/>
    <ellipse cx="100.062" cy="11.8396" rx="1" ry="1.04273" fill="#F55376"/>
    <circle cx="60.6048" cy="2.04228" r="2.04228" fill="#02C1C1" style="" transform="matrix(1, 0, 0, 0.865015, 0, 0.551355)"/>
    <circle cx="3.06342" cy="37.9072" r="3.06342" fill="#02C1C1" style="" transform="matrix(1, 0, 0, 0.914179, 0, 3.516147)"/>
    <ellipse cx="570.062" cy="91.53" rx="3" ry="2.683" fill="#81C127" style=""/>
    <ellipse cx="367.062" cy="94.701" rx="3" ry="2.641" fill="#02C1C1" style=""/>
    <ellipse cx="136.062" cy="64.37" rx="3" ry="2.734" fill="#02C1C1" style=""/>
    <ellipse cx="243.062" cy="76.086" rx="3" ry="2.487" fill="#02C1C1" style=""/>
    <ellipse cx="456.062" cy="87.361" rx="3" ry="2.684" fill="#F55376" style=""/>
    <ellipse cx="576.062" cy="76.869" rx="3" ry="2.747" fill="#02C1C1" style=""/>
    <ellipse cx="674.062" cy="57.093" rx="3" ry="2.71" fill="#F55376" style=""/>
  </g>
</svg>