<svg width="800" height="360" viewBox="0 0 800 360" fill="none" xmlns="http://www.w3.org/2000/svg">
<g clip-path="url(#clip0_1558_72500)">
<rect width="800" height="360" fill="#DFF2F2"/>
<path d="M358.382 103.107C365.042 103.311 370.745 107.255 373.72 112.96C375.424 112.215 377.302 111.829 379.266 111.889C386.648 112.115 392.441 118.568 392.205 126.302C391.969 134.037 385.792 140.124 378.409 139.899C375.086 139.797 372.085 138.434 369.811 136.26C366.469 139.369 362.036 141.204 357.222 141.056C352.396 140.909 348.07 138.797 344.922 135.473C342.375 138.57 338.567 140.484 334.368 140.356C326.985 140.13 321.192 133.677 321.428 125.942C321.665 118.207 327.841 112.12 335.224 112.345C337.458 112.414 339.547 113.053 341.367 114.125C344.338 107.432 350.903 102.879 358.382 103.107Z" fill="#C9F1D7"/>
<path d="M438.024 243C442.073 243 445.609 245.29 447.522 248.7C448.544 248.216 449.678 247.944 450.872 247.944C455.361 247.944 459 251.757 459 256.46C459 261.163 455.361 264.974 450.872 264.975C448.851 264.975 447.004 264.201 445.582 262.922C443.61 264.874 440.952 266.073 438.024 266.073C435.089 266.073 432.424 264.868 430.45 262.906C428.96 264.837 426.682 266.072 424.128 266.072C419.639 266.072 416 262.259 416 257.557C416 252.854 419.639 249.042 424.128 249.042C425.487 249.042 426.767 249.392 427.893 250.01C429.572 245.888 433.476 243 438.024 243Z" fill="#C9F1D7"/>
<path d="M576.772 239C581.511 239 585.651 241.68 587.89 245.671C589.084 245.104 590.41 244.787 591.807 244.787C597.06 244.787 601.318 249.248 601.318 254.751C601.318 260.254 597.06 264.716 591.807 264.716C589.443 264.716 587.283 263.81 585.619 262.314C583.311 264.599 580.198 266 576.772 266C573.338 266 570.217 264.592 567.907 262.298C566.164 264.555 563.499 266 560.512 266C555.259 266 551 261.539 551 256.036C551 250.533 555.259 246.071 560.512 246.071C562.101 246.071 563.598 246.482 564.915 247.204C566.881 242.381 571.45 239 576.772 239Z" fill="#C9F1D7"/>
<path d="M746.091 121C749.6 121 752.666 122.985 754.324 125.94C755.209 125.52 756.192 125.285 757.227 125.285C761.118 125.285 764.272 128.59 764.272 132.666C764.272 136.742 761.118 140.047 757.227 140.047C755.475 140.047 753.875 139.376 752.643 138.269C750.933 139.961 748.628 141 746.091 141C743.546 141 741.236 139.955 739.525 138.255C738.234 139.928 736.26 140.999 734.046 140.999C730.155 140.999 727 137.695 727 133.618C727 129.542 730.155 126.237 734.046 126.237C735.224 126.237 736.333 126.542 737.309 127.077C738.765 123.504 742.148 121 746.091 121Z" fill="#C9F1D7"/>
<path d="M629.091 25C632.6 25 635.666 26.9848 637.324 29.9404C638.209 29.5205 639.192 29.2852 640.227 29.2852C644.118 29.2852 647.272 32.5897 647.272 36.666C647.272 40.7424 644.118 44.0469 640.227 44.0469C638.475 44.0468 636.875 43.3763 635.643 42.2686C633.933 43.9606 631.628 45 629.091 45C626.546 44.9999 624.236 43.955 622.525 42.2549C621.234 43.9281 619.26 44.9989 617.046 44.999C613.155 44.999 610 41.6945 610 37.6182C610 33.5418 613.155 30.2373 617.046 30.2373C618.224 30.2374 619.333 30.5418 620.309 31.0771C621.765 27.5044 625.148 25.0001 629.091 25Z" fill="#C9F1D7"/>
<path d="M502.728 98C507.641 98 511.934 100.779 514.256 104.917C515.495 104.329 516.87 104 518.318 104C523.766 104 528.182 108.627 528.182 114.334C528.181 120.041 523.766 124.667 518.318 124.667C515.867 124.667 513.627 123.728 511.901 122.178C509.508 124.546 506.28 126 502.728 126C499.165 126 495.929 124.539 493.533 122.158C491.725 124.499 488.963 125.998 485.864 125.998C480.417 125.998 476 121.372 476 115.665C476 109.958 480.417 105.332 485.864 105.332C487.513 105.332 489.066 105.758 490.432 106.507C492.47 101.505 497.208 98.0002 502.728 98Z" fill="#C9F1D7"/>
<path d="M727.464 195C734.901 195 741.4 199.205 744.915 205.469C746.791 204.579 748.873 204.084 751.066 204.084C759.314 204.084 766 211.089 766 219.729C766 228.368 759.314 235.372 751.066 235.372C747.356 235.372 743.962 233.954 741.351 231.607C737.727 235.192 732.841 237.391 727.464 237.391C722.072 237.391 717.172 235.18 713.546 231.577C710.808 235.121 706.623 237.388 701.933 237.388C693.686 237.388 687 230.384 687 221.744C687 213.104 693.686 206.1 701.933 206.1C704.429 206.1 706.782 206.743 708.85 207.877C711.936 200.306 719.109 195 727.464 195Z" fill="#C9F1D7"/>
<path d="M655.228 240C658.21 240 660.815 241.688 662.225 244.2C662.977 243.843 663.812 243.643 664.692 243.643C668 243.643 670.682 246.452 670.682 249.917C670.682 253.382 668 256.19 664.692 256.19C663.204 256.19 661.843 255.62 660.796 254.678C659.343 256.116 657.384 257 655.228 257C653.064 257 651.1 256.112 649.646 254.666C648.548 256.088 646.87 256.999 644.988 256.999C641.681 256.999 639 254.19 639 250.726C639 247.261 641.681 244.451 644.988 244.451C645.989 244.451 646.932 244.71 647.762 245.165C648.999 242.128 651.876 240 655.228 240Z" fill="#C9F1D7"/>
<path d="M166.228 43C169.21 43.0001 171.815 44.6878 173.225 47.2002C173.977 46.843 174.812 46.6426 175.692 46.6426C179 46.6426 181.682 49.4521 181.682 52.917C181.682 56.3818 179 59.1904 175.692 59.1904C174.204 59.1903 172.843 58.6196 171.796 57.6777C170.343 59.116 168.384 59.9999 166.228 60C164.064 60 162.1 59.1116 160.646 57.666C159.548 59.0881 157.87 59.999 155.988 59.999C152.681 59.9989 150 57.1902 150 53.7256C150 50.2608 152.681 47.4513 155.988 47.4512C156.989 47.4512 157.932 47.7101 158.762 48.165C159.999 45.1283 162.876 43 166.228 43Z" fill="#C9F1D7"/>
<path d="M79.7803 208C85.8069 208 91.0723 211.409 93.9199 216.485C95.4396 215.765 97.1257 215.36 98.9023 215.36C105.583 215.361 111 221.035 111 228.034C111 235.033 105.583 240.708 98.9023 240.708C95.8962 240.708 93.1481 239.556 91.0322 237.655C88.0965 240.56 84.1372 242.342 79.7803 242.342C75.4119 242.342 71.4429 240.551 68.5049 237.633C66.2871 240.504 62.8979 242.341 59.0977 242.341C52.4164 242.341 47 236.666 47 229.667C47.0004 222.668 52.4166 216.994 59.0977 216.994C61.1194 216.994 63.0242 217.516 64.6992 218.435C67.1993 212.3 73.0107 208 79.7803 208Z" fill="#C9F1D7"/>
<path d="M268.909 219C273.121 219 276.798 221.383 278.788 224.93C279.851 224.425 281.03 224.144 282.272 224.144C286.942 224.144 290.726 228.109 290.727 233C290.727 237.892 286.942 241.857 282.272 241.857C280.171 241.857 278.249 241.052 276.771 239.723C274.719 241.753 271.954 243 268.909 243C265.856 243 263.084 241.746 261.03 239.706C259.48 241.714 257.111 242.998 254.454 242.998C249.785 242.998 246 239.033 246 234.142C246 229.25 249.785 225.284 254.454 225.284C255.868 225.284 257.199 225.65 258.37 226.292C260.117 222.005 264.178 219 268.909 219Z" fill="#C9F1D7"/>
<path d="M138.318 98C140.95 98 143.249 99.4891 144.493 101.706C145.157 101.391 145.895 101.216 146.671 101.216C149.589 101.216 151.954 103.694 151.954 106.751C151.954 109.808 149.589 112.287 146.671 112.287C145.357 112.287 144.156 111.783 143.231 110.952C141.949 112.221 140.221 113 138.318 113C136.41 113 134.677 112.216 133.394 110.94C132.425 112.196 130.945 113 129.284 113C126.366 113 124 110.521 124 107.464C124 104.407 126.366 101.929 129.284 101.929C130.167 101.929 131 102.156 131.731 102.558C132.823 99.8781 135.361 98 138.318 98Z" fill="#C9F1D7"/>
<path d="M33.3184 44C35.9505 44 38.2493 45.4891 39.4932 47.7061C40.1571 47.391 40.8946 47.2158 41.6709 47.2158C44.589 47.216 46.9541 49.6939 46.9541 52.751C46.9541 55.8081 44.589 58.2869 41.6709 58.2871C40.3571 58.2871 39.1558 57.7834 38.2314 56.9521C36.9492 58.2208 35.2212 59 33.3184 59C31.4097 59 29.6769 58.2159 28.3936 56.9404C27.4249 58.1956 25.9449 59 24.2842 59C21.3659 59 19 56.5211 19 53.4639C19 50.4066 21.3659 47.9287 24.2842 47.9287C25.1675 47.9287 25.9997 48.1562 26.7314 48.5576C27.8234 45.8781 30.3615 44 33.3184 44Z" fill="#C9F1D7"/>
<path d="M79.3184 11C81.9505 11 84.2493 12.4891 85.4932 14.7061C86.1571 14.391 86.8946 14.2158 87.6709 14.2158C90.589 14.216 92.9541 16.6939 92.9541 19.751C92.9541 22.8081 90.589 25.2869 87.6709 25.2871C86.3571 25.2871 85.1558 24.7834 84.2314 23.9521C82.9492 25.2208 81.2212 26 79.3184 26C77.4097 26 75.6769 25.2159 74.3936 23.9404C73.4249 25.1956 71.9449 26 70.2842 26C67.3659 26 65 23.5211 65 20.4639C65 17.4066 67.3659 14.9287 70.2842 14.9287C71.1675 14.9287 71.9997 15.1562 72.7314 15.5576C73.8234 12.8781 76.3615 11 79.3184 11Z" fill="#C9F1D7"/>
<path d="M326.318 6C328.95 6 331.249 7.48906 332.493 9.70605C333.157 9.39105 333.895 9.21582 334.671 9.21582C337.589 9.21603 339.954 11.6939 339.954 14.751C339.954 17.8081 337.589 20.2869 334.671 20.2871C333.357 20.2871 332.156 19.7834 331.231 18.9521C329.949 20.2208 328.221 21 326.318 21C324.41 21 322.677 20.2159 321.394 18.9404C320.425 20.1956 318.945 21 317.284 21C314.366 21 312 18.5211 312 15.4639C312 12.4066 314.366 9.92871 317.284 9.92871C318.167 9.92873 319 10.1562 319.731 10.5576C320.823 7.87807 323.361 6.00004 326.318 6Z" fill="#C9F1D7"/>
<path d="M223.318 72C225.95 72 228.249 73.4891 229.493 75.7061C230.157 75.391 230.895 75.2158 231.671 75.2158C234.589 75.216 236.954 77.6939 236.954 80.751C236.954 83.8081 234.589 86.2869 231.671 86.2871C230.357 86.2871 229.156 85.7834 228.231 84.9521C226.949 86.2208 225.221 87 223.318 87C221.41 87 219.677 86.2159 218.394 84.9404C217.425 86.1956 215.945 87 214.284 87C211.366 87 209 84.5211 209 81.4639C209 78.4066 211.366 75.9287 214.284 75.9287C215.167 75.9287 216 76.1562 216.731 76.5576C217.823 73.8781 220.361 72 223.318 72Z" fill="#C9F1D7"/>
<path d="M568.318 7C570.95 7 573.249 8.48906 574.493 10.7061C575.157 10.391 575.895 10.2158 576.671 10.2158C579.589 10.216 581.954 12.6939 581.954 15.751C581.954 18.8081 579.589 21.2869 576.671 21.2871C575.357 21.2871 574.156 20.7834 573.231 19.9521C571.949 21.2208 570.221 22 568.318 22C566.41 22 564.677 21.2159 563.394 19.9404C562.425 21.1956 560.945 22 559.284 22C556.366 22 554 19.5211 554 16.4639C554 13.4066 556.366 10.9287 559.284 10.9287C560.167 10.9287 561 11.1562 561.731 11.5576C562.823 8.87807 565.361 7.00004 568.318 7Z" fill="#C9F1D7"/>
<path d="M591.318 93C593.95 93 596.249 94.4891 597.493 96.7061C598.157 96.391 598.895 96.2158 599.671 96.2158C602.589 96.216 604.954 98.6939 604.954 101.751C604.954 104.808 602.589 107.287 599.671 107.287C598.357 107.287 597.156 106.783 596.231 105.952C594.949 107.221 593.221 108 591.318 108C589.41 108 587.677 107.216 586.394 105.94C585.425 107.196 583.945 108 582.284 108C579.366 108 577 105.521 577 102.464C577 99.4066 579.366 96.9287 582.284 96.9287C583.167 96.9287 584 97.1562 584.731 97.5576C585.823 94.8781 588.361 93 591.318 93Z" fill="#C9F1D7"/>
<path d="M691.318 86C693.95 86 696.249 87.4891 697.493 89.7061C698.157 89.391 698.895 89.2158 699.671 89.2158C702.589 89.216 704.954 91.6939 704.954 94.751C704.954 97.8081 702.589 100.287 699.671 100.287C698.357 100.287 697.156 99.7834 696.231 98.9521C694.949 100.221 693.221 101 691.318 101C689.41 101 687.677 100.216 686.394 98.9404C685.425 100.196 683.945 101 682.284 101C679.366 101 677 98.5211 677 95.4639C677 92.4066 679.366 89.9287 682.284 89.9287C683.167 89.9287 684 90.1562 684.731 90.5576C685.823 87.8781 688.361 86 691.318 86Z" fill="#C9F1D7"/>
<path d="M217.318 14C219.95 14 222.249 15.4891 223.493 17.7061C224.157 17.391 224.895 17.2158 225.671 17.2158C228.589 17.216 230.954 19.6939 230.954 22.751C230.954 25.8081 228.589 28.2869 225.671 28.2871C224.357 28.2871 223.156 27.7834 222.231 26.9521C220.949 28.2208 219.221 29 217.318 29C215.41 29 213.677 28.2159 212.394 26.9404C211.425 28.1956 209.945 29 208.284 29C205.366 29 203 26.5211 203 23.4639C203 20.4066 205.366 17.9287 208.284 17.9287C209.167 17.9287 210 18.1562 210.731 18.5576C211.823 15.8781 214.361 14 217.318 14Z" fill="#C9F1D7"/>
<path d="M481.318 5C483.95 5 486.249 6.48906 487.493 8.70605C488.157 8.39105 488.895 8.21582 489.671 8.21582C492.589 8.21603 494.954 10.6939 494.954 13.751C494.954 16.8081 492.589 19.2869 489.671 19.2871C488.357 19.2871 487.156 18.7834 486.231 17.9521C484.949 19.2208 483.221 20 481.318 20C479.41 20 477.677 19.2159 476.394 17.9404C475.425 19.1956 473.945 20 472.284 20C469.366 20 467 17.5211 467 14.4639C467 11.4066 469.366 8.92871 472.284 8.92871C473.167 8.92873 474 9.15617 474.731 9.55762C475.823 6.87807 478.361 5.00004 481.318 5Z" fill="#C9F1D7"/>
<path d="M701.318 12C703.95 12 706.249 13.4891 707.493 15.7061C708.157 15.391 708.895 15.2158 709.671 15.2158C712.589 15.216 714.954 17.6939 714.954 20.751C714.954 23.8081 712.589 26.2869 709.671 26.2871C708.357 26.2871 707.156 25.7834 706.231 24.9521C704.949 26.2208 703.221 27 701.318 27C699.41 27 697.677 26.2159 696.394 24.9404C695.425 26.1956 693.945 27 692.284 27C689.366 27 687 24.5211 687 21.4639C687 18.4066 689.366 15.9287 692.284 15.9287C693.167 15.9287 694 16.1562 694.731 16.5576C695.823 13.8781 698.361 12 701.318 12Z" fill="#C9F1D7"/>
<path d="M209.545 132.588C214.977 132.281 219.895 135.086 222.72 139.517C224.053 138.79 225.551 138.34 227.153 138.25C233.174 137.91 238.343 142.748 238.7 149.056C239.055 155.365 234.463 160.754 228.441 161.094C225.732 161.247 223.197 160.349 221.193 158.742C218.695 161.51 215.218 163.317 211.291 163.538C207.353 163.761 203.685 162.347 200.888 159.866C199.035 162.567 196.074 164.396 192.649 164.589C186.628 164.929 181.458 160.09 181.102 153.782C180.746 147.474 185.339 142.085 191.36 141.745C193.183 141.642 194.927 142.015 196.484 142.758C198.425 137.102 203.444 132.932 209.545 132.588Z" fill="#C9F1D7"/>
<path d="M52.0459 122C59.5897 122 66.1819 126.265 69.748 132.618C71.6506 131.716 73.7632 131.215 75.9873 131.215C84.3531 131.215 91.1357 138.32 91.1357 147.084C91.1356 155.848 84.353 162.952 75.9873 162.952C72.2234 162.952 68.781 161.513 66.1318 159.133C62.4562 162.769 57.5003 165 52.0459 165C46.576 165 41.6065 162.757 37.9277 159.103C35.1507 162.698 30.9059 164.997 26.1475 164.997C17.7817 164.997 11 157.892 11 149.128C11.0001 140.364 17.7818 133.26 26.1475 133.26C28.6795 133.26 31.0663 133.911 33.1641 135.062C36.2952 127.382 43.5708 122 52.0459 122Z" fill="#C9F1D7"/>
<path d="M802 360.499C802 352.543 807.626 344.912 802 339.286C796.374 333.66 779.956 318 772 318C764.044 318 747 328.5 750.787 339.286C745.161 344.912 742 352.543 742 360.499L772 360.499H802Z" fill="#D1EDAB"/>
<path d="M592.5 360.499C592.5 352.543 582 346 578 339.286C574 332.572 558.956 297 551 297C543.044 297 532.242 327.453 526.787 339.286C523 347.5 518 352.543 518 360.499L548 360.499H592.5Z" fill="#D1EDAB"/>
<path d="M91.5 360.499C91.5 352.543 81 346 77 339.286C73 332.572 57.9565 297 50 297C42.0435 297 31.2417 327.453 25.7868 339.286C22 347.5 17 352.543 17 360.499L47 360.499H91.5Z" fill="#D1EDAB"/>
<path d="M268 362C268 355.735 259.685 350.583 256.517 345.296C253.349 340.01 241.435 312 235.134 312C228.833 312 220.279 335.979 215.959 345.296C212.96 351.764 209 355.735 209 362L232.758 362H268Z" fill="#D1EDAB"/>
<path d="M490 371C490 364.735 493.168 359.583 490 354.296C486.832 349.01 463.435 321 457.134 321C450.833 321 429.321 344.979 425.001 354.296C422.002 360.764 431 364.735 431 371L454.758 371H490Z" fill="#D1EDAB"/>
<path d="M165 371C165 366.74 159.362 363.237 157.215 359.642C155.067 356.047 146.99 337 142.718 337C138.446 337 132.647 353.306 129.718 359.642C127.685 364.04 125 366.74 125 371H141.107H165Z" fill="#D1EDAB"/>
<path d="M650 371C650 366.74 644.362 363.237 642.215 359.642C640.067 356.047 631.99 337 627.718 337C623.446 337 617.647 353.306 614.718 359.642C612.685 364.04 610 366.74 610 371H626.107H650Z" fill="#D1EDAB"/>
<path d="M725 363C725 358.74 719.362 355.237 717.215 351.642C715.067 348.047 706.99 329 702.718 329C698.446 329 692.647 345.306 689.718 351.642C687.685 356.04 685 358.74 685 363H701.107H725Z" fill="#D1EDAB"/>
<path d="M411 363C411 360.87 394.087 359.118 387.644 357.321C381.201 355.523 356.97 346 344.154 346C331.339 346 313.94 354.153 305.153 357.321C299.054 359.52 291 360.87 291 363H339.322H411Z" fill="#D1EDAB"/>
<line x1="94.3704" y1="327.741" x2="94.3704" y2="363" stroke="#FFE655" stroke-width="2"/>
<path d="M94 295C96.7818 295 99.037 298.524 99.0371 302.87C99.0371 302.979 99.0341 303.088 99.0312 303.196C102.191 303.433 104.704 307.284 104.704 312C104.704 313.116 104.561 314.184 104.304 315.167C104.436 315.155 104.57 315.148 104.704 315.148C108.181 315.149 111 319.095 111 323.963C111 328.831 108.181 332.777 104.704 332.777C103.424 332.777 102.234 332.242 101.24 331.323C100.247 332.242 99.0571 332.777 97.7773 332.777C96.2141 332.777 94.7854 331.979 93.6846 330.658C92.5838 331.978 91.1559 332.777 89.5928 332.777C88.4453 332.777 87.3708 332.346 86.4443 331.596C85.5179 332.346 84.4433 332.777 83.2959 332.777C79.8187 332.777 77 328.831 77 323.963C77 319.095 79.8187 315.149 83.2959 315.148C83.43 315.148 83.5633 315.155 83.6953 315.167C83.4384 314.184 83.2959 313.116 83.2959 312C83.2959 307.285 85.8084 303.434 88.9678 303.196C88.965 303.088 88.9629 302.979 88.9629 302.87C88.963 298.524 91.2182 295 94 295Z" fill="#6ADF8F"/>
<line x1="194" y1="349.891" x2="194" y2="367.002" stroke="#FFE655" stroke-width="2"/>
<path d="M193.25 334C194.6 334 195.694 335.71 195.694 337.819C195.694 337.872 195.69 337.924 195.688 337.976C197.224 338.088 198.444 339.959 198.444 342.249C198.444 342.792 198.372 343.31 198.247 343.788C198.313 343.782 198.379 343.778 198.445 343.778C200.133 343.778 201.501 345.694 201.501 348.057C201.501 350.419 200.133 352.334 198.445 352.334C197.824 352.334 197.247 352.074 196.765 351.628C196.282 352.074 195.704 352.334 195.083 352.334C194.324 352.334 193.631 351.947 193.097 351.306C192.562 351.946 191.87 352.334 191.111 352.334C190.554 352.334 190.033 352.124 189.583 351.76C189.133 352.124 188.613 352.334 188.056 352.334C186.368 352.334 185 350.419 185 348.057C185 345.694 186.368 343.778 188.056 343.778C188.122 343.778 188.188 343.782 188.253 343.788C188.128 343.31 188.056 342.792 188.056 342.249C188.056 339.96 189.276 338.089 190.811 337.976C190.809 337.924 190.806 337.872 190.806 337.819C190.806 335.71 191.9 334 193.25 334Z" fill="#6ADF8F"/>
<line x1="279" y1="358.891" x2="279" y2="376.002" stroke="#FFE655" stroke-width="2"/>
<path d="M279.25 343C280.6 343 281.694 344.71 281.694 346.819C281.694 346.872 281.69 346.924 281.688 346.976C283.224 347.088 284.444 348.959 284.444 351.249C284.444 351.792 284.372 352.31 284.247 352.788C284.313 352.782 284.379 352.778 284.445 352.778C286.133 352.778 287.501 354.694 287.501 357.057C287.501 359.419 286.133 361.334 284.445 361.334C283.824 361.334 283.247 361.074 282.765 360.628C282.282 361.074 281.704 361.334 281.083 361.334C280.324 361.334 279.631 360.947 279.097 360.306C278.562 360.946 277.87 361.334 277.111 361.334C276.554 361.334 276.033 361.124 275.583 360.76C275.133 361.124 274.613 361.334 274.056 361.334C272.368 361.334 271 359.419 271 357.057C271 354.694 272.368 352.778 274.056 352.778C274.122 352.778 274.188 352.782 274.253 352.788C274.128 352.31 274.056 351.792 274.056 351.249C274.056 348.96 275.276 347.089 276.811 346.976C276.809 346.924 276.806 346.872 276.806 346.819C276.806 344.71 277.9 343 279.25 343Z" fill="#6ADF8F"/>
<line x1="345.885" y1="335.629" x2="345.885" y2="345.999" stroke="#FFE655" stroke-width="2"/>
<path d="M346 326C346.818 326 347.481 327.036 347.481 328.314C347.481 328.347 347.478 328.38 347.478 328.413C348.408 328.481 349.148 329.612 349.148 331C349.148 331.33 349.104 331.644 349.027 331.935C349.067 331.931 349.108 331.927 349.148 331.927C350.171 331.927 351 333.088 351 334.52C351 335.951 350.171 337.111 349.148 337.111C348.772 337.111 348.422 336.953 348.13 336.683C347.838 336.953 347.488 337.111 347.111 337.111C346.651 337.111 346.232 336.875 345.908 336.486C345.584 336.875 345.164 337.111 344.704 337.111C344.366 337.111 344.05 336.983 343.777 336.762C343.505 336.983 343.19 337.111 342.853 337.111C341.83 337.111 341 335.951 341 334.52C341 333.088 341.83 331.927 342.853 331.927C342.893 331.927 342.933 331.931 342.973 331.935C342.896 331.644 342.853 331.33 342.853 331C342.853 329.613 343.592 328.484 344.521 328.414C344.521 328.381 344.519 328.348 344.519 328.314C344.519 327.036 345.182 326 346 326Z" fill="#6ADF8F"/>
<line x1="457.885" y1="310.629" x2="457.885" y2="320.999" stroke="#FFE655" stroke-width="2"/>
<path d="M458 301C458.818 301 459.481 302.036 459.481 303.314C459.481 303.347 459.478 303.38 459.478 303.413C460.408 303.481 461.148 304.612 461.148 306C461.148 306.33 461.104 306.644 461.027 306.935C461.067 306.931 461.108 306.927 461.148 306.927C462.171 306.927 463 308.088 463 309.52C463 310.951 462.171 312.111 461.148 312.111C460.772 312.111 460.422 311.953 460.13 311.683C459.838 311.953 459.488 312.111 459.111 312.111C458.651 312.111 458.232 311.875 457.908 311.486C457.584 311.875 457.164 312.111 456.704 312.111C456.366 312.111 456.05 311.983 455.777 311.762C455.505 311.983 455.19 312.111 454.853 312.111C453.83 312.111 453 310.951 453 309.52C453 308.088 453.83 306.927 454.853 306.927C454.893 306.927 454.933 306.931 454.973 306.935C454.896 306.644 454.853 306.33 454.853 306C454.853 304.613 455.592 303.484 456.521 303.414C456.521 303.381 456.519 303.348 456.519 303.314C456.519 302.036 457.182 301 458 301Z" fill="#6ADF8F"/>
<line x1="550.885" y1="287.629" x2="550.885" y2="297.999" stroke="#FFE655" stroke-width="2"/>
<path d="M551 278C551.818 278 552.481 279.036 552.481 280.314C552.481 280.347 552.478 280.38 552.478 280.413C553.408 280.481 554.148 281.612 554.148 283C554.148 283.33 554.104 283.644 554.027 283.935C554.067 283.931 554.108 283.927 554.148 283.927C555.171 283.927 556 285.088 556 286.52C556 287.951 555.171 289.111 554.148 289.111C553.772 289.111 553.422 288.953 553.13 288.683C552.838 288.953 552.488 289.111 552.111 289.111C551.651 289.111 551.232 288.875 550.908 288.486C550.584 288.875 550.164 289.111 549.704 289.111C549.366 289.111 549.05 288.983 548.777 288.762C548.505 288.983 548.19 289.111 547.853 289.111C546.83 289.111 546 287.951 546 286.52C546 285.088 546.83 283.927 547.853 283.927C547.893 283.927 547.933 283.931 547.973 283.935C547.896 283.644 547.853 283.33 547.853 283C547.853 281.613 548.592 280.484 549.521 280.414C549.521 280.381 549.519 280.348 549.519 280.314C549.519 279.036 550.182 278 551 278Z" fill="#6ADF8F"/>
<line x1="734.635" y1="351.629" x2="734.635" y2="361.999" stroke="#FFE655" stroke-width="2"/>
<path d="M734.75 342C735.568 342 736.231 343.036 736.231 344.314C736.231 344.347 736.228 344.38 736.228 344.413C737.158 344.481 737.898 345.612 737.898 347C737.898 347.33 737.854 347.644 737.777 347.935C737.817 347.931 737.858 347.927 737.898 347.927C738.921 347.927 739.75 349.088 739.75 350.52C739.75 351.951 738.921 353.111 737.898 353.111C737.522 353.111 737.172 352.953 736.88 352.683C736.588 352.953 736.238 353.111 735.861 353.111C735.401 353.111 734.982 352.875 734.658 352.486C734.334 352.875 733.914 353.111 733.454 353.111C733.116 353.111 732.8 352.983 732.527 352.762C732.255 352.983 731.94 353.111 731.603 353.111C730.58 353.111 729.75 351.951 729.75 350.52C729.75 349.088 730.58 347.927 731.603 347.927C731.643 347.927 731.683 347.931 731.723 347.935C731.646 347.644 731.603 347.33 731.603 347C731.603 345.613 732.342 344.484 733.271 344.414C733.271 344.381 733.269 344.348 733.269 344.314C733.269 343.036 733.932 342 734.75 342Z" fill="#6ADF8F"/>
<line x1="174.635" y1="351.629" x2="174.635" y2="361.999" stroke="#FFE655" stroke-width="2"/>
<path d="M174.75 342C175.568 342 176.231 343.036 176.231 344.314C176.231 344.347 176.228 344.38 176.228 344.413C177.158 344.481 177.898 345.612 177.898 347C177.898 347.33 177.854 347.644 177.777 347.935C177.817 347.931 177.858 347.927 177.898 347.927C178.921 347.927 179.75 349.088 179.75 350.52C179.75 351.951 178.921 353.111 177.898 353.111C177.522 353.111 177.172 352.953 176.88 352.683C176.588 352.953 176.238 353.111 175.861 353.111C175.401 353.111 174.982 352.875 174.658 352.486C174.334 352.875 173.914 353.111 173.454 353.111C173.116 353.111 172.8 352.983 172.527 352.762C172.255 352.983 171.94 353.111 171.603 353.111C170.58 353.111 169.75 351.951 169.75 350.52C169.75 349.088 170.58 347.927 171.603 347.927C171.643 347.927 171.683 347.931 171.723 347.935C171.646 347.644 171.603 347.33 171.603 347C171.603 345.613 172.342 344.484 173.271 344.414C173.271 344.381 173.269 344.348 173.269 344.314C173.269 343.036 173.932 342 174.75 342Z" fill="#6ADF8F"/>
<line x1="114.635" y1="351.629" x2="114.635" y2="361.999" stroke="#FFE655" stroke-width="2"/>
<path d="M114.75 342C115.568 342 116.231 343.036 116.231 344.314C116.231 344.347 116.228 344.38 116.228 344.413C117.158 344.481 117.898 345.612 117.898 347C117.898 347.33 117.854 347.644 117.777 347.935C117.817 347.931 117.858 347.927 117.898 347.927C118.921 347.927 119.75 349.088 119.75 350.52C119.75 351.951 118.921 353.111 117.898 353.111C117.522 353.111 117.172 352.953 116.88 352.683C116.588 352.953 116.238 353.111 115.861 353.111C115.401 353.111 114.982 352.875 114.658 352.486C114.334 352.875 113.914 353.111 113.454 353.111C113.116 353.111 112.8 352.983 112.527 352.762C112.255 352.983 111.94 353.111 111.603 353.111C110.58 353.111 109.75 351.951 109.75 350.52C109.75 349.088 110.58 347.927 111.603 347.927C111.643 347.927 111.683 347.931 111.723 347.935C111.646 347.644 111.603 347.33 111.603 347C111.603 345.613 112.342 344.484 113.271 344.414C113.271 344.381 113.269 344.348 113.269 344.314C113.269 343.036 113.932 342 114.75 342Z" fill="#6ADF8F"/>
<line x1="603.52" y1="342.039" x2="603.52" y2="369.002" stroke="#FFE655" stroke-width="2"/>
<path d="M604 317C606.127 317 607.852 319.695 607.852 323.019C607.852 323.102 607.849 323.184 607.847 323.267C610.263 323.448 612.185 326.393 612.185 329.999C612.185 330.853 612.075 331.67 611.878 332.422C611.98 332.413 612.082 332.407 612.186 332.407C614.845 332.407 617.001 335.426 617.001 339.148C617.001 342.871 614.845 345.889 612.186 345.889C611.207 345.889 610.298 345.479 609.538 344.777C608.778 345.48 607.868 345.889 606.89 345.889C605.694 345.889 604.602 345.278 603.76 344.268C602.918 345.278 601.826 345.889 600.63 345.889C599.752 345.889 598.93 345.559 598.222 344.984C597.513 345.558 596.692 345.889 595.814 345.889C593.155 345.888 591 342.871 591 339.148C591 335.426 593.155 332.408 595.814 332.407C595.917 332.407 596.02 332.413 596.121 332.422C595.924 331.67 595.815 330.853 595.815 329.999C595.815 326.393 597.736 323.448 600.152 323.267C600.15 323.184 600.148 323.102 600.148 323.019C600.148 319.695 601.873 317 604 317Z" fill="#6ADF8F"/>
<line x1="12.5195" y1="337.039" x2="12.5195" y2="364.002" stroke="#FFE655" stroke-width="2"/>
<path d="M13 312C15.1273 312 16.8516 314.695 16.8516 318.019C16.8516 318.102 16.8488 318.184 16.8467 318.267C19.2632 318.448 21.1846 321.393 21.1846 324.999C21.1845 325.853 21.0746 326.67 20.8779 327.422C20.9797 327.413 21.0822 327.407 21.1855 327.407C23.8447 327.407 26.001 330.426 26.001 334.148C26.0009 337.871 23.8447 340.889 21.1855 340.889C20.2071 340.889 19.2979 340.479 18.5381 339.777C17.7782 340.48 16.8683 340.889 15.8896 340.889C14.694 340.889 13.6016 340.278 12.7598 339.268C11.9179 340.278 10.8255 340.889 9.62988 340.889C8.75213 340.889 7.93028 340.559 7.22168 339.984C6.51323 340.558 5.6919 340.889 4.81445 340.889C2.15549 340.888 2.61378e-05 337.871 0 334.148C0 330.426 2.15547 327.408 4.81445 327.407C4.91736 327.407 5.01979 327.413 5.12109 327.422C4.92442 326.67 4.81545 325.853 4.81543 324.999C4.81543 321.393 6.73628 318.448 9.15234 318.267C9.15021 318.184 9.14844 318.102 9.14844 318.019C9.14844 314.695 10.8727 312 13 312Z" fill="#6ADF8F"/>
<line x1="669.371" y1="330.742" x2="669.371" y2="366.001" stroke="#FFE655" stroke-width="2"/>
<path d="M670 298C672.782 298 675.037 301.524 675.037 305.87C675.037 305.979 675.034 306.088 675.031 306.196C678.191 306.433 680.704 310.284 680.704 315C680.704 316.116 680.561 317.184 680.304 318.167C680.436 318.155 680.57 318.148 680.704 318.148C684.181 318.149 687 322.095 687 326.963C687 331.831 684.181 335.777 680.704 335.777C679.424 335.777 678.234 335.242 677.24 334.323C676.247 335.242 675.057 335.777 673.777 335.777C672.214 335.777 670.785 334.979 669.685 333.658C668.584 334.978 667.156 335.777 665.593 335.777C664.445 335.777 663.371 335.346 662.444 334.596C661.518 335.346 660.443 335.777 659.296 335.777C655.819 335.777 653 331.831 653 326.963C653 322.095 655.819 318.149 659.296 318.148C659.43 318.148 659.563 318.155 659.695 318.167C659.438 317.184 659.296 316.116 659.296 315C659.296 310.285 661.808 306.434 664.968 306.196C664.965 306.088 664.963 305.979 664.963 305.87C664.963 301.524 667.218 298 670 298Z" fill="#6ADF8F"/>
<line x1="770.02" y1="308.039" x2="770.02" y2="321.002" stroke="#FFE655" stroke-width="2"/>
<path d="M770.25 296C771.273 296 772.102 297.296 772.102 298.894C772.102 298.933 772.098 298.972 772.097 299.012C773.26 299.097 774.184 300.514 774.185 302.249C774.185 302.66 774.13 303.053 774.035 303.415C774.085 303.411 774.135 303.407 774.186 303.407C775.464 303.407 776.5 304.859 776.5 306.648C776.5 308.438 775.464 309.889 774.186 309.889C773.715 309.889 773.278 309.691 772.912 309.354C772.547 309.691 772.11 309.889 771.64 309.889C771.064 309.889 770.539 309.594 770.134 309.107C769.729 309.593 769.205 309.889 768.63 309.889C768.207 309.889 767.813 309.728 767.472 309.451C767.131 309.728 766.737 309.889 766.314 309.889C765.036 309.888 764 308.438 764 306.648C764 304.859 765.036 303.408 766.314 303.407C766.365 303.407 766.415 303.411 766.464 303.415C766.369 303.053 766.315 302.66 766.315 302.249C766.316 300.515 767.239 299.098 768.401 299.012C768.4 298.973 768.398 298.933 768.398 298.894C768.398 297.296 769.227 296 770.25 296Z" fill="#6ADF8F"/>
</g>
<defs>
<clipPath id="clip0_1558_72500">
<rect width="800" height="360" fill="white"/>
</clipPath>
</defs>
</svg>
