<svg width="52" height="68" viewBox="0 0 52 68" fill="none" xmlns="http://www.w3.org/2000/svg">
<path d="M35.5 8.87748C35.1 12.2142 30.3333 13.396 28 13.5698C28.5 10.9629 29.5 5.01939 29.5 2.09975C29.5 -1.5498 36 4.70657 35.5 8.87748Z" fill="#F92A82" stroke="#F92A82"/>
<path d="M17.0273 8.87748C17.4273 12.2142 22.194 13.396 24.5273 13.5698C24.0273 10.9629 23.0273 5.01939 23.0273 2.09975C23.0273 -1.5498 16.5273 4.70657 17.0273 8.87748Z" fill="#F92A82" stroke="#F92A82"/>
<rect y="13.5117" width="52" height="54.2219" rx="10" fill="#FFBC00"/>
<ellipse cx="47" cy="30.1948" rx="2" ry="2.08546" fill="#F92A82"/>
<ellipse cx="38" cy="21.855" rx="2" ry="2.08546" fill="#F92A82"/>
<ellipse cx="10" cy="41.6675" rx="2" ry="2.08546" fill="#F92A82"/>
<ellipse cx="44" cy="40.6248" rx="1" ry="1.04273" fill="#F92A82"/>
<ellipse cx="7.5" cy="27.5914" rx="1.5" ry="1.56409" fill="#F92A82"/>
<g filter="url(#filter0_i_1009_239740)">
<path d="M28.1205 23.0802L30.287 30.0473H37.2991C38.9447 30.0473 39.6264 32.2472 38.2978 33.2542L32.623 37.5587L34.7895 44.5259C35.2975 46.1588 33.5087 47.5196 32.1757 46.5081L26.501 42.2035L20.8262 46.5081C19.4932 47.5196 17.7044 46.1588 18.2124 44.5259L20.379 37.5587L14.7042 33.2542C13.3712 32.2427 14.0572 30.0473 15.7028 30.0473H22.7149L24.8814 23.0802C25.3894 21.4472 27.6038 21.4472 28.1118 23.0802H28.1205Z" fill="#F92A82"/>
</g>
<path d="M11.88 57.21H10.64V54.1L9.5 54.56C9.40667 54.5133 9.32 54.4433 9.24 54.35C9.16667 54.2567 9.13 54.1333 9.13 53.98C9.13 53.6867 9.30667 53.4767 9.66 53.35L10.93 52.85H11.21C11.4167 52.85 11.58 52.91 11.7 53.03C11.82 53.15 11.88 53.3167 11.88 53.53V57.21ZM10.64 56.36H11.88V59C11.8267 59.02 11.75 59.0367 11.65 59.05C11.55 59.07 11.44 59.08 11.32 59.08C11.0867 59.08 10.9133 59.0367 10.8 58.95C10.6933 58.8633 10.64 58.7133 10.64 58.5V56.36ZM16.9802 55.96C16.9802 55.46 16.9236 55.05 16.8102 54.73C16.7036 54.41 16.5536 54.1733 16.3602 54.02C16.1736 53.8667 15.9536 53.79 15.7002 53.79C15.4602 53.79 15.2436 53.87 15.0502 54.03C14.8569 54.1833 14.7069 54.42 14.6002 54.74C14.4936 55.06 14.4402 55.4667 14.4402 55.96C14.4402 56.68 14.5502 57.2233 14.7702 57.59C14.9902 57.9567 15.3002 58.14 15.7002 58.14C16.1069 58.14 16.4202 57.9567 16.6402 57.59C16.8669 57.2233 16.9802 56.68 16.9802 55.96ZM15.7102 59.14C15.2102 59.14 14.7702 59.0233 14.3902 58.79C14.0169 58.5567 13.7236 58.2067 13.5102 57.74C13.2969 57.2667 13.1902 56.6733 13.1902 55.96C13.1902 55.2333 13.3036 54.6367 13.5302 54.17C13.7569 53.7033 14.0602 53.3567 14.4402 53.13C14.8202 52.9033 15.2436 52.79 15.7102 52.79C16.1702 52.79 16.5902 52.9033 16.9702 53.13C17.3569 53.3567 17.6636 53.7067 17.8902 54.18C18.1169 54.6467 18.2302 55.24 18.2302 55.96C18.2302 56.6667 18.1236 57.2567 17.9102 57.73C17.6969 58.1967 17.4002 58.55 17.0202 58.79C16.6402 59.0233 16.2036 59.14 15.7102 59.14ZM23.2197 58.12C23.6064 58.12 23.893 58.0433 24.0797 57.89C24.2664 57.73 24.3597 57.5333 24.3597 57.3C24.3597 57.0933 24.2864 56.9267 24.1397 56.8C23.9997 56.6667 23.783 56.5567 23.4897 56.47L22.8397 56.27C22.5064 56.1567 22.213 56.03 21.9597 55.89C21.713 55.75 21.5197 55.57 21.3797 55.35C21.2464 55.1233 21.1797 54.8467 21.1797 54.52C21.1797 53.98 21.3797 53.5533 21.7797 53.24C22.1864 52.9267 22.7397 52.77 23.4397 52.77C23.813 52.77 24.143 52.81 24.4297 52.89C24.723 52.9633 24.953 53.0667 25.1197 53.2C25.293 53.3333 25.3797 53.49 25.3797 53.67C25.3797 53.7967 25.3464 53.91 25.2797 54.01C25.2197 54.1033 25.143 54.18 25.0497 54.24C24.8964 54.1267 24.6864 54.03 24.4197 53.95C24.153 53.8633 23.863 53.82 23.5497 53.82C23.203 53.82 22.9364 53.8833 22.7497 54.01C22.563 54.1367 22.4697 54.3067 22.4697 54.52C22.4697 54.6933 22.533 54.8333 22.6597 54.94C22.793 55.0467 22.993 55.14 23.2597 55.22L23.8397 55.39C24.413 55.5633 24.8597 55.8 25.1797 56.1C25.4997 56.3933 25.6597 56.7967 25.6597 57.31C25.6597 57.8567 25.4497 58.3 25.0297 58.64C24.6164 58.98 24.023 59.15 23.2497 59.15C22.843 59.15 22.483 59.1067 22.1697 59.02C21.8564 58.9333 21.6064 58.8133 21.4197 58.66C21.2397 58.5067 21.1497 58.3333 21.1497 58.14C21.1497 57.9933 21.1964 57.8667 21.2897 57.76C21.383 57.6533 21.483 57.5733 21.5897 57.52C21.763 57.6667 21.9864 57.8033 22.2597 57.93C22.533 58.0567 22.853 58.12 23.2197 58.12ZM26.691 56.36H27.921V57.54C27.921 57.76 27.9843 57.9167 28.111 58.01C28.2443 58.1033 28.431 58.15 28.671 58.15C28.7777 58.15 28.891 58.1367 29.011 58.11C29.1377 58.0833 29.2443 58.05 29.331 58.01C29.3777 58.0633 29.421 58.1267 29.461 58.2C29.501 58.2733 29.521 58.3633 29.521 58.47C29.521 58.6633 29.4277 58.8233 29.241 58.95C29.061 59.0767 28.7777 59.14 28.391 59.14C27.8643 59.14 27.4477 59.0233 27.141 58.79C26.841 58.55 26.691 58.1633 26.691 57.63V56.36ZM27.441 55.34V54.37H29.401C29.4277 54.4167 29.4543 54.4833 29.481 54.57C29.5143 54.6567 29.531 54.7467 29.531 54.84C29.531 55.0067 29.491 55.1333 29.411 55.22C29.331 55.3 29.2277 55.34 29.101 55.34H27.441ZM27.921 56.63H26.691V53.03C26.7443 53.01 26.821 52.99 26.921 52.97C27.0277 52.95 27.1377 52.94 27.251 52.94C27.4843 52.94 27.6543 52.9833 27.761 53.07C27.8677 53.15 27.921 53.2967 27.921 53.51V56.63ZM32.4082 58.21C32.6082 58.21 32.7882 58.19 32.9482 58.15C33.1082 58.11 33.2249 58.0667 33.2982 58.02V56.88L32.3082 56.98C32.0349 57 31.8249 57.06 31.6782 57.16C31.5382 57.2533 31.4682 57.3933 31.4682 57.58C31.4682 57.7733 31.5449 57.9267 31.6982 58.04C31.8515 58.1533 32.0882 58.21 32.4082 58.21ZM32.3582 54.13C33.0115 54.13 33.5315 54.27 33.9182 54.55C34.3049 54.8233 34.4982 55.2567 34.4982 55.85V58.15C34.4982 58.31 34.4582 58.4367 34.3782 58.53C34.3049 58.6233 34.2082 58.7067 34.0882 58.78C33.9015 58.8867 33.6649 58.9733 33.3782 59.04C33.0915 59.1133 32.7682 59.15 32.4082 59.15C31.7415 59.15 31.2182 59.0233 30.8382 58.77C30.4582 58.51 30.2682 58.1267 30.2682 57.62C30.2682 57.1733 30.4082 56.8333 30.6882 56.6C30.9749 56.36 31.3882 56.2133 31.9282 56.16L33.2882 56.02V55.84C33.2882 55.5733 33.1949 55.38 33.0082 55.26C32.8282 55.14 32.5715 55.08 32.2382 55.08C31.9782 55.08 31.7249 55.1133 31.4782 55.18C31.2315 55.2467 31.0115 55.3267 30.8182 55.42C30.7515 55.3667 30.6915 55.2933 30.6382 55.2C30.5849 55.1067 30.5582 55.01 30.5582 54.91C30.5582 54.67 30.6915 54.4933 30.9582 54.38C31.1449 54.2933 31.3615 54.23 31.6082 54.19C31.8615 54.15 32.1115 54.13 32.3582 54.13ZM36.993 55.4V56.77H35.763V55.3C35.763 55.1333 35.803 54.9933 35.883 54.88C35.963 54.76 36.0764 54.65 36.223 54.55C36.423 54.43 36.6764 54.33 36.983 54.25C37.2897 54.17 37.6197 54.13 37.973 54.13C38.5997 54.13 38.913 54.3233 38.913 54.71C38.913 54.8033 38.8997 54.89 38.873 54.97C38.8464 55.0433 38.813 55.11 38.773 55.17C38.7064 55.1567 38.623 55.1467 38.523 55.14C38.423 55.1267 38.3164 55.12 38.203 55.12C37.963 55.12 37.7364 55.1467 37.523 55.2C37.3164 55.2467 37.1397 55.3133 36.993 55.4ZM35.763 56.36L36.993 56.42V58.98C36.9397 59 36.863 59.0167 36.763 59.03C36.663 59.05 36.553 59.06 36.433 59.06C36.2064 59.06 36.0364 59.02 35.923 58.94C35.8164 58.8533 35.763 58.7033 35.763 58.49V56.36ZM43.3879 57.66C43.3879 58.1267 43.2146 58.4933 42.8679 58.76C42.5212 59.02 42.0179 59.15 41.3579 59.15C40.8246 59.15 40.3879 59.07 40.0479 58.91C39.7079 58.75 39.5379 58.5367 39.5379 58.27C39.5379 58.1567 39.5646 58.0533 39.6179 57.96C39.6712 57.86 39.7412 57.7833 39.8279 57.73C40.0146 57.85 40.2312 57.9567 40.4779 58.05C40.7246 58.1433 41.0046 58.19 41.3179 58.19C41.8846 58.19 42.1679 58.0167 42.1679 57.67C42.1679 57.5233 42.1179 57.4067 42.0179 57.32C41.9179 57.2267 41.7646 57.16 41.5579 57.12L40.9879 56.97C40.5012 56.8633 40.1379 56.6967 39.8979 56.47C39.6646 56.2433 39.5479 55.94 39.5479 55.56C39.5479 55.14 39.7212 54.7967 40.0679 54.53C40.4146 54.2567 40.8946 54.12 41.5079 54.12C41.8279 54.12 42.1146 54.1533 42.3679 54.22C42.6212 54.28 42.8179 54.37 42.9579 54.49C43.1046 54.61 43.1779 54.7533 43.1779 54.92C43.1779 55.0333 43.1512 55.1367 43.0979 55.23C43.0512 55.3167 42.9879 55.3833 42.9079 55.43C42.8279 55.3833 42.7179 55.3333 42.5779 55.28C42.4446 55.22 42.2912 55.1733 42.1179 55.14C41.9446 55.1 41.7712 55.08 41.5979 55.08C41.3379 55.08 41.1312 55.1233 40.9779 55.21C40.8312 55.29 40.7579 55.4067 40.7579 55.56C40.7579 55.6733 40.8012 55.77 40.8879 55.85C40.9746 55.93 41.1212 55.9933 41.3279 56.04L41.8379 56.16C42.3779 56.2867 42.7712 56.4733 43.0179 56.72C43.2646 56.96 43.3879 57.2733 43.3879 57.66Z" fill="#182A4F"/>
<defs>
<filter id="filter0_i_1009_239740" x="13" y="21.8555" width="26" height="25" filterUnits="userSpaceOnUse" color-interpolation-filters="sRGB">
<feFlood flood-opacity="0" result="BackgroundImageFix"/>
<feBlend mode="normal" in="SourceGraphic" in2="BackgroundImageFix" result="shape"/>
<feColorMatrix in="SourceAlpha" type="matrix" values="0 0 0 0 0 0 0 0 0 0 0 0 0 0 0 0 0 0 127 0" result="hardAlpha"/>
<feOffset dx="-1"/>
<feGaussianBlur stdDeviation="0.5"/>
<feComposite in2="hardAlpha" operator="arithmetic" k2="-1" k3="1"/>
<feColorMatrix type="matrix" values="0 0 0 0 0 0 0 0 0 0 0 0 0 0 0 0 0 0 0.25 0"/>
<feBlend mode="normal" in2="shape" result="effect1_innerShadow_1009_239740"/>
</filter>
</defs>
</svg>
