<svg width="64" height="72" viewBox="0 0 64 72" fill="none" xmlns="http://www.w3.org/2000/svg">
<path d="M48 0.5C56.5604 0.5 63.5 7.43959 63.5 16V66C63.5 69.0376 61.0376 71.5 58 71.5H6C2.96243 71.5 0.5 69.0376 0.5 66V16C0.500001 7.43959 7.43959 0.5 16 0.5H48Z" fill="#FFC805"/>
<path d="M48 0.5C56.5604 0.5 63.5 7.43959 63.5 16V66C63.5 69.0376 61.0376 71.5 58 71.5H6C2.96243 71.5 0.5 69.0376 0.5 66V16C0.500001 7.43959 7.43959 0.5 16 0.5H48Z" stroke="#F35908"/>
<rect width="62" height="2" transform="matrix(1 0 0 -1 1 29)" fill="#F35908"/>
<path d="M1 45V45C1.55228 45 2 45.4477 2 46V51C2 51.5523 1.55228 52 1 52V52V45Z" fill="#F35908"/>
<path d="M1 28V28C1.55228 28 2 28.4477 2 29V34C2 34.5523 1.55228 35 1 35V35V28Z" fill="#F35908"/>
<path d="M62 29C62 28.4477 62.4477 28 63 28V28V35V35C62.4477 35 62 34.5523 62 34V29Z" fill="#F35908"/>
<path d="M6 71V70C6 68.8954 6.89543 68 8 68H11C12.1046 68 13 68.8954 13 70V71H6Z" fill="#F35908"/>
<path d="M29 71V70C29 68.8954 29.8954 68 31 68H34C35.1046 68 36 68.8954 36 70V71H29Z" fill="#F35908"/>
<path d="M29 28V29C29 30.1046 29.8954 31 31 31H34C35.1046 31 36 30.1046 36 29V28H29Z" fill="#F35908"/>
<path d="M51 71V70C51 68.8954 51.8954 68 53 68H56C57.1046 68 58 68.8954 58 70V71H51Z" fill="#F35908"/>
<path d="M62 46C62 45.4477 62.4477 45 63 45V45V52V52C62.4477 52 62 51.5523 62 51V46Z" fill="#F35908"/>
<path d="M41 1H52V1C52 2.10457 51.1046 3 50 3H43C41.8954 3 41 2.10457 41 1V1Z" fill="#F35908"/>
<path d="M13 1H24V1C24 2.10457 23.1046 3 22 3H15C13.8954 3 13 2.10457 13 1V1Z" fill="#F35908"/>
<path d="M31.5245 6.46353C31.6741 6.00287 32.3259 6.00287 32.4755 6.46353L34.1329 11.5643C34.1998 11.7703 34.3918 11.9098 34.6084 11.9098H39.9717C40.4561 11.9098 40.6575 12.5296 40.2656 12.8143L35.9266 15.9668C35.7514 16.0941 35.678 16.3198 35.745 16.5258L37.4023 21.6266C37.552 22.0873 37.0248 22.4704 36.6329 22.1857L32.2939 19.0332C32.1186 18.9059 31.8814 18.9059 31.7061 19.0332L27.3671 22.1857C26.9752 22.4704 26.448 22.0873 26.5977 21.6266L28.255 16.5258C28.322 16.3198 28.2486 16.0941 28.0734 15.9668L23.7344 12.8143C23.3425 12.5296 23.5439 11.9098 24.0283 11.9098H29.3916C29.6082 11.9098 29.8002 11.7703 29.8671 11.5643L31.5245 6.46353Z" fill="white"/>
<rect x="31" y="28" width="2" height="2" rx="1" fill="#FFF9CF"/>
<rect x="5" y="31" width="2" height="2" rx="1" fill="#F35908"/>
<rect x="3" y="34" width="2" height="2" rx="1" fill="#F35908"/>
<rect x="7" y="34" width="2" height="2" rx="1" fill="#F35908"/>
<rect x="56" y="62" width="2" height="2" rx="1" fill="#F35908"/>
<rect x="58" y="59" width="2" height="2" rx="1" fill="#F35908"/>
<rect x="54" y="59" width="2" height="2" rx="1" fill="#F35908"/>
<rect x="3" y="63" width="2" height="2" rx="1" fill="#F35908"/>
<rect x="58" y="31" width="2" height="2" rx="1" fill="#F35908"/>
</svg>
