<?xml version="1.0" encoding="UTF-8"?>
<svg id="Layer_1" xmlns="http://www.w3.org/2000/svg" version="1.1" viewBox="0 0 1920 2048">
  <!-- Generator: Adobe Illustrator 29.8.1, SVG Export Plug-In . SVG Version: 2.1.1 Build 2)  -->
  <defs>
    <style>
      .st0 {
        fill: #7f1d18;
      }

      .st1 {
        fill: #fe7460;
      }

      .st2 {
        fill: #ffebb9;
      }

      .st3 {
        fill: #410f10;
      }

      .st4 {
        fill: #b82c26;
      }

      .st5 {
        fill: #d4352e;
      }

      .st6 {
        isolation: isolate;
        opacity: .22;
      }

      .st7 {
        fill: #ff9303;
      }

      .st8 {
        fill: #f6423a;
      }

      .st9 {
        fill: #efd2d2;
      }

      .st10 {
        fill: #371217;
      }

      .st11 {
        fill: #3f1113;
      }

      .st12 {
        fill: #ff826c;
      }

      .st13 {
        fill: #fff7e8;
      }

      .st14 {
        fill: #f63f37;
      }

      .st15 {
        fill: #f9be00;
      }

      .st16 {
        fill: #fffffe;
      }
    </style>
  </defs>
  <ellipse class="st6" cx="945.05" cy="1493.9" rx="459.28" ry="78.99"/>
  <path class="st15" d="M1450.51,885.79c-.17-1.98-.35-3.97-.64-7.33,1.38,2.41,2.28,3.7,2.91,5.12,11.22,25.45,20.27,51.62,25.63,78.95,2.77,14.09,5.42,28.22,7.38,42.44,1.34,9.77,1.66,19.71,1.96,29.59.32,10.61.16,21.24.05,31.86-.19,17.89-2.55,35.55-5.44,53.2-3.46,21.18-8.87,41.79-16.08,61.95-11.06,30.89-25.9,59.82-46.13,85.7-9.49,12.14-19.81,23.68-30.33,34.96-5.86,6.28-13.14,11.23-19.32,17.25-2.65,2.57-4.39,6.19-6.13,9.55-6.46,12.48-14.94,23.47-23.93,34.21-13.53,16.17-30.05,28.71-47.68,39.78-9.53,5.99-20.01,10.48-30.77,15.66-1.86-.62-3.01-1.25-3.91-2.09,16-17.29,29.78-35.74,39.12-57.17,8.13-18.65,12.88-38.08,8.03-58.3-8.81-36.7-34.51-57.38-68.7-68.77-7.34-2.45-15.67-1.92-23.55-3.12-.32-4.13-.63-7.9-.89-11.97,7.24-9.02,14.43-17.73,21.91-26.3,4.59,5.64,8.46,11.53,13.28,16.52,7.82,8.11,17.26,8.68,26.47,2.32,8-5.52,12.76-13.57,16.47-22.23,8.52-19.89,11.23-40.22,3.47-61.06-.69-1.86-2.08-3.47-3.51-5.8-2.2,2.99-3.51,5.35-5.35,7.14-3.25,3.15-3.32,6.53-2.22,10.63,1.03,3.86,1.76,7.94,1.7,11.91-.25,15.23-3.97,29.47-12.87,42.13-6.9,9.81-11.98,10.05-18.79.32-3.17-4.54-5.81-9.45-8.6-14.5,6.75-8.83,13.43-17.35,20.1-25.87-.35-.29-.7-.58-1.05-.87-.79.46-1.58.93-2.36,1.39-12.96,7.67-26.79,10.59-41.74,7.87-28.18-5.12-49.17-29.84-48.79-58.48.1-7.5,2.32-14.97,3.69-22.75.33-2.56,1.38-5.19.59-7.02-2.72-6.28-6.22-12.22-9.16-18.41-1.46-3.06-3.2-3.34-6.31-2.48-8.26,2.27-16.61,4.25-24.99,6.03-48.12,10.18-96.97,13.62-145.96,14.73-52.12,1.18-104.25.92-156.29-3.27-34.73-2.8-69.15-7.32-102.84-16.43-3-.81-4.18-.02-5.35,2.49-4.6,9.89-9.33,19.71-14.27,29.42-1.38-1.45-2.49-2.77-3.61-4.08,4.17,13.57,4.26,26.75.3,40.17-7.79,26.44-38.43,45.32-65.41,40.46-9.23-1.66-17.42-5.43-25.61-9.99-.32-.45-.59-.59-.97-.78-.15-.18-.24-.22-.33-.26.15.11.3.22.45.58.25.45.5.66.75,1.19,2.22,3.31,4.37,6.34,6.64,9.28,5.94,7.7,11.94,15.37,17.58,23.07-3.37,2.41-6.31,4.93-9.48,7.13-3.35,2.33-6.62,1.63-9.15-1.39-1.78-2.13-3.33-4.51-4.6-6.98-5.06-9.86-7.2-20.44-7.43-31.46-.05-2.16.46-4.87-.62-6.36-3.32-4.6-7.29-8.73-11.57-13.69-.41,1.82-.88,2.93-.88,4.04-.06,8.82-.58,17.68.08,26.45,1.02,13.42,5.55,25.81,13.84,36.55,6.62,8.58,16.23,10.78,25.74,5.54,4.69-2.59,8.69-6.44,13.25-9.54,9.36,10.94,18.53,21.65,27.48,32.53,1.02,1.24.83,3.49.82,5.18-19.04-4.34-37.25-3.34-54.33,5.71-8.06,4.27-15.43,9.84-23.14,14.43.04-1.17-.07-2,.18-2.71,4.78-13.36,4.69-27.02,2.58-40.81-.56-3.68-2.3-7.04-5.98-7.41-2.29-.23-5.83,1.39-6.98,3.29-1.34,2.21-.91,5.64-.87,8.54.12,7.07,1.5,14.29.5,21.18-2.49,17.22-10.65,31.35-25.75,40.85-6.33,3.99-10.1,3.12-14.47-3.21-7.1-10.25-9.33-21.56-8.44-33.94.99-13.69,5.52-26.08,11.96-37.94,2.65-4.87,2.17-9.13-1.62-11.33-3.64-2.11-7.78-.49-10.39,4.21-9.05,16.32-14.95,33.37-14.02,52.49.64,13.15,3.58,25.42,11.83,35.66,8.83,10.96,16.89,13.54,29.89,7.36,1.81-.86,3.73-1.48,5.52-1.85-8.36,21.05-7.36,41.78-.34,62.54,5.66,16.72,14.48,31.73,24.82,45.92.77,1.05.99,2.5,1.47,3.76-6.72-4.74-13.73-9.13-20.1-14.29-14.61-11.84-27.16-25.73-37.54-41.38-10.77-16.24-18.95-33.82-24.78-52.46-4.88-15.64-8.82-31.48-10.31-47.82-1.1-12.13-1.92-24.28-2.89-37.29-.06-8.67-.08-16.46-.11-24.26.41-7.01.81-14.03,1.56-20.96,3.12,4.91,5.31,10.21,8.78,14.47,10.68,13.12,24.37,10.02,33.06-2.43,15.57-22.28,20.76-47.24,17.54-74.03-.38-3.17-1.26-6.6-3.01-9.16-1.2-1.77-4.76-3.6-6.41-3.01-2.24.81-3.95,3.73-5.32,6.08-.68,1.16-.39,3.13-.01,4.6,2.88,11.27,2.15,22.54-.16,33.74-2.6,12.59-6.66,24.63-14.97,34.8-3.75,4.59-6.44,4.95-10.1.38-2.68-3.36-5.14-7.17-6.57-11.19-2.9-8.14-5.04-16.55-7.49-24.85,4.65-16.57,8.9-33.28,14.08-49.68,4-12.64,9.05-24.95,13.85-37.32,11.21-28.87,23.03-57.51,33.67-86.58,8.11-22.17,14.79-44.86,22.07-67.33.33-1.01.45-2.1.51-3.17.65-10.49.59-21.09,2.05-31.46,2.28-16.19,5.16-32.33,8.54-48.33,4.67-22.14,11.84-43.6,20.55-64.43,10.76-25.75,24.08-50.15,40.37-72.95,13.26-18.55,27.59-36.16,44.42-51.47,12.37-11.25,25.38-21.99,39.11-31.52,13.9-9.65,28.62-18.33,43.71-26.02,23.75-12.09,48.96-20.64,75.12-25.82,14.11-2.79,28.54-3.97,42.83-5.84,3.2-.42,6.43-.65,10.51-.96,15.57-.04,30.28-.09,44.98-.14,11.52.99,23.17,1.21,34.52,3.17,16.36,2.83,32.86,5.79,48.65,10.77,18.86,5.95,37.64,12.87,55.32,21.66,16.75,8.33,32.46,18.99,47.81,29.8,11.29,7.95,21.74,17.29,31.71,26.9,16.45,15.86,30.67,33.71,43.4,52.71,18.48,27.6,33.17,57.13,43.1,88.79,6.19,19.76,11.96,39.79,15.79,60.1,4.97,26.31,11.98,52.05,19.34,77.67,10.11,35.21,24.23,69.04,37.67,103.1,10.29,26.08,19.58,52.55,29.14,79.46-.08,2.13-.04,3.65.15,5.16.7,5.69,2.22,11.4,2.01,17.05-.37,10.05-1.02,20.22-3,30.05-1.52,7.51-4.91,14.73-8.18,21.75-2.65,5.68-5.62,6.4-10.24,2.35-4.12-3.61-7.94-7.97-10.65-12.71-6.18-10.81-9.68-22.57-7.98-35.19.72-5.32,2.51-10.51,3.95-15.72,1.36-4.9-1.88-9.19-6.92-8.9-4.31.25-6.09,3.4-7.37,6.84-5.81,15.7-5.38,31.49.28,47.03,4.36,11.96,10.24,23.2,21.06,30.73,7.67,5.34,17.25,7.41,25.56-1.68,7.78-8.49,11.23-18.99,13.75-29.75,1.01-4.31.49-9.22-.33-13.68-1.52-8.22-3.79-16.3-5.74-24.44,21.51-18.08,36.73-40.81,48.17-66.14,7.62-16.87,13.16-34.55,16.1-52.83,2.46-15.28,3.86-30.74,5.76-46.11.23-1.82.63-3.62,1.19-6.14.14-14.8.04-28.89-.06-42.98M1227.05,848.23c-.23-5.14-.33-10.3-.73-15.43-2.28-29.27-11.32-56.13-28.91-79.86-31.4-42.37-82-60.52-133.05-47.62-21.52,5.44-37.11,19.25-50.03,36.53-8.6,11.5-16.74,23.34-25.48,34.74-5.92,7.72-13.03,14.36-21.99,18.6-19.81,9.36-43.09,4.71-58.68-13.05-10.58-12.05-19.74-25.36-29.42-38.19-33.02-43.74-88.41-53.62-133.08-33.32-40.56,18.43-64.63,50.92-76.19,93.11-8.52,31.08-6.81,62.45-.53,93.7,6,29.88,18.26,56.92,37.43,80.7,25.5,31.63,58.57,52.43,96.13,66.7,43.12,16.37,88.06,22.67,133.87,23.73,33.47.77,66.74-1.49,99.65-7.98,38.47-7.59,74.88-20.35,107.38-42.87,27.51-19.06,48.94-43.36,63.37-73.69,14.27-30.02,19.73-61.91,20.25-95.79M980.15,729.63c15.91-16.11,24.56-35.01,19.89-57.87-1.67-8.18-6.14-15.83-9.69-23.56-1.66-3.62-5.45-3.58-8.64-2.72-3.32.89-4.63,3.87-3.81,7.06.72,2.77,2.08,5.45,3.53,7.95,5.39,9.29,7.39,19.53,5.37,29.74-3.2,16.13-12.62,28.51-26.54,37.4-11.04,7.05-22.21,8.22-33.02,0-4.89-3.72-9.54-8.07-13.33-12.89-7.23-9.22-11.72-19.72-12.07-31.74-.29-9.94,2.27-19.01,7.11-27.63,2.63-4.69,1.61-8.16-2.41-10.45-3.19-1.81-6.93-.6-9.43,3.35-9.11,14.42-11.39,30.16-7.81,46.59,3.9,17.87,13.62,32.35,28.27,43.22,7.29,5.42,15.49,9.45,24.95,9.33,14.95-.18,26.57-7.69,37.64-17.77M958.42,638.66c22.24-7.18,41.53-18.54,53.92-39.15,8.31-13.82,9.36-28.42,2.94-43.35-2.1-4.88-5.7-6.63-9.52-4.99-4.14,1.78-5.33,5.46-3.18,10.51,4.97,11.7,3.76,22.63-3.58,33.03-10.59,15.01-25.29,24.09-42.34,29.86-11.14,3.77-21.83,2.5-31.87-3.53-5.72-3.44-11.93-6.45-16.75-10.92-14.42-13.4-28.02-27.47-19.54-50.06,1.44-3.83-.85-8.3-4.29-9.21-3.98-1.06-6.82.47-8.63,4.39-7.28,15.77-3.93,30.44,4.69,44.39,9.68,15.67,23.56,26.79,39.84,35.01,11.96,6.04,24.46,7.99,38.33,4.03M1295.6,1219.22c.33,6.76-.16,13.68,1.14,20.25,3.77,19.02,12.24,35.58,28.06,47.58,10.06,7.63,21.24,7.07,28.65-1.04,9.84-10.77,13.32-24.11,14.3-38.15,1.37-19.75-2.18-38.72-10.06-56.9-2.13-4.91-5.49-7-9.64-5.51-3.81,1.37-5.34,5.87-3.32,10.64,6.83,16.18,10.63,32.98,8.87,50.54-.76,7.61-2.07,15.75-5.55,22.38-6.54,12.44-9.81,12.56-18.99,3.32-14.52-14.62-21.38-32.54-19.33-53.36.47-4.76,1.77-9.43,2.65-14.15.68-3.68-1.36-7.31-4.56-8.18-4.28-1.17-8.31.74-9.2,4.83-1.22,5.59-2.01,11.27-3,17.76M811.43,602.11c4.93-2.25,9.84-4.56,14.8-6.73,3.39-1.49,5.67-5.51,4.68-8.57-1.3-4.05-4.96-5.92-9.18-4.63-2.23.68-4.5,1.31-6.66,2.19-13.89,5.71-24.57,14.6-30.92,28.74-5.34,11.88-5.51,24.17-4.96,36.62.36,8.19,3.94,11.82,11.7,13.29,14.69,2.78,29.38,3,43.87-.97,14.32-3.93,26.21-11.54,33.87-24.65,1.21-2.07,2.08-5.12,1.47-7.25-.54-1.87-3.38-4.28-5.19-4.28-2.5,0-6.06,1.39-7.31,3.36-5.98,9.45-14.19,15.5-24.78,18.69-12.18,3.67-24.53,3.74-36.94,1.87-1.06-.16-2.5-2.22-2.62-3.5-.35-3.8-.3-7.66-.1-11.48.71-13.59,6.48-24.45,18.28-32.68M1096.87,644.54c-.18-15.12-2.94-29.73-9.57-43.37-6.44-13.23-16.46-23-30.38-28.18-2.45-.91-6.18-.87-8.32.41-5.17,3.09-3.7,9.49,2.37,12.33,3.23,1.51,6.64,2.83,9.48,4.91,17.33,12.67,20.86,31.5,22.24,51.15.08,1.1-1.25,3.02-2.31,3.36-12.88,4.1-25.57,4.58-37.95-2.12-8.45-4.57-14.17-11.45-18.5-19.8-1.99-3.83-6.1-5.31-9.42-3.71s-5.33,5.84-3.53,9.09c5.69,10.29,12.2,19.96,22.86,25.91,16.72,9.34,34.13,9.18,51.97,3.94,6.68-1.96,10.94-5.71,11.05-13.94M1253.28,937.43c-10.57-16.74-11.98-34.29-4.8-52.68.66-1.7,1.09-4.31.25-5.6-1.32-2.02-4.03-4.76-5.76-4.51-2.6.38-5.96,2.55-7.08,4.88-6.34,13.19-7.58,27.19-4.37,41.41,2.77,12.31,7.64,23.76,16.86,32.77,7.88,7.7,16.74,7.04,23.78-1.46,1.39-1.67,2.65-3.46,3.85-5.27,7.11-10.76,10.86-22.79,11.98-35.47.93-10.57-.09-21.14-3.32-31.38-1.22-3.88-3.77-6.52-7.81-5.82-3.85.67-6.24,3.49-5.61,7.86.42,2.91.83,5.84,1.44,8.71,3.51,16.56,1.04,32.26-7.49,46.77-5.26,8.94-5.77,8.71-11.92-.22M624.52,946.64c-2.45-3.39-5.31-6.55-7.27-10.2-8.45-15.75-9.25-31.95-2.38-48.55,1.8-4.35.16-8.44-3.32-9.87-3.69-1.52-7.78.58-9.7,4.96-6.06,13.86-7.37,28.19-3.64,42.82,3.03,11.91,8.08,22.88,17.18,31.54,6.39,6.08,13.25,6.67,19.53,1.03,3.41-3.07,6.39-6.84,8.8-10.77,5.69-9.24,8.88-19.39,10.14-30.22,1.4-12.08.17-23.87-3.29-35.45-1.14-3.82-4.24-4.73-7.84-4.12-3.39.57-5.22,2.75-5.2,6.16.01,1.99.31,4.02.77,5.96,4.08,17.17,2.54,33.71-5.92,49.29-1.63,3-4.8,5.16-7.87,7.41M680.4,705.9c.08.78.15,1.55.23,2.33,1.1,9.93,5.87,16.79,13.29,18.04,2.91.49,6.15-.16,9.11-.87,23.32-5.6,43.6-28.02,46.92-51.68.66-4.71-1.2-7.95-5-8.7-4.07-.8-7.62,1.34-8.6,5.86-2.16,9.94-6.09,19.04-13.02,26.48-6.33,6.8-13.98,11.86-23.1,14.31-2.56.69-4.58.16-5.18-2.96-3.25-16.69-1.63-32.27,10.29-45.49,2.38-2.64,5.22-4.88,7.4-7.66,2.32-2.97,2.66-6.22-.47-9.19-2.97-2.82-6-2.96-9.19-.57-1.74,1.3-3.52,2.6-5.03,4.15-15.05,15.43-20.51,34.01-17.63,55.97M1200.79,662.89c-4.5-10.62-11.43-19.21-21.25-25.38-4.82-3.03-9.24-2.16-11.5,2.32-2.31,4.56,1.09,6.9,3.77,9.45,3.47,3.29,7.53,6.09,10.45,9.79,9.33,11.82,10.6,25.46,7.7,39.73-.2,1.01-2.45,2.52-3.41,2.31-10.3-2.34-19.73-6.5-27.56-13.87-5.93-5.58-9.89-12.33-12.71-19.89-1.65-4.44-5.64-6.88-8.89-5.77-4.24,1.45-6.1,5.92-4.38,10.77.73,2.05,1.53,4.1,2.5,6.04,10.66,21.27,28.37,32.94,51.34,37.06,8.71,1.56,13.05-.6,14.95-6.75,4.66-15.09,5.02-30.17-1-45.81M657.72,813.12c8.68-13.91,9.66-29.18,7.73-44.9-.45-3.7-4.97-7.26-7.99-6.56-4.01.93-5.99,3.67-5.9,7.84.03,1.4-.24,2.88.11,4.2,1.88,7.2.79,14.26-1.17,21.16-2.73,9.6-7.64,17.85-16.27,24.05-6.56-10.43-8.59-21.44-6.42-32.92,1.13-6.01,3.99-11.7,6.18-17.49,1.63-4.3.65-8.84-2.44-10.36-3.79-1.86-8.43-.24-10.35,4.34-2.69,6.41-5.61,12.91-6.97,19.66-3.59,17.85.17,34.34,11.55,48.74,3.99,5.04,6.5,6.43,13.67,1.98,7.56-4.7,13.82-11.02,18.28-19.75M1234.7,772.6c.3-1.99.92-3.99.85-5.96-.14-3.95-2.46-6.49-6.33-6.9-3.99-.43-7.22,1.97-7.37,5.65-.38,9.08-.92,18.36.53,27.25,2.39,14.69,10.8,26.38,22.4,35.46,9.61,7.53,13.55,5.82,19.42-3.49,13.81-21.91,12.97-45.33.3-67.19-1.83-3.16-6.17-4.4-8.98-2.93-3.13,1.65-4.64,5.86-3.25,9.24.53,1.29,1.22,2.53,1.85,3.78,5.96,11.86,7.73,24.22,3.96,37.07-1.15,3.9-3.05,7.58-5.09,12.57-4-4.45-7.44-7.61-10.07-11.34-6.83-9.67-9.01-20.67-8.21-33.23M583.82,1000.7c3.24-1.62,6.49-3.24,9.73-4.86.1-.52.21-1.04.31-1.56-2.16-.94-4.47-2.91-6.45-2.62-6.73.97-7.22,7.29-9.85,11.75.28.29.56.57.84.86,1.61-1.07,3.22-2.14,5.42-3.57M1296.62,999.66c-.16.53-.6,1.4-.43,1.54,4.89,4.06,9.84,8.04,14.78,12.04-.61-3.66-2.11-6.9-3.69-10.11-2.15-4.37-5.56-5.52-10.65-3.48M1264.91,1150.96l.25.1s-.06-.25-.25-.1M1312.12,1015.1s-.11.07,0,0Z"/>
  <path class="st4" d="M808.24,1455.15c-4.49.6-2.97,4.61-4.54,7.26-3.08-8.21-7.55-15.32-13.91-21.3-9.28-8.73-19.95-15.2-31.6-20.22-18.69-8.06-38.26-12.75-58.48-14.24-10.78-.8-21.67-.24-32.5-.12-13.24.15-26.23,2.1-38.89,6.02-4.86,1.51-9.6,3.42-14.39,5.15-3.33-4.44-6.59-8.93-10.02-13.29-1.36-1.73-3.08-3.17-4.78-5.04-.62-1.56-.84-3-1.61-4.06-10.35-14.19-19.17-29.2-24.82-45.92-7.02-20.75-8.02-41.49.55-62.75,2.04-3.87,3.32-7.53,5.62-10.39,6.19-7.71,12.81-15.07,19.49-22.65.41-.34.6-.59.75-.82-.03.02.01.07.01.07,7.68-4.98,15.06-10.55,23.11-14.82,17.08-9.05,35.3-10.06,54.51-5.53,4.59,1.2,7.5,3.04,7.69,7.77.11,2.77.53,5.58,1.24,8.26,5.36,20.4,16.97,36.76,34.25,48.4,7.17,4.83,10.91,10.42,12.4,18.38,1.45,7.76,2.86,15.54,4.66,23.23,3.72,15.9,18.96,23.93,34.27,18.23,6.83-2.54,10.95-7.91,14.5-13.75,14.84,34.43,23.5,69.72,20.59,107.24-.12,1.57,1.23,3.26,1.9,4.89h0Z"/>
  <path class="st5" d="M613.6,1417.72c5.13-1.75,9.87-3.67,14.73-5.17,12.65-3.92,25.65-5.87,38.89-6.02,10.84-.12,21.72-.68,32.5.12,20.22,1.5,39.79,6.18,58.48,14.24,11.65,5.02,22.32,11.5,31.6,20.22,6.36,5.98,10.83,13.09,13.73,21.6.09,4.22.15,8.3-.43,12.29-2.04,14.17-10.41,23.16-23.48,28.31-13.35,5.27-27.38,7.23-41.52,7.96-15.54.8-31.13.78-46.7.86-8.24.04-16.49-.47-25.24-1.12-12.32-20.03-15.83-41.09-10.98-63.68-.93.37-1.44.73-1.66,1.21-5.15,11.25-9.43,22.87-9.33,35.36.07,9.09,1.59,18.16,2.47,27.24-6.8-.52-13.61-1.05-20.89-1.95-11.71-19.53-14.46-40.06-9.38-62.7-1.41,1.19-1.88,1.4-2.05,1.76-5.24,11.03-9.16,22.5-9.56,34.78-.25,7.58.52,15.19.83,22.79-19.52-5.62-24.16-18.67-22.98-37.29.41-6.45,2.14-12.81,3.28-19.59,4.29-14.94,14.25-24.47,27.69-31.23M616.15,1445.15c.17-.06.34-.12.5-.18-.17-.06-.33-.11-.5.18M655.52,1445.15c.17-.06.33-.12.5-.18-.17-.06-.33-.11-.5.18Z"/>
  <path class="st5" d="M1206.33,1511.23c-31.58,1.02-63.24,2.96-94.56-2.78-9.04-1.66-18.06-4.86-26.32-8.94-11.28-5.57-16.08-15.98-16.71-28.35-.14-2.8-.23-5.6-.07-8.98,3.83-9.93,9.05-18.38,17.18-24.13,8.96-6.33,18.38-12.26,28.25-17.02,17.94-8.65,37.38-12.55,57.07-14.35,11.07-1.01,22.36-.78,33.47-.03,11.24.76,22.47,2.48,33.57,4.47,6.65,1.2,13.07,3.73,19.59,5.67,1.15.62,2.3,1.25,3.82,1.9,4.22,3.12,8.26,6.01,11.89,9.35,5.42,4.98,9.43,11.01,11.85,18.39,3.2,11,4.98,21.74,3.95,32.94-1.29,14.05-9,22.3-22.46,25.89-.33-1.06-.41-1.86-.28-2.62,2.87-17.26.09-33.78-6.62-49.76-.81-1.93-1.78-3.79-2.68-5.68-.88,1.28-1.05,2.31-.85,3.27,2.33,11.43,3.07,22.97-.23,34.2-2.48,8.45-6.28,16.51-9.49,24.75-6.81.57-13.63,1.14-20.86,1.37,6.92-24.98-1.28-54.28-8.78-63.29-.07.51-.19.97-.18,1.42.02.62.1,1.24.22,1.85,2.93,14.47,2.55,28.8-2.6,42.71-2.25,6.09-5.43,11.84-8.19,17.74M1216.39,1445.4c.05-.24.1-.48.16-.72-.13.15-.27.3-.16.72M1255.81,1444.56c-.06.24-.11.48-.17.71.14-.15.27-.3.17-.71Z"/>
  <path class="st7" d="M1379.22,1099.64c2.09,8.5,4.35,16.58,5.87,24.8.83,4.45,1.34,9.36.33,13.68-2.52,10.76-5.98,21.26-13.75,29.75-8.31,9.08-17.89,7.02-25.56,1.68-10.82-7.54-16.7-18.77-21.06-30.73-5.67-15.55-6.1-31.34-.28-47.03,1.27-3.44,3.05-6.59,7.37-6.84,5.04-.29,8.28,4,6.92,8.9-1.45,5.21-3.23,10.4-3.95,15.72-1.7,12.63,1.8,24.38,7.98,35.19,2.71,4.74,6.53,9.1,10.65,12.71,4.62,4.05,7.59,3.33,10.24-2.35,3.27-7.02,6.66-14.25,8.18-21.75,1.99-9.83,2.63-20,3-30.05.21-5.65-1.31-11.36-2.01-17.05-.19-1.51-.22-3.03-.09-4.81,2.17,5.77,4.11,11.8,6.17,18.19h-.01Z"/>
  <path class="st7" d="M510.1,1130.37c2.52,7.92,4.66,16.33,7.56,24.47,1.43,4.01,3.89,7.83,6.57,11.19,3.65,4.58,6.34,4.21,10.1-.38,8.32-10.17,12.37-22.21,14.97-34.8,2.32-11.2,3.04-22.46.16-33.74-.38-1.47-.66-3.45.01-4.6,1.37-2.35,3.08-5.27,5.32-6.08,1.65-.59,5.21,1.24,6.41,3.01,1.74,2.57,2.63,6,3.01,9.16,3.22,26.79-1.97,51.75-17.54,74.03-8.69,12.44-22.39,15.55-33.06,2.43-3.47-4.26-5.66-9.57-8.5-14.73,1.59-10.09,3.26-19.84,4.99-29.97h0Z"/>
  <path class="st4" d="M966.32,526.64c-14.48.38-29.19.42-44.34.42.37-.32,1.18-.82,1.99-.82,14.04-.01,28.08.04,42.35.41h0Z"/>
  <path class="st0" d="M1450.49,886.18c.12,13.7.22,27.79.17,42.15-.16-13.74-.18-27.75-.17-42.15Z"/>
  <path class="st0" d="M502.96,1181.79c.34,7.56.37,15.36.36,23.59-.25-7.5-.46-15.43-.36-23.59Z"/>
  <path class="st16" d="M1227.05,848.69c-.52,33.41-5.98,65.3-20.25,95.32-14.42,30.34-35.86,54.64-63.37,73.69-32.5,22.52-68.91,35.28-107.38,42.87-32.91,6.49-66.18,8.75-99.65,7.98-45.81-1.05-90.76-7.36-133.87-23.73-37.56-14.26-70.62-35.06-96.13-66.7-19.17-23.78-31.43-50.82-37.43-80.7-6.28-31.25-7.99-62.63.53-93.7,11.56-42.19,35.63-74.68,76.19-93.11,44.67-20.3,100.06-10.42,133.08,33.32,9.69,12.83,18.84,26.14,29.42,38.19,15.59,17.76,38.87,22.41,58.68,13.05,8.96-4.23,16.07-10.87,21.99-18.6,8.74-11.39,16.88-23.24,25.48-34.74,12.91-17.28,28.5-31.09,50.03-36.53,51.05-12.9,101.64,5.25,133.05,47.62,17.59,23.73,26.63,50.59,28.91,79.86.4,5.13.49,10.28.73,15.89M798.16,770.85c-23.94-4.28-45.27,5.74-56.07,27.63-12.31,24.95-11.87,50.45.67,75.19,9.11,17.97,24.35,28.05,44.72,28.09,19.79.04,34-10.46,43.15-27.41,12.71-23.54,13.09-48.12,3.47-72.73-6.28-16.06-17.94-26.73-35.92-30.77M1098.05,901.36c18.68,2.03,33.56-5.15,44.04-20.14,17.76-25.4,18.66-53,7.28-81.02-7.25-17.85-21.12-28.43-40.61-30.09-20.81-1.78-37.68,6.18-48.21,24.21-15.24,26.09-15,53.26-1.4,79.98,7.81,15.35,20.64,24.71,38.9,27.06M923.83,860.78c-5.68,1.61-11.56,2.72-16.99,4.94-11.96,4.89-17.22,13.16-16.23,26,1.21,15.66,8.96,27.76,22.26,35.97,15.51,9.58,32.47,10.25,49.71,6.38,20.34-4.56,32.57-17.35,36.43-37.92,2.74-14.59-2.43-24.56-15.89-30.73-2.12-.97-4.29-1.91-6.53-2.51-17.14-4.61-34.48-4.86-52.75-2.14M900.27,984.91c-5.85-2.56-11.79-4.93-17.54-7.7-15.34-7.41-26.89-18.99-36.13-33.13-2.94-4.49-6.8-5.46-10.29-3.14-3.53,2.34-4.27,6.39-1.56,10.71,2.65,4.22,5.28,8.54,8.57,12.25,23.74,26.72,53.32,42.11,89.07,45.27,34.49,3.05,65.88-5.73,94.17-25.39,12.11-8.42,21.16-19.79,28.03-32.84,2.11-4.01,1.27-7.79-1.99-9.94-3.47-2.29-7.05-1.36-10.03,2.65-1.02,1.38-1.9,2.86-2.89,4.26-19.92,28.22-47.04,43.4-81.63,45.17-19.56,1-38.58-1.54-57.78-8.17M1068.64,756.65c2.66-.75,5.52-1.08,7.93-2.3,17.51-8.87,34.85-10.74,52.39.06,2.43,1.49,5.95,2.14,8.8,1.79,4.55-.55,7.34-3.81,8.21-8.42.89-4.72-1.13-8.7-5.88-11.66-24.59-15.28-49.29-13.35-74.07-.48-4.76,2.47-7.43,6.14-6.76,11.66.61,5.12,3.86,7.93,9.38,9.35M819.18,753.73c7.64,4.33,14,3.34,17.35-2.72,3.26-5.88.81-11.37-6.63-15.99-12.83-7.96-26.76-10.77-41.6-9.15-11.42,1.24-22.25,4.56-32.1,10.62-4.33,2.66-6.15,6.92-5.26,11.57.82,4.32,4.35,8.2,8.91,8.31,3.06.08,6.38-1.09,9.21-2.47,16.47-8.02,32.9-10.13,50.11-.17M741.09,893.97c-.68-1.4-1.26-2.86-2.07-4.18-5.12-8.32-15.07-12.2-24.3-9.55-9.8,2.82-16.17,11.1-16.16,21.02,0,9.63,6.42,18.46,15.74,20.88,19.95,5.19,32.08-13.79,26.8-28.17M1170.3,879.52c-14.01.01-24.59,10.25-23.53,22.75,1.04,12.26,10.21,20.74,22.31,20.63,11.29-.1,20.64-8.78,21.49-19.94.9-11.79-7.25-21.6-20.27-23.45h0Z"/>
  <path class="st13" d="M808.62,1455.16c-1.05-1.64-2.4-3.32-2.28-4.89,2.91-37.52-5.74-72.81-20.54-107.63,3.01-12.49-1.34-23.76-2.94-35.48,2.52-.96,4.91-1.86,7.27-2.76,3.43,5.06,6.45,9.8,9.76,14.33,4.27,5.84,10.19,9.2,17.35,9.91,10.24,1.03,18.45-2.93,23.96-11.52,5.75-8.96,5.49-18.35-.08-27.37-3.94-6.37-8.32-12.45-12.41-18.73-.68-1.04-1.42-2.59-1.13-3.62.88-3.08,2.26-6.02,3.68-9.61,3.36,3.18,6.34,6.1,9.42,8.9,2.3,2.09,4.55,4.34,7.16,5.97,10.93,6.83,24.66,4.43,32.83-5.53,8.1-9.87,7.49-23.99-1.73-33.65-5.05-5.29-10.49-10.22-15.46-15.51,3.79-6.61,3.32-13.06.44-19.51-2.36-5.27-7.35-7.37-11.73-4.73-4.51,2.71-5.68,7.16-5.96,12.04-8.13-4.25-16.03-8.29-23.71-12.73-3.66-2.12-7.36-4.55-10.21-7.62-7.86-8.46-16.31-16.59-27.39-19.71-11.57-3.26-18.75-10.79-25.49-19.62-2.55-3.34-5.45-6.42-8.1-9.69-13.95-17.18-27.86-34.39-41.79-51.58,4.68-9.85,9.42-19.67,14.01-29.56,1.17-2.51,2.34-3.3,5.35-2.49,33.69,9.11,68.12,13.63,102.84,16.43,52.04,4.19,104.17,4.45,156.29,3.27,48.99-1.11,97.85-4.55,145.96-14.73,8.38-1.77,16.73-3.75,24.99-6.03,3.11-.86,4.85-.58,6.31,2.48,2.94,6.19,6.44,12.13,9.16,18.41.79,1.83-.26,4.46-.87,7.2-21.58,26.25-42.72,52.04-63.98,77.74-1.49,1.8-3.62,3.57-5.78,4.21-14.92,4.39-27.48,12.28-37.53,24.18-1.59,1.88-3.21,4.04-5.31,5.13-6.34,3.28-12.92,6.1-19.4,8.73-.5-4.46-2.38-7.32-6.77-8-4.39-.67-7.08,1.79-8.04,5.45-1.2,4.57-1.44,9.39-2.32,14.33-9.07,8.32-18.51,15.86-26.59,24.66-7.96,8.66-6.97,22.46.72,31.37,10.05,11.63,25.9,11.95,38.05.72,3.63-3.36,7.12-6.86,10.62-10.25,4.29,6.57,5.17,12.35-.57,18.2-2.79,2.84-4.47,6.74-6.84,10.03-7.39,10.26-8.39,20.84-2.07,32.15-9.62.55-13.24,3.95-13.09,12.39.1,5.74,4.56,10.89,9.43,10.89s9.16-4.84,9.32-10.81c.06-2.35.08-4.71.42-6.94,14.4,8.46,27.63,5.64,36.89-7.71,1.51-2.18,2.92-4.42,4.36-6.64,3.91-6.01,4.32-6.08,10.61-2.04-1.41,8.97-2.8,17.86-4.36,27.06-18.7,38.92-29.35,79.12-24.58,122.41-46.18,9.81-93,11.9-140.01,11.21-29.79-.44-59.49-2.4-88.91-7.43-9.66-1.65-19.25-3.78-29.25-5.69M977.29,1130.01c-3.78,6.71-3.74,13.66-.78,20.54,1.52,3.54,4.15,6.24,8.39,6.57,4.3.34,6.72-2.41,8.25-5.74,3.28-7.14,3.63-14.43-.38-21.5-3.89-6.86-11.45-7.04-15.48.13M910.86,1130.08c-3.74-6.13-8.65-7.76-12.32-3.68-5.91,6.55-7.6,21.28-.1,28.71,4.26,4.22,8.41,3.65,11.33-1.55,4.13-7.38,4.53-14.99,1.1-23.48M915,1277.22c-.38-3.84.11-8.09-1.4-11.42-1.36-3-4.54-5.92-7.61-7.2-3.97-1.66-6.54,2.1-8.49,5.03-3.69,5.53-2.76,17.82,1.41,23.1,3.79,4.79,9.49,4.7,12.79-.53,1.54-2.44,2.21-5.43,3.3-8.98M954.98,1210.18c.11-2.48.41-4.98.29-7.45-.2-4.09-4.27-8.97-8.28-9.74-4.31-.82-7.58,1.28-9.99,4.65-4.51,6.3-2.67,15.46,3.76,19.21,5.02,2.94,10.61.53,14.22-6.68M857.9,1319.37c-6.37-2.23-11.47-.4-12.92,5.65-.87,3.64-.39,7.92.62,11.61.94,3.45,4.11,5.24,8.01,5.23,3.89-.01,6.46-1.94,8.15-5.22,3.09-6.01,2.08-11.15-3.85-17.27M982.81,1288.52c2-.74,4.54-.95,5.9-2.33,4.59-4.64,4.5-17.8.22-22.77-2.84-3.3-6.79-3.12-9.48.44-4.69,6.21-3.23,19.17,3.36,24.65M938.37,1330.36c.15,5.01-.25,10.13.71,14.98.43,2.19,3.51,5.23,5.53,5.34,2,.11,5.54-2.68,5.99-4.73,1.13-5.1,1.45-10.56.98-15.77-.27-3.01-2.4-6.13-6.5-6.19-3.87-.06-5.23,2.76-6.72,6.38M817.86,1130.57c.42,1.17.55,2.58,1.31,3.46,1.63,1.89,3.52,4.78,5.41,4.86,1.83.08,4.32-2.5,5.59-4.5,3.24-5.11,2.22-10.74.6-16.12-.85-2.83-2.53-6.28-6.08-5-2.46.89-5.05,3.54-5.98,6.01-1.2,3.2-.79,6.99-.84,11.29M1064.78,1137.23c7.62-1.74,10.61-11.65,5.86-19.43-2.73-4.48-6.97-4.73-10.21-.6-4.24,5.41-2.23,16.14,4.35,20.03Z"/>
  <path class="st14" d="M1037.99,1318.19c-6.53-11.04-5.53-21.62,1.86-31.88,2.37-3.29,4.05-7.19,6.84-10.03,5.73-5.85,4.86-11.63.57-18.2-3.5,3.38-6.99,6.89-10.62,10.25-12.15,11.24-28,10.91-38.05-.72-7.7-8.91-8.68-22.71-.72-31.37,8.08-8.79,17.52-16.34,26.89-24.75,5.96-3.99,11.39-7.66,16.83-11.33,6.49-3,13.07-5.81,19.4-9.09,2.1-1.09,3.72-3.25,5.31-5.13,10.05-11.9,22.6-19.79,37.53-24.18,2.17-.64,4.3-2.41,5.78-4.21,21.26-25.7,42.4-51.49,63.85-77.44-.97,7.3-3.18,14.78-3.28,22.27-.38,28.64,20.61,53.36,48.79,58.48,14.95,2.72,28.78-.2,41.74-7.87.79-.47,1.58-.93,2.36-1.39.35.29.7.58,1.05.87-6.67,8.52-13.35,17.04-20.37,26.01-3.58,4.41-6.82,8.37-10.05,12.32-7.19,8.71-14.37,17.43-21.92,26.57-4.38,5.14-8.4,9.86-12.7,14.76-3.88,3.47-4.16,7.84-5.09,12.33-5.05,24.51-19.25,42.7-39.99,56.21-2.01,1.31-4.08,3.6-4.66,5.82-2.77,10.48-5.3,21.05-7.41,31.68-3.48,17.58-23.56,26.17-38.55,16.41-7.42-4.83-10.3-12.07-11.84-20.22,1.4-8.9,2.79-17.79,4.2-26.76-6.29-4.04-6.7-3.97-10.61,2.04-1.45,2.22-2.85,4.47-4.36,6.64-9.26,13.35-22.49,16.17-37.04,7.44-2.21-2.11-3.97-3.82-5.73-5.54h0Z"/>
  <path class="st14" d="M709.28,1084.67c14.19,17.33,28.11,34.54,42.05,51.72,2.65,3.27,5.55,6.34,8.1,9.69,6.74,8.83,13.92,16.37,25.49,19.62,11.08,3.12,19.53,11.26,27.39,19.71,2.85,3.06,6.55,5.5,10.21,7.62,7.67,4.44,15.58,8.48,23.87,13,5.92,4.26,11.36,8.2,16.79,12.14,5.27,5.09,10.71,10.01,15.76,15.31,9.22,9.66,9.83,23.77,1.73,33.65-8.17,9.97-21.9,12.37-32.83,5.53-2.61-1.63-4.86-3.88-7.16-5.97-3.09-2.8-6.07-5.72-9.42-8.9-1.42,3.59-2.8,6.53-3.68,9.61-.29,1.03.45,2.58,1.13,3.62,4.08,6.28,8.47,12.36,12.41,18.73,5.57,9.02,5.83,18.4.08,27.37-5.51,8.59-13.72,12.55-23.96,11.52-7.16-.72-13.08-4.07-17.35-9.91-3.31-4.53-6.33-9.27-9.76-14.33-2.36.89-4.75,1.8-7.27,2.76,1.59,11.71,5.95,22.98,2.75,35.2-3.41,6.51-7.52,11.87-14.35,14.41-15.32,5.7-30.55-2.33-34.27-18.23-1.8-7.69-3.21-15.46-4.66-23.23-1.49-7.96-5.23-13.55-12.4-18.38-17.28-11.64-28.89-28-34.25-48.4-.7-2.68-1.13-5.49-1.24-8.26-.19-4.73-3.1-6.57-7.3-7.68-.55-1.97-.36-4.21-1.38-5.46-8.95-10.89-18.12-21.59-27.58-32.83-3.16-3.66-5.96-6.84-8.76-10.02-5.97-7.68-11.97-15.34-17.91-23.05-2.27-2.94-4.42-5.96-6.58-9.33.04-.38.13-.48.13-.48,8.08,4.35,16.28,8.12,25.51,9.78,26.98,4.86,57.61-14.02,65.41-40.46,3.96-13.42,3.88-26.6-.3-40.17,1.12,1.31,2.23,2.63,3.61,4.08v.02Z"/>
  <path class="st4" d="M1091.37,1334.67c1.7,7.84,4.58,15.08,12,19.91,14.99,9.76,35.07,1.17,38.55-16.41,2.11-10.64,4.64-21.2,7.41-31.68.59-2.22,2.66-4.51,4.66-5.82,20.74-13.51,34.94-31.7,39.99-56.21.93-4.5,1.21-8.87,5.43-12.41,4.94-1,9.24-1.74,13.55-2.48,7.88.84,16.21.32,23.55,2.76,34.2,11.4,59.89,32.07,68.7,68.77,4.85,20.22.1,39.64-8.03,58.3-9.34,21.43-23.12,39.88-39.12,57.17-6.77-1.72-13.18-4.25-19.84-5.45-11.11-2-22.33-3.72-33.57-4.47-11.12-.75-22.4-.98-33.47.03-19.69,1.8-39.13,5.7-57.07,14.35-9.87,4.76-19.29,10.69-28.25,17.02-8.14,5.75-13.35,14.2-17.25,23.7-.78-1.25-1.22-2.66-1.74-4.38-4.86-43.6,5.8-83.8,24.5-122.72v.02Z"/>
  <path class="st7" d="M979.92,729.87c-10.84,9.85-22.46,17.36-37.4,17.54-9.46.11-17.66-3.92-24.95-9.33-14.64-10.87-24.37-25.35-28.27-43.22-3.58-16.43-1.29-32.17,7.81-46.59,2.5-3.96,6.24-5.17,9.43-3.35,4.02,2.29,5.04,5.75,2.41,10.45-4.84,8.62-7.4,17.69-7.11,27.63.36,12.02,4.84,22.52,12.07,31.74,3.78,4.83,8.43,9.17,13.33,12.89,10.82,8.23,21.99,7.05,33.02,0,13.92-8.89,23.35-21.27,26.54-37.4,2.02-10.21.02-20.44-5.37-29.74-1.45-2.5-2.82-5.17-3.53-7.95-.82-3.19.49-6.17,3.81-7.06,3.2-.86,6.98-.89,8.64,2.72,3.55,7.73,8.02,15.38,9.69,23.56,4.67,22.85-3.98,41.76-20.12,58.11h0Z"/>
  <path class="st7" d="M958.03,638.7c-13.48,3.92-25.98,1.97-37.94-4.07-16.28-8.22-30.15-19.33-39.84-35.01-8.62-13.95-11.96-28.62-4.69-44.39,1.81-3.92,4.64-5.46,8.63-4.39,3.44.92,5.73,5.38,4.29,9.21-8.47,22.59,5.12,36.66,19.54,50.06,4.81,4.47,11.03,7.48,16.75,10.92,10.04,6.03,20.72,7.3,31.87,3.53,17.05-5.77,31.76-14.85,42.34-29.86,7.34-10.41,8.56-21.33,3.58-33.03-2.14-5.04-.96-8.73,3.18-10.51,3.82-1.64,7.42.11,9.52,4.99,6.43,14.93,5.38,29.53-2.94,43.35-12.39,20.61-31.68,31.97-54.31,39.19h.02Z"/>
  <path class="st7" d="M1295.6,1218.79c.98-6.07,1.77-11.75,2.99-17.34.89-4.09,4.92-6,9.2-4.83,3.2.88,5.25,4.5,4.56,8.18-.88,4.72-2.18,9.39-2.65,14.15-2.05,20.81,4.81,38.74,19.33,53.36,9.17,9.24,12.45,9.12,18.99-3.32,3.48-6.62,4.79-14.77,5.55-22.38,1.76-17.55-2.04-34.36-8.87-50.54-2.01-4.77-.49-9.27,3.32-10.64,4.15-1.49,7.52.61,9.64,5.51,7.88,18.18,11.43,37.15,10.06,56.9-.97,14.05-4.46,27.38-14.3,38.15-7.41,8.12-18.59,8.67-28.65,1.04-15.82-12.01-24.29-28.56-28.06-47.58-1.3-6.57-.81-13.49-1.13-20.67h.02Z"/>
  <path class="st7" d="M598.13,1253.68c-6.45,7.5-13.07,14.86-19.26,22.57-2.29,2.85-3.57,6.52-5.53,10.03-2.08.94-4.01,1.56-5.82,2.42-13.01,6.18-21.07,3.59-29.89-7.36-8.25-10.24-11.19-22.52-11.83-35.66-.93-19.12,4.97-36.17,14.02-52.49,2.61-4.7,6.75-6.33,10.39-4.21,3.79,2.2,4.27,6.45,1.62,11.33-6.44,11.86-10.97,24.26-11.96,37.94-.9,12.37,1.34,23.69,8.44,33.94,4.38,6.32,8.14,7.19,14.47,3.21,15.09-9.5,23.26-23.63,25.75-40.85.99-6.89-.39-14.11-.5-21.18-.05-2.89-.48-6.32.87-8.54,1.15-1.9,4.7-3.52,6.98-3.29,3.68.37,5.42,3.73,5.98,7.41,2.11,13.79,2.2,27.45-2.58,40.81-.25.71-.15,1.54-.18,2.71.02.39-.02.33-.21.41-.38.32-.57.57-.76.81h0Z"/>
  <path class="st7" d="M811.16,602.31c-11.54,8.02-17.3,18.88-18.01,32.47-.2,3.82-.25,7.68.1,11.48.12,1.28,1.55,3.34,2.62,3.5,12.41,1.87,24.76,1.8,36.94-1.87,10.6-3.19,18.8-9.24,24.78-18.69,1.25-1.97,4.81-3.35,7.31-3.36,1.82,0,4.65,2.41,5.19,4.28.61,2.13-.26,5.17-1.47,7.25-7.65,13.11-19.55,20.72-33.87,24.65-14.49,3.97-29.18,3.75-43.87.97-7.75-1.47-11.34-5.1-11.7-13.29-.55-12.44-.38-24.73,4.96-36.62,6.36-14.14,17.04-23.03,30.92-28.74,2.16-.89,4.42-1.51,6.66-2.19,4.22-1.29,7.87.58,9.18,4.63.99,3.07-1.3,7.09-4.68,8.57-4.96,2.18-9.87,4.48-15.06,6.94v.02Z"/>
  <path class="st7" d="M1096.87,644.96c-.11,7.81-4.37,11.56-11.05,13.52-17.85,5.24-35.25,5.39-51.97-3.94-10.66-5.95-17.17-15.63-22.86-25.91-1.8-3.26.21-7.49,3.53-9.09,3.32-1.6,7.43-.13,9.42,3.71,4.33,8.34,10.05,15.23,18.5,19.8,12.39,6.7,25.07,6.22,37.95,2.12,1.06-.34,2.39-2.26,2.31-3.36-1.38-19.65-4.9-38.48-22.24-51.15-2.84-2.08-6.25-3.4-9.48-4.91-6.07-2.84-7.54-9.24-2.37-12.33,2.14-1.28,5.87-1.32,8.32-.41,13.92,5.18,23.94,14.95,30.38,28.18,6.64,13.63,9.39,28.25,9.57,43.79v-.02Z"/>
  <path class="st7" d="M1253.43,937.73c6,8.63,6.5,8.86,11.76-.08,8.54-14.5,11-30.21,7.49-46.77-.61-2.88-1.02-5.8-1.44-8.71-.63-4.37,1.76-7.19,5.61-7.86,4.04-.71,6.59,1.93,7.81,5.82,3.23,10.24,4.25,20.81,3.32,31.38-1.12,12.68-4.86,24.71-11.98,35.47-1.2,1.81-2.47,3.6-3.85,5.27-7.04,8.5-15.9,9.16-23.78,1.46-9.22-9.01-14.09-20.46-16.86-32.77-3.2-14.21-1.96-28.22,4.37-41.41,1.12-2.33,4.48-4.5,7.08-4.88,1.73-.25,4.44,2.49,5.76,4.51.84,1.29.42,3.9-.25,5.6-7.18,18.39-5.77,35.94,4.95,52.98h.01Z"/>
  <path class="st7" d="M624.82,946.8c2.76-2.4,5.94-4.56,7.57-7.56,8.46-15.58,10-32.12,5.92-49.29-.46-1.94-.76-3.97-.77-5.96-.02-3.42,1.81-5.59,5.2-6.16,3.59-.61,6.7.3,7.84,4.12,3.46,11.58,4.69,23.36,3.29,35.45-1.26,10.83-4.45,20.98-10.14,30.22-2.42,3.92-5.39,7.7-8.8,10.77-6.27,5.64-13.14,5.06-19.53-1.03-9.1-8.67-14.15-19.63-17.18-31.54-3.72-14.62-2.41-28.96,3.64-42.82,1.91-4.38,6-6.48,9.7-4.96,3.48,1.43,5.12,5.52,3.32,9.87-6.87,16.6-6.07,32.8,2.38,48.55,1.96,3.65,4.82,6.81,7.58,10.35h-.02Z"/>
  <path class="st7" d="M680.25,705.51c-2.73-21.57,2.73-40.14,17.78-55.57,1.51-1.55,3.29-2.85,5.03-4.15,3.19-2.39,6.23-2.25,9.19.57,3.13,2.98,2.79,6.22.47,9.19-2.17,2.78-5.02,5.02-7.4,7.66-11.93,13.22-13.54,28.8-10.29,45.49.61,3.12,2.62,3.64,5.18,2.96,9.12-2.44,16.77-7.51,23.1-14.31,6.93-7.44,10.86-16.54,13.02-26.48.98-4.52,4.52-6.66,8.6-5.86,3.8.75,5.66,3.99,5,8.7-3.32,23.65-23.6,46.07-46.92,51.68-2.95.71-6.19,1.37-9.11.87-7.42-1.25-12.19-8.11-13.29-18.04-.09-.77-.16-1.55-.38-2.72h.02Z"/>
  <path class="st7" d="M1200.87,663.24c5.94,15.28,5.57,30.37.91,45.45-1.9,6.15-6.25,8.31-14.95,6.75-22.96-4.12-40.68-15.79-51.34-37.06-.97-1.94-1.77-3.99-2.5-6.04-1.72-4.84.14-9.32,4.38-10.77,3.25-1.11,7.24,1.33,8.89,5.77,2.81,7.56,6.77,14.31,12.71,19.89,7.83,7.37,17.26,11.53,27.56,13.87.96.22,3.21-1.3,3.41-2.31,2.9-14.26,1.63-27.91-7.7-39.73-2.92-3.7-6.98-6.5-10.45-9.79-2.68-2.55-6.07-4.89-3.77-9.45,2.27-4.48,6.68-5.35,11.5-2.32,9.83,6.17,16.75,14.76,21.34,25.73h0Z"/>
  <path class="st7" d="M657.54,813.41c-4.28,8.44-10.54,14.76-18.1,19.46-7.17,4.46-9.68,3.06-13.67-1.98-11.38-14.4-15.14-30.89-11.55-48.74,1.36-6.76,4.28-13.25,6.97-19.66,1.92-4.58,6.56-6.2,10.35-4.34,3.1,1.52,4.08,6.05,2.44,10.36-2.2,5.79-5.05,11.48-6.18,17.49-2.16,11.48-.14,22.5,6.42,32.92,8.64-6.21,13.55-14.46,16.27-24.05,1.96-6.9,3.05-13.97,1.17-21.16-.34-1.32-.08-2.8-.11-4.2-.09-4.17,1.89-6.91,5.9-7.84,3.02-.7,7.54,2.86,7.99,6.56,1.93,15.71.94,30.98-7.92,45.19h.02Z"/>
  <path class="st7" d="M1234.69,773.03c-.8,12.12,1.38,23.12,8.21,32.79,2.63,3.73,6.07,6.89,10.07,11.34,2.05-4.98,3.95-8.67,5.09-12.57,3.78-12.85,2-25.21-3.96-37.07-.63-1.25-1.32-2.49-1.85-3.78-1.39-3.38.11-7.59,3.25-9.24,2.8-1.48,7.15-.23,8.98,2.93,12.67,21.86,13.51,45.29-.3,67.19-5.86,9.3-9.8,11.01-19.42,3.49-11.6-9.08-20.01-20.77-22.4-35.46-1.44-8.89-.9-18.18-.53-27.25.15-3.69,3.38-6.08,7.37-5.65,3.87.41,6.19,2.95,6.33,6.9.07,1.98-.54,3.98-.85,6.4v-.02Z"/>
  <path class="st7" d="M1233.98,1190.95c2.94-4.1,6.18-8.05,9.68-12.15,3.15,4.59,5.78,9.51,8.95,14.04,6.81,9.73,11.89,9.49,18.79-.32,8.9-12.66,12.62-26.9,12.87-42.13.06-3.97-.66-8.06-1.7-11.91-1.1-4.1-1.03-7.48,2.22-10.63,1.85-1.79,3.15-4.15,5.35-7.14,1.43,2.33,2.82,3.94,3.51,5.8,7.77,20.84,5.05,41.16-3.47,61.06-3.71,8.65-8.47,16.71-16.47,22.23-9.22,6.36-18.65,5.79-26.47-2.32-4.81-4.99-8.69-10.89-13.28-16.52h.02Z"/>
  <path class="st7" d="M639.08,1184.32c3.13,3.16,5.93,6.34,8.83,9.81-4.21,3.58-8.2,7.43-12.9,10.02-9.51,5.24-19.12,3.04-25.74-5.54-8.29-10.74-12.82-23.13-13.84-36.55-.67-8.77-.15-17.63-.08-26.45,0-1.11.47-2.22.88-4.04,4.28,4.96,8.24,9.09,11.57,13.69,1.08,1.49.58,4.2.62,6.36.23,11.02,2.37,21.6,7.43,31.46,1.27,2.47,2.82,4.86,4.6,6.98,2.53,3.02,5.8,3.72,9.15,1.39,3.16-2.2,6.11-4.73,9.48-7.13h0Z"/>
  <path class="st13" d="M1212.96,1229.22c-4.31,1.09-8.61,1.83-13.26,2.65,3.67-4.63,7.69-9.35,12.01-14.19.62,3.65.94,7.42,1.25,11.54h0Z"/>
  <path class="st7" d="M583.53,1000.88c-1.9,1.25-3.52,2.32-5.13,3.39-.28-.29-.56-.57-.84-.86,2.63-4.46,3.12-10.79,9.85-11.75,1.98-.28,4.29,1.69,6.45,2.62-.1.52-.21,1.04-.31,1.56-3.24,1.62-6.49,3.24-10.02,5.04h0Z"/>
  <path class="st7" d="M1296.93,999.49c4.79-1.88,8.2-.73,10.34,3.64,1.57,3.21,3.08,6.45,3.69,10.11-4.94-4-9.89-7.98-14.78-12.04-.17-.14.28-1.01.74-1.71h.01Z"/>
  <path class="st14" d="M1265,1150.89c.09-.07.15.17.15.17,0,0-.25-.1-.15-.17Z"/>
  <path class="st14" d="M614.04,1150.59c.32.05.59.19.91.64.1.21,0,.31-.05.36-.3-.15-.54-.36-.81-.8-.03-.23-.05-.2-.05-.2Z"/>
  <path class="st14" d="M614.08,1150.55c-.13-.13-.28-.24-.43-.35.09.04.17.08.33.26.06.14.09.1.1.09Z"/>
  <path class="st7" d="M1312.06,1015.14c-.05.03.05-.03,0,0Z"/>
  <path class="st0" d="M1206.78,1511.32c2.31-5.99,5.49-11.74,7.74-17.83,5.15-13.91,5.52-28.24,2.6-42.71-.12-.61-.21-1.23-.22-1.85-.01-.45.11-.91.18-1.42,7.5,9.02,15.7,38.31,8.41,63.29-6.05.43-12.15.52-18.7.52h-.01Z"/>
  <path class="st0" d="M647.1,1511.26c-1.32-9.2-2.84-18.28-2.91-27.36-.1-12.49,4.18-24.11,9.33-35.36.22-.49.74-.84,1.66-1.21-4.85,22.6-1.33,43.66,10.56,63.61-6.01.36-12.11.4-18.65.32h.01Z"/>
  <path class="st0" d="M605.92,1505.98c-.63-7.77-1.39-15.38-1.15-22.96.4-12.28,4.32-23.75,9.56-34.78.17-.35.64-.56,2.05-1.76-5.09,22.64-2.34,43.16,8.99,62.64-6.32-.78-12.73-1.88-19.45-3.14h0Z"/>
  <path class="st0" d="M1247.14,1509.51c2.8-8.3,6.59-16.37,9.08-24.82,3.3-11.24,2.56-22.78.23-34.2-.2-.96-.03-1.99.85-3.27.9,1.89,1.87,3.75,2.68,5.68,6.71,15.98,9.49,32.49,6.62,49.76-.13.76-.05,1.56-.03,2.74-6.32,1.66-12.66,2.92-19.42,4.11h0Z"/>
  <path class="st15" d="M598.35,1253.6c-.03-.16.16-.41.57-.75.03.16-.16.41-.57.75Z"/>
  <path class="st0" d="M616.15,1444.98c.17-.12.34-.06.5,0-.17.06-.34.12-.5,0Z"/>
  <path class="st0" d="M655.52,1444.98c.17-.12.33-.06.5,0-.17.06-.33.12-.5,0Z"/>
  <path class="st0" d="M1216.27,1445.27c.01-.28.15-.43.28-.59-.05.24-.1.48-.28.59Z"/>
  <path class="st0" d="M1255.93,1444.69c-.02.28-.15.43-.29.58.06-.24.11-.48.29-.58Z"/>
  <path class="st3" d="M798.56,770.89c17.58,4,29.24,14.68,35.53,30.73,9.63,24.61,9.24,49.19-3.47,72.73-9.15,16.95-23.35,27.44-43.15,27.41-20.37-.04-35.61-10.12-44.72-28.09-12.54-24.74-12.98-50.24-.67-75.19,10.8-21.89,32.14-31.91,56.47-27.59M820.21,806.28c-.32-1.36-.48-2.77-.97-4.06-2.95-7.75-11.81-11.67-19.6-8.75-7.96,2.99-11.95,11.66-8.94,19.44,2.49,6.44,9.48,10.43,16.57,9.47,7.45-1.02,12.36-6.8,12.94-16.1h0Z"/>
  <path class="st3" d="M1097.64,901.34c-17.86-2.33-30.68-11.68-38.49-27.03-13.6-26.72-13.84-53.89,1.4-79.98,10.53-18.03,27.4-25.99,48.21-24.21,19.5,1.66,33.36,12.25,40.61,30.09,11.38,28.02,10.48,55.63-7.28,81.02-10.48,14.98-25.36,22.17-44.44,20.12M1085.98,822.44c9.26-1.09,15.24-7.68,14.59-16.07-.61-7.84-7.53-14.07-15.45-13.91-8.26.16-14.91,6.74-15,14.85-.09,8.39,5.98,14.49,15.86,15.13Z"/>
  <path class="st1" d="M924.24,860.72c17.86-2.66,35.21-2.41,52.34,2.2,2.24.6,4.42,1.54,6.53,2.51,13.46,6.16,18.63,16.14,15.89,30.73-3.87,20.57-16.09,33.36-36.43,37.92-17.23,3.86-34.2,3.2-49.71-6.38-13.29-8.21-21.05-20.31-22.26-35.97-.99-12.85,4.27-21.11,16.23-26,5.43-2.22,11.31-3.33,17.4-5M908.94,918.96c3.73,2.12,7.24,4.94,11.25,6.19,5.39,1.67,9.11-1.88,8.92-7.48-.28-8.64-10.65-19.13-19.2-19.42-5.56-.19-9.16,3.63-7.47,8.89,1.29,4.02,3.97,7.58,6.5,11.83M962.99,913.28c-.85,3.75-1.63,7.65,2.19,10.2,3.69,2.46,7.54,1.18,11.08-.7,6.03-3.22,10.6-8.02,12.22-14.66.68-2.78.08-7.02-1.71-8.89-1.58-1.65-5.89-1.81-8.55-1.06-7.36,2.08-11.97,7.55-15.22,15.11h-.01Z"/>
  <path class="st8" d="M900.61,985.06c18.86,6.48,37.89,9.02,57.44,8.02,34.6-1.77,61.71-16.94,81.63-45.17.99-1.4,1.87-2.89,2.89-4.26,2.98-4.01,6.56-4.94,10.03-2.65,3.26,2.15,4.1,5.93,1.99,9.94-6.87,13.05-15.92,24.42-28.03,32.84-28.29,19.66-59.68,28.45-94.17,25.39-35.75-3.16-65.33-18.55-89.07-45.27-3.29-3.7-5.92-8.03-8.57-12.25-2.71-4.32-1.97-8.37,1.56-10.71,3.49-2.32,7.35-1.35,10.29,3.14,9.24,14.13,20.78,25.72,36.13,33.13,5.75,2.77,11.69,5.15,17.88,7.85h0Z"/>
  <path class="st11" d="M1068.27,756.6c-5.14-1.36-8.39-4.17-9.01-9.29-.66-5.52,2-9.19,6.76-11.66,24.78-12.87,49.48-14.8,74.07.48,4.75,2.95,6.78,6.94,5.88,11.66-.87,4.61-3.67,7.88-8.21,8.42-2.85.34-6.38-.3-8.8-1.79-17.54-10.8-34.88-8.93-52.39-.06-2.41,1.22-5.28,1.56-8.3,2.25h0Z"/>
  <path class="st11" d="M818.89,753.53c-16.92-9.77-33.35-7.65-49.82.37-2.83,1.38-6.15,2.55-9.21,2.47-4.56-.11-8.09-4-8.91-8.31-.89-4.65.93-8.91,5.26-11.57,9.85-6.06,20.68-9.38,32.1-10.62,14.84-1.61,28.78,1.19,41.6,9.15,7.44,4.62,9.89,10.11,6.63,15.99-3.36,6.06-9.72,7.06-17.65,2.53h0Z"/>
  <path class="st12" d="M741.23,894.32c5.15,14.03-6.99,33.01-26.94,27.82-9.32-2.42-15.73-11.25-15.74-20.88,0-9.92,6.36-18.2,16.16-21.02,9.23-2.65,19.18,1.23,24.3,9.55.81,1.32,1.39,2.78,2.21,4.53h.01Z"/>
  <path class="st12" d="M1170.72,879.55c12.6,1.82,20.75,11.63,19.85,23.42-.85,11.16-10.2,19.84-21.49,19.94-12.1.11-21.28-8.38-22.31-20.63-1.06-12.51,9.52-22.74,23.95-22.73h0Z"/>
  <path class="st2" d="M977.46,1129.69c3.86-6.86,11.42-6.68,15.31.18,4.01,7.07,3.66,14.35.38,21.5-1.53,3.33-3.96,6.08-8.25,5.74-4.23-.33-6.87-3.03-8.39-6.57-2.95-6.89-3-13.83.96-20.85h-.01Z"/>
  <path class="st2" d="M911.02,1130.41c3.26,8.16,2.87,15.77-1.27,23.15-2.91,5.2-7.07,5.77-11.33,1.55-7.5-7.42-5.8-22.16.1-28.71,3.68-4.08,8.58-2.45,12.49,4.01h.01Z"/>
  <path class="st2" d="M914.99,1277.63c-1.08,3.15-1.75,6.13-3.29,8.57-3.3,5.23-9,5.32-12.79.53-4.18-5.28-5.11-17.57-1.41-23.1,1.96-2.93,4.52-6.7,8.49-5.03,3.07,1.29,6.25,4.21,7.61,7.2,1.51,3.33,1.02,7.57,1.39,11.83h0Z"/>
  <path class="st2" d="M954.82,1210.52c-3.45,6.86-9.04,9.26-14.06,6.33-6.42-3.75-8.27-12.91-3.76-19.21,2.41-3.37,5.68-5.47,9.99-4.65,4.01.77,8.08,5.65,8.28,9.74.12,2.47-.18,4.96-.45,7.8h0Z"/>
  <path class="st2" d="M858.21,1319.55c5.62,5.93,6.63,11.07,3.54,17.08-1.69,3.28-4.25,5.21-8.15,5.22s-7.06-1.77-8.01-5.23c-1.01-3.68-1.49-7.97-.62-11.61,1.45-6.06,6.55-7.88,13.24-5.47h0Z"/>
  <path class="st2" d="M1037.78,1318.47c1.97,1.44,3.73,3.15,5.63,5.14.11,2.62.1,4.98.03,7.33-.16,5.98-4.35,10.81-9.32,10.81s-9.33-5.15-9.43-10.89c-.15-8.44,3.47-11.84,13.09-12.39Z"/>
  <path class="st2" d="M982.5,1288.38c-6.28-5.35-7.73-18.3-3.05-24.51,2.68-3.56,6.63-3.74,9.48-.44,4.28,4.97,4.37,18.13-.22,22.77-1.36,1.37-3.9,1.58-6.21,2.18h0Z"/>
  <path class="st2" d="M863.48,1217.98c-5.73-3.74-11.17-7.68-16.77-11.89-.21-5.2.97-9.65,5.47-12.36,4.39-2.64,9.38-.54,11.73,4.73,2.88,6.45,3.35,12.9-.44,19.51h.01Z"/>
  <path class="st2" d="M938.45,1329.99c1.41-3.25,2.76-6.06,6.63-6.01,4.1.06,6.23,3.19,6.5,6.19.47,5.21.15,10.67-.98,15.77-.45,2.05-4,4.84-5.99,4.73-2.02-.11-5.1-3.15-5.53-5.34-.96-4.85-.56-9.97-.63-15.35h0Z"/>
  <path class="st2" d="M817.74,1130.19c.17-3.92-.24-7.71.96-10.91.92-2.47,3.52-5.12,5.98-6.01,3.55-1.28,5.22,2.17,6.08,5,1.62,5.38,2.64,11.01-.6,16.12-1.27,2-3.76,4.59-5.59,4.5-1.89-.09-3.78-2.97-5.41-4.86-.76-.88-.89-2.29-1.43-3.84h0Z"/>
  <path class="st2" d="M1064.46,1137.1c-6.25-3.76-8.27-14.49-4.03-19.9,3.24-4.13,7.48-3.88,10.21.6,4.75,7.79,1.76,17.69-6.18,19.3h0Z"/>
  <path class="st2" d="M1041.59,1199.8c-5.44,4.03-10.88,7.7-16.61,11.46.36-4.62.6-9.43,1.8-14,.96-3.67,3.66-6.13,8.04-5.45,4.39.67,6.27,3.54,6.77,8h0Z"/>
  <path class="st9" d="M820.25,806.67c-.62,8.91-5.53,14.69-12.98,15.71-7.09.97-14.08-3.02-16.57-9.47-3.01-7.78.98-16.45,8.94-19.44,7.79-2.93,16.65,1,19.6,8.75.49,1.29.66,2.7,1.01,4.45h0Z"/>
  <path class="st9" d="M1085.58,822.44c-9.48-.64-15.55-6.75-15.46-15.13.09-8.11,6.73-14.69,15-14.85,7.92-.15,14.83,6.08,15.45,13.91.66,8.39-5.32,14.98-14.99,16.07Z"/>
  <path class="st10" d="M908.71,918.72c-2.29-4.01-4.97-7.58-6.27-11.59-1.69-5.26,1.91-9.08,7.47-8.89,8.55.29,18.92,10.78,19.2,19.42.18,5.6-3.53,9.16-8.92,7.48-4-1.24-7.52-4.07-11.48-6.43h0Z"/>
  <path class="st10" d="M963.12,912.95c3.12-7.23,7.73-12.7,15.09-14.78,2.66-.75,6.97-.59,8.55,1.06,1.79,1.87,2.39,6.12,1.71,8.89-1.62,6.63-6.18,11.44-12.22,14.66-3.54,1.89-7.39,3.17-11.08.7-3.81-2.54-3.04-6.45-2.05-10.53h0Z"/>
</svg>