<svg width="24" height="24" viewBox="0 0 24 24" fill="none" xmlns="http://www.w3.org/2000/svg">
<path d="M12 2C13.4 2 14.7084 2.25834 15.925 2.775C17.1417 3.29167 18.2 4 19.1 4.9C20 5.8 20.7084 6.85835 21.225 8.075C21.7416 9.29165 22 10.6 22 12C22 13.4 21.7416 14.7084 21.225 15.925C20.7084 17.1417 20 18.2 19.1 19.1C18.2 20 17.1417 20.7084 15.925 21.225C14.7084 21.7416 13.4 22 12 22C10.6 22 9.29165 21.7416 8.075 21.225C6.85835 20.7084 5.8 20 4.9 19.1C4 18.2 3.29167 17.1417 2.775 15.925C2.25834 14.7084 2 13.4 2 12C2 10.6 2.25834 9.29165 2.775 8.075C3.29167 6.85835 4 5.8 4.9 4.9C5.8 4 6.85835 3.29167 8.075 2.775C9.29165 2.25834 10.6 2 12 2ZM9.85 6.85C9.85 7.48335 10.05 8 10.45 8.4C10.85 8.8 11.3666 9 12 9C12.6334 9 13.15 8.8 13.55 8.4C13.95 8 14.15 7.48335 14.15 6.85C14.15 6.21665 13.95 5.7 13.55 5.3C13.15 4.9 12.6334 4.7 12 4.7C11.3666 4.7 10.85 4.9 10.45 5.3C10.05 5.7 9.85 6.21665 9.85 6.85ZM12 10C10.7833 10 9.64585 10.1958 8.5875 10.5875C7.52915 10.9791 7 11.7 7 12.75V16.725C7 17.775 7.52915 18.4875 8.5875 18.8625C9.64585 19.2375 10.7833 19.425 12 19.425C12.2833 19.425 12.5167 19.3333 12.7 19.15C12.8833 18.9667 12.975 18.7334 12.975 18.45C12.975 18.1667 12.8833 17.9333 12.7 17.75C12.5167 17.5667 12.2833 17.475 12 17.475C11.6 17.4417 11.2084 17.3792 10.825 17.2875C10.4416 17.1959 10.0666 17.0666 9.7 16.9C9.56665 16.8333 9.46665 16.7416 9.4 16.625C9.33335 16.5084 9.33335 16.3834 9.4 16.25C9.65 15.8167 10.0209 15.5458 10.5125 15.4375C11.0041 15.3292 11.5 15.275 12 15.275C12.6334 15.275 13.2458 15.3292 13.8375 15.4375C14.4291 15.5458 14.725 15.875 14.725 16.425V18.025C14.725 18.2083 14.7833 18.3625 14.9 18.4875C15.0166 18.6125 15.1667 18.675 15.35 18.675C15.8334 18.675 16.2292 18.4791 16.5375 18.0875C16.8458 17.6958 17 17.2417 17 16.725V12.75C17 11.7 16.4708 10.9791 15.4125 10.5875C14.3542 10.1958 13.2167 10 12 10ZM12 14.725C11.6 14.725 11.2667 14.5917 11 14.325C10.7333 14.0583 10.6 13.725 10.6 13.325C10.6 12.925 10.7333 12.5917 11 12.325C11.2667 12.0583 11.6 11.925 12 11.925C12.4 11.925 12.7333 12.0583 13 12.325C13.2667 12.5917 13.4 12.925 13.4 13.325C13.4 13.725 13.2667 14.0583 13 14.325C12.7333 14.5917 12.4 14.725 12 14.725Z" fill="#F34D08"/>
</svg>
