<svg width="28" height="28" viewBox="0 0 28 28" fill="none" xmlns="http://www.w3.org/2000/svg">
<path d="M20.6583 18.3274C20.7032 18.2825 20.7565 18.2468 20.8151 18.2225C20.8738 18.1982 20.9367 18.1857 21.0002 18.1857C21.0637 18.1857 21.1265 18.1982 21.1852 18.2225C21.2439 18.2468 21.2971 18.2825 21.342 18.3274C21.7475 18.733 22.2672 19.0052 22.8315 19.1075C23.3959 19.2099 23.978 19.1376 24.5002 18.9003V23.3359C24.8096 23.3359 25.1063 23.4589 25.3251 23.6776C25.5439 23.8964 25.6668 24.1932 25.6668 24.5026C25.6668 24.812 25.5439 25.1088 25.3251 25.3276C25.1063 25.5464 24.8096 25.6693 24.5002 25.6693H3.50016C3.19074 25.6693 2.894 25.5464 2.6752 25.3276C2.45641 25.1088 2.3335 24.812 2.3335 24.5026C2.3335 24.1932 2.45641 23.8964 2.6752 23.6776C2.894 23.4589 3.19074 23.3359 3.50016 23.3359V18.9003C4.5385 19.3728 5.80433 19.1814 6.65833 18.3286C6.70319 18.2837 6.75647 18.248 6.81513 18.2237C6.87379 18.1994 6.93666 18.1868 7.00016 18.1868C7.06366 18.1868 7.12654 18.1994 7.1852 18.2237C7.24385 18.248 7.29713 18.2837 7.342 18.3286C7.60352 18.5901 7.914 18.7976 8.2557 18.9391C8.5974 19.0807 8.96364 19.1535 9.3335 19.1535C9.70335 19.1535 10.0696 19.0807 10.4113 18.9391C10.753 18.7976 11.0635 18.5901 11.325 18.3286C11.3699 18.2837 11.4231 18.248 11.4818 18.2237C11.5405 18.1994 11.6033 18.1868 11.6668 18.1868C11.7303 18.1868 11.7932 18.1994 11.8519 18.2237C11.9105 18.248 11.9638 18.2837 12.0087 18.3286C12.2702 18.5901 12.5807 18.7976 12.9224 18.9391C13.2641 19.0807 13.6303 19.1535 14.0002 19.1535C14.37 19.1535 14.7363 19.0807 15.078 18.9391C15.4197 18.7976 15.7301 18.5901 15.9917 18.3286C16.0365 18.2837 16.0898 18.248 16.1485 18.2237C16.2071 18.1994 16.27 18.1868 16.3335 18.1868C16.397 18.1868 16.4599 18.1994 16.5185 18.2237C16.5772 18.248 16.6305 18.2837 16.6753 18.3286C16.9369 18.5901 17.2473 18.7976 17.589 18.9391C17.9307 19.0807 18.297 19.1535 18.6668 19.1535C19.0367 19.1535 19.4029 19.0807 19.7446 18.9391C20.0863 18.7976 20.3968 18.5901 20.6583 18.3286V18.3274ZM18.6668 7.0026C18.9762 7.0026 19.273 7.12552 19.4918 7.34431C19.7106 7.56311 19.8335 7.85985 19.8335 8.16927V10.5026H21.0002C21.9284 10.5026 22.8187 10.8714 23.475 11.5277C24.1314 12.1841 24.5002 13.0743 24.5002 14.0026V15.8529L23.6753 16.6778C23.6305 16.7227 23.5772 16.7584 23.5185 16.7827C23.4599 16.807 23.397 16.8195 23.3335 16.8195C23.27 16.8195 23.2071 16.807 23.1485 16.7827C23.0898 16.7584 23.0365 16.7227 22.9917 16.6778C22.7301 16.4162 22.4197 16.2088 22.078 16.0672C21.7363 15.9257 21.37 15.8528 21.0002 15.8528C20.6303 15.8528 20.2641 15.9257 19.9224 16.0672C19.5807 16.2088 19.2702 16.4162 19.0087 16.6778C18.9638 16.7227 18.9105 16.7584 18.8519 16.7827C18.7932 16.807 18.7303 16.8195 18.6668 16.8195C18.6033 16.8195 18.5405 16.807 18.4818 16.7827C18.4231 16.7584 18.3699 16.7227 18.325 16.6778C18.0635 16.4162 17.753 16.2088 17.4113 16.0672C17.0696 15.9257 16.7034 15.8528 16.3335 15.8528C15.9636 15.8528 15.5974 15.9257 15.2557 16.0672C14.914 16.2088 14.6035 16.4162 14.342 16.6778C14.2971 16.7227 14.2439 16.7584 14.1852 16.7827C14.1265 16.807 14.0637 16.8195 14.0002 16.8195C13.9367 16.8195 13.8738 16.807 13.8151 16.7827C13.7565 16.7584 13.7032 16.7227 13.6583 16.6778C13.3968 16.4162 13.0863 16.2088 12.7446 16.0672C12.4029 15.9257 12.0367 15.8528 11.6668 15.8528C11.297 15.8528 10.9307 15.9257 10.589 16.0672C10.2473 16.2088 9.93685 16.4162 9.67533 16.6778C9.63047 16.7227 9.57719 16.7584 9.51853 16.7827C9.45987 16.807 9.397 16.8195 9.3335 16.8195C9.27 16.8195 9.20712 16.807 9.14846 16.7827C9.08981 16.7584 9.03652 16.7227 8.99166 16.6778C8.73014 16.4162 8.41966 16.2088 8.07796 16.0672C7.73626 15.9257 7.37002 15.8528 7.00016 15.8528C6.6303 15.8528 6.26407 15.9257 5.92237 16.0672C5.58066 16.2088 5.27019 16.4162 5.00866 16.6778C4.9638 16.7227 4.91052 16.7584 4.85186 16.7827C4.79321 16.807 4.73033 16.8195 4.66683 16.8195C4.60333 16.8195 4.54045 16.807 4.4818 16.7827C4.42314 16.7584 4.36986 16.7227 4.325 16.6778L3.50016 15.8529V14.0026C3.50016 13.0743 3.86891 12.1841 4.52529 11.5277C5.18167 10.8714 6.07191 10.5026 7.00016 10.5026H8.16683V8.16927C8.16683 7.85985 8.28975 7.56311 8.50854 7.34431C8.72733 7.12552 9.02408 7.0026 9.3335 7.0026C9.64292 7.0026 9.93966 7.12552 10.1585 7.34431C10.3772 7.56311 10.5002 7.85985 10.5002 8.16927V10.5026H12.8335V8.16927C12.8335 7.85985 12.9564 7.56311 13.1752 7.34431C13.394 7.12552 13.6907 7.0026 14.0002 7.0026C14.3096 7.0026 14.6063 7.12552 14.8251 7.34431C15.0439 7.56311 15.1668 7.85985 15.1668 8.16927V10.5026H17.5002V8.16927C17.5002 7.85985 17.6231 7.56311 17.8419 7.34431C18.0607 7.12552 18.3574 7.0026 18.6668 7.0026ZM14.5835 2.33594C14.2113 3.08027 14.5508 3.56094 14.846 3.98094C15.014 4.21777 15.1668 4.43594 15.1668 4.66927C15.1668 4.97869 15.0439 5.27544 14.8251 5.49423C14.6063 5.71302 14.3096 5.83594 14.0002 5.83594C13.6907 5.83594 13.394 5.71302 13.1752 5.49423C12.9564 5.27544 12.8335 4.97869 12.8335 4.66927C12.8335 4.02527 13.4168 2.91927 14.5835 2.33594ZM9.91683 2.33594C9.54466 3.08027 9.88416 3.56094 10.1793 3.98094C10.3473 4.21777 10.5002 4.43594 10.5002 4.66927C10.5002 4.97869 10.3772 5.27544 10.1585 5.49423C9.93966 5.71302 9.64292 5.83594 9.3335 5.83594C9.02408 5.83594 8.72733 5.71302 8.50854 5.49423C8.28975 5.27544 8.16683 4.97869 8.16683 4.66927C8.16683 4.02527 8.75016 2.91927 9.91683 2.33594ZM19.2502 2.33594C18.878 3.08027 19.2175 3.56094 19.5127 3.98094C19.6807 4.21777 19.8335 4.43594 19.8335 4.66927C19.8335 4.97869 19.7106 5.27544 19.4918 5.49423C19.273 5.71302 18.9762 5.83594 18.6668 5.83594C18.3574 5.83594 18.0607 5.71302 17.8419 5.49423C17.6231 5.27544 17.5002 4.97869 17.5002 4.66927C17.5002 4.02527 18.0835 2.91927 19.2502 2.33594Z" fill="#182A4F"/>
</svg>
