<svg width="19" height="18" viewBox="0 0 19 18" fill="none" xmlns="http://www.w3.org/2000/svg">
<path d="M9.42247 6.39688L12.8977 9.87212H5.94724L9.42247 6.39688ZM9.42247 0.315207C8.22062 0.315207 7.09117 0.54327 6.03412 0.999395C4.97706 1.45552 4.05757 2.07455 3.27564 2.85647C2.49372 3.6384 1.87469 4.55789 1.41856 5.61495C0.962438 6.672 0.734375 7.80145 0.734375 9.00331C0.734375 10.2052 0.962438 11.3346 1.41856 12.3917C1.87469 13.4487 2.49372 14.3682 3.27564 15.1501C4.05757 15.9321 4.97706 16.5511 6.03412 17.0072C7.09117 17.4633 8.22062 17.6914 9.42247 17.6914C10.6243 17.6914 11.7538 17.4633 12.8108 17.0072C13.8679 16.5511 14.7874 15.9321 15.5693 15.1501C16.3512 14.3682 16.9703 13.4487 17.4264 12.3917C17.8825 11.3346 18.1106 10.2052 18.1106 9.00331C18.1106 7.80145 17.8825 6.672 17.4264 5.61495C16.9703 4.55789 16.3512 3.6384 15.5693 2.85647C14.7874 2.07455 13.8679 1.45552 12.8108 0.999395C11.7538 0.54327 10.6243 0.315207 9.42247 0.315207ZM9.42247 2.05283C11.3628 2.05283 13.0063 2.72615 14.353 4.07281C15.6996 5.41947 16.373 7.06296 16.373 9.00331C16.373 10.9436 15.6996 12.5871 14.353 13.9338C13.0063 15.2805 11.3628 15.9538 9.42247 15.9538C7.48213 15.9538 5.83863 15.2805 4.49198 13.9338C3.14532 12.5871 2.47199 10.9436 2.47199 9.00331C2.47199 7.06296 3.14532 5.41947 4.49198 4.07281C5.83863 2.72615 7.48213 2.05283 9.42247 2.05283Z" fill="#F35908"/>
</svg>
