<svg width="18" height="17" viewBox="0 0 18 17" fill="none" xmlns="http://www.w3.org/2000/svg">
<path d="M9.00521 11.0482L12.3385 7.71485H5.67188L9.00521 11.0482ZM9.00521 16.8815C7.85243 16.8815 6.7691 16.6628 5.75521 16.2253C4.74132 15.7878 3.85938 15.194 3.10938 14.444C2.35938 13.694 1.76563 12.8121 1.32813 11.7982C0.890625 10.7843 0.671875 9.70096 0.671875 8.54818C0.671875 7.3954 0.890625 6.31207 1.32813 5.29818C1.76563 4.28429 2.35938 3.40234 3.10938 2.65234C3.85938 1.90234 4.74132 1.30859 5.75521 0.871094C6.7691 0.433594 7.85243 0.214844 9.00521 0.214844C10.158 0.214844 11.2413 0.433594 12.2552 0.871094C13.2691 1.30859 14.151 1.90234 14.901 2.65234C15.651 3.40234 16.2448 4.28429 16.6823 5.29818C17.1198 6.31207 17.3385 7.3954 17.3385 8.54818C17.3385 9.70096 17.1198 10.7843 16.6823 11.7982C16.2448 12.8121 15.651 13.694 14.901 14.444C14.151 15.194 13.2691 15.7878 12.2552 16.2253C11.2413 16.6628 10.158 16.8815 9.00521 16.8815ZM9.00521 15.2148C10.8663 15.2148 12.4427 14.569 13.7344 13.2773C15.026 11.9857 15.6719 10.4093 15.6719 8.54818C15.6719 6.68707 15.026 5.11068 13.7344 3.81901C12.4427 2.52734 10.8663 1.88151 9.00521 1.88151C7.1441 1.88151 5.56771 2.52734 4.27604 3.81901C2.98438 5.11068 2.33854 6.68707 2.33854 8.54818C2.33854 10.4093 2.98438 11.9857 4.27604 13.2773C5.56771 14.569 7.1441 15.2148 9.00521 15.2148Z" fill="#F35908"/>
</svg>
