<svg width="7" height="10" viewBox="0 0 7 10" fill="none" xmlns="http://www.w3.org/2000/svg">
<rect y="-0.00012207" width="7" height="10" rx="1" fill="#D9D9D9"/>
<rect x="0.538086" y="1.17639" width="5.92308" height="0.588235" rx="0.294118" fill="white"/>
<rect x="0.538086" y="1.17639" width="5.92308" height="0.588235" rx="0.294118" fill="white"/>
<rect x="0.538086" y="1.17639" width="5.92308" height="0.588235" rx="0.294118" fill="white"/>
<rect x="0.538086" y="4.11755" width="5.92308" height="0.588235" rx="0.294118" fill="white"/>
<rect x="0.538086" y="4.11755" width="5.92308" height="0.588235" rx="0.294118" fill="white"/>
<rect x="0.538086" y="4.11755" width="5.92308" height="0.588235" rx="0.294118" fill="white"/>
<rect x="0.538086" y="2.64697" width="5.92308" height="0.588235" rx="0.294118" fill="white"/>
<rect x="0.538086" y="2.64697" width="5.92308" height="0.588235" rx="0.294118" fill="white"/>
<rect x="0.538086" y="2.64697" width="5.92308" height="0.588235" rx="0.294118" fill="white"/>
<rect x="0.538086" y="1.17639" width="5.92308" height="0.588235" rx="0.294118" fill="white"/>
<rect x="0.538086" y="1.17639" width="5.92308" height="0.588235" rx="0.294118" fill="white"/>
<rect x="0.538086" y="1.17639" width="5.92308" height="0.588235" rx="0.294118" fill="white"/>
<rect x="0.538086" y="4.11755" width="5.92308" height="0.588235" rx="0.294118" fill="white"/>
<rect x="0.538086" y="4.11755" width="5.92308" height="0.588235" rx="0.294118" fill="white"/>
<rect x="0.538086" y="4.11755" width="5.92308" height="0.588235" rx="0.294118" fill="white"/>
<rect x="0.538086" y="2.64697" width="5.92308" height="0.588235" rx="0.294118" fill="white"/>
<rect x="0.538086" y="2.64697" width="5.92308" height="0.588235" rx="0.294118" fill="white"/>
<rect x="0.538086" y="2.64697" width="5.92308" height="0.588235" rx="0.294118" fill="white"/>
<rect x="0.538086" y="5.29395" width="5.92308" height="0.588235" rx="0.294118" fill="white"/>
<rect x="0.538086" y="5.29395" width="5.92308" height="0.588235" rx="0.294118" fill="white"/>
<rect x="0.538086" y="5.29395" width="5.92308" height="0.588235" rx="0.294118" fill="white"/>
<rect x="0.538086" y="8.23511" width="5.92308" height="0.588235" rx="0.294118" fill="white"/>
<rect x="0.538086" y="8.23511" width="5.92308" height="0.588235" rx="0.294118" fill="white"/>
<rect x="0.538086" y="8.23511" width="5.92308" height="0.588235" rx="0.294118" fill="white"/>
<rect x="0.538086" y="6.76453" width="5.92308" height="0.588235" rx="0.294118" fill="white"/>
<rect x="0.538086" y="6.76453" width="5.92308" height="0.588235" rx="0.294118" fill="white"/>
<rect x="0.538086" y="6.76453" width="5.92308" height="0.588235" rx="0.294118" fill="white"/>
<rect x="0.538086" y="5.29395" width="5.92308" height="0.588235" rx="0.294118" fill="white"/>
<rect x="0.538086" y="5.29395" width="5.92308" height="0.588235" rx="0.294118" fill="white"/>
<rect x="0.538086" y="5.29395" width="5.92308" height="0.588235" rx="0.294118" fill="white"/>
<rect x="0.538086" y="8.23511" width="5.92308" height="0.588235" rx="0.294118" fill="white"/>
<rect x="0.538086" y="8.23511" width="5.92308" height="0.588235" rx="0.294118" fill="white"/>
<rect x="0.538086" y="8.23511" width="5.92308" height="0.588235" rx="0.294118" fill="white"/>
<rect x="0.538086" y="6.76453" width="5.92308" height="0.588235" rx="0.294118" fill="white"/>
<rect x="0.538086" y="6.76453" width="5.92308" height="0.588235" rx="0.294118" fill="white"/>
<rect x="0.538086" y="6.76453" width="5.92308" height="0.588235" rx="0.294118" fill="white"/>
</svg>
