<svg width="64" height="39" viewBox="0 0 64 39" fill="none" xmlns="http://www.w3.org/2000/svg">
<rect x="1" y="1" width="62" height="37" rx="11" fill="white" stroke="#F34D08" stroke-width="2"/>
<path d="M43.3335 21C44.1619 21 44.8335 20.3284 44.8335 19.5C44.8335 18.6716 44.1619 18 43.3335 18V19.5V21ZM18.2728 18.4393C17.687 19.0251 17.687 19.9749 18.2728 20.5607L27.8188 30.1066C28.4046 30.6924 29.3543 30.6924 29.9401 30.1066C30.5259 29.5208 30.5259 28.5711 29.9401 27.9853L21.4548 19.5L29.9401 11.0147C30.5259 10.4289 30.5259 9.47919 29.9401 8.8934C29.3543 8.30761 28.4046 8.30761 27.8188 8.8934L18.2728 18.4393ZM43.3335 19.5V18L19.3335 18V19.5V21L43.3335 21V19.5Z" fill="#F34D08"/>
</svg>
