<svg width="12" height="12" viewBox="0 0 12 12" fill="none" xmlns="http://www.w3.org/2000/svg">
<mask id="mask0_9290_19791" style="mask-type:alpha" maskUnits="userSpaceOnUse" x="0" y="0" width="12" height="12">
<rect width="12" height="12" fill="#D9D9D9"/>
</mask>
<g mask="url(#mask0_9290_19791)">
<path d="M1.99805 9.50195V8.50195H2.99805V5.00195C2.99805 4.31029 3.20638 3.6957 3.62305 3.1582C4.03971 2.6207 4.58138 2.26862 5.24805 2.10195V1.75195C5.24805 1.54362 5.32096 1.36654 5.4668 1.2207C5.61263 1.07487 5.78971 1.00195 5.99805 1.00195C6.20638 1.00195 6.38346 1.07487 6.5293 1.2207C6.67513 1.36654 6.74805 1.54362 6.74805 1.75195V2.10195C7.41471 2.26862 7.95638 2.6207 8.37305 3.1582C8.78971 3.6957 8.99805 4.31029 8.99805 5.00195V8.50195H9.99805V9.50195H1.99805ZM5.99805 11.002C5.72305 11.002 5.48763 10.904 5.2918 10.7082C5.09596 10.5124 4.99805 10.277 4.99805 10.002H6.99805C6.99805 10.277 6.90013 10.5124 6.7043 10.7082C6.50846 10.904 6.27305 11.002 5.99805 11.002Z" fill="white"/>
</g>
</svg>
