<svg width="28" height="28" viewBox="0 0 28 28" fill="none" xmlns="http://www.w3.org/2000/svg">
<path d="M9.99984 17.0013C9.53317 17.0013 9.13873 16.8402 8.8165 16.518C8.49428 16.1957 8.33317 15.8013 8.33317 15.3346C8.33317 14.868 8.49428 14.4735 8.8165 14.1513C9.13873 13.8291 9.53317 13.668 9.99984 13.668C10.4665 13.668 10.8609 13.8291 11.1832 14.1513C11.5054 14.4735 11.6665 14.868 11.6665 15.3346C11.6665 15.8013 11.5054 16.1957 11.1832 16.518C10.8609 16.8402 10.4665 17.0013 9.99984 17.0013ZM17.9998 17.0013C17.5332 17.0013 17.1387 16.8402 16.8165 16.518C16.4943 16.1957 16.3332 15.8013 16.3332 15.3346C16.3332 14.868 16.4943 14.4735 16.8165 14.1513C17.1387 13.8291 17.5332 13.668 17.9998 13.668C18.4665 13.668 18.8609 13.8291 19.1832 14.1513C19.5054 14.4735 19.6665 14.868 19.6665 15.3346C19.6665 15.8013 19.5054 16.1957 19.1832 16.518C18.8609 16.8402 18.4665 17.0013 17.9998 17.0013ZM13.9998 24.668C16.9776 24.668 19.4998 23.6346 21.5665 21.568C23.6332 19.5013 24.6665 16.9791 24.6665 14.0013C24.6665 13.468 24.6332 12.9513 24.5665 12.4513C24.4998 11.9513 24.3776 11.468 24.1998 11.0013C23.7332 11.1124 23.2665 11.1957 22.7998 11.2513C22.3332 11.3069 21.8443 11.3346 21.3332 11.3346C19.3109 11.3346 17.3998 10.9013 15.5998 10.0346C13.7998 9.16797 12.2665 7.95686 10.9998 6.4013C10.2887 8.13464 9.27206 9.64019 7.94984 10.918C6.62761 12.1957 5.08873 13.1569 3.33317 13.8013V14.0013C3.33317 16.9791 4.3665 19.5013 6.43317 21.568C8.49984 23.6346 11.0221 24.668 13.9998 24.668ZM13.9998 27.3346C12.1554 27.3346 10.4221 26.9846 8.79984 26.2846C7.17761 25.5846 5.7665 24.6346 4.5665 23.4346C3.3665 22.2346 2.4165 20.8235 1.7165 19.2013C1.0165 17.5791 0.666504 15.8457 0.666504 14.0013C0.666504 12.1569 1.0165 10.4235 1.7165 8.8013C2.4165 7.17908 3.3665 5.76797 4.5665 4.56797C5.7665 3.36797 7.17761 2.41797 8.79984 1.71797C10.4221 1.01797 12.1554 0.667969 13.9998 0.667969C15.8443 0.667969 17.5776 1.01797 19.1998 1.71797C20.8221 2.41797 22.2332 3.36797 23.4332 4.56797C24.6332 5.76797 25.5832 7.17908 26.2832 8.8013C26.9832 10.4235 27.3332 12.1569 27.3332 14.0013C27.3332 15.8457 26.9832 17.5791 26.2832 19.2013C25.5832 20.8235 24.6332 22.2346 23.4332 23.4346C22.2332 24.6346 20.8221 25.5846 19.1998 26.2846C17.5776 26.9846 15.8443 27.3346 13.9998 27.3346Z" fill="#182A4F"/>
</svg>
