<svg width="32" height="32" viewBox="0 0 32 32" fill="none" xmlns="http://www.w3.org/2000/svg">
<mask id="mask0_5423_53063" style="mask-type:alpha" maskUnits="userSpaceOnUse" x="0" y="0" width="32" height="32">
<rect width="32" height="32" fill="#D9D9D9"/>
</mask>
<g mask="url(#mask0_5423_53063)">
<path d="M11.9998 19.0013C11.5332 19.0013 11.1387 18.8402 10.8165 18.518C10.4943 18.1957 10.3332 17.8013 10.3332 17.3346C10.3332 16.868 10.4943 16.4735 10.8165 16.1513C11.1387 15.8291 11.5332 15.668 11.9998 15.668C12.4665 15.668 12.8609 15.8291 13.1832 16.1513C13.5054 16.4735 13.6665 16.868 13.6665 17.3346C13.6665 17.8013 13.5054 18.1957 13.1832 18.518C12.8609 18.8402 12.4665 19.0013 11.9998 19.0013ZM19.9998 19.0013C19.5332 19.0013 19.1387 18.8402 18.8165 18.518C18.4943 18.1957 18.3332 17.8013 18.3332 17.3346C18.3332 16.868 18.4943 16.4735 18.8165 16.1513C19.1387 15.8291 19.5332 15.668 19.9998 15.668C20.4665 15.668 20.8609 15.8291 21.1832 16.1513C21.5054 16.4735 21.6665 16.868 21.6665 17.3346C21.6665 17.8013 21.5054 18.1957 21.1832 18.518C20.8609 18.8402 20.4665 19.0013 19.9998 19.0013ZM15.9998 26.668C18.9776 26.668 21.4998 25.6346 23.5665 23.568C25.6332 21.5013 26.6665 18.9791 26.6665 16.0013C26.6665 15.468 26.6332 14.9513 26.5665 14.4513C26.4998 13.9513 26.3776 13.468 26.1998 13.0013C25.7332 13.1124 25.2665 13.1957 24.7998 13.2513C24.3332 13.3069 23.8443 13.3346 23.3332 13.3346C21.3109 13.3346 19.3998 12.9013 17.5998 12.0346C15.7998 11.168 14.2665 9.95686 12.9998 8.4013C12.2887 10.1346 11.2721 11.6402 9.94984 12.918C8.62761 14.1957 7.08873 15.1569 5.33317 15.8013V16.0013C5.33317 18.9791 6.3665 21.5013 8.43317 23.568C10.4998 25.6346 13.0221 26.668 15.9998 26.668ZM15.9998 29.3346C14.1554 29.3346 12.4221 28.9846 10.7998 28.2846C9.17761 27.5846 7.7665 26.6346 6.5665 25.4346C5.3665 24.2346 4.4165 22.8235 3.7165 21.2013C3.0165 19.5791 2.6665 17.8457 2.6665 16.0013C2.6665 14.1569 3.0165 12.4235 3.7165 10.8013C4.4165 9.17908 5.3665 7.76797 6.5665 6.56797C7.7665 5.36797 9.17761 4.41797 10.7998 3.71797C12.4221 3.01797 14.1554 2.66797 15.9998 2.66797C17.8443 2.66797 19.5776 3.01797 21.1998 3.71797C22.8221 4.41797 24.2332 5.36797 25.4332 6.56797C26.6332 7.76797 27.5832 9.17908 28.2832 10.8013C28.9832 12.4235 29.3332 14.1569 29.3332 16.0013C29.3332 17.8457 28.9832 19.5791 28.2832 21.2013C27.5832 22.8235 26.6332 24.2346 25.4332 25.4346C24.2332 26.6346 22.8221 27.5846 21.1998 28.2846C19.5776 28.9846 17.8443 29.3346 15.9998 29.3346Z" fill="#5D44BD"/>
</g>
</svg>
