<svg width="26" height="22" viewBox="0 0 26 22" fill="none" xmlns="http://www.w3.org/2000/svg">
<path d="M11 10C11 10.3956 10.8827 10.7822 10.6629 11.1111C10.4432 11.44 10.1308 11.6964 9.76537 11.8478C9.39992 11.9991 8.99778 12.0387 8.60982 11.9616C8.22186 11.8844 7.86549 11.6939 7.58579 11.4142C7.30608 11.1345 7.1156 10.7781 7.03843 10.3902C6.96126 10.0022 7.00087 9.60009 7.15224 9.23463C7.30362 8.86918 7.55996 8.55682 7.88886 8.33706C8.21776 8.1173 8.60444 8 9 8C9.53043 8 10.0391 8.21071 10.4142 8.58579C10.7893 8.96086 11 9.46957 11 10ZM26 2V20C26 20.5304 25.7893 21.0391 25.4142 21.4142C25.0391 21.7893 24.5304 22 24 22H2C1.46957 22 0.960859 21.7893 0.585786 21.4142C0.210714 21.0391 0 20.5304 0 20V2C0 1.46957 0.210714 0.960859 0.585786 0.585786C0.960859 0.210714 1.46957 0 2 0H24C24.5304 0 25.0391 0.210714 25.4142 0.585786C25.7893 0.960859 26 1.46957 26 2ZM13.9688 15.75C13.6452 14.5418 12.8779 13.5 11.82 12.8325C12.3818 12.274 12.7651 11.5614 12.9214 10.7848C13.0777 10.0082 12.9998 9.20273 12.6978 8.47044C12.3957 7.73815 11.8831 7.11202 11.2248 6.67145C10.5664 6.23087 9.79214 5.99567 9 5.99567C8.20786 5.99567 7.43356 6.23087 6.77525 6.67145C6.11693 7.11202 5.60426 7.73815 5.30221 8.47044C5.00016 9.20273 4.92234 10.0082 5.07861 10.7848C5.23488 11.5614 5.61821 12.274 6.18 12.8325C5.12282 13.5007 4.35575 14.5422 4.03125 15.75C3.96495 16.0069 4.00342 16.2797 4.13821 16.5082C4.27301 16.7368 4.49307 16.9024 4.75 16.9688C5.00693 17.0351 5.27967 16.9966 5.50823 16.8618C5.73679 16.727 5.90245 16.5069 5.96875 16.25C6.29875 14.9688 7.60125 14 9 14C10.3988 14 11.7025 14.9662 12.0313 16.25C12.0976 16.5069 12.2632 16.727 12.4918 16.8618C12.7203 16.9966 12.9931 17.0351 13.25 16.9688C13.5069 16.9024 13.727 16.7368 13.8618 16.5082C13.9966 16.2797 14.0351 16.0069 13.9688 15.75ZM22 13C22 12.7348 21.8946 12.4804 21.7071 12.2929C21.5196 12.1054 21.2652 12 21 12H16C15.7348 12 15.4804 12.1054 15.2929 12.2929C15.1054 12.4804 15 12.7348 15 13C15 13.2652 15.1054 13.5196 15.2929 13.7071C15.4804 13.8946 15.7348 14 16 14H21C21.2652 14 21.5196 13.8946 21.7071 13.7071C21.8946 13.5196 22 13.2652 22 13ZM22 9C22 8.73478 21.8946 8.48043 21.7071 8.29289C21.5196 8.10536 21.2652 8 21 8H16C15.7348 8 15.4804 8.10536 15.2929 8.29289C15.1054 8.48043 15 8.73478 15 9C15 9.26522 15.1054 9.51957 15.2929 9.70711C15.4804 9.89464 15.7348 10 16 10H21C21.2652 10 21.5196 9.89464 21.7071 9.70711C21.8946 9.51957 22 9.26522 22 9Z" fill="#182A4F"/>
</svg>
