<svg width="14" height="14" viewBox="0 0 14 14" fill="none" xmlns="http://www.w3.org/2000/svg">
<g clip-path="url(#clip0_4642_56125)">
<path fill-rule="evenodd" clip-rule="evenodd" d="M13.6368 1.1979C13.7381 1.28154 13.8219 1.38431 13.8834 1.50034C13.945 1.61638 13.9831 1.74339 13.9955 1.87414C14.0079 2.00489 13.9945 2.13681 13.956 2.26237C13.9174 2.38792 13.8545 2.50465 13.7708 2.6059L5.73085 12.3359L5.72785 12.3379C5.54509 12.5577 5.31561 12.7339 5.05612 12.8538C4.79663 12.9737 4.51367 13.0342 4.22785 13.0309C3.93775 13.0274 3.65221 12.9582 3.39261 12.8287C3.13302 12.6992 2.9061 12.5126 2.72885 12.2829L2.72785 12.2809L0.209849 9.0449C0.125772 8.94162 0.0631696 8.8226 0.0257157 8.6948C-0.0117381 8.567 -0.023289 8.43301 -0.00825913 8.30069C0.00677078 8.16837 0.0480787 8.04039 0.113241 7.92425C0.178402 7.80811 0.266106 7.70615 0.371203 7.62436C0.476301 7.54258 0.596676 7.4826 0.725264 7.44797C0.853853 7.41333 0.988064 7.40473 1.12002 7.42266C1.25198 7.4406 1.37903 7.48471 1.49371 7.55241C1.60839 7.62011 1.70839 7.71003 1.78785 7.8169L4.25185 10.9839L12.2278 1.3319C12.3115 1.23064 12.4143 1.14684 12.5303 1.08531C12.6463 1.02377 12.7733 0.985692 12.9041 0.973248C13.0348 0.960805 13.1668 0.97424 13.2923 1.01279C13.4179 1.05133 13.5346 1.11423 13.6358 1.1979H13.6368Z" fill="#81C127"/>
</g>
<defs>
<clipPath id="clip0_4642_56125">
<rect width="14" height="14" fill="white"/>
</clipPath>
</defs>
</svg>
