<?xml version="1.0" encoding="UTF-8"?><svg id="Layer_2" xmlns="http://www.w3.org/2000/svg" viewBox="0 0 986.82 708.3"><defs><style>.cls-1{stroke:#fff;stroke-miterlimit:10;stroke-width:5px;}.cls-1,.cls-2{fill:#fff;}.cls-3{fill:#f50;}.cls-4{fill:#ffba00;}.cls-5{fill:#2d2d2d;}.cls-6{fill:#81c127;}.cls-7{isolation:isolate;opacity:.1;}</style></defs><g id="Graphic_Elements"><g id="Group_51"><g id="Group_55"><ellipse id="Ellipse_22" class="cls-3" cx="631.92" cy="168.18" rx="167.26" ry="170.99" transform="translate(178.65 639.5) rotate(-61.02)"/><g id="Group_52"><path id="Path_107" class="cls-4" d="M724.13,235.11c-11.84,51.36-62.29,84.07-114.01,73.91-51.72-10.16-86.06-59.51-77.61-111.53,54.78,56.53,118.66,69.07,191.62,37.62Z"/><path id="Path_108" class="cls-4" d="M647.75,117.29c-47.36-9.3-94.42,17.38-110.76,62.79,52.83,59.12,115.86,72.28,189.57,37.21,2.04-48.22-31.44-90.71-78.8-100.01Zm-24.03,86.49c-1.4,7.14-5.15,12.43-8.34,11.8-3.2-.63-4.66-6.93-3.25-14.08,1.4-7.15,5.14-12.43,8.34-11.8,3.2,.63,4.66,6.93,3.25,14.08h0Zm21.19,4.16c-1.4,7.15-5.14,12.43-8.34,11.8-3.2-.63-4.66-6.93-3.25-14.08,1.4-7.15,5.13-12.43,8.33-11.8,3.2,.63,4.66,6.93,3.25,14.08h0Z"/></g><rect id="Rectangle_11-2" class="cls-4" x="593.5" y="-6.51" width="84.43" height="287.24" rx="35.86" ry="35.86" transform="translate(429.24 753.8) rotate(-83.66)"/><g id="Group_53"><circle id="Ellipse_23" class="cls-2" cx="591.24" cy="134.56" r="34.62"/><circle id="Ellipse_24" class="cls-5" cx="590.41" cy="151.38" r="12.43"/></g><g id="Group_54"><circle id="Ellipse_25" class="cls-2" cx="680.78" cy="144.03" r="35.3"/><circle id="Ellipse_26" class="cls-5" cx="681.44" cy="161.08" r="12.02"/></g></g><path id="Path_2742" class="cls-7" d="M965.21,412.03c9.72-11.41,15.06-25.9,15.07-40.88,0-26.54-12.58-48.18-35.49-60.98-14.47-8.02-32.02-12.09-52.15-12.09-22.85-.37-44.94,8.17-61.6,23.82v-54.91c.25-13.02-4.55-25.63-13.41-35.18-9.16-9.73-21.97-15.2-35.33-15.08-12.89-.15-25.32,4.82-34.55,13.81l-.41,.4c-9.52,9.56-14.77,22.56-14.55,36.05v46.1c-13.05-9.07-28.62-13.81-44.5-13.56-6.76,0-13.51,.79-20.09,2.33-8.58-7.54-19.63-11.68-31.05-11.63-16.61,.04-32,8.75-40.57,22.99-11.77-10.6-27.14-16.32-42.98-16.01-11.15-.06-22.19,2.09-32.5,6.33-.48,.2-.96,.41-1.44,.62-9.92-5.57-21.14-8.42-32.51-8.26-7.71,.02-15.34,1.6-22.43,4.65-8.63-7.64-19.75-11.87-31.27-11.91-2.88,.01-5.76,.31-8.59,.88,.1-1.41,.19-2.81,.19-4.23,.15-13.75-5.1-27.02-14.6-36.96-9.56-10.24-22.94-16.05-36.95-16.06-13.98-.06-27.36,5.71-36.9,15.94-9.61,9.94-14.92,23.26-14.77,37.08-.1,10.92,3.19,21.6,9.42,30.57-1.01,1.25-1.93,2.56-2.81,3.9-9.38-11.55-25.93-23.57-54.31-23.57-3.24,0-6.49,.18-9.71,.55,.02-1.99,.03-3.96,.03-5.93,0-15.21-1.14-26.39-3.61-35.28-6.77-24.03-24.45-38.37-47.3-38.37-13.19-.03-25.83,5.26-35.06,14.69-9.37,9.51-14.53,22.38-14.31,35.72,.11,5.89,.61,11.76,1.51,17.58,.48,2.98,.78,5.98,.91,8.99,0,1.92-.09,6.09-.47,15.14-1.75-.94-3.57-1.86-5.5-2.75l-.15-.07c-16.14-7.41-30.58-11.01-44.14-11.01-20.63,0-50.31,8.82-74.67,50.78-14.79,25.32-22.29,50.76-22.29,75.6,0,29.33,10.29,54.69,29.77,73.35,18.67,17.84,41.84,26.89,68.84,26.89,.16,0,.33-.02,.49-.02-.3,22.84-1.01,44.2-2.11,63.69l-1.8,29.86-.06,1.91c0,23.12,11.84,34.85,18.82,39.73,8.18,5.76,18.42,8.57,31.28,8.57,12.84-.24,25.63-1.58,38.24-3.98,17.74-3.08,30.46-6.6,40.03-11.09,1.3-.61,2.53-1.28,3.75-1.99,13.05,8.5,28.74,12.83,46.79,12.83,13.74-.13,27.29-3.16,39.77-8.88,2.51-1.12,4.77-2.3,6.94-3.52,9.77,7.18,23.97,13.13,44.3,13.13,7.07-.12,14.07-1.44,20.7-3.9,5.38,3.23,11.54,4.95,17.81,4.98,5.37,0,10.69-1.1,15.63-3.21,5.18,2.21,10.76,3.34,16.39,3.3,12.07,.29,23.62-4.9,31.41-14.12,9.57,3.1,19.83,3.38,29.56,.82,7.58,7.5,17.84,11.67,28.51,11.59,10.87,.07,21.3-4.25,28.92-12,.15-.15,.29-.3,.43-.44,7.63,9.35,19.11,14.7,31.18,14.52,9.25,.04,18.25-3.06,25.5-8.81,4.81,1.89,9.92,2.86,15.09,2.86,7.38,.03,14.62-1.95,20.96-5.73,7.36,6.27,16.73,9.68,26.4,9.61,10.87,.07,21.3-4.25,28.92-12,.15-.15,.29-.3,.43-.44,5.12,6.3,12.1,10.84,19.94,12.96-.08,1.13-.18,2.25-.18,3.41,0,15.26,9.64,35,36.77,40.38,8.68,1.61,17.49,2.36,26.31,2.24,20.76,0,37.8-5.05,50.71-15.05,11.4-8.87,19.48-21.67,24.04-38.09,3.02-11.88,4.64-24.08,4.81-36.33l2.03-29.63c.63-7.94,1.32-14.24,2.06-18.7,1.42-7.41,2.2-14.93,2.34-22.47-.06-11.31-4.86-22.07-13.24-29.67,6.04,.84,12.14,1.27,18.24,1.26,17.95,.04,35.66-4.04,51.78-11.94,33.87-16.64,38.93-41.79,38.93-55.32-.03-18.17-8.28-32.69-21.61-40.31Zm-140.52,82.54l-1.28-.02c.14-.25,.29-.49,.42-.75,.29,.26,.57,.51,.86,.76Zm-567.01-11.09l.11,.44c.16,.61,.37,1.2,.54,1.8-.5-.07-.99-.13-1.5-.19,.07-.16,.14-.3,.21-.46,.21-.51,.42-1.03,.63-1.59Zm90.92,30.02c.47,.2,.94,.37,1.42,.55-.27,.19-.56,.35-.83,.53-.19-.37-.4-.72-.59-1.09h0Z"/><g id="Group_2468"><path id="Path_83" class="cls-6" d="M848.79,486.07l-.36-.31-5.37-4.19c-3.02-2.15-6.3-3.92-9.75-5.28-.41-.17-.82-.38-1.26-.58-7.53-3.88-15.85-5.99-24.32-6.17-2.3,0-4.53-.05-6.68-.09-10.78-.22-24.25-.47-37.34,5.19-10.11-10.8-24.35-16.76-39.13-16.41-12.4,0-24.72,6.45-35.68,15.13-4.62-1.79-9.52-2.71-14.47-2.72-.78,0-1.55,.07-2.32,.11-1.17-9.33-5.45-17.99-12.16-24.57-7.88-7.81-18.53-12.18-29.62-12.16-11.02-.01-21.61,4.29-29.5,11.99-8.18,7.87-12.79,18.74-12.76,30.09,0,.27,.04,.53,.05,.79-6.87-2.81-14.23-4.23-21.65-4.17-6.84-.01-13.62,1.19-20.04,3.55-6.19-3.67-13.25-5.61-20.45-5.63-8.43-.02-16.65,2.59-23.53,7.45-5.99-2.69-12.48-4.06-19.04-4.02-10.22,0-20.36,1.91-29.87,5.64-5.46-2.61-11.44-3.95-17.48-3.93-8.93-.12-17.63,2.79-24.69,8.25-1.74-.89-3.57-1.76-5.54-2.58-9.39-4.1-19.5-6.31-29.75-6.49-16.55-.1-32.72,4.98-46.22,14.55-4.06-8.57-10.66-15.67-18.91-20.35-12.19-6.11-25.69-9.12-39.32-8.77-5.97,0-11.88,1.16-17.41,3.42-13.35-4.13-29.34-4.59-46.79-5.06-8.47-.23-21.23-.58-29.35-1.76-1.92-5.37-4.94-10.28-8.87-14.41-7.63-8.06-18.26-12.6-29.36-12.53-11.08-.05-21.68,4.5-29.28,12.55-7.26,7.65-11.29,17.8-11.25,28.35,0,32.78-.77,63.01-2.29,89.73l-1.8,29.86-.06,1.91c0,23.11,11.84,34.85,18.82,39.73,8.18,5.76,18.42,8.57,31.28,8.57,12.83-.24,25.63-1.58,38.23-3.98,17.74-3.08,30.46-6.6,40.03-11.09,1.3-.61,2.53-1.28,3.75-1.99,13.05,8.5,28.74,12.83,46.79,12.83,13.74-.13,27.29-3.16,39.77-8.88,2.51-1.12,4.77-2.3,6.94-3.52,9.77,7.18,23.97,13.13,44.3,13.13,7.07-.12,14.07-1.44,20.7-3.9,5.38,3.23,11.54,4.95,17.81,4.98,5.37,0,10.69-1.1,15.63-3.21,5.18,2.21,10.76,3.34,16.39,3.3,12.07,.29,23.62-4.9,31.41-14.12,9.57,3.1,19.83,3.38,29.56,.82,7.58,7.5,17.84,11.67,28.51,11.59,10.87,.07,21.3-4.25,28.92-12,.15-.15,.29-.3,.43-.44,7.63,9.35,19.11,14.7,31.18,14.52,9.25,.04,18.25-3.06,25.5-8.81,4.8,1.89,9.92,2.86,15.09,2.86,7.38,.03,14.62-1.95,20.96-5.73,7.36,6.27,16.73,9.68,26.4,9.61,10.87,.07,21.3-4.25,28.92-12,.15-.15,.29-.3,.43-.44,5.12,6.3,12.1,10.84,19.94,12.96-.08,1.13-.18,2.25-.18,3.41,0,15.26,9.64,35,36.77,40.38,8.68,1.61,17.49,2.36,26.31,2.24,20.76,0,37.8-5.05,50.71-15.05,11.4-8.87,19.48-21.67,24.04-38.09,3.02-11.88,4.64-24.08,4.81-36.33l2.03-29.63c.63-7.95,1.32-14.24,2.06-18.7,1.42-7.41,2.2-14.93,2.34-22.47-.03-17.63-11.24-30.13-22.95-36.88Z"/><g id="Group_39"><g id="Group_38"><path id="Path_84" class="cls-1" d="M210.1,601.88c-6.8,3.19-17.47,6.04-32.02,8.57-10.83,2.08-21.81,3.26-32.83,3.52-6.07,0-10.43-.93-13.08-2.8-3.61-2.52-5.41-7.15-5.41-13.89l1.8-29.85c1.56-27.54,2.34-58.09,2.34-91.64-.05-2.45,.88-4.82,2.58-6.58,1.63-1.77,3.95-2.75,6.36-2.71,2.44-.06,4.79,.92,6.45,2.71,1.7,1.76,2.63,4.13,2.58,6.58,0,33.98-.81,64.88-2.44,92.72l-1.17,13.71c-.46,4.4-.64,8.83-.54,13.26,15.69,.18,35.54-3.52,59.54-11.09,.94-.28,1.91-.44,2.89-.45,2.52-.03,4.91,1.1,6.49,3.07,1.48,1.8,2.28,4.07,2.26,6.4,.06,3.77-2.27,7.17-5.8,8.48Z"/><path id="Path_85" class="cls-1" d="M274.05,609.72c-13.6,0-24.6-3.4-33.01-10.19-9.2-7.52-13.8-18.04-13.8-31.57,0-15.63,3.79-28.74,11.37-39.32,7.3-11.05,19.77-17.59,33.01-17.32,8.44-.34,16.83,1.4,24.44,5.05,7.35,3.48,11.92,10.99,11.64,19.12,0,6.01-3.4,11.48-10.19,16.41-6.11,3.84-12.5,7.22-19.12,10.1l-34.46,16.33c3.14,4.79,7.48,8.68,12.58,11.28,5.47,2.62,11.48,3.92,17.54,3.79,4.95-.12,9.87-.91,14.61-2.34,7.09-1.99,11.66-4.59,13.71-7.8,2.05-3.22,4.24-4.82,6.59-4.82,2.12,.01,4.15,.87,5.63,2.39,1.57,1.42,2.47,3.43,2.48,5.55,0,6.67-5.38,12.42-16.15,17.23-8.42,3.92-17.58,6.01-26.87,6.14Zm-2.43-82.17c-7.09-.12-13.84,3.03-18.31,8.52-4.87,5.68-8.51,14.24-10.91,25.66l27.69-13.17c8.26-3.7,16.06-8.33,23.27-13.8-5.17-4.81-12.42-7.21-21.74-7.22h0Z"/><path id="Path_86" class="cls-1" d="M403.57,611.53c-1.14,0-3.22-1.32-6.22-3.97-2.25-1.96-4.28-4.17-6.04-6.58-4.9,2.72-9.99,5.09-15.24,7.08-3.51,1.41-7.23,2.22-11.01,2.39-14.06,0-24.32-3.97-30.76-11.9-6.07-7.46-9.11-18.88-9.11-34.27-.24-13.96,5.18-27.43,15.02-37.34,9.22-10,22.25-15.64,35.85-15.51,6.07,.19,12.04,1.57,17.58,4.06,8.18,3.37,12.27,7.43,12.27,12.18,0,1.63-.65,3.18-1.8,4.33-.79,3.71-1.26,7.48-1.41,11.27-.33,5.23-.52,11.94-.58,20.11-.21,5.93,.31,11.87,1.53,17.68,1.56,5.4,3.46,10.71,5.68,15.87,.42,1.08,1.11,2.68,2.07,4.78l.54,1.54c.06,2.26-.86,4.43-2.52,5.95-1.57,1.51-3.67,2.35-5.86,2.34Zm-18.75-62.69c.01-2.82,.18-5.64,.5-8.44,.33-3.03,.83-6.26,1.49-9.69-1.85-.98-3.76-1.82-5.73-2.53-1.23-.47-2.52-.74-3.83-.81-9.34,0-18.19,4.19-24.13,11.41-6.59,7.16-10.22,16.56-10.15,26.29,0,9.86,1.74,17.26,5.23,22.19,3.61,5,9.54,7.79,15.69,7.4,5.08,.15,10.13-.93,14.7-3.16,3.27-1.96,6.32-4.25,9.11-6.85-1.62-11.87-2.59-23.83-2.9-35.8h0Z"/><path id="Path_87" class="cls-1" d="M497.82,538.92c-.42,7.52-3.43,11.27-9.02,11.27-5.17,0-7.76-2.98-7.76-8.93,0-1.14-.09-3.25-.27-6.31l-.27-7.58c-8.17,.66-16.03,3.43-22.82,8.03-5.91,4.63-10.51,10.73-13.35,17.68l.18,49.43c0,6.07-2.98,9.11-8.93,9.11-5.29,0-7.93-3.04-7.93-9.11v-63.32c0-1.99,.08-4.96,.23-8.93,.16-3.97,.23-6.94,.23-8.93,0-6.07,2.65-9.11,7.94-9.11,5.89,0,8.87,4.99,8.93,14.97,11.55-11.12,24.35-16.68,38.42-16.69,4.36-.25,8.52,1.84,10.91,5.5,2.4,3.67,3.6,9.2,3.61,16.6-.01,3.13-.05,5.23-.11,6.31Z"/><path id="Path_88" class="cls-1" d="M585.58,611.98c-5.17,0-8.09-2.83-8.75-8.48l-2.52-19.76c-.81-6.55-1.23-13.15-1.26-19.75,0-1.68,.11-4.54,.32-8.57,.21-4.03,.32-6.89,.31-8.57,0-12.99-2.41-19.48-7.22-19.48-6.73,0-13.17,4-19.3,12-6.02,8.3-10.43,17.67-12.99,27.6-.12,2.34-.39,5.29-.81,8.84-.35,2.9-.54,5.83-.54,8.75,0,1.8,.18,4.51,.54,8.12,.36,3.61,.54,6.31,.54,8.12,.1,2.44-.79,4.82-2.48,6.58-1.67,1.69-3.98,2.61-6.36,2.52-2.4,.1-4.72-.82-6.4-2.52-1.66-1.78-2.54-4.15-2.44-6.58,0-1.8-.2-4.51-.59-8.12-.39-3.61-.59-6.31-.58-8.12,0-6.19,.44-14.78,1.31-25.75,.87-10.97,1.31-19.56,1.31-25.75,0-1.92-.11-4.78-.31-8.57-.21-3.79-.32-6.64-.32-8.57-.08-2.39,.86-4.7,2.58-6.36,1.7-1.65,3.99-2.54,6.36-2.48,5.53,0,8.57,3.91,9.11,11.72l.27,10.55c10.1-13.47,20.47-20.2,31.12-20.2,9.62,0,16.33,4.24,20.11,12.72,2.59,5.65,4,14.01,4.24,25.08v9.11l-.09,8.39c.14,6.49,.79,12.96,1.94,19.35,1.14,6.36,1.79,12.8,1.94,19.25,.09,2.42-.85,4.76-2.58,6.45-1.73,1.66-4.05,2.55-6.45,2.48Z"/><path id="Path_89" class="cls-1" d="M634.38,564.63c0,3.61,.11,9,.32,16.19,.21,7.19,.32,12.58,.31,16.19,.09,2.4-.79,4.75-2.44,6.5-1.68,1.71-4.01,2.62-6.4,2.52-2.38,.08-4.68-.83-6.36-2.52-1.68-1.74-2.57-4.08-2.48-6.5,0-3.61-.1-9-.31-16.19-.21-7.19-.32-12.58-.32-16.19,0-5.65,.3-12.7,.9-21.15,.6-8.45,.9-15.5,.9-21.15-.1-2.44,.79-4.82,2.48-6.58,1.67-1.69,3.98-2.61,6.36-2.53,2.38-.08,4.68,.83,6.35,2.53,1.69,1.77,2.58,4.14,2.48,6.58,0,5.66-.3,12.71-.9,21.15-.6,8.44-.9,15.5-.9,21.15Zm-4.06-73.24c-2.81,.03-5.51-1.07-7.48-3.07-2.05-1.91-3.2-4.6-3.16-7.4-.04-2.8,1.11-5.49,3.16-7.4,1.98-1.99,4.68-3.1,7.48-3.07,2.8-.04,5.49,1.07,7.44,3.07,2.02,1.92,3.15,4.6,3.11,7.4,.04,2.79-1.09,5.47-3.11,7.4-1.96,2-4.65,3.11-7.44,3.07Z"/><path id="Path_90" class="cls-1" d="M734.04,611.98c-5.17,0-8.09-2.83-8.75-8.48l-2.52-19.76c-.81-6.55-1.23-13.15-1.26-19.75,0-1.68,.11-4.54,.32-8.57,.21-4.03,.32-6.89,.31-8.57,0-12.99-2.41-19.48-7.22-19.48-6.73,0-13.17,4-19.3,12-6.02,8.3-10.43,17.67-12.99,27.6-.12,2.34-.39,5.29-.81,8.84-.35,2.9-.54,5.83-.54,8.75,0,1.8,.18,4.51,.54,8.12,.36,3.61,.54,6.31,.54,8.12,.1,2.44-.79,4.82-2.48,6.58-1.68,1.69-3.98,2.61-6.36,2.52-2.4,.1-4.72-.82-6.4-2.52-1.66-1.78-2.54-4.15-2.44-6.58,0-1.8-.2-4.51-.59-8.12-.39-3.61-.59-6.31-.59-8.12,0-6.19,.44-14.78,1.31-25.75,.87-10.97,1.31-19.56,1.31-25.75,0-1.92-.1-4.78-.31-8.57-.21-3.79-.32-6.64-.32-8.57-.08-2.39,.86-4.7,2.58-6.36,1.7-1.65,3.99-2.54,6.36-2.48,5.53,0,8.57,3.91,9.11,11.72l.27,10.55c10.1-13.47,20.47-20.2,31.12-20.2,9.62,0,16.33,4.24,20.11,12.72,2.58,5.65,4,14.01,4.24,25.08v9.11l-.09,8.39c.14,6.49,.79,12.96,1.94,19.35,1.14,6.36,1.79,12.8,1.94,19.25,.09,2.42-.85,4.76-2.58,6.45-1.73,1.66-4.06,2.55-6.45,2.48Z"/><path id="Path_91" class="cls-1" d="M835.78,566.7l-2.07,30.3c-.09,9.94-1.33,19.84-3.7,29.5-2.7,9.74-7.03,16.93-12.99,21.57-7.22,5.59-17.65,8.39-31.3,8.39-6.74,.11-13.48-.44-20.11-1.62-7.58-1.5-11.37-4.63-11.37-9.38,0-5.35,2.62-8.03,7.85-8.03,3.65,.2,7.27,.73,10.83,1.58,5.52,1.1,11.15,1.57,16.77,1.41,11.55-.18,19.52-5.77,23.91-16.77,2.89-7.34,4.42-18.62,4.6-33.83-2.7,5.39-6.68,10.03-11.59,13.53-4.55,3.03-9.91,4.6-15.38,4.51-10.06,.35-19.76-3.72-26.56-11.14-6.82-7.43-10.24-17.06-10.24-28.91,0-16.23,4.66-29.31,13.98-39.24,9.62-10.22,22.73-15.33,39.33-15.33,4.78-.13,9.54,.6,14.06,2.17,3.49,1.21,6.51,3.48,8.66,6.49,6.44,.18,9.65,3.76,9.65,10.73-.16,5.75-.79,11.49-1.9,17.14-1.38,8.28-2.19,13.93-2.43,16.94Zm-28.95-39.05c-11.43,0-20.27,3.94-26.52,11.82-5.82,7.79-8.78,17.34-8.39,27.06,0,8.72,1.65,15.27,4.96,19.66,3.57,4.52,9.14,6.98,14.88,6.58,6.07,0,11.97-3.43,17.68-10.28,4.69-5.27,7.76-11.78,8.83-18.75,1.27-6.49,2.62-16.69,4.06-30.57-2.26-1.78-4.79-3.18-7.49-4.15-2.58-.9-5.29-1.36-8.03-1.36Z"/></g></g></g><g id="Group_2469"><path id="Path_92" class="cls-3" d="M945.85,386.96c9.72-11.41,15.06-25.9,15.07-40.88,0-26.54-12.58-48.18-35.49-60.98-14.47-8.02-32.02-12.09-52.15-12.09-22.85-.37-44.95,8.17-61.6,23.82v-54.91c.26-13.02-4.55-25.63-13.41-35.18-9.16-9.73-21.97-15.2-35.33-15.08-12.89-.15-25.32,4.82-34.55,13.81l-.41,.4c-9.52,9.56-14.77,22.56-14.55,36.05v46.1c-13.05-9.07-28.62-13.81-44.5-13.56-6.77,0-13.51,.79-20.1,2.33-8.58-7.54-19.63-11.68-31.05-11.63-16.61,.04-32,8.75-40.57,22.99-11.77-10.6-27.14-16.32-42.98-16.01-11.15-.06-22.19,2.09-32.5,6.33-.48,.2-.96,.41-1.44,.62-9.92-5.57-21.14-8.42-32.51-8.26-7.71,.02-15.34,1.6-22.43,4.65-8.63-7.64-19.75-11.87-31.27-11.91-2.88,.01-5.76,.31-8.59,.88,.1-1.41,.19-2.81,.19-4.23,.15-13.75-5.1-27.02-14.6-36.96-9.56-10.24-22.94-16.05-36.95-16.06-13.98-.06-27.36,5.72-36.9,15.94-9.61,9.94-14.92,23.26-14.77,37.08-.1,10.92,3.19,21.6,9.42,30.57-1.01,1.25-1.93,2.56-2.81,3.9-9.38-11.55-25.93-23.57-54.31-23.57-3.24,0-6.49,.18-9.71,.55,.02-1.99,.03-3.96,.03-5.93,0-15.21-1.14-26.39-3.61-35.28-6.77-24.03-24.45-38.37-47.3-38.37-13.19-.03-25.83,5.26-35.06,14.69-9.37,9.5-14.53,22.37-14.31,35.72,.11,5.89,.61,11.76,1.51,17.58,.48,2.98,.78,5.98,.91,8.99,0,1.92-.09,6.09-.47,15.14-1.75-.94-3.57-1.85-5.5-2.75l-.15-.07c-16.14-7.41-30.58-11.01-44.14-11.01-20.63,0-50.31,8.82-74.67,50.78C7.5,346.48,0,371.93,0,396.76c0,29.33,10.29,54.69,29.77,73.35,18.67,17.84,41.84,26.89,68.84,26.89,13.39,0,28.48-4.43,46.11-13.54l.12-.07c4.26-2.21,8.37-4.69,12.33-7.41,.28,.29,.52,.59,.81,.87,9.19,9.28,21.71,14.49,34.77,14.47,19.92,0,36.72-11.69,44.93-31.34,.21-.51,.42-1.03,.63-1.59l.11,.44c6.18,23.44,24.26,38.02,47.19,38.02,12.74,.05,24.99-4.89,34.13-13.76,8.29,5.98,18.27,9.17,28.5,9.11,12.05,.08,23.69-4.37,32.62-12.47,8.76,9.03,20.88,14.02,33.46,13.78,11.83,.15,23.33-3.84,32.52-11.29,.48-.39,.96-.79,1.42-1.19,1.81,3.19,3.97,6.17,6.42,8.89,9.17,10.24,22.29,16.04,36.04,15.94,13.75,.1,26.87-5.7,36.05-15.94,1.16-1.29,2.26-2.63,3.28-4.03,9.1,9.49,21.77,14.73,34.91,14.45,1.77,0,3.54-.1,5.3-.29-.05,11.4-.08,18.52-.08,21.21-.19,12.91,4.47,25.42,13.08,35.04,9.17,10.24,22.3,16.04,36.04,15.94,13.75,.11,26.88-5.7,36.05-15.94,8.59-9.6,13.26-22.09,13.07-34.97l.05-25.26c20.08-1.45,38.98-10.01,53.31-24.14,1.41,2.19,2.99,4.27,4.72,6.22,9.17,10.24,22.3,16.04,36.04,15.94,17.68,.26,33.95-9.58,41.92-25.36,.63,.57,1.27,1.16,1.9,1.69,18.73,16,42.4,24.11,70.34,24.11,17.95,.04,35.66-4.04,51.78-11.94,33.87-16.64,38.93-41.79,38.93-55.32,0-18.18-8.24-32.7-21.57-40.32Z"/><g id="Group_49"><g id="Group_48"><g id="Group_41"><path id="Path_93" class="cls-4" d="M95.75,458.46c-15.73,.43-30.98-5.46-42.34-16.34-12.01-11.5-18.02-26.66-18.02-45.48,0-17.34,5.39-35.24,16.17-53.71,12.24-21.08,26.47-31.63,42.69-31.63,7.96,0,17.25,2.44,27.89,7.32,12.93,6.01,19.39,12.94,19.39,20.78,.05,4.13-1.33,8.14-3.9,11.37-2.46,3.43-6.45,5.43-10.67,5.36-3.28,0-7.24-2.03-11.88-6.08-4.64-4.05-11.58-6.08-20.83-6.08-5.89,0-12.28,6.58-19.17,19.73-6.58,12.72-9.87,23.7-9.87,32.93s2.91,16.34,8.72,21.57c6.06,5.16,13.85,7.83,21.8,7.45,5.12,0,11.4-2.22,18.82-6.67,7.42-4.44,12.13-6.67,14.11-6.66,4.13,0,8.03,1.87,10.61,5.1,2.87,3.19,4.44,7.34,4.42,11.63,0,6.8-6.5,13.59-19.51,20.39-11.63,6-21.12,9-28.46,9Z"/><path id="Path_94" class="cls-4" d="M94.26,311.3c7.96,0,17.25,2.44,27.89,7.32,12.93,6.01,19.39,12.94,19.39,20.78,.05,4.13-1.33,8.14-3.9,11.37-2.46,3.43-6.45,5.43-10.67,5.36-3.28,0-7.24-2.03-11.88-6.08-4.64-4.05-11.58-6.08-20.83-6.08-5.89,0-12.28,6.58-19.17,19.73-6.58,12.72-9.87,23.7-9.87,32.93s2.91,16.34,8.72,21.57c6.06,5.16,13.85,7.83,21.8,7.45,5.12,0,11.4-2.22,18.82-6.67,7.42-4.44,12.13-6.67,14.11-6.66,4.13,0,8.03,1.87,10.61,5.1,2.87,3.19,4.44,7.34,4.42,11.63,0,6.79-6.5,13.59-19.51,20.39-11.63,6.01-21.12,9.02-28.46,9.02-15.73,.43-30.98-5.46-42.34-16.34-12.01-11.5-18.02-26.66-18.02-45.48,0-17.34,5.39-35.24,16.17-53.71,12.24-21.08,26.47-31.63,42.69-31.63m0-3.78c-17.58,0-33.05,11.27-45.96,33.51-11.08,18.97-16.69,37.68-16.69,55.61,0,19.81,6.46,36.03,19.18,48.21,12.08,11.54,28.26,17.8,44.96,17.39,8.03,0,17.91-3.09,30.19-9.44,14.51-7.58,21.55-15.35,21.55-23.75,.03-5.2-1.88-10.23-5.34-14.11-3.29-4.06-8.24-6.42-13.47-6.4-2.09,0-5.49,.87-16.06,7.2-6.8,4.06-12.47,6.13-16.88,6.13-7.02,.39-13.91-1.93-19.27-6.48-5.03-4.52-7.47-10.66-7.47-18.75,0-8.58,3.18-19.08,9.44-31.19,8.05-15.39,13.36-17.69,15.81-17.69,8.27,0,14.43,1.73,18.34,5.14,5.39,4.72,10.09,7.01,14.37,7.01,5.39,.05,10.48-2.49,13.67-6.83,3.08-3.89,4.74-8.72,4.69-13.68,0-9.41-7.27-17.55-21.58-24.21-11.1-5.09-21.01-7.67-29.48-7.67h0Z"/></g><g id="Group_42"><path id="Path_95" class="cls-4" d="M211.89,330.65c5-5.82,11.11-10.6,17.96-14.05,6.38-3.09,13.39-4.68,20.48-4.64,13.08,0,22.49,4.18,28.23,12.55,4.28,6.27,6.88,15.9,7.8,28.88,.38,10.72,.8,21.48,1.26,32.28,1.22,14.03,1.99,22.57,2.3,25.62,1.07,9.67,2.37,18.12,3.9,25.35,.35,1.59,.55,3.21,.57,4.84,.14,4.54-1.63,8.92-4.88,12.09-3,3.07-7.12,4.8-11.42,4.77-7.73,0-12.74-4.36-15.03-13.07-2.32-9.81-4-19.77-5.05-29.8-1.23-10.06-1.92-20.18-2.07-30.32,0-2.18,.1-5.47,.29-9.87,.19-4.4,.29-7.69,.29-9.87,0-6.45-.08-10.19-.23-11.24-.69-4.79-2.68-7.19-5.97-7.19-8.49,0-16.18,4.44-23.06,13.33-.66,.83-1.36,1.81-2.11,2.92-7.95,11.94-12.29,25.91-12.51,40.25-.44,20.99-1.72,34.04-3.85,39.16-2.98,7.15-7.73,10.72-14.23,10.72-4.31-.01-8.44-1.78-11.42-4.9-3.28-3.15-5.09-7.54-4.99-12.09,.12-2.35,.54-4.68,1.26-6.93,.53-1.92,.99-13.68,1.38-35.29-.38-17.51-.3-46.66,.23-87.43l.23-4.31c.46-10.28,.69-17.16,.69-20.65-.11-4-.48-8-1.09-11.95-.62-3.96-.98-7.95-1.09-11.95-.17-4.54,1.53-8.96,4.7-12.22,2.96-3.1,7.07-4.83,11.36-4.77,7.57,0,12.66,4.62,15.26,13.85,1.72,7.89,2.46,15.97,2.18,24.05,0,8.71-.23,17.56-.69,26.53-.46,8.53-.69,16.98-.69,25.35Z"/><path id="Path_96" class="cls-4" d="M195.83,240.87c7.57,0,12.66,4.62,15.26,13.85,1.72,7.89,2.46,15.97,2.18,24.05,0,8.71-.23,17.56-.69,26.53-.46,8.54-.69,16.99-.69,25.35,5-5.82,11.11-10.6,17.96-14.05,6.38-3.09,13.39-4.68,20.48-4.64,13.08,0,22.49,4.18,28.23,12.55,4.28,6.27,6.88,15.9,7.8,28.88,.38,10.72,.8,21.48,1.26,32.28,1.22,14.03,1.99,22.57,2.3,25.62,1.07,9.67,2.37,18.12,3.9,25.35,.35,1.59,.55,3.21,.57,4.84,.14,4.54-1.63,8.92-4.88,12.09-3,3.07-7.12,4.8-11.42,4.77-7.73,0-12.74-4.36-15.03-13.07-2.32-9.81-4-19.77-5.05-29.8-1.23-10.06-1.92-20.18-2.07-30.32,0-2.18,.1-5.47,.29-9.87,.19-4.4,.29-7.69,.29-9.87,0-6.45-.08-10.19-.23-11.24-.69-4.79-2.68-7.19-5.97-7.19-8.49,0-16.18,4.44-23.06,13.33-.66,.83-1.36,1.81-2.11,2.92-7.95,11.94-12.29,25.91-12.51,40.25-.44,20.99-1.72,34.04-3.85,39.16-2.98,7.15-7.73,10.72-14.23,10.72-4.31-.01-8.44-1.78-11.42-4.9-3.28-3.15-5.09-7.54-4.99-12.09,.12-2.35,.54-4.68,1.26-6.93,.53-1.92,.99-13.68,1.38-35.29-.38-17.51-.31-46.66,.23-87.43l.23-4.31c.46-10.28,.69-17.16,.69-20.65-.11-4-.48-8-1.09-11.95-.62-3.96-.98-7.95-1.09-11.95-.17-4.54,1.53-8.96,4.7-12.22,2.96-3.1,7.07-4.83,11.36-4.77m0-3.78c-5.3-.07-10.4,2.06-14.06,5.9-3.87,3.96-5.96,9.33-5.79,14.87,.11,4.18,.48,8.35,1.13,12.48,.59,3.79,.94,7.61,1.05,11.44,0,3.42-.23,10.31-.68,20.48l-.23,4.28v.15c-.53,40.57-.61,70-.23,87.49-.5,28.22-1.04,33.39-1.25,34.3-.81,2.56-1.28,5.22-1.39,7.9-.1,5.57,2.11,10.93,6.13,14.79,3.68,3.82,8.76,5.98,14.06,5.99,5.6,0,13.22-2.26,17.72-13.04,1.49-3.59,3.54-11.69,4.14-40.55,.2-13.61,4.32-26.88,11.87-38.21,.7-1.03,1.35-1.93,1.95-2.69,6.21-8.02,12.78-11.9,20.1-11.9,.45,0,1.66,0,2.22,3.95,.04,.32,.19,2.01,.19,10.7,0,2.08-.1,5.35-.28,9.7-.19,4.42-.29,7.79-.29,10.03,.15,10.28,.84,20.54,2.09,30.74,1.07,10.21,2.8,20.34,5.16,30.33,3.46,13.14,12.08,15.9,18.69,15.9,5.29,.03,10.36-2.08,14.06-5.85,3.98-3.88,6.16-9.24,6.02-14.79-.03-1.89-.25-3.77-.65-5.61-1.5-7.09-2.79-15.49-3.84-24.99-.3-2.97-1.07-11.55-2.28-25.44-.47-10.81-.88-21.63-1.26-32.17v-.13c-.97-13.79-3.74-23.85-8.44-30.75-6.47-9.42-17.01-14.2-31.35-14.2-7.66-.03-15.23,1.68-22.13,5.02-4.49,2.21-8.67,5-12.42,8.3,.11-5.31,.3-10.66,.59-16,.47-9.01,.7-18,.7-26.72,.29-8.42-.49-16.84-2.32-25.06-3.87-13.74-12.42-16.62-18.91-16.62h-.04Z"/></g><g id="Group_43"><path id="Path_97" class="cls-4" d="M362.33,388.93c0,4.97,.13,12.94,.4,23.91,.27,10.97,.4,18.94,.4,23.91,.17,4.58-1.43,9.05-4.47,12.48-2.88,3.22-7.04,5.02-11.36,4.9-4.32,.12-8.48-1.68-11.36-4.9-3.04-3.43-4.65-7.9-4.47-12.48,0-4.97-.13-12.94-.4-23.91-.27-10.97-.4-18.94-.4-23.91,0-7.75,.38-17.47,1.15-29.14,.77-11.67,1.15-21.39,1.15-29.14-.17-4.58,1.43-9.05,4.47-12.48,2.88-3.22,7.04-5.01,11.36-4.9,4.32-.12,8.48,1.68,11.36,4.9,3.04,3.43,4.65,7.9,4.47,12.48,0,7.75-.38,17.47-1.15,29.14-.77,11.68-1.15,21.39-1.15,29.14Zm-9.75-95.8c-4.85,.02-9.48-2.03-12.74-5.63-3.56-3.67-5.51-8.61-5.39-13.72-.11-5.11,1.83-10.05,5.39-13.72,3.25-3.6,7.89-5.64,12.74-5.63,4.84-.03,9.45,2.02,12.68,5.63,3.53,3.68,5.45,8.62,5.34,13.72,.12,5.1-1.8,10.04-5.34,13.72-3.23,3.6-7.84,5.65-12.68,5.63h0Z"/><path id="Path_98" class="cls-4" d="M352.58,254.46c4.84-.03,9.45,2.02,12.68,5.63,3.53,3.68,5.45,8.62,5.34,13.72,.12,5.1-1.8,10.04-5.34,13.72-3.23,3.6-7.84,5.65-12.68,5.63-4.85,.02-9.48-2.03-12.74-5.63-3.56-3.67-5.51-8.61-5.39-13.72-.11-5.11,1.83-10.05,5.39-13.72,3.25-3.6,7.89-5.64,12.74-5.63m-3.79,58.81c4.32-.12,8.48,1.68,11.36,4.9,3.04,3.43,4.65,7.9,4.47,12.48,0,7.75-.38,17.47-1.15,29.14-.77,11.68-1.15,21.39-1.15,29.14,0,4.97,.13,12.94,.4,23.91,.27,10.97,.4,18.94,.4,23.91,.17,4.58-1.43,9.05-4.47,12.48-2.88,3.22-7.04,5.02-11.36,4.9-4.32,.12-8.48-1.68-11.36-4.9-3.04-3.43-4.65-7.9-4.47-12.48,0-4.97-.13-12.94-.4-23.91-.27-10.97-.4-18.94-.4-23.91,0-7.75,.38-17.47,1.15-29.14,.77-11.67,1.15-21.39,1.15-29.14-.17-4.58,1.43-9.05,4.47-12.48,2.88-3.22,7.04-5.01,11.36-4.9m3.79-62.59c-5.88-.03-11.51,2.44-15.47,6.78-4.24,4.37-6.56,10.25-6.45,16.34-.12,6.09,2.2,11.97,6.45,16.34,3.97,4.35,9.59,6.81,15.47,6.78,5.87,.03,11.48-2.44,15.42-6.8,4.2-4.38,6.5-10.25,6.38-16.33,.12-6.07-2.17-11.94-6.38-16.33-3.94-4.36-9.55-6.83-15.42-6.8Zm-3.79,58.8c-5.39-.13-10.56,2.12-14.15,6.13-3.69,4.12-5.64,9.51-5.47,15.03,0,7.62-.38,17.35-1.14,28.9-.76,11.69-1.15,21.58-1.15,29.39,0,5.03,.13,13.11,.4,24.01,.26,10.93,.4,18.95,.4,23.82-.18,5.53,1.78,10.91,5.47,15.03,3.59,4.01,8.76,6.25,14.15,6.13,5.39,.13,10.56-2.12,14.16-6.13,3.68-4.12,5.64-9.5,5.46-15.03,0-5.01-.13-12.86-.4-24.01-.26-10.85-.4-18.87-.4-23.82,0-7.64,.38-17.36,1.14-28.9,.77-11.72,1.16-21.61,1.16-29.39,.18-5.53-1.78-10.91-5.46-15.03-3.59-4.02-8.77-6.26-14.16-6.13Z"/></g><g id="Group_44"><path id="Path_99" class="cls-4" d="M433.56,334.57c11.55-15.25,22.49-22.87,32.82-22.87,10.91-.51,21.09,5.49,25.93,15.29,4.41-4.53,9.67-8.12,15.49-10.59,5.83-2.38,12.07-3.57,18.36-3.52,14.99,0,25.17,8.5,30.52,25.48,1.07,3.49,2.71,15.29,4.92,35.42,2.14,14.12,4.89,37.64,8.26,70.57,.45,4.56-1.19,9.08-4.47,12.29-3.05,3.12-7.23,4.87-11.59,4.84-8.8,0-13.96-4.97-15.49-14.9-1.38-8.97-2.79-21.65-4.25-38.03-1.53-17.95-2.79-30.67-3.79-38.16-2.07-15.6-4.7-23.4-7.92-23.39-1.76,0-5.78,2-12.05,6.01-4.92,2.98-9.53,6.43-13.77,10.31,.3,14.33,1.34,28.64,3.1,42.87,1.8,14.22,2.88,28.53,3.23,42.87,.15,4.56-1.45,9.01-4.47,12.42-2.86,3.26-7.02,5.08-11.36,4.96-4.34,.11-8.5-1.71-11.36-4.96-3.02-3.42-4.62-7.86-4.47-12.42,0-9.93-.94-24.54-2.81-43.83-1.88-19.29-2.81-33.91-2.81-43.85,.11-4.48-.31-8.95-1.26-13.33-8.88,5.84-17.79,15.55-26.74,29.14-.38,.61-1.03,1.52-1.95,2.74-.31,17.6-.47,31.41-.47,41.43,0,2.44-.08,5.73-.23,9.87-.16,4.14-.23,7.21-.23,9.21,.19,4.3-1.69,8.42-5.05,11.11-3.21,2.58-7.24,3.93-11.36,3.79-6.12,.28-11.62-3.75-13.19-9.67-1.61-4.36-2.41-11.28-2.41-20.78v-48.62c0-4.36-.16-10.74-.47-19.15s-.47-14.79-.47-19.15c-.1-7.18,1.14-14.32,3.67-21.04,2.98-7.84,7.19-11.76,12.62-11.76,4.48,.09,8.7,2.17,11.49,5.69,6.13,6.77,5.05,12.48,5.05,12.48,0,0-.32,1.91-1.01,11.23Z"/><path id="Path_100" class="cls-4" d="M418.07,305.16c4.48,.09,8.7,2.17,11.49,5.69,6.13,6.77,5.05,12.48,5.05,12.48,0,0-.34,1.92-1.03,11.24,11.55-15.25,22.49-22.87,32.82-22.87,10.91-.51,21.09,5.49,25.93,15.29,4.41-4.53,9.67-8.12,15.49-10.59,5.83-2.38,12.07-3.57,18.36-3.52,14.99,0,25.17,8.49,30.52,25.48,1.07,3.49,2.71,15.29,4.92,35.42,2.14,14.12,4.89,37.64,8.26,70.57,.45,4.56-1.19,9.08-4.47,12.29-3.05,3.12-7.23,4.87-11.59,4.84-8.8,0-13.96-4.97-15.49-14.9-1.38-8.97-2.79-21.65-4.25-38.03-1.53-17.95-2.8-30.67-3.79-38.16-2.07-15.6-4.71-23.4-7.92-23.39-1.76,0-5.78,2-12.05,6.01-4.92,2.98-9.53,6.43-13.77,10.31,.3,14.33,1.34,28.64,3.1,42.87,1.8,14.22,2.87,28.53,3.21,42.87,.15,4.56-1.45,9.01-4.47,12.42-2.86,3.26-7.02,5.08-11.36,4.96-4.34,.11-8.5-1.71-11.36-4.96-3.02-3.42-4.62-7.86-4.47-12.42,0-9.93-.94-24.54-2.81-43.83s-2.81-33.91-2.81-43.85c.11-4.48-.31-8.95-1.26-13.33-8.88,5.84-17.79,15.55-26.74,29.14-.38,.61-1.03,1.52-1.95,2.74-.31,17.6-.47,31.41-.47,41.43,0,2.44-.08,5.73-.23,9.87-.16,4.14-.23,7.21-.23,9.21,.19,4.3-1.69,8.42-5.05,11.11-3.21,2.58-7.24,3.93-11.36,3.79-6.12,.28-11.62-3.75-13.19-9.67-1.61-4.36-2.41-11.28-2.41-20.78v-48.62c0-4.36-.16-10.74-.47-19.15-.31-8.41-.47-14.79-.47-19.15-.1-7.18,1.14-14.32,3.67-21.04,2.98-7.84,7.19-11.76,12.62-11.76m0-3.78c-7.14,0-12.57,4.78-16.16,14.2-2.69,7.15-4.02,14.75-3.92,22.39,0,4.4,.15,10.89,.47,19.28s.46,14.77,.46,19.01v48.62c0,10.04,.87,17.27,2.64,22.09,2.12,7.42,9.03,12.44,16.75,12.14,5,.14,9.88-1.51,13.77-4.66,4.25-3.39,6.63-8.6,6.42-14.03,0-1.98,.08-5.03,.23-9.07,.15-4.18,.23-7.55,.23-10.01,0-9.74,.15-23.25,.44-40.15,.59-.81,1.04-1.46,1.37-1.98,5.71-9.11,12.71-17.34,20.79-24.43,.16,1.96,.24,4.14,.23,6.56,0,10.02,.95,24.89,2.83,44.21,1.85,19.1,2.79,33.72,2.79,43.48-.15,5.49,1.8,10.84,5.45,14.95,3.57,4.06,8.76,6.34,14.17,6.22,5.41,.12,10.59-2.15,14.17-6.21,3.65-4.11,5.6-9.46,5.45-14.95-.33-14.48-1.4-28.93-3.2-43.3-1.93-17.42-2.96-31.14-3.07-40.82,3.77-3.23,7.79-6.16,12.02-8.76,2.97-2.06,6.14-3.81,9.46-5.24,.82,1.24,2.81,5.59,4.72,19.92,.98,7.41,2.25,20.19,3.77,37.99,1.45,16.38,2.89,29.25,4.28,38.28,2.31,14.96,11.72,18.11,19.22,18.11,5.35,.04,10.49-2.1,14.24-5.91,4.07-3.96,6.13-9.56,5.6-15.22v-.15c-3.35-32.78-6.13-56.56-8.27-70.68-3.01-27.31-4.34-33.65-5.07-36.04-5.89-18.69-17.37-28.16-34.14-28.16-6.79-.05-13.53,1.25-19.81,3.82-4.82,2.02-9.29,4.78-13.25,8.19-6.06-8.68-16.14-13.66-26.72-13.18-9.18,0-18.39,4.92-27.94,14.99,.01-5.49-2.19-10.74-6.09-14.59-3.5-4.31-8.73-6.85-14.28-6.93l-.04,.02Z"/></g><g id="Group_45"><path id="Path_101" class="cls-4" d="M656.13,457.94c-7-.05-13.97-.93-20.77-2.61l-.11,53.32c.16,4.6-1.44,9.09-4.47,12.55-2.86,3.26-7.02,5.08-11.36,4.96-4.34,.11-8.5-1.71-11.36-4.96-3.04-3.46-4.64-7.95-4.47-12.55,0-4.1,.08-20.35,.23-48.76,.16-21.08,.16-38.29,0-51.62-.23-18.82-.76-35.03-1.61-48.62-1.15-18.73-1.72-25.75-1.72-25.75,0,0-.6-12.57,4.25-18.56,3.28-5.84,7.72-8.75,13.31-8.76,4.16-.06,8.12,1.77,10.78,4.97,2.89,3.28,4.45,7.52,4.36,11.89l-.11,1.31c4.79-3.15,9.98-5.63,15.43-7.38,5.03-1.59,10.27-2.4,15.55-2.42,17.59,0,30.45,8.5,38.56,25.48,6.04,12.81,9.06,29.41,9.06,49.79,0,19.08-4.78,34.9-14.34,47.44-9.53,13.16-24.96,20.74-41.2,20.27Zm7.92-108.08c-5.13,.08-10.17,1.4-14.69,3.85-5.59,3.04-10.66,6.95-15.03,11.57,.92,17.95,1.38,35.94,1.38,53.97,6.53,2.48,13.45,3.76,20.43,3.79,7.32,.3,14.23-3.34,18.13-9.54,3.83-5.75,5.74-13.51,5.74-23.26,.24-8.17-.22-16.35-1.38-24.44-2.22-10.63-7.08-15.94-14.57-15.94h0Z"/><path id="Path_102" class="cls-4" d="M618.03,306.6c4.16-.06,8.12,1.77,10.78,4.97,2.89,3.28,4.45,7.52,4.36,11.89l-.11,1.31c4.79-3.15,9.98-5.63,15.43-7.38,5.03-1.59,10.27-2.4,15.55-2.42,17.59,0,30.45,8.5,38.56,25.48,6.04,12.81,9.06,29.41,9.06,49.79,0,19.08-4.78,34.9-14.34,47.44-9.54,13.15-24.96,20.73-41.19,20.26-7-.05-13.97-.93-20.77-2.61l-.11,53.32c.16,4.6-1.44,9.09-4.47,12.55-2.86,3.26-7.02,5.08-11.36,4.96-4.34,.11-8.5-1.71-11.36-4.96-3.04-3.46-4.64-7.95-4.47-12.55,0-4.1,.08-20.35,.23-48.76,.16-21.08,.16-38.29,0-51.62-.23-18.82-.76-35.03-1.61-48.62-1.15-18.73-1.72-25.75-1.72-25.75,0,0-.6-12.57,4.25-18.56,3.28-5.84,7.72-8.75,13.31-8.76m38.1,116.44c7.32,.3,14.23-3.34,18.13-9.54,3.83-5.75,5.74-13.51,5.74-23.26,.24-8.17-.22-16.35-1.38-24.44-2.22-10.63-7.08-15.94-14.57-15.94-5.13,.08-10.17,1.4-14.69,3.85-5.59,3.04-10.66,6.95-15.03,11.57,.92,17.95,1.38,35.94,1.38,53.97,6.53,2.48,13.45,3.76,20.43,3.79m-38.1-120.21c-4.78,0-11.49,1.81-16.46,10.42-5.38,6.97-4.95,19.44-4.88,20.86v.13c0,.07,.58,7.21,1.72,25.67,.84,13.49,1.37,29.79,1.6,48.43,.15,13.24,.15,30.59,0,51.55-.15,27.69-.23,44.55-.23,48.77-.17,5.54,1.78,10.93,5.45,15.08,3.57,4.06,8.76,6.34,14.17,6.22,5.41,.12,10.6-2.15,14.17-6.22,3.67-4.15,5.61-9.54,5.45-15.08l.1-48.63c5.6,1.11,11.29,1.68,17,1.71,17.42,.47,33.95-7.67,44.21-21.75,10.03-13.16,15.11-29.89,15.11-49.73,0-20.86-3.17-38.15-9.43-51.4-8.76-18.36-22.88-27.66-41.98-27.66-5.66,.01-11.28,.88-16.68,2.58-3.79,1.2-7.45,2.75-10.95,4.63-.77-3.46-2.41-6.67-4.76-9.33-3.37-4.03-8.38-6.32-13.63-6.25v.02Zm20.17,63.95c3.8-3.85,8.15-7.11,12.91-9.7,3.98-2.17,8.42-3.34,12.95-3.43,3.52,0,8.44,1.34,10.87,12.93,1.09,7.84,1.53,15.76,1.3,23.68,0,8.96-1.72,16.08-5.11,21.17-3.21,5.13-8.93,8.14-14.98,7.85-5.65-.02-11.27-.94-16.64-2.7-.04-16.58-.47-33.3-1.29-49.8h0Z"/></g><g id="Group_46"><path id="Path_103" class="cls-4" d="M775.67,431.02c0,16.56-5.28,24.83-15.83,24.83-4.34,.11-8.5-1.71-11.36-4.97-3.07-3.54-4.67-8.12-4.47-12.81v-180.74c-.17-4.63,1.57-9.12,4.82-12.42,3.03-2.95,7.13-4.56,11.36-4.45,4.2-.13,8.26,1.56,11.13,4.64,3,3.34,4.57,7.73,4.36,12.22v173.71Z"/><path id="Path_104" class="cls-4" d="M760.18,240.47c4.2-.13,8.26,1.56,11.13,4.64,3,3.34,4.57,7.73,4.36,12.22v173.7c0,16.56-5.28,24.83-15.83,24.83-4.34,.11-8.5-1.71-11.36-4.97-3.07-3.54-4.67-8.12-4.47-12.81v-180.75c-.17-4.63,1.57-9.12,4.82-12.42,3.03-2.95,7.13-4.56,11.36-4.45m0-3.78c-5.21-.12-10.26,1.87-13.99,5.51l-.02,.02-.02,.02c-3.96,4.01-6.1,9.46-5.92,15.09v180.74c-.2,5.62,1.75,11.1,5.45,15.34,3.57,4.06,8.76,6.34,14.17,6.22,8.95,0,19.62-4.96,19.62-28.61v-173.7c.21-5.45-1.73-10.77-5.39-14.81-3.58-3.84-8.64-5.97-13.89-5.83h0Z"/></g><g id="Group_47"><path id="Path_105" class="cls-4" d="M874.1,456.24c-18.28,0-33.24-4.97-44.87-14.9-12.85-10.98-19.28-26.44-19.28-46.39,0-22.03,5.09-40.68,15.26-55.94,11.32-16.9,26.58-25.35,45.78-25.35,13.31,0,24.37,2.44,33.16,7.32,11.55,6.45,17.33,16.47,17.33,30.06,0,9.58-4.7,18.08-14.11,25.48-4.29,3.4-12.89,8.37-25.82,14.9l-38.68,19.47c3.54,4.44,8.11,7.94,13.32,10.2,5.67,2.36,11.76,3.51,17.9,3.4,9.21,.29,18.29-2.21,26.05-7.18,6.35-4.27,11.44-6.41,15.26-6.4,7.96,0,11.93,4.4,11.93,13.2,0,9.93-6.39,18.03-19.16,24.31-10.61,5.2-22.27,7.88-34.08,7.83Zm-3.1-110.95c-6.97-.06-13.62,2.89-18.24,8.1-5.05,5.4-9.1,13.51-12.16,24.31,8.64-4.27,17.25-8.49,25.82-12.68,8.6-4.27,16.85-9.21,24.67-14.77-6.08-3.56-13.05-5.28-20.08-4.97Z"/><path id="Path_106" class="cls-4" d="M871,313.66c13.31,0,24.37,2.44,33.16,7.32,11.55,6.45,17.33,16.47,17.33,30.06,0,9.58-4.7,18.08-14.11,25.48-4.29,3.4-12.89,8.37-25.82,14.9l-38.68,19.47c3.54,4.43,8.11,7.93,13.31,10.19,5.67,2.36,11.76,3.51,17.9,3.4,9.21,.29,18.29-2.21,26.05-7.18,6.35-4.27,11.44-6.41,15.26-6.4,7.96,0,11.93,4.4,11.93,13.2,0,9.93-6.39,18.03-19.16,24.31-10.61,5.2-22.27,7.89-34.08,7.84-18.28,0-33.24-4.97-44.87-14.9-12.85-10.98-19.28-26.44-19.28-46.39,0-22.03,5.09-40.68,15.26-55.94,11.32-16.9,26.58-25.35,45.78-25.35m-30.41,64.04c8.64-4.27,17.25-8.49,25.82-12.68,8.6-4.27,16.85-9.21,24.67-14.77-6.08-3.56-13.05-5.28-20.08-4.97-6.97-.06-13.62,2.89-18.24,8.1-5.05,5.4-9.1,13.51-12.16,24.31m30.41-67.82c-20.45,0-36.91,9.09-48.93,27.03-10.55,15.81-15.9,35.34-15.9,58.04,0,21.01,6.93,37.59,20.6,49.27,12.28,10.49,28.2,15.8,47.32,15.8,12.39,.03,24.61-2.78,35.74-8.23,14.13-6.94,21.29-16.26,21.29-27.7s-5.58-16.98-15.72-16.98c-4.64,0-10.31,2.31-17.37,7.05-7.14,4.54-15.48,6.82-23.94,6.54-5.62,.11-11.2-.94-16.39-3.08-3.17-1.38-6.08-3.28-8.61-5.63l34.16-17.2c13.28-6.71,21.94-11.72,26.47-15.31,10.31-8.12,15.55-17.69,15.55-28.45,0-15-6.48-26.23-19.27-33.36-9.34-5.18-21.11-7.8-35.01-7.8h0Zm-23.95,60.42c1.91-5.26,4.78-10.11,8.47-14.32,3.9-4.45,9.55-6.97,15.47-6.9,4.26-.08,8.5,.53,12.57,1.79-6.1,3.91-12.39,7.51-18.85,10.78-5.7,2.78-11.61,5.68-17.66,8.65h0Z"/></g></g></g></g></g></g></svg>