<svg width="318" height="52" viewBox="0 0 318 52" fill="none" xmlns="http://www.w3.org/2000/svg">
<g id="Group 47756">
<g id="Group 47758">
<g id="Group 225">
<path id="Vector" d="M69.1223 39.5218C66.5704 39.5218 64.4374 38.5462 62.7234 36.5724C60.9141 34.5078 60 31.7627 60 28.3822C60 25.0017 60.8189 22.0297 62.4377 18.6946C64.285 14.9058 66.4371 13 68.8938 13C71.3506 13 71.5029 13.4311 73.1027 14.3159C75.0643 15.4049 76.0355 16.6527 76.0355 18.0593C76.0355 19.466 75.8451 19.5113 75.4452 20.1012C75.0262 20.7365 74.493 21.0768 73.8264 21.0768C73.1598 21.0768 72.7218 20.7138 72.0362 19.9878C71.3506 19.2618 70.2841 18.8988 68.8938 18.8988C67.5036 18.8988 73.0646 22.1405 72.0362 24.5C71.0459 26.7914 64.5136 26.726 64.5136 28.3822C64.5136 30.0384 64.9516 31.3316 65.8277 32.2618C66.6656 33.1466 67.7511 33.6003 69.1223 33.6003C70.4936 33.6003 70.8554 33.192 71.96 32.3979C73.0646 31.6038 73.7883 31.1955 74.093 31.1955C74.7215 31.1955 75.2547 31.4904 75.6927 32.103C76.1307 32.7155 76.3593 33.4188 76.3593 34.1902C76.3593 35.4154 77.9971 38.2967 76.0355 39.5218C74.2834 40.6108 70.2079 39.4991 69.1033 39.4991L69.1223 39.5218Z" stroke="#F34D08" stroke-width="8" stroke-miterlimit="7.1"/>
<path id="Vector_2" d="M82.7158 23.8934C83.3852 23.1328 84.1154 22.5699 84.8913 22.1896C85.6672 21.8092 86.4887 21.6267 87.371 21.6267C88.9532 21.6267 90.0942 22.1287 90.7788 23.148C91.296 23.9087 91.6155 25.0649 91.722 26.6318C91.7676 27.9249 91.8133 29.2333 91.8741 30.5264C92.0263 32.215 92.1175 33.2495 92.148 33.6147C92.2697 34.7861 92.437 35.8053 92.6196 36.6725C92.6652 36.9007 92.6957 37.0833 92.6957 37.2506C92.6957 37.8439 92.4979 38.3307 92.1023 38.7111C91.7068 39.0914 91.2504 39.2892 90.7179 39.2892C89.7899 39.2892 89.1814 38.7567 88.9076 37.707C88.6794 36.8551 88.4816 35.6532 88.299 34.1015C88.1317 32.6106 88.0556 31.3935 88.0556 30.4351C88.0556 29.4767 88.0556 29.7809 88.0861 29.2485C88.1013 28.716 88.1165 28.3205 88.1165 28.0619C88.1165 27.286 88.1165 26.8296 88.0861 26.7079C88.01 26.1298 87.7666 25.8407 87.371 25.8407C86.3518 25.8407 85.728 37.0224 84.8913 38.1025C84.4653 38.635 83.583 29.0051 82.8375 30.5112C82.8375 34.3297 82.6702 36.6116 82.3507 37.4027C81.9856 38.2699 81.4227 38.6958 80.6316 38.6958C79.8405 38.6958 79.658 38.4981 79.2472 38.1025C78.8364 37.707 78.6387 37.2202 78.6387 36.6421C78.6387 36.064 78.6843 36.1705 78.7908 35.8053C78.8517 35.5772 78.9125 34.1471 78.9582 31.5457C78.9125 29.431 78.9277 25.9016 78.9886 20.9877L79.019 20.4705C79.0799 19.223 79.0951 18.4015 79.0951 17.9755C79.0951 17.5496 79.0494 17.1692 78.9582 16.5303C78.8669 15.8913 78.8212 15.4197 78.8212 15.085C78.8212 14.4917 79.0038 13.9897 79.3841 13.6094C79.7645 13.229 80.2209 13.0312 80.7533 13.0312C81.6661 13.0312 82.2898 13.5941 82.5941 14.7047C82.7767 15.3436 82.8527 16.3021 82.8527 17.6104C82.8527 18.9187 82.8223 19.725 82.7766 20.8204C82.7158 21.8549 82.7006 22.8742 82.7006 23.8782L82.7158 23.8934Z" stroke="#F34D08" stroke-width="8" stroke-miterlimit="7.1"/>
<path id="Vector_3" d="M99.3278 30.9426C99.3278 31.5359 99.3431 32.5095 99.3735 33.8331C99.4039 35.1566 99.4191 36.1302 99.4191 36.7236C99.4191 37.3169 99.2366 37.8341 98.8715 38.2297C98.5063 38.6252 98.0499 38.823 97.5023 38.823C96.9546 38.823 96.4982 38.6252 96.1331 38.2297C95.768 37.8341 95.5854 37.3321 95.5854 36.7236C95.5854 36.115 95.5702 35.1566 95.5398 33.8331C95.5094 32.5095 95.4941 31.5359 95.4941 30.9426C95.4941 29.9993 95.5398 28.8279 95.631 27.4283C95.7223 26.0287 95.768 24.8421 95.768 23.9141C95.768 22.9861 95.9505 22.8035 96.3156 22.408C96.6808 22.0124 97.1371 21.8147 97.6848 21.8147C98.2325 21.8147 98.6889 22.0124 99.054 22.408C99.4191 22.8035 99.6017 23.3055 99.6017 23.9141C99.6017 24.8573 99.5561 26.0287 99.4648 27.4283C99.3735 28.8279 99.3278 30.0146 99.3278 30.9426ZM98.1564 18.6807C97.5631 18.6807 97.0459 19.1371 96.6199 18.6807C96.1787 18.2244 95.9658 17.6767 95.9658 17.0225C95.9658 16.3683 96.1787 15.8207 96.6199 15.3643C97.0611 14.9079 97.5631 14.6797 98.1564 14.6797C98.7498 14.6797 99.2518 14.9079 99.693 15.3643C100.119 15.8207 100.332 16.3683 100.332 17.0225C99.6273 17.2925 100.119 18.2244 99.693 18.6807C99.054 18.6807 98.5139 17.0225 98.1564 18.6807Z" stroke="#F34D08" stroke-width="8" stroke-miterlimit="7.1"/>
<path id="Vector_4" d="M106.541 24.3642C107.94 22.5234 109.264 21.5954 110.511 21.5954C111.759 21.5954 112.976 22.2039 113.645 23.4362C114.208 22.8733 114.832 22.4473 115.517 22.1582C116.201 21.8692 116.947 21.7323 117.738 21.7323C119.548 21.7323 120.78 22.7516 121.419 24.8053C121.541 25.2313 121.754 26.6461 122.013 29.0802C122.271 30.7841 122.606 33.629 123.017 37.6148C123.047 38.2081 122.88 38.7102 122.469 39.1057C122.073 39.5012 121.602 39.6838 121.069 39.6838C120.004 39.6838 119.381 39.0905 119.198 37.8886C119.031 36.8085 118.863 35.272 118.681 33.2943C118.498 31.1188 118.346 29.5823 118.224 28.6847C117.981 26.7983 117.662 25.855 117.266 25.855C116.871 25.855 116.566 26.0985 115.806 26.5853C115.045 27.0721 114.497 27.4829 114.147 27.8328C114.147 29.0346 114.269 30.7537 114.528 33.0052C114.786 35.3176 114.923 37.0367 114.923 38.1777C114.923 39.3187 114.741 39.273 114.376 39.6838C114.01 40.0793 113.554 40.2771 113.006 40.2771C112.459 40.2771 112.002 40.0793 111.637 39.6838C111.272 39.2883 111.089 38.7862 111.089 38.1777C111.089 36.9759 110.983 35.2111 110.755 32.8835C110.527 30.5559 110.42 28.7912 110.42 27.5893C110.42 26.3875 110.374 26.3723 110.268 25.9767C109.188 26.6766 108.123 27.8632 107.043 29.491C106.997 29.5671 106.921 29.6735 106.815 29.8257C106.784 31.9555 106.754 33.6138 106.754 34.8308C106.754 36.0479 106.754 35.5306 106.723 36.0174C106.693 36.5043 106.693 36.8846 106.693 37.128C106.693 37.6909 106.495 38.1473 106.084 38.4668C105.719 38.771 105.263 38.9231 104.715 38.9231C103.924 38.9231 103.392 38.5276 103.118 37.7517C102.92 37.2193 102.829 36.3825 102.829 35.2416V29.3693C102.829 28.8368 102.814 28.0762 102.768 27.0569C102.737 26.0376 102.707 25.2769 102.707 24.7445C102.707 23.8013 102.859 22.9645 103.148 22.2039C103.513 21.2607 104.015 20.7891 104.67 20.7891C105.324 20.7891 105.643 21.0173 106.054 21.4737C106.465 21.93 106.662 22.4321 106.662 22.9798C106.662 22.7516 106.617 23.208 106.541 24.3337V24.3642Z" stroke="#F34D08" stroke-width="8" stroke-miterlimit="7.1"/>
<path id="Vector_5" d="M131.414 39.2671C130.622 39.2671 129.786 39.1606 128.903 38.9476V45.398C128.903 46.0065 128.706 46.5086 128.356 46.9193C127.991 47.3149 127.534 47.5126 126.986 47.5126C126.439 47.5126 125.982 47.3149 125.617 46.9193C125.252 46.5238 125.07 46.0065 125.07 45.398C125.07 44.7895 125.07 42.9335 125.1 39.5105C125.115 36.9699 125.115 34.8857 125.1 33.2731C125.07 31.0064 125.009 29.0439 124.902 27.4008C124.765 25.1341 124.689 24.0996 124.689 24.2973C124.689 23.4302 124.857 22.6695 125.207 22.061C125.602 21.3612 126.135 20.9961 126.819 20.9961C127.504 20.9961 127.778 21.1939 128.127 21.5894C128.477 21.9849 128.66 22.4718 128.66 23.0194L123.168 25.058C123.776 24.6625 129.892 22.4718 130.516 22.274C131.14 22.0762 131.763 21.9849 132.402 21.9849C134.532 21.9849 136.084 23.0042 137.058 25.058C137.788 26.6097 138.153 28.6179 138.153 31.0672C138.153 33.5165 137.575 35.2812 136.419 36.8026C135.186 38.4304 133.528 39.2519 131.444 39.2519L131.414 39.2671ZM132.372 26.2142C131.794 26.2142 131.201 26.3663 130.592 26.6858C129.983 26.9901 129.39 27.4617 128.782 28.0854C128.888 30.2609 128.949 32.4212 128.949 34.6119C129.77 34.9161 130.592 35.0683 131.414 35.0683C132.235 35.0683 133.102 34.6879 133.604 33.9121C134.061 33.2123 134.304 32.2843 134.304 31.0976C134.304 29.911 134.243 28.6939 134.137 28.1463C133.863 26.8684 133.285 26.2142 132.372 26.2142Z" stroke="#F34D08" stroke-width="8" stroke-miterlimit="7.1"/>
<path id="Vector_6" d="M144.467 36.0175C144.467 38.0256 143.828 39.0145 142.55 39.0145C141.272 39.0145 141.546 38.8167 141.181 38.4212C140.815 38.0256 140.633 37.5084 140.633 36.8694V15.0386C140.633 14.43 140.831 13.928 141.211 13.5325C141.576 13.1673 142.032 13 142.58 13C143.128 13 143.569 13.1826 143.919 13.5629C144.269 13.9432 144.451 14.43 144.451 15.0386V36.0175H144.467Z" stroke="#F34D08" stroke-width="8" stroke-miterlimit="7.1"/>
<path id="Vector_7" d="M154.964 39.0772C152.758 39.0772 150.948 38.4839 149.548 37.282C147.997 35.9585 147.221 34.0873 147.221 31.6836C147.221 29.2799 147.829 26.7697 149.062 24.9289C150.431 22.8904 152.271 21.8711 154.599 21.8711C156.927 21.8711 157.535 22.1601 158.6 22.7535C160 23.5293 160.7 24.7464 160.7 26.3894C160.7 28.0324 160.137 28.5801 158.996 29.4625C158.478 29.8732 157.444 30.4665 155.877 31.2576L151.207 33.6157C151.648 34.1633 152.18 34.5741 152.819 34.8479C153.458 35.1218 154.173 35.2587 154.979 35.2587C156.212 35.2587 157.261 34.9696 158.129 34.3915C158.889 33.8743 159.513 33.6157 159.969 33.6157C160.928 33.6157 161.415 34.1481 161.415 35.213C161.415 36.278 160.639 37.3885 159.102 38.1492C157.809 38.7881 156.44 39.0924 154.979 39.0924L154.964 39.0772ZM154.584 25.6592C153.717 25.6592 152.986 25.9786 152.378 26.6328C151.769 27.287 151.283 28.2606 150.902 29.569C151.952 29.0517 152.986 28.5497 154.021 28.0324C155.268 27.3935 156.257 26.8002 157.003 26.2525C156.379 25.8569 155.573 25.6592 154.584 25.6592Z" stroke="#F34D08" stroke-width="8" stroke-miterlimit="7.1"/>
<g id="Group">
<path id="Vector_8" d="M68.8822 38.9751C66.4238 38.9751 64.3222 37.9548 62.6567 35.9641C60.8922 33.8488 60 31.012 60 27.5779C60 24.1438 60.793 21.1576 62.3395 17.823C64.1239 13.941 66.2651 12 68.684 12C71.1028 12 71.2218 12.4479 72.7683 13.3438C74.7311 14.4885 75.7026 15.8571 75.7026 17.4249C75.7026 18.9926 75.4845 19.0424 75.0682 19.7143C74.6122 20.4608 74.0174 20.8341 73.2838 20.8341C72.5502 20.8341 72.114 20.4359 71.3804 19.6396C70.7856 18.9926 69.8736 18.6691 68.6443 18.6691C67.4151 18.6691 67.3556 19.2415 66.2255 21.9539C65.3135 24.1438 64.8575 26.035 64.8575 27.6028C64.8575 29.1705 65.2342 30.2654 65.9876 31.1115C66.7014 31.9078 67.6728 32.3309 68.8426 32.3309C70.0124 32.3309 70.3494 31.9576 71.3408 31.2111C72.8079 30.1161 73.2639 29.9668 73.5217 29.9668C74.2156 29.9668 74.7906 30.3152 75.2862 31.012C75.7621 31.6839 76 32.4802 76 33.3511C76 34.7447 75.0285 36.0636 73.0458 37.3576C71.3407 38.4774 69.9727 39 68.8624 39L68.8822 38.9751Z" fill="#FFC805"/>
<path id="Vector_9" d="M68.6271 12.8196C69.7102 12.8196 70.9644 13.2295 72.4085 14.0732C74.1567 15.1098 75.0499 16.2911 75.0499 17.6411C75.0499 18.9911 74.8789 19.0393 74.5178 19.5938C74.1378 20.2205 73.6627 20.5098 73.0736 20.5098C72.4845 20.5098 72.0855 20.1723 71.4584 19.4732C70.8313 18.7741 69.8812 18.4366 68.6271 18.4366C67.3729 18.4366 66.9549 19.5696 66.0238 21.8357C65.1307 24.0295 64.6746 25.9098 64.6746 27.5009C64.6746 29.092 65.0736 30.3214 65.8527 31.2134C66.5938 32.0571 67.582 32.4911 68.8171 32.4911C70.0523 32.4911 70.3563 32.1054 71.3634 31.3339C72.3705 30.5625 73.0166 30.1768 73.2827 30.1768C73.8527 30.1768 74.3278 30.4661 74.7268 31.0446C75.1259 31.6232 75.3349 32.2982 75.3349 33.0455C75.3349 34.2268 74.4608 35.3839 72.6936 36.5652C71.1164 37.6018 69.8242 38.108 68.8361 38.108C66.5558 38.108 64.6366 37.1679 63.0784 35.2875C61.4442 33.3107 60.6271 30.683 60.6271 27.4527C60.6271 24.2223 61.3682 21.3777 62.8314 18.1955C64.4846 14.5554 66.4228 12.7473 68.6271 12.7473M68.6271 12C66.1948 12 64.0475 13.9768 62.2803 17.858C60.7601 21.1607 60 24.4152 60 27.525C60 30.6348 60.8931 33.817 62.6414 35.9625C64.3136 37.9875 66.3848 39 68.8361 39C71.2874 39 71.3064 38.4696 72.9976 37.3607C75.0119 36.0107 76 34.6366 76 33.1179C76 31.5991 75.753 31.3098 75.2399 30.5866C74.7078 29.8152 74.0617 29.4295 73.3016 29.4295C72.5415 29.4295 72.5226 29.5741 71.0594 30.683C70.1663 31.358 69.4062 31.7196 68.8361 31.7196C67.772 31.7196 66.9359 31.358 66.3088 30.6589C65.6627 29.9116 65.3397 28.8991 65.3397 27.5491C65.3397 26.1991 65.7577 24.3188 66.6128 22.2455C67.3729 20.3893 68.133 19.2804 68.6461 19.2804C69.7292 19.2804 70.5463 19.5696 71.0404 20.1241C71.8005 20.9679 72.4655 21.3777 73.0736 21.3777C73.6817 21.3777 74.5368 20.9437 75.0309 20.1241C75.4679 19.425 75.6959 18.5813 75.6959 17.6652C75.6959 15.9777 74.6888 14.5071 72.6936 13.35C71.1734 12.458 69.8052 12.0241 68.6271 12.0241V12Z" fill="#FFC805"/>
<path id="Vector_10" d="M89.8966 38.8178C89.2272 38.8178 88.3601 38.544 88.0102 37.2052C87.8124 36.4294 87.6147 35.334 87.4473 33.9344C87.2952 32.5956 87.2191 31.4699 87.2191 30.6027C87.2191 29.7356 87.2191 29.9942 87.2495 29.5226C87.2648 29.0358 87.28 28.6859 87.28 28.4577C87.28 27.5601 87.28 27.3319 87.2647 27.271C87.1887 26.7082 86.9605 26.7082 86.8692 26.7082C86.0173 26.7082 85.2718 27.1493 84.572 28.0621C84.4959 28.1534 84.4351 28.2447 84.359 28.3664C83.5375 29.5987 83.0811 31.0591 83.0507 32.5956C83.0051 34.9233 82.8529 36.3533 82.6095 36.9466C82.2444 37.829 81.6359 38.2702 80.8296 38.2702C80.0233 38.2702 79.8103 38.0724 79.4148 37.6616C79.004 37.2509 78.791 36.7488 78.791 36.1555C78.791 35.5622 78.8367 35.6839 78.9431 35.334C78.9736 35.2275 79.0344 34.5886 79.0801 31.5612C79.0344 29.6747 79.0497 26.48 79.1105 22.0529L79.1409 21.5661C79.1866 20.4555 79.217 19.7101 79.217 19.3298C79.217 18.9494 79.1713 18.63 79.0953 18.0671C79.0192 17.489 78.9736 17.0326 78.9736 16.7283C78.9736 16.1198 79.1714 15.6178 79.5669 15.2222C79.9624 14.8267 80.4341 14.6289 80.9817 14.6289C81.5294 14.6289 82.503 14.918 82.8834 16.3176C83.0507 16.9109 83.1268 17.7932 83.1268 18.9951C83.1268 20.1969 83.0963 20.9119 83.0507 21.8856C83.0203 22.5854 82.9898 23.2852 82.9746 23.985C83.4767 23.5134 83.9939 23.1331 84.5568 22.8744C85.2871 22.5245 86.0781 22.342 86.8996 22.342C88.4057 22.342 89.5163 22.844 90.1857 23.8177C90.6725 24.5327 90.9768 25.628 91.0833 27.0885C91.1289 28.2447 91.1745 29.4313 91.2202 30.6027C91.3571 32.124 91.4332 33.052 91.4636 33.3715C91.5853 34.406 91.7222 35.3188 91.8896 36.0947C91.9352 36.3077 91.9504 36.5054 91.9504 36.6728C91.9504 37.2661 91.7526 37.7833 91.3419 38.1789C90.9463 38.5744 90.4595 38.7722 89.927 38.7722L89.8966 38.8178Z" fill="#FFC805"/>
<path id="Vector_11" d="M80.9512 14.9157C81.7728 14.9157 82.3205 15.4177 82.6095 16.4218C82.7616 16.9847 82.8529 17.867 82.8529 19.0385C82.8529 20.2099 82.8225 20.9401 82.7768 21.929C82.7312 22.857 82.7008 23.7697 82.7008 24.6825C83.3093 23.9979 83.9635 23.4959 84.6481 23.1612C85.3479 22.8265 86.0781 22.6592 86.8692 22.6592C88.284 22.6592 89.3185 23.1156 89.9422 24.0284C90.4138 24.713 90.6877 25.7627 90.7942 27.1623C90.8398 28.3337 90.8855 29.4899 90.9311 30.6765C91.068 32.1978 91.1441 33.1258 91.1745 33.4605C91.2962 34.5102 91.4331 35.423 91.6005 36.2141C91.6461 36.4119 91.6613 36.5944 91.6613 36.7466C91.6613 37.279 91.4788 37.7202 91.1289 38.0549C90.779 38.3896 90.3682 38.5721 89.8814 38.5721C89.0447 38.5721 88.497 38.1005 88.2536 37.1573C88.0558 36.3967 87.8733 35.3165 87.7059 33.9169C87.5538 32.5782 87.4777 31.4828 87.4777 30.6157C87.4777 29.7485 87.4777 30.0224 87.5081 29.5355C87.5386 29.0487 87.5386 28.6988 87.5386 28.4554C87.5386 27.7556 87.5386 27.3448 87.5081 27.2383C87.4321 26.7211 87.2191 26.4625 86.854 26.4625C85.926 26.4625 85.0892 26.9493 84.3438 27.9077C84.2677 27.999 84.1917 28.1055 84.1156 28.2272C83.2484 29.5203 82.7921 31.0416 82.7616 32.6086C82.716 34.8906 82.5791 36.3054 82.3509 36.8683C82.0314 37.6441 81.5141 38.0397 80.7991 38.0397C80.0841 38.0397 79.9168 37.8571 79.5516 37.5072C79.1865 37.1573 79.004 36.7161 79.004 36.1989C79.004 35.6817 79.0496 35.7729 79.1409 35.4534C79.2018 35.2405 79.2474 33.9626 79.293 31.6197C79.2474 29.7181 79.2626 26.5538 79.3234 22.1115L79.3539 21.6399C79.3995 20.5293 79.4299 19.7687 79.4299 19.3884C79.4299 19.008 79.3843 18.6581 79.3083 18.0952C79.2322 17.5171 79.1865 17.0912 79.1865 16.8021C79.1865 16.2697 79.3539 15.8133 79.7038 15.4786C80.0385 15.1287 80.4492 14.9613 80.9361 14.9613M80.9512 14.3984C80.3275 14.3984 79.795 14.6266 79.3539 15.0678C78.9127 15.509 78.6997 16.0871 78.6997 16.7565C78.6997 17.4259 78.7453 17.5323 78.8214 18.1257C78.8975 18.6733 78.9279 19.0841 78.9279 19.3579C78.9279 19.6318 78.8975 20.4685 78.8519 21.5791L78.8214 22.0507C78.7606 26.4777 78.7606 29.6877 78.791 31.5893C78.7453 34.5863 78.6845 35.1796 78.6541 35.2861C78.5476 35.6512 78.502 35.9403 78.502 36.1685C78.502 36.8378 78.7301 37.4007 79.2017 37.8571C79.6581 38.3135 80.2058 38.5417 80.7991 38.5417C81.3924 38.5417 82.3052 38.2831 82.8225 37.0508C82.9898 36.6553 83.218 35.7577 83.2789 32.6086C83.3093 31.1177 83.7505 29.7029 84.5568 28.5163C84.6329 28.4098 84.6937 28.3185 84.7698 28.2272C85.4239 27.3905 86.1085 26.9797 86.8692 26.9797C87.6298 26.9797 86.8996 26.9797 86.8996 26.9797C86.8996 26.9797 86.9757 27.0862 87.0061 27.3144C87.0061 27.3448 87.0213 27.5426 87.0213 28.4554C87.0213 29.3682 87.0213 29.0335 86.9909 29.5051C86.9757 29.9919 86.9604 30.357 86.9604 30.6005C86.9604 31.4828 87.0365 32.6086 87.1886 33.9473C87.356 35.3622 87.5538 36.4727 87.7516 37.2638C87.9645 38.0853 88.5122 39.0742 89.8814 39.0742C91.2506 39.0742 91.0376 38.846 91.4788 38.4048C91.9352 37.9636 92.1634 37.3855 92.1634 36.7161C92.1634 36.0468 92.1329 36.3206 92.0873 36.0924C91.92 35.3317 91.783 34.419 91.6765 33.3845C91.6461 33.065 91.5548 32.137 91.4331 30.6309C91.3875 29.4595 91.3418 28.2881 91.2962 27.1319C91.1897 25.5953 90.8854 24.4848 90.353 23.7241C89.6228 22.6744 88.4513 22.1267 86.854 22.1267C85.2566 22.1267 85.1653 22.3093 84.4047 22.6896C83.9939 22.8874 83.5984 23.146 83.218 23.4503C83.218 22.9482 83.2484 22.4462 83.2789 21.9442C83.3245 20.9553 83.3549 19.9817 83.3549 19.0385C83.3549 18.0952 83.2637 16.9086 83.0963 16.2849C82.8529 15.4177 82.29 14.3984 80.9361 14.3984H80.9512Z" fill="#FFC805"/>
<path id="Vector_12" d="M97.4128 38.3557C96.8347 38.3557 96.363 38.1428 95.9827 37.732C95.6176 37.3212 95.435 36.8192 95.435 36.1955C95.435 35.5717 95.435 34.7959 95.3894 33.6092C95.359 32.4226 95.3438 31.5555 95.3438 31.0078C95.3438 30.1559 95.3894 29.0909 95.4655 27.8282C95.5415 26.5655 95.5872 25.5158 95.5872 24.6791C95.5872 23.8424 95.7697 23.5533 96.1348 23.1426C96.5152 22.7318 96.9868 22.5188 97.5649 22.5188C98.143 22.5188 98.6146 22.7318 98.9949 23.1426C99.36 23.5533 99.5426 24.0554 99.5426 24.6791C99.5426 25.3029 99.4969 26.596 99.4209 27.8587C99.3448 29.1214 99.2992 30.1711 99.2992 31.0078C99.2992 31.8445 99.2992 32.4226 99.3448 33.594C99.3752 34.8111 99.3905 35.663 99.3905 36.1955C99.3905 36.7279 99.2079 37.3212 98.8428 37.732C98.4624 38.1428 97.9909 38.3557 97.4128 38.3557ZM97.9908 20.8606C97.3823 20.8606 96.8651 20.6324 96.4239 20.176C95.9827 19.7196 95.7697 19.1567 95.7697 18.5026C95.7697 17.8484 95.9979 17.2855 96.4239 16.8291C96.8651 16.3727 97.3975 16.1445 97.9908 16.1445C98.5841 16.1445 99.1166 16.3727 99.5578 16.8291C99.9838 17.2855 100.212 17.8484 100.212 18.5026C100.212 19.1567 99.999 19.7196 99.5578 20.176C99.1166 20.6324 98.5994 20.8606 97.9908 20.8606Z" fill="#FFC805"/>
<path id="Vector_13" d="M97.9901 16.3922C98.5226 16.3922 98.979 16.59 99.3745 17.0008C99.7549 17.4115 99.9526 17.8983 99.9526 18.4917C99.9526 19.085 99.7549 19.5718 99.3745 19.9826C98.9942 20.3933 98.5226 20.5911 97.9901 20.5911C97.4576 20.5911 97.0013 20.3933 96.6057 19.9826C96.2102 19.5718 96.0124 19.085 96.0124 18.4917C96.0124 17.8983 96.2102 17.4115 96.6057 17.0008C97.0013 16.59 97.4576 16.3922 97.9901 16.3922ZM97.5794 22.7818C98.0814 22.7818 98.4922 22.9643 98.8116 23.3142C99.1311 23.6641 99.2985 24.1205 99.2985 24.6682C99.2985 25.5049 99.2528 26.5698 99.1767 27.8325C99.1007 29.0952 99.055 30.1602 99.055 30.9969C99.055 31.8336 99.055 32.3965 99.1007 33.5983C99.1311 34.785 99.1463 35.6521 99.1463 36.1998C99.1463 36.7475 98.979 37.2038 98.6595 37.5537C98.34 37.9037 97.9293 38.0862 97.4272 38.0862C96.9252 38.0862 96.5145 37.9037 96.195 37.5537C95.8755 37.2038 95.7081 36.7475 95.7081 36.1998C95.7081 35.6521 95.7082 34.8002 95.6625 33.5983C95.6169 32.3965 95.6169 31.5446 95.6169 30.9969C95.6169 30.1602 95.6625 29.0952 95.7386 27.8325C95.8147 26.5698 95.8603 25.5049 95.8603 24.6682C95.8603 23.8315 96.0276 23.6641 96.3471 23.3142C96.6666 22.9643 97.0773 22.7818 97.5794 22.7818ZM97.9901 15.875C97.3207 15.875 96.7274 16.1336 96.2254 16.6509C95.7386 17.1529 95.4952 17.7766 95.4952 18.5069C95.4952 19.2371 95.7386 19.8456 96.2254 20.3629C96.7122 20.8801 97.3055 21.1388 97.9901 21.1388C98.6747 21.1388 99.2528 20.8801 99.7396 20.3629C100.226 19.8608 100.455 19.2371 100.455 18.5221C100.455 17.8071 100.211 17.1833 99.7396 16.6813C99.2528 16.164 98.6595 15.9054 97.9901 15.9054V15.875ZM97.5794 22.2645C96.9252 22.2645 96.3928 22.5079 95.9668 22.9643C95.556 23.4207 95.343 23.9836 95.343 24.6682C95.343 25.3528 95.2974 26.5546 95.2213 27.8021C95.13 29.08 95.0996 30.1449 95.0996 30.9969C95.0996 31.8488 95.0996 32.4269 95.1453 33.6135C95.1757 34.8002 95.1909 35.6673 95.1909 36.1998C95.1909 36.7322 95.4039 37.4473 95.8147 37.9037C96.2406 38.3753 96.7883 38.6035 97.4272 38.6035C98.0662 38.6035 98.6139 38.36 99.0398 37.9037C99.4506 37.4473 99.6636 36.8844 99.6636 36.1998C99.6636 35.5152 99.6636 34.8002 99.6179 33.5831C99.5875 32.4117 99.5723 31.5293 99.5723 30.9969C99.5723 30.1754 99.6179 29.1104 99.694 27.863C99.7853 26.5851 99.8157 25.5049 99.8157 24.6682C99.8157 23.8315 99.6027 23.4207 99.192 22.9643C98.766 22.4927 98.2183 22.2645 97.5794 22.2645Z" fill="#FFC805"/>
<path id="Vector_14" d="M112.61 39.6991C112.032 39.6991 111.56 39.4861 111.18 39.0753C110.815 38.6646 110.632 38.1625 110.632 37.554C110.632 36.4891 110.526 34.8917 110.328 32.8075C110.13 30.7081 110.024 29.0955 110.024 28.0153C110.024 26.9352 110.008 27.2851 109.963 27.0113C109.141 27.635 108.289 28.6087 107.453 29.8714C107.422 29.9322 107.361 30.0083 107.285 30.1148C107.255 31.9708 107.24 33.4617 107.24 34.5266C107.24 35.5915 107.24 35.1503 107.209 35.6067C107.194 36.0479 107.179 36.3826 107.179 36.5956C107.179 37.1889 106.966 37.6605 106.54 38.0104C106.159 38.3147 105.688 38.482 105.14 38.482C104.334 38.482 103.741 38.056 103.467 37.2649C103.284 36.7629 103.193 35.987 103.193 34.9221V29.6432C103.193 29.1868 103.178 28.487 103.147 27.5742C103.117 26.6614 103.102 25.9616 103.102 25.49C103.102 24.6228 103.238 23.8165 103.512 23.1015C103.877 22.1431 104.425 21.6562 105.125 21.6562C105.825 21.6562 106.144 21.8997 106.57 22.3561C107.316 23.1776 107.179 23.9078 107.179 23.9382C107.179 23.9382 107.179 24.0295 107.133 24.3033C108.244 23.0254 109.339 22.3713 110.373 22.3713C111.408 22.3713 112.595 22.8733 113.249 23.8774C113.72 23.4514 114.222 23.1319 114.77 22.9037C115.409 22.6299 116.124 22.493 116.869 22.493C118.619 22.493 119.821 23.4818 120.429 25.4443C120.551 25.8399 120.734 27.1178 120.977 29.3389C121.205 30.8602 121.509 33.4464 121.875 37.0063C121.92 37.6301 121.722 38.1473 121.312 38.5581C120.901 38.9536 120.414 39.1514 119.866 39.1514C119.319 39.1514 118.163 38.8319 117.934 37.3106C117.782 36.3369 117.63 34.9373 117.478 33.1574C117.311 31.2253 117.174 29.8257 117.067 29.0194C116.793 26.9961 116.504 26.7374 116.459 26.707C116.398 26.707 116.154 26.7679 115.303 27.3155C114.694 27.7111 114.238 28.0458 113.918 28.3348C113.918 29.3997 114.04 30.9211 114.253 32.8531C114.481 34.9221 114.603 36.5043 114.603 37.5388C114.603 38.5733 114.42 38.6493 114.055 39.0601C113.675 39.4709 113.203 39.6838 112.625 39.6838L112.61 39.6991Z" fill="#FFC805"/>
<path id="Vector_15" d="M105.11 21.9149C105.582 21.9149 105.992 22.1278 106.358 22.5386C107.027 23.2688 106.905 23.8926 106.905 23.8926C106.905 23.8926 106.875 24.1056 106.799 25.1096C108.061 23.4514 109.248 22.6299 110.359 22.6299C111.469 22.6299 112.58 23.1776 113.173 24.2881C113.675 23.7709 114.238 23.3905 114.862 23.1319C115.485 22.8733 116.14 22.7516 116.855 22.7516C118.482 22.7516 119.593 23.6796 120.171 25.5204C120.293 25.9007 120.46 27.1786 120.704 29.3693C120.932 30.9058 121.236 33.4617 121.601 37.0367C121.632 37.5692 121.479 38.0256 121.114 38.3755C120.749 38.7254 120.338 38.908 119.852 38.908C118.893 38.908 118.33 38.3755 118.163 37.2954C118.011 36.3217 117.859 34.9373 117.707 33.1574C117.539 31.2101 117.402 29.8257 117.296 29.0042C117.068 27.3155 116.779 26.4636 116.429 26.4636C116.079 26.4636 115.805 26.6766 115.12 27.1178C114.436 27.5589 113.934 27.9241 113.629 28.2435C113.629 29.3237 113.736 30.8754 113.964 32.8988C114.192 34.9678 114.314 36.5195 114.314 37.554C114.314 38.5885 114.147 38.5428 113.827 38.908C113.508 39.2731 113.097 39.4404 112.595 39.4404C112.093 39.4404 111.682 39.2579 111.363 38.908C111.043 38.5428 110.876 38.1017 110.876 37.554C110.876 36.4739 110.769 34.8917 110.572 32.7923C110.374 30.6929 110.267 29.1107 110.267 28.0306C110.267 26.9504 110.222 26.9352 110.13 26.5853C109.172 27.2243 108.198 28.274 107.225 29.7496C107.179 29.8105 107.118 29.917 107.012 30.0539C106.981 31.9708 106.966 33.4616 106.966 34.557C106.966 35.6523 106.966 35.1807 106.936 35.6371C106.92 36.0935 106.905 36.4282 106.905 36.6412C106.905 37.1584 106.723 37.554 106.358 37.843C106.023 38.1169 105.612 38.2538 105.125 38.2538C104.426 38.2538 103.939 37.9039 103.695 37.2041C103.528 36.7325 103.437 35.9718 103.437 34.9525V29.6736C103.437 29.202 103.421 28.5022 103.391 27.5894C103.361 26.6766 103.345 25.9768 103.345 25.5052C103.345 24.6684 103.482 23.8926 103.741 23.2232C104.06 22.3713 104.517 21.9453 105.11 21.9453M105.11 21.3976C104.547 21.3976 103.756 21.6715 103.254 23.0102C102.965 23.7404 102.828 24.5772 102.828 25.4747C102.828 26.3723 102.843 26.6614 102.874 27.5742C102.904 28.4869 102.919 29.1715 102.919 29.6431V34.9221C102.919 36.0175 103.011 36.8238 103.208 37.3562C103.528 38.269 104.197 38.7558 105.125 38.7558C106.053 38.7558 106.266 38.5733 106.692 38.2234C107.179 37.8278 107.438 37.2802 107.438 36.6108C107.438 35.9414 107.438 36.0631 107.468 35.6219C107.483 35.1655 107.499 34.8004 107.499 34.5266C107.499 33.4769 107.514 32.0164 107.544 30.1908C107.605 30.1148 107.651 30.0539 107.681 29.993C108.381 28.9281 109.081 28.1066 109.765 27.4981C109.765 27.6502 109.765 27.8176 109.765 28.0001C109.765 29.0955 109.872 30.7081 110.07 32.8227C110.267 34.8917 110.374 36.4739 110.374 37.5388C110.374 38.6037 110.587 38.771 110.998 39.2427C111.424 39.7143 111.971 39.9577 112.61 39.9577C113.249 39.9577 113.812 39.7143 114.223 39.2427C114.634 38.7863 114.847 38.2082 114.847 37.5388C114.847 36.4891 114.725 34.9069 114.497 32.8227C114.284 30.9667 114.177 29.491 114.162 28.4413C114.451 28.1827 114.877 27.8784 115.425 27.5285C115.927 27.209 116.201 27.0721 116.353 26.9961C116.444 27.1938 116.626 27.7111 116.809 29.0346C116.916 29.8409 117.052 31.2253 117.22 33.1574C117.372 34.9373 117.539 36.3369 117.691 37.3258C117.889 38.6493 118.68 39.3796 119.882 39.3796C121.084 39.3796 121.053 39.1514 121.51 38.7102C121.981 38.2538 122.194 37.6605 122.149 36.9759V36.9607C121.784 33.4008 121.479 30.8146 121.251 29.278C120.917 26.2963 120.78 25.6117 120.704 25.3378C120.384 24.3185 119.897 23.5427 119.274 23.0102C118.635 22.4777 117.828 22.2039 116.885 22.2039C115.942 22.2039 115.364 22.3408 114.694 22.6299C114.208 22.8277 113.736 23.1167 113.31 23.4666C112.61 22.5538 111.637 22.0822 110.389 22.0822C109.142 22.0822 108.442 22.569 107.453 23.5579C107.423 23.2232 107.27 22.7059 106.768 22.1583C106.297 21.641 105.749 21.3672 105.141 21.3672L105.11 21.3976Z" fill="#FFC805"/>
<path id="Vector_16" d="M126.987 46.1992C126.409 46.1992 125.937 45.9862 125.557 45.5754C125.191 45.1647 125.009 44.6474 125.009 44.0389C125.009 43.4304 125.009 41.7569 125.039 38.7447C125.055 36.4628 125.055 34.5763 125.039 33.1311C125.009 31.1077 124.963 29.3278 124.872 27.8673C124.75 25.8592 124.689 25.0833 124.689 25.0681C124.689 25.0073 124.629 23.6077 125.191 22.8774C125.602 22.1776 126.15 21.8125 126.85 21.8125C127.55 21.8125 127.854 22.0255 128.219 22.4362C128.508 22.7709 128.675 23.1513 128.736 23.5924C129.177 23.3338 129.634 23.136 130.09 22.9991C130.668 22.8166 131.262 22.7253 131.855 22.7253C133.863 22.7253 135.354 23.7141 136.282 25.6462C136.951 27.061 137.286 28.9323 137.286 31.1686C137.286 33.4049 136.738 35.0784 135.673 36.478C134.517 37.9993 132.935 38.7752 130.988 38.7752C129.04 38.7752 129.679 38.6991 128.995 38.5622V44.0389C128.995 44.6474 128.797 45.1647 128.432 45.5754C128.052 45.9862 127.58 46.1992 127.002 46.1992H126.987ZM129.025 34.1352C129.679 34.3634 130.334 34.4698 130.988 34.4698C131.642 34.4698 132.326 34.1656 132.737 33.5418C133.118 32.9637 133.315 32.1574 133.315 31.1534C133.315 30.1493 133.27 29.0235 133.178 28.5519C132.859 27.0306 132.098 27.0306 131.855 27.0306C131.368 27.0306 130.881 27.1675 130.379 27.4262C129.892 27.6848 129.39 28.0499 128.888 28.5519C128.98 30.3927 129.025 32.2792 129.025 34.1352Z" fill="#FFC805"/>
<path id="Vector_17" d="M126.85 22.0719C127.322 22.0719 127.702 22.2545 128.021 22.6044C128.341 22.9695 128.493 23.3955 128.493 23.8975V24.0344C129.041 23.6693 129.604 23.4107 130.151 23.2281C130.714 23.0456 131.277 22.9695 131.84 22.9695C133.757 22.9695 135.156 23.8975 136.024 25.7383C136.678 27.1379 137.012 28.9331 137.012 31.1542C137.012 33.3753 136.495 34.9423 135.461 36.3115C134.35 37.7719 132.859 38.5174 130.988 38.5174C129.117 38.5174 129.528 38.4261 128.736 38.2283V44.0245C128.736 44.5722 128.554 45.0286 128.234 45.3937C127.915 45.7588 127.504 45.9262 127.002 45.9262C126.5 45.9262 126.089 45.7436 125.77 45.3937C125.45 45.0286 125.283 44.5722 125.283 44.0245C125.283 43.4768 125.283 41.8186 125.313 38.7303C125.329 36.4332 125.329 34.5619 125.313 33.1167C125.283 31.0781 125.237 29.3134 125.146 27.8377C125.024 25.7992 124.964 25.0385 124.964 25.0385C124.964 25.0385 124.903 23.6693 125.42 23.0152C125.77 22.3762 126.257 22.0567 126.865 22.0567M130.988 34.7293C131.84 34.7293 132.509 34.3794 132.966 33.6948C133.376 33.0711 133.589 32.2343 133.589 31.1694C133.589 30.1045 133.544 29.0091 133.437 28.5071C133.194 27.3509 132.661 26.7728 131.855 26.7728C131.049 26.7728 130.805 26.9097 130.258 27.1988C129.71 27.4726 129.178 27.8986 128.63 28.4615C128.736 30.4087 128.782 32.3712 128.782 34.3337C129.528 34.6076 130.258 34.7445 131.003 34.7445M126.85 21.5547C126.302 21.5547 125.542 21.7677 124.979 22.7413C124.37 23.5324 124.416 24.9168 124.431 25.0689V25.0841C124.431 25.0841 124.492 25.8752 124.614 27.8681C124.705 29.3286 124.766 31.1086 124.781 33.1319C124.796 34.5772 124.796 36.4484 124.781 38.7303C124.766 41.7425 124.751 43.5681 124.751 44.0397C124.751 44.7243 124.964 45.2872 125.374 45.7436C125.8 46.2152 126.348 46.4586 126.987 46.4586C127.626 46.4586 128.189 46.2152 128.6 45.7436C129.01 45.2872 129.223 44.7091 129.223 44.0397V38.8825C129.832 38.989 130.425 39.0498 130.973 39.0498C133.011 39.0498 134.654 38.2435 135.856 36.6461C136.967 35.2009 137.514 33.3601 137.514 31.1694C137.514 28.9787 137.165 26.9858 136.48 25.5405C135.506 23.502 133.939 22.4675 131.825 22.4675C129.71 22.4675 130.592 22.5588 129.984 22.7565C129.619 22.863 129.254 23.0152 128.904 23.1977C128.813 22.863 128.63 22.5435 128.402 22.2697C127.991 21.7981 127.459 21.5547 126.835 21.5547H126.85ZM129.147 28.6592C129.604 28.2181 130.06 27.8834 130.486 27.6552C130.942 27.4118 131.414 27.29 131.84 27.29C132.266 27.29 132.646 27.29 132.92 28.6136C133.011 29.07 133.057 29.9219 133.057 31.1694C133.057 32.4169 132.874 32.8733 132.525 33.4057C132.159 33.9534 131.673 34.212 130.988 34.212C130.303 34.212 129.847 34.1208 129.284 33.9534C129.284 32.1887 129.238 30.4087 129.147 28.6592Z" fill="#FFC805"/>
<path id="Vector_18" d="M142.261 38.5475C141.683 38.5475 141.211 38.3345 140.831 37.9237C140.466 37.513 140.283 36.9957 140.283 36.3568V16.7166C140.283 16.0929 140.481 15.5908 140.877 15.1801C141.257 14.815 141.744 14.6172 142.291 14.6172C142.839 14.6172 143.326 14.815 143.691 15.2105C144.056 15.5908 144.239 16.1081 144.239 16.7166V35.5961C144.239 36.9501 143.889 38.5475 142.261 38.5475Z" fill="#FFC805"/>
<path id="Vector_19" d="M142.292 14.8762C142.779 14.8762 143.19 15.0436 143.509 15.3782C143.829 15.7129 143.981 16.1541 143.981 16.7018V35.5813C143.981 37.3765 143.403 38.274 142.262 38.274C141.121 38.274 141.349 38.0915 141.029 37.7416C140.71 37.3765 140.543 36.9201 140.543 36.342V16.7018C140.543 16.1541 140.71 15.6977 141.06 15.3478C141.395 15.0283 141.805 14.861 142.292 14.861M142.292 14.359C141.668 14.359 141.121 14.5719 140.695 14.9827C140.254 15.4391 140.025 16.002 140.025 16.7018V36.342C140.025 37.0418 140.238 37.6199 140.649 38.0763C141.075 38.5479 141.623 38.7913 142.262 38.7913C142.901 38.7913 143.6 38.4718 143.996 37.8785C144.346 37.346 144.513 36.5854 144.513 35.5813V16.7018C144.513 16.0172 144.3 15.4543 143.905 15.0131C143.494 14.5719 142.946 14.3438 142.323 14.3438L142.292 14.359Z" fill="#FFC805"/>
<path id="Vector_20" d="M154.675 38.5898C152.637 38.5898 150.933 38.0269 149.624 36.9011C148.179 35.6688 147.434 33.9041 147.434 31.6678C147.434 29.4314 148.012 27.1343 149.137 25.4456C150.415 23.544 152.165 22.5703 154.325 22.5703C156.485 22.5703 157.064 22.8441 158.052 23.3918C159.391 24.1373 160.076 25.3087 160.076 26.8908C160.076 28.473 159.528 29.0055 158.448 29.8574C157.961 30.2377 157.033 30.7854 155.603 31.5004L151.693 33.4629C152.013 33.7976 152.393 34.0715 152.834 34.254C153.367 34.4822 153.99 34.6039 154.675 34.6039C155.725 34.6039 156.638 34.3605 157.368 33.8737C158.113 33.3717 158.691 33.1282 159.178 33.1282C160.182 33.1282 160.73 33.7368 160.73 34.8169C160.73 35.897 159.984 36.962 158.509 37.6922C157.307 38.2703 156.029 38.5746 154.69 38.5746L154.675 38.5898ZM154.34 26.5257C153.641 26.5257 153.047 26.7844 152.545 27.332C152.119 27.7884 151.754 28.4426 151.465 29.2945C152.241 28.9142 153.002 28.5339 153.732 28.184C154.66 27.7124 155.436 27.256 156.044 26.8452C155.588 26.6322 155.01 26.5409 154.356 26.5409L154.34 26.5257Z" fill="#FFC805"/>
<path id="Vector_21" d="M154.34 22.8299C155.785 22.8299 156.987 23.0885 157.945 23.621C159.208 24.3208 159.832 25.4161 159.832 26.8918C159.832 28.3675 159.314 28.8543 158.295 29.6606C157.824 30.0257 156.895 30.5734 155.496 31.2732L151.297 33.3878C151.693 33.8746 152.179 34.2549 152.742 34.4984C153.305 34.7418 153.959 34.8635 154.69 34.8635C155.8 34.8635 156.743 34.6048 157.519 34.0876C158.204 33.6312 158.767 33.3878 159.177 33.3878C160.045 33.3878 160.471 33.8594 160.471 34.8178C160.471 35.7763 159.771 36.7803 158.386 37.4649C157.215 38.0278 155.983 38.3169 154.674 38.3169C152.681 38.3169 151.054 37.7844 149.791 36.7043C148.391 35.5176 147.692 33.829 147.692 31.6535C147.692 29.478 148.239 27.2265 149.35 25.5682C150.582 23.7274 152.24 22.8147 154.324 22.8147M151.038 29.7975C151.982 29.3411 152.91 28.8695 153.838 28.4131C154.963 27.835 155.861 27.3025 156.515 26.8005C155.952 26.4354 155.237 26.268 154.34 26.268C153.442 26.268 152.91 26.5571 152.362 27.1504C151.814 27.7437 151.373 28.6261 151.038 29.7975ZM154.34 22.3126C152.073 22.3126 150.263 23.3167 148.939 25.2944C147.783 27.0287 147.19 29.1738 147.19 31.6687C147.19 34.1637 147.95 35.8219 149.471 37.0998C150.825 38.256 152.575 38.8493 154.69 38.8493C156.804 38.8493 157.398 38.5451 158.615 37.9365C160.197 37.1607 160.988 36.111 160.988 34.8331C160.988 33.5551 160.334 32.8858 159.177 32.8858C158.021 32.8858 158.021 33.1444 157.23 33.6769C156.546 34.1332 155.694 34.3767 154.69 34.3767C153.686 34.3767 153.442 34.2702 152.955 34.0572C152.666 33.9355 152.408 33.7681 152.164 33.5704L155.739 31.7752C157.185 31.045 158.143 30.4973 158.63 30.1018C159.771 29.2042 160.364 28.124 160.364 26.9222C160.364 25.7204 159.634 24.0013 158.219 23.195C157.185 22.6169 155.891 22.3278 154.355 22.3278L154.34 22.3126ZM151.951 28.7782C152.179 28.261 152.453 27.835 152.742 27.5155C153.199 27.0287 153.716 26.8005 154.355 26.8005C154.994 26.8005 155.146 26.8461 155.465 26.9222C154.948 27.2569 154.324 27.5916 153.625 27.9567C153.092 28.2153 152.529 28.4892 151.966 28.7782H151.951Z" fill="#FFC805"/>
</g>
</g>
<g id="Group 47757">
<path id="Vector 1409" d="M271.458 14.2431C268.968 12.998 266.27 16.8371 265.232 18.9122C266.529 18.6529 269.435 17.9785 270.68 17.3559C271.925 16.7334 274.311 18.6529 275.349 19.6905C275.089 18.3935 273.948 15.4882 271.458 14.2431Z" fill="#F34D08" stroke="#F34D08"/>
<g id="Group 223">
<g id="Vector_22">
<mask id="path-23-outside-1_2894_1105" maskUnits="userSpaceOnUse" x="191.65" y="18.3789" width="26" height="27" fill="black">
<rect fill="white" x="191.65" y="18.3789" width="26" height="27"/>
<path d="M204.843 39.3847C202.499 39.3847 200.605 38.8165 199.113 37.7037C197.479 36.4724 196.65 34.744 196.65 32.4947C196.65 30.2453 197.29 27.9249 198.592 26.2202C200.036 24.326 202.001 23.3789 204.44 23.3789C206.879 23.3789 207.566 23.663 208.678 24.2076C210.146 24.9416 210.904 26.0544 210.904 27.5935C210.904 29.1325 210.312 29.6297 209.105 30.4584C208.56 30.8373 207.447 31.4055 205.814 32.1395L200.865 34.3178C201.339 34.815 201.907 35.2175 202.57 35.4543C203.233 35.7148 203.99 35.8332 204.866 35.8332C206.169 35.8332 207.282 35.5727 208.205 35.0281C209.01 34.5546 209.673 34.3178 210.146 34.3178C211.165 34.3178 211.662 34.815 211.662 35.8095C211.662 36.8039 210.857 37.8457 209.223 38.5324C207.85 39.1243 206.405 39.4084 204.866 39.4084L204.843 39.3847ZM204.464 26.9305C203.564 26.9305 202.783 27.2383 202.12 27.8302C201.457 28.4222 200.96 29.3456 200.557 30.5531C201.67 30.0796 202.759 29.606 203.848 29.1325C205.174 28.5406 206.216 27.9723 206.997 27.4751C206.334 27.0962 205.482 26.9068 204.44 26.9068L204.464 26.9305Z"/>
</mask>
<path d="M204.843 39.3847C202.499 39.3847 200.605 38.8165 199.113 37.7037C197.479 36.4724 196.65 34.744 196.65 32.4947C196.65 30.2453 197.29 27.9249 198.592 26.2202C200.036 24.326 202.001 23.3789 204.44 23.3789C206.879 23.3789 207.566 23.663 208.678 24.2076C210.146 24.9416 210.904 26.0544 210.904 27.5935C210.904 29.1325 210.312 29.6297 209.105 30.4584C208.56 30.8373 207.447 31.4055 205.814 32.1395L200.865 34.3178C201.339 34.815 201.907 35.2175 202.57 35.4543C203.233 35.7148 203.99 35.8332 204.866 35.8332C206.169 35.8332 207.282 35.5727 208.205 35.0281C209.01 34.5546 209.673 34.3178 210.146 34.3178C211.165 34.3178 211.662 34.815 211.662 35.8095C211.662 36.8039 210.857 37.8457 209.223 38.5324C207.85 39.1243 206.405 39.4084 204.866 39.4084L204.843 39.3847ZM204.464 26.9305C203.564 26.9305 202.783 27.2383 202.12 27.8302C201.457 28.4222 200.96 29.3456 200.557 30.5531C201.67 30.0796 202.759 29.606 203.848 29.1325C205.174 28.5406 206.216 27.9723 206.997 27.4751C206.334 27.0962 205.482 26.9068 204.44 26.9068L204.464 26.9305Z" fill="#FFC805"/>
<path d="M204.843 39.3847C202.499 39.3847 200.605 38.8165 199.113 37.7037C197.479 36.4724 196.65 34.744 196.65 32.4947C196.65 30.2453 197.29 27.9249 198.592 26.2202C200.036 24.326 202.001 23.3789 204.44 23.3789C206.879 23.3789 207.566 23.663 208.678 24.2076C210.146 24.9416 210.904 26.0544 210.904 27.5935C210.904 29.1325 210.312 29.6297 209.105 30.4584C208.56 30.8373 207.447 31.4055 205.814 32.1395L200.865 34.3178C201.339 34.815 201.907 35.2175 202.57 35.4543C203.233 35.7148 203.99 35.8332 204.866 35.8332C206.169 35.8332 207.282 35.5727 208.205 35.0281C209.01 34.5546 209.673 34.3178 210.146 34.3178C211.165 34.3178 211.662 34.815 211.662 35.8095C211.662 36.8039 210.857 37.8457 209.223 38.5324C207.85 39.1243 206.405 39.4084 204.866 39.4084L204.843 39.3847ZM204.464 26.9305C203.564 26.9305 202.783 27.2383 202.12 27.8302C201.457 28.4222 200.96 29.3456 200.557 30.5531C201.67 30.0796 202.759 29.606 203.848 29.1325C205.174 28.5406 206.216 27.9723 206.997 27.4751C206.334 27.0962 205.482 26.9068 204.44 26.9068L204.464 26.9305Z" stroke="#F34D08" stroke-width="10" stroke-miterlimit="7.1" stroke-linejoin="round" mask="url(#path-23-outside-1_2894_1105)"/>
</g>
<g id="Vector_23">
<mask id="path-24-outside-2_2894_1105" maskUnits="userSpaceOnUse" x="210.662" y="18.418" width="26" height="27" fill="black">
<rect fill="white" x="210.662" y="18.418" width="26" height="27"/>
<path d="M228.992 39.5422C228.543 39.5422 227.832 39.116 226.861 38.24C225.962 38.6661 225.18 38.9976 224.494 39.2107C223.807 39.4238 223.239 39.5422 222.742 39.5422C220.374 39.5422 218.622 38.9029 217.438 37.648C216.254 36.3931 215.662 34.4989 215.662 31.9892C215.662 29.4794 216.538 27.6089 218.267 25.9278C219.995 24.2467 222.102 23.418 224.517 23.418C226.933 23.418 226.53 23.6784 227.738 24.1993C229.206 24.8386 229.963 25.5489 229.963 26.4013C229.963 27.2537 229.845 27.0643 229.632 27.3247C229.537 27.7036 229.466 28.2008 229.395 28.7927C229.348 29.3846 229.324 30.0713 229.324 30.8526C229.324 32.6995 229.466 34.0254 229.726 34.8541C229.75 34.9488 229.987 35.446 230.389 36.3694C230.768 37.1982 230.958 37.6717 230.958 37.7901C230.958 38.311 230.768 38.7372 230.366 39.0687C229.963 39.4001 229.513 39.5659 228.992 39.5659V39.5422ZM225.346 29.6451C225.346 29.3373 225.346 28.9821 225.417 28.5559C225.464 28.1534 225.536 27.7036 225.607 27.2063C225.417 27.1116 225.228 27.0406 225.086 26.9932C224.944 26.9459 224.802 26.9222 224.707 26.9222C223.381 26.9222 222.221 27.4431 221.226 28.4849C220.232 29.5267 219.735 30.7343 219.735 32.1075C219.735 33.4808 219.971 34.4042 220.445 35.0672C220.918 35.7302 221.629 36.0616 222.552 36.0616C223.476 36.0616 223.736 35.9669 224.281 35.7538C224.825 35.5644 225.346 35.2566 225.82 34.8778C225.536 32.5574 225.37 30.8053 225.37 29.6451H225.346Z"/>
</mask>
<path d="M228.992 39.5422C228.543 39.5422 227.832 39.116 226.861 38.24C225.962 38.6661 225.18 38.9976 224.494 39.2107C223.807 39.4238 223.239 39.5422 222.742 39.5422C220.374 39.5422 218.622 38.9029 217.438 37.648C216.254 36.3931 215.662 34.4989 215.662 31.9892C215.662 29.4794 216.538 27.6089 218.267 25.9278C219.995 24.2467 222.102 23.418 224.517 23.418C226.933 23.418 226.53 23.6784 227.738 24.1993C229.206 24.8386 229.963 25.5489 229.963 26.4013C229.963 27.2537 229.845 27.0643 229.632 27.3247C229.537 27.7036 229.466 28.2008 229.395 28.7927C229.348 29.3846 229.324 30.0713 229.324 30.8526C229.324 32.6995 229.466 34.0254 229.726 34.8541C229.75 34.9488 229.987 35.446 230.389 36.3694C230.768 37.1982 230.958 37.6717 230.958 37.7901C230.958 38.311 230.768 38.7372 230.366 39.0687C229.963 39.4001 229.513 39.5659 228.992 39.5659V39.5422ZM225.346 29.6451C225.346 29.3373 225.346 28.9821 225.417 28.5559C225.464 28.1534 225.536 27.7036 225.607 27.2063C225.417 27.1116 225.228 27.0406 225.086 26.9932C224.944 26.9459 224.802 26.9222 224.707 26.9222C223.381 26.9222 222.221 27.4431 221.226 28.4849C220.232 29.5267 219.735 30.7343 219.735 32.1075C219.735 33.4808 219.971 34.4042 220.445 35.0672C220.918 35.7302 221.629 36.0616 222.552 36.0616C223.476 36.0616 223.736 35.9669 224.281 35.7538C224.825 35.5644 225.346 35.2566 225.82 34.8778C225.536 32.5574 225.37 30.8053 225.37 29.6451H225.346Z" fill="#FFC805"/>
<path d="M228.992 39.5422C228.543 39.5422 227.832 39.116 226.861 38.24C225.962 38.6661 225.18 38.9976 224.494 39.2107C223.807 39.4238 223.239 39.5422 222.742 39.5422C220.374 39.5422 218.622 38.9029 217.438 37.648C216.254 36.3931 215.662 34.4989 215.662 31.9892C215.662 29.4794 216.538 27.6089 218.267 25.9278C219.995 24.2467 222.102 23.418 224.517 23.418C226.933 23.418 226.53 23.6784 227.738 24.1993C229.206 24.8386 229.963 25.5489 229.963 26.4013C229.963 27.2537 229.845 27.0643 229.632 27.3247C229.537 27.7036 229.466 28.2008 229.395 28.7927C229.348 29.3846 229.324 30.0713 229.324 30.8526C229.324 32.6995 229.466 34.0254 229.726 34.8541C229.75 34.9488 229.987 35.446 230.389 36.3694C230.768 37.1982 230.958 37.6717 230.958 37.7901C230.958 38.311 230.768 38.7372 230.366 39.0687C229.963 39.4001 229.513 39.5659 228.992 39.5659V39.5422ZM225.346 29.6451C225.346 29.3373 225.346 28.9821 225.417 28.5559C225.464 28.1534 225.536 27.7036 225.607 27.2063C225.417 27.1116 225.228 27.0406 225.086 26.9932C224.944 26.9459 224.802 26.9222 224.707 26.9222C223.381 26.9222 222.221 27.4431 221.226 28.4849C220.232 29.5267 219.735 30.7343 219.735 32.1075C219.735 33.4808 219.971 34.4042 220.445 35.0672C220.918 35.7302 221.629 36.0616 222.552 36.0616C223.476 36.0616 223.736 35.9669 224.281 35.7538C224.825 35.5644 225.346 35.2566 225.82 34.8778C225.536 32.5574 225.37 30.8053 225.37 29.6451H225.346Z" stroke="#F34D08" stroke-width="10" stroke-miterlimit="7.1" mask="url(#path-24-outside-2_2894_1105)"/>
</g>
<g id="Vector_24">
<mask id="path-25-outside-3_2894_1105" maskUnits="userSpaceOnUse" x="229.957" y="18.2734" width="23" height="27" fill="black">
<rect fill="white" x="229.957" y="18.2734" width="23" height="27"/>
<path d="M247.53 28.151C247.435 29.6426 246.772 30.4003 245.493 30.4003C244.215 30.4003 243.647 29.761 243.647 28.4824L243.576 26.9908C241.374 27.3459 239.811 28.4824 238.864 30.3766V37.7639C238.864 38.3322 238.698 38.7821 238.295 39.1609C237.893 39.5397 237.419 39.7055 236.851 39.7055C236.283 39.7055 235.786 39.5161 235.431 39.1135C235.123 38.7584 234.957 38.3085 234.957 37.7639V28.151C234.957 27.8431 234.957 27.3933 234.981 26.8014C234.981 26.2094 235.004 25.7359 235.004 25.4517C235.004 24.9072 235.17 24.4573 235.502 24.0785C235.833 23.6996 236.307 23.5339 236.899 23.5339C237.988 23.5339 238.627 24.1021 238.84 25.215C240.569 23.9127 242.486 23.2734 244.617 23.2734C246.748 23.2734 247.553 24.5757 247.553 27.1802C247.553 29.7847 247.553 28.0089 247.553 28.151H247.53Z"/>
</mask>
<path d="M247.53 28.151C247.435 29.6426 246.772 30.4003 245.493 30.4003C244.215 30.4003 243.647 29.761 243.647 28.4824L243.576 26.9908C241.374 27.3459 239.811 28.4824 238.864 30.3766V37.7639C238.864 38.3322 238.698 38.7821 238.295 39.1609C237.893 39.5397 237.419 39.7055 236.851 39.7055C236.283 39.7055 235.786 39.5161 235.431 39.1135C235.123 38.7584 234.957 38.3085 234.957 37.7639V28.151C234.957 27.8431 234.957 27.3933 234.981 26.8014C234.981 26.2094 235.004 25.7359 235.004 25.4517C235.004 24.9072 235.17 24.4573 235.502 24.0785C235.833 23.6996 236.307 23.5339 236.899 23.5339C237.988 23.5339 238.627 24.1021 238.84 25.215C240.569 23.9127 242.486 23.2734 244.617 23.2734C246.748 23.2734 247.553 24.5757 247.553 27.1802C247.553 29.7847 247.553 28.0089 247.553 28.151H247.53Z" fill="#FFC805"/>
<path d="M247.53 28.151C247.435 29.6426 246.772 30.4003 245.493 30.4003C244.215 30.4003 243.647 29.761 243.647 28.4824L243.576 26.9908C241.374 27.3459 239.811 28.4824 238.864 30.3766V37.7639C238.864 38.3322 238.698 38.7821 238.295 39.1609C237.893 39.5397 237.419 39.7055 236.851 39.7055C236.283 39.7055 235.786 39.5161 235.431 39.1135C235.123 38.7584 234.957 38.3085 234.957 37.7639V28.151C234.957 27.8431 234.957 27.3933 234.981 26.8014C234.981 26.2094 235.004 25.7359 235.004 25.4517C235.004 24.9072 235.17 24.4573 235.502 24.0785C235.833 23.6996 236.307 23.5339 236.899 23.5339C237.988 23.5339 238.627 24.1021 238.84 25.215C240.569 23.9127 242.486 23.2734 244.617 23.2734C246.748 23.2734 247.553 24.5757 247.553 27.1802C247.553 29.7847 247.553 28.0089 247.553 28.151H247.53Z" stroke="#F34D08" stroke-width="10" stroke-miterlimit="7.1" mask="url(#path-25-outside-3_2894_1105)"/>
</g>
<g id="Vector_25">
<mask id="path-26-outside-4_2894_1105" maskUnits="userSpaceOnUse" x="246.553" y="17.7734" width="25" height="28" fill="black">
<rect fill="white" x="246.553" y="17.7734" width="25" height="28"/>
<path d="M263.605 39.7737C262.397 39.7737 261.734 39.1818 261.592 37.9979C261.45 36.9798 261.308 35.9854 261.189 34.9672C261.047 33.9018 260.976 32.8836 260.976 31.9365C260.976 30.9895 260.976 31.2499 261.024 30.6343C261.047 30.0187 261.071 29.5925 261.071 29.332C261.071 29.0716 261.071 29.0953 261.095 28.8111C261.095 28.527 261.118 28.3139 261.118 28.1245C261.118 27.3195 260.929 26.917 260.526 26.917C259.698 26.917 258.869 27.4615 258.064 28.527C257.259 29.6162 256.62 30.9658 256.17 32.6232C256.17 32.9547 256.122 33.4045 256.051 33.9491C256.004 34.399 255.98 34.8488 255.98 35.275C255.98 35.7012 255.957 35.9854 255.886 36.5536C255.815 37.1219 255.791 37.5481 255.791 37.8322C255.791 38.4004 255.602 38.874 255.223 39.2528C254.844 39.6317 254.347 39.8211 253.755 39.8211C253.163 39.8211 252.689 39.6317 252.31 39.2528C251.932 38.874 251.742 38.4004 251.742 37.8322C251.742 37.2639 251.719 37.1219 251.647 36.5773C251.6 36.009 251.553 35.5828 251.553 35.3224C251.553 34.3753 251.624 33.0257 251.766 31.3446C251.908 29.6398 251.979 28.3139 251.979 27.3432C251.979 26.3724 251.979 26.6092 251.932 26.0172C251.884 25.4253 251.884 24.9754 251.884 24.6913C251.884 24.123 252.074 23.6732 252.476 23.318C252.879 22.9629 253.352 22.7734 253.944 22.7734C255.223 22.7734 255.909 23.5311 256.004 25.0701V25.2359C257.448 23.7916 258.964 23.0812 260.55 23.0812C262.136 23.0812 263.676 23.8626 264.386 25.4016C264.859 26.4434 265.096 27.9824 265.096 30.0424V31.0842C265.096 31.534 265.096 31.8418 265.096 32.0313C265.096 32.7889 265.191 33.7834 265.404 34.9909C265.617 36.1985 265.712 37.1692 265.712 37.9269C265.712 38.6846 265.522 38.9213 265.12 39.3002C264.717 39.6553 264.244 39.8448 263.676 39.8448L263.605 39.7737Z"/>
</mask>
<path d="M263.605 39.7737C262.397 39.7737 261.734 39.1818 261.592 37.9979C261.45 36.9798 261.308 35.9854 261.189 34.9672C261.047 33.9018 260.976 32.8836 260.976 31.9365C260.976 30.9895 260.976 31.2499 261.024 30.6343C261.047 30.0187 261.071 29.5925 261.071 29.332C261.071 29.0716 261.071 29.0953 261.095 28.8111C261.095 28.527 261.118 28.3139 261.118 28.1245C261.118 27.3195 260.929 26.917 260.526 26.917C259.698 26.917 258.869 27.4615 258.064 28.527C257.259 29.6162 256.62 30.9658 256.17 32.6232C256.17 32.9547 256.122 33.4045 256.051 33.9491C256.004 34.399 255.98 34.8488 255.98 35.275C255.98 35.7012 255.957 35.9854 255.886 36.5536C255.815 37.1219 255.791 37.5481 255.791 37.8322C255.791 38.4004 255.602 38.874 255.223 39.2528C254.844 39.6317 254.347 39.8211 253.755 39.8211C253.163 39.8211 252.689 39.6317 252.31 39.2528C251.932 38.874 251.742 38.4004 251.742 37.8322C251.742 37.2639 251.719 37.1219 251.647 36.5773C251.6 36.009 251.553 35.5828 251.553 35.3224C251.553 34.3753 251.624 33.0257 251.766 31.3446C251.908 29.6398 251.979 28.3139 251.979 27.3432C251.979 26.3724 251.979 26.6092 251.932 26.0172C251.884 25.4253 251.884 24.9754 251.884 24.6913C251.884 24.123 252.074 23.6732 252.476 23.318C252.879 22.9629 253.352 22.7734 253.944 22.7734C255.223 22.7734 255.909 23.5311 256.004 25.0701V25.2359C257.448 23.7916 258.964 23.0812 260.55 23.0812C262.136 23.0812 263.676 23.8626 264.386 25.4016C264.859 26.4434 265.096 27.9824 265.096 30.0424V31.0842C265.096 31.534 265.096 31.8418 265.096 32.0313C265.096 32.7889 265.191 33.7834 265.404 34.9909C265.617 36.1985 265.712 37.1692 265.712 37.9269C265.712 38.6846 265.522 38.9213 265.12 39.3002C264.717 39.6553 264.244 39.8448 263.676 39.8448L263.605 39.7737Z" fill="#FFC805"/>
<path d="M263.605 39.7737C262.397 39.7737 261.734 39.1818 261.592 37.9979C261.45 36.9798 261.308 35.9854 261.189 34.9672C261.047 33.9018 260.976 32.8836 260.976 31.9365C260.976 30.9895 260.976 31.2499 261.024 30.6343C261.047 30.0187 261.071 29.5925 261.071 29.332C261.071 29.0716 261.071 29.0953 261.095 28.8111C261.095 28.527 261.118 28.3139 261.118 28.1245C261.118 27.3195 260.929 26.917 260.526 26.917C259.698 26.917 258.869 27.4615 258.064 28.527C257.259 29.6162 256.62 30.9658 256.17 32.6232C256.17 32.9547 256.122 33.4045 256.051 33.9491C256.004 34.399 255.98 34.8488 255.98 35.275C255.98 35.7012 255.957 35.9854 255.886 36.5536C255.815 37.1219 255.791 37.5481 255.791 37.8322C255.791 38.4004 255.602 38.874 255.223 39.2528C254.844 39.6317 254.347 39.8211 253.755 39.8211C253.163 39.8211 252.689 39.6317 252.31 39.2528C251.932 38.874 251.742 38.4004 251.742 37.8322C251.742 37.2639 251.719 37.1219 251.647 36.5773C251.6 36.009 251.553 35.5828 251.553 35.3224C251.553 34.3753 251.624 33.0257 251.766 31.3446C251.908 29.6398 251.979 28.3139 251.979 27.3432C251.979 26.3724 251.979 26.6092 251.932 26.0172C251.884 25.4253 251.884 24.9754 251.884 24.6913C251.884 24.123 252.074 23.6732 252.476 23.318C252.879 22.9629 253.352 22.7734 253.944 22.7734C255.223 22.7734 255.909 23.5311 256.004 25.0701V25.2359C257.448 23.7916 258.964 23.0812 260.55 23.0812C262.136 23.0812 263.676 23.8626 264.386 25.4016C264.859 26.4434 265.096 27.9824 265.096 30.0424V31.0842C265.096 31.534 265.096 31.8418 265.096 32.0313C265.096 32.7889 265.191 33.7834 265.404 34.9909C265.617 36.1985 265.712 37.1692 265.712 37.9269C265.712 38.6846 265.522 38.9213 265.12 39.3002C264.717 39.6553 264.244 39.8448 263.676 39.8448L263.605 39.7737Z" stroke="#F34D08" stroke-width="10" stroke-miterlimit="7.1" mask="url(#path-26-outside-4_2894_1105)"/>
</g>
<g id="Vector_26">
<mask id="path-27-outside-5_2894_1105" maskUnits="userSpaceOnUse" x="264.711" y="10.918" width="16" height="34" fill="black">
<rect fill="white" x="264.711" y="10.918" width="16" height="34"/>
<path d="M273.736 31.8419C273.736 32.4101 273.736 33.2862 273.783 34.5174C273.807 35.7486 273.831 36.6483 273.831 37.1929C273.831 37.7375 273.641 38.2347 273.263 38.5899C272.884 38.945 272.386 39.1345 271.818 39.1345C271.25 39.1345 270.753 38.945 270.374 38.5899C269.995 38.2347 269.806 37.7612 269.806 37.1929C269.806 36.6247 269.806 35.7486 269.758 34.5174C269.735 33.2862 269.711 32.3864 269.711 31.8419C269.711 30.9658 269.758 29.8766 269.853 28.5744C269.948 27.2721 269.995 26.183 269.995 25.3069C269.995 24.4309 270.185 24.2651 270.563 23.91C270.942 23.5548 271.439 23.3654 272.008 23.3654C272.576 23.3654 273.073 23.5548 273.452 23.91C273.831 24.2651 274.02 24.7387 274.02 25.3069C274.02 26.183 273.973 27.2721 273.878 28.5744C273.783 29.8766 273.736 30.9658 273.736 31.8419ZM272.481 21.0924C271.866 21.0924 271.321 20.8793 270.847 20.4531C270.398 20.0269 270.161 19.5297 270.161 18.9141C270.161 18.2984 270.398 17.8012 270.847 17.375C271.297 16.9488 271.842 16.918 272.481 16.918C273.12 16.918 273.641 16.9488 274.091 17.375C274.541 17.8012 274.778 18.2984 274.778 18.9141C274.778 19.5297 274.541 20.0269 274.091 20.4531C273.641 20.8793 273.097 21.0924 272.481 21.0924Z"/>
</mask>
<path d="M273.736 31.8419C273.736 32.4101 273.736 33.2862 273.783 34.5174C273.807 35.7486 273.831 36.6483 273.831 37.1929C273.831 37.7375 273.641 38.2347 273.263 38.5899C272.884 38.945 272.386 39.1345 271.818 39.1345C271.25 39.1345 270.753 38.945 270.374 38.5899C269.995 38.2347 269.806 37.7612 269.806 37.1929C269.806 36.6247 269.806 35.7486 269.758 34.5174C269.735 33.2862 269.711 32.3864 269.711 31.8419C269.711 30.9658 269.758 29.8766 269.853 28.5744C269.948 27.2721 269.995 26.183 269.995 25.3069C269.995 24.4309 270.185 24.2651 270.563 23.91C270.942 23.5548 271.439 23.3654 272.008 23.3654C272.576 23.3654 273.073 23.5548 273.452 23.91C273.831 24.2651 274.02 24.7387 274.02 25.3069C274.02 26.183 273.973 27.2721 273.878 28.5744C273.783 29.8766 273.736 30.9658 273.736 31.8419ZM272.481 21.0924C271.866 21.0924 271.321 20.8793 270.847 20.4531C270.398 20.0269 270.161 19.5297 270.161 18.9141C270.161 18.2984 270.398 17.8012 270.847 17.375C271.297 16.9488 271.842 16.918 272.481 16.918C273.12 16.918 273.641 16.9488 274.091 17.375C274.541 17.8012 274.778 18.2984 274.778 18.9141C274.778 19.5297 274.541 20.0269 274.091 20.4531C273.641 20.8793 273.097 21.0924 272.481 21.0924Z" fill="#FFC805"/>
<path d="M273.736 31.8419C273.736 32.4101 273.736 33.2862 273.783 34.5174C273.807 35.7486 273.831 36.6483 273.831 37.1929C273.831 37.7375 273.641 38.2347 273.263 38.5899C272.884 38.945 272.386 39.1345 271.818 39.1345C271.25 39.1345 270.753 38.945 270.374 38.5899C269.995 38.2347 269.806 37.7612 269.806 37.1929C269.806 36.6247 269.806 35.7486 269.758 34.5174C269.735 33.2862 269.711 32.3864 269.711 31.8419C269.711 30.9658 269.758 29.8766 269.853 28.5744C269.948 27.2721 269.995 26.183 269.995 25.3069C269.995 24.4309 270.185 24.2651 270.563 23.91C270.942 23.5548 271.439 23.3654 272.008 23.3654C272.576 23.3654 273.073 23.5548 273.452 23.91C273.831 24.2651 274.02 24.7387 274.02 25.3069C274.02 26.183 273.973 27.2721 273.878 28.5744C273.783 29.8766 273.736 30.9658 273.736 31.8419ZM272.481 21.0924C271.866 21.0924 271.321 20.8793 270.847 20.4531C270.398 20.0269 270.161 19.5297 270.161 18.9141C270.161 18.2984 270.398 17.8012 270.847 17.375C271.297 16.9488 271.842 16.918 272.481 16.918C273.12 16.918 273.641 16.9488 274.091 17.375C274.541 17.8012 274.778 18.2984 274.778 18.9141C274.778 19.5297 274.541 20.0269 274.091 20.4531C273.641 20.8793 273.097 21.0924 272.481 21.0924Z" stroke="#F34D08" stroke-width="10" stroke-miterlimit="7.1" mask="url(#path-27-outside-5_2894_1105)"/>
</g>
<g id="Vector_27">
<mask id="path-28-outside-6_2894_1105" maskUnits="userSpaceOnUse" x="273.777" y="17.7734" width="25" height="28" fill="black">
<rect fill="white" x="273.777" y="17.7734" width="25" height="28"/>
<path d="M290.829 39.7737C289.622 39.7737 288.959 39.1818 288.816 37.9979C288.674 36.9798 288.532 35.9854 288.414 34.9672C288.272 33.9018 288.201 32.8836 288.201 31.9365C288.201 30.9895 288.201 31.2499 288.248 30.6343C288.272 30.0187 288.296 29.5925 288.296 29.332C288.296 29.0716 288.296 29.0953 288.319 28.8111C288.319 28.527 288.343 28.3139 288.343 28.1245C288.343 27.3195 288.154 26.917 287.751 26.917C286.922 26.917 286.094 27.4615 285.289 28.527C284.484 29.6162 283.844 30.9658 283.394 32.6232C283.394 32.9547 283.347 33.4045 283.276 33.9491C283.229 34.399 283.205 34.8488 283.205 35.275C283.205 35.7012 283.181 35.9854 283.11 36.5536C283.039 37.1219 283.016 37.5481 283.016 37.8322C283.016 38.4004 282.826 38.874 282.447 39.2528C282.068 39.6317 281.571 39.8211 280.979 39.8211C280.387 39.8211 279.914 39.6317 279.535 39.2528C279.156 38.874 278.967 38.4004 278.967 37.8322C278.967 37.2639 278.943 37.1219 278.872 36.5773C278.825 36.009 278.777 35.5828 278.777 35.3224C278.777 34.3753 278.848 33.0257 278.99 31.3446C279.132 29.6398 279.204 28.3139 279.204 27.3432C279.204 26.3724 279.204 26.6092 279.156 26.0172C279.109 25.4253 279.109 24.9754 279.109 24.6913C279.109 24.123 279.298 23.6732 279.701 23.318C280.103 22.9629 280.577 22.7734 281.169 22.7734C282.447 22.7734 283.134 23.5311 283.229 25.0701V25.2359C284.673 23.7916 286.188 23.0812 287.775 23.0812C289.361 23.0812 290.9 23.8626 291.61 25.4016C292.084 26.4434 292.321 27.9824 292.321 30.0424V31.0842C292.321 31.534 292.321 31.8418 292.321 32.0313C292.321 32.7889 292.415 33.7834 292.629 34.9909C292.842 36.1985 292.936 37.1692 292.936 37.9269C292.936 38.6846 292.747 38.9213 292.344 39.3002C291.942 39.6553 291.468 39.8448 290.9 39.8448L290.829 39.7737Z"/>
</mask>
<path d="M290.829 39.7737C289.622 39.7737 288.959 39.1818 288.816 37.9979C288.674 36.9798 288.532 35.9854 288.414 34.9672C288.272 33.9018 288.201 32.8836 288.201 31.9365C288.201 30.9895 288.201 31.2499 288.248 30.6343C288.272 30.0187 288.296 29.5925 288.296 29.332C288.296 29.0716 288.296 29.0953 288.319 28.8111C288.319 28.527 288.343 28.3139 288.343 28.1245C288.343 27.3195 288.154 26.917 287.751 26.917C286.922 26.917 286.094 27.4615 285.289 28.527C284.484 29.6162 283.844 30.9658 283.394 32.6232C283.394 32.9547 283.347 33.4045 283.276 33.9491C283.229 34.399 283.205 34.8488 283.205 35.275C283.205 35.7012 283.181 35.9854 283.11 36.5536C283.039 37.1219 283.016 37.5481 283.016 37.8322C283.016 38.4004 282.826 38.874 282.447 39.2528C282.068 39.6317 281.571 39.8211 280.979 39.8211C280.387 39.8211 279.914 39.6317 279.535 39.2528C279.156 38.874 278.967 38.4004 278.967 37.8322C278.967 37.2639 278.943 37.1219 278.872 36.5773C278.825 36.009 278.777 35.5828 278.777 35.3224C278.777 34.3753 278.848 33.0257 278.99 31.3446C279.132 29.6398 279.204 28.3139 279.204 27.3432C279.204 26.3724 279.204 26.6092 279.156 26.0172C279.109 25.4253 279.109 24.9754 279.109 24.6913C279.109 24.123 279.298 23.6732 279.701 23.318C280.103 22.9629 280.577 22.7734 281.169 22.7734C282.447 22.7734 283.134 23.5311 283.229 25.0701V25.2359C284.673 23.7916 286.188 23.0812 287.775 23.0812C289.361 23.0812 290.9 23.8626 291.61 25.4016C292.084 26.4434 292.321 27.9824 292.321 30.0424V31.0842C292.321 31.534 292.321 31.8418 292.321 32.0313C292.321 32.7889 292.415 33.7834 292.629 34.9909C292.842 36.1985 292.936 37.1692 292.936 37.9269C292.936 38.6846 292.747 38.9213 292.344 39.3002C291.942 39.6553 291.468 39.8448 290.9 39.8448L290.829 39.7737Z" fill="#FFC805"/>
<path d="M290.829 39.7737C289.622 39.7737 288.959 39.1818 288.816 37.9979C288.674 36.9798 288.532 35.9854 288.414 34.9672C288.272 33.9018 288.201 32.8836 288.201 31.9365C288.201 30.9895 288.201 31.2499 288.248 30.6343C288.272 30.0187 288.296 29.5925 288.296 29.332C288.296 29.0716 288.296 29.0953 288.319 28.8111C288.319 28.527 288.343 28.3139 288.343 28.1245C288.343 27.3195 288.154 26.917 287.751 26.917C286.922 26.917 286.094 27.4615 285.289 28.527C284.484 29.6162 283.844 30.9658 283.394 32.6232C283.394 32.9547 283.347 33.4045 283.276 33.9491C283.229 34.399 283.205 34.8488 283.205 35.275C283.205 35.7012 283.181 35.9854 283.11 36.5536C283.039 37.1219 283.016 37.5481 283.016 37.8322C283.016 38.4004 282.826 38.874 282.447 39.2528C282.068 39.6317 281.571 39.8211 280.979 39.8211C280.387 39.8211 279.914 39.6317 279.535 39.2528C279.156 38.874 278.967 38.4004 278.967 37.8322C278.967 37.2639 278.943 37.1219 278.872 36.5773C278.825 36.009 278.777 35.5828 278.777 35.3224C278.777 34.3753 278.848 33.0257 278.99 31.3446C279.132 29.6398 279.204 28.3139 279.204 27.3432C279.204 26.3724 279.204 26.6092 279.156 26.0172C279.109 25.4253 279.109 24.9754 279.109 24.6913C279.109 24.123 279.298 23.6732 279.701 23.318C280.103 22.9629 280.577 22.7734 281.169 22.7734C282.447 22.7734 283.134 23.5311 283.229 25.0701V25.2359C284.673 23.7916 286.188 23.0812 287.775 23.0812C289.361 23.0812 290.9 23.8626 291.61 25.4016C292.084 26.4434 292.321 27.9824 292.321 30.0424V31.0842C292.321 31.534 292.321 31.8418 292.321 32.0313C292.321 32.7889 292.415 33.7834 292.629 34.9909C292.842 36.1985 292.936 37.1692 292.936 37.9269C292.936 38.6846 292.747 38.9213 292.344 39.3002C291.942 39.6553 291.468 39.8448 290.9 39.8448L290.829 39.7737Z" stroke="#F34D08" stroke-width="10" stroke-miterlimit="7.1" mask="url(#path-28-outside-6_2894_1105)"/>
</g>
<g id="Vector_28">
<mask id="path-29-outside-7_2894_1105" maskUnits="userSpaceOnUse" x="291.936" y="18.2578" width="26" height="34" fill="black">
<rect fill="white" x="291.936" y="18.2578" width="26" height="34"/>
<path d="M311.758 29.485C311.355 31.7817 311.095 34.1968 311.024 36.7539C310.929 39.903 310.408 42.1997 309.437 43.644C308.159 45.5618 305.886 46.5089 302.642 46.5089C299.398 46.5089 296.936 45.7513 296.936 44.2596C296.936 42.7679 297.101 43.2888 297.456 42.9573C297.788 42.6259 298.238 42.4601 298.806 42.4601C299.374 42.4601 299.872 42.5312 300.7 42.7206C301.529 42.8863 302.239 42.981 302.879 42.981C304.347 42.981 305.412 42.5312 306.099 41.6551C306.762 40.779 307.164 39.4058 307.283 37.5116C306.785 38.0088 306.217 38.4113 305.601 38.6481C304.986 38.8849 304.299 39.0269 303.542 39.0269C301.6 39.0269 300.014 38.3876 298.806 37.1327C297.599 35.8778 296.983 34.2441 296.983 32.2789C296.983 30.3137 297.788 27.4724 299.422 25.815C301.103 24.1102 303.376 23.2578 306.241 23.2578C308.814 23.2578 307.945 23.3762 308.608 23.5893C308.608 23.5893 309.816 24.1576 310.219 24.6075C311.19 25.2376 312.089 25.4835 312.089 26.8094C312.089 28.1354 311.994 28.3721 311.781 29.5323L311.758 29.485ZM306.051 26.549C304.063 26.4255 303.115 27.0936 302.192 28.1827C301.363 29.1772 300.961 30.4557 300.961 32.0184C300.961 33.5811 301.174 34.0547 301.624 34.6466C302.074 35.2386 302.713 35.5227 303.613 35.5227C304.512 35.5227 305.223 35.0491 306.028 34.1257C306.785 33.2497 307.235 32.3736 307.33 31.5212C307.519 30.5741 307.732 29.1298 307.969 27.1409C307.638 26.9515 307.306 26.8094 306.975 26.6911C306.643 26.5963 306.335 26.549 306.028 26.549H306.051Z"/>
</mask>
<path d="M311.758 29.485C311.355 31.7817 311.095 34.1968 311.024 36.7539C310.929 39.903 310.408 42.1997 309.437 43.644C308.159 45.5618 305.886 46.5089 302.642 46.5089C299.398 46.5089 296.936 45.7513 296.936 44.2596C296.936 42.7679 297.101 43.2888 297.456 42.9573C297.788 42.6259 298.238 42.4601 298.806 42.4601C299.374 42.4601 299.872 42.5312 300.7 42.7206C301.529 42.8863 302.239 42.981 302.879 42.981C304.347 42.981 305.412 42.5312 306.099 41.6551C306.762 40.779 307.164 39.4058 307.283 37.5116C306.785 38.0088 306.217 38.4113 305.601 38.6481C304.986 38.8849 304.299 39.0269 303.542 39.0269C301.6 39.0269 300.014 38.3876 298.806 37.1327C297.599 35.8778 296.983 34.2441 296.983 32.2789C296.983 30.3137 297.788 27.4724 299.422 25.815C301.103 24.1102 303.376 23.2578 306.241 23.2578C308.814 23.2578 307.945 23.3762 308.608 23.5893C308.608 23.5893 309.816 24.1576 310.219 24.6075C311.19 25.2376 312.089 25.4835 312.089 26.8094C312.089 28.1354 311.994 28.3721 311.781 29.5323L311.758 29.485ZM306.051 26.549C304.063 26.4255 303.115 27.0936 302.192 28.1827C301.363 29.1772 300.961 30.4557 300.961 32.0184C300.961 33.5811 301.174 34.0547 301.624 34.6466C302.074 35.2386 302.713 35.5227 303.613 35.5227C304.512 35.5227 305.223 35.0491 306.028 34.1257C306.785 33.2497 307.235 32.3736 307.33 31.5212C307.519 30.5741 307.732 29.1298 307.969 27.1409C307.638 26.9515 307.306 26.8094 306.975 26.6911C306.643 26.5963 306.335 26.549 306.028 26.549H306.051Z" fill="#FFC805"/>
<path d="M311.758 29.485C311.355 31.7817 311.095 34.1968 311.024 36.7539C310.929 39.903 310.408 42.1997 309.437 43.644C308.159 45.5618 305.886 46.5089 302.642 46.5089C299.398 46.5089 296.936 45.7513 296.936 44.2596C296.936 42.7679 297.101 43.2888 297.456 42.9573C297.788 42.6259 298.238 42.4601 298.806 42.4601C299.374 42.4601 299.872 42.5312 300.7 42.7206C301.529 42.8863 302.239 42.981 302.879 42.981C304.347 42.981 305.412 42.5312 306.099 41.6551C306.762 40.779 307.164 39.4058 307.283 37.5116C306.785 38.0088 306.217 38.4113 305.601 38.6481C304.986 38.8849 304.299 39.0269 303.542 39.0269C301.6 39.0269 300.014 38.3876 298.806 37.1327C297.599 35.8778 296.983 34.2441 296.983 32.2789C296.983 30.3137 297.788 27.4724 299.422 25.815C301.103 24.1102 303.376 23.2578 306.241 23.2578C308.814 23.2578 307.945 23.3762 308.608 23.5893C308.608 23.5893 309.816 24.1576 310.219 24.6075C311.19 25.2376 312.089 25.4835 312.089 26.8094C312.089 28.1354 311.994 28.3721 311.781 29.5323L311.758 29.485ZM306.051 26.549C304.063 26.4255 303.115 27.0936 302.192 28.1827C301.363 29.1772 300.961 30.4557 300.961 32.0184C300.961 33.5811 301.174 34.0547 301.624 34.6466C302.074 35.2386 302.713 35.5227 303.613 35.5227C304.512 35.5227 305.223 35.0491 306.028 34.1257C306.785 33.2497 307.235 32.3736 307.33 31.5212C307.519 30.5741 307.732 29.1298 307.969 27.1409C307.638 26.9515 307.306 26.8094 306.975 26.6911C306.643 26.5963 306.335 26.549 306.028 26.549H306.051Z" stroke="#F34D08" stroke-width="10" stroke-miterlimit="7.1" stroke-linejoin="round" mask="url(#path-29-outside-7_2894_1105)"/>
</g>
<g id="Vector_29">
<mask id="path-30-outside-8_2894_1105" maskUnits="userSpaceOnUse" x="172" y="11.1367" width="26" height="34" fill="black">
<rect fill="white" x="172" y="11.1367" width="26" height="34"/>
<path d="M191.396 38.1803C190.236 38.6775 188.46 39.151 186.045 39.5536C183.843 39.9324 182.02 40.1218 180.599 40.1218C178.208 40.1218 177 39.08 177 36.9727C177 37.1385 177.095 35.5994 177.284 32.332C177.545 28.0937 177.663 23.3583 177.663 18.1493C177.663 17.7082 177.852 17.1075 178.231 16.7287C178.61 16.3498 179.107 16.1367 179.699 16.1367C180.291 16.1367 180.765 16.3261 181.167 16.7287C181.57 17.1312 181.759 17.6047 181.759 18.1493C181.759 23.3583 181.617 28.1648 181.357 32.5688C181.262 33.3501 181.167 34.5576 181.072 36.1677C183.393 36.1203 186.353 35.5521 189.999 34.4629C190.212 34.3919 190.449 34.3682 190.638 34.3682C191.254 34.3682 191.751 34.605 192.13 35.0312C192.461 35.4337 192.651 35.8836 192.651 36.3808C192.651 37.2332 192.224 37.8251 191.372 38.2039L191.396 38.1803Z"/>
</mask>
<path d="M191.396 38.1803C190.236 38.6775 188.46 39.151 186.045 39.5536C183.843 39.9324 182.02 40.1218 180.599 40.1218C178.208 40.1218 177 39.08 177 36.9727C177 37.1385 177.095 35.5994 177.284 32.332C177.545 28.0937 177.663 23.3583 177.663 18.1493C177.663 17.7082 177.852 17.1075 178.231 16.7287C178.61 16.3498 179.107 16.1367 179.699 16.1367C180.291 16.1367 180.765 16.3261 181.167 16.7287C181.57 17.1312 181.759 17.6047 181.759 18.1493C181.759 23.3583 181.617 28.1648 181.357 32.5688C181.262 33.3501 181.167 34.5576 181.072 36.1677C183.393 36.1203 186.353 35.5521 189.999 34.4629C190.212 34.3919 190.449 34.3682 190.638 34.3682C191.254 34.3682 191.751 34.605 192.13 35.0312C192.461 35.4337 192.651 35.8836 192.651 36.3808C192.651 37.2332 192.224 37.8251 191.372 38.2039L191.396 38.1803Z" fill="#FFC805"/>
<path d="M191.396 38.1803C190.236 38.6775 188.46 39.151 186.045 39.5536C183.843 39.9324 182.02 40.1218 180.599 40.1218C178.208 40.1218 177 39.08 177 36.9727C177 37.1385 177.095 35.5994 177.284 32.332C177.545 28.0937 177.663 23.3583 177.663 18.1493C177.663 17.7082 177.852 17.1075 178.231 16.7287C178.61 16.3498 179.107 16.1367 179.699 16.1367C180.291 16.1367 180.765 16.3261 181.167 16.7287C181.57 17.1312 181.759 17.6047 181.759 18.1493C181.759 23.3583 181.617 28.1648 181.357 32.5688C181.262 33.3501 181.167 34.5576 181.072 36.1677C183.393 36.1203 186.353 35.5521 189.999 34.4629C190.212 34.3919 190.449 34.3682 190.638 34.3682C191.254 34.3682 191.751 34.605 192.13 35.0312C192.461 35.4337 192.651 35.8836 192.651 36.3808C192.651 37.2332 192.224 37.8251 191.372 38.2039L191.396 38.1803Z" stroke="#F34D08" stroke-width="10" stroke-miterlimit="7.1" stroke-linejoin="round" mask="url(#path-30-outside-8_2894_1105)"/>
</g>
</g>
</g>
<g id="Group 224">
<path id="Vector_30" d="M24.5 49C38.031 49 49 38.031 49 24.5C49 10.969 38.031 0 24.5 0C10.969 0 0 10.969 0 24.5C0 38.031 10.969 49 24.5 49Z" fill="#F34D08"/>
<path id="Vector_31" d="M10.3895 31.9609C10.6335 39.4838 16.7941 45.502 24.3779 45.502C31.9617 45.502 38.1222 39.4838 38.3662 31.9609C28.9729 38.4062 19.6405 38.4265 10.3691 31.9609H10.3895Z" fill="#FFC805"/>
<path id="Vector_32" d="M24.3988 17.4766C17.3842 17.4766 11.5693 22.6409 10.5527 29.3708C19.6208 36.2226 28.8515 36.3446 38.2448 29.3708C37.2282 22.6409 31.4133 17.4766 24.3988 17.4766ZM22.5486 32.1969C22.081 32.1969 21.6946 31.343 21.6946 30.306C21.6946 29.2691 22.081 28.4152 22.5486 28.4152C23.0162 28.4152 23.4025 29.2691 23.4025 30.306C23.4025 31.343 23.0162 32.1969 22.5486 32.1969ZM25.639 32.1969C25.1714 32.1969 24.7851 31.343 24.7851 30.306C24.7851 29.2691 25.1714 28.4152 25.639 28.4152C26.1067 28.4152 26.493 29.2691 26.493 30.306C26.493 31.343 26.1067 32.1969 25.639 32.1969Z" fill="#FFC805"/>
<path id="Vector_33" d="M39.1408 14.5977H9.8425C6.5187 14.5977 3.82422 17.2921 3.82422 20.6159V20.7176C3.82422 24.0414 6.5187 26.7358 9.8425 26.7358H39.1408C42.4646 26.7358 45.1591 24.0414 45.1591 20.7176V20.6159C45.1591 17.2921 42.4646 14.5977 39.1408 14.5977Z" fill="#FFC805"/>
<path id="Vector_34" d="M18.1602 25.8204C20.9001 25.8204 23.1212 23.5993 23.1212 20.8594C23.1212 18.1196 20.9001 15.8984 18.1602 15.8984C15.4203 15.8984 13.1992 18.1196 13.1992 20.8594C13.1992 23.5993 15.4203 25.8204 18.1602 25.8204Z" fill="white"/>
<path id="Vector_35" d="M17.4045 25.0511C18.3926 25.0511 19.1937 24.25 19.1937 23.2619C19.1937 22.2737 18.3926 21.4727 17.4045 21.4727C16.4163 21.4727 15.6152 22.2737 15.6152 23.2619C15.6152 24.25 16.4163 25.0511 17.4045 25.0511Z" fill="#2D2D2D"/>
<path id="Vector_36" d="M31.0665 25.9222C33.8626 25.9222 36.1292 23.6556 36.1292 20.8595C36.1292 18.0635 33.8626 15.7969 31.0665 15.7969C28.2705 15.7969 26.0039 18.0635 26.0039 20.8595C26.0039 23.6556 28.2705 25.9222 31.0665 25.9222Z" fill="white"/>
<path id="Vector_37" d="M30.3571 24.9994C31.3116 24.9994 32.0853 24.2257 32.0853 23.2712C32.0853 22.3167 31.3116 21.543 30.3571 21.543C29.4027 21.543 28.6289 22.3167 28.6289 23.2712C28.6289 24.2257 29.4027 24.9994 30.3571 24.9994Z" fill="#2D2D2D"/>
</g>
</g>
</g>
</svg>
