<?xml version="1.0" encoding="UTF-8"?>
<svg id="Layer_2" data-name="Layer 2" xmlns="http://www.w3.org/2000/svg" viewBox="0 0 90.32 88.79">
  <defs>
    <style>
      .cls-1 {
        fill: #e5e2df;
        opacity: .5;
      }

      .cls-1, .cls-2 {
        stroke-width: 0px;
      }

      .cls-2 {
        fill: #fff;
      }
    </style>
  </defs>
  <g id="Layer_1-2" data-name="Layer 1">
    <g>
      <ellipse class="cls-1" cx="45.16" cy="44.4" rx="45.16" ry="44.4"/>
      <g id="PWvT0o.tif">
        <g>
          <path class="cls-2" d="m34.93,65.47c-.52-.1-1.04-.18-1.55-.31-4.09-.99-6.98-4.55-7-8.7-.02-8.49,0-16.99,0-25.48,0-1.43,1-2.48,2.34-2.49,1.36-.01,2.36,1.05,2.36,2.51,0,8.39,0,16.77,0,25.16,0,2.77,1.91,4.65,4.73,4.65,6.25,0,12.51,0,18.76,0,2.74,0,4.68-1.9,4.68-4.59,0-8.4,0-16.81,0-25.21,0-1.27.69-2.2,1.81-2.45,1.35-.3,2.61.53,2.84,1.87.04.25.05.5.05.75,0,8.35,0,16.7,0,25.05,0,4.8-3.43,8.58-8.29,9.14-.13.01-.25.06-.37.09h-20.35Z"/>
          <path class="cls-2" d="m24.04,23.37c.51-1.39,1.54-1.86,3-1.83,2.66.06,5.31.02,7.97.01.89,0,.77.1.78-.79,0-1.23,0-2.45,0-3.68.01-1.49.96-2.45,2.47-2.45,4.6-.01,9.2-.01,13.8,0,1.52,0,2.47.95,2.49,2.43.01,1.3.02,2.6,0,3.89-.01.47.11.61.6.61,2.88-.02,5.75-.02,8.63,0,1.17,0,2.05.59,2.39,1.56.5,1.45-.54,2.97-2.1,3.06-.22.01-.44,0-.66,0-12.15,0-24.3-.01-36.45.02-1.45,0-2.43-.49-2.91-1.85v-.97Zm21.12-4.11c-1.39,0-2.78.02-4.17-.01-.45-.01-.57.14-.53.55.03.41.03.83,0,1.24-.03.39.08.53.51.53,2.8-.02,5.6-.02,8.4,0,.37,0,.54-.08.51-.48-.03-.45-.03-.9,0-1.35.02-.37-.09-.5-.48-.49-1.41.02-2.82,0-4.23,0Z"/>
          <path class="cls-2" d="m38.12,43.47c0-2.69,0-5.37,0-8.06,0-1.14.79-2.04,1.91-2.26,1.01-.2,2.1.34,2.55,1.28.18.36.24.75.24,1.16,0,5.28,0,10.56,0,15.84,0,1.44-1.01,2.46-2.36,2.46-1.35,0-2.34-1.04-2.34-2.47,0-2.65,0-5.3,0-7.95Z"/>
          <path class="cls-2" d="m52.2,43.51c0,2.69,0,5.37,0,8.06,0,1.09-.69,1.95-1.73,2.24-1,.28-2.07-.14-2.62-1.01-.26-.41-.36-.86-.36-1.34,0-5.3,0-10.6,0-15.9,0-1.43,1.03-2.45,2.38-2.43,1.33.02,2.31,1.04,2.31,2.44,0,2.65,0,5.3,0,7.95Z"/>
        </g>
      </g>
    </g>
  </g>
</svg>