<svg width="18" height="18" viewBox="0 0 18 18" fill="none" xmlns="http://www.w3.org/2000/svg">
<mask id="mask0_532_1284" style="mask-type:alpha" maskUnits="userSpaceOnUse" x="0" y="0" width="18" height="18">
<rect width="18" height="18" fill="#D9D9D9"/>
</mask>
<g mask="url(#mask0_532_1284)">
<path d="M5.80069 15.452C5.36969 15.452 5.00256 15.3003 4.69931 14.9971C4.39606 14.6938 4.24444 14.3267 4.24444 13.8957V4.99883H3.24131V3.44258H7.09687V2.43945H10.8941V3.44258H14.7587V4.99883H13.7556V13.8876C13.7556 14.3278 13.6039 14.6985 13.3007 14.9999C12.9974 15.3013 12.6303 15.452 12.1993 15.452H5.80069ZM12.1993 4.99883H5.80069V13.8957H12.1993V4.99883ZM7.11937 12.595H8.5725V6.29502H7.11937V12.595ZM9.4275 12.595H10.8806V6.29502H9.4275V12.595Z" fill="white"/>
</g>
</svg>
