<?xml version="1.0" encoding="UTF-8"?><svg id="Layer_2" xmlns="http://www.w3.org/2000/svg" viewBox="0 0 102.78 162.13"><defs><style>.cls-1{fill:#008cd2;}.cls-2{fill:#ffc000;}.cls-3{fill:#ff7925;}.cls-4{fill:none;stroke:#fff;stroke-linecap:round;stroke-miterlimit:10;stroke-width:4px;}.cls-5{fill:#fff;opacity:.5;}</style></defs><g id="Graphic_Elements"><g><circle class="cls-1" cx="51.03" cy="140.69" r="21.44"/><path class="cls-2" d="M102.78,51.39C102.78,23.01,79.77,0,51.39,0S0,23.01,0,51.39c0,11.74,3.94,22.55,10.57,31.2h-.01c11.07,14.64,12.76,22.6,15.86,33.95h49.95c3.1-11.35,4.79-19.31,15.86-33.95h-.01c6.62-8.65,10.57-19.47,10.57-31.2Z"/><rect class="cls-3" x="21.73" y="116.54" width="59.31" height="9.75" rx="4.87" ry="4.87"/><rect class="cls-3" x="24.26" y="129.06" width="53.5" height="9.75" rx="4.87" ry="4.87"/><rect class="cls-3" x="26.15" y="141.58" width="50.16" height="9.75" rx="4.87" ry="4.87"/><rect class="cls-3" x="28.71" y="123.78" width="45.28" height="22.15"/><path class="cls-5" d="M21.73,121.41c0,.86,.24,1.66,.64,2.36h31.05c2,0,3.62-1.62,3.62-3.62s-1.62-3.62-3.62-3.62H26.61c-2.69,0-4.87,2.18-4.87,4.87Z"/><path class="cls-5" d="M24.26,133.93c0,.86,.24,1.66,.64,2.36h31.05c2,0,3.62-1.62,3.62-3.62s-1.62-3.62-3.62-3.62H29.14c-2.69,0-4.87,2.18-4.87,4.87Z"/><path class="cls-5" d="M26.15,146.45c0,.86,.24,1.66,.64,2.36h31.05c2,0,3.62-1.62,3.62-3.62s-1.62-3.62-3.62-3.62H31.03c-2.69,0-4.87,2.18-4.87,4.87Z"/><path class="cls-4" d="M12.12,30.4c3.61-6.95,9.02-12.81,15.61-16.98"/><path class="cls-4" d="M8.54,39.79c.28-1.11,.61-2.21,.97-3.28"/></g></g></svg>