<svg width="39" height="39" viewBox="0 0 39 39" fill="none" xmlns="http://www.w3.org/2000/svg">
<path d="M19.6563 38.0244C30.0207 38.0244 38.4226 29.6224 38.4226 19.2581C38.4226 8.89372 30.0207 0.49176 19.6563 0.49176C9.29197 0.49176 0.890015 8.89372 0.890015 19.2581C0.890015 29.6224 9.29197 38.0244 19.6563 38.0244Z" fill="white"/>
<path opacity="0.5" d="M26.2894 4.89484L14.8009 4.20283C13.0944 4.09727 11.464 4.91243 10.5199 6.34336L4.1745 15.9435C3.23032 17.3686 3.12476 19.1924 3.88714 20.7172L9.03028 31.0152C9.79266 32.5458 11.3174 33.5486 13.024 33.6542L24.5125 34.3462C26.219 34.4518 27.8494 33.6366 28.7935 32.2057L35.1389 22.5997C36.0831 21.1746 36.1886 19.3508 35.4262 17.8201L30.2831 7.52212C29.5207 5.99149 27.996 4.9828 26.2894 4.88311V4.89484Z" fill="#FDBB11"/>
<path d="M20.6431 4.49045L10.6148 7.53997C8.97865 8.03845 7.73539 9.36969 7.34833 11.0352L4.97322 21.2452C4.58617 22.9107 5.11397 24.6584 6.3631 25.8254L14.0162 32.9859C15.2654 34.1529 17.0423 34.5693 18.6785 34.0708L28.7067 31.0213C30.3429 30.5228 31.5862 29.1916 31.9732 27.5261L34.3483 17.316C34.7354 15.6505 34.2076 13.9088 32.9585 12.7359L25.3053 5.57538C24.0562 4.40835 22.2793 3.99197 20.6431 4.49045Z" fill="#FDBB11"/>
<path d="M10.082 20.4795L8.92671 22.8957L6.87415 22.362L9.45451 18.163L11.8179 13.7647L14.5742 14.445L15.0551 19.4122V24.3383L12.85 23.9278L12.9263 21.2008L10.082 20.4736V20.4795ZM13.0142 19.8285L12.7738 17.5707L12.8794 15.6648L12.5627 15.5709L11.8824 17.3596L10.8385 19.1834L13.0142 19.8344V19.8285Z" fill="white"/>
<path d="M10.082 20.4795L8.92671 22.8957L6.87415 22.362L9.45451 18.163L11.8179 13.7647L14.5742 14.445L15.0551 19.4122V24.3383L12.85 23.9278L12.9263 21.2008L10.082 20.4736V20.4795ZM13.0142 19.8285L12.7738 17.5707L12.8794 15.6648L12.5627 15.5709L11.8824 17.3596L10.8385 19.1834L13.0142 19.8344V19.8285Z" stroke="white" stroke-width="0.25" stroke-miterlimit="10"/>
<path d="M16.6638 16.6492L19.0155 16.1508L21.3671 16.6023L22.5342 17.9511L21.4258 19.863L21.3613 19.9216L23.3024 21.593L22.54 23.4227L19.4494 24.5487L17.6197 24.4373L17.0626 20.5667L16.6755 16.6551L16.6638 16.6492ZM18.8395 19.5052L19.3732 19.3528L20.8686 18.3382L19.3791 17.5582L18.7105 17.6697L18.8395 19.5052ZM19.1797 23.0474L19.8189 22.9008L21.3847 21.7103L19.5315 20.7661L19.0096 20.8306L19.1797 23.0474Z" fill="white"/>
<path d="M16.6638 16.6492L19.0155 16.1508L21.3671 16.6023L22.5342 17.9511L21.4258 19.863L21.3613 19.9216L23.3024 21.593L22.54 23.4227L19.4494 24.5487L17.6197 24.4373L17.0626 20.5667L16.6755 16.6551L16.6638 16.6492ZM18.8395 19.5052L19.3732 19.3528L20.8686 18.3382L19.3791 17.5582L18.7105 17.6697L18.8395 19.5052ZM19.1797 23.0474L19.8189 22.9008L21.3847 21.7103L19.5315 20.7661L19.0096 20.8306L19.1797 23.0474Z" stroke="white" stroke-width="0.25" stroke-miterlimit="10"/>
<path d="M30.642 24.2529H28.3372L24.9652 22.4408L24.0972 18.6758L26.2319 15.1982L30.2197 14.6645L32.6594 15.4269L31.6448 16.9164L30.0086 16.4883L26.6541 18.9866L28.9471 22.6754L30.9352 22.5405L30.6478 24.247L30.642 24.2529Z" fill="white"/>
<path d="M30.642 24.2529H28.3372L24.9652 22.4408L24.0972 18.6758L26.2319 15.1982L30.2197 14.6645L32.6594 15.4269L31.6448 16.9164L30.0086 16.4883L26.6541 18.9866L28.9471 22.6754L30.9352 22.5405L30.6478 24.247L30.642 24.2529Z" stroke="white" stroke-width="0.25" stroke-miterlimit="10"/>
<path d="M9.97165 20.0658L8.73425 22.2474L6.55853 21.6023L9.01575 17.2978L11.6254 13.0871L14.3231 13.7029L14.8098 18.6642V23.5904L12.5637 23.2092L12.4934 20.6171L9.97165 20.0658ZM12.5344 18.7874L12.4054 16.8169L12.5579 14.9051L12.5051 14.9168L11.5551 16.5471L10.5757 18.4179L12.5286 18.7815L12.5344 18.7874Z" fill="#8BC656"/>
<path d="M16.3514 15.8946L18.7793 15.5193L21.2248 15.6131L22.2687 17.1965L21.1368 19.0379L21.1134 19.1318L23.0604 20.8325L22.3273 22.715L19.184 23.7236L17.2135 23.7061L16.8792 19.7945L16.3514 15.8946ZM18.6503 18.7271H19.1371L20.3627 17.6129L19.1312 16.7977L18.3864 16.9267L18.6503 18.733V18.7271ZM18.9963 22.281L19.5828 22.2634L20.8729 20.9732L19.2778 19.988L18.6855 20.0584L18.9963 22.281Z" fill="#009058"/>
<path d="M30.7275 23.5766L28.0651 23.6117L24.6226 21.7586L24.0538 17.9643L26.0829 14.6098L30.0003 13.7125L32.0705 14.6098L31.572 16.3163L29.7716 15.595L26.3057 18.2164L28.6926 21.87L30.5809 21.7938L30.7275 23.5648V23.5766Z" fill="#5ABBEA"/>
<path d="M18.5517 3.94332C19.1314 3.94332 19.6014 3.47334 19.6014 2.89358C19.6014 2.31383 19.1314 1.84384 18.5517 1.84384C17.9719 1.84384 17.502 2.31383 17.502 2.89358C17.502 3.47334 17.9719 3.94332 18.5517 3.94332Z" fill="#FDBB11"/>
<path d="M3.38549 16.0184C3.96525 16.0184 4.43523 15.5484 4.43523 14.9687C4.43523 14.3889 3.96525 13.9189 3.38549 13.9189C2.80574 13.9189 2.33575 14.3889 2.33575 14.9687C2.33575 15.5484 2.80574 16.0184 3.38549 16.0184Z" fill="#FDBB11"/>
<path d="M13.7379 35.6359C14.3177 35.6359 14.7877 35.1659 14.7877 34.5861C14.7877 34.0064 14.3177 33.5364 13.7379 33.5364C13.1582 33.5364 12.6882 34.0064 12.6882 34.5861C12.6882 35.1659 13.1582 35.6359 13.7379 35.6359Z" fill="#FDBB11"/>
<path d="M23.1766 13.8896C23.4519 13.8896 23.6751 13.6665 23.6751 13.3911C23.6751 13.1158 23.4519 12.8927 23.1766 12.8927C22.9013 12.8927 22.6782 13.1158 22.6782 13.3911C22.6782 13.6665 22.9013 13.8896 23.1766 13.8896Z" fill="white" stroke="white" stroke-width="0.25" stroke-miterlimit="10"/>
<path d="M10.5884 10.7456C10.8637 10.7456 11.0869 10.5224 11.0869 10.2471C11.0869 9.97183 10.8637 9.74866 10.5884 9.74866C10.3131 9.74866 10.0899 9.97183 10.0899 10.2471C10.0899 10.5224 10.3131 10.7456 10.5884 10.7456Z" fill="white" stroke="white" stroke-width="0.25" stroke-miterlimit="10"/>
<path d="M11.2237 26.4982C11.499 26.4982 11.7222 26.2751 11.7222 25.9998C11.7222 25.7245 11.499 25.5013 11.2237 25.5013C10.9484 25.5013 10.7252 25.7245 10.7252 25.9998C10.7252 26.2751 10.9484 26.4982 11.2237 26.4982Z" fill="white" stroke="white" stroke-width="0.25" stroke-miterlimit="10"/>
<path d="M17.5524 33.2057C17.8277 33.2057 18.0509 32.9826 18.0509 32.7072C18.0509 32.4319 17.8277 32.2088 17.5524 32.2088C17.2771 32.2088 17.054 32.4319 17.054 32.7072C17.054 32.9826 17.2771 33.2057 17.5524 33.2057Z" fill="white" stroke="white" stroke-width="0.25" stroke-miterlimit="10"/>
<path d="M18.5412 10.3937C18.7194 10.3937 18.8638 10.2493 18.8638 10.0712C18.8638 9.89307 18.7194 9.74866 18.5412 9.74866C18.3631 9.74866 18.2187 9.89307 18.2187 10.0712C18.2187 10.2493 18.3631 10.3937 18.5412 10.3937Z" fill="white" stroke="white" stroke-width="0.25" stroke-miterlimit="10"/>
<path d="M23.6704 6.83384C23.7708 6.83384 23.8522 6.75245 23.8522 6.65204C23.8522 6.55164 23.7708 6.47025 23.6704 6.47025C23.57 6.47025 23.4886 6.55164 23.4886 6.65204C23.4886 6.75245 23.57 6.83384 23.6704 6.83384Z" fill="white" stroke="white" stroke-width="0.25" stroke-miterlimit="10"/>
<path d="M32.5697 9.47449C32.9292 9.47449 33.2207 9.18305 33.2207 8.82353C33.2207 8.46402 32.9292 8.17258 32.5697 8.17258C32.2102 8.17258 31.9188 8.46402 31.9188 8.82353C31.9188 9.18305 32.2102 9.47449 32.5697 9.47449Z" fill="white" stroke="white" stroke-width="0.25" stroke-miterlimit="10"/>
<path d="M25.1173 25.8997C25.3375 25.8997 25.5161 25.7212 25.5161 25.501C25.5161 25.2807 25.3375 25.1022 25.1173 25.1022C24.897 25.1022 24.7185 25.2807 24.7185 25.501C24.7185 25.7212 24.897 25.8997 25.1173 25.8997Z" fill="white" stroke="white" stroke-width="0.25" stroke-miterlimit="10"/>
<path d="M20.599 26.4785C20.7351 26.4785 20.8453 26.3682 20.8453 26.2322C20.8453 26.0962 20.7351 25.9859 20.599 25.9859C20.463 25.9859 20.3527 26.0962 20.3527 26.2322C20.3527 26.3682 20.463 26.4785 20.599 26.4785Z" fill="white" stroke="white" stroke-width="0.25" stroke-miterlimit="10"/>
<path d="M27.4898 9.72406C27.6258 9.72406 27.7361 9.61378 27.7361 9.47775C27.7361 9.34172 27.6258 9.23145 27.4898 9.23145C27.3537 9.23145 27.2435 9.34172 27.2435 9.47775C27.2435 9.61378 27.3537 9.72406 27.4898 9.72406Z" fill="white" stroke="white" stroke-width="0.25" stroke-miterlimit="10"/>
<path d="M26.5572 30.3678C26.6932 30.3678 26.8035 30.2575 26.8035 30.1215C26.8035 29.9855 26.6932 29.8752 26.5572 29.8752C26.4211 29.8752 26.3109 29.9855 26.3109 30.1215C26.3109 30.2575 26.4211 30.3678 26.5572 30.3678Z" fill="white" stroke="white" stroke-width="0.25" stroke-miterlimit="10"/>
<path d="M29.8004 31.883H29.2726C28.9617 31.883 28.7096 32.135 28.7096 32.446V32.9738C28.7096 33.2847 28.9617 33.5367 29.2726 33.5367H29.8004C30.1113 33.5367 30.3634 33.2847 30.3634 32.9738V32.446C30.3634 32.135 30.1113 31.883 29.8004 31.883Z" fill="#FDBB11"/>
<path d="M8.27061 7.34991H7.73694C7.42601 7.34991 7.17395 7.60197 7.17395 7.9129V8.44657C7.17395 8.7575 7.42601 9.00956 7.73694 9.00956H8.27061C8.58154 9.00956 8.83359 8.7575 8.83359 8.44657V7.9129C8.83359 7.60197 8.58154 7.34991 8.27061 7.34991Z" fill="#FDBB11"/>
<path d="M19.5581 29.0946L19.5405 29.857L19.5698 30.6311L19.5464 31.4052L19.3353 32.1676L19.4408 32.9475L19.4056 33.7979L18.4028 33.6102L18.3383 32.9651L18.438 32.2673L18.4615 31.5635L18.5905 30.8656L18.4263 30.1619L18.309 30.2733L18.0392 30.2968L17.8222 30.5431L17.5642 30.5079L17.5114 29.6458L18.2797 29.3233L18.9658 29.1063L19.5464 29.0887L19.5581 29.0946Z" fill="white"/>
</svg>
