<svg width="33" height="30" viewBox="0 0 33 30" fill="none" xmlns="http://www.w3.org/2000/svg">
<path d="M31.585 24.3368L19.1949 2.57594C18.9247 2.09752 18.533 1.69959 18.0595 1.42273C17.5861 1.14587 17.048 1 16.5 1C15.9521 1 15.414 1.14587 14.9405 1.42273C14.4671 1.69959 14.0753 2.09752 13.8052 2.57594L1.41506 24.3368C1.14199 24.8115 0.998798 25.3501 1.00001 25.8982C1.00122 26.4463 1.14678 26.9843 1.42195 27.4577C1.69712 27.9311 2.09211 28.3231 2.56688 28.5939C3.04165 28.8648 3.57932 29.0048 4.1254 28.9999H28.9056C29.4491 28.9993 29.9829 28.8553 30.4533 28.5822C30.9237 28.3091 31.3143 27.9166 31.5858 27.4442C31.8573 26.9717 32.0001 26.4358 32 25.8904C31.9999 25.345 31.8567 24.8092 31.585 24.3368Z" stroke="#DC2626" stroke-width="2"/>
<path d="M17.6953 10.625L17.3594 18.3984H15.2188L14.8828 10.625H17.6953ZM14.8125 20.8203C14.8125 20.4453 14.9479 20.1328 15.2188 19.8828C15.4896 19.6276 15.8411 19.5 16.2734 19.5C16.7057 19.5 17.0547 19.6276 17.3203 19.8828C17.5911 20.1328 17.7266 20.4453 17.7266 20.8203C17.7266 21.1953 17.5911 21.5104 17.3203 21.7656C17.0547 22.0156 16.7057 22.1406 16.2734 22.1406C15.8411 22.1406 15.4896 22.0156 15.2188 21.7656C14.9479 21.5104 14.8125 21.1953 14.8125 20.8203Z" fill="black"/>
</svg>
