<?xml version="1.0" encoding="UTF-8"?><svg id="Layer_2" xmlns="http://www.w3.org/2000/svg" viewBox="0 0 155.2 159.33"><defs><style>.cls-1{fill:#f7d589;}.cls-2{fill:#ff605a;}.cls-3{opacity:.2;}</style></defs><g id="Layer_1-2"><g><circle class="cls-3" cx="77.6" cy="81.73" r="77.6"/><circle class="cls-2" cx="73.61" cy="73.61" r="73.61"/><circle class="cls-1" cx="73.61" cy="73.61" r="49.62"/><path class="cls-3" d="m110.65,64.13c-.03,6.42-2.42,11.67-5.88,16.53-4.07,5.72-9.03,10.62-14.17,15.35-5,4.6-10.29,8.86-15.41,13.32-.36.32-.62.53-1.11.11-7.98-6.94-16.3-13.49-23.51-21.28-3.94-4.26-7.67-8.69-9.97-14.1-2.83-6.66-3.15-13.32.74-19.71,7.37-12.13,24.84-12.36,32.58-.46.51.78.71.97,1.3.04,4.22-6.56,12.21-10.03,19.49-8.54,8.26,1.69,14.19,7.59,15.65,15.62.2,1.12.4,2.27.29,3.12Z"/><path class="cls-2" d="m109.69,58.4c-.03,6.42-2.42,11.67-5.88,16.53-4.07,5.72-9.03,10.62-14.17,15.35-5,4.6-10.29,8.86-15.41,13.32-.36.32-.62.53-1.11.11-7.98-6.94-16.3-13.49-23.51-21.28-3.94-4.26-7.67-8.69-9.97-14.1-2.83-6.66-3.15-13.32.74-19.71,7.37-12.13,24.84-12.36,32.58-.46.51.78.71.97,1.3.04,4.22-6.56,12.21-10.03,19.49-8.54,8.26,1.69,14.19,7.59,15.65,15.62.2,1.12.4,2.27.29,3.12Z"/></g></g></svg>