<svg xmlns="http://www.w3.org/2000/svg" width="13" height="12" viewBox="0 0 13 12" fill="none">
  <path d="M12.9121 0.595629C12.8351 0.417827 12.7076 0.266571 12.5453 0.160672C12.383 0.0547733 12.1932 -0.00109472 11.9995 1.62526e-05H0.99815C0.804584 0.000397594 0.615287 0.0569339 0.453225 0.162767C0.291163 0.2686 0.163299 0.419181 0.0851449 0.596244C0.00699093 0.773306 -0.0180945 0.96924 0.0129317 1.16028C0.0439579 1.35131 0.129763 1.52924 0.259936 1.67248L0.264937 1.67811L4.49857 6.19801V10.9998C4.49853 11.1808 4.54761 11.3584 4.64058 11.5137C4.73356 11.6689 4.86694 11.7961 5.0265 11.8815C5.18606 11.967 5.36583 12.0075 5.54663 11.9988C5.72743 11.9902 5.90248 11.9326 6.05313 11.8323L8.05337 10.4985C8.19049 10.4072 8.30292 10.2834 8.38067 10.1382C8.45842 9.99298 8.49909 9.8308 8.49905 9.66607V6.19801L12.7333 1.67811L12.7383 1.67248C12.8699 1.5299 12.9565 1.35173 12.9874 1.16022C13.0183 0.968713 12.9921 0.772345 12.9121 0.595629ZM7.63519 5.66115C7.54869 5.75285 7.50002 5.87384 7.49893 5.99989V9.66607L5.49869 10.9998V5.99989C5.49873 5.87293 5.45046 5.75071 5.36367 5.65802L0.99815 0.999995H11.9995L7.63519 5.66115Z" fill="#1A71F6"/>
</svg>
