<svg width="32" height="30" viewBox="0 0 32 30" fill="none" xmlns="http://www.w3.org/2000/svg">
<path d="M15.9995 0.0126953C17.8869 0.0126953 19.669 0.35117 21.3452 1.02832C23.0216 1.70555 24.5093 2.63834 25.8081 3.82617C27.1069 5.01399 28.1727 6.41819 29.0054 8.03906C29.8379 9.65976 30.3433 11.4025 30.521 13.2676L31.7202 26.4346C31.7865 27.2087 31.5548 27.8828 31.0239 28.458C30.493 29.0332 29.841 29.3212 29.0669 29.3213H2.93311C2.15893 29.3213 1.50704 29.0332 0.976074 28.458C0.445144 27.8828 0.212495 27.2087 0.278809 26.4346L1.479 13.2676C1.65666 11.4026 2.16208 9.65975 2.99463 8.03906C3.8273 6.41817 4.89306 5.01399 6.19189 3.82617C7.49076 2.63833 8.97836 1.70555 10.6548 1.02832C12.3309 0.351267 14.1124 0.0127317 15.9995 0.0126953ZM15.9897 7.52637C15.302 8.5247 14.4311 9.29539 13.3774 9.83887C12.3237 10.3824 11.1975 10.6543 9.99951 10.6543C9.28977 10.6543 8.60233 10.5541 7.93701 10.3545C7.27145 10.1548 6.63861 9.86645 6.03955 9.48926L6.02686 9.48145L6.02197 9.49512C5.77722 10.0959 5.59906 10.7135 5.48779 11.3477C5.37657 11.9817 5.32082 12.6436 5.3208 13.333C5.3208 16.2919 6.36078 18.8124 8.44092 20.8926C10.521 22.9725 13.0409 24.0126 15.9995 24.0127C18.9805 24.0127 21.5066 22.9727 23.5757 20.8926C25.6447 18.8124 26.6792 16.2918 26.6792 13.333C26.6792 12.6436 26.6234 11.9817 26.5122 11.3477C26.4009 10.7135 26.2228 10.0959 25.978 9.49512L25.9722 9.48145L25.9595 9.48926C25.3605 9.86636 24.7284 10.1548 24.063 10.3545C23.3975 10.5541 22.7094 10.6543 21.9995 10.6543C20.8017 10.6543 19.6762 10.3823 18.6226 9.83887C17.5689 9.29542 16.698 8.52464 16.0103 7.52637L15.9995 7.51172L15.9897 7.52637ZM11.9995 13.0127C12.463 13.0127 12.8545 13.1724 13.1743 13.4922C13.4941 13.812 13.6538 14.2036 13.6538 14.667C13.6537 15.1302 13.4939 15.5211 13.1743 15.8408C12.8545 16.1606 12.463 16.3213 11.9995 16.3213C11.5362 16.3212 11.1454 16.1606 10.8257 15.8408C10.5059 15.5211 10.3453 15.1303 10.3452 14.667C10.3452 14.2036 10.5059 13.812 10.8257 13.4922C11.1454 13.1726 11.5363 13.0128 11.9995 13.0127ZM19.9995 13.0127C20.463 13.0127 20.8545 13.1724 21.1743 13.4922C21.4941 13.812 21.6538 14.2036 21.6538 14.667C21.6537 15.1302 21.4939 15.5211 21.1743 15.8408C20.8545 16.1606 20.463 16.3213 19.9995 16.3213C19.5362 16.3212 19.1454 16.1606 18.8257 15.8408C18.5059 15.5211 18.3453 15.1303 18.3452 14.667C18.3452 14.2036 18.5059 13.812 18.8257 13.4922C19.1454 13.1726 19.5363 13.0128 19.9995 13.0127Z" fill="#182A4F" stroke="#FFFF0B" stroke-width="0.025"/>
</svg>
