<svg width="25" height="29" viewBox="0 0 25 29" fill="none" xmlns="http://www.w3.org/2000/svg">
<circle cx="12.5" cy="14.5" r="12" fill="#7C5DB0" stroke="white"/>
<path d="M10.1562 18.2969V18.0937C10.1615 17.151 10.25 16.401 10.4219 15.8437C10.599 15.2865 10.849 14.8385 11.1719 14.5C11.4948 14.1562 11.888 13.8411 12.3516 13.5547C12.6693 13.3568 12.9531 13.1406 13.2031 12.9062C13.4583 12.6667 13.6589 12.401 13.8047 12.1094C13.9505 11.8125 14.0234 11.4818 14.0234 11.1172C14.0234 10.7057 13.9271 10.349 13.7344 10.0469C13.5417 9.74479 13.2813 9.51042 12.9531 9.34375C12.6302 9.17708 12.2682 9.09375 11.8672 9.09375C11.4974 9.09375 11.1458 9.17448 10.8125 9.33594C10.4844 9.49219 10.2109 9.73177 9.99219 10.0547C9.77865 10.3724 9.65885 10.776 9.63281 11.2656H6.85156C6.8776 10.276 7.11719 9.44792 7.57031 8.78125C8.02865 8.11458 8.63281 7.61458 9.38281 7.28125C10.138 6.94792 10.9714 6.78125 11.8828 6.78125C12.8776 6.78125 13.7526 6.95573 14.5078 7.30469C15.2682 7.65365 15.8594 8.15104 16.2813 8.79687C16.7083 9.4375 16.9219 10.1979 16.9219 11.0781C16.9219 11.6719 16.8255 12.2031 16.6328 12.6719C16.4453 13.1406 16.1771 13.5573 15.8281 13.9219C15.4792 14.2865 15.0651 14.612 14.5859 14.8984C14.1641 15.1589 13.8177 15.4297 13.5469 15.7109C13.2813 15.9922 13.0833 16.3229 12.9531 16.7031C12.8281 17.0781 12.763 17.5417 12.7578 18.0937V18.2969H10.1562ZM11.5156 23.1719C11.0469 23.1719 10.6432 23.0052 10.3047 22.6719C9.96615 22.3385 9.79688 21.9323 9.79688 21.4531C9.79688 20.9844 9.96615 20.5833 10.3047 20.25C10.6432 19.9167 11.0469 19.75 11.5156 19.75C11.9792 19.75 12.3802 19.9167 12.7188 20.25C13.0625 20.5833 13.2344 20.9844 13.2344 21.4531C13.2344 21.7708 13.1536 22.0599 12.9922 22.3203C12.8359 22.5807 12.6276 22.7891 12.3672 22.9453C12.112 23.0964 11.8281 23.1719 11.5156 23.1719Z" fill="white"/>
</svg>
