<svg width="41" height="37" viewBox="0 0 41 37" fill="none" xmlns="http://www.w3.org/2000/svg">
<path d="M20.4572 36.3316C31.2628 36.3316 40.0224 28.2728 40.0224 18.3316C40.0224 8.39051 31.2628 0.331635 20.4572 0.331635C9.65163 0.331635 0.891983 8.39051 0.891983 18.3316C0.891983 28.2728 9.65163 36.3316 20.4572 36.3316Z" fill="white"/>
<path opacity="0.5" d="M26.855 5.26192L15.8163 4.64899C14.0377 4.54777 12.3385 5.3294 11.3544 6.70147L5.25441 15.1926C4.27034 16.559 4.16032 18.3078 4.95491 19.7699L9.8997 28.8739C10.6943 30.3416 12.2835 31.3032 14.0621 31.4044L25.1008 32.0173C26.8794 32.1185 28.5786 31.3369 29.5627 29.9648L35.6627 21.4737C36.6468 20.1073 36.7568 18.3585 35.9622 16.8964L31.0174 7.79238C30.2228 6.32471 28.6337 5.36314 26.855 5.26192Z" fill="#009058"/>
<path d="M21.3565 4.92089L11.742 7.6088C10.0367 8.08678 8.74089 9.36325 8.33748 10.9603L6.05762 19.9631C5.65422 21.5601 6.20432 23.2358 7.50622 24.3548L14.8409 30.6697C16.1428 31.7887 17.9948 32.188 19.7001 31.71L29.3146 29.0221C31.0199 28.5441 32.3157 27.2677 32.7191 25.6707L34.999 16.6678C35.4024 15.0708 34.8523 13.3951 33.5504 12.2761L26.2157 5.96119C24.9138 4.84217 23.0618 4.44292 21.3565 4.92089Z" fill="#009058"/>
<path d="M24.8933 17.4846C24.7344 17.4733 24.5755 17.4677 24.4166 17.4508C24.3432 17.4452 24.3126 17.4621 24.3065 17.5296C24.2882 17.7714 24.2637 18.0075 24.2576 18.2493C24.2576 18.3506 24.2821 18.4461 24.4166 18.4743C24.4655 18.4855 24.496 18.5249 24.4899 18.5699C24.5021 18.7273 24.4899 18.8848 24.441 19.0366C24.3982 19.1266 24.3738 19.2278 24.3738 19.3234C24.3493 19.5708 24.2882 19.8126 24.2087 20.0488C24.0926 20.3356 24.0376 20.6392 24.0498 20.9429C24.0804 21.3028 24.0743 21.6626 24.0254 22.0169C24.0254 22.0675 23.9948 22.1294 24.0559 22.1631C24.1415 22.2081 24.1721 22.3093 24.1293 22.388C24.0926 22.6186 23.9704 22.8267 23.7748 22.9785C23.7198 23.0235 23.6342 23.0235 23.5853 22.9729C23.5853 22.9729 23.5853 22.9672 23.5792 22.9616C23.5364 22.9054 23.4569 22.8829 23.3897 22.911C23.2491 22.9279 23.1085 22.9223 22.968 22.8941C22.8579 22.8773 22.7846 22.6636 22.8579 22.5792C22.968 22.4387 22.8763 22.3206 22.8029 22.225C22.7479 22.1519 22.6257 22.1912 22.5218 22.2193C22.369 22.2643 22.2039 22.2868 22.045 22.2868C21.7088 22.27 21.3727 22.3262 21.0304 22.2812C20.7614 22.2362 20.4925 22.1687 20.2358 22.0788C19.7285 21.9213 19.2945 21.6177 18.9889 21.2128C18.8728 21.0497 18.7444 20.8866 18.6038 20.7348C18.4755 20.6055 18.3838 20.4593 18.1393 20.4312C17.9193 20.4199 17.7053 20.3693 17.5097 20.2793C17.3814 20.2287 17.2408 20.2006 17.1002 20.195C16.6479 20.1556 16.2567 19.8969 16.0734 19.5202C15.9756 19.3065 15.9511 19.0703 16.0123 18.8454C16.0123 18.6992 16.0306 18.553 16.0856 18.4124C16.1528 18.2381 16.3362 18.1256 16.544 18.1369C16.6907 18.165 16.8374 18.1594 16.978 18.12C17.0147 18.1031 17.0636 18.1312 17.1063 18.1537C17.3692 18.3056 17.6381 18.4461 17.8887 18.6148C18.066 18.7329 18.2065 18.8848 18.3043 19.0647C18.4144 19.1997 18.5183 19.3402 18.6161 19.4865C18.6283 19.5202 18.6711 19.5427 18.7077 19.5314C18.7139 19.5314 18.72 19.5314 18.7261 19.5258C18.885 19.4246 18.9828 19.2615 19.0011 19.0872C19.0317 18.9016 19.0989 18.7273 19.1967 18.5586C19.2395 18.4237 19.2578 18.2831 19.2578 18.1425C19.2578 18.0132 19.1111 17.9457 19.05 17.8332C18.995 17.7264 18.9461 17.6027 18.8055 17.5521C18.7505 17.5239 18.7139 17.4677 18.72 17.4059C18.7077 17.1922 18.506 17.0347 18.2738 17.046C18.231 17.046 18.1882 17.0572 18.1515 17.0685C18.0415 17.1022 17.9193 17.0966 17.8092 17.046C17.5953 16.9785 17.3631 16.9616 17.143 17.001C17.0452 17.0178 16.9413 17.0235 16.8435 17.0178C16.7763 17.0235 16.7152 16.9841 16.7029 16.9279C16.6907 16.8604 16.6846 16.7817 16.7579 16.7423C16.8191 16.7086 16.8985 16.6748 16.8557 16.6074C16.813 16.5399 16.7213 16.5736 16.6479 16.5736C16.6296 16.5736 16.6112 16.5905 16.5868 16.6017C16.489 16.6355 16.4157 16.6186 16.3912 16.5174C16.3668 16.4162 16.3851 16.3374 16.5135 16.3149C16.5318 16.3149 16.5501 16.3149 16.5624 16.3149C17.1613 16.3037 17.7665 16.3262 18.3655 16.3768C19.0317 16.5061 19.7163 16.4668 20.3825 16.568C21.6538 16.7704 22.9496 16.7311 24.221 16.8716C24.6366 16.9166 25.0461 16.8435 25.4617 16.8941C25.7185 16.9223 25.7123 16.9335 25.6451 17.1641C25.6145 17.254 25.5412 17.3271 25.5412 17.434C25.5412 17.5239 25.4495 17.5296 25.3762 17.5239C25.2173 17.5071 25.0583 17.4958 24.8994 17.4902L24.8933 17.4846ZM19.8691 17.1472C19.918 17.1922 19.9607 17.2484 19.9913 17.3103C20.1197 17.6308 20.2236 17.9626 20.2969 18.2943C20.3275 18.5249 20.2664 18.7554 20.1258 18.9522C20.0463 19.0928 19.9118 19.2165 19.918 19.3909C19.9241 19.5202 19.8263 19.6102 19.8018 19.7283C19.7896 19.7732 19.7407 19.7957 19.6918 19.7845C19.5146 19.7282 19.4473 19.8351 19.3801 19.9476C19.3434 20.0094 19.2823 20.0544 19.2089 20.0713C19.1539 20.0881 19.105 20.1163 19.0684 20.1556C19.0317 20.1781 19.0011 20.2062 19.0378 20.2456C19.0928 20.2962 19.0928 20.2343 19.1173 20.2118C19.2151 20.1219 19.3006 20.1387 19.3617 20.2568C19.3801 20.3074 19.4045 20.3524 19.4351 20.3974C19.6612 20.6392 19.918 20.8529 20.1991 21.0441C20.517 21.269 20.8959 21.4152 21.2199 21.6345C21.2504 21.6458 21.281 21.657 21.3177 21.6683C21.5805 21.7751 21.8739 21.7076 22.1428 21.7864C22.3262 21.837 22.4973 21.747 22.6807 21.7526C22.7479 21.7526 22.754 21.6964 22.754 21.6458C22.7663 21.5221 22.7601 21.3927 22.7846 21.269C22.8152 21.1116 22.699 21.1003 22.6073 21.1341C22.2712 21.1959 21.9167 21.1622 21.5988 21.0441C21.4888 21.0216 21.3849 20.9935 21.281 20.9485C21.1282 20.881 21.0793 20.7461 20.9876 20.6392C20.6086 20.2118 20.4986 19.6327 20.6942 19.1153C20.7737 18.8679 20.9693 18.6655 21.226 18.5586C21.5805 18.4293 21.9656 18.3955 22.3384 18.4574C22.5401 18.4462 22.7357 18.4855 22.9068 18.5811C22.9313 18.598 22.968 18.6092 22.9741 18.5755C22.9618 18.4405 23.023 18.3112 23.1391 18.2268C23.1452 18.2268 23.1269 18.1875 23.1208 18.1706C23.0719 18.0244 23.0902 17.867 23.1635 17.732C23.2858 17.5071 23.2124 17.389 22.9435 17.3721C21.9044 17.299 20.8715 17.2484 19.8568 17.1584L19.8691 17.1472ZM22.9863 19.4921C23.0046 19.3571 23.0107 19.2222 23.0046 19.0872C22.9924 18.9635 22.8824 18.8735 22.7479 18.8848C22.5218 18.9129 22.2895 18.9016 22.0633 18.941C21.77 18.9916 21.4521 19.3965 21.5805 19.627C21.6722 19.7957 21.715 19.9869 21.7027 20.1781C21.7027 20.2287 21.7211 20.2793 21.7639 20.3187C21.935 20.5043 22.2223 20.5717 22.4668 20.4818C22.6562 20.4199 22.8029 20.2793 22.8641 20.105C22.9618 19.9138 23.0046 19.7058 22.9863 19.4921ZM17.5464 19.4583C17.3875 19.3402 17.2897 19.1715 17.1002 19.1153C17.0208 19.0928 16.9291 18.986 16.868 19.076C16.8068 19.1659 16.8863 19.2671 16.9535 19.3402C17.0024 19.3909 17.0697 19.419 17.143 19.4302C17.2775 19.4471 17.4119 19.4527 17.5464 19.4583Z" fill="#FCBE2D"/>
<path d="M24.7537 17.0979C24.5948 17.0866 24.4359 17.081 24.277 17.0641C24.2036 17.0585 24.1731 17.0754 24.1669 17.1428C24.1547 17.3846 24.1242 17.6208 24.118 17.8626C24.118 17.9638 24.1425 18.0594 24.277 18.0875C24.3259 18.0988 24.3564 18.1382 24.3503 18.1831C24.3625 18.3406 24.3503 18.498 24.3014 18.6499C24.2586 18.7398 24.2342 18.8411 24.2342 18.9367C24.2036 19.1841 24.1486 19.4259 24.0691 19.6621C23.953 19.9488 23.898 20.2525 23.9102 20.5618C23.9408 20.9217 23.9347 21.2816 23.8919 21.6358C23.8919 21.6864 23.8613 21.7483 23.9225 21.782C24.0019 21.827 24.0386 21.9226 23.9958 22.0013C23.9591 22.2319 23.8369 22.4399 23.6474 22.5918C23.5924 22.6368 23.5068 22.6368 23.4579 22.5861C23.4579 22.5861 23.4579 22.5805 23.4518 22.5749C23.409 22.5187 23.3296 22.4962 23.2623 22.5243C23.1218 22.5412 22.9812 22.5355 22.8406 22.5074C22.7306 22.4905 22.6633 22.2769 22.7306 22.1925C22.8406 22.0519 22.7489 21.9338 22.6756 21.8383C22.6206 21.7651 22.4983 21.8045 22.3944 21.8326C22.2416 21.8776 22.0766 21.9001 21.9176 21.9001C21.5815 21.8832 21.2453 21.9395 20.903 21.9001C20.6341 21.8551 20.3651 21.7876 20.1084 21.6977C19.6011 21.5402 19.1671 21.2366 18.8615 20.8317C18.7454 20.6686 18.617 20.5055 18.4765 20.3537C18.3481 20.2244 18.2564 20.0782 18.0119 20.0501C17.7919 20.0388 17.578 19.9882 17.3824 19.8982C17.254 19.8476 17.1134 19.8195 16.9729 19.8139C16.5206 19.7745 16.1294 19.5159 15.946 19.1391C15.8482 18.9254 15.8238 18.6892 15.8849 18.4643C15.8849 18.3181 15.9032 18.1719 15.9582 18.0313C16.0255 17.857 16.2088 17.7445 16.4166 17.7558C16.5633 17.7839 16.71 17.7783 16.8506 17.7389C16.8873 17.722 16.9362 17.7502 16.979 17.7726C17.2418 17.9245 17.5107 18.0651 17.7613 18.2281C17.9325 18.3462 18.0792 18.498 18.177 18.678C18.287 18.8129 18.3909 18.9535 18.4887 19.0997C18.5009 19.1335 18.5376 19.156 18.5804 19.1447C18.5865 19.1447 18.5926 19.1447 18.5987 19.1391C18.7576 19.0379 18.8554 18.8748 18.8738 18.7005C18.9043 18.5149 18.9716 18.3406 19.0694 18.1719C19.1121 18.0369 19.1366 17.8964 19.1305 17.7558C19.1305 17.6264 18.9838 17.559 18.9227 17.4465C18.8676 17.3453 18.8188 17.2159 18.6782 17.1653C18.6232 17.1372 18.5865 17.081 18.5926 17.0191C18.5804 16.8054 18.3787 16.648 18.1525 16.6592C18.1097 16.6592 18.0669 16.6705 18.0303 16.6817C17.9203 16.7155 17.798 16.7099 17.6941 16.6592C17.4802 16.5918 17.2479 16.5749 17.0218 16.6143C16.924 16.6311 16.8201 16.6368 16.7223 16.6311C16.655 16.6368 16.5939 16.5974 16.5817 16.5412C16.5511 16.4737 16.5817 16.4006 16.6367 16.3556C16.6978 16.3218 16.7773 16.2881 16.7345 16.2206C16.6917 16.1532 16.6 16.1869 16.5328 16.1869C16.5144 16.1869 16.4961 16.2038 16.4717 16.215C16.3739 16.2487 16.3005 16.2319 16.2761 16.1307C16.2516 16.0294 16.27 15.9507 16.3983 15.9282C16.4166 15.9282 16.435 15.9282 16.4472 15.9282C17.0462 15.917 17.6513 15.9395 18.2503 15.9901C18.9165 16.1194 19.6011 16.0801 20.2673 16.1813C21.5387 16.3837 22.8345 16.3443 24.1058 16.4849C24.5215 16.5299 24.931 16.4568 25.3466 16.5074C25.6033 16.5355 25.5972 16.5468 25.53 16.7773C25.4994 16.8673 25.4261 16.9404 25.4261 17.0472C25.4261 17.1372 25.3344 17.1428 25.2549 17.1372L24.7721 17.1035L24.7537 17.0979ZM19.7356 16.7605C19.7845 16.8054 19.8273 16.8617 19.8578 16.9235C19.9862 17.2441 20.0901 17.5758 20.1634 17.9076C20.194 18.1382 20.1329 18.3687 19.9923 18.5655C19.9128 18.7061 19.7784 18.8298 19.7845 19.0041C19.7906 19.1335 19.6928 19.2234 19.6683 19.3415C19.6561 19.3865 19.6072 19.409 19.5583 19.3978C19.3811 19.3415 19.3138 19.4484 19.2466 19.5608C19.2099 19.6227 19.1488 19.6677 19.0755 19.6845C19.0205 19.7014 18.9716 19.7295 18.9349 19.7689C18.8982 19.7914 18.8676 19.8195 18.9043 19.8589C18.9593 19.9095 18.9593 19.8476 18.9838 19.8251C19.0816 19.7352 19.1671 19.752 19.2283 19.8701C19.2466 19.9207 19.2711 19.9657 19.3016 20.0107C19.5278 20.2525 19.7845 20.4662 20.0656 20.6574C20.3835 20.8823 20.7624 21.0285 21.0864 21.2478C21.1169 21.2591 21.1475 21.2703 21.1842 21.2815C21.447 21.3884 21.7404 21.3209 22.0093 21.3996C22.1927 21.4502 22.3638 21.3603 22.5472 21.3659C22.6144 21.3659 22.6206 21.3097 22.6206 21.2591C22.6328 21.1353 22.6267 21.006 22.6511 20.8823C22.6817 20.7248 22.5655 20.7136 22.4739 20.7473C22.1377 20.8092 21.7832 20.7755 21.4653 20.6574C21.3553 20.6349 21.2514 20.6068 21.1475 20.5618C20.9947 20.4943 20.9458 20.3593 20.8541 20.2525C20.4752 19.8251 20.3651 19.2459 20.5607 18.7286C20.6402 18.4812 20.8358 18.2787 21.0925 18.1719C21.447 18.0426 21.8321 18.0088 22.2049 18.0707C22.4066 18.0594 22.6022 18.0988 22.7734 18.1944C22.7917 18.2113 22.8345 18.2225 22.8406 18.1888C22.8284 18.0538 22.8895 17.9245 23.0056 17.8401C23.0056 17.8401 22.9934 17.8008 22.9873 17.7839C22.9384 17.6377 22.9567 17.4802 23.0301 17.3453C23.1523 17.1204 23.079 17.0023 22.81 16.9854C21.771 16.9123 20.738 16.8617 19.7234 16.7773L19.7356 16.7605ZM22.8528 19.111C22.8712 18.976 22.8773 18.8411 22.8712 18.7061C22.8589 18.588 22.7489 18.4924 22.6144 18.5037C22.3883 18.5374 22.156 18.5205 21.9299 18.5599C21.6365 18.6105 21.3187 19.0154 21.447 19.2459C21.5387 19.4146 21.5815 19.6058 21.5754 19.797C21.5754 19.8476 21.5937 19.8982 21.6365 19.9376C21.8076 20.1232 22.0949 20.1906 22.3394 20.1007C22.5289 20.0388 22.6756 19.8982 22.7367 19.7239C22.8345 19.5327 22.8773 19.3247 22.8589 19.1166L22.8528 19.111ZM17.4068 19.0716C17.2479 18.9592 17.1501 18.7848 16.9606 18.7286C16.8812 18.7061 16.7895 18.5993 16.7284 18.6892C16.6672 18.7792 16.7467 18.8804 16.8139 18.9535C16.8628 19.0041 16.9301 19.0323 17.0034 19.0435C17.1379 19.0604 17.2724 19.0716 17.4068 19.0716Z" fill="#0A3655"/>
<path d="M31.8201 23.1043C31.8384 23.0256 31.8446 22.9468 31.8323 22.8681C31.7406 23.0143 31.5573 22.93 31.4595 23.0368C31.435 23.0649 31.3739 23.0424 31.3678 22.9862C31.3678 22.9468 31.3861 22.9018 31.3556 22.8625C31.3434 22.8625 31.3311 22.8625 31.325 22.8681C31.2639 22.9075 31.2089 23.0087 31.1294 22.9525C31.05 22.8962 31.0866 22.7894 31.1233 22.7163C31.2272 22.4351 31.2394 22.1315 31.1539 21.8447C31.1233 21.7322 31.1355 21.6141 31.1783 21.5017C31.2578 21.2711 31.2761 21.0237 31.2211 20.7819C31.215 20.7538 31.2089 20.7313 31.2089 20.7032C31.2211 20.377 31.1661 20.0509 31.1905 19.7247C31.1967 19.4042 31.1661 19.0837 31.0989 18.7688C31.0439 18.4539 31.0683 18.1333 31.1661 17.8241C31.2272 17.6441 31.27 17.4642 31.325 17.2786C30.7871 17.1774 30.237 17.1268 29.6808 17.1212C29.6931 17.228 29.7481 17.3236 29.8397 17.3967C30.0659 17.6891 30.2126 18.0321 30.2615 18.3864C30.2798 18.4651 30.292 18.5213 30.4143 18.5551C30.6099 18.6057 30.5854 18.8025 30.6282 18.9487C30.6832 19.3086 30.6832 19.6741 30.6282 20.034C30.616 20.1127 30.6282 20.1914 30.6649 20.2645C30.7016 20.3264 30.6893 20.4051 30.6404 20.4557C30.5243 20.5795 30.4326 20.7144 30.3593 20.8606C30.3409 20.8887 30.2982 20.9225 30.3226 20.9562C30.3593 21.0068 30.4021 20.9337 30.451 20.9562C30.396 21.0293 30.2921 21.0574 30.3532 21.198C30.3898 21.2824 30.2493 21.4004 30.1209 21.4511C30.0476 21.4792 29.9253 21.4848 29.9987 21.6085C29.9987 21.6141 29.9864 21.6366 29.9742 21.6479C29.7358 21.8053 29.6319 22.0921 29.3324 22.1821C29.2652 22.2046 29.2224 22.2664 29.1613 22.3114C29.0452 22.407 28.9474 22.5251 28.7579 22.5082C28.5745 22.4914 28.3911 22.5026 28.2078 22.5363C27.9327 22.5813 27.7616 22.3958 27.6149 22.2158C27.5416 22.1202 27.4988 22.0977 27.4132 22.1877C27.3093 22.0584 27.2115 21.9234 27.1259 21.7828C27.0159 21.5916 26.9364 21.3892 26.8386 21.1868C26.8386 21.1868 26.8386 21.1755 26.8386 21.1699C27.022 20.9168 26.8264 20.6357 26.9242 20.3714C26.9976 20.1802 26.9976 19.9778 27.2971 19.9215C27.4499 19.8934 27.5966 19.7866 27.7616 19.7528C27.8044 19.7416 27.8594 19.7135 27.8899 19.7303C28.1161 19.7641 28.3423 19.8203 28.5562 19.8934C28.9412 20.0565 29.2835 20.2927 29.5647 20.5851C29.6808 20.3601 29.8153 20.169 29.6992 19.9272C29.6869 19.9047 29.6869 19.8765 29.6869 19.8484C29.6808 19.3873 29.5708 18.9318 29.3569 18.5157C29.2407 18.3133 29.1124 18.1221 28.9718 17.9309C28.8557 17.7285 28.6906 17.5541 28.4828 17.4304C28.3728 17.3461 28.22 17.3236 28.0855 17.3742C27.9388 17.4248 27.8594 17.3854 27.8716 17.2392C27.8777 17.1436 27.8349 17.138 27.7555 17.1324C27.6455 17.1268 27.5416 17.1324 27.4376 17.1549C27.3093 17.1774 27.1626 17.2224 27.0709 17.0874C27.0342 17.0368 26.9976 17.0818 26.967 17.0874C26.747 17.1155 26.5208 17.0481 26.3619 16.9018C26.2763 16.84 26.3558 16.7163 26.4841 16.6432C26.7959 16.5026 27.1443 16.4464 27.4927 16.4914C29.0513 16.5307 30.6099 16.5869 32.1624 16.6825C32.3947 16.7163 32.633 16.7275 32.8714 16.7275C32.9875 16.7275 33.1037 16.7613 33.1954 16.8344C33.3665 16.9131 33.5621 16.93 33.7393 16.8737C33.9166 16.8287 34.045 16.9356 34.1916 16.9581C34.2405 16.9637 34.2467 17.0312 34.2344 17.0818C34.2222 17.138 34.1733 17.1718 34.1122 17.1718C34.0144 17.1718 33.9166 17.1718 33.8249 17.1549C33.6782 17.1155 33.5132 17.1661 33.4276 17.2842C33.3665 17.3573 33.2626 17.3967 33.1587 17.3742C33.1281 17.3742 33.1037 17.3742 33.0731 17.3742C32.8775 17.363 32.7777 17.4511 32.7736 17.6385C32.7736 17.6385 32.7736 17.6891 32.7553 17.7172C32.5352 18.094 32.4436 18.527 32.4924 18.9487C32.4924 19.0556 32.4863 19.1568 32.4741 19.2636C32.4497 19.4548 32.4741 19.646 32.5352 19.8316C32.5352 19.9946 32.5536 20.1633 32.5902 20.3264C32.6208 20.3939 32.523 20.5232 32.5108 20.6301C32.4924 20.7819 32.5597 20.9281 32.5536 21.0743C32.5475 21.3217 32.4313 21.5579 32.4252 21.8053C32.4252 21.8391 32.3885 21.8728 32.4069 21.9065C32.5597 22.2102 32.3519 22.4689 32.2663 22.7332C32.2113 22.9018 31.9851 22.9918 31.8262 23.1099L31.8201 23.1043ZM28.4523 21.3555C28.6418 21.2711 28.8557 21.3217 29.039 21.2486C29.1246 21.2149 29.1368 21.1811 29.0757 21.1137C28.9657 20.9675 28.819 20.8494 28.6418 20.7763C28.5806 20.7594 28.5317 20.7144 28.5073 20.6582C28.4706 20.4332 28.2506 20.4276 28.0855 20.3601C28.055 20.3433 27.9939 20.3264 28 20.3883C28.0183 20.5288 27.9022 20.5513 27.8044 20.5851C27.7188 20.6132 27.6455 20.675 27.6638 20.7369C27.7066 20.8831 27.7799 21.0181 27.8777 21.1362C28.0305 21.3105 28.2811 21.2205 28.4462 21.3498L28.4523 21.3555ZM29.2896 17.4079C29.2896 17.3348 29.3447 17.2505 29.3324 17.2055C29.308 17.1212 29.2041 17.1605 29.0941 17.1718C29.198 17.2392 29.2224 17.3292 29.2896 17.4079ZM31.6245 17.2899C31.6979 17.3517 31.6306 17.4473 31.7406 17.4473C31.7957 17.4473 31.8507 17.4136 31.8323 17.3517C31.8018 17.2505 31.7223 17.3067 31.6245 17.2899Z" fill="#FCBE2D"/>
<path d="M31.3592 22.7623C31.3775 22.6835 31.3836 22.6048 31.3714 22.5261C31.2797 22.6723 31.0963 22.5879 30.9985 22.6948C30.9741 22.7229 30.913 22.7004 30.9069 22.6442C30.9069 22.6048 30.9252 22.5598 30.8946 22.5205C30.8824 22.5205 30.8702 22.5205 30.8641 22.5261C30.8029 22.5598 30.7479 22.6667 30.6685 22.6104C30.589 22.5542 30.6257 22.4474 30.6624 22.3742C30.7663 22.0931 30.7785 21.7894 30.6929 21.5026C30.6624 21.3902 30.6746 21.2721 30.7174 21.1596C30.7968 20.9291 30.8152 20.6817 30.7602 20.4399C30.754 20.4117 30.7479 20.3892 30.7479 20.3611C30.7602 20.035 30.7052 19.7088 30.7296 19.3827C30.7296 19.0622 30.7052 18.7416 30.6379 18.4267C30.5829 18.1118 30.6074 17.7913 30.7052 17.482C30.7663 17.3021 30.8091 17.1221 30.8641 16.9366C30.3201 16.8354 29.77 16.7847 29.2199 16.7847C29.2321 16.8916 29.2871 16.9872 29.3788 17.0603C29.605 17.3527 29.7516 17.6957 29.8005 18.05C29.8189 18.1287 29.8311 18.1849 29.9533 18.2187C30.1489 18.2693 30.1245 18.4661 30.1673 18.6123C30.2223 18.9722 30.2223 19.3377 30.1673 19.6976C30.1551 19.7763 30.1673 19.855 30.2039 19.9281C30.2406 19.99 30.2284 20.0687 30.1795 20.1193C30.0634 20.243 29.9717 20.378 29.8983 20.5242C29.88 20.5523 29.8372 20.5861 29.8617 20.6198C29.8983 20.6704 29.9411 20.5973 29.99 20.6198C29.935 20.6929 29.8311 20.721 29.8861 20.8616C29.9228 20.9459 29.7822 21.064 29.6539 21.1146C29.5805 21.1428 29.4583 21.1484 29.5316 21.2721C29.5316 21.2777 29.5194 21.3002 29.5072 21.3115C29.2688 21.4689 29.1649 21.7557 28.8654 21.8513C28.7981 21.8738 28.7554 21.9356 28.6942 21.9806C28.5781 22.0706 28.4803 22.1943 28.2908 22.1718C28.1075 22.1549 27.9241 22.1718 27.7407 22.1999C27.4657 22.2449 27.2945 22.0593 27.1478 21.8794C27.0745 21.7894 27.0317 21.7613 26.9461 21.8513C26.8422 21.722 26.7444 21.587 26.6589 21.4464C26.5488 21.2552 26.4694 21.0472 26.3716 20.8503C26.3716 20.8503 26.3716 20.8391 26.3716 20.8335C26.555 20.5804 26.3594 20.2993 26.4572 20.035C26.5305 19.8438 26.5305 19.6414 26.83 19.5851C26.9828 19.557 27.1295 19.4502 27.2945 19.4164C27.3373 19.4052 27.3923 19.3771 27.4229 19.3939C27.649 19.4277 27.8752 19.4839 28.0891 19.557C28.4742 19.7201 28.8165 19.9563 29.0976 20.2487C29.2138 20.0237 29.3482 19.8325 29.2321 19.5907C29.2199 19.5682 29.2199 19.5401 29.2199 19.512C29.2199 19.0509 29.1038 18.5954 28.8898 18.1793C28.7737 17.9769 28.6453 17.7857 28.5048 17.5945C28.3886 17.3921 28.2236 17.2177 28.0158 17.0884C27.9058 17.0041 27.7529 16.9816 27.6185 17.0322C27.4718 17.0828 27.3923 17.0434 27.4046 16.8972C27.4107 16.8016 27.3679 16.796 27.2884 16.7904C27.1784 16.7847 27.0745 16.7904 26.9706 16.8072C26.8422 16.8297 26.6955 16.8747 26.6039 16.7398C26.5672 16.6891 26.5366 16.7341 26.4999 16.7398C26.2799 16.7679 26.0538 16.7004 25.8948 16.5542C25.8093 16.4923 25.8887 16.3686 26.0171 16.2955C26.3288 16.1549 26.6772 16.0987 27.0256 16.1437C28.5842 16.1831 30.1428 16.2393 31.6953 16.3349C31.9276 16.3686 32.166 16.3799 32.4044 16.3742C32.5205 16.3742 32.6366 16.408 32.7283 16.4811C32.8933 16.5598 33.095 16.5767 33.2723 16.5205C33.4495 16.4755 33.5718 16.5823 33.7246 16.6048C33.7735 16.6104 33.7796 16.6779 33.7674 16.7285C33.7552 16.7847 33.7063 16.8185 33.6451 16.8185C33.5473 16.8185 33.4495 16.8185 33.3579 16.8016C33.2112 16.7623 33.0461 16.8185 32.9606 16.9309C32.8994 17.0041 32.7955 17.0434 32.6916 17.0209C32.6611 17.0209 32.6366 17.0209 32.6061 17.0209C32.4105 17.0097 32.3106 17.0978 32.3066 17.2852C32.3066 17.2852 32.3066 17.3358 32.2882 17.3639C32.0682 17.7407 31.9765 18.1737 32.0254 18.6011C32.0254 18.7079 32.0193 18.8091 32.0071 18.916C31.9826 19.1071 32.0071 19.2983 32.0682 19.4839C32.0682 19.647 32.0865 19.8157 32.1232 19.9787C32.1537 20.0462 32.056 20.1756 32.0437 20.2824C32.0254 20.4399 32.0926 20.5804 32.0865 20.7266C32.0804 20.9741 31.9643 21.2102 31.9582 21.4577C31.9582 21.4914 31.9154 21.5251 31.9398 21.5589C32.0926 21.8625 31.8848 22.1212 31.7992 22.3911C31.7442 22.5598 31.5181 22.6498 31.3653 22.7679L31.3592 22.7623ZM27.9852 21.0134C28.1747 20.9291 28.3886 20.9797 28.572 20.9066C28.6576 20.8728 28.6698 20.8391 28.6087 20.7716C28.4986 20.6254 28.3519 20.5073 28.1747 20.4342C28.1136 20.4174 28.0647 20.3724 28.0402 20.3161C28.0035 20.0912 27.7835 20.0856 27.6246 20.0181C27.5879 20.0012 27.5329 19.9844 27.539 20.0462C27.5574 20.1868 27.4412 20.2093 27.3434 20.243C27.2579 20.2712 27.1845 20.333 27.2028 20.3949C27.2456 20.5411 27.319 20.676 27.4168 20.7941C27.5696 20.9684 27.8202 20.8785 27.9852 21.0078V21.0134ZM28.8287 17.0659C28.8287 16.9928 28.8837 16.9085 28.8715 16.8635C28.847 16.7791 28.7431 16.8185 28.6331 16.8297C28.737 16.8972 28.7615 16.9872 28.8287 17.0659ZM31.1636 16.9478C31.2369 17.0097 31.1697 17.1053 31.2797 17.1053C31.3347 17.1053 31.3897 17.0715 31.3714 17.0097C31.3408 16.9085 31.2614 16.9647 31.1575 16.9478H31.1636Z" fill="#BC2033"/>
<path d="M11.2591 20.6602C11.1796 20.7558 11.1368 20.8739 11.1368 20.9976C11.0574 21.3913 10.7151 21.7005 10.2811 21.7568C10.0611 21.7849 9.84104 21.8018 9.621 21.8355C9.22982 21.8917 8.82641 21.8074 8.49635 21.6049C8.38633 21.5262 8.25798 21.4756 8.11739 21.4531C8.00737 21.4306 7.90958 21.3575 7.86068 21.2619C7.66509 20.9751 7.42671 20.7221 7.15166 20.4915C7.08443 20.4072 7.02331 20.3116 6.98052 20.2104C6.96218 20.171 6.98052 20.1204 7.01719 20.0979C7.13944 20.0192 7.1211 19.9067 7.1211 19.7886C7.10888 19.5187 7.17611 19.2488 7.31669 19.0126C7.51228 18.7652 7.72621 18.529 7.95236 18.3041C8.03182 18.2366 8.12962 18.1916 8.23353 18.1748C8.49635 18.0904 8.76529 18.0398 9.04034 18.0173C9.16258 18.0173 9.27872 18.0004 9.39485 17.978C9.73102 17.9498 10.0672 17.9667 10.4034 18.0342C10.5501 18.0511 10.5378 17.9948 10.5256 17.9273C10.5439 17.6968 10.5378 17.4719 10.5134 17.2413C10.495 17.1795 10.5073 17.112 10.5501 17.067C10.5012 17.0389 10.44 17.0389 10.3973 17.067C10.1711 17.157 9.92661 17.2019 9.68212 17.1907C9.44375 17.1963 9.23593 17.3144 9.00367 17.3313C8.90587 17.3369 8.80196 17.3706 8.72862 17.2638C8.70417 17.2244 8.64304 17.2413 8.60026 17.2469C8.44134 17.2638 8.28242 17.2807 8.12351 17.2975C8.03794 17.3032 7.94625 17.3257 7.90958 17.2244C7.87291 17.1232 7.87291 17.0389 8.01349 16.9939C7.95848 16.9658 7.86068 16.977 7.90958 16.9039C7.95848 16.8308 8.00126 16.6959 8.14184 16.7408C8.28854 16.7914 8.45357 16.769 8.58804 16.6902C8.74084 16.6452 8.89976 16.6227 9.05256 16.634C9.48653 16.6003 9.91439 16.5047 10.3422 16.4372C10.8923 16.3528 11.4486 16.3135 11.9987 16.2404C12.1026 16.2291 12.1515 16.3022 12.2554 16.291C12.7688 16.2235 13.2761 16.1054 13.7956 16.0548C13.9118 16.0436 14.0035 15.9536 14.1379 15.9705C14.1624 16.0492 14.0585 16.0773 14.0462 16.156C14.1318 16.1673 14.2174 16.156 14.303 16.1448C14.3824 16.1448 14.468 16.1335 14.4986 16.2291C14.5291 16.3247 14.4619 16.3472 14.3946 16.3978C14.2846 16.4597 14.1563 16.4934 14.0218 16.4878C13.9668 16.499 13.9057 16.4822 13.924 16.5721C13.9423 16.6621 13.869 16.6959 13.7895 16.7015C13.3739 16.7465 12.9522 16.8139 12.5365 16.8196C12.3165 16.8196 12.0964 16.8196 11.8764 16.8364C11.7175 16.8477 11.583 16.9489 11.418 16.9545C11.3446 16.9545 11.363 17.0276 11.4119 17.0557C11.5219 17.1232 11.4975 17.2076 11.5036 17.32C11.4791 17.5956 11.5219 17.8711 11.6319 18.1298C11.7419 18.3322 11.7419 18.3322 11.9742 18.231C12.1942 18.141 12.4021 18.0454 12.6099 17.933C12.7321 17.888 12.8605 17.8486 12.9949 17.8205C13.5267 17.5843 14.1624 17.6462 14.6208 17.9892C14.8347 18.1804 14.9998 18.4166 15.0853 18.6809C15.1709 18.8383 15.2137 19.0126 15.2137 19.1926C15.2137 19.3613 15.177 19.53 15.1648 19.6987C15.1098 20.0417 14.9447 20.3678 14.688 20.6209C14.468 20.8795 14.2052 21.1101 13.9057 21.2957C13.8873 21.3069 13.869 21.3238 13.8568 21.335C13.7712 21.4138 13.6245 21.3913 13.6184 21.29C13.6123 21.082 13.5145 21.2169 13.4473 21.2394C13.4228 21.2507 13.3984 21.2675 13.3739 21.2844C13.3739 21.1438 13.4473 21.0089 13.5573 20.9133C13.8629 20.6096 14.144 20.2835 14.3885 19.9405C14.4558 19.8505 14.5169 19.7549 14.5658 19.6593C14.6086 19.5918 14.6452 19.5075 14.5352 19.4456C14.4741 19.4119 14.4741 19.3388 14.468 19.2769C14.4619 19.0183 14.2724 18.7877 14.0035 18.709C13.9179 18.6752 13.8568 18.6021 13.8445 18.5178C13.7956 18.3772 13.6734 18.3884 13.5756 18.4053C13.4717 18.4278 13.3678 18.4391 13.2578 18.4503C13.0989 18.4615 12.9522 18.4784 12.8605 18.6359C12.8055 18.7202 12.7138 18.7708 12.6099 18.7765C12.5182 18.7765 12.4326 18.8158 12.3715 18.8777C12.2309 19.0239 12.0292 19.097 11.8886 19.2376C11.8642 19.2657 11.852 19.2994 11.8581 19.3332C11.8458 19.4962 11.8581 19.6593 11.8886 19.8168C11.9131 20.0192 11.962 20.216 12.0414 20.4016C12.0964 20.5478 12.1209 20.7052 12.1209 20.8627C12.1331 20.9302 12.1209 20.9976 12.2187 21.0257C12.2615 21.0426 12.292 21.082 12.2798 21.127C12.237 21.3463 12.2187 21.5656 12.2187 21.7849C12.1148 21.9086 11.9742 21.9986 11.8092 22.0379C11.7114 21.9873 11.638 21.8974 11.6197 21.7961C11.6014 21.7343 11.5891 21.7005 11.5036 21.6949C11.3935 21.6893 11.3813 21.5993 11.3752 21.515C11.3446 21.29 11.3202 21.0651 11.2896 20.8458C11.3019 20.784 11.2835 20.7165 11.2407 20.6659L11.2591 20.6602ZM9.84715 18.6471C9.63934 18.6584 9.43763 18.6977 9.24816 18.7708C8.85697 18.8327 8.53303 19.0745 8.38022 19.4063C8.25186 19.7155 8.21519 20.0473 8.28854 20.3735C8.37411 20.7558 8.69806 20.9077 8.94254 21.1382C8.95477 21.1495 8.97311 21.1438 8.99144 21.1495C9.25427 21.2338 9.52932 21.2957 9.80437 21.335C10.0733 21.38 10.2567 21.29 10.3056 21.0482C10.3789 20.7727 10.3911 20.4803 10.3422 20.1991C10.33 20.0417 10.3422 19.8899 10.3789 19.738C10.385 19.53 10.6662 19.3781 10.5195 19.1363C10.5195 19.1363 10.5195 19.1251 10.5256 19.1195C10.5439 18.9564 10.495 18.7933 10.385 18.664C10.2933 18.5403 10.1405 18.619 10.0183 18.619C9.97551 18.619 9.92661 18.6302 9.84104 18.6359L9.84715 18.6471Z" fill="#FCBE2D"/>
<path d="M11.0935 20.3438C11.014 20.4394 10.9712 20.5575 10.9712 20.6812C10.8918 21.0749 10.5495 21.3841 10.1155 21.4404C9.89549 21.4685 9.67545 21.4853 9.45541 21.5191C9.06423 21.5753 8.66082 21.491 8.33076 21.2885C8.22074 21.2098 8.09239 21.1592 7.95181 21.1367C7.84179 21.1142 7.74399 21.0411 7.69509 20.9455C7.4995 20.6644 7.26113 20.4057 6.98608 20.1751C6.91884 20.0908 6.85772 19.9952 6.81493 19.894C6.7966 19.8546 6.81493 19.804 6.85161 19.7815C6.97385 19.7028 6.96163 19.5903 6.95551 19.4722C6.94329 19.2023 7.01052 18.9324 7.15111 18.6962C7.3467 18.4488 7.56062 18.2126 7.78678 17.9877C7.86623 17.9202 7.96403 17.8752 8.06794 17.8584C8.33076 17.774 8.5997 17.7234 8.87475 17.7009C8.997 17.7009 9.11313 17.684 9.22926 17.6615C9.56543 17.6334 9.90772 17.6503 10.2378 17.7178C10.3845 17.7346 10.3722 17.6784 10.36 17.6109C10.3784 17.3804 10.3722 17.1555 10.3478 16.9249C10.3295 16.863 10.3417 16.7956 10.3845 16.7506C10.3356 16.7225 10.2745 16.7225 10.2317 16.7506C10.0055 16.8406 9.76102 16.8855 9.51653 16.8743C9.27816 16.8799 9.07034 16.998 8.83808 17.0149C8.74028 17.0205 8.63637 17.0542 8.56303 16.9474C8.53858 16.908 8.47746 16.9249 8.43467 16.9305C8.27575 16.9474 8.11684 16.9643 7.95792 16.9811C7.87235 16.9868 7.78066 17.0092 7.74399 16.908C7.70732 16.8068 7.70732 16.7225 7.8479 16.6775C7.799 16.6494 7.69509 16.6606 7.74399 16.5875C7.79289 16.5144 7.83567 16.3794 7.97626 16.4244C8.12295 16.475 8.28798 16.4525 8.42245 16.3738C8.57525 16.3288 8.73417 16.3063 8.88698 16.3176C9.32094 16.2839 9.7488 16.1883 10.1767 16.1208C10.7268 16.0364 11.283 15.9971 11.8331 15.924C11.937 15.9127 11.9859 15.9858 12.0898 15.9746C12.6032 15.9071 13.1105 15.789 13.6301 15.7384C13.7462 15.7271 13.8379 15.6372 13.9723 15.654C13.9968 15.7328 13.8929 15.7609 13.8807 15.8396C13.9662 15.8509 14.0518 15.8396 14.1374 15.8284C14.2168 15.8284 14.3024 15.8171 14.333 15.9127C14.3635 16.0083 14.2963 16.0308 14.2291 16.0814C14.119 16.1433 13.9907 16.177 13.8562 16.1714C13.8012 16.1826 13.7401 16.1658 13.7584 16.2557C13.7768 16.3457 13.7034 16.3794 13.6239 16.3851C13.2022 16.4301 12.7866 16.4975 12.3709 16.5032C12.1509 16.5032 11.9309 16.5032 11.7108 16.52C11.5519 16.5313 11.4235 16.6325 11.2524 16.6381C11.1791 16.6381 11.1974 16.7112 11.2463 16.7393C11.3563 16.8068 11.3319 16.8912 11.338 17.0036C11.3135 17.2792 11.3563 17.5547 11.4663 17.8134C11.5702 18.0158 11.5764 18.0158 11.8086 17.9146C12.0287 17.8246 12.2365 17.729 12.4443 17.6166C12.5665 17.5716 12.6949 17.5322 12.8294 17.5041C13.3611 17.2679 13.9968 17.3298 14.4552 17.6728C14.6691 17.864 14.8281 18.1002 14.9197 18.3645C15.0053 18.5219 15.0481 18.6962 15.0542 18.8762C15.0542 19.0449 15.0175 19.2136 15.0053 19.3823C14.9503 19.7253 14.7853 20.0514 14.5286 20.3045C14.3085 20.5631 14.0457 20.7937 13.7462 20.9793C13.7279 20.9905 13.7095 21.0074 13.6973 21.0186C13.6117 21.0973 13.465 21.0749 13.4589 20.9736C13.4528 20.7656 13.355 20.9005 13.2878 20.923C13.2633 20.9343 13.2389 20.9511 13.2144 20.968C13.2144 20.8274 13.2878 20.6925 13.3978 20.5969C13.7034 20.2932 13.9846 19.9671 14.2291 19.6241C14.2963 19.5341 14.3574 19.4385 14.4063 19.3429C14.4491 19.2754 14.4858 19.1911 14.3758 19.1292C14.3146 19.0955 14.3146 19.0224 14.3085 18.9605C14.3024 18.7018 14.1129 18.4713 13.844 18.3926C13.7584 18.3588 13.6973 18.2857 13.679 18.2014C13.6301 18.0608 13.5078 18.072 13.41 18.0889C13.3061 18.1114 13.2022 18.1227 13.0922 18.1339C12.9333 18.1451 12.7866 18.162 12.6949 18.3195C12.6399 18.4038 12.5482 18.4544 12.4443 18.46C12.3526 18.46 12.267 18.4994 12.2059 18.5613C12.0653 18.7075 11.8636 18.7806 11.723 18.9212C11.6986 18.9493 11.6864 18.983 11.6925 19.0167C11.6803 19.1798 11.6925 19.3429 11.723 19.5003C11.7414 19.7028 11.7964 19.8996 11.8697 20.0852C11.9247 20.2314 11.9553 20.3888 11.9492 20.5463C11.9614 20.6137 11.9492 20.6812 12.047 20.7093C12.0898 20.7262 12.1203 20.7656 12.1081 20.8106C12.0653 21.0299 12.047 21.2492 12.047 21.4685C11.9431 21.5922 11.8025 21.6822 11.6375 21.7215C11.5397 21.6709 11.4724 21.5809 11.448 21.4797C11.4297 21.4179 11.4174 21.3841 11.3319 21.3785C11.2218 21.3729 11.2096 21.2829 11.2035 21.1986C11.1729 20.9736 11.1485 20.7487 11.1179 20.5294C11.124 20.4675 11.1118 20.4001 11.069 20.3495L11.0935 20.3438ZM9.68156 18.3307C9.47375 18.342 9.27205 18.3813 9.08257 18.4544C8.69138 18.5163 8.36744 18.7581 8.21463 19.0898C8.08627 19.3991 8.05571 19.7309 8.12295 20.057C8.20852 20.4394 8.53247 20.5913 8.77696 20.8218C8.78918 20.8331 8.80752 20.8274 8.82585 20.8331C9.08868 20.9174 9.36373 20.9793 9.63878 21.0186C9.90772 21.0636 10.0911 20.9736 10.14 20.7318C10.2133 20.4563 10.2256 20.1639 10.1767 19.8827C10.1644 19.7253 10.1767 19.5734 10.2133 19.4216C10.2194 19.2136 10.5006 19.0617 10.3539 18.8199C10.3539 18.8199 10.3539 18.8087 10.3539 18.8031C10.3722 18.64 10.3233 18.4769 10.2133 18.3476C10.1216 18.2239 9.96884 18.3026 9.84659 18.3026C9.80381 18.3026 9.75491 18.3138 9.66934 18.3195L9.68156 18.3307Z" fill="#F79B36"/>
</svg>
