<svg width="51" height="46" viewBox="0 0 51 46" fill="none" xmlns="http://www.w3.org/2000/svg">
<path d="M43.469 44.8563C33.5 44.6714 30.5 44.6714 27.4304 44.6714C26 44.6714 26.416 44.6885 25.5 44.6714C24.5912 44.6543 24.6136 44.6748 23 44.6714C19.1136 44.6631 15.5 44.6714 7.02388 44.8529C5.94626 44.7399 4.11431 44.4591 2.76369 43.1716C1.67171 42.1306 1 40.6959 1 39.1105V6.7687C1 3.59787 3.69763 1.02629 7.02388 1.02629H43.4654C43.7922 0.992046 46.0229 0.790021 47.801 2.3994C48.8032 3.3034 49.4282 4.71075 49.4893 6.77213V39.1139C49.5949 41.3067 49.2265 42.6621 48.5455 43.5C47.443 44.8563 45.5215 44.8563 43.4654 44.8563H43.469Z" fill="#F35908" stroke="#F35908" stroke-width="2" stroke-linecap="round" stroke-linejoin="round"/>
<path d="M22.1328 20.8008H33.3633V36.0293C33.3633 36.8577 32.6917 37.5293 31.8633 37.5293H18.1328C17.3044 37.5293 16.6328 36.8577 16.6328 36.0293V26.3008C16.6328 23.2632 19.0952 20.8008 22.1328 20.8008Z" fill="white" stroke="white"/>
<path d="M24.2246 28.7773H26.6572C26.9334 28.7773 27.1572 29.0012 27.1572 29.2773V36.6416H23.7246V29.2773C23.7246 29.0356 23.8961 28.8336 24.124 28.7871L24.2246 28.7773Z" fill="#F35908" stroke="#F35908"/>
<path d="M24.9969 9.54082C25.1767 9.26789 25.5665 9.23804 25.7859 9.48031L33.1411 17.6043C33.4319 17.9256 33.2042 18.4397 32.7708 18.4399L20.0652 18.4387C19.6673 18.4387 19.4289 17.996 19.6475 17.6636L24.9969 9.54082Z" fill="white" stroke="white"/>
<circle cx="25.5" cy="14.5" r="1.5" fill="#F35908"/>
</svg>
