<svg width="16" height="24" viewBox="0 0 16 24" fill="none" xmlns="http://www.w3.org/2000/svg">
<path d="M6 10.332H13.6709V22.001C13.6709 22.8293 12.9992 23.5008 12.1709 23.501H2C1.17157 23.501 0.5 22.8294 0.5 22.001V15.832C0.5 12.7945 2.96243 10.332 6 10.332Z" fill="white" stroke="white"/>
<path d="M6.66797 16.707H8.21094C8.48694 16.7072 8.71094 16.931 8.71094 17.207V22.792H6.16797V17.207C6.16797 16.9309 6.39183 16.707 6.66797 16.707Z" fill="#F35908" stroke="#F35908"/>
<path d="M7.02552 1.50331C7.20525 1.23055 7.59413 1.20089 7.81354 1.44282L13.2146 7.40767C13.5056 7.72908 13.2779 8.24324 12.8443 8.24327L3.51532 8.24189C3.11746 8.24182 2.87917 7.80013 3.0976 7.46776L7.02552 1.50331Z" fill="white" stroke="white"/>
</svg>
