<?xml version="1.0" encoding="UTF-8"?><svg id="Layer_2" xmlns="http://www.w3.org/2000/svg" viewBox="0 0 163.31 163.83"><defs><style>.cls-1{fill:#ffc000;}.cls-2{fill:#ff605a;}.cls-3{fill:#ff7925;}</style></defs><g id="Graphic_Elements"><g><path class="cls-2" d="M96.51,163.83l45.94-28.02c2.28-1.39,3.67-3.87,3.67-6.54v-24.6l-49.61,11.11v48.05Z"/><path class="cls-3" d="M21.27,71.79v43.99c0,2.6,1.38,5.01,3.63,6.32l71.6,41.73v-48.05L21.27,71.79Z"/><path class="cls-3" d="M2.96,61.48L114.56,126.52,62.33,36.58c-2.43-4.18-7.8-5.59-11.97-3.13L2.96,61.48Z"/><path class="cls-1" d="M162.15,90.1L108.15,3.33c-2.03-3.27-6.31-4.3-9.61-2.33L0,59.9l2.96,1.58,46.9-27.72c4.44-2.63,10.18-1.13,12.77,3.33l51.94,89.43,44.9-25.72c3.77-2.16,4.99-7.01,2.69-10.7Z"/><polygon class="cls-1" points="38.07 86.83 38.07 122.01 74.04 142.63 74.04 106.97 38.07 86.83"/></g></g></svg>