<?xml version="1.0" encoding="UTF-8"?><svg id="Layer_2" xmlns="http://www.w3.org/2000/svg" viewBox="0 0 156.94 128.07"><defs><style>.cls-1{fill:#f35908;}</style></defs><g id="Layer_1-2"><path class="cls-1" d="m138.5,7v11.31h8.37c1.69,0,3.06,1.37,3.06,3.06v87.62c0,1.69-1.37,3.06-3.06,3.06h-63.81l-.94,5.89c-.29,1.81-1.82,3.12-3.65,3.12s-3.36-1.31-3.65-3.12l-.94-5.89H10.06c-1.69,0-3.06-1.37-3.06-3.06V21.38c0-1.69,1.37-3.06,3.06-3.06h8.37V7h47.52c2.86,0,5.21,2.14,5.48,4.98l.6,6.34h12.85l.6-6.34c.27-2.84,2.63-4.98,5.48-4.98h47.52m.19-7h-47.71c-6.51,0-11.85,4.97-12.45,11.31h-.12c-.6-6.35-5.95-11.31-12.45-11.31H18.25c-3.76,0-6.81,3.05-6.81,6.81v4.5h-1.37C4.51,11.31,0,15.82,0,21.38v87.62c0,5.56,4.51,10.06,10.06,10.06h57.84c.82,5.1,5.23,9.01,10.56,9.01s9.75-3.9,10.56-9.01h57.84c5.56,0,10.06-4.51,10.06-10.06V21.38c0-5.56-4.51-10.06-10.06-10.06h-1.37v-4.5c0-3.76-3.05-6.81-6.81-6.81h0Z"/><path class="cls-1" d="m107.42,49.06l-25.79-17.82-.73-.5c-.05-.04-.11-.06-.16-.09-1.44-.91-3.29-.88-4.7.09l-26.51,18.33h4.46v29.53c0,1.78,1.44,3.22,3.22,3.22h42.53c1.78,0,3.22-1.44,3.22-3.22v-29.53h4.46Z"/></g></svg>