<?xml version="1.0" encoding="UTF-8"?><svg id="Layer_2" xmlns="http://www.w3.org/2000/svg" viewBox="0 0 156.94 128.07"><defs><style>.cls-1{fill:#ebe5f9;}.cls-2{fill:#f50;}.cls-3{fill:#ffba00;}</style></defs><g id="Layer_1-2"><circle class="cls-3" cx="78.47" cy="117.36" r="10.71"/><rect class="cls-3" x="0" y="11.31" width="156.94" height="107.75" rx="10.06" ry="10.06"/><path class="cls-2" d="m18.25,0h47.71C72.86,0,78.47,5.61,78.47,12.51v90.16H18.25c-3.76,0-6.81-3.05-6.81-6.81V6.81C11.44,3.05,14.49,0,18.25,0Z"/><path class="cls-2" d="m85.28,0h60.22v90.16c0,6.91-5.61,12.51-12.51,12.51h-47.71c-3.76,0-6.81-3.05-6.81-6.81V6.81C78.47,3.05,81.52,0,85.28,0Z" transform="translate(223.98 102.67) rotate(-180)"/><path class="cls-2" d="m78.47,112.6c1.35-5.68,6.8-9.93,13.34-9.93h-13.34v9.93Z"/><path class="cls-2" d="m78.47,112.6c-1.35-5.68-6.8-9.93-13.34-9.93h13.34v9.93Z"/><path class="cls-1" d="m76.04,30.74l-22.06,15.25v32.61c0,1.78,1.44,3.22,3.22,3.22h42.53c1.78,0,3.22-1.44,3.22-3.22v-32.61l-22.06-15.25c-1.46-1.01-3.4-1.01-4.86,0Z"/><path class="cls-1" d="m107.42,49.06l-26.51-18.33c-1.46-1.01-3.4-1.01-4.86,0l-26.51,18.33h57.89Z"/><path class="cls-1" d="m77.81,59.47h1.32c3.37,0,6.1,2.73,6.1,6.1v16.24h-13.53v-16.24c0-3.37,2.73-6.1,6.1-6.1Z"/></g></svg>