<?xml version="1.0" encoding="UTF-8"?><svg id="Layer_2" xmlns="http://www.w3.org/2000/svg" viewBox="0 0 149.96 142.89"><defs><style>.cls-1{fill:#f99500;}.cls-2{fill:#f35908;}.cls-3{fill:#e5eae7;}</style></defs><g id="Layer_1-2"><path class="cls-1" d="m10,0h55.01C70.53,0,75.02,4.48,75.02,10v122.58H10C4.48,132.58,0,128.1,0,122.58V10C0,4.48,4.48,0,10,0Z"/><path class="cls-1" d="m88.85,132.58c-6.78,0-12.44,4.41-13.84,10.3-1.4-5.89-7.06-10.3-13.84-10.3"/><path class="cls-2" d="m84.95,0h65.01v122.58c0,5.52-4.48,10-10,10h-55.01c-5.52,0-10-4.48-10-10V10C74.94,4.48,79.43,0,84.95,0Z" transform="translate(224.9 132.58) rotate(-180)"/><path class="cls-2" d="m75.02,142.89c1.4-5.89,7.06-10.3,13.84-10.3h-13.84v10.3Z"/><rect class="cls-3" x="14.44" y="31.13" width="50.39" height="8.22" rx="4.11" ry="4.11"/><rect class="cls-3" x="14.44" y="62.18" width="50.39" height="8.22" rx="4.11" ry="4.11"/><rect class="cls-3" x="88.85" y="47.63" width="50.39" height="8.22" rx="4.11" ry="4.11"/><rect class="cls-3" x="88.85" y="78.69" width="50.39" height="8.22" rx="4.11" ry="4.11"/><rect class="cls-3" x="14.44" y="93.24" width="50.39" height="8.22" rx="4.11" ry="4.11"/></g></svg>