<svg width="51" height="48" viewBox="0 0 51 48" fill="none" xmlns="http://www.w3.org/2000/svg">
<path d="M43.469 44.8563C33.9536 44.8563 29.6539 42.5826 27.4304 44.6714C26.4929 45.5514 26.2666 47.017 25.3506 46.9998C24.4418 46.9827 23.7845 45.7123 22.8864 44.8529C20.2355 42.3189 14.4415 45.6404 7.02388 44.8529C5.94626 44.7399 4.11431 44.4591 2.76369 43.1716C1.67171 42.1306 1 40.6959 1 39.1104V6.7687C1 3.59787 3.69763 1.02629 7.02388 1.02629H43.4654C43.7922 0.992046 46.0229 0.790021 47.801 2.3994C48.8032 3.3034 49.4282 4.71075 49.4893 6.77213V39.1139C49.7659 44.8563 46.7916 44.8563 43.4654 44.8563H43.469Z" fill="#F35908" stroke="#F35908" stroke-width="2" stroke-linecap="round" stroke-linejoin="round"/>
<path d="M24.2637 15.8701C24.5748 15.6741 24.9975 15.6674 25.3223 15.8545L25.3594 15.876L25.377 15.8818L25.6074 16.0254L32.7939 20.5684H32.5176V30.123C32.5174 30.3516 32.3022 30.6093 31.9395 30.6094H17.6865C17.3236 30.6094 17.1076 30.3517 17.1074 30.123V20.5684H16.8359L24.2637 15.8701Z" fill="white" stroke="white"/>
<path d="M24.8125 33.6172L24.8125 41.9808" stroke="white" stroke-linecap="round" stroke-linejoin="round"/>
<path d="M24.8125 4.34375V12.7074" stroke="white" stroke-linecap="round" stroke-linejoin="round"/>
</svg>
