<svg width="52" height="48" viewBox="0 0 52 48" fill="none" xmlns="http://www.w3.org/2000/svg">
<path d="M43.9768 44.8563C34.4614 44.8563 30.1617 42.5826 27.9382 44.6714C27.0007 45.5514 26.7744 47.017 25.8584 46.9998C24.9496 46.9827 24.2923 45.7123 23.3943 44.8529C20.7433 42.3189 14.9493 45.6404 7.53169 44.8529C6.45407 44.7399 4.62212 44.4591 3.27151 43.1716C2.17952 42.1306 1.50781 40.6959 1.50781 39.1104V6.7687C1.50781 3.59787 4.20544 1.02629 7.53169 1.02629H43.9732C44.3001 0.992046 46.5307 0.790021 48.3088 2.3994C49.311 3.3034 49.936 4.71075 49.9971 6.77213V39.1139C50.2737 44.8563 47.2994 44.8563 43.9732 44.8563H43.9768Z" fill="white" stroke="#F34D08" stroke-width="2" stroke-linecap="round" stroke-linejoin="round"/>
<path d="M35.02 21.0648L26.3775 15.6012L26.1311 15.4477C26.1311 15.4477 26.0954 15.4281 26.0775 15.4215C25.5954 15.1438 24.974 15.1503 24.5026 15.4477L15.6172 21.0681H17.1136V30.1228C17.1136 30.6685 17.5957 31.1097 18.1921 31.1097H32.4451C33.0415 31.1097 33.5237 30.6685 33.5237 30.1228V21.0681H35.02V21.0648Z" fill="#F34D08"/>
<path d="M25.3203 33.6172L25.3203 41.9808" stroke="#F34D08" stroke-linecap="round" stroke-linejoin="round"/>
<path d="M25.3203 4.34375V12.7074" stroke="#F34D08" stroke-linecap="round" stroke-linejoin="round"/>
</svg>
