<svg width="52" height="48" viewBox="0 0 52 48" fill="none" xmlns="http://www.w3.org/2000/svg">
<path d="M43.9768 44.8563C34.4614 44.8563 30.1617 42.5826 27.9382 44.6714C27.0007 45.5514 26.7744 47.017 25.8584 46.9998C24.9496 46.9827 24.2923 45.7123 23.3943 44.8529C20.7433 42.3189 14.9493 45.6404 7.53169 44.8529C6.45407 44.7399 4.62212 44.4591 3.27151 43.1716C2.17952 42.1306 1.50781 40.6959 1.50781 39.1104V6.7687C1.50781 3.59787 4.20544 1.02629 7.53169 1.02629H43.9732C44.3001 0.992046 46.5307 0.790021 48.3088 2.3994C49.311 3.3034 49.936 4.71075 49.9971 6.77213V39.1139C50.2737 44.8563 47.2994 44.8563 43.9732 44.8563H43.9768Z" fill="#F34D08" stroke="#F34D08" stroke-width="2" stroke-linecap="round" stroke-linejoin="round"/>
<path d="M24.7695 15.8701C25.0806 15.6741 25.5033 15.6674 25.8281 15.8545L25.8652 15.876L25.8828 15.8818L26.1133 16.0254L33.2998 20.5684H33.0234V30.123C33.0233 30.3516 32.8081 30.6093 32.4453 30.6094H18.1924C17.8295 30.6094 17.6134 30.3517 17.6133 30.123V20.5684H17.3418L24.7695 15.8701Z" fill="white" stroke="white"/>
<path d="M25.3203 33.6172L25.3203 41.9808" stroke="white" stroke-linecap="round" stroke-linejoin="round"/>
<path d="M25.3203 4.34375V12.7074" stroke="white" stroke-linecap="round" stroke-linejoin="round"/>
</svg>
