<?xml version="1.0" encoding="UTF-8"?><svg id="Layer_2" xmlns="http://www.w3.org/2000/svg" viewBox="0 0 137.08 159.33"><defs><style>.cls-1{fill:#ff94b5;}.cls-2{opacity:.2;}.cls-3{fill:#fff;opacity:.5;}</style></defs><g id="Layer_1-2"><g><rect class="cls-2" x="6.43" y="8.32" width="130.65" height="151.02" rx="12.35" ry="12.35"/><rect class="cls-1" x="0" y="0" width="130.65" height="151.02" rx="15.86" ry="15.86"/><rect class="cls-3" x="12.67" y="35.91" width="31.75" height="5.65" rx=".94" ry=".94" transform="translate(.22 -.16) rotate(.32)"/><rect class="cls-3" x="48.07" y="36.07" width="15.05" height="5.65" rx=".94" ry=".94" transform="translate(.22 -.31) rotate(.32)"/><rect class="cls-3" x="67.05" y="36.26" width="47.78" height="5.65" rx=".94" ry=".94" transform="translate(.22 -.5) rotate(.32)"/><rect class="cls-3" x="13.46" y="56.27" width="26.46" height="5.65" rx=".94" ry=".94" transform="translate(.33 -.15) rotate(.32)"/><rect class="cls-3" x="42.75" y="56.45" width="33.49" height="5.65" rx=".94" ry=".94" transform="translate(.33 -.33) rotate(.32)"/><rect class="cls-3" x="80.86" y="56.66" width="34.76" height="5.65" rx=".94" ry=".94" transform="translate(.33 -.54) rotate(.32)"/><rect class="cls-3" x="14.24" y="76.65" width="31.75" height="5.65" rx=".94" ry=".94" transform="translate(.44 -.17) rotate(.32)"/><rect class="cls-3" x="49.64" y="76.85" width="33.27" height="5.65" rx=".94" ry=".94" transform="translate(.44 -.37) rotate(.32)"/><rect class="cls-3" x="86.53" y="77.04" width="29.87" height="5.65" rx=".94" ry=".94" transform="translate(.45 -.56) rotate(.32)"/><rect class="cls-3" x="15.03" y="96.99" width="23.24" height="5.65" rx=".94" ry=".94" transform="translate(.55 -.15) rotate(.32)"/><rect class="cls-3" x="41.95" y="97.16" width="31.54" height="5.65" rx=".94" ry=".94" transform="translate(.56 -.32) rotate(.32)"/><rect class="cls-3" x="77.54" y="97.38" width="39.65" height="5.65" rx=".94" ry=".94" transform="translate(.56 -.54) rotate(.32)"/><rect class="cls-3" x="15.81" y="117.38" width="31.75" height="5.65" rx=".94" ry=".94" transform="translate(.67 -.17) rotate(.32)"/><rect class="cls-3" x="51.21" y="117.59" width="36.26" height="5.65" rx=".94" ry=".94" transform="translate(.67 -.38) rotate(.32)"/><rect class="cls-3" x="92.39" y="117.79" width="25.58" height="5.65" rx=".94" ry=".94" transform="translate(.67 -.58) rotate(.32)"/></g></g></svg>