<?xml version="1.0" encoding="UTF-8"?><svg id="Layer_2" xmlns="http://www.w3.org/2000/svg" viewBox="0 0 164 163.97"><defs><style>.cls-1{opacity:.1;}.cls-2{fill:#fcfcfc;}.cls-3{fill:#ffc000;}.cls-4{fill:#ff7925;}</style></defs><g id="Graphic_Elements"><g><rect class="cls-4" x="7.11" y="57.37" width="150.03" height="96.33"/><rect class="cls-3" y="47.1" width="164" height="10.27" rx="2.76" ry="2.76"/><rect class="cls-3" y="153.7" width="164" height="10.27" rx="2.76" ry="2.76"/><path class="cls-3" d="M63.18,5.99L6.25,47.1H157.14L100.2,5.99c-11.05-7.98-25.97-7.98-37.03,0Z"/><rect class="cls-3" x="57.25" y="82.3" width="49.51" height="49.51"/><path class="cls-2" d="M106.75,82.3v49.51H57.25v-49.51h49.51m0-5H57.25c-2.76,0-5,2.24-5,5v49.51c0,2.76,2.24,5,5,5h49.51c2.76,0,5-2.24,5-5v-49.51c0-2.76-2.24-5-5-5h0Z"/><rect class="cls-1" x="7.11" y="57.37" width="150.03" height="5.45"/><rect class="cls-1" x="7.11" y="150.97" width="150.03" height="2.72"/></g></g></svg>