<?xml version="1.0" encoding="UTF-8"?><svg id="Layer_2" xmlns="http://www.w3.org/2000/svg" viewBox="0 0 142.94 128"><defs><style>.cls-1{fill:#f35908;}</style></defs><g id="Layer_1-2"><path class="cls-1" d="m71.47,7c.73,0,1.43.22,2.02.63l51.44,35.56v76.86c0,.53-.43.96-.96.96H18.96c-.53,0-.96-.43-.96-.96V43.19L69.45,7.63c.6-.41,1.3-.63,2.02-.63m0-7c-2.1,0-4.2.62-6,1.87L0,47.12h11.01v72.92c0,4.39,3.56,7.96,7.96,7.96h105.02c4.39,0,7.96-3.56,7.96-7.96V47.12h11.01L77.47,1.87c-1.81-1.25-3.91-1.87-6-1.87h0Z"/><path class="cls-1" d="m60.87,72.83h21.2c3.37,0,6.1,2.73,6.1,6.1v49.07h-33.4v-49.07c0-3.37,2.73-6.1,6.1-6.1Z"/></g></svg>