<svg width="51" height="48" viewBox="0 0 51 48" fill="none" xmlns="http://www.w3.org/2000/svg">
<path d="M43.469 44.8563C33.9536 44.8563 29.6539 42.5826 27.4304 44.6714C26.4929 45.5514 26.2666 47.017 25.3506 46.9998C24.4418 46.9827 23.7845 45.7123 22.8864 44.8529C20.2355 42.3189 14.4415 45.6404 7.02388 44.8529C5.94626 44.7399 4.11431 44.4591 2.76369 43.1716C1.67171 42.1306 1 40.6959 1 39.1104V6.7687C1 3.59787 3.69763 1.02629 7.02388 1.02629H43.4654C43.7922 0.992046 46.0229 0.790021 47.801 2.3994C48.8032 3.3034 49.4282 4.71075 49.4893 6.77213V39.1139C49.7659 44.8563 46.7916 44.8563 43.4654 44.8563H43.469Z" fill="white" stroke="#F35908" stroke-width="2" stroke-linecap="round" stroke-linejoin="round"/>
<path d="M34.5142 21.0648L25.8716 15.6012L25.6252 15.4477C25.6252 15.4477 25.5895 15.4281 25.5716 15.4215C25.0895 15.1438 24.4681 15.1503 23.9967 15.4477L15.1113 21.0681H16.6077V30.1228C16.6077 30.6685 17.0898 31.1097 17.6862 31.1097H31.9393C32.5357 31.1097 33.0178 30.6685 33.0178 30.1228V21.0681H34.5142V21.0648Z" fill="#F35908"/>
<path d="M24.8125 33.6172L24.8125 41.9808" stroke="#F35908" stroke-linecap="round" stroke-linejoin="round"/>
<path d="M24.8125 4.34375V12.7074" stroke="#F35908" stroke-linecap="round" stroke-linejoin="round"/>
</svg>
