<svg width="30" height="30" viewBox="0 0 30 30" fill="none" xmlns="http://www.w3.org/2000/svg">
<g clip-path="url(#clip0_6718_461)">
<rect width="30" height="30" rx="15" fill="white"/>
<path d="M30 15C30 17.9667 29.1203 20.8668 27.472 23.3335C25.8238 25.8003 23.4811 27.7229 20.7403 28.8582C17.9994 29.9935 14.9834 30.2906 12.0736 29.7118C9.16394 29.133 6.49119 27.7044 4.3934 25.6066C2.29562 23.5088 0.867006 20.8361 0.288227 17.9263C-0.290551 15.0166 0.00649925 12.0006 1.14181 9.25975C2.27713 6.51886 4.19972 4.17618 6.66645 2.52796C9.13319 0.879734 12.0333 0 15 0C16.9698 0 18.9204 0.387986 20.7403 1.14181C22.5601 1.89563 24.2137 3.00052 25.6066 4.3934C26.9995 5.78628 28.1044 7.43986 28.8582 9.25975C29.612 11.0796 30 13.0302 30 15ZM12.3759 10.953H18.2247V8.07882C18.2242 7.91968 18.1608 7.7672 18.0482 7.65468C17.9357 7.54215 17.7832 7.47871 17.6241 7.47821H5.59303C5.51416 7.47821 5.43606 7.49375 5.36319 7.52393C5.29032 7.55411 5.22411 7.59835 5.16834 7.65412C5.11257 7.7099 5.06833 7.7761 5.03815 7.84897C5.00796 7.92184 4.99243 7.99994 4.99243 8.07882V16.493C4.99243 16.6519 5.05544 16.8044 5.16767 16.917C5.2799 17.0296 5.43218 17.0931 5.59114 17.0936H6.96476V18.8746C6.96476 19.2061 7.19212 19.3331 7.47443 19.1588L10.2766 17.41V13.0523C10.2776 12.4958 10.4991 11.9625 10.8926 11.569C11.2861 11.1755 11.8194 10.954 12.3759 10.953ZM25.0076 13.0523C25.0071 12.8937 24.9438 12.7417 24.8317 12.6295C24.7195 12.5173 24.5675 12.4541 24.4089 12.4536H12.3778C12.2187 12.4536 12.066 12.5165 11.9531 12.6287C11.8402 12.7409 11.7763 12.8932 11.7753 13.0523V21.4684C11.7763 21.6272 11.84 21.7792 11.9524 21.8913C12.0649 22.0034 12.2171 22.0666 12.3759 22.0671H19.1455C19.1636 22.082 19.1826 22.096 19.2024 22.1087L22.5502 24.1967C22.8306 24.371 23.0599 24.244 23.0599 23.9125V22.0671H24.4089C24.5675 22.0666 24.7195 22.0033 24.8317 21.8912C24.9438 21.779 25.0071 21.627 25.0076 21.4684V13.0523Z" fill="#1A71F6"/>
</g>
<defs>
<clipPath id="clip0_6718_461">
<rect width="30" height="30" rx="15" fill="white"/>
</clipPath>
</defs>
</svg>
