<?xml version="1.0" encoding="UTF-8"?><svg id="Layer_2" xmlns="http://www.w3.org/2000/svg" viewBox="0 0 875 783.07"><defs><style>.cls-1{fill:#f50;}.cls-2,.cls-3,.cls-4{fill:#fff;}.cls-5{fill:#ffba00;}.cls-6{fill:#83c327;}.cls-7{fill:#2d2d2d;}.cls-3{opacity:.15;}.cls-4{opacity:.3;}</style></defs><g id="Layer_1-2"><path class="cls-6" d="m434.08,113.69v86.49c0,62.79-50.9,113.69-113.69,113.69H63.3c-34.96,0-63.3,28.34-63.3,63.3v342.6c0,34.96,28.34,63.3,63.3,63.3h748.4c34.96,0,63.3-28.34,63.3-63.3V63.3c0-34.96-28.34-63.3-63.3-63.3h-263.94c-62.79,0-113.69,50.9-113.69,113.69Z"/><path class="cls-3" d="m439.89,783.07h371.82c34.96,0,63.3-28.34,63.3-63.3v-229.83c-21.53,1.25-41.64,8.59-56.56,26.27-56.56,67.01-42.96,153.88-201.85,159.74-110.04,4.06-157.76,68.12-176.71,107.13Z"/><rect class="cls-4" x="698.18" y="175.23" width="28.8" height="28.8" transform="translate(342.8 -448.33) rotate(45)"/><rect class="cls-4" x="170.27" y="699.37" width="31.51" height="31.51" transform="translate(560.16 77.92) rotate(45)"/><circle class="cls-4" cx="831.7" cy="353.33" r="13.26"/><circle class="cls-4" cx="704.82" cy="548.09" r="13.26"/><circle class="cls-4" cx="33.8" cy="630.07" r="13.26"/><circle class="cls-4" cx="396.64" cy="737.41" r="13.26"/><polygon class="cls-4" points="152.39 355.8 155.9 362.9 163.74 364.04 158.07 369.57 159.41 377.39 152.39 373.7 145.38 377.39 146.72 369.57 141.04 364.04 148.88 362.9 152.39 355.8"/><polygon class="cls-4" points="673.89 723.74 678.33 732.74 688.26 734.19 681.08 741.19 682.77 751.08 673.89 746.41 665 751.08 666.7 741.19 659.51 734.19 669.45 732.74 673.89 723.74"/><polygon class="cls-4" points="602.93 617.06 607.15 625.62 616.6 627 609.76 633.66 611.38 643.07 602.93 638.63 594.48 643.07 596.09 633.66 589.25 627 598.7 625.62 602.93 617.06"/><polygon class="cls-4" points="534.42 140.27 538.66 148.87 548.15 150.25 541.29 156.94 542.91 166.39 534.42 161.93 525.94 166.39 527.56 156.94 520.69 150.25 530.18 148.87 534.42 140.27"/><polygon class="cls-4" points="470.32 108.02 458.44 108.02 452.49 118.31 458.44 128.61 470.32 128.61 476.27 118.31 470.32 108.02"/><polygon class="cls-4" points="446.55 302.1 434.67 302.1 428.72 312.4 434.67 322.69 446.55 322.69 452.49 312.4 446.55 302.1"/><polygon class="cls-4" points="849.52 46.51 837.64 46.51 831.69 56.81 837.64 67.1 849.52 67.1 855.46 56.81 849.52 46.51"/><polygon class="cls-4" points="275.2 581.42 263.34 581.42 257.41 591.69 263.34 601.96 275.2 601.96 281.13 591.69 275.2 581.42"/><polygon class="cls-4" points="815.04 630.07 795.98 630.07 786.45 646.57 795.98 663.07 815.04 663.07 824.56 646.57 815.04 630.07"/><rect class="cls-2" x="506.92" y="46.51" width="324.78" height="240.26" rx="41.24" ry="41.24"/><path id="Rectangle_859" class="cls-2" d="m669.31,312.4h0c2.53,0,4.58,2.05,4.58,4.58v33.78c0,2.53-2.05,4.58-4.58,4.58h0c-2.53,0-4.58-2.05-4.58-4.58v-33.78c0-2.53,2.05-4.58,4.58-4.58Z"/><path id="Rectangle_860" class="cls-2" d="m647.83,333.87h0c0-2.53,2.05-4.58,4.58-4.58h33.78c2.53,0,4.58,2.05,4.58,4.58h0c0,2.53-2.05,4.58-4.58,4.58h-33.78c-2.53,0-4.58-2.05-4.58-4.58Z"/><g id="Sdi2Qk"><path class="cls-1" d="m739.1,432.04c-.18,8.32,3.83,14.84,9.13,20.69,8.04,8.9,18.58,14.85,27.35,22.91,1.41,1.3,3.01,1,4.32-.26,6.27-5.97,13.58-10.61,20.21-16.12,4.51-3.75,8.59-7.93,11.7-13.03,6.04-9.9,5.61-20.57-1.44-29.3-8.03-9.95-22.39-10.83-31.22-1.84-1.39,1.42-2.17.88-3.26-.18-4.44-4.32-9.76-6.55-15.97-5.92-12.09,1.23-20.7,10.86-20.83,23.05Z"/></g><path class="cls-1" d="m729.26,531.17c12.96.33,25.2-.79,37.41-2.28,9.16-1.12,16.19-7.96,17.96-17.84.47-2.63,1.49-3.68,4.09-4.27,10.16-2.28,20.26-4.84,30.38-7.31,4.41-1.08,8.22-.04,11.23,3.37,4.25,4.81,3.19,12.38-2.28,16.18-5.9,4.1-11.88,8.08-17.82,12.13-10.63,7.25-21.19,14.6-31.9,21.74-6.96,4.64-13.79,9.45-20.76,14.06-5.07,3.34-10.63,5.16-16.66,5.41-3.87.16-7.64-.79-11.43-1.42-12.26-2.03-24.52-4.06-36.79-6.05-1.73-.28-3.18-.93-4.51-2.08-9.98-8.62-20-17.22-30.01-25.81-3.63-3.12-7.3-6.2-10.93-9.32-1.34-1.15-1.3-1.27.15-2.18,9.39-5.88,18.83-11.69,28.16-17.66,5.46-3.49,10.92-6.97,16.45-10.35,4.97-3.03,10.2-5.27,16.19-4.84,3.69.27,7.37.73,11.06,1.09,4.67.46,9.34.88,14,1.37,6.3.66,12.58,1.4,18.88,2.06,3.73.39,7.47.72,11.2,1.04,4.34.37,7.69,2.74,8.85,6.32,1.95,6.03-1.74,11.5-8.2,12.42-13.23,1.88-26.52,2.64-39.87,2.23-2.81-.09-5.62-.44-8.44-.23-2.92.22-5.19,2.26-5.49,4.78-.51,4.24,1.97,6.47,4.11,6.98,1.49.36,3.07.42,4.61.45,3.66.06,7.33.02,10.35.02Z"/><path class="cls-1" d="m659.09,591.94c-1.4.15-2.49-.57-3.5-1.45-6.21-5.38-12.4-10.78-18.64-16.13-5.28-4.52-10.61-8.98-15.91-13.46-2.72-2.3-3.09-5.34-.73-8.04,4.48-5.13,9.08-10.15,13.62-15.21.72-.8,1.47-1.58,2.14-2.43.56-.72,1.04-.76,1.73-.15,4.65,4.03,9.33,8.01,13.99,12.03,8.95,7.73,17.88,15.49,26.85,23.21.82.7,1.1,1.14.24,2.11-4.89,5.52-9.69,11.11-14.53,16.66-1.38,1.58-2.84,3.06-5.24,2.86Z"/><g id="aqmqyy.tif"><path class="cls-2" d="m504.96,408.87c-.19.49.18.42.45.43,1.86.06,3.66.4,5.37,1.11,5.4,2.24,8.71,6.27,10.06,11.93.58,2.42.38,4.89.39,7.34.02,11,0,21.99,0,32.99,0,1.2.07,2.4-.32,3.57-.81,2.43-3.24,4.64-6.39,4.35-2.56-.23-4.69-1.95-5.48-4.76-.21-.75-.27-1.53-.27-2.32,0-12.12-.05-24.25.05-36.37.02-2.67-1.97-5.55-5.52-5.54-26.96.05-53.92.03-80.89.03-16.54,0-33.08,0-49.62.01-.82,0-1.65,0-2.45.18-2.28.49-3.87,2.44-3.94,4.82-.04,1.18-.02,2.36-.02,3.54,0,47.82,0,95.63-.01,143.45,0,1.51.26,2.89,1.25,4.09.78.95,1.78,1.47,2.96,1.67.61.1,1.23.13,1.85.14,6.8,0,13.6.01,20.4,0,1.1,0,2.19-.08,3.25.34,2.66,1.05,4.3,3.68,4.01,6.5-.27,2.65-2.51,5.01-5.24,5.45-.61.1-1.23.13-1.85.14-7.14,0-14.28,0-21.42,0-3,0-5.9-.44-8.58-1.86-4.74-2.53-7.7-6.41-8.71-11.7-.24-1.24-.2-2.55-.2-3.83,0-35.99,0-71.98,0-107.97,0-13.34.02-26.69-.02-40.03,0-2.72.25-5.36,1.48-7.82,2.63-5.25,6.83-8.39,12.65-9.31.49-.08.99-.1,1.49-.13.29-.02.48-.09.39-.44h134.89Z"/><path class="cls-2" d="m353.75,424.12c.21.35.15.74.15,1.11,0,31.86,0,63.72,0,95.57,0,18.4,0,36.8,0,55.2,0,.43.08.88-.15,1.29v-153.17Z"/><path class="cls-2" d="m470.44,479.9c5.18.08,10.73,1.45,15.73,4.47,8.38,5.06,13.69,12.4,15.7,22.05,1.18,5.64.7,11.15-1.02,16.62-1.59,5.06-4.45,9.31-8.08,13.1-.89.93-1.9,1.71-2.91,2.5-.53.42-.52.44.08.7,2.87,1.23,5.69,2.54,8.33,4.23,4.5,2.89,8.47,6.39,11.82,10.54,4.7,5.83,7.9,12.43,9.54,19.76.87,3.89,1.4,7.83,1.32,11.83-.02.8-.13,1.59-.33,2.37-.48,1.78-1.6,2.93-3.39,3.37-1.24.31-2.5.31-3.74-.02-2.62-.71-4.19-2.73-4.24-5.5-.05-3-.24-5.99-.7-8.95-.72-4.69-2.41-9.01-4.77-13.11-2.58-4.48-6.24-7.86-10.54-10.62-4.76-3.06-10.01-4.75-15.58-5.56-2.59-.38-5.2-.63-7.82-.66-2.73-.03-5.47.11-8.2.4-4.1.44-8.07,1.39-11.89,2.93-6.56,2.65-11.93,6.8-15.74,12.82-2.59,4.1-4.28,8.57-5.11,13.36-.49,2.84-.7,5.71-.73,8.59-.03,2.45-1.03,4.42-3.19,5.69-3.93,2.3-8.28-.04-8.5-4.58-.19-3.79.24-7.54,1.01-11.25.59-2.85,1.37-5.64,2.47-8.32,2.22-5.41,5.26-10.33,9.18-14.68,5.42-6.01,12.07-10.18,19.55-13.09.22-.08.54-.08.58-.35.05-.27-.27-.36-.45-.51-5.1-4.26-8.57-9.6-10.54-15.93-1.02-3.28-1.52-6.64-1.39-10.05.29-7.69,2.85-14.54,7.84-20.44,4.65-5.49,10.52-9.02,17.47-10.78,2.47-.62,4.99-.89,8.22-.91Z"/></g><g id="kTiSxb.tif"><path class="cls-5" d="m29.46,486.03c-1.27-.3-2.41-.56-3.54-.84-.32-.08-.79-.12-.81-.55-.02-.45.46-.45.77-.56,1.35-.47,2.69-.93,4.09-1.42-.31-.33-.76-.09-1.11-.71,3.23-1.2,6.43-2.39,9.63-3.59-.12-.46-.78-.14-.73-.64.04-.43.46-.52.78-.61,3.05-.86,5.97-2.12,8.99-3.18-.26-.48-.79-.01-1.29-.64,4.15-1.57,8.22-3.11,12.38-4.69-.84-.94-.14-1.13.6-1.36,2.82-.87,5.59-1.86,8.32-3.01-.03-.47-.76-.15-.65-.65.09-.41.53-.44.84-.55,2.96-1.08,5.94-2.15,8.94-3.23-.29-.39-.76-.09-1.06-.72,3.13-1.17,6.24-2.34,9.52-3.56-1.08-.61-.8-1,.04-1.24,3.08-.89,6.05-2.13,9.35-3.31-.65-.09-1.04-.14-1.42-.19l-.09-.34c3.2-1.21,6.4-2.42,9.61-3.64-.13-.39-.8-.16-.71-.64.08-.45.55-.54.92-.65,2.91-.84,5.75-1.92,8.55-3.05-.04-.54-.79-.11-.7-.61.08-.44.56-.55.92-.65,2.56-.7,5-1.75,7.45-2.75.3-.12,1.3.14.48-.9-.34-.43.53-.62.94-.77,2.61-.94,5.23-1.87,7.85-2.81.16-.06.3-.15.45-.23-.06-.43-.68-.15-.63-.55.06-.48.56-.53.9-.66,2.93-1.07,5.87-2.12,8.84-3.18-.25-.42-.74-.12-.94-.55.04-.08.08-.25.16-.29,2.45-.89,4.9-1.77,7.34-2.66.53-.19,1.02-.05,1.52.11,2.03.62,3.91,1.74,6.05,1.96.31.03.7.23.66.55-.18,1.35.84,1.41,1.6,1.68,2.08.74,4.19,1.41,6.28,2.13.54.19,1.29.22,1.01,1.21-.15.53.3.59.6.71,2.31.9,4.63,1.77,7.03,2.34.66.16,1.36.21,1.04,1.25-.17.55.3.57.59.69,2.3.92,4.62,1.77,7.01,2.42.67.18,1.55.17,1.13,1.41-.16.47.42.5.71.6,2.33.83,4.63,1.74,7.03,2.38.63.17,1.48.21,1.07,1.36-.14.41.33.48.59.58,2.35.89,4.69,1.84,7.15,2.38.42.09,1.09.18.95.69-.33,1.22.51,1.22,1.15,1.44,2.33.82,4.67,1.62,7.01,2.42.52.18,1.03.3.75,1.1-.21.62.35.66.67.77,2.37.82,4.68,1.89,7.17,2.3.39.06.94.22.82.67-.32,1.27.6,1.29,1.28,1.53,2.17.76,4.35,1.49,6.52,2.24.59.2,1.35.26,1.11,1.3-.11.49.36.56.66.67,2.27.86,4.55,1.73,6.91,2.28.63.15,1.24.27.94,1.2-.17.56.31.59.59.68,3.41,1.15,6.69,2.7,10.19,3.57.58.15,1.12.28.84,1.16-.23.71.43.69.77.81,2.41.87,4.83,1.69,7.25,2.53.57.19,1.26.22.92,1.21-.17.5.33.58.63.68,2.35.77,4.6,1.86,7.03,2.33.49.09,1.13.34.92.88-.36.95.27.97.74,1.14.85.32,1.72.59,2.59.87.25.08.55.16.57.47.04.42-.32.47-.61.56-.46.13-.92.26-1.37.4-.6.18-1.29.14-1.17,1.22.07.64-.69.59-1.11.67-3.66.73-7.17,2.05-10.8,2.88-.16.04-.31.13-.45.2-.11.63.81.25.66.77-.15.51-.67.51-1.08.59-3.83.7-7.49,2.07-11.27,2.93.11.69.79.28.96.97-4.12,1.11-8.26,2.22-12.32,3.32-.23.68.78.43.49.97-.23.43-.73.44-1.15.51-3.87.71-7.58,2.12-11.44,2.93.14.58,1.02.28.84.92-.14.5-.7.45-1.11.52-3.81.61-7.41,2.1-11.14,2.85-.21.7.75.43.56.92-.21.53-.77.52-1.22.61-3.77.74-7.41,2.02-11.14,2.91.1.69.77.29.96.96-4.14,1.11-8.27,2.23-12.33,3.32-.23.68.78.43.49.97-.23.43-.73.44-1.15.52-3.88.71-7.57,2.14-11.44,2.91.14.6,1.02.3.85.93-.14.51-.7.45-1.11.52-3.81.61-7.41,2.1-11.14,2.85-.21.7.74.42.56.92-.18.49-.68.52-1.1.58-3.17.51-6.18,1.69-9.29,2.46-.6.15-1.16.23-1.77.06-3.17-.9-6.35-1.73-9.51-2.67-.36-.11-1.82.17-.8-1.21.19-.26-.42-.33-.66-.39-3.18-.86-6.38-1.63-9.53-2.58-.63-.19-2.2.35-1.71-1.5.07-.27-.55-.3-.88-.38-3.18-.84-6.37-1.66-9.54-2.56-.56-.16-1.78.09-1.29-1.36.09-.26-.38-.29-.61-.35-3.22-.87-6.44-1.73-9.66-2.59-.21-.06-.42-.1-.63-.18-.32-.12-.75-.15-.85-.53-.12-.47.57-.29.67-.77-3.54-.95-7.05-1.89-10.55-2.83-.46-.12-.92-.24-1.37-.4-.19-.07-.54-.23-.41-.43.96-1.39-.47-.96-.82-1.06-3.13-.88-6.28-1.65-9.41-2.55-.57-.16-1.89.14-1.34-1.43.09-.25-.55-.3-.87-.39-3.18-.85-6.37-1.66-9.53-2.58-.56-.16-1.78.1-1.3-1.36.1-.31-.44-.32-.72-.39-3.22-.86-6.45-1.71-9.67-2.57-.25-.07-.51-.12-.75-.23-.27-.11-.65-.16-.64-.56.01-.4.45-.33.93-.6-1.42-.37-2.61-.68-3.8-1.01-2.13-.58-4.27-1.15-6.39-1.75-.89-.25-1.28-.02-1.28,1.01.02,11.43.02,22.85,0,34.28,0,1.15.62,1.5,1.5,1.66.78.14,1.67.08,1.32,1.39-.03.11.15.3.25.44.05.07.14.11.21.15,3.54,1.88,5.27,5.28,6.87,8.86,1.73,3.88,2.26,7.95,2.31,12.15.01,1.1-.36,2.03-1.03,2.85-.48.6-1.47.89-1.04,2.04.08.22-.24.47-.51.52-.99.18-1.98.15-2.97.03-.17-.02-.47-.27-.46-.39.06-1.11-.79-1.51-1.38-2.13-.73-.77-1.03-1.74-1.09-2.83-.08-1.45-.22-2.89-.35-4.33-.11-1.26-.51-2.39-1.44-3.24-.51-.46-.47-1.15-.73-1.7-.25-.53-.64-1.15-1.22-1.01-.45.1-.21.79-.22,1.22-.05,2.81.03,5.63-.12,8.43-.14,2.56-2.07,4.26-4.41,4.15-2.21-.1-3.83-1.71-3.91-4.07-.09-2.85-.04-5.71-.06-8.57,0-.37.2-.93-.31-1.05-.46-.1-.8.32-1.03.71-1.66,2.8-2.76,5.77-2.65,9.14.05,1.5-.49,2.74-1.64,3.66-.23.18-.63.33-.53.7.43,1.58-.66,1.34-1.49,1.4-.52.04-1.04,0-1.56-.01-.3-.01-.76-.06-.75-.39.06-1.29-1.06-1.65-1.62-2.45-1.34-1.9-.95-4.08-.73-6.18.32-3.07,1-6.02,2.21-8.9.59-1.4,1.56-2.48,2.12-3.8,1.07-2.51,3.02-3.84,5.15-5.05.12-.07.29-.09.18-.37-.32-.78-.27-.85.5-1.15q2.15-.86,2.15-3.21c0-12.02-.02-24.03.03-36.05,0-1.39-.43-1.98-1.69-2.13-.59-.07-1.17-.31-1.75-.47-.33-.09-.8-.13-.85-.51-.08-.58.62-.32.93-.77Z"/><path class="cls-5" d="m114.19,530.73c3.9,1,7.63,1.95,11.37,2.91.36.09.86,0,.99.48.15.61-.59.47-.82.89,3.97.91,7.76,2.36,11.73,3.02.37.06.77.2.63.65-.33,1.04.48,1,.98,1.18,3.79,1.39,7.59,1.6,11.4.06.68-.27,1.4-.42,2.15-.64-.32-.44-.97-.05-1.25-.79,4.37-1.2,8.72-2.39,13.1-3.59-.33-.55-1.05.02-1.44-.74,4.35-1.2,8.64-2.38,12.99-3.58-.37-.56-.96-.07-1.37-.78,4.45-1.21,8.82-2.41,13.26-3.62-.47-.39-1.08-.07-1.63-.72,4.41-1.22,8.7-2.41,13.24-3.67-.67-.16-1.1-.26-1.62-.38.24-.57.7-.62,1.09-.69,2.44-.43,4.79-1.17,7.15-1.92.95-.3,1.15.09,1.14.96-.02,1.63,0,3.26,0,4.9,0,10.34-.03,20.68.03,31.01,0,1.45-.45,2.13-1.76,2.47-2.21.58-4.38,1.3-6.57,1.96.07.64.76.24.93.97-5.25,1.22-10.49,2.5-15.87,3.19.23.84.86.47,1.33,1.1-26.92,4.03-53.64,4.06-80.52.04.39-.96,1.05-.53,1.59-.91-1.36-.55-2.73-.52-4.03-.74-3.71-.62-7.35-1.63-11.03-2.39-.3-.06-1.77.22-.83-1.17.23-.34-.38-.35-.62-.42-1.99-.61-3.98-1.23-5.98-1.78-.99-.27-1.37-.8-1.36-1.92.04-12.02.03-24.03,0-36.05,0-1.14.2-1.55,1.39-1.15,2.22.75,4.45,1.46,6.79,1.72.36.04.8.16.65.63-.34,1.07.51,1.04.99,1.14,3.42.76,6.71,2.06,10.19,2.6.46.07,1.09.08.62,1.02-.37.74.51.66.83.73,3.33.77,6.57,1.95,9.94,2.54.38.07.83.07.96.54.14.5-.4.49-.74.9Z"/></g><g id="Group_51"><g id="Group_55"><ellipse id="Ellipse_22" class="cls-1" cx="669.31" cy="166.39" rx="78.19" ry="79.94" transform="translate(276.78 733.46) rotate(-69.27)"/><g id="Group_52"><path id="Path_107" class="cls-5" d="m716.46,191.17c-2.03,24.56-23.18,43.07-47.79,41.84-24.61-1.23-43.81-21.76-43.39-46.4,29.14,22.48,59.53,24,91.18,4.55Z"/><path id="Path_108" class="cls-5" d="m673.22,141.78c-22.54-1.12-42.52,14.37-47.04,36.48,28.41,23.81,58.45,25.67,90.2,4.5-2.29-22.45-20.63-39.86-43.16-40.98Zm-5.32,41.63c-.17,3.4-1.55,6.1-3.07,6.02-1.52-.08-2.62-2.9-2.45-6.3.17-3.4,1.54-6.1,3.06-6.02,1.52.08,2.62,2.89,2.45,6.3h0Zm10.08.5c-.17,3.4-1.54,6.1-3.07,6.02-1.52-.07-2.62-2.89-2.45-6.3.17-3.4,1.54-6.1,3.06-6.02,1.52.08,2.62,2.89,2.45,6.3h0Z"/></g><path class="cls-5" d="m736.12,148.75c0-9.26-7.51-16.76-16.77-16.75l-100.76.06c-9.26,0-16.76,7.51-16.75,16.77v5.94c0,9.26,7.52,16.76,16.77,16.75l100.76-.06c9.26,0,16.76-7.51,16.75-16.77v-5.94Z"/><g id="Group_53"><circle id="Ellipse_23" class="cls-2" cx="648.23" cy="153.56" r="16.18"/><circle id="Ellipse_24" class="cls-7" cx="648.02" cy="163.78" r="5.81"/></g><g id="Group_54"><circle id="Ellipse_25" class="cls-2" cx="690.29" cy="151.94" r="16.5"/><circle id="Ellipse_26" class="cls-7" cx="690.79" cy="162.82" r="5.62"/></g></g></g></g></svg>