<?xml version="1.0" encoding="UTF-8"?><svg id="Layer_2" xmlns="http://www.w3.org/2000/svg" viewBox="0 0 1089.25 783.1"><defs><style>.cls-1{fill:#0090d3;}.cls-2{fill:#f50;}.cls-3{fill:#ea4800;}.cls-4,.cls-5,.cls-6{fill:#fff;}.cls-7{fill:#ffba00;}.cls-5{opacity:.15;}.cls-6{opacity:.3;}</style></defs><g id="Layer_1-2"><path class="cls-3" d="m0,114.25v488.75c0,98.18,79.62,177.76,177.8,177.69,67.25-.05,142.97.02,207.06.36C771.47,783.1,0,114.25,0,114.25Z"/><path class="cls-2" d="m981.64,783.1H407.53c-8.68,0-23.4-4.12-41.84-10.93-160.88-59.5-278.07-199.95-309.1-368.64-12.83-69.78-27.69-151.89-43.61-242.44C-16.73,105.25,6.33,35.2,64.11,9.52,77.83,3.42,93.09,0,109.34,0h872.05c80.69,0,107.88,53.98,107.62,139.91l.24,534.35c.03,58.6-46.33,107.4-104.91,108.81-.9.02-1.8.03-2.7.03Z"/><path class="cls-5" d="m1089.08,293.63l-.07-153.72c.26-85.93-26.93-139.91-107.62-139.91h-161.53c-19.92,31.77-31.45,69.33-31.45,109.6,0,114.12,92.51,206.62,206.62,206.62,33.87,0,65.83-8.15,94.04-22.59Z"/><g id="Sdi2Qk"><path class="cls-4" d="m548.67,286.23c21.11,0,42.21,0,63.32,0,17.23.01,31.49,14.02,31.56,31.23.1,26.51-.14,53.02.1,79.52.12,13.21-9.02,30.3-28.24,32.72-4.26.54-8.51.35-12.76.4-5.47.07-10.94.03-16.42,0-1.34,0-2.48.3-3.5,1.24-8.46,7.8-16.93,15.58-25.42,23.34-2.46,2.25-5.05,4.37-7.48,6.66-1.41,1.33-2.5,1.17-3.84-.06-5.96-5.48-11.96-10.91-17.95-16.36-4.99-4.54-9.99-9.07-14.96-13.64-1.03-.95-2.2-1.17-3.52-1.17-7.04.02-14.07.05-21.11,0-9.71-.07-18.58-2.63-25.78-9.44-6.32-5.98-10.52-13.41-10.62-22.11-.33-27.07-.25-54.15-.08-81.23.09-14.6,13.01-28.52,27.87-30.69,2.12-.31,4.23-.43,6.37-.43,20.82,0,41.64,0,62.47,0Zm-31.43,66.45c-.14,6.64,3.06,11.85,7.29,16.53,6.42,7.1,14.84,11.86,21.84,18.29,1.13,1.03,2.4.8,3.45-.2,5-4.76,10.85-8.47,16.14-12.87,3.6-2.99,6.86-6.33,9.35-10.41,4.83-7.91,4.48-16.43-1.15-23.4-6.41-7.94-17.88-8.65-24.93-1.47-1.11,1.13-1.73.7-2.6-.15-3.55-3.45-7.79-5.23-12.75-4.73-9.66.98-16.53,8.67-16.63,18.41Z"/></g><path class="cls-7" d="m227.32,468.02c12.96.33,25.2-.79,37.41-2.28,9.16-1.12,16.19-7.96,17.96-17.84.47-2.63,1.49-3.68,4.09-4.27,10.16-2.28,20.26-4.84,30.38-7.31,4.41-1.08,8.22-.04,11.23,3.37,4.25,4.81,3.19,12.38-2.28,16.18-5.9,4.1-11.88,8.08-17.82,12.13-10.63,7.25-21.19,14.6-31.9,21.74-6.96,4.64-13.79,9.45-20.76,14.06-5.07,3.34-10.63,5.16-16.66,5.41-3.87.16-7.64-.79-11.43-1.42-12.26-2.03-24.52-4.06-36.79-6.05-1.73-.28-3.18-.93-4.51-2.08-9.98-8.62-20-17.22-30.01-25.81-3.63-3.12-7.3-6.2-10.93-9.32-1.34-1.15-1.3-1.27.15-2.18,9.39-5.88,18.83-11.69,28.16-17.66,5.46-3.49,10.92-6.97,16.45-10.35,4.97-3.03,10.2-5.27,16.19-4.84,3.69.27,7.37.73,11.06,1.09,4.67.46,9.34.88,14,1.37,6.3.66,12.58,1.4,18.88,2.06,3.73.39,7.47.72,11.2,1.04,4.34.37,7.69,2.74,8.85,6.32,1.95,6.03-1.74,11.5-8.2,12.42-13.23,1.88-26.52,2.64-39.87,2.23-2.81-.09-5.62-.44-8.44-.23-2.92.22-5.19,2.26-5.49,4.78-.51,4.24,1.97,6.47,4.11,6.98,1.49.36,3.07.42,4.61.45,3.66.06,7.33.02,10.35.02Z"/><path class="cls-7" d="m319,366.39c-.39,29.63-22.86,52.39-52.15,52.54-30.16.15-52.42-22.94-52.63-52.72-.19-27.24,21.91-51.99,52.4-51.98,29.11,0,51.9,22.81,52.37,52.16Zm-25.48-5.83c0-2.03-1.25-3.67-3.3-3.94-3.44-.47-6.88-.91-10.34-1.11-2.66-.15-4.46-1.04-5.48-3.68-1.21-3.15-2.77-6.16-4.12-9.26-.72-1.65-1.9-2.56-3.67-2.57-1.8-.01-2.93.97-3.64,2.6-1.37,3.14-2.93,6.2-4.18,9.38-1.02,2.6-2.89,3.37-5.47,3.52-3.27.19-6.53.65-9.79,1-1.91.2-3.27,1.11-3.8,3.03-.53,1.92.48,3.2,1.82,4.39,2.71,2.39,5.34,4.87,8.08,7.23,1.23,1.06,1.5,2.17,1.14,3.72-.86,3.79-1.61,7.62-2.34,11.44-.55,2.86,1.58,5.17,4.33,4.77.9-.13,1.67-.61,2.44-1.05,2.94-1.67,5.88-3.33,8.77-5.08,1.67-1.01,3.18-1.12,4.83.04,1.22.86,2.58,1.54,3.89,2.26,2.14,1.18,4.14,2.6,6.41,3.52,2.96,1.2,5.61-.7,5.43-3.87-.03-.56-.1-1.12-.2-1.67-.69-3.54-1.35-7.1-2.14-10.62-.32-1.42,0-2.4,1.1-3.34,2.74-2.35,5.43-4.77,8.11-7.2,1.04-.94,2.11-1.91,2.12-3.49Z"/><path class="cls-7" d="m157.15,528.79c-1.4.15-2.49-.57-3.5-1.45-6.21-5.38-12.4-10.78-18.64-16.13-5.28-4.52-10.61-8.98-15.91-13.46-2.72-2.3-3.09-5.34-.73-8.04,4.48-5.13,9.08-10.15,13.62-15.21.72-.8,1.47-1.58,2.14-2.43.56-.72,1.04-.76,1.73-.15,4.65,4.03,9.33,8.01,13.99,12.03,8.95,7.73,17.88,15.49,26.85,23.21.82.7,1.1,1.14.24,2.11-4.89,5.52-9.69,11.11-14.53,16.66-1.38,1.58-2.84,3.06-5.24,2.86Z"/><g id="LSLlBJ"><path class="cls-1" d="m909.95,528.82c-7.79,0-15.58.09-23.37-.02-8.9-.13-17.78-.59-26.64-1.72-10.99-1.4-21.72-3.84-32.3-7.06-1.96-.6-3.93-1.19-5.86-1.88-1.77-.63-2.46-1.71-2.48-3.63-.01-1.08,0-2.17,0-3.26,0-34.37.02-68.74-.06-103.11,0-2.99.99-5.03,3.3-6.83,6.33-4.92,12.51-10.04,18.09-15.81,5.42-5.61,10.37-11.62,13.92-18.64,2.22-4.39,4.06-8.97,5.61-13.64,2.23-6.7,5.27-13.08,7.62-19.73,1.25-3.56,2.74-6.99,5.09-10,4.45-5.71,12.29-8.17,19.21-6.05,2.51.77,4.85,1.77,6.91,3.45,2.08,1.69,3.46,3.86,4.44,6.29,1.58,3.87,2.28,7.95,2.64,12.1.68,7.88-.11,15.69-1.06,23.5-1.04,8.54-2.54,17-4.27,25.42-.12.61-.32,1.2-.42,1.81-.14.77.17,1.16,1,1.15,1.94-.03,3.87-.02,5.81-.02,12.25,0,24.49,0,36.74-.01,5.91,0,11.36,1.4,16.02,5.21,3.44,2.82,5.9,6.32,7.16,10.62,1.74,5.9,1.2,11.57-1.8,16.96-.63,1.13-.54,1.83.46,2.78,3.37,3.18,6.39,6.63,8.05,11.08,1.84,4.93,1.44,9.67-.73,14.42-1.8,3.92-4.49,7.12-7.42,10.17-.73.76-.89,1.35-.48,2.33,1.64,3.91,2.99,7.87,2.86,12.23-.13,4.46-1.74,8.3-4.45,11.72-1.96,2.47-4.36,4.49-6.88,6.36-.74.55-.38,1.1-.15,1.64.95,2.17,1.82,4.35,2.22,6.71,1.12,6.5-.72,12.17-4.75,17.24-1.83,2.3-3.98,4.24-6.53,5.69-2.57,1.45-5.38,2.18-8.32,2.32-7.9.37-15.8.2-23.71.24-1.82.01-3.64,0-5.46,0,0-.01,0-.03,0-.04Z"/><path class="cls-1" d="m762.8,462.28c0-14.84,0-29.68,0-44.52,0-.93-.04-1.85.17-2.78.79-3.42,2.65-5.01,6.16-5.22.5-.03,1.01-.03,1.51-.03,11.55,0,23.09,0,34.64,0,1.7,0,1.75.06,1.73,1.77-.38,32.58-.1,65.16-.15,97.74,0,1.16,0,2.32.11,3.48.14,1.41-.25,1.81-1.65,1.93-.19.02-.39.02-.58.02-11.74,0-23.48,0-35.22-.02-3.29,0-6.05-2.26-6.6-5.31-.12-.64-.11-1.31-.11-1.97,0-15.03,0-30.06,0-45.1Z"/></g><rect class="cls-6" x="828.24" y="87.66" width="28.8" height="28.8" transform="translate(318.97 -565.94) rotate(45)"/><rect class="cls-6" x="315.25" y="606.65" width="31.51" height="31.51" transform="translate(537.05 -51.76) rotate(45)"/><circle class="cls-6" cx="991.8" cy="279.02" r="13.26"/><circle class="cls-6" cx="367.96" cy="114.25" r="13.26"/><circle class="cls-6" cx="168.93" cy="589.4" r="13.26"/><polygon class="cls-6" points="144.32 294.74 147.83 301.85 155.67 302.99 149.99 308.52 151.33 316.33 144.32 312.65 137.3 316.33 138.64 308.52 132.97 302.99 140.81 301.85 144.32 294.74"/><polygon class="cls-6" points="556.11 671.09 560.55 680.09 570.48 681.54 563.29 688.54 564.99 698.44 556.11 693.77 547.22 698.44 548.92 688.54 541.73 681.54 551.67 680.09 556.11 671.09"/><polygon class="cls-6" points="144.32 704.64 148.76 713.64 158.69 715.08 151.51 722.09 153.2 731.98 144.32 727.31 135.43 731.98 137.13 722.09 129.94 715.08 139.88 713.64 144.32 704.64"/><polygon class="cls-6" points="700.38 520.34 704.6 528.9 714.05 530.27 707.21 536.94 708.83 546.35 700.38 541.9 691.92 546.35 693.54 536.94 686.7 530.27 696.15 528.9 700.38 520.34"/><polygon class="cls-6" points="664.48 52.71 668.72 61.3 678.2 62.68 671.34 69.37 672.96 78.82 664.48 74.36 655.99 78.82 657.61 69.37 650.75 62.68 660.23 61.3 664.48 52.71"/><polygon class="cls-6" points="132.27 78.82 120.39 78.82 114.44 89.11 120.39 99.4 132.27 99.4 138.22 89.11 132.27 78.82"/><polygon class="cls-6" points="539.86 176.16 527.98 176.16 522.03 186.45 527.98 196.75 539.86 196.75 545.81 186.45 539.86 176.16"/><polygon class="cls-6" points="51.55 523.05 39.67 523.05 33.72 533.34 39.67 543.64 51.55 543.64 57.5 533.34 51.55 523.05"/><polygon class="cls-6" points="504.12 509.81 492.26 509.81 486.33 520.08 492.26 530.35 504.12 530.35 510.05 520.08 504.12 509.81"/><polygon class="cls-6" points="756.87 704.64 745.01 704.64 739.08 714.91 745.01 725.18 756.87 725.18 762.8 714.91 756.87 704.64"/><polygon class="cls-6" points="933.99 589.4 914.93 589.4 905.41 605.9 914.93 622.4 933.99 622.4 943.52 605.9 933.99 589.4"/></g></svg>