<svg width="38" height="38" viewBox="0 0 38 38" fill="none" xmlns="http://www.w3.org/2000/svg">
<path d="M18.7663 37.8642C29.1306 37.8642 37.5326 29.4623 37.5326 19.0979C37.5326 8.73359 29.1306 0.331635 18.7663 0.331635C8.40196 0.331635 0 8.73359 0 19.0979C0 29.4623 8.40196 37.8642 18.7663 37.8642Z" fill="white"/>
<path opacity="0.5" d="M25.1738 5.4604L14.0876 4.79206C12.3816 4.68653 10.7518 5.50144 9.80788 6.93192L3.68728 16.1949C2.7434 17.6195 2.63787 19.4428 3.40001 20.9671L8.36567 30.9042C9.12781 32.4344 10.6521 33.4369 12.3581 33.5424L23.4444 34.2108C25.1504 34.3163 26.7802 33.5014 27.7241 32.0709L33.8447 22.8079C34.7886 21.3833 34.8941 19.56 34.132 18.0358L29.1722 8.09859C28.41 6.56844 26.8857 5.56593 25.1797 5.4604H25.1738Z" fill="#BC2033"/>
<path d="M19.6626 5.07962L9.99512 8.0168C8.35944 8.51512 7.11657 9.84594 6.72963 11.5109L4.43734 21.3484C4.05041 23.0134 4.57804 24.7605 5.82679 25.9272L13.202 32.8275C14.4507 33.9941 16.2271 34.4104 17.8628 33.9121L27.5303 30.9749C29.1659 30.4766 30.4088 29.1457 30.7958 27.4808L33.088 17.6432C33.475 15.9783 32.9473 14.2312 31.6986 13.0645L24.3234 6.1642C23.0747 4.99754 21.2983 4.58129 19.6626 5.07962Z" fill="#BC2033"/>
<path d="M25.1512 21.852C25.1629 22.4031 25.0808 22.9483 24.8991 23.4701C24.3011 25.053 22.5364 25.8503 20.9535 25.2523C20.4493 25.0588 19.9979 24.7364 19.6579 24.3201C19.3999 24.0036 19.3061 23.9098 18.9954 24.2908C17.7173 25.8386 14.8095 25.8093 13.5197 24.2732C12.183 22.6786 12.9276 20.1108 14.8447 19.718C15.3019 19.6183 15.7827 19.63 16.2341 19.759C17.4301 20.1049 17.6001 21.0605 17.3363 22.0161C17.2425 22.3444 16.9845 22.2096 16.7735 22.2155C16.3631 22.2213 15.9996 22.233 16.1696 21.6057C16.24 21.2892 16.0465 20.9726 15.724 20.8964C15.724 20.8964 15.7182 20.8964 15.7123 20.8964C15.2902 20.7439 14.8153 20.8671 14.5163 21.2071C13.9184 21.9575 14.0415 23.048 14.786 23.6401C14.8564 23.6928 14.9267 23.7456 15.0088 23.7925C15.812 24.2088 16.7735 24.2146 17.5825 23.8042C18.1746 23.5052 18.5616 22.9131 18.6026 22.2506C18.6436 21.9165 18.7843 21.8461 19.0658 21.8754C19.0833 21.8754 19.1009 21.8754 19.1127 21.8754C19.6247 21.8715 19.953 22.1178 20.0976 22.6141C20.2969 23.4642 21.0532 24.0681 21.9267 24.0739C22.7768 24.1853 23.5565 23.5932 23.6679 22.7431C23.9083 21.553 23.6269 20.3218 22.8941 19.3545C22.3664 18.5748 22.3723 18.5982 23.1286 18.0471C23.4276 17.8302 23.5858 17.8419 23.8145 18.1409C24.6704 19.1845 25.1394 20.4977 25.1336 21.852H25.1512Z" fill="white" stroke="white" stroke-width="0.25" stroke-miterlimit="10"/>
<path d="M17.7239 15.811C19.0489 15.811 20.3738 15.811 21.6988 15.811C22.0388 15.811 22.373 15.7876 22.713 15.7348C23.6159 15.6 23.95 15.0841 23.7331 14.1929C23.5924 13.6419 23.311 13.1377 22.9065 12.739C22.7248 12.5514 22.7482 12.4517 22.9593 12.2993C23.7917 11.7013 23.8445 11.7013 24.4132 12.5631C24.7532 13.0321 24.9877 13.5774 25.105 14.146C25.4274 15.4006 24.677 16.6787 23.4224 17.0011C23.2289 17.0539 23.0296 17.0774 22.8303 17.0774C21.7633 17.177 20.7021 17.136 19.6351 17.136C17.5539 17.1418 15.4668 17.1301 13.3856 17.1477C12.9928 17.1477 12.8462 17.0598 12.8638 16.6435C12.8931 15.8169 12.8638 15.811 13.7139 15.811H17.7356H17.7239Z" fill="white" stroke="white" stroke-width="0.25" stroke-miterlimit="10"/>
<path d="M18.6404 26.2965C18.6404 26.0562 18.6229 25.8158 18.6404 25.5754C18.658 25.3644 18.5115 25.0243 18.7518 24.9716C19.1329 24.9129 19.5198 24.9071 19.9009 24.9598C20.0064 24.9598 19.9889 25.1123 19.9947 25.2061C20.024 25.8979 20.0533 26.5838 20.0944 27.2756C20.112 27.5277 20.0651 27.6391 19.7719 27.6508C18.488 27.686 18.488 27.6977 18.5935 26.4021V26.3083H18.6346L18.6404 26.2965Z" fill="white" stroke="white" stroke-width="0.25" stroke-miterlimit="10"/>
<path d="M18.2221 19.1382C18.2104 18.6047 18.6325 18.1709 19.166 18.1592C19.1777 18.1592 19.1895 18.1592 19.207 18.1592C19.7523 18.1709 20.1802 18.6223 20.1744 19.1617C20.1626 19.701 19.7171 20.1349 19.1777 20.1407C18.6501 20.1407 18.2221 19.7069 18.2221 19.1793C18.2221 19.1675 18.2221 19.1499 18.2221 19.1382Z" fill="white" stroke="white" stroke-width="0.25" stroke-miterlimit="10"/>
<path d="M24.8103 21.1255C24.8221 21.6766 24.74 22.2218 24.5582 22.7436C23.9602 24.3265 22.1956 25.1238 20.6127 24.5258C20.1085 24.3324 19.6571 24.0099 19.317 23.5937C19.0591 23.2771 18.9653 23.1833 18.6546 23.5644C17.3765 25.1121 14.4686 25.0828 13.1789 23.5468C11.8422 21.9521 12.5867 19.3843 14.5038 18.9915C14.9611 18.8918 15.4418 18.9036 15.8933 19.0325C17.0892 19.3784 17.2593 20.3341 16.9954 21.2897C16.9016 21.618 16.6437 21.4831 16.4326 21.489C16.0222 21.4949 15.6588 21.5066 15.8288 20.8793C15.8991 20.5627 15.6998 20.2461 15.3832 20.1699C15.3832 20.1699 15.3832 20.1699 15.3773 20.1699C14.9552 20.0175 14.4804 20.1406 14.1814 20.4806C13.5834 21.231 13.7065 22.3215 14.4511 22.9136C14.5214 22.9664 14.5918 23.0191 14.6738 23.066C15.477 23.4823 16.4385 23.4881 17.2475 23.0778C17.8397 22.7788 18.2266 22.1866 18.2676 21.5242C18.3087 21.19 18.4494 21.1196 18.7308 21.149C18.7484 21.149 18.7601 21.149 18.7777 21.149C19.2897 21.145 19.618 21.3913 19.7626 21.8877C19.9619 22.7377 20.7182 23.3416 21.5917 23.3474C22.4418 23.4588 23.2216 22.8667 23.3329 22.0166C23.5733 20.8265 23.2919 19.5954 22.5591 18.628C22.0314 17.8483 22.0373 17.8717 22.7936 17.3207C23.0926 17.1037 23.2509 17.1155 23.4795 17.4145C24.3355 18.458 24.8045 19.7712 24.7986 21.1255H24.8103Z" fill="#F79B36"/>
<path d="M17.3872 15.0846C18.7121 15.0846 20.0371 15.0846 21.362 15.0846C21.7021 15.0846 22.0362 15.0611 22.3763 15.0084C23.2791 14.8735 23.6133 14.3576 23.3964 13.4665C23.2557 12.9154 22.9743 12.4112 22.5697 12.0125C22.388 11.8249 22.4114 11.7253 22.6225 11.5728C23.455 10.9749 23.5078 10.9749 24.0764 11.8367C24.4165 12.3057 24.651 12.8509 24.7682 13.4196C25.0907 14.6742 24.3402 15.9522 23.0856 16.2747C22.8922 16.3274 22.6928 16.3509 22.4935 16.3509C21.4265 16.4506 20.3654 16.4095 19.2984 16.4095C17.2171 16.4154 15.13 16.4037 13.0488 16.4212C12.656 16.4212 12.5094 16.3333 12.527 15.9171C12.5563 15.0904 12.527 15.0904 13.3771 15.0904H17.3989L17.3872 15.0846Z" fill="#F79B36"/>
<path d="M18.3077 25.5701C18.3077 25.3297 18.2902 25.0893 18.3077 24.849C18.3253 24.6379 18.1788 24.3037 18.4191 24.2451C18.8002 24.1865 19.1871 24.1806 19.5682 24.2334C19.6737 24.2334 19.6561 24.3858 19.662 24.4796C19.6913 25.1714 19.7206 25.8573 19.7617 26.5491C19.7793 26.8012 19.7324 26.9126 19.4392 26.9243C18.1553 26.9595 18.1553 26.9712 18.2608 25.6756V25.5818H18.3019L18.3077 25.5701Z" fill="#F79B36"/>
<path d="M17.8854 18.4118C17.8736 17.8783 18.2957 17.4444 18.8292 17.4327C18.841 17.4327 18.8527 17.4327 18.8703 17.4327C19.4155 17.4444 19.8435 17.8959 19.8376 18.4352C19.8259 18.9746 19.3803 19.4084 18.841 19.4143C18.3133 19.4143 17.8854 18.9804 17.8854 18.4528C17.8854 18.4411 17.8854 18.4235 17.8854 18.4118Z" fill="#F79B36"/>
<path opacity="0.5" d="M30.453 15.5359C31.0326 15.5359 31.5024 15.0661 31.5024 14.4865C31.5024 13.9069 31.0326 13.4371 30.453 13.4371C29.8735 13.4371 29.4036 13.9069 29.4036 14.4865C29.4036 15.0661 29.8735 15.5359 30.453 15.5359Z" fill="white" stroke="white" stroke-width="0.25" stroke-miterlimit="10"/>
<path opacity="0.5" d="M16.1136 7.64332C16.6932 7.64332 17.163 7.17348 17.163 6.59391C17.163 6.01433 16.6932 5.54449 16.1136 5.54449C15.534 5.54449 15.0642 6.01433 15.0642 6.59391C15.0642 7.17348 15.534 7.64332 16.1136 7.64332Z" fill="white" stroke="white" stroke-width="0.25" stroke-miterlimit="10"/>
<path opacity="0.5" d="M8.59975 12.2779C9.17932 12.2779 9.64916 11.808 9.64916 11.2285C9.64916 10.6489 9.17932 10.1791 8.59975 10.1791C8.02018 10.1791 7.55034 10.6489 7.55034 11.2285C7.55034 11.808 8.02018 12.2779 8.59975 12.2779Z" fill="white" stroke="white" stroke-width="0.25" stroke-miterlimit="10"/>
<path opacity="0.5" d="M17.0368 28.0931C17.312 28.0931 17.5351 27.87 17.5351 27.5947C17.5351 27.3195 17.312 27.0964 17.0368 27.0964C16.7616 27.0964 16.5385 27.3195 16.5385 27.5947C16.5385 27.87 16.7616 28.0931 17.0368 28.0931Z" fill="white" stroke="white" stroke-width="0.25" stroke-miterlimit="10"/>
<path opacity="0.5" d="M24.0489 25.6236C24.227 25.6236 24.3714 25.4792 24.3714 25.3011C24.3714 25.123 24.227 24.9787 24.0489 24.9787C23.8709 24.9787 23.7265 25.123 23.7265 25.3011C23.7265 25.4792 23.8709 25.6236 24.0489 25.6236Z" fill="white" stroke="white" stroke-width="0.25" stroke-miterlimit="10"/>
<path opacity="0.5" d="M18.2089 13.1412C18.387 13.1412 18.5313 12.9969 18.5313 12.8188C18.5313 12.6407 18.387 12.4963 18.2089 12.4963C18.0308 12.4963 17.8865 12.6407 17.8865 12.8188C17.8865 12.9969 18.0308 13.1412 18.2089 13.1412Z" fill="white" stroke="white" stroke-width="0.25" stroke-miterlimit="10"/>
<path opacity="0.5" d="M27.6631 26.7635C27.7635 26.7635 27.8449 26.6821 27.8449 26.5818C27.8449 26.4814 27.7635 26.4 27.6631 26.4C27.5628 26.4 27.4814 26.4814 27.4814 26.5818C27.4814 26.6821 27.5628 26.7635 27.6631 26.7635Z" fill="white"/>
<path opacity="0.5" d="M23.5953 30.7926C23.9547 30.7926 24.2461 30.5012 24.2461 30.1418C24.2461 29.7824 23.9547 29.4911 23.5953 29.4911C23.2359 29.4911 22.9446 29.7824 22.9446 30.1418C22.9446 30.5012 23.2359 30.7926 23.5953 30.7926Z" fill="white" stroke="white" stroke-width="0.25" stroke-miterlimit="10"/>
<path opacity="0.5" d="M14.2615 31.1966C14.4816 31.1966 14.6601 31.0181 14.6601 30.7979C14.6601 30.5777 14.4816 30.3992 14.2615 30.3992C14.0413 30.3992 13.8628 30.5777 13.8628 30.7979C13.8628 31.0181 14.0413 31.1966 14.2615 31.1966Z" fill="white" stroke="white" stroke-width="0.25" stroke-miterlimit="10"/>
<path opacity="0.5" d="M5.18607 18.837C5.32205 18.837 5.4323 18.7267 5.4323 18.5907C5.4323 18.4548 5.32205 18.3445 5.18607 18.3445C5.05008 18.3445 4.93983 18.4548 4.93983 18.5907C4.93983 18.7267 5.05008 18.837 5.18607 18.837Z" fill="white" stroke="white" stroke-width="0.25" stroke-miterlimit="10"/>
<path opacity="0.5" d="M8.10348 27.8223L8.09988 28.35C8.09777 28.6608 8.34803 28.9145 8.65886 28.9166L9.18648 28.9202C9.49731 28.9223 9.75099 28.672 9.75311 28.3612L9.7567 27.8336C9.75882 27.5228 9.50856 27.2691 9.19773 27.267L8.67011 27.2634C8.35928 27.2613 8.10559 27.5115 8.10348 27.8223Z" fill="white" stroke="white" stroke-width="0.25" stroke-miterlimit="10"/>
<path opacity="0.5" d="M22.6669 10.5407L22.6633 11.0742C22.6612 11.3851 22.9115 11.6387 23.2223 11.6409L23.7558 11.6445C24.0666 11.6466 24.3203 11.3963 24.3224 11.0855L24.326 10.552C24.3282 10.2412 24.0779 9.98751 23.7671 9.9854L23.2336 9.98177C22.9228 9.97965 22.6691 10.2299 22.6669 10.5407Z" fill="white" stroke="white" stroke-width="0.25" stroke-miterlimit="10"/>
</svg>
