<svg width="25" height="27" viewBox="0 0 25 27" fill="none" xmlns="http://www.w3.org/2000/svg">
<path d="M23.6842 13.5019H21.0526C20.7035 13.5019 20.3689 13.6406 20.1222 13.8873C19.8753 14.1341 19.7367 14.4687 19.7367 14.8177C19.7367 15.1667 19.8753 15.5015 20.1222 15.7482C20.3689 15.9949 20.7035 16.1335 21.0526 16.1335V18.7651H19.4943C19.6501 18.3438 19.7323 17.8987 19.7367 17.4493C19.7369 16.5804 19.4502 15.7356 18.9212 15.0462C18.3923 14.3567 17.6506 13.861 16.8112 13.6363C15.9717 13.4115 15.0817 13.4699 14.2789 13.8025C13.476 14.1352 12.8055 14.7236 12.3712 15.4763C12.284 15.626 12.2272 15.7914 12.2042 15.9631C12.181 16.135 12.1921 16.3096 12.2366 16.4769C12.2811 16.6444 12.3583 16.8014 12.4637 16.9389C12.5691 17.0764 12.7007 17.1919 12.8509 17.2784C13.0008 17.365 13.1666 17.421 13.3385 17.4433C13.5104 17.4657 13.6848 17.4538 13.8521 17.4085C14.0193 17.3632 14.176 17.2854 14.3132 17.1793C14.4501 17.0733 14.5648 16.9412 14.6507 16.7907C14.7664 16.591 14.9323 16.4252 15.1322 16.31C15.332 16.1946 15.5586 16.1337 15.7893 16.1335C16.1383 16.1335 16.4729 16.2723 16.7198 16.519C16.9665 16.7657 17.1051 17.1003 17.1051 17.4493C17.1051 17.7983 16.9665 18.133 16.7198 18.3798C16.4729 18.6265 16.1383 18.7651 15.7893 18.7651C15.4402 18.7651 15.1057 18.9039 14.8589 19.1505C14.6121 19.3972 14.4735 19.732 14.4735 20.081C14.4735 20.4299 14.6121 20.7646 14.8589 21.0113C15.1057 21.258 15.4402 21.3968 15.7893 21.3968C16.1383 21.3968 16.4729 21.5354 16.7198 21.7821C16.9665 22.0288 17.1051 22.3636 17.1051 22.7126C17.1051 23.0616 16.9665 23.3962 16.7198 23.6429C16.4729 23.8897 16.1383 24.0284 15.7893 24.0284C15.5586 24.0282 15.3319 23.9673 15.1322 23.8519C14.9323 23.7367 14.7664 23.5708 14.6507 23.3712C14.565 23.2207 14.4501 23.0886 14.3132 22.9826C14.176 22.8765 14.0194 22.7986 13.8521 22.7534C13.6848 22.7081 13.5104 22.6962 13.3385 22.7185C13.1666 22.7409 13.001 22.7969 12.8509 22.8835C12.7007 22.97 12.5691 23.0855 12.4637 23.223C12.3583 23.3605 12.2813 23.5175 12.2366 23.685C12.1921 23.8524 12.181 24.0269 12.2042 24.1987C12.2272 24.3706 12.284 24.5359 12.3712 24.6856C12.8056 25.4383 13.4761 26.0266 14.2789 26.3594C15.0817 26.692 15.9717 26.7504 16.8112 26.5255C17.6506 26.3006 18.3923 25.8052 18.9212 25.1157C19.4502 24.4263 19.7369 23.5815 19.7367 22.7126C19.7323 22.2632 19.6501 21.8181 19.4943 21.3968H21.0526V25.3442C21.0526 25.6932 21.1911 26.0278 21.438 26.2746C21.6847 26.5213 22.0193 26.66 22.3684 26.66C22.7174 26.66 23.0519 26.5213 23.2988 26.2746C23.5456 26.0278 23.6842 25.6932 23.6842 25.3442V16.1335C24.0332 16.1335 24.3677 15.9948 24.6147 15.7481C24.8614 15.5013 25 15.1667 25 14.8177C25 14.4687 24.8614 14.1339 24.6147 13.8872C24.3677 13.6405 24.0332 13.5019 23.6842 13.5019ZM7.93426 12.5054C8.01896 12.8439 8.23457 13.1348 8.53376 13.3141C8.6819 13.403 8.84604 13.4617 9.01689 13.4871C9.18775 13.5125 9.36196 13.504 9.52946 13.4621C9.69707 13.4202 9.85472 13.3456 9.99357 13.2426C10.1322 13.1399 10.2495 13.0107 10.3383 12.8626C10.4271 12.7144 10.4859 12.5502 10.5112 12.3794C10.5366 12.2085 10.5282 12.0344 10.4862 11.8667L8.17448 2.61689C8.01224 1.96759 7.63764 1.39125 7.11008 0.979391C6.58264 0.567528 5.93267 0.34375 5.26336 0.34375C4.59415 0.34375 3.94418 0.567528 3.41663 0.979391C2.88918 1.39125 2.51458 1.96759 2.35234 2.61689L0.0393736 11.8667C-0.0453263 12.2051 0.00782089 12.5633 0.187291 12.8626C0.366649 13.1617 0.65756 13.3775 0.996024 13.4621C1.33438 13.5468 1.69264 13.4936 1.99172 13.3141C2.29091 13.1348 2.50664 12.8439 2.59134 12.5054L3.32924 9.55445H7.19668L7.93426 12.5054ZM3.98726 6.92282L4.90419 3.25555C4.93205 3.18282 4.98128 3.12016 5.0454 3.07608C5.10951 3.03199 5.18559 3.00827 5.26336 3.00827C5.34123 3.00827 5.41731 3.03188 5.48143 3.07608C5.54554 3.12016 5.59477 3.18282 5.62252 3.25555L6.539 6.92282H3.98726ZM14.4735 6.92282H15.7893C16.1382 6.92315 16.4726 7.0619 16.7193 7.30861C16.966 7.55533 17.1048 7.88976 17.1051 8.23863V9.55445C17.1051 9.90343 17.2436 10.2381 17.4906 10.4849C17.7373 10.7316 18.0718 10.8703 18.4209 10.8703C18.7699 10.8703 19.1045 10.7316 19.3514 10.4849C19.5981 10.2381 19.7367 9.90343 19.7367 9.55445V8.23863C19.7355 7.19202 19.3193 6.18871 18.5793 5.44868C17.8392 4.70865 16.8358 4.29231 15.7893 4.29119H14.4735C14.1244 4.29119 13.7898 4.42982 13.5431 4.67665C13.2962 4.92336 13.1577 5.25802 13.1577 5.607C13.1577 5.95599 13.2962 6.29065 13.5431 6.53747C13.7898 6.78419 14.1244 6.92282 14.4735 6.92282ZM9.21024 18.7651H7.89442C7.54555 18.7647 7.21101 18.6261 6.96429 18.3793C6.71769 18.1326 6.57894 17.7982 6.57861 17.4493V16.1335C6.57861 15.7845 6.43998 15.4499 6.19315 15.2032C5.94644 14.9564 5.61178 14.8177 5.2628 14.8177C4.91381 14.8177 4.57915 14.9564 4.33233 15.2032C4.08561 15.4499 3.94698 15.7845 3.94698 16.1335V17.4493C3.9481 18.4959 4.36433 19.4992 5.10436 20.2394C5.84439 20.9794 6.84781 21.3955 7.89442 21.3968H9.21024C9.55922 21.3968 9.89377 21.2581 10.1407 21.0114C10.3874 20.7647 10.526 20.4299 10.526 20.081C10.526 19.732 10.3874 19.3973 10.1407 19.1506C9.89377 18.9039 9.55922 18.7651 9.21024 18.7651Z" fill="#182A4F"/>
</svg>
