<?xml version="1.0" encoding="UTF-8"?><svg id="Layer_2" xmlns="http://www.w3.org/2000/svg" viewBox="0 0 192.05 158.77"><defs><style>.cls-1{fill:#fefefe;font-family:Baloo-Regular, Baloo;font-size:58.06px;}.cls-2{fill:#f50;}.cls-3{fill:#1bc1e8;}.cls-4{fill:#81c127;}.cls-5{opacity:.2;}</style></defs><g id="Layer_1-2"><g><path class="cls-5" d="m128.07,80.12h48.57c2.09,0,3.79,1.7,3.79,3.79v74.86h-56.15v-74.86c0-2.09,1.7-3.79,3.79-3.79Z"/><path class="cls-4" d="m139.69,80.12h48.57c2.09,0,3.79,1.7,3.79,3.79v74.86h-56.15v-74.86c0-2.09,1.7-3.79,3.79-3.79Z"/><path class="cls-5" d="m66.74,0h48.57C117.4,0,119.1,1.7,119.1,3.79v154.98h-56.15V3.79C62.95,1.7,64.65,0,66.74,0Z"/><path class="cls-3" d="m78.36,0h48.57C129.02,0,130.72,1.7,130.72,3.79v154.98h-56.15V3.79C74.57,1.7,76.27,0,78.36,0Z"/><path class="cls-5" d="m3.79,54.18h48.57c2.09,0,3.79,1.7,3.79,3.79v100.8H0V57.97c0-2.09,1.7-3.79,3.79-3.79Z"/><path class="cls-2" d="m15.41,54.18h48.57c2.09,0,3.79,1.7,3.79,3.79v100.8H11.62V57.97c0-2.09,1.7-3.79,3.79-3.79Z"/><text class="cls-1" transform="translate(91.23 54.28)"><tspan x="0" y="0">1</tspan></text><text class="cls-1" transform="translate(26.06 101.35)"><tspan x="0" y="0">2</tspan></text><text class="cls-1" transform="translate(151.37 125.06)"><tspan x="0" y="0">3</tspan></text></g></g></svg>