<?xml version="1.0" encoding="UTF-8"?><svg id="Layer_2" xmlns="http://www.w3.org/2000/svg" viewBox="0 0 72.8 95.49"><defs><style>.cls-1{fill:#fff;}</style></defs><g id="Graphic_Elements"><path class="cls-1" d="m62.64,30.23v-4.03C62.64,11.75,50.89,0,36.45,0S10.26,11.75,10.26,26.19v4.01c-5.86,1.21-10.26,6.39-10.26,12.61v39.81c0,7.11,5.76,12.87,12.87,12.87h47.05c7.11,0,12.87-5.76,12.87-12.87v-39.81c0-6.18-4.35-11.33-10.16-12.58ZM36.45,7c10.58,0,19.19,8.61,19.19,19.19v3.74H17.26v-3.74c0-10.58,8.61-19.19,19.19-19.19Zm6.65,76.36h-12.87l2.37-11.43c-1.98-1.27-3.3-3.48-3.3-6.01,0-3.95,3.2-7.15,7.15-7.15s7.15,3.2,7.15,7.15c0,2.36-1.16,4.44-2.93,5.74l2.43,11.69Z"/></g></svg>