<svg width="51" height="51" viewBox="0 0 51 51" fill="none" xmlns="http://www.w3.org/2000/svg">
<path d="M10.625 27.625C10.625 26.4978 11.0728 25.4168 11.8698 24.6198C12.6668 23.8228 13.7478 23.375 14.875 23.375H36.125C37.2522 23.375 38.3332 23.8228 39.1302 24.6198C39.9272 25.4168 40.375 26.4978 40.375 27.625V40.375C40.375 41.5022 39.9272 42.5832 39.1302 43.3802C38.3332 44.1772 37.2522 44.625 36.125 44.625H14.875C13.7478 44.625 12.6668 44.1772 11.8698 43.3802C11.0728 42.5832 10.625 41.5022 10.625 40.375V27.625Z" stroke="#CF1565" stroke-width="3" stroke-linecap="round" stroke-linejoin="round"/>
<circle cx="26" cy="30" r="2" fill="#CF1565"/>
<path d="M17 23.375V14.875C17 12.6207 17.8955 10.4587 19.4896 8.86459C21.0837 7.27053 23.2457 6.375 25.5 6.375C27.7543 6.375 29.9163 7.27053 31.5104 8.86459C33.1045 10.4587 34 12.6207 34 14.875V23.375" stroke="#CF1565" stroke-width="3" stroke-linecap="round" stroke-linejoin="round"/>
<rect x="25" y="29" width="2" height="10" rx="1" fill="#CF1565"/>
</svg>
