<?xml version="1.0" encoding="UTF-8"?><svg id="Layer_2" xmlns="http://www.w3.org/2000/svg" viewBox="0 0 129.94 163.94"><defs><style>.cls-1{fill:#fff;}.cls-2{fill:#ff7925;}.cls-3{fill:#db6421;}.cls-4{fill:#620a6d;opacity:.2;}.cls-5{opacity:.3;}</style></defs><g id="Graphic_Elements"><g><g><path class="cls-3" d="M116.17,163.93l-102.98-.03C5.9,163.86-.04,158.15,0,150.87L.65,34.41c.04-7.28,5.97-13.15,13.25-13.11l102.88,.57c7.28,.04,13.15,5.97,13.11,13.25l-.65,116.45c-.04,7.28-5.79,12.39-13.07,12.35Z"/><rect class="cls-2" x=".37" y="13.45" width="129.24" height="142.82" rx="11.85" ry="11.85" transform="translate(.47 -.36) rotate(.32)"/><rect class="cls-4" x="10.49" y="25.19" width="108.99" height="120.44" rx="2.56" ry="2.56" transform="translate(.48 -.36) rotate(.32)"/><g class="cls-5"><path class="cls-1" d="M32.35,50.4l-5.85,1.82c-.59-.39-1.17-.94-1.76-1.64-.59-.7-.88-1.68-.88-2.93,0-2.34,1.42-3.98,4.27-4.92l6.56-2.22h2.17c1.68,0,3,.49,3.98,1.46s1.46,2.3,1.46,3.98v30.5c-.43,.08-1.06,.18-1.9,.32-.84,.14-1.69,.21-2.55,.21s-1.63-.06-2.31-.18-1.26-.35-1.73-.7c-.47-.35-.83-.83-1.08-1.43-.25-.6-.38-1.4-.38-2.37v-21.9Z"/></g><g class="cls-5"><path class="cls-1" d="M92.58,39.85c2.23,0,4.2,.28,5.91,.85s3.18,1.34,4.39,2.31c1.21,.98,2.13,2.13,2.75,3.45,.62,1.33,.94,2.75,.94,4.27,0,4.1-2.32,8-6.97,11.71l-7.67,6.15h14.05c.23,.43,.46,.98,.67,1.64,.21,.66,.32,1.39,.32,2.17,0,1.41-.31,2.41-.94,3.01-.62,.61-1.44,.91-2.46,.91h-20.32c-.86-.59-1.53-1.34-2.02-2.25-.49-.92-.73-2-.73-3.25,0-1.33,.27-2.45,.82-3.37,.55-.92,1.15-1.65,1.82-2.2l8.08-6.91c1.01-.86,1.85-1.63,2.52-2.31,.66-.68,1.2-1.3,1.61-1.84,.41-.55,.7-1.05,.88-1.52s.26-.92,.26-1.35c0-1.09-.48-1.95-1.44-2.58s-2.14-.94-3.54-.94c-1.56,0-2.96,.24-4.19,.73-1.23,.49-2.25,1.01-3.07,1.55-.66-.47-1.21-1.05-1.64-1.76-.43-.7-.64-1.52-.64-2.46,0-2.03,.95-3.54,2.87-4.54,1.91-.99,4.49-1.49,7.73-1.49Z"/></g><g class="cls-5"><path class="cls-1" d="M63.55,94.53c4.49,0,7.9,.93,10.25,2.78,2.34,1.85,3.51,4.34,3.51,7.46,0,1.87-.5,3.46-1.49,4.77-1,1.31-2.18,2.29-3.54,2.96,.82,.31,1.58,.7,2.28,1.17,.7,.47,1.33,1.05,1.87,1.76,.55,.7,.97,1.52,1.29,2.46,.31,.94,.47,2.03,.47,3.28,0,1.68-.36,3.18-1.08,4.51-.72,1.33-1.73,2.46-3.02,3.39-1.29,.94-2.82,1.65-4.6,2.14-1.78,.49-3.72,.73-5.82,.73-4.06,0-7.12-.57-9.19-1.7-2.07-1.13-3.1-2.58-3.1-4.33,0-1.05,.25-1.96,.76-2.72,.51-.76,1.13-1.36,1.87-1.79,.78,.55,1.82,1.12,3.13,1.73,1.31,.61,3.01,.91,5.12,.91,1.99,0,3.46-.35,4.42-1.05,.96-.7,1.44-1.62,1.44-2.75s-.38-1.99-1.14-2.58c-.76-.58-2.08-.88-3.95-.88h-5.5c-.27-.43-.51-.96-.7-1.58s-.29-1.37-.29-2.23,.09-1.67,.26-2.31c.18-.64,.42-1.18,.73-1.61h5.5c2.81,0,4.22-1.07,4.22-3.22,0-1.01-.45-1.83-1.35-2.46s-2.24-.94-4.04-.94c-1.6,0-3.01,.18-4.22,.56-1.21,.37-2.21,.83-2.99,1.38-.66-.47-1.21-1.04-1.64-1.73-.43-.68-.64-1.49-.64-2.43,0-1.95,1.01-3.39,3.04-4.3,2.03-.92,4.74-1.38,8.14-1.38Z"/></g></g><path class="cls-2" d="M90.12,8.92h-.11s-5.2-5.48-5.2-5.48c-2-2.11-4.77-3.31-7.67-3.32L55.92,0c-2.9-.02-5.69,1.15-7.71,3.24l-5.26,5.42h-.11c-6.5-.04-11.8,5.2-11.84,11.71-.04,6.5,5.21,11.8,11.71,11.84l47.27,.26c6.5,.04,11.8-5.21,11.84-11.71,.04-6.5-5.21-11.8-11.71-11.84ZM61.37,3.62l10.29,.06c1.08,0,1.95,.89,1.95,1.97,0,1.08-.89,1.95-1.97,1.95l-10.29-.06c-1.08,0-1.96-.89-1.95-1.97s.89-1.95,1.97-1.95Z"/></g></g></svg>