<svg width="39" height="38" viewBox="0 0 39 38" fill="none" xmlns="http://www.w3.org/2000/svg">
<path d="M19.6583 37.642C30.0226 37.642 38.4246 29.2401 38.4246 18.8757C38.4246 8.51138 30.0226 0.109421 19.6583 0.109421C9.29394 0.109421 0.891983 8.51138 0.891983 18.8757C0.891983 29.2401 9.29394 37.642 19.6583 37.642Z" fill="white"/>
<path opacity="0.5" d="M26.2453 4.66368L14.9562 3.9834C13.2496 3.87784 11.6193 4.693 10.6751 6.12393L4.44121 15.554C3.49703 16.9791 3.39147 18.8029 4.15385 20.3277L9.20902 30.4439C9.9714 31.9745 11.4962 32.9773 13.2027 33.0829L24.4918 33.7632C26.1984 33.8687 27.8287 33.0536 28.7729 31.6226L35.0068 22.1867C35.951 20.7616 36.0624 18.9378 35.2942 17.413L30.239 7.29683C29.4766 5.7662 27.9519 4.76338 26.2453 4.65782V4.66368Z" fill="#5ABBEA"/>
<path d="M20.6666 4.27102L10.8201 7.2619C9.18394 7.76038 7.94067 9.09161 7.55362 10.7571L5.21956 20.7795C4.83251 22.445 5.36031 24.1926 6.60944 25.3596L14.1218 32.3911C15.371 33.5582 17.1479 33.9746 18.7841 33.4761L28.6305 30.4852C30.2667 29.9867 31.5158 28.6555 31.9029 26.99L34.2369 16.9676C34.624 15.3021 34.0962 13.5603 32.8471 12.3874L25.3347 5.35595C24.0856 4.18892 22.3086 3.77254 20.6724 4.27102H20.6666Z" fill="#5ABBEA"/>
<path d="M13.8817 13.0486L13.8583 15.0484L13.7058 17.1831L13.2542 19.2708L12.8027 21.3586L12.4274 23.4639L12.0696 25.5692L9.44821 25.0356L9.47167 23.1883L9.85872 21.2882L10.0933 19.3646L10.7325 17.5056L10.7208 15.5527L10.2868 15.7932L9.67692 16.3503L8.85003 16.1392L8.02901 16.2096L8.592 13.9752L10.5273 13.2187L12.4625 12.943L13.8935 13.0545L13.8817 13.0486Z" fill="#0A3655"/>
<path d="M18.7447 23.1917L21.114 23.2562L23.4246 22.8457L23.5888 24.7868L21.847 25.1739L19.9938 25.2384L18.1876 25.7193H16.311L16.1819 24.8572V23.2503L17.044 22.0891L17.9178 21.1215L18.4984 19.9486L19.5188 19.4384L20.1639 18.7757L20.1287 17.9371L20.2519 17.2803L19.9411 16.0194L18.5101 16.0077L15.9767 17.4152L15.8066 15.3333L17.0499 14.2073L18.7858 13.7792L20.334 14.1252L21.6242 14.4595L22.2399 15.5444L22.6446 16.7583L22.8792 18.1834L22.0933 19.2273L21.5245 20.4178L20.2871 21.0277L19.7475 21.7607L19.0497 22.2123L18.6509 22.787L18.7388 23.1917H18.7447Z" fill="#0A3655"/>
<path d="M26.272 25.3893L25.7149 23.3309L28.4653 23.5537L29.9314 23.1725L29.8317 21.9586L29.4095 20.6626L27.5387 20.815L26.747 20.8737L26.055 19.1788L27.1868 19.2785L28.9872 17.3257L27.1399 16.2818L25.1343 17.4371L24.9408 15.496L27.4038 14.716L30.0956 14.5811L31.3213 16.4519L31.2333 18.3871L29.6616 19.519L29.6323 19.6539L31.5324 19.9999L32.5411 21.507L31.8022 24.0229L30.5355 24.9729L28.9872 25.3717L26.272 25.401V25.3893Z" fill="#0A3655"/>
<path d="M13.6026 12.3798L13.3211 14.4617L13.1687 16.5964L12.8637 18.7076L12.0544 20.7367L12.1013 22.9065L11.7377 25.2288L9.04008 24.402L9.06354 22.6192L9.55615 20.7367L9.84351 18.819L10.4182 16.9482L10.1895 14.966L9.83178 15.2299L9.08113 15.2065L8.41258 15.8164L7.70885 15.6404L7.83787 13.2653L10.0488 12.6261L12.0016 12.2391L13.6085 12.3739L13.6026 12.3798Z" fill="#FCBE2D"/>
<path d="M18.2973 22.6915L20.6313 22.3807L23.0592 22.1227L23.0944 24.1576L21.4054 24.6444L19.5229 24.4274L17.7401 25.1194L15.8987 25.008V24.2456L16.0394 22.7502L16.3503 21.3427L17.2065 20.2695L18.3383 19.6713L18.7957 18.5922L19.7165 18.1817L19.6461 17.3373L20.127 16.657L19.5053 15.4254L18.0686 15.4078L15.6055 16.7801L15.0894 14.7334L16.6669 13.7658L18.3676 13.3787L19.8865 13.5664L21.2706 13.7482L22.1561 14.7628L22.3144 16.1644L21.9977 17.4839L21.7045 18.6802L21.0418 19.7945L19.9452 20.5627L19.1652 21.026L18.7957 21.7884L18.5494 22.3748L18.309 22.6974L18.2973 22.6915Z" fill="#F05822"/>
<path d="M25.8614 24.7804L25.5799 22.8217L28.0547 23.1208L29.5033 22.593L29.7026 21.3145L28.8523 20.3704L27.1164 20.3352L25.9083 20.6108L25.879 18.6814L26.7118 18.523L28.4828 16.752L26.7587 16.0248L24.5419 16.9572L24.5067 14.9105L26.8936 13.7435L29.6381 14.025L30.6468 15.9016L30.7758 17.7783L29.1807 18.8339L29.1924 18.8925L31.2567 19.174L32.2771 20.8806L31.3212 23.3964L30.1073 24.4051L28.5708 24.9095L25.8614 24.7922V24.7804Z" fill="#8BC656"/>
<path opacity="0.5" d="M32.1274 19.3828C32.7072 19.3828 33.1772 18.9129 33.1772 18.3331C33.1772 17.7533 32.7072 17.2834 32.1274 17.2834C31.5477 17.2834 31.0777 17.7533 31.0777 18.3331C31.0777 18.9129 31.5477 19.3828 32.1274 19.3828Z" fill="white" stroke="white" stroke-width="0.25" stroke-miterlimit="10"/>
<path opacity="0.5" d="M20.1379 7.22628C20.7176 7.22628 21.1876 6.7563 21.1876 6.17654C21.1876 5.59679 20.7176 5.1268 20.1379 5.1268C19.5581 5.1268 19.0881 5.59679 19.0881 6.17654C19.0881 6.7563 19.5581 7.22628 20.1379 7.22628Z" fill="white" stroke="white" stroke-width="0.25" stroke-miterlimit="10"/>
<path opacity="0.5" d="M11.5733 10.4029C12.1531 10.4029 12.623 9.93288 12.623 9.35312C12.623 8.77337 12.1531 8.30338 11.5733 8.30338C10.9935 8.30338 10.5236 8.77337 10.5236 9.35312C10.5236 9.93288 10.9935 10.4029 11.5733 10.4029Z" fill="white" stroke="white" stroke-width="0.25" stroke-miterlimit="10"/>
<path opacity="0.5" d="M21.0568 27.6879C21.3321 27.6879 21.5553 27.4647 21.5553 27.1894C21.5553 26.9141 21.3321 26.6909 21.0568 26.6909C20.7815 26.6909 20.5583 26.9141 20.5583 27.1894C20.5583 27.4647 20.7815 27.6879 21.0568 27.6879Z" fill="white" stroke="white" stroke-width="0.25" stroke-miterlimit="10"/>
<path opacity="0.5" d="M23.976 20.8403C24.1541 20.8403 24.2985 20.6959 24.2985 20.5178C24.2985 20.3396 24.1541 20.1952 23.976 20.1952C23.7979 20.1952 23.6534 20.3396 23.6534 20.5178C23.6534 20.6959 23.7979 20.8403 23.976 20.8403Z" fill="white" stroke="white" stroke-width="0.25" stroke-miterlimit="10"/>
<path opacity="0.5" d="M22.2248 12.7237C22.4029 12.7237 22.5473 12.5793 22.5473 12.4012C22.5473 12.223 22.4029 12.0786 22.2248 12.0786C22.0467 12.0786 21.9023 12.223 21.9023 12.4012C21.9023 12.5793 22.0467 12.7237 22.2248 12.7237Z" fill="white" stroke="white" stroke-width="0.25" stroke-miterlimit="10"/>
<path opacity="0.5" d="M31.6953 26.3459C31.7957 26.3459 31.8771 26.2645 31.8771 26.1641C31.8771 26.0637 31.7957 25.9823 31.6953 25.9823C31.5949 25.9823 31.5135 26.0637 31.5135 26.1641C31.5135 26.2645 31.5949 26.3459 31.6953 26.3459Z" fill="white"/>
<path opacity="0.5" d="M27.6235 30.3875C27.983 30.3875 28.2745 30.0961 28.2745 29.7366C28.2745 29.377 27.983 29.0856 27.6235 29.0856C27.264 29.0856 26.9726 29.377 26.9726 29.7366C26.9726 30.0961 27.264 30.3875 27.6235 30.3875Z" fill="white" stroke="white" stroke-width="0.25" stroke-miterlimit="10"/>
<path opacity="0.5" d="M16.9986 32.7217C17.2188 32.7217 17.3974 32.5432 17.3974 32.3229C17.3974 32.1027 17.2188 31.9242 16.9986 31.9242C16.7783 31.9242 16.5998 32.1027 16.5998 32.3229C16.5998 32.5432 16.7783 32.7217 16.9986 32.7217Z" fill="white" stroke="white" stroke-width="0.25" stroke-miterlimit="10"/>
<path opacity="0.5" d="M9.21008 18.4276C9.34612 18.4276 9.45639 18.3173 9.45639 18.1813C9.45639 18.0452 9.34612 17.935 9.21008 17.935C9.07405 17.935 8.96378 18.0452 8.96378 18.1813C8.96378 18.3173 9.07405 18.4276 9.21008 18.4276Z" fill="white" stroke="white" stroke-width="0.25" stroke-miterlimit="10"/>
<path opacity="0.5" d="M10.7468 29.4691L10.7432 29.9969C10.7411 30.3078 10.9914 30.5616 11.3024 30.5637L11.8302 30.5673C12.1411 30.5694 12.3949 30.3191 12.397 30.0081L12.4006 29.4804C12.4027 29.1694 12.1523 28.9157 11.8414 28.9135L11.3136 28.91C11.0027 28.9078 10.7489 29.1582 10.7468 29.4691Z" fill="white" stroke="white" stroke-width="0.25" stroke-miterlimit="10"/>
<path opacity="0.5" d="M26.6909 10.1349L26.6873 10.6686C26.6851 10.9795 26.9355 11.2333 27.2464 11.2354L27.7801 11.239C28.091 11.2411 28.3447 10.9908 28.3469 10.6799L28.3505 10.1462C28.3526 9.83529 28.1023 9.58152 27.7914 9.5794L27.2577 9.57577C26.9468 9.57366 26.693 9.82399 26.6909 10.1349Z" fill="white" stroke="white" stroke-width="0.25" stroke-miterlimit="10"/>
<path d="M20.0947 28.0401L20.0771 28.8025L20.1064 29.5766L20.083 30.3507L19.8719 31.1131L19.9774 31.893L19.9422 32.7434L18.9394 32.5557L18.8749 31.9106L18.9746 31.2128L18.998 30.509L19.1271 29.8112L18.9629 29.1074L18.8456 29.2188L18.5758 29.2423L18.3588 29.4886L18.1008 29.4534L18.048 28.5914L18.8162 28.2688L19.5024 28.0518L20.083 28.0342L20.0947 28.0401Z" fill="white"/>
</svg>
