<svg width="21" height="21" viewBox="0 0 21 21" fill="none" xmlns="http://www.w3.org/2000/svg">
<path d="M4.375 11.375C4.375 10.9109 4.55937 10.4658 4.88756 10.1376C5.21575 9.80937 5.66087 9.625 6.125 9.625H14.875C15.3391 9.625 15.7842 9.80937 16.1124 10.1376C16.4406 10.4658 16.625 10.9109 16.625 11.375V16.625C16.625 17.0891 16.4406 17.5342 16.1124 17.8624C15.7842 18.1906 15.3391 18.375 14.875 18.375H6.125C5.66087 18.375 5.21575 18.1906 4.88756 17.8624C4.55937 17.5342 4.375 17.0891 4.375 16.625V11.375Z" fill="#DFDFDF" stroke="#878787" stroke-width="1.5" stroke-linecap="round" stroke-linejoin="round"/>
<circle cx="10.5" cy="12.5" r="1.5" fill="#878787"/>
<path d="M7 9.625V6.125C7 5.19674 7.36875 4.3065 8.02513 3.65013C8.6815 2.99375 9.57174 2.625 10.5 2.625C11.4283 2.625 12.3185 2.99375 12.9749 3.65013C13.6313 4.3065 14 5.19674 14 6.125V9.625" stroke="#878787" stroke-width="1.5" stroke-linecap="round" stroke-linejoin="round"/>
<rect x="10" y="12" width="1" height="4" rx="0.5" fill="#878787"/>
</svg>
