<svg width="26" height="22" viewBox="0 0 26 22" fill="none" xmlns="http://www.w3.org/2000/svg">
<path fill-rule="evenodd" clip-rule="evenodd" d="M0 16.6033V2.44686C0 1.05206 1.14977 -0.0810191 2.57171 0.00454839C3.83832 0.0807679 5.3363 0.231416 6.48635 0.528534C7.84745 0.88019 9.46502 1.62918 10.7444 2.29148C11.1428 2.49773 11.5663 2.64078 12 2.72142V22C11.6069 21.9152 11.2235 21.7782 10.8613 21.5892C9.56468 20.9127 7.88928 20.128 6.48635 19.7656C5.34902 19.4717 3.87141 19.3212 2.61382 19.2441C1.17539 19.1561 0 18.0144 0 16.6033ZM4.12801 6.60596C3.60671 6.47837 3.07846 6.78868 2.94814 7.29908C2.81781 7.80946 3.13476 8.32666 3.65607 8.45426L8.84515 9.72436C9.36644 9.852 9.89469 9.54159 10.025 9.03126C10.1553 8.52087 9.8384 8.00367 9.31709 7.87608L4.12801 6.60596ZM4.12801 11.6864C3.60671 11.5588 3.07846 11.8692 2.94814 12.3795C2.81781 12.8899 3.13476 13.4071 3.65607 13.5347L8.84515 14.8048C9.36644 14.9325 9.89469 14.622 10.025 14.1117C10.1553 13.6014 9.8384 13.0842 9.31709 12.9565L4.12801 11.6864Z" fill="#182A4F"/>
<path fill-rule="evenodd" clip-rule="evenodd" d="M14 22C14.393 21.9154 14.7762 21.7791 15.1383 21.5907C16.4349 20.9162 18.1103 20.134 19.5134 19.7728C20.6507 19.4798 22.1284 19.3297 23.386 19.2529C24.8246 19.1652 26 18.027 26 16.6204V2.42663C26 1.06879 24.9022 -0.0458264 23.5117 0.00145059C22.0476 0.0512218 20.2229 0.19932 18.8647 0.596135C17.6873 0.940166 16.3159 1.63023 15.1982 2.26148C14.8202 2.47503 14.4161 2.63188 14 2.73136V22ZM22.3443 8.49695C22.8655 8.36975 23.1825 7.85418 23.0522 7.3454C22.9218 6.83661 22.3936 6.52727 21.8723 6.65446L16.683 7.92059C16.1616 8.04778 15.8447 8.56336 15.975 9.07214C16.1053 9.58086 16.6336 9.8903 17.155 9.76306L22.3443 8.49695ZM22.3443 13.5614C22.8655 13.4342 23.1825 12.9186 23.0522 12.4099C22.9218 11.9012 22.3936 11.5917 21.8723 11.719L16.683 12.9851C16.1616 13.1123 15.8447 13.6279 15.975 14.1366C16.1053 14.6454 16.6336 14.9548 17.155 14.8275L22.3443 13.5614Z" fill="#182A4F"/>
</svg>
