<svg width="55" height="39" viewBox="0 0 55 39" fill="none" xmlns="http://www.w3.org/2000/svg">
<path d="M23.3954 28.6344L8.40039 26.3984Z" fill="#AD3184" stroke="#AD3184" stroke-linecap="round" stroke-linejoin="round"/>
<path d="M29.4013 4.19595C29.7166 3.88056 30.0911 3.63039 30.5031 3.45971C30.9152 3.28902 31.3569 3.20117 31.8029 3.20117C32.2489 3.20117 32.6905 3.28902 33.1026 3.45971C33.5147 3.63039 33.8891 3.88056 34.2045 4.19595C34.5199 4.51133 34.77 4.88574 34.9407 5.29781C35.1114 5.70988 35.1992 6.15153 35.1992 6.59755C35.1992 7.04357 35.1114 7.48522 34.9407 7.89728C34.77 8.30935 34.5199 8.68377 34.2045 8.99915L27.7757 15.4295C27.6257 15.5796 27.5414 15.783 27.5414 15.9951C27.5414 16.2073 27.6257 16.4107 27.7757 16.5607L29.2861 18.0711C30.0091 18.7943 30.4153 19.775 30.4153 20.7975C30.4153 21.8201 30.0091 22.8008 29.2861 23.5239L27.7757 25.0343C27.6256 25.1843 27.4222 25.2686 27.2101 25.2686C26.9979 25.2686 26.7945 25.1843 26.6445 25.0343L13.3661 11.7575C13.2161 11.6075 13.1318 11.4041 13.1318 11.1919C13.1318 10.9798 13.2161 10.7764 13.3661 10.6263L14.8765 9.11595C15.5996 8.39293 16.5803 7.98676 17.6029 7.98676C18.6254 7.98676 19.6061 8.39293 20.3293 9.11595L21.8397 10.6263C21.9897 10.7763 22.1931 10.8606 22.4053 10.8606C22.6174 10.8606 22.8208 10.7763 22.9709 10.6263L29.4013 4.19595Z" fill="#AD3184" stroke="#AD3184" stroke-linecap="round" stroke-linejoin="round"/>
<path d="M14.4005 12.8008C11.5141 17.1368 8.04846 18.3368 3.86766 19.1176C3.72897 19.1429 3.59927 19.2039 3.49135 19.2947C3.38343 19.3854 3.30102 19.5027 3.25224 19.6349C3.20347 19.7672 3.19001 19.9099 3.21319 20.049C3.23638 20.1881 3.29541 20.3187 3.38446 20.428L15.0965 34.6408C15.3343 34.8934 15.6479 35.0619 15.9899 35.1208C16.3319 35.1797 16.6838 35.1257 16.9925 34.9672C20.3765 32.6488 25.6005 26.868 25.6005 24.0008" stroke="#AD3184" stroke-width="2" stroke-linecap="round" stroke-linejoin="round"/>
<path d="M9.00062 26.4988L22.501 28.9992L16 35L9.00062 26.4988Z" fill="#AD3184"/>
<path d="M41.8819 20.7148C42.1391 19.923 43.2593 19.923 43.5166 20.7148V20.7148C43.6316 21.0689 43.9616 21.3086 44.3339 21.3086V21.3086C45.1665 21.3086 45.5126 22.374 44.8391 22.8634V22.8634C44.5379 23.0822 44.4118 23.4701 44.5269 23.8242V23.8242C44.7842 24.616 43.8779 25.2744 43.2044 24.7851V24.7851C42.9032 24.5662 42.4953 24.5662 42.1941 24.7851V24.7851C41.5205 25.2744 40.6143 24.616 40.8715 23.8242V23.8242C40.9866 23.4701 40.8606 23.0822 40.5593 22.8634V22.8634C39.8858 22.374 40.232 21.3086 41.0645 21.3086V21.3086C41.4368 21.3086 41.7668 21.0689 41.8819 20.7148V20.7148Z" fill="#F55376"/>
<path d="M50.0635 23.1558C50.2636 22.5399 51.1348 22.5399 51.3349 23.1558V23.1558C51.4244 23.4312 51.6811 23.6177 51.9707 23.6177V23.6177C52.6182 23.6177 52.8874 24.4463 52.3636 24.8269V24.8269C52.1293 24.9971 52.0313 25.2988 52.1207 25.5742V25.5742C52.3208 26.1901 51.616 26.7022 51.0921 26.3216V26.3216C50.8578 26.1513 50.5406 26.1513 50.3063 26.3216V26.3216C49.7825 26.7022 49.0776 26.1901 49.2777 25.5742V25.5742C49.3672 25.2988 49.2691 24.9971 49.0349 24.8269V24.8269C48.511 24.4463 48.7802 23.6177 49.4278 23.6177V23.6177C49.7174 23.6177 49.974 23.4312 50.0635 23.1558V23.1558Z" fill="#FFC805"/>
<path d="M45.6543 28.8763C45.8258 28.3484 46.5726 28.3484 46.7441 28.8763V28.8763C46.8208 29.1123 47.0408 29.2722 47.289 29.2722V29.2722C47.8441 29.2722 48.0748 29.9824 47.6258 30.3086V30.3086C47.425 30.4545 47.341 30.7132 47.4177 30.9492V30.9492C47.5892 31.4771 46.985 31.916 46.536 31.5898V31.5898C46.3352 31.4439 46.0633 31.4439 45.8624 31.5898V31.5898C45.4134 31.916 44.8093 31.4771 44.9808 30.9492V30.9492C45.0575 30.7132 44.9734 30.4545 44.7726 30.3086V30.3086C44.3236 29.9824 44.5544 29.2722 45.1094 29.2722V29.2722C45.3576 29.2722 45.5776 29.1123 45.6543 28.8763V28.8763Z" fill="#F34D08"/>
</svg>
