<svg width="16" height="16" viewBox="0 0 16 16" fill="none" xmlns="http://www.w3.org/2000/svg">
<g clip-path="url(#clip0_1909_23163)">
<path d="M16.0008 12.9971C16.0008 13.395 15.8428 13.7765 15.5615 14.0578C15.2802 14.3391 14.8987 14.4971 14.5008 14.4971C14.103 14.4971 13.7215 14.3391 13.4402 14.0578C13.1589 13.7765 13.0008 13.395 13.0008 12.9971C13.0008 11.8778 13.974 10.3865 14.0846 10.2197C14.1302 10.1511 14.1921 10.0948 14.2647 10.0559C14.3373 10.017 14.4184 9.99666 14.5008 9.99666C14.5832 9.99666 14.6643 10.017 14.7369 10.0559C14.8096 10.0948 14.8714 10.1511 14.9171 10.2197C15.0277 10.3865 16.0008 11.8778 16.0008 12.9971ZM8.28145 7.77777C8.42235 7.63688 8.5015 7.44578 8.5015 7.24652C8.5015 7.04727 8.42235 6.85617 8.28145 6.71527C8.14056 6.57438 7.94946 6.49522 7.7502 6.49522C7.55095 6.49522 7.35985 6.57438 7.21895 6.71527C7.0804 6.85655 7.00329 7.04686 7.00443 7.24473C7.00556 7.44261 7.08485 7.63202 7.22502 7.77169C7.36519 7.91137 7.55488 7.98999 7.75276 7.99042C7.95064 7.99086 8.14067 7.91308 8.28145 7.77402V7.77777ZM2.35395 1.1434C2.26013 1.04966 2.13292 0.997035 2.00029 0.997094C1.86767 0.997153 1.7405 1.04989 1.64677 1.14371C1.55303 1.23753 1.5004 1.36475 1.50046 1.49737C1.50052 1.63 1.55326 1.75716 1.64708 1.8509L3.68458 3.8884L4.39145 3.18465L2.35395 1.1434ZM14.659 8.68903C14.7397 8.66206 14.8123 8.61491 14.8698 8.55204C14.9272 8.48916 14.9677 8.41266 14.9873 8.32977C15.0069 8.24688 15.005 8.16036 14.9817 8.07841C14.9585 7.99647 14.9147 7.92181 14.8546 7.86153L7.63645 0.643401C7.5427 0.549704 7.41557 0.49707 7.28302 0.49707C7.15047 0.49707 7.02334 0.549704 6.92958 0.643401L4.39145 3.18465L6.91833 5.7109C7.28801 5.51083 7.71736 5.45051 8.12786 5.54097C8.53836 5.63143 8.90259 5.86662 9.15393 6.20355C9.40528 6.54047 9.52696 6.95661 9.49672 7.37587C9.46648 7.79513 9.28634 8.18949 8.98924 8.48686C8.69214 8.78422 8.29793 8.96471 7.8787 8.99532C7.45947 9.02593 7.04322 8.90462 6.70608 8.65357C6.36893 8.40252 6.13342 8.0385 6.04259 7.62808C5.95177 7.21766 6.01171 6.78826 6.21145 6.4184L3.68458 3.8884L0.938328 6.63277C0.657045 6.91408 0.499023 7.29559 0.499023 7.6934C0.499023 8.09121 0.657045 8.47272 0.938328 8.75403L6.24395 14.0596C6.52526 14.3409 6.90677 14.499 7.30458 14.499C7.70239 14.499 8.0839 14.3409 8.3652 14.0596L13.2708 9.15403L14.659 8.68903Z" fill="white"/>
</g>
<defs>
<clipPath id="clip0_1909_23163">
<rect width="16" height="16" fill="white"/>
</clipPath>
</defs>
</svg>
