<svg width="16" height="16" viewBox="0 0 16 16" fill="none" xmlns="http://www.w3.org/2000/svg">
<g clip-path="url(#clip0_6_24226)">
<path d="M9.74793 11.9316L3.5 11Z" fill="white" stroke="white" stroke-linecap="round" stroke-linejoin="round"/>
<path d="M12.2506 1.74847C12.382 1.61706 12.538 1.51283 12.7097 1.44171C12.8814 1.37059 13.0654 1.33398 13.2513 1.33398C13.4371 1.33398 13.6211 1.37059 13.7928 1.44171C13.9645 1.51283 14.1205 1.61706 14.2519 1.74847C14.3834 1.87988 14.4876 2.03589 14.5587 2.20758C14.6298 2.37928 14.6664 2.5633 14.6664 2.74914C14.6664 2.93498 14.6298 3.119 14.5587 3.2907C14.4876 3.46239 14.3834 3.6184 14.2519 3.74981L11.5733 6.42914C11.5108 6.49165 11.4757 6.57642 11.4757 6.66481C11.4757 6.7532 11.5108 6.83797 11.5733 6.90047L12.2026 7.52981C12.5039 7.83111 12.6731 8.23974 12.6731 8.66581C12.6731 9.09188 12.5039 9.50051 12.2026 9.80181L11.5733 10.4311C11.5108 10.4936 11.426 10.5287 11.3376 10.5287C11.2492 10.5287 11.1645 10.4936 11.1019 10.4311L5.56928 4.89914C5.50679 4.83663 5.47168 4.75186 5.47168 4.66347C5.47168 4.57509 5.50679 4.49032 5.56928 4.42781L6.19861 3.79847C6.49991 3.49722 6.90854 3.32798 7.33461 3.32798C7.76068 3.32798 8.16931 3.49722 8.47061 3.79847L9.09994 4.42781C9.16245 4.4903 9.24722 4.5254 9.33561 4.5254C9.424 4.5254 9.50877 4.4903 9.57128 4.42781L12.2506 1.74847Z" fill="white" stroke="white" stroke-linecap="round" stroke-linejoin="round"/>
<path d="M5.99995 5.33301C4.79728 7.13967 3.35328 7.63967 1.61128 7.96501C1.55349 7.97556 1.49945 8.00099 1.45448 8.03879C1.40952 8.07659 1.37518 8.12546 1.35486 8.18057C1.33453 8.23569 1.32893 8.29515 1.33859 8.3531C1.34825 8.41104 1.37284 8.46547 1.40995 8.51101L6.28995 14.433C6.38907 14.5383 6.51973 14.6085 6.66222 14.633C6.80472 14.6575 6.95133 14.6351 7.07995 14.569C8.48995 13.603 10.6666 11.1943 10.6666 9.99967" stroke="white" stroke-linecap="round" stroke-linejoin="round"/>
<path d="M4.68823 11.3803L8.98011 11.7463L7.28231 14.819L4.68823 11.3803Z" fill="white"/>
</g>
<defs>
<clipPath id="clip0_6_24226">
<rect width="16" height="16" fill="white"/>
</clipPath>
</defs>
</svg>
