<svg width="24" height="24" viewBox="0 0 24 24" fill="none" xmlns="http://www.w3.org/2000/svg">
<g clip-path="url(#clip0_6371_161303)">
<path d="M21.3103 6.87845L17.1216 2.68876C16.9823 2.54943 16.8169 2.43892 16.6349 2.36351C16.4529 2.28811 16.2578 2.2493 16.0608 2.2493C15.8638 2.2493 15.6687 2.28811 15.4867 2.36351C15.3047 2.43892 15.1393 2.54943 15 2.68876L3.43969 14.25C3.2998 14.3888 3.18889 14.554 3.11341 14.736C3.03792 14.9181 2.99938 15.1133 3.00001 15.3103V19.5C3.00001 19.8978 3.15804 20.2794 3.43935 20.5607C3.72065 20.842 4.10218 21 4.50001 21H8.6897C8.88675 21.0006 9.08197 20.9621 9.26399 20.8866C9.44602 20.8111 9.61122 20.7002 9.75001 20.5603L21.3103 9.00001C21.4496 8.86072 21.5602 8.69534 21.6356 8.51333C21.711 8.33132 21.7498 8.13624 21.7498 7.93923C21.7498 7.74222 21.711 7.54713 21.6356 7.36512C21.5602 7.18311 21.4496 7.01774 21.3103 6.87845ZM4.81032 15L13.2806 6.5297L14.8444 8.09438L6.37501 16.5638L4.81032 15ZM4.50001 16.8103L7.1897 19.5H4.50001V16.8103ZM9.00001 19.1897L7.43532 17.625L15.9056 9.1547L17.4694 10.7194L9.00001 19.1897Z" fill="#F34D08"/>
</g>
<defs>
<clipPath id="clip0_6371_161303">
<rect width="24" height="24" fill="white"/>
</clipPath>
</defs>
</svg>
