<?xml version="1.0" encoding="UTF-8"?><svg id="Layer_2" xmlns="http://www.w3.org/2000/svg" viewBox="0 0 77.73 140.28"><defs><style>.cls-1{fill:#008cd2;}.cls-2{fill:#ffc000;}.cls-3{fill:#fbfffc;}.cls-4{fill:#ff7925;}.cls-5{fill:#8b6237;}.cls-6{fill:#271006;}</style></defs><g id="Graphic_Elements"><g><path class="cls-1" d="M77.73,98.16c0-7.51-6.09-13.6-13.6-13.6H13.6c-7.51,0-13.6,6.09-13.6,13.6v3.08c0,21.33,17.11,38.92,38.44,39.04,.14,0,.28,0,.43,0s.28,0,.43,0c21.33-.12,38.44-17.71,38.44-39.04v-3.08Z"/><path class="cls-4" d="M18.72,77.05s5.35-3.78,20.92-3.83,21.59,3.83,21.59,3.83l-11.21,14.45-9.08,9.13-9.18-2.94-13.04-20.65Z"/><rect class="cls-3" x="33.28" y="89.17" width="13.18" height="7.83"/><path class="cls-5" d="M47.01,74.45v-8.62h-15.22v8.52c0,3.47-2.17,6.56-5.43,7.74l-.36,.13v5.88c9.19,3.51,18.05,3.81,26.52,0v-5.88h0c-3.3-1.16-5.51-4.27-5.51-7.77Z"/><path class="cls-2" d="M61.4,77.12c-.06-.02-.11-.05-.17-.07,0,0-11.38,3.23-15.59,11.73-4.22,8.5-5.66,7.87-5.66,7.87,0,0-1.45,.63-5.66-7.87-4.22-8.5-15.59-11.73-15.59-11.73-.06,.02-.11,.05-.17,.07-3.79,1.69-4.8,6.42-2.13,9.51,1.51,1.74,4.88,4.16,8.97,9.82,10.44,14.39,18.73,14.39,29.17,0,4.1-5.65,7.47-8.07,8.97-9.82,2.67-3.09,1.65-7.83-2.13-9.51Z"/><path class="cls-6" d="M72.42,39.84c0-2.74-1.74-5.07-4.18-5.96,1-1.12,1.62-2.6,1.62-4.23,0-2.4-1.33-4.49-3.29-5.57,1.18-1.15,1.92-2.76,1.92-4.54,0-3.51-2.85-6.36-6.36-6.36-.09,0-.18,0-.26,.01,.03-.24,.05-.49,.05-.74,0-3.51-2.85-6.35-6.36-6.35-.01,0-.02,0-.04,0-.93-2.35-3.22-4.02-5.9-4.02-1.4,0-2.7,.46-3.75,1.23-1.16-1.26-2.82-2.06-4.67-2.06-1.74,0-3.32,.7-4.47,1.84-1.11-1.85-3.13-3.1-5.45-3.1-3.43,0-6.22,2.72-6.34,6.13-.18-.02-.36-.03-.54-.03-3.07,0-5.64,2.18-6.23,5.08-.32-.05-.64-.08-.97-.08-3.51,0-6.36,2.85-6.36,6.36,0,1.48,.51,2.83,1.36,3.91-1.89,1.1-3.17,3.14-3.17,5.49,0,1.38,.45,2.66,1.2,3.7-2.4,.91-4.11,3.22-4.11,5.94,0,3,2.08,5.5,4.87,6.17-.09,.43-.15,.88-.15,1.34,0,1.35,.43,2.6,1.15,3.64-.08,.4-.12,.82-.12,1.24,0,3.51,2.85,6.36,6.36,6.36,2.57,0,4.78-1.53,5.78-3.72,1.73,.9,3.7,1.41,5.78,1.41h21.15c1.59,0,3.11-.31,4.51-.85,1.03,2.12,3.2,3.59,5.71,3.59,3.51,0,6.35-2.85,6.35-6.36,0-1.15-.31-2.23-.85-3.16,3.23-.3,5.76-3.01,5.76-6.33ZM35.88,11.1h-.38c.08-.07,.17-.15,.25-.22,.05,.08,.09,.15,.14,.22Z"/><path class="cls-5" d="M60.06,52.34c0,14.78-11.87,26.92-21.05,26.92s-19.88-12.14-19.88-26.92-2.01-25.71,19.88-25.71,21.05,10.93,21.05,25.71Z"/><rect class="cls-5" x="57.34" y="47.9" width="5.43" height="10.07" rx="2.72" ry="2.72"/><rect class="cls-5" x="16.37" y="47.9" width="5.43" height="10.07" rx="2.72" ry="2.72"/><path class="cls-6" d="M53.46,47.2H25.48c-.63,0-1.14,.51-1.14,1.14v.46c0,3.5,2.84,6.34,6.34,6.34s6.34-2.84,6.34-6.34h4.92c0,3.5,2.84,6.34,6.34,6.34s6.34-2.84,6.34-6.34v-.46c0-.63-.51-1.14-1.14-1.14Z"/><rect class="cls-6" x="37.05" y="65.09" width="5.04" height="1.65" rx=".83" ry=".83"/><g><circle class="cls-4" cx="50.14" cy="95.5" r="2.52"/><path class="cls-3" d="M51.19,95.6c0-.58-.47-1.05-1.05-1.05s-1.05,.47-1.05,1.05v32.32h.6v3.38c0,.25,.2,.45,.45,.45s.45-.2,.45-.45v-3.38h.6v-32.32Z"/></g><g><circle class="cls-4" cx="29.6" cy="95.61" r="2.52"/><path class="cls-3" d="M30.65,95.72c0-.58-.47-1.05-1.05-1.05s-1.05,.47-1.05,1.05v32.32h.6v3.38c0,.25,.2,.45,.45,.45s.45-.2,.45-.45v-3.38h.6v-32.32Z"/></g></g></g></svg>