<?xml version="1.0" encoding="UTF-8"?><svg id="Layer_2" xmlns="http://www.w3.org/2000/svg" viewBox="0 0 138.65 143.97"><defs><style>.cls-1{fill:#0090d3;}.cls-2{fill:#fefefe;}</style></defs><g id="Layer_1-2"><path class="cls-1" d="m69.32,0C31.04,0,0,31.04,0,69.32c0,20.28,8.71,38.52,22.58,51.19l-10.39,23.45,57.13-5.32c38.29,0,69.32-31.04,69.32-69.32S107.61,0,69.32,0Z"/><path class="cls-2" d="m72.73,26.32c7.43,0,13.12,1.81,17.07,5.43,3.95,3.62,5.92,8.21,5.92,13.75,0,4.14-.99,7.74-2.96,10.79-1.97,3.06-4.7,6.33-8.18,9.8l-4.02,4.02c-1.08,1.08-1.95,2.05-2.61,2.89-.66.85-1.15,1.65-1.48,2.4-.33.75-.49,1.65-.49,2.68,0,.66.07,1.25.21,1.76.14.52.3,1.11.49,1.76l-13.97,2.26c-.28-.85-.54-1.86-.78-3.03-.24-1.17-.35-2.42-.35-3.74,0-3.2.8-5.95,2.4-8.25,1.6-2.3,3.81-4.91,6.63-7.83,1.41-1.41,2.63-2.7,3.67-3.88,1.03-1.17,1.88-2.3,2.54-3.39.66-1.08,1.15-2.16,1.48-3.24.33-1.08.49-2.33.49-3.74,0-1.88-.71-3.5-2.12-4.87-1.41-1.36-3.43-2.05-6.07-2.05-1.88,0-3.65.26-5.29.78-1.65.52-3.41,1.48-5.29,2.89l-5.92-11.14c2.44-1.88,5.24-3.36,8.39-4.44,3.15-1.08,6.56-1.62,10.23-1.62Zm-1.97,63.48c2.73,0,4.96.9,6.7,2.68,1.74,1.79,2.61,4.04,2.61,6.77s-.87,5.13-2.61,6.91c-1.74,1.79-3.97,2.68-6.7,2.68s-4.96-.89-6.7-2.68c-1.74-1.79-2.61-4.09-2.61-6.91s.87-4.98,2.61-6.77c1.74-1.79,3.97-2.68,6.7-2.68Z"/></g></svg>