<?xml version="1.0" encoding="UTF-8"?>
<svg id="Layer_2" data-name="Layer 2" xmlns="http://www.w3.org/2000/svg" viewBox="0 0 103.05 128">
  <defs>
    <style>
      .cls-1 {
        fill: #ffba00;
      }

      .cls-1, .cls-2 {
        stroke-width: 0px;
      }

      .cls-2 {
        fill: #f50;
      }
    </style>
  </defs>
  <g id="Layer_1-2" data-name="Layer 1">
    <g>
      <rect class="cls-2" x="79.09" y="22.56" width="11.44" height="20.57" rx="3.38" ry="3.38" transform="translate(36.41 -44.15) rotate(36.68)"/>
      <circle class="cls-2" cx="51.53" cy="76.47" r="32.61"/>
      <g>
        <rect class="cls-2" x="50.1" y="18.59" width="2.86" height="2.86"/>
        <polygon class="cls-1" points="59.96 11.59 43.1 11.59 43.1 28.45 59.96 28.45 59.96 11.59 59.96 11.59"/>
      </g>
      <rect class="cls-2" x="33.39" y="0" width="36.28" height="13.17" rx="3.56" ry="3.56"/>
      <rect class="cls-2" x="48.77" y="38.76" width="5.52" height="10.21" rx="2.76" ry="2.76"/>
      <rect class="cls-2" x="48.77" y="104.03" width="5.52" height="10.21" rx="2.76" ry="2.76"/>
      <rect class="cls-2" x="16.13" y="71.37" width="5.52" height="10.21" rx="2.76" ry="2.76" transform="translate(-57.58 95.37) rotate(-90)"/>
      <rect class="cls-2" x="81.4" y="71.37" width="5.52" height="10.21" rx="2.76" ry="2.76" transform="translate(7.69 160.64) rotate(-90)"/>
      <rect class="cls-2" x="43.26" y="72.46" width="5.52" height="20.51" rx="2.76" ry="2.76" transform="translate(16.46 172.63) rotate(-132.71)"/>
    </g>
    <path class="cls-2" d="M51.96,8v24.43l6.7,1.1c5.44.9,10.58,2.79,15.29,5.62l4.12,2.48,3.55,3.4c8.66,8.3,13.44,19.46,13.44,31.43,0,24-19.53,43.53-43.53,43.53S8,100.47,8,76.47c0-10.38,3.71-20.43,10.46-28.29,6.67-7.79,15.89-12.99,25.94-14.64l6.7-1.1V8h.86M66.11,0h-29.17c-1.96,0-3.56,1.59-3.56,3.56v6.05c0,1.96,1.59,3.56,3.56,3.56h6.15v12.47C18.65,29.67,0,50.89,0,76.47c0,28.46,23.07,51.53,51.53,51.53s51.53-23.07,51.53-51.53c0-14.63-6.11-27.83-15.9-37.21l6.36-8.54c1.12-1.5.81-3.62-.69-4.73l-3.75-2.79c-.61-.45-1.32-.67-2.02-.67-1.03,0-2.05.47-2.72,1.36l-6.27,8.41c-5.46-3.29-11.58-5.59-18.12-6.66v-12.47h6.15c1.96,0,3.56-1.59,3.56-3.56V3.56c0-1.96-1.59-3.56-3.56-3.56h0Z"/>
    <polygon class="cls-2" points="56.02 6.79 47.75 6.79 47.75 32.48 56.02 32.48 56.02 6.79 56.02 6.79"/>
  </g>
</svg>