<?xml version="1.0" encoding="UTF-8"?>
<svg id="Layer_2" data-name="Layer 2" xmlns="http://www.w3.org/2000/svg" viewBox="0 0 103.05 128">
  <defs>
    <style>
      .cls-1 {
        fill: #f50;
        stroke-width: 0px;
      }
    </style>
  </defs>
  <g id="Layer_1-2" data-name="Layer 1">
    <path class="cls-1" d="M51.96,8v24.43l6.7,1.1c5.44.9,10.58,2.79,15.29,5.62l4.12,2.48,3.55,3.4c8.66,8.3,13.44,19.46,13.44,31.43,0,24-19.53,43.53-43.53,43.53S8,100.47,8,76.47c0-10.38,3.71-20.43,10.46-28.29,6.67-7.79,15.89-12.99,25.94-14.64l6.7-1.1V8h.86M66.11,0h-29.17c-1.96,0-3.56,1.59-3.56,3.56v6.05c0,1.96,1.59,3.56,3.56,3.56h6.15v12.47C18.65,29.67,0,50.89,0,76.47c0,28.46,23.07,51.53,51.53,51.53s51.53-23.07,51.53-51.53c0-14.63-6.11-27.83-15.9-37.21l6.36-8.54c1.12-1.5.81-3.62-.69-4.73l-3.75-2.79c-.61-.45-1.32-.67-2.02-.67-1.03,0-2.05.47-2.72,1.36l-6.27,8.41c-5.46-3.29-11.58-5.59-18.12-6.66v-12.47h6.15c1.96,0,3.56-1.59,3.56-3.56V3.56c0-1.96-1.59-3.56-3.56-3.56h0Z"/>
    <polygon class="cls-1" points="56.02 6.79 47.75 6.79 47.75 32.48 56.02 32.48 56.02 6.79 56.02 6.79"/>
  </g>
</svg>