<?xml version="1.0" encoding="UTF-8"?><svg id="Layer_2" xmlns="http://www.w3.org/2000/svg" viewBox="0 0 601.38 591.57"><defs><style>.cls-1{opacity:.05;}.cls-2{opacity:.25;}.cls-2,.cls-3{fill:#fff;}.cls-3{opacity:.4;}</style></defs><g id="Layer_1-2"><g><circle class="cls-1" cx="296.4" cy="326.45" r="265.11"/><circle class="cls-1" cx="296.4" cy="326.45" r="174.28"/><g><path class="cls-2" d="m519.71,90.21c-2.4,0-4.74.24-7.01.67-5.43-21.18-24.64-36.84-47.52-36.84s-43.37,16.72-48.01,38.98c-4.19-1.38-8.66-2.14-13.31-2.14-21.45,0-39.18,15.93-42.01,36.6h-.41c0,26.64,21.59,48.23,48.23,48.23h99.09c26.64,0,48.23-21.59,48.23-48.23h0c0-20.58-16.69-37.27-37.27-37.27Z"/><path class="cls-3" d="m465.07,54.04c22.46,0,41.39,15.1,47.2,35.71,11.25-6.03,18.91-17.9,18.91-31.56,0-19.76-16.02-35.78-35.78-35.78-18.46,0-33.64,13.98-35.57,31.92,1.72-.18,3.47-.29,5.24-.29Z"/><path class="cls-3" d="m456.63,36.89c-.33,0-.66-.1-.94-.3l-9.65-6.89c-.73-.52-.9-1.53-.38-2.26.52-.73,1.53-.9,2.26-.38l9.65,6.89c.73.52.9,1.53.38,2.26-.32.44-.82.68-1.32.68Z"/><path class="cls-3" d="m474.8,20.73c-.55,0-1.09-.28-1.39-.79l-6.13-10.15c-.46-.77-.22-1.76.55-2.23.77-.47,1.77-.22,2.23.55l6.13,10.15c.46.77.22,1.76-.55,2.23-.26.16-.55.23-.84.23Z"/><path class="cls-3" d="m496.08,15.09c-.86,0-1.58-.68-1.62-1.55l-.57-11.84c-.04-.9.65-1.66,1.54-1.7.88-.03,1.66.65,1.7,1.54l.57,11.84c.04.9-.65,1.66-1.54,1.7-.03,0-.05,0-.08,0Z"/><path class="cls-3" d="m517.67,19.92c-.33,0-.66-.1-.94-.3-.73-.52-.9-1.53-.38-2.26l6.89-9.65c.52-.73,1.53-.9,2.26-.38.73.52.9,1.53.38,2.26l-6.89,9.65c-.32.44-.82.68-1.32.68Z"/><path class="cls-3" d="m535.35,34.95c-.62,0-1.2-.35-1.48-.95-.37-.81-.02-1.78.8-2.15l10.78-4.94c.81-.37,1.78-.02,2.15.8.37.81.02,1.78-.8,2.15l-10.78,4.94c-.22.1-.45.15-.68.15Z"/><path class="cls-3" d="m550.54,56.4c-.07,0-.14,0-.21-.01l-11.77-1.48c-.89-.11-1.52-.92-1.41-1.81.11-.89.92-1.52,1.81-1.41l11.77,1.48c.89.11,1.52.92,1.41,1.81-.1.82-.8,1.42-1.61,1.42Z"/><path class="cls-3" d="m542.34,84.85c-.26,0-.52-.06-.76-.19l-10.47-5.57c-.79-.42-1.09-1.4-.67-2.19.42-.79,1.4-1.09,2.2-.67l10.47,5.57c.79.42,1.09,1.4.67,2.19-.29.55-.85.86-1.44.86Z"/></g><rect class="cls-2" x="91.38" y="273.73" width="8.8" height="30.3" rx="4.4" ry="4.4"/><rect class="cls-2" x="180" y="194.89" width="8.8" height="30.3" rx="4.4" ry="4.4"/><rect class="cls-2" x="67.6" y="137.02" width="8.8" height="30.3" rx="4.4" ry="4.4"/><rect class="cls-2" x="0" y="225.18" width="8.8" height="30.3" rx="4.4" ry="4.4"/><rect class="cls-2" x="72" y="400.92" width="8.8" height="30.3" rx="4.4" ry="4.4"/><rect class="cls-2" x="405.94" y="390.85" width="8.8" height="30.3" rx="4.4" ry="4.4"/><rect class="cls-2" x="520.69" y="398.02" width="8.8" height="30.3" rx="4.4" ry="4.4"/><rect class="cls-2" x="592.58" y="340.89" width="8.8" height="30.3" rx="4.4" ry="4.4"/><rect class="cls-2" x="547.26" y="518.56" width="8.8" height="30.3" rx="4.4" ry="4.4"/><rect class="cls-2" x="433.95" y="478.45" width="8.8" height="30.3" rx="4.4" ry="4.4"/><rect class="cls-2" x="350.21" y="522.97" width="8.8" height="30.3" rx="4.4" ry="4.4"/><rect class="cls-2" x="166.48" y="478.45" width="8.8" height="30.3" rx="4.4" ry="4.4"/><rect class="cls-2" x="26.89" y="508.75" width="8.8" height="30.3" rx="4.4" ry="4.4"/><rect class="cls-2" x="196.45" y="339.01" width="8.8" height="30.3" rx="4.4" ry="4.4"/><rect class="cls-2" x="450.41" y="273.73" width="8.8" height="30.3" rx="4.4" ry="4.4"/><rect class="cls-2" x="526.71" y="286.6" width="8.8" height="30.3" rx="4.4" ry="4.4"/><rect class="cls-2" x="279.2" y="243.43" width="8.8" height="30.3" rx="4.4" ry="4.4"/><rect class="cls-2" x="440.96" y="185.06" width="8.8" height="30.3" rx="4.4" ry="4.4"/><rect class="cls-2" x="316.99" y="91.95" width="8.8" height="30.3" rx="4.4" ry="4.4"/><rect class="cls-2" x="200.85" y="83.51" width="8.8" height="30.3" rx="4.4" ry="4.4"/><rect class="cls-2" x="292.01" y="453.04" width="8.8" height="30.3" rx="4.4" ry="4.4"/><rect class="cls-2" x="338.33" y="316.89" width="8.8" height="30.3" rx="4.4" ry="4.4"/></g></g></svg>