<svg width="40" height="37" viewBox="0 0 40 37" fill="none" xmlns="http://www.w3.org/2000/svg">
<path d="M0.630249 26.6272V10.3077C0.630249 9.7774 1.16363 9.41306 1.65764 9.60595L19.0414 16.3934L36.7447 8.19441C37.248 7.96132 37.8222 8.3336 37.8147 8.88821L37.5849 25.8939C37.581 26.1777 37.4179 26.4354 37.163 26.5602L19.0414 35.437L1.07327 27.3136C0.803565 27.1917 0.630249 26.9231 0.630249 26.6272Z" fill="#F55376"/>
<path d="M19.0414 16.3934L36.7447 8.19441C37.248 7.96132 37.8221 8.3336 37.8147 8.88821L37.5849 25.8939C37.581 26.1777 37.4179 26.4354 37.163 26.5602L19.0414 35.437L1.07327 27.3136C0.803565 27.1917 0.630249 26.9231 0.630249 26.6272V10.3077C0.630249 9.7774 1.16363 9.41306 1.65764 9.60595L19.0414 16.3934ZM19.0414 35.437V16.3934" stroke="#F55376" stroke-width="0.376689"/>
<path d="M19.2397 35.4392L37.7203 26.0723" stroke="#DE264E" stroke-width="0.376689" stroke-linecap="round"/>
<path d="M18.4806 35.1868L0.908569 27.2617" stroke="#F55376" stroke-width="0.376689" stroke-linecap="round"/>
<path d="M0.506348 27.5927L19.2401 35.947L23.7969 33.6686L28.3538 31.3901L37.7206 26.5801" stroke="#292929" stroke-opacity="0.3" stroke-width="0.376689" stroke-linecap="round" stroke-linejoin="round"/>
<ellipse cx="2.17908" cy="19.8756" rx="0.681523" ry="0.90879" fill="#FFFF0B"/>
<ellipse cx="6.67127" cy="15.8834" rx="0.681523" ry="0.90879" fill="#FFFF0B"/>
<ellipse cx="2.17908" cy="13.8854" rx="0.681523" ry="0.90879" fill="#FFFF0B"/>
<ellipse cx="2.17908" cy="25.8639" rx="0.681523" ry="0.90879" fill="#FFFF0B"/>
<ellipse cx="6.67127" cy="27.3639" rx="0.681523" ry="0.90879" fill="#FFFF0B"/>
<ellipse cx="16.1559" cy="31.8561" rx="0.681523" ry="0.90879" fill="#FFFF0B"/>
<ellipse cx="16.1559" cy="24.8678" rx="0.681523" ry="0.90879" fill="#FFFF0B"/>
<ellipse cx="11.1638" cy="29.3619" rx="0.681523" ry="0.90879" fill="#FFFF0B"/>
<ellipse cx="11.1638" cy="17.8795" rx="0.681523" ry="0.90879" fill="#FFFF0B"/>
<ellipse cx="16.1559" cy="19.3756" rx="0.681523" ry="0.90879" fill="#FFFF0B"/>
<path d="M11.7365 21.8916C11.601 22.2668 11.393 22.6116 11.1243 22.9063C10.8556 23.2011 10.5315 23.4401 10.1704 23.6096C9.80939 23.7791 9.41849 23.8758 9.02006 23.8942C8.62163 23.9127 8.22347 23.8524 7.84832 23.717C7.47317 23.5815 7.12837 23.3735 6.8336 23.1048C6.53884 22.8361 6.29989 22.512 6.13039 22.1509C5.96089 21.7898 5.86417 21.3989 5.84574 21.0005C5.82731 20.6021 5.88754 20.2039 6.02299 19.8287L8.87973 20.8602L11.7365 21.8916Z" fill="#FFE909"/>
<path opacity="0.5" d="M19.2397 34.9361V17.0365L37.7197 8.60742L37.9735 10.6327V12.9111L37.7197 17.0365V21.2091L37.7203 25.5691L19.2397 34.9361Z" fill="#CF1C43" stroke="#CF1C43" stroke-width="0.376689" stroke-linecap="square"/>
<path d="M0.506348 10.8845L18.9869 17.973L37.9738 10.125" stroke="#292929" stroke-opacity="0.2" stroke-width="0.376689" stroke-linecap="round" stroke-linejoin="round"/>
<ellipse cx="30.3717" cy="28.3449" rx="0.499168" ry="0.499183" fill="#FFFF0B"/>
<ellipse cx="28.8528" cy="16.1925" rx="0.499168" ry="0.499183" fill="#FFFF0B"/>
<ellipse cx="36.4473" cy="25.3078" rx="0.499168" ry="0.499183" fill="#FFFF0B"/>
<ellipse cx="36.4473" cy="12.6496" rx="0.499168" ry="0.499183" fill="#FFFF0B"/>
<ellipse cx="20.7517" cy="19.2316" rx="0.499168" ry="0.499183" fill="#FFFF0B"/>
<path d="M28.0487 18.5883C27.5568 18.6358 27.0791 18.7798 26.6429 19.0119C26.2067 19.2441 25.8204 19.5599 25.5063 19.9413C25.1921 20.3228 24.9561 20.7623 24.8118 21.235C24.6675 21.7076 24.6178 22.204 24.6653 22.6959C24.7129 23.1877 24.8568 23.6654 25.089 24.1017C25.3212 24.5379 25.637 24.9241 26.0184 25.2383C26.3999 25.5525 26.8394 25.7885 27.312 25.9328C27.7847 26.0771 28.2811 26.1269 28.773 26.0793L28.4108 22.3338L28.0487 18.5883Z" fill="#FFE909"/>
<path d="M30.0794 18.7297C30.4765 18.6925 30.8771 18.7338 31.2582 18.8514C31.6393 18.9689 31.9936 19.1604 32.3007 19.4149C32.6079 19.6693 32.8619 19.9818 33.0482 20.3345C33.2346 20.6871 33.3497 21.073 33.3869 21.4701C33.4242 21.8672 33.3828 22.2678 33.2653 22.6489C33.1477 23.0301 32.9562 23.3844 32.7018 23.6915C32.4473 23.9986 32.1348 24.2527 31.7822 24.439C31.4296 24.6254 31.0437 24.7405 30.6466 24.7778L30.363 21.7538L30.0794 18.7297Z" fill="#FFE909"/>
<ellipse cx="25.3086" cy="30.8781" rx="0.499168" ry="0.499183" fill="#FFFF0B"/>
<ellipse cx="20.7517" cy="32.9015" rx="0.499168" ry="0.499183" fill="#FFFF0B"/>
<path d="M1.26562 9.61771L18.9867 5.82031L37.4673 8.35191L18.9867 16.453L1.26562 9.61771Z" fill="#B92A49"/>
<path d="M18.9867 16.453L37.4673 8.35191L18.9867 5.82031L1.26562 9.61771L18.9867 16.453ZM18.9867 5.82031V16.453" stroke="#F55376" stroke-width="0.376689" stroke-linecap="round" stroke-linejoin="round"/>
<path d="M19.2397 17.2129L19.0825 35.4404" stroke="#DE264E" stroke-width="0.376689" stroke-linecap="round"/>
<path d="M38.3355 2.04478V9.20949C38.3355 9.51324 38.1531 9.78728 37.8729 9.9045L19.0417 17.7824L0.487325 10.7777C0.194094 10.667 3.51977e-05 10.3864 3.36351e-05 10.0729L0 3.32632L17.9274 0.0194527C17.9974 0.00654925 18.0688 0.00361793 18.1396 0.010746L38.3355 2.04478Z" fill="#02C1C1"/>
<path opacity="0.75" d="M37.9082 2.61426C38.0385 2.59783 38.1621 2.69913 38.1621 2.83887V9.11621C38.1621 9.34262 38.0266 9.54694 37.8184 9.63574L19.5908 17.3867C19.4642 17.4406 19.3235 17.3474 19.3232 17.21V9.99707L19.4424 9.9502L37.8525 2.62891L37.9082 2.61426Z" fill="#009191" stroke="#009191" stroke-width="0.376689" stroke-linecap="square"/>
<path d="M7.03602 8.2065C6.8042 8.13174 6.5541 8.13612 6.32503 8.21896C5.36948 8.56449 5.35437 9.91043 6.30193 10.2772L10.2159 11.7923C10.5075 11.9052 10.8313 11.9017 11.1205 11.7826C12.1706 11.3501 12.1113 9.84315 11.0304 9.4946L7.03602 8.2065Z" fill="#FFFF0B"/>
<path d="M30.7537 8.11683C31.046 8.01409 31.367 8.03084 31.6471 8.16344C32.5622 8.59679 32.5385 9.90708 31.6082 10.307L28.2522 11.75C27.8891 11.9061 27.4747 11.8887 27.1261 11.7026C26.1274 11.1695 26.2393 9.70352 27.3073 9.32815L30.7537 8.11683Z" fill="#FFFF0B"/>
<path d="M30.7537 8.11683C31.046 8.01409 31.367 8.03084 31.6471 8.16344C32.5622 8.59679 32.5385 9.90708 31.6082 10.307L28.2522 11.75C27.8891 11.9061 27.4747 11.8887 27.1261 11.7026C26.1274 11.1695 26.2393 9.70352 27.3073 9.32815L30.7537 8.11683Z" fill="black" fill-opacity="0.2"/>
<path opacity="0.5" d="M18.8502 9.44592L0.290863 3.58493C0.215855 3.56124 0.22277 3.4529 0.30018 3.43894L17.9239 0.261036C17.9573 0.255008 17.9914 0.25353 18.0252 0.25664L38.2469 2.11612C38.6513 2.1533 38.7187 2.71594 38.3345 2.84757L19.0857 9.44307C19.0095 9.46918 18.927 9.47018 18.8502 9.44592Z" fill="#009191" stroke="#009191" stroke-width="0.376689" stroke-linecap="square"/>
<ellipse cx="18.2195" cy="0.747638" rx="0.748752" ry="0.249591" fill="#FFFF0B"/>
<ellipse cx="18.2195" cy="3.74373" rx="0.748752" ry="0.249591" fill="#FFFF0B"/>
<ellipse cx="19.218" cy="7.73787" rx="0.748752" ry="0.249591" fill="#FFFF0B"/>
<ellipse cx="34.6919" cy="2.24569" rx="0.748752" ry="0.249591" fill="#FFFF0B"/>
<ellipse cx="3.24436" cy="3.24373" rx="0.748752" ry="0.249591" fill="#FFFF0B"/>
</svg>
