<?xml version="1.0" encoding="UTF-8"?><svg id="Layer_2" xmlns="http://www.w3.org/2000/svg" viewBox="0 0 108.03 128.08"><defs><style>.cls-1{fill:#f35908;}</style></defs><g id="Layer_1-2"><path class="cls-1" d="m60.7,7c8.46,0,16.9,2.76,23.78,7.78,7.1,5.18,12.21,12.38,14.78,20.81,6.48,21.27-5.55,43.85-26.82,50.33-3.83,1.17-7.78,1.76-11.74,1.76-4.41,0-8.78-.73-12.99-2.16l-4.92-1.68-3.03,4.23-21.86,30.52c-1.12,1.56-2.98,2.49-4.98,2.49-1.24,0-2.44-.36-3.45-1.05-1.27-.86-2.12-2.13-2.38-3.59-.25-1.42.08-2.86.94-4.06l21.97-30.67,3.15-4.4-3.46-4.16c-3.44-4.13-5.99-8.86-7.57-14.05-3.14-10.3-2.08-21.22,2.99-30.72,5.07-9.51,13.53-16.47,23.84-19.61,3.84-1.17,7.8-1.76,11.77-1.76m0-7c-4.57,0-9.21.67-13.81,2.07C21.89,9.69,7.79,36.13,15.41,61.14c1.9,6.23,4.97,11.78,8.89,16.49L2.33,108.31c-4.09,5.72-2.66,13.56,3.22,17.53,2.25,1.52,4.82,2.25,7.37,2.25,4.1,0,8.15-1.89,10.67-5.42l21.86-30.52c4.85,1.66,10,2.54,15.25,2.54,4.56,0,9.19-.66,13.78-2.06,25-7.62,39.1-34.07,31.48-59.07C99.74,13.14,80.98,0,60.7,0h0Z"/><circle class="cls-1" cx="61.04" cy="47.04" r="33.56"/></g></svg>