<?xml version="1.0" encoding="UTF-8"?><svg id="Layer_2" xmlns="http://www.w3.org/2000/svg" viewBox="0 0 106.86 161.86"><defs><style>.cls-1{opacity:.1;}.cls-2{fill:#008cd2;}.cls-3{opacity:.2;}</style></defs><g id="Layer_1-2"><g><g class="cls-3"><path d="m53.75,161.86h0c7.8-.11,14.21-6.47,14.32-14.21l.59-42.82c.11-7.74-6.13-13.93-13.93-13.82h0c-7.8.11-14.21,6.47-14.32,14.21l-.59,42.82c-.11,7.74,6.13,13.93,13.93,13.82Z"/><ellipse cx="55.88" cy="53.26" rx="52.12" ry="49.16" transform="translate(-21.05 46.9) rotate(-38.89)"/><ellipse class="cls-1" cx="56.01" cy="52.31" rx="36.96" ry="34.72" transform="translate(-18.67 35.08) rotate(-30.05)"/></g><path class="cls-2" d="m48.85,158.95h0c7.8-.11,14.21-6.47,14.32-14.21l.59-42.82c.11-7.74-6.13-13.93-13.93-13.82h0c-7.8.11-14.21,6.47-14.32,14.21l-.59,42.82c-.11,7.74,6.13,13.93,13.93,13.82Z"/><ellipse class="cls-2" cx="50.98" cy="50.35" rx="52.12" ry="49.16" transform="translate(-20.31 43.17) rotate(-38.89)"/><ellipse class="cls-1" cx="51.1" cy="49.41" rx="36.96" ry="34.72" transform="translate(-17.87 32.24) rotate(-30.05)"/></g></g></svg>