<svg width="15" height="15" viewBox="0 0 15 15" fill="none" xmlns="http://www.w3.org/2000/svg">
<path fill-rule="evenodd" clip-rule="evenodd" d="M9.47368 1.57895C9.03766 1.57895 8.68421 1.22548 8.68421 0.789474C8.68421 0.353463 9.03766 0 9.47368 0H14.2105C14.6466 0 15 0.353463 15 0.789474V5.52632C15 5.96234 14.6466 6.31579 14.2105 6.31579C13.7745 6.31579 13.4211 5.96234 13.4211 5.52632V2.69543L7.6635 8.45297C7.35521 8.76126 6.85532 8.76126 6.54703 8.45297C6.23871 8.14468 6.23871 7.64479 6.54703 7.3365L12.3046 1.57895H9.47368ZM2.36842 3.15789C1.93241 3.15789 1.57895 3.51136 1.57895 3.94737V12.6316C1.57895 13.0676 1.93241 13.4211 2.36842 13.4211H11.0526C11.4887 13.4211 11.8421 13.0676 11.8421 12.6316V9.02961C11.8421 8.59358 12.1956 8.24013 12.6316 8.24013C13.0676 8.24013 13.4211 8.59358 13.4211 9.02961V12.6316C13.4211 13.9397 12.3607 15 11.0526 15H2.36842C1.06038 15 0 13.9397 0 12.6316V3.94737C0 2.63933 1.06038 1.57895 2.36842 1.57895H5.9704C6.40642 1.57895 6.75987 1.93241 6.75987 2.36842C6.75987 2.80443 6.40642 3.15789 5.9704 3.15789H2.36842Z" fill="#1A71F6"/>
</svg>
