<?xml version="1.0" encoding="UTF-8"?><svg id="Layer_2" xmlns="http://www.w3.org/2000/svg" viewBox="0 0 146.41 170.58"><defs><style>.cls-1{fill:#ffba00;}.cls-2{fill:#fefefe;}.cls-3{fill:#6c9321;}.cls-4{fill:#81c127;}.cls-5{opacity:.2;}</style></defs><g id="Graphic_Elements"><g><path class="cls-3" d="M18.09,0H110.95C120.93,0,129.04,8.11,129.04,18.09v116.09c0,9.98-8.11,18.09-18.09,18.09H20.09C9,152.26,0,143.26,0,132.18V18.09C0,8.11,8.11,0,18.09,0Z"/><rect class="cls-1" x="82.3" y="66.79" width="36.4" height="22.31"/><path class="cls-1" d="M118.7,100.34V57.87c0-2.04,2.39-3.13,3.93-1.8l22.47,19.41c1.69,1.46,1.74,4.07,.11,5.59l-22.51,21c-1.52,1.42-4,.34-4-1.74Z"/><path class="cls-5" d="M90.49,20.61L30.26,3C22.08,.61,13.1,4.35,9.45,12.39c-1.11,2.44-1.72,5.17-1.72,8.06v115.3c0,8.1,4.69,13.19,11.6,16.45,.41,.02,.81,.06,1.22,.06H108.41V39.4c0-10.38-5.21-15.06-17.91-18.8Z"/><path class="cls-4" d="M78.15,169.86l-60.23-17.6c-10.22-2.95-17.91-8.42-17.91-18.8V18.16c0-2.88,.62-5.62,1.72-8.06C5.37,2.06,14.35-1.68,22.53,.71l60.23,17.6c12.7,3.74,17.91,8.42,17.91,18.8v115.3c0,2.88-.62,5.62-1.72,8.06-3.64,8.04-12.63,11.78-20.81,9.39Z"/><circle class="cls-2" cx="87.22" cy="89.1" r="6.18"/></g></g></svg>