<svg width="18" height="18" viewBox="0 0 18 18" fill="none" xmlns="http://www.w3.org/2000/svg">
<mask id="mask0_532_1276" style="mask-type:alpha" maskUnits="userSpaceOnUse" x="0" y="0" width="18" height="18">
<rect width="18" height="18" fill="#D9D9D9"/>
</mask>
<g mask="url(#mask0_532_1276)">
<path d="M9 16.3533C7.98862 16.3533 7.0365 16.1619 6.14362 15.7792C5.25062 15.3964 4.46937 14.8704 3.79987 14.201C3.1305 13.5315 2.60444 12.7502 2.22169 11.8572C1.83894 10.9644 1.64756 10.0123 1.64756 9.00088C1.64756 7.979 1.84119 7.02106 2.22844 6.12706C2.61569 5.23319 3.14175 4.45375 3.80662 3.78875L4.91531 4.89294C4.39631 5.41194 3.98131 6.025 3.67031 6.73213C3.35931 7.43913 3.20381 8.19569 3.20381 9.00181C3.20381 10.6142 3.76656 11.9832 4.89206 13.1088C6.01769 14.2343 7.387 14.7971 9 14.7971C10.613 14.7971 11.9823 14.2343 13.1079 13.1088C14.2334 11.9832 14.7962 10.6142 14.7962 9.00181C14.7962 8.19569 14.6477 7.43913 14.3507 6.73213C14.0537 6.025 13.6394 5.41194 13.1079 4.89294L14.2121 3.78875C14.8895 4.45375 15.4156 5.23319 15.7903 6.12706C16.1651 7.02106 16.3524 7.979 16.3524 9.00088C16.3524 10.0123 16.1611 10.9644 15.7783 11.8572C15.3956 12.7502 14.8695 13.5315 14.2001 14.201C13.5306 14.8704 12.7525 15.3964 11.8657 15.7792C10.9791 16.1619 10.0239 16.3533 9 16.3533ZM8.22187 10.004V1.64844H9.77812V10.004H8.22187Z" fill="white"/>
</g>
</svg>
