<svg width="6" height="10" viewBox="0 0 6 10" fill="none" xmlns="http://www.w3.org/2000/svg">
<path transform="translate(0.75 0) scale(1.28 1)" d="M1.64551 0.000976562H1.86523C2.00846 0.306966 2.19727 0.609701 2.43164 0.90918C2.66927 1.2054 3.02897 1.5651 3.51074 1.98828V2.37891C2.9541 2.1543 2.44792 1.83691 1.99219 1.42676V7.80371C2.44792 7.39355 2.9541 7.0778 3.51074 6.85645V7.24219C3.02897 7.66536 2.66927 8.02507 2.43164 8.32129C2.19727 8.62077 2.00846 8.9235 1.86523 9.22949H1.64551C1.50553 8.9235 1.31673 8.62077 1.0791 8.32129C0.841471 8.02507 0.481771 7.66536 0 7.24219V6.85645C0.556641 7.0778 1.06283 7.39355 1.51855 7.80371V1.42676C1.06283 1.83691 0.556641 2.1543 0 2.37891V1.98828C0.481771 1.5651 0.841471 1.2054 1.0791 0.90918C1.31673 0.609701 1.50553 0.306966 1.64551 0.000976562Z" fill="#252525"/>
</svg>
