<svg width="51" height="46" viewBox="0 0 51 46" fill="none" xmlns="http://www.w3.org/2000/svg">
<path d="M43.469 44.8563C33.5 44.6714 30.5 44.6714 27.4304 44.6714C26 44.6714 26.416 44.6885 25.5 44.6714C24.5912 44.6543 24.6136 44.6748 23 44.6714C19.1136 44.6631 15.5 44.6714 7.02388 44.8529C5.94626 44.7399 4.11431 44.4591 2.76369 43.1716C1.67171 42.1306 1 40.6959 1 39.1105V6.7687C1 3.59787 3.69763 1.02629 7.02388 1.02629H43.4654C43.7922 0.992046 46.0229 0.790021 47.801 2.3994C48.8032 3.3034 49.4282 4.71075 49.4893 6.77213V39.1139C49.5949 41.3067 49.2265 42.6621 48.5455 43.5C47.443 44.8563 45.5215 44.8563 43.4654 44.8563H43.469Z" fill="white" stroke="#F35908" stroke-width="2" stroke-linecap="round" stroke-linejoin="round"/>
<path d="M24.134 15.5C24.5189 14.8333 25.4811 14.8333 25.866 15.5L34.5263 30.5C34.9112 31.1667 34.4301 32 33.6603 32H16.3397C15.5699 32 15.0888 31.1667 15.4737 30.5L24.134 15.5Z" fill="#F35908"/>
<path d="M37.4992 33.9977C38.3283 33.9977 39.0003 33.3266 39.0003 32.4989C39.0003 31.6711 38.3283 31 37.4992 31C36.6701 31 35.998 31.6711 35.998 32.4989C35.998 33.3266 36.6701 33.9977 37.4992 33.9977Z" fill="#F35908" stroke="#F35908" stroke-linecap="round" stroke-linejoin="round"/>
<path d="M25.5 13C26.3284 13 27 12.3284 27 11.5C27 10.6716 26.3284 10 25.5 10C24.6716 10 24 10.6716 24 11.5C24 12.3284 24.6716 13 25.5 13Z" fill="#F35908" stroke="#F35908" stroke-linecap="round" stroke-linejoin="round"/>
<path d="M12.5 34C13.3284 34 14 33.3284 14 32.5C14 31.6716 13.3284 31 12.5 31C11.6716 31 11 31.6716 11 32.5C11 33.3284 11.6716 34 12.5 34Z" fill="#F35908" stroke="#F35908" stroke-linecap="round" stroke-linejoin="round"/>
<path d="M25 17V21" stroke="white" stroke-linecap="round" stroke-linejoin="round"/>
<path d="M27.7988 26.2305L33.2584 30.6115" stroke="white" stroke-linecap="round" stroke-linejoin="round"/>
<circle cx="25.5" cy="24.5" r="1.5" fill="white"/>
</svg>
