<svg width="52" height="46" viewBox="0 0 52 46" fill="none" xmlns="http://www.w3.org/2000/svg">
<path d="M43.9885 44.8563C34.0195 44.6714 31.0195 44.6714 27.9499 44.6714C26.5195 44.6714 26.9355 44.6885 26.0195 44.6714C25.1107 44.6543 25.1331 44.6748 23.5195 44.6714C19.6331 44.6631 16.0195 44.6714 7.54341 44.8529C6.46579 44.7399 4.63384 44.4591 3.28323 43.1716C2.19124 42.1306 1.51953 40.6959 1.51953 39.1105V6.7687C1.51953 3.59787 4.21716 1.02629 7.54341 1.02629H43.9849C44.3118 0.992046 46.5425 0.790021 48.3205 2.3994C49.3227 3.3034 49.9477 4.71075 50.0088 6.77213V39.1139C50.1144 41.3067 49.746 42.6621 49.065 43.5C47.9626 44.8563 46.041 44.8563 43.9849 44.8563H43.9885Z" fill="#F34D08" stroke="#F34D08" stroke-width="2" stroke-linecap="round" stroke-linejoin="round"/>
<path d="M24.6535 15.5C25.0384 14.8333 26.0007 14.8333 26.3856 15.5L35.0458 30.5C35.4307 31.1667 34.9496 32 34.1798 32H16.8593C16.0895 32 15.6084 31.1667 15.9933 30.5L24.6535 15.5Z" fill="white"/>
<path d="M38.0168 33.9977C38.8458 33.9977 39.5179 33.3266 39.5179 32.4989C39.5179 31.6711 38.8458 31 38.0168 31C37.1877 31 36.5156 31.6711 36.5156 32.4989C36.5156 33.3266 37.1877 33.9977 38.0168 33.9977Z" fill="white" stroke="white" stroke-linecap="round" stroke-linejoin="round"/>
<path d="M26.0195 13C26.848 13 27.5195 12.3284 27.5195 11.5C27.5195 10.6716 26.848 10 26.0195 10C25.1911 10 24.5195 10.6716 24.5195 11.5C24.5195 12.3284 25.1911 13 26.0195 13Z" fill="white" stroke="white" stroke-linecap="round" stroke-linejoin="round"/>
<path d="M13.0195 34C13.848 34 14.5195 33.3284 14.5195 32.5C14.5195 31.6716 13.848 31 13.0195 31C12.1911 31 11.5195 31.6716 11.5195 32.5C11.5195 33.3284 12.1911 34 13.0195 34Z" fill="white" stroke="white" stroke-linecap="round" stroke-linejoin="round"/>
<path d="M25.5195 17V21" stroke="#F34D08" stroke-linecap="round" stroke-linejoin="round"/>
<path d="M28.3203 26.2305L33.7799 30.6115" stroke="#F34D08" stroke-linecap="round" stroke-linejoin="round"/>
<circle cx="26.0195" cy="24.5" r="1" fill="#F34D08" stroke="#F34D08"/>
</svg>
