<svg width="28" height="27" viewBox="0 0 28 27" fill="none" xmlns="http://www.w3.org/2000/svg">
<path d="M27.2784 12.3548L21.6534 17.2086L23.3671 24.4673C23.4617 24.8614 23.4373 25.2746 23.2971 25.6548C23.157 26.035 22.9072 26.3652 22.5795 26.6035C22.2518 26.8419 21.8608 26.9778 21.4559 26.994C21.051 27.0103 20.6504 26.9062 20.3046 26.6948L13.9921 22.8098L7.67586 26.6948C7.33014 26.9049 6.92999 27.0081 6.52578 26.9912C6.12158 26.9744 5.73139 26.8383 5.40436 26.6001C5.07733 26.362 4.82808 26.0324 4.68799 25.6529C4.5479 25.2733 4.52324 24.8608 4.61711 24.4673L6.33711 17.2086L0.71211 12.3548C0.406232 12.0905 0.185016 11.7418 0.0760877 11.3525C-0.0328404 10.9632 -0.0246526 10.5504 0.0996284 10.1657C0.223909 9.78095 0.458776 9.44138 0.774896 9.18935C1.09102 8.93733 1.47438 8.78402 1.87711 8.74858L9.25211 8.15358L12.0971 1.26858C12.2511 0.893348 12.5132 0.572387 12.8501 0.346499C13.1869 0.120611 13.5834 0 13.989 0C14.3946 0 14.791 0.120611 15.1279 0.346499C15.4648 0.572387 15.7269 0.893348 15.8809 1.26858L18.7246 8.15358L26.0996 8.74858C26.5031 8.7827 26.8876 8.93516 27.2049 9.18683C27.5222 9.43851 27.7581 9.77822 27.8832 10.1634C28.0082 10.5486 28.0168 10.9621 27.9079 11.3521C27.799 11.7422 27.5774 12.0914 27.2709 12.3561L27.2784 12.3548Z" fill="#FFC805"/>
</svg>
