<?xml version="1.0" encoding="UTF-8"?><svg id="Layer_2" xmlns="http://www.w3.org/2000/svg" viewBox="0 0 55.53 57.11"><defs><style>.cls-1{fill:#fff;}.cls-2{fill:#c4c4c4;}.cls-3{opacity:.15;}</style></defs><g id="Graphic_Elements"><g><g class="cls-3"><g id="Path_1397-3"><path id="Path_1445" d="M42.32,55.2c-.62,0-1.22-.16-1.76-.46l-10.5-5.74-10.5,5.74c-.54,.3-1.15,.45-1.76,.46-1.13,0-2.2-.52-2.9-1.41-.72-.9-1.02-2.06-.83-3.19l2.01-12.15L7.58,29.84c-1.04-1.06-1.41-2.62-.95-4.03,.42-1.41,1.61-2.45,3.06-2.68l11.74-1.77,5.24-11.05c.84-1.88,3.05-2.71,4.92-1.87,.83,.37,1.49,1.04,1.87,1.87l5.24,11.05,11.74,1.77c1.45,.23,2.64,1.27,3.06,2.68,.45,1.42,.09,2.97-.95,4.03l-8.49,8.6,2.01,12.15c.19,1.13-.11,2.3-.83,3.19-.7,.89-1.77,1.4-2.9,1.41Z"/><path id="Path_1446" d="M30.06,10.01c-.75,0-1.44,.44-1.75,1.13l-5.68,11.96-12.69,1.92c-1.11,.21-1.84,1.27-1.64,2.38,.07,.4,.27,.78,.56,1.07l9.19,9.31-2.17,13.14c-.2,1.09,.52,2.13,1.6,2.34,.1,.02,.21,.03,.31,.03,.32,0,.63-.08,.91-.24l11.35-6.2,11.36,6.2c.28,.15,.59,.24,.91,.24,1.11-.03,1.98-.95,1.95-2.06,0-.11-.01-.21-.03-.31l-2.17-13.14,9.19-9.31c.8-.8,.79-2.1-.01-2.89-.29-.29-.66-.48-1.07-.56l-12.7-1.92-5.68-11.96c-.31-.69-.99-1.13-1.75-1.13m0-3.81c2.17,.01,4.14,1.28,5.04,3.26l4.82,10.15,10.78,1.63c2.16,.34,3.92,1.89,4.54,3.98,.67,2.11,.12,4.41-1.43,5.99l-7.8,7.9,1.84,11.16c.29,1.69-.16,3.41-1.23,4.75-1.05,1.31-2.63,2.08-4.31,2.09-.92,0-1.82-.24-2.62-.68l-9.64-5.27-9.64,5.27c-.8,.44-1.7,.67-2.62,.68-1.68,0-3.26-.78-4.31-2.09-1.07-1.33-1.52-3.06-1.24-4.75l1.84-11.16-7.8-7.9c-1.55-1.58-2.1-3.88-1.43-5.99,.62-2.09,2.38-3.64,4.54-3.98l10.78-1.63,4.82-10.15c.9-1.98,2.88-3.26,5.06-3.27h0Z"/></g></g><g id="Path_1397-3-2"><path id="Path_1445-2" class="cls-2" d="M37.74,49c-.62,0-1.22-.16-1.76-.46l-10.5-5.74-10.5,5.74c-.54,.3-1.15,.45-1.76,.46-1.13,0-2.2-.52-2.9-1.41-.72-.9-1.02-2.06-.83-3.19l2.01-12.15L3,23.65c-1.04-1.06-1.41-2.62-.95-4.03,.42-1.41,1.61-2.45,3.06-2.68l11.74-1.77,5.24-11.05c.84-1.88,3.05-2.71,4.92-1.87,.83,.37,1.49,1.04,1.87,1.87l5.24,11.05,11.74,1.77c1.45,.23,2.64,1.27,3.06,2.68,.45,1.42,.09,2.97-.95,4.03l-8.49,8.6,2.01,12.15c.19,1.13-.11,2.3-.83,3.19-.7,.89-1.77,1.4-2.9,1.41Z"/><path id="Path_1446-2" class="cls-1" d="M25.48,3.82c-.75,0-1.44,.44-1.75,1.13l-5.68,11.96-12.69,1.92c-1.11,.21-1.84,1.27-1.64,2.38,.07,.4,.27,.78,.56,1.07l9.19,9.31-2.17,13.14c-.2,1.09,.52,2.13,1.6,2.34,.1,.02,.21,.03,.31,.03,.32,0,.63-.08,.91-.24l11.35-6.2,11.36,6.2c.28,.15,.59,.24,.91,.24,1.11-.03,1.98-.95,1.95-2.06,0-.11-.01-.21-.03-.31l-2.17-13.14,9.19-9.31c.8-.8,.79-2.1-.01-2.89-.29-.29-.66-.48-1.07-.56l-12.7-1.92-5.68-11.96c-.31-.69-.99-1.13-1.75-1.13M25.48,0c2.17,.01,4.14,1.28,5.04,3.26l4.82,10.15,10.78,1.63c2.16,.34,3.92,1.89,4.54,3.98,.67,2.11,.12,4.41-1.43,5.99l-7.8,7.9,1.84,11.16c.29,1.69-.16,3.41-1.23,4.75-1.05,1.31-2.63,2.08-4.31,2.09-.92,0-1.82-.24-2.62-.68l-9.64-5.27-9.64,5.27c-.8,.44-1.7,.67-2.62,.68-1.68,0-3.26-.78-4.31-2.09-1.07-1.33-1.52-3.06-1.24-4.75l1.84-11.16L1.71,25.02c-1.55-1.58-2.1-3.88-1.43-5.99,.62-2.09,2.38-3.64,4.54-3.98l10.78-1.63L20.43,3.27C21.33,1.28,23.3,0,25.48,0h0Z"/></g></g></g></svg>