<?xml version="1.0" encoding="UTF-8"?><svg id="Layer_2" xmlns="http://www.w3.org/2000/svg" viewBox="0 0 46.32 48.65"><defs><style>.cls-1{fill:#ffc000;}</style></defs><g id="Layer_1-2"><path id="Path_1445" class="cls-1" d="m35.18,48.65c-.6,0-1.2-.16-1.73-.47l-10.29-5.92-10.29,5.92c-.53.31-1.12.47-1.73.47-1.11,0-2.15-.54-2.84-1.46-.71-.93-1-2.13-.81-3.3l1.97-12.55L1.12,22.45c-1.02-1.1-1.38-2.7-.93-4.17.41-1.45,1.58-2.53,3-2.77l11.51-1.83,5.14-11.42c.83-1.94,2.99-2.8,4.83-1.93.81.39,1.46,1.07,1.83,1.93l5.14,11.42,11.51,1.83c1.42.24,2.59,1.31,3,2.77.44,1.46.08,3.07-.93,4.17l-8.33,8.89,1.97,12.55c.19,1.17-.11,2.37-.81,3.3-.69.91-1.74,1.45-2.84,1.46Z"/></g></svg>