<?xml version="1.0" encoding="UTF-8"?><svg id="Layer_2" xmlns="http://www.w3.org/2000/svg" viewBox="0 0 64 64"><defs><style>.cls-1{fill:#fff;}.cls-2{fill:#ffc717;}.cls-3{opacity:.15;}</style></defs><g id="Graphic_Elements"><g><circle class="cls-1" cx="32" cy="32" r="32"/><g><g class="cls-3"><g id="Path_1397-3"><path id="Path_1445" d="M43.14,51.02c-.47,0-.94-.12-1.35-.35l-8.03-4.39-8.03,4.39c-.41,.23-.88,.35-1.35,.35-.86,0-1.68-.4-2.22-1.08-.55-.69-.78-1.58-.63-2.44l1.53-9.29-6.5-6.58c-.8-.81-1.08-2-.73-3.08,.32-1.08,1.23-1.87,2.34-2.05l8.98-1.36,4.01-8.45c.65-1.43,2.33-2.07,3.77-1.43,.63,.29,1.14,.79,1.43,1.43l4.01,8.45,8.98,1.36c1.11,.18,2.02,.97,2.34,2.05,.35,1.08,.07,2.27-.73,3.08l-6.5,6.58,1.53,9.29c.15,.87-.08,1.76-.63,2.44-.54,.68-1.35,1.07-2.22,1.08Z"/><path id="Path_1446" d="M33.76,16.47c-.58,0-1.1,.34-1.34,.86l-4.34,9.14-9.71,1.47c-.85,.16-1.41,.97-1.25,1.82,.06,.31,.21,.59,.43,.82l7.03,7.12-1.66,10.05c-.15,.83,.39,1.63,1.23,1.79,.08,.01,.16,.02,.24,.03,.24,0,.48-.06,.69-.18l8.68-4.74,8.69,4.74c.21,.12,.45,.18,.69,.18,.85-.02,1.51-.73,1.49-1.57,0-.08-.01-.16-.03-.24l-1.66-10.05,7.03-7.12c.61-.61,.61-1.6,0-2.21-.22-.22-.51-.37-.82-.43l-9.71-1.47-4.34-9.14c-.24-.53-.76-.86-1.34-.86m0-2.92c1.66,0,3.17,.98,3.86,2.49l3.69,7.77,8.25,1.24c1.65,.26,3,1.44,3.47,3.04,.51,1.61,.09,3.38-1.09,4.58l-5.97,6.04,1.41,8.54c.22,1.29-.13,2.61-.94,3.63-.8,1-2.01,1.59-3.3,1.6-.7,0-1.39-.18-2-.52l-7.38-4.03-7.38,4.03c-.61,.34-1.3,.51-2,.52-1.28,0-2.49-.59-3.29-1.6-.82-1.02-1.16-2.34-.95-3.63l1.41-8.54-5.97-6.04c-1.19-1.21-1.61-2.97-1.09-4.58,.47-1.6,1.82-2.78,3.47-3.04l8.25-1.24,3.69-7.77c.69-1.52,2.2-2.49,3.87-2.5h0Z"/></g></g><g id="Path_1397-3-2"><path id="Path_1445-2" class="cls-2" d="M39.63,46.29c-.47,0-.94-.12-1.35-.35l-8.03-4.39-8.03,4.39c-.41,.23-.88,.35-1.35,.35-.86,0-1.68-.4-2.22-1.08-.55-.69-.78-1.58-.63-2.44l1.53-9.29-6.5-6.58c-.8-.81-1.08-2-.73-3.08,.32-1.08,1.23-1.87,2.34-2.05l8.98-1.36,4.01-8.45c.65-1.43,2.33-2.07,3.77-1.43,.63,.29,1.14,.79,1.43,1.43l4.01,8.45,8.98,1.36c1.11,.18,2.02,.97,2.34,2.05,.35,1.08,.07,2.27-.73,3.08l-6.5,6.58,1.53,9.29c.15,.87-.08,1.76-.63,2.44-.54,.68-1.35,1.07-2.22,1.08Z"/><path id="Path_1446-2" class="cls-1" d="M30.26,11.73c-.58,0-1.1,.34-1.34,.86l-4.34,9.14-9.71,1.47c-.85,.16-1.41,.97-1.25,1.82,.06,.31,.21,.59,.43,.82l7.03,7.12-1.66,10.05c-.15,.83,.39,1.63,1.23,1.79,.08,.01,.16,.02,.24,.03,.24,0,.48-.06,.69-.18l8.68-4.74,8.69,4.74c.21,.12,.45,.18,.69,.18,.85-.02,1.51-.73,1.49-1.57,0-.08-.01-.16-.03-.24l-1.66-10.05,7.03-7.12c.61-.61,.61-1.6,0-2.21-.22-.22-.51-.37-.82-.43l-9.71-1.47-4.34-9.14c-.24-.53-.76-.86-1.34-.86m0-2.92c1.66,0,3.17,.98,3.86,2.49l3.69,7.77,8.25,1.24c1.65,.26,3,1.44,3.47,3.04,.51,1.61,.09,3.38-1.09,4.58l-5.97,6.04,1.41,8.54c.22,1.29-.13,2.61-.94,3.63-.8,1-2.01,1.59-3.3,1.6-.7,0-1.39-.18-2-.52l-7.38-4.03-7.38,4.03c-.61,.34-1.3,.51-2,.52-1.28,0-2.49-.59-3.29-1.6-.82-1.02-1.16-2.34-.95-3.63l1.41-8.54-5.97-6.04c-1.19-1.21-1.61-2.97-1.09-4.58,.47-1.6,1.82-2.78,3.47-3.04l8.25-1.24,3.69-7.77c.69-1.52,2.2-2.49,3.87-2.5h0Z"/></g></g></g></g></svg>