<svg width="38" height="38" viewBox="0 0 38 38" fill="none" xmlns="http://www.w3.org/2000/svg">
<g clip-path="url(#clip0_1859_20888)">
<path d="M34.4375 32.0625H30.875V5.9375C30.875 5.30761 30.6248 4.70352 30.1794 4.25812C29.734 3.81272 29.1299 3.5625 28.5 3.5625H9.5C8.87011 3.5625 8.26602 3.81272 7.82062 4.25812C7.37522 4.70352 7.125 5.30761 7.125 5.9375V32.0625H3.5625C3.24756 32.0625 2.94551 32.1876 2.72281 32.4103C2.50011 32.633 2.375 32.9351 2.375 33.25C2.375 33.5649 2.50011 33.867 2.72281 34.0897C2.94551 34.3124 3.24756 34.4375 3.5625 34.4375H34.4375C34.7524 34.4375 35.0545 34.3124 35.2772 34.0897C35.4999 33.867 35.625 33.5649 35.625 33.25C35.625 32.9351 35.4999 32.633 35.2772 32.4103C35.0545 32.1876 34.7524 32.0625 34.4375 32.0625ZM24.3438 21.375C23.9915 21.375 23.6471 21.2705 23.3541 21.0748C23.0612 20.8791 22.8329 20.6009 22.6981 20.2754C22.5633 19.9499 22.528 19.5918 22.5967 19.2462C22.6655 18.9007 22.8351 18.5833 23.0842 18.3342C23.3333 18.0851 23.6507 17.9155 23.9962 17.8467C24.3418 17.778 24.6999 17.8133 25.0254 17.9481C25.3509 18.0829 25.6291 18.3112 25.8248 18.6041C26.0205 18.8971 26.125 19.2415 26.125 19.5938C26.125 20.0662 25.9373 20.5192 25.6033 20.8533C25.2692 21.1873 24.8162 21.375 24.3438 21.375Z" fill="#AD3184"/>
</g>
<defs>
<clipPath id="clip0_1859_20888">
<rect width="38" height="38" fill="white"/>
</clipPath>
</defs>
</svg>
