<svg width="55" height="39" viewBox="0 0 55 39" fill="none" xmlns="http://www.w3.org/2000/svg">
<g clip-path="url(#clip0_1634_5342)">
<path d="M38.3996 31.1994C38.3996 32.1542 38.0204 33.0699 37.3452 33.745C36.6701 34.4201 35.7544 34.7994 34.7996 34.7994C33.8449 34.7994 32.9292 34.4201 32.2541 33.745C31.5789 33.0699 31.1996 32.1542 31.1996 31.1994C31.1996 28.5129 33.5351 24.9339 33.8006 24.5334C33.9102 24.3688 34.0587 24.2338 34.233 24.1405C34.4073 24.0471 34.6019 23.9982 34.7996 23.9982C34.9974 23.9982 35.192 24.0471 35.3663 24.1405C35.5406 24.2338 35.6891 24.3688 35.7986 24.5334C36.0641 24.9339 38.3996 28.5129 38.3996 31.1994ZM19.8731 18.6729C20.2113 18.3348 20.4013 17.8761 20.4013 17.3979C20.4013 16.9197 20.2113 16.4611 19.8731 16.1229C19.535 15.7848 19.0764 15.5948 18.5981 15.5948C18.1199 15.5948 17.6613 15.7848 17.3231 16.1229C16.9906 16.462 16.8055 16.9187 16.8083 17.3936C16.811 17.8685 17.0013 18.3231 17.3377 18.6583C17.6741 18.9935 18.1294 19.1822 18.6043 19.1833C19.0792 19.1843 19.5353 18.9976 19.8731 18.6639V18.6729ZM5.64714 2.75041C5.42198 2.52544 5.11666 2.39913 4.79836 2.39928C4.48007 2.39942 4.17486 2.52599 3.94989 2.75116C3.72492 2.97633 3.59862 3.28165 3.59876 3.59994C3.5989 3.91824 3.72547 4.22344 3.95064 4.44841L8.84064 9.33841L10.5371 7.64941L5.64714 2.75041ZM35.1791 20.8599C35.3731 20.7952 35.5472 20.682 35.6851 20.5311C35.823 20.3802 35.9201 20.1966 35.9671 19.9977C36.0141 19.7988 36.0096 19.5911 35.9538 19.3944C35.8981 19.1978 35.793 19.0186 35.6486 18.8739L18.3251 1.55041C18.1001 1.32554 17.795 1.19922 17.4769 1.19922C17.1588 1.19922 16.8537 1.32554 16.6286 1.55041L10.5371 7.64941L16.6016 13.7124C17.4889 13.2322 18.5193 13.0875 19.5045 13.3046C20.4897 13.5217 21.3639 14.0862 21.9671 14.8948C22.5703 15.7034 22.8624 16.7021 22.7898 17.7083C22.7172 18.7146 22.2849 19.661 21.5718 20.3747C20.8588 21.0884 19.9127 21.5216 18.9065 21.595C17.9004 21.6685 16.9014 21.3773 16.0922 20.7748C15.2831 20.1723 14.7179 19.2987 14.4999 18.3136C14.2819 17.3286 14.4258 16.2981 14.9051 15.4104L8.84064 9.33841L2.24964 15.9249C1.57456 16.6 1.19531 17.5157 1.19531 18.4704C1.19531 19.4252 1.57456 20.3408 2.24964 21.0159L14.9831 33.7494C15.6583 34.4245 16.5739 34.8037 17.5286 34.8037C18.4834 34.8037 19.399 34.4245 20.0741 33.7494L31.8476 21.9759L35.1791 20.8599Z" fill="#AD3184"/>
</g>
<path d="M41.8819 20.7148C42.1391 19.923 43.2593 19.923 43.5166 20.7148V20.7148C43.6316 21.0689 43.9616 21.3086 44.3339 21.3086V21.3086C45.1665 21.3086 45.5126 22.374 44.8391 22.8634V22.8634C44.5379 23.0822 44.4118 23.4701 44.5269 23.8242V23.8242C44.7842 24.616 43.8779 25.2744 43.2044 24.7851V24.7851C42.9032 24.5662 42.4953 24.5662 42.1941 24.7851V24.7851C41.5205 25.2744 40.6143 24.616 40.8715 23.8242V23.8242C40.9866 23.4701 40.8606 23.0822 40.5593 22.8634V22.8634C39.8858 22.374 40.232 21.3086 41.0645 21.3086V21.3086C41.4368 21.3086 41.7668 21.0689 41.8819 20.7148V20.7148Z" fill="#F55376"/>
<path d="M50.0635 23.1558C50.2636 22.5399 51.1348 22.5399 51.3349 23.1558V23.1558C51.4244 23.4312 51.6811 23.6177 51.9707 23.6177V23.6177C52.6182 23.6177 52.8874 24.4463 52.3636 24.8269V24.8269C52.1293 24.9971 52.0313 25.2988 52.1207 25.5742V25.5742C52.3208 26.1901 51.616 26.7022 51.0921 26.3216V26.3216C50.8578 26.1513 50.5406 26.1513 50.3063 26.3216V26.3216C49.7825 26.7022 49.0776 26.1901 49.2777 25.5742V25.5742C49.3672 25.2988 49.2691 24.9971 49.0349 24.8269V24.8269C48.511 24.4463 48.7802 23.6177 49.4278 23.6177V23.6177C49.7174 23.6177 49.974 23.4312 50.0635 23.1558V23.1558Z" fill="#FFC805"/>
<path d="M45.6543 28.8763C45.8258 28.3484 46.5726 28.3484 46.7441 28.8763V28.8763C46.8208 29.1123 47.0408 29.2722 47.289 29.2722V29.2722C47.8441 29.2722 48.0748 29.9824 47.6258 30.3086V30.3086C47.425 30.4545 47.341 30.7132 47.4177 30.9492V30.9492C47.5892 31.4771 46.985 31.916 46.536 31.5898V31.5898C46.3352 31.4439 46.0633 31.4439 45.8624 31.5898V31.5898C45.4134 31.916 44.8093 31.4771 44.9808 30.9492V30.9492C45.0575 30.7132 44.9734 30.4545 44.7726 30.3086V30.3086C44.3236 29.9824 44.5544 29.2722 45.1094 29.2722V29.2722C45.3576 29.2722 45.5776 29.1123 45.6543 28.8763V28.8763Z" fill="#F34D08"/>
<defs>
<clipPath id="clip0_1634_5342">
<rect width="38.4" height="38.4" fill="white"/>
</clipPath>
</defs>
</svg>
