<svg width="24" height="24" viewBox="0 0 24 24" fill="none" xmlns="http://www.w3.org/2000/svg">
<path fill-rule="evenodd" clip-rule="evenodd" d="M5.0048 1.76136C6.5255 1.63509 8.97587 1.5 12.5 1.5C16.0241 1.5 18.4745 1.63509 19.9952 1.76136C21.4742 1.88417 22.6158 3.02582 22.7386 4.50479C22.8649 6.0255 23 8.47587 23 12C23 12.9455 22.9903 13.7887 22.9736 14.5669C22.9703 14.7232 22.9583 14.8797 22.9373 15.0353C21.2287 15.0587 19.8288 15.2813 18.8138 15.5154C17.4097 15.8393 16.3396 16.9092 16.0157 18.3133C15.7815 19.3284 15.5588 20.7285 15.5353 22.4373C15.3797 22.4583 15.2232 22.4703 15.0669 22.4736C14.2887 22.4903 13.4455 22.5 12.5 22.5C8.97587 22.5 6.5255 22.3649 5.00479 22.2386C3.52582 22.1158 2.38416 20.9742 2.26136 19.4952C2.13509 17.9745 2 15.5241 2 12C2 8.47587 2.13509 6.0255 2.26136 4.50479C2.38417 3.02582 3.52582 1.88416 5.0048 1.76136ZM8.17125 13.1479C8.56819 12.8191 9.15657 12.8743 9.48543 13.2712C10.3531 14.3186 11.448 14.8 12.5 14.8C13.552 14.8 14.6469 14.3186 15.5146 13.2712C15.8434 12.8743 16.4318 12.8191 16.8288 13.1479C17.2257 13.4768 17.2809 14.0651 16.9521 14.4621C15.7578 15.9036 14.1504 16.6667 12.5 16.6667C10.8496 16.6667 9.24215 15.9036 8.04791 14.4621C7.71909 14.0651 7.7743 13.4768 8.17125 13.1479ZM9.7 8.73333C9.7 8.21785 9.28215 7.8 8.76667 7.8C8.25119 7.8 7.83333 8.21785 7.83333 8.73333V9.66667C7.83333 10.1821 8.25119 10.6 8.76667 10.6C9.28215 10.6 9.7 10.1821 9.7 9.66667V8.73333ZM16.2333 7.8C15.7179 7.8 15.3 8.21785 15.3 8.73333V9.66667C15.3 10.1821 15.7179 10.6 16.2333 10.6C16.7488 10.6 17.1667 10.1821 17.1667 9.66667V8.73333C17.1667 8.21785 16.7488 7.8 16.2333 7.8ZM16.9484 21.9555C17.0737 21.8814 17.1955 21.799 17.3129 21.7078C17.9222 21.2346 18.8176 20.4815 19.8995 19.3995C20.9814 18.3176 21.7346 17.4222 22.2078 16.8129C22.299 16.6955 22.3814 16.5737 22.4555 16.4484C21.0857 16.5016 19.9593 16.688 19.1285 16.8796C18.2461 17.0831 17.5834 17.7457 17.3798 18.6281C17.1881 19.459 17.0016 20.5856 16.9484 21.9555Z" fill="#F34D08"/>
</svg>
