<svg width="151" height="291" viewBox="0 0 151 291" fill="none" xmlns="http://www.w3.org/2000/svg">
<mask id="path-1-inside-1_1645_5669" fill="white">
<path d="M0 10C0 4.47716 4.47715 0 10 0H141C146.523 0 151 4.47715 151 10V281C151 286.523 146.523 291 141 291H10C4.47715 291 0 286.523 0 281V10Z"/>
</mask>
<path d="M0 10C0 4.47716 4.47715 0 10 0H141C146.523 0 151 4.47715 151 10V281C151 286.523 146.523 291 141 291H10C4.47715 291 0 286.523 0 281V10Z" fill="#FFFDEE"/>
<path d="M0 10C0 3.37258 5.37258 -2 12 -2H139C145.627 -2 151 3.37258 151 10C151 5.58172 146.523 2 141 2H10C4.47715 2 0 5.58172 0 10ZM0 10M151 291H0H151M151 291M0 291V0V291M0 291M151 0V291V0" fill="#57DBE0" mask="url(#path-1-inside-1_1645_5669)"/>
<mask id="path-3-outside-2_1645_5669" maskUnits="userSpaceOnUse" x="20" y="12" width="48" height="55" fill="black">
<rect fill="white" x="20" y="12" width="48" height="55"/>
<path d="M20 17C20 14.2386 22.2386 12 25 12H63C65.7614 12 68 14.2386 68 17V58C68 59.1046 67.1046 60 66 60H22C20.8954 60 20 59.1046 20 58V17Z"/>
</mask>
<path d="M20 17C20 14.2386 22.2386 12 25 12H63C65.7614 12 68 14.2386 68 17V58C68 59.1046 67.1046 60 66 60H22C20.8954 60 20 59.1046 20 58V17Z" fill="#F55376"/>
<path d="M20 12H68H20M68 58C68 62.9706 63.9706 67 59 67H29C24.0294 67 20 62.9706 20 58V53C20 53 20.8954 53 22 53H66C67.1046 53 68 53 68 53V58ZM68 53M20 60V12V60M20 60M68 12V60V12" fill="#F55376" mask="url(#path-3-outside-2_1645_5669)"/>
<path d="M20 12H68H20M68 58C68 62.9706 63.9706 67 59 67H29C24.0294 67 20 62.9706 20 58V53C20 53 20.8954 53 22 53H66C67.1046 53 68 53 68 53V58ZM68 53M20 60V12V60M20 60M68 12V60V12" fill="black" fill-opacity="0.2" mask="url(#path-3-outside-2_1645_5669)"/>
<path d="M20 12H68H20M68 58C68 62.9706 63.9706 67 59 67H29C24.0294 67 20 62.9706 20 58V53C20 53 20.8954 53 22 53H66C67.1046 53 68 53 68 53V58ZM68 53M20 60V12V60M20 60M68 12V60V12" fill="black" fill-opacity="0.2" mask="url(#path-3-outside-2_1645_5669)"/>
<mask id="mask0_1645_5669" style="mask-type:alpha" maskUnits="userSpaceOnUse" x="15" y="7" width="58" height="58">
<rect x="17.5" y="9.5" width="53" height="53" rx="7.5" fill="#F55376" stroke="#CC0A34" stroke-width="5"/>
</mask>
<g mask="url(#mask0_1645_5669)">
<g filter="url(#filter0_f_1645_5669)">
<path d="M25.162 20.0202C26.8635 18.5578 29.8823 16.7841 35.9274 17.0215C39.7411 17.1713 47.4379 17.0874 49.4884 17.0433C49.6023 17.0286 49.6628 17.0215 49.6628 17.0215C50.1958 17.0215 50.0665 17.0308 49.4884 17.0433C48.0976 17.2221 38.7315 18.5283 33.9075 21.8417C32.0668 23.106 30.2385 24.8368 28.6358 26.558C26.8271 28.5005 23.1995 27.3529 23.1035 24.7004C23.047 23.1386 23.9767 21.0388 25.162 20.0202Z" fill="white" fill-opacity="0.3"/>
<path d="M35.9274 17.0215C29.8823 16.7841 26.8635 18.5578 25.162 20.0202C23.9767 21.0388 23.047 23.1386 23.1035 24.7004C23.1995 27.3529 26.8271 28.5005 28.6358 26.558C30.2385 24.8368 32.0668 23.106 33.9075 21.8417C39.1267 18.2569 49.6627 17.0215 49.6627 17.0215C52.0866 17.0215 40.8163 17.2135 35.9274 17.0215Z" stroke="white" stroke-opacity="0.3"/>
</g>
<g filter="url(#filter1_f_1645_5669)">
<path d="M58.6048 56.1615C64.8136 56.0446 65.6776 50.0057 65.3334 47.0009C65.3569 48.2487 64.8071 49.4384 63.8415 50.2291L60.2251 53.1904C57.8442 55.1401 53.4602 56.2584 56.537 56.2005L58.6048 56.1615Z" fill="white" fill-opacity="0.3"/>
</g>
</g>
<mask id="path-9-outside-3_1645_5669" maskUnits="userSpaceOnUse" x="83" y="12" width="48" height="55" fill="black">
<rect fill="white" x="83" y="12" width="48" height="55"/>
<path d="M83 17C83 14.2386 85.2386 12 88 12H126C128.761 12 131 14.2386 131 17V58C131 59.1046 130.105 60 129 60H85C83.8954 60 83 59.1046 83 58V17Z"/>
</mask>
<path d="M83 17C83 14.2386 85.2386 12 88 12H126C128.761 12 131 14.2386 131 17V58C131 59.1046 130.105 60 129 60H85C83.8954 60 83 59.1046 83 58V17Z" fill="#409F5C"/>
<path d="M83 12H131H83M131 58C131 62.9706 126.971 67 122 67H92C87.0294 67 83 62.9706 83 58V53C83 53 83.8954 53 85 53H129C130.105 53 131 53 131 53V58ZM131 53M83 60V12V60M83 60M131 12V60V12" fill="#409F5C" mask="url(#path-9-outside-3_1645_5669)"/>
<path d="M83 12H131H83M131 58C131 62.9706 126.971 67 122 67H92C87.0294 67 83 62.9706 83 58V53C83 53 83.8954 53 85 53H129C130.105 53 131 53 131 53V58ZM131 53M83 60V12V60M83 60M131 12V60V12" fill="black" fill-opacity="0.2" mask="url(#path-9-outside-3_1645_5669)"/>
<path d="M83 12H131H83M131 58C131 62.9706 126.971 67 122 67H92C87.0294 67 83 62.9706 83 58V53C83 53 83.8954 53 85 53H129C130.105 53 131 53 131 53V58ZM131 53M83 60V12V60M83 60M131 12V60V12" fill="black" fill-opacity="0.2" mask="url(#path-9-outside-3_1645_5669)"/>
<mask id="mask1_1645_5669" style="mask-type:alpha" maskUnits="userSpaceOnUse" x="78" y="7" width="58" height="58">
<rect x="80.5" y="9.5" width="53" height="53" rx="7.5" fill="#F55376" stroke="#CC0A34" stroke-width="5"/>
</mask>
<g mask="url(#mask1_1645_5669)">
<g filter="url(#filter2_f_1645_5669)">
<path d="M88.162 20.0202C89.8635 18.5578 92.8823 16.7841 98.9274 17.0215C102.741 17.1713 110.438 17.0874 112.488 17.0433C112.602 17.0286 112.663 17.0215 112.663 17.0215C113.196 17.0215 113.067 17.0308 112.488 17.0433C111.098 17.2221 101.732 18.5283 96.9075 21.8417C95.0668 23.106 93.2385 24.8368 91.6358 26.558C89.8271 28.5005 86.1995 27.3529 86.1035 24.7004C86.047 23.1386 86.9767 21.0388 88.162 20.0202Z" fill="white" fill-opacity="0.3"/>
<path d="M98.9274 17.0215C92.8823 16.7841 89.8635 18.5578 88.162 20.0202C86.9767 21.0388 86.047 23.1386 86.1035 24.7004C86.1995 27.3529 89.8271 28.5005 91.6358 26.558C93.2385 24.8368 95.0668 23.106 96.9075 21.8417C102.127 18.2569 112.663 17.0215 112.663 17.0215C115.087 17.0215 103.816 17.2135 98.9274 17.0215Z" stroke="white" stroke-opacity="0.3"/>
</g>
<g filter="url(#filter3_f_1645_5669)">
<path d="M121.604 56.162C127.813 56.0451 128.677 50.0062 128.332 47.0014C128.356 48.2492 127.806 49.4389 126.841 50.2296L123.224 53.1909C120.843 55.1405 116.459 56.2589 119.536 56.201L121.604 56.162Z" fill="white" fill-opacity="0.3"/>
</g>
</g>
<rect x="15" y="79" width="58" height="58" rx="6" stroke="#36898C" stroke-width="2"/>
<mask id="path-16-outside-4_1645_5669" maskUnits="userSpaceOnUse" x="20" y="82" width="48" height="51" fill="black">
<rect fill="white" x="20" y="82" width="48" height="51"/>
<path d="M20 87C20 84.2386 22.2386 82 25 82H63C65.7614 82 68 84.2386 68 87V128C68 129.105 67.1046 130 66 130H22C20.8954 130 20 129.105 20 128V87Z"/>
</mask>
<path d="M20 87C20 84.2386 22.2386 82 25 82H63C65.7614 82 68 84.2386 68 87V128C68 129.105 67.1046 130 66 130H22C20.8954 130 20 129.105 20 128V87Z" fill="#F34D08"/>
<path d="M20 82H68H20M68 128C68 130.761 65.7614 133 63 133H25C22.2386 133 20 130.761 20 128V127C20 127 20.8954 127 22 127H66C67.1046 127 68 127 68 127V128ZM68 127M20 130V82V130M20 130M68 82V130V82" fill="#F34D08" mask="url(#path-16-outside-4_1645_5669)"/>
<path d="M20 82H68H20M68 128C68 130.761 65.7614 133 63 133H25C22.2386 133 20 130.761 20 128V127C20 127 20.8954 127 22 127H66C67.1046 127 68 127 68 127V128ZM68 127M20 130V82V130M20 130M68 82V130V82" fill="black" fill-opacity="0.2" mask="url(#path-16-outside-4_1645_5669)"/>
<path d="M20 82H68H20M68 128C68 130.761 65.7614 133 63 133H25C22.2386 133 20 130.761 20 128V127C20 127 20.8954 127 22 127H66C67.1046 127 68 127 68 127V128ZM68 127M20 130V82V130M20 130M68 82V130V82" fill="black" fill-opacity="0.2" mask="url(#path-16-outside-4_1645_5669)"/>
<mask id="mask2_1645_5669" style="mask-type:alpha" maskUnits="userSpaceOnUse" x="15" y="77" width="58" height="58">
<rect x="17.5" y="79.5" width="53" height="53" rx="7.5" fill="#F55376" stroke="#CC0A34" stroke-width="5"/>
</mask>
<g mask="url(#mask2_1645_5669)">
<g filter="url(#filter4_f_1645_5669)">
<path d="M25.162 90.0202C26.8635 88.5578 29.8823 86.7841 35.9274 87.0215C39.7411 87.1713 47.4379 87.0874 49.4884 87.0433C49.6023 87.0286 49.6628 87.0215 49.6628 87.0215C50.1958 87.0215 50.0665 87.0308 49.4884 87.0433C48.0976 87.2221 38.7315 88.5283 33.9075 91.8417C32.0668 93.106 30.2385 94.8368 28.6358 96.558C26.8271 98.5005 23.1995 97.3529 23.1035 94.7004C23.047 93.1386 23.9767 91.0388 25.162 90.0202Z" fill="white" fill-opacity="0.3"/>
<path d="M35.9274 87.0215C29.8823 86.7841 26.8635 88.5578 25.162 90.0202C23.9767 91.0388 23.047 93.1386 23.1035 94.7004C23.1995 97.3529 26.8271 98.5005 28.6358 96.558C30.2385 94.8368 32.0668 93.106 33.9075 91.8417C39.1267 88.2569 49.6627 87.0215 49.6627 87.0215C52.0866 87.0215 40.8163 87.2135 35.9274 87.0215Z" stroke="white" stroke-opacity="0.3"/>
</g>
<g filter="url(#filter5_f_1645_5669)">
<path d="M58.6048 126.162C64.8136 126.045 65.6776 120.006 65.3334 117.001C65.3569 118.249 64.8071 119.438 63.8415 120.229L60.2251 123.19C57.8442 125.14 53.4602 126.258 56.537 126.2L58.6048 126.162Z" fill="white" fill-opacity="0.3"/>
</g>
</g>
<mask id="path-22-outside-5_1645_5669" maskUnits="userSpaceOnUse" x="83" y="80" width="48" height="55" fill="black">
<rect fill="white" x="83" y="80" width="48" height="55"/>
<path d="M83 85C83 82.2386 85.2386 80 88 80H126C128.761 80 131 82.2386 131 85V126C131 127.105 130.105 128 129 128H85C83.8954 128 83 127.105 83 126V85Z"/>
</mask>
<path d="M83 85C83 82.2386 85.2386 80 88 80H126C128.761 80 131 82.2386 131 85V126C131 127.105 130.105 128 129 128H85C83.8954 128 83 127.105 83 126V85Z" fill="#02C1C1"/>
<path d="M83 80H131H83M131 126C131 130.971 126.971 135 122 135H92C87.0294 135 83 130.971 83 126V121C83 121 83.8954 121 85 121H129C130.105 121 131 121 131 121V126ZM131 121M83 128V80V128M83 128M131 80V128V80" fill="#02C1C1" mask="url(#path-22-outside-5_1645_5669)"/>
<path d="M83 80H131H83M131 126C131 130.971 126.971 135 122 135H92C87.0294 135 83 130.971 83 126V121C83 121 83.8954 121 85 121H129C130.105 121 131 121 131 121V126ZM131 121M83 128V80V128M83 128M131 80V128V80" fill="black" fill-opacity="0.2" mask="url(#path-22-outside-5_1645_5669)"/>
<path d="M83 80H131H83M131 126C131 130.971 126.971 135 122 135H92C87.0294 135 83 130.971 83 126V121C83 121 83.8954 121 85 121H129C130.105 121 131 121 131 121V126ZM131 121M83 128V80V128M83 128M131 80V128V80" fill="black" fill-opacity="0.2" mask="url(#path-22-outside-5_1645_5669)"/>
<mask id="mask3_1645_5669" style="mask-type:alpha" maskUnits="userSpaceOnUse" x="78" y="75" width="58" height="58">
<rect x="80.5" y="77.5" width="53" height="53" rx="7.5" fill="#F55376" stroke="#CC0A34" stroke-width="5"/>
</mask>
<g mask="url(#mask3_1645_5669)">
<g filter="url(#filter6_f_1645_5669)">
<path d="M88.162 88.0202C89.8635 86.5578 92.8823 84.7841 98.9274 85.0215C102.741 85.1713 110.438 85.0874 112.488 85.0433C112.602 85.0286 112.663 85.0215 112.663 85.0215C113.196 85.0215 113.067 85.0308 112.488 85.0433C111.098 85.2221 101.732 86.5283 96.9075 89.8417C95.0668 91.106 93.2385 92.8368 91.6358 94.558C89.8271 96.5005 86.1995 95.3529 86.1035 92.7004C86.047 91.1386 86.9767 89.0388 88.162 88.0202Z" fill="white" fill-opacity="0.3"/>
<path d="M98.9274 85.0215C92.8823 84.7841 89.8635 86.5578 88.162 88.0202C86.9767 89.0388 86.047 91.1386 86.1035 92.7004C86.1995 95.3529 89.8271 96.5005 91.6358 94.558C93.2385 92.8368 95.0668 91.106 96.9075 89.8417C102.127 86.2569 112.663 85.0215 112.663 85.0215C115.087 85.0215 103.816 85.2135 98.9274 85.0215Z" stroke="white" stroke-opacity="0.3"/>
</g>
<g filter="url(#filter7_f_1645_5669)">
<path d="M121.605 124.162C127.814 124.045 128.678 118.006 128.333 115.001C128.357 116.249 127.807 117.438 126.842 118.229L123.225 121.19C120.844 123.14 116.46 124.258 119.537 124.2L121.605 124.162Z" fill="white" fill-opacity="0.3"/>
</g>
</g>
<mask id="path-28-outside-6_1645_5669" maskUnits="userSpaceOnUse" x="20" y="148" width="48" height="55" fill="black">
<rect fill="white" x="20" y="148" width="48" height="55"/>
<path d="M20 153C20 150.239 22.2386 148 25 148H63C65.7614 148 68 150.239 68 153V194C68 195.105 67.1046 196 66 196H22C20.8954 196 20 195.105 20 194V153Z"/>
</mask>
<path d="M20 153C20 150.239 22.2386 148 25 148H63C65.7614 148 68 150.239 68 153V194C68 195.105 67.1046 196 66 196H22C20.8954 196 20 195.105 20 194V153Z" fill="#FFC805"/>
<path d="M20 148H68H20M68 194C68 198.971 63.9706 203 59 203H29C24.0294 203 20 198.971 20 194V189C20 189 20.8954 189 22 189H66C67.1046 189 68 189 68 189V194ZM68 189M20 196V148V196M20 196M68 148V196V148" fill="#FFC805" mask="url(#path-28-outside-6_1645_5669)"/>
<path d="M20 148H68H20M68 194C68 198.971 63.9706 203 59 203H29C24.0294 203 20 198.971 20 194V189C20 189 20.8954 189 22 189H66C67.1046 189 68 189 68 189V194ZM68 189M20 196V148V196M20 196M68 148V196V148" fill="black" fill-opacity="0.2" mask="url(#path-28-outside-6_1645_5669)"/>
<path d="M20 148H68H20M68 194C68 198.971 63.9706 203 59 203H29C24.0294 203 20 198.971 20 194V189C20 189 20.8954 189 22 189H66C67.1046 189 68 189 68 189V194ZM68 189M20 196V148V196M20 196M68 148V196V148" fill="black" fill-opacity="0.2" mask="url(#path-28-outside-6_1645_5669)"/>
<mask id="mask4_1645_5669" style="mask-type:alpha" maskUnits="userSpaceOnUse" x="15" y="143" width="58" height="58">
<rect x="17.5" y="145.5" width="53" height="53" rx="7.5" fill="#F55376" stroke="#CC0A34" stroke-width="5"/>
</mask>
<g mask="url(#mask4_1645_5669)">
<g filter="url(#filter8_f_1645_5669)">
<path d="M25.162 156.02C26.8635 154.558 29.8823 152.784 35.9274 153.022C39.7411 153.171 47.4379 153.087 49.4884 153.043C49.6023 153.029 49.6628 153.022 49.6628 153.022C50.1958 153.022 50.0665 153.031 49.4884 153.043C48.0976 153.222 38.7315 154.528 33.9075 157.842C32.0668 159.106 30.2385 160.837 28.6358 162.558C26.8271 164.501 23.1995 163.353 23.1035 160.7C23.047 159.139 23.9767 157.039 25.162 156.02Z" fill="white" fill-opacity="0.3"/>
<path d="M35.9274 153.022C29.8823 152.784 26.8635 154.558 25.162 156.02C23.9767 157.039 23.047 159.139 23.1035 160.7C23.1995 163.353 26.8271 164.501 28.6358 162.558C30.2385 160.837 32.0668 159.106 33.9075 157.842C39.1267 154.257 49.6627 153.022 49.6627 153.022C52.0866 153.022 40.8163 153.214 35.9274 153.022Z" stroke="white" stroke-opacity="0.3"/>
</g>
<g filter="url(#filter9_f_1645_5669)">
<path d="M58.6048 192.162C64.8136 192.045 65.6776 186.006 65.3334 183.001C65.3569 184.249 64.8071 185.438 63.8415 186.229L60.2251 189.19C57.8442 191.14 53.4602 192.258 56.537 192.2L58.6048 192.162Z" fill="white" fill-opacity="0.3"/>
</g>
</g>
<mask id="path-34-outside-7_1645_5669" maskUnits="userSpaceOnUse" x="83" y="148" width="48" height="55" fill="black">
<rect fill="white" x="83" y="148" width="48" height="55"/>
<path d="M83 153C83 150.239 85.2386 148 88 148H126C128.761 148 131 150.239 131 153V194C131 195.105 130.105 196 129 196H85C83.8954 196 83 195.105 83 194V153Z"/>
</mask>
<path d="M83 153C83 150.239 85.2386 148 88 148H126C128.761 148 131 150.239 131 153V194C131 195.105 130.105 196 129 196H85C83.8954 196 83 195.105 83 194V153Z" fill="#C094EF"/>
<path d="M83 148H131H83M131 194C131 198.971 126.971 203 122 203H92C87.0294 203 83 198.971 83 194V189C83 189 83.8954 189 85 189H129C130.105 189 131 189 131 189V194ZM131 189M83 196V148V196M83 196M131 148V196V148" fill="#C094EF" mask="url(#path-34-outside-7_1645_5669)"/>
<path d="M83 148H131H83M131 194C131 198.971 126.971 203 122 203H92C87.0294 203 83 198.971 83 194V189C83 189 83.8954 189 85 189H129C130.105 189 131 189 131 189V194ZM131 189M83 196V148V196M83 196M131 148V196V148" fill="black" fill-opacity="0.2" mask="url(#path-34-outside-7_1645_5669)"/>
<path d="M83 148H131H83M131 194C131 198.971 126.971 203 122 203H92C87.0294 203 83 198.971 83 194V189C83 189 83.8954 189 85 189H129C130.105 189 131 189 131 189V194ZM131 189M83 196V148V196M83 196M131 148V196V148" fill="black" fill-opacity="0.2" mask="url(#path-34-outside-7_1645_5669)"/>
<mask id="mask5_1645_5669" style="mask-type:alpha" maskUnits="userSpaceOnUse" x="78" y="143" width="58" height="58">
<rect x="80.5" y="145.5" width="53" height="53" rx="7.5" fill="#F55376" stroke="#CC0A34" stroke-width="5"/>
</mask>
<g mask="url(#mask5_1645_5669)">
<g filter="url(#filter10_f_1645_5669)">
<path d="M88.162 156.02C89.8635 154.558 92.8823 152.784 98.9274 153.022C102.741 153.171 110.438 153.087 112.488 153.043C112.602 153.029 112.663 153.022 112.663 153.022C113.196 153.022 113.067 153.031 112.488 153.043C111.098 153.222 101.732 154.528 96.9075 157.842C95.0668 159.106 93.2385 160.837 91.6358 162.558C89.8271 164.501 86.1995 163.353 86.1035 160.7C86.047 159.139 86.9767 157.039 88.162 156.02Z" fill="white" fill-opacity="0.3"/>
<path d="M98.9274 153.022C92.8823 152.784 89.8635 154.558 88.162 156.02C86.9767 157.039 86.047 159.139 86.1035 160.7C86.1995 163.353 89.8271 164.501 91.6358 162.558C93.2385 160.837 95.0668 159.106 96.9075 157.842C102.127 154.257 112.663 153.022 112.663 153.022C115.087 153.022 103.816 153.214 98.9274 153.022Z" stroke="white" stroke-opacity="0.3"/>
</g>
<g filter="url(#filter11_f_1645_5669)">
<path d="M121.605 192.162C127.814 192.045 128.678 186.006 128.333 183.001C128.357 184.249 127.807 185.438 126.842 186.229L123.225 189.19C120.844 191.14 116.46 192.258 119.537 192.2L121.605 192.162Z" fill="white" fill-opacity="0.3"/>
</g>
</g>
<mask id="path-40-outside-8_1645_5669" maskUnits="userSpaceOnUse" x="20" y="216" width="48" height="55" fill="black">
<rect fill="white" x="20" y="216" width="48" height="55"/>
<path d="M20 221C20 218.239 22.2386 216 25 216H63C65.7614 216 68 218.239 68 221V262C68 263.105 67.1046 264 66 264H22C20.8954 264 20 263.105 20 262V221Z"/>
</mask>
<path d="M20 221C20 218.239 22.2386 216 25 216H63C65.7614 216 68 218.239 68 221V262C68 263.105 67.1046 264 66 264H22C20.8954 264 20 263.105 20 262V221Z" fill="#81C127"/>
<path d="M20 216H68H20M68 262C68 266.971 63.9706 271 59 271H29C24.0294 271 20 266.971 20 262V257C20 257 20.8954 257 22 257H66C67.1046 257 68 257 68 257V262ZM68 257M20 264V216V264M20 264M68 216V264V216" fill="#81C127" mask="url(#path-40-outside-8_1645_5669)"/>
<path d="M20 216H68H20M68 262C68 266.971 63.9706 271 59 271H29C24.0294 271 20 266.971 20 262V257C20 257 20.8954 257 22 257H66C67.1046 257 68 257 68 257V262ZM68 257M20 264V216V264M20 264M68 216V264V216" fill="black" fill-opacity="0.2" mask="url(#path-40-outside-8_1645_5669)"/>
<path d="M20 216H68H20M68 262C68 266.971 63.9706 271 59 271H29C24.0294 271 20 266.971 20 262V257C20 257 20.8954 257 22 257H66C67.1046 257 68 257 68 257V262ZM68 257M20 264V216V264M20 264M68 216V264V216" fill="black" fill-opacity="0.2" mask="url(#path-40-outside-8_1645_5669)"/>
<mask id="mask6_1645_5669" style="mask-type:alpha" maskUnits="userSpaceOnUse" x="15" y="211" width="58" height="58">
<path d="M63 213.5L63.3857 213.51C67.3486 213.711 70.5 216.987 70.5 221V262C70.5 264.485 68.4853 266.5 66 266.5H22C19.5147 266.5 17.5 264.485 17.5 262V221C17.5 216.858 20.8579 213.5 25 213.5H63Z" fill="#F55376" stroke="#CC0A34" stroke-width="5"/>
</mask>
<g mask="url(#mask6_1645_5669)">
<g filter="url(#filter12_f_1645_5669)">
<path d="M25.162 224.02C26.8635 222.558 29.8823 220.784 35.9274 221.022C39.7411 221.171 47.4379 221.087 49.4884 221.043C49.6023 221.029 49.6628 221.022 49.6628 221.022C50.1958 221.022 50.0665 221.031 49.4884 221.043C48.0976 221.222 38.7315 222.528 33.9075 225.842C32.0668 227.106 30.2385 228.837 28.6358 230.558C26.8271 232.501 23.1995 231.353 23.1035 228.7C23.047 227.139 23.9767 225.039 25.162 224.02Z" fill="white" fill-opacity="0.3"/>
<path d="M35.9274 221.022C29.8823 220.784 26.8635 222.558 25.162 224.02C23.9767 225.039 23.047 227.139 23.1035 228.7C23.1995 231.353 26.8271 232.501 28.6358 230.558C30.2385 228.837 32.0668 227.106 33.9075 225.842C39.1267 222.257 49.6627 221.022 49.6627 221.022C52.0866 221.022 40.8163 221.214 35.9274 221.022Z" stroke="white" stroke-opacity="0.3"/>
</g>
<g filter="url(#filter13_f_1645_5669)">
<path d="M58.6048 260.162C64.8136 260.045 65.6776 254.006 65.3334 251.001C65.3569 252.249 64.8071 253.438 63.8415 254.229L60.2251 257.19C57.8442 259.14 53.4602 260.258 56.537 260.2L58.6048 260.162Z" fill="white" fill-opacity="0.3"/>
</g>
</g>
<mask id="path-46-outside-9_1645_5669" maskUnits="userSpaceOnUse" x="83" y="216" width="48" height="55" fill="black">
<rect fill="white" x="83" y="216" width="48" height="55"/>
<path d="M83 221C83 218.239 85.2386 216 88 216H126C128.761 216 131 218.239 131 221V262C131 263.105 130.105 264 129 264H85C83.8954 264 83 263.105 83 262V221Z"/>
</mask>
<path d="M83 221C83 218.239 85.2386 216 88 216H126C128.761 216 131 218.239 131 221V262C131 263.105 130.105 264 129 264H85C83.8954 264 83 263.105 83 262V221Z" fill="#8EFFFF"/>
<path d="M83 216H131H83M131 262C131 266.971 126.971 271 122 271H92C87.0294 271 83 266.971 83 262V257C83 257 83.8954 257 85 257H129C130.105 257 131 257 131 257V262ZM131 257M83 264V216V264M83 264M131 216V264V216" fill="#8EFFFF" mask="url(#path-46-outside-9_1645_5669)"/>
<path d="M83 216H131H83M131 262C131 266.971 126.971 271 122 271H92C87.0294 271 83 266.971 83 262V257C83 257 83.8954 257 85 257H129C130.105 257 131 257 131 257V262ZM131 257M83 264V216V264M83 264M131 216V264V216" fill="black" fill-opacity="0.2" mask="url(#path-46-outside-9_1645_5669)"/>
<path d="M83 216H131H83M131 262C131 266.971 126.971 271 122 271H92C87.0294 271 83 266.971 83 262V257C83 257 83.8954 257 85 257H129C130.105 257 131 257 131 257V262ZM131 257M83 264V216V264M83 264M131 216V264V216" fill="black" fill-opacity="0.2" mask="url(#path-46-outside-9_1645_5669)"/>
<mask id="mask7_1645_5669" style="mask-type:alpha" maskUnits="userSpaceOnUse" x="78" y="211" width="58" height="58">
<path d="M126 213.5L126.386 213.51C130.349 213.711 133.5 216.987 133.5 221V262C133.5 264.485 131.485 266.5 129 266.5H85C82.5147 266.5 80.5 264.485 80.5 262V221C80.5 216.858 83.8579 213.5 88 213.5H126Z" fill="#F55376" stroke="#CC0A34" stroke-width="5"/>
</mask>
<g mask="url(#mask7_1645_5669)">
<g filter="url(#filter14_f_1645_5669)">
<path d="M88.162 224.02C89.8635 222.558 92.8823 220.784 98.9274 221.022C102.741 221.171 110.438 221.087 112.488 221.043C112.602 221.029 112.663 221.022 112.663 221.022C113.196 221.022 113.067 221.031 112.488 221.043C111.098 221.222 101.732 222.528 96.9075 225.842C95.0668 227.106 93.2385 228.837 91.6358 230.558C89.8271 232.501 86.1995 231.353 86.1035 228.7C86.047 227.139 86.9767 225.039 88.162 224.02Z" fill="white" fill-opacity="0.3"/>
<path d="M98.9274 221.022C92.8823 220.784 89.8635 222.558 88.162 224.02C86.9767 225.039 86.047 227.139 86.1035 228.7C86.1995 231.353 89.8271 232.501 91.6358 230.558C93.2385 228.837 95.0668 227.106 96.9075 225.842C102.127 222.257 112.663 221.022 112.663 221.022C115.087 221.022 103.816 221.214 98.9274 221.022Z" stroke="white" stroke-opacity="0.3"/>
</g>
<g filter="url(#filter15_f_1645_5669)">
<path d="M121.605 260.162C127.814 260.045 128.678 254.006 128.333 251.001C128.357 252.249 127.807 253.438 126.842 254.229L123.225 257.19C120.844 259.14 116.46 260.258 119.537 260.2L121.605 260.162Z" fill="white" fill-opacity="0.3"/>
</g>
</g>
<defs>
<filter id="filter0_f_1645_5669" x="16.6011" y="10.5" width="39.8989" height="23.5298" filterUnits="userSpaceOnUse" color-interpolation-filters="sRGB">
<feFlood flood-opacity="0" result="BackgroundImageFix"/>
<feBlend mode="normal" in="SourceGraphic" in2="BackgroundImageFix" result="shape"/>
<feGaussianBlur stdDeviation="3" result="effect1_foregroundBlur_1645_5669"/>
</filter>
<filter id="filter1_f_1645_5669" x="51.48" y="43.001" width="17.918" height="17.2017" filterUnits="userSpaceOnUse" color-interpolation-filters="sRGB">
<feFlood flood-opacity="0" result="BackgroundImageFix"/>
<feBlend mode="normal" in="SourceGraphic" in2="BackgroundImageFix" result="shape"/>
<feGaussianBlur stdDeviation="2" result="effect1_foregroundBlur_1645_5669"/>
</filter>
<filter id="filter2_f_1645_5669" x="79.6011" y="10.5" width="39.8989" height="23.5298" filterUnits="userSpaceOnUse" color-interpolation-filters="sRGB">
<feFlood flood-opacity="0" result="BackgroundImageFix"/>
<feBlend mode="normal" in="SourceGraphic" in2="BackgroundImageFix" result="shape"/>
<feGaussianBlur stdDeviation="3" result="effect1_foregroundBlur_1645_5669"/>
</filter>
<filter id="filter3_f_1645_5669" x="114.479" y="43.0015" width="17.918" height="17.2017" filterUnits="userSpaceOnUse" color-interpolation-filters="sRGB">
<feFlood flood-opacity="0" result="BackgroundImageFix"/>
<feBlend mode="normal" in="SourceGraphic" in2="BackgroundImageFix" result="shape"/>
<feGaussianBlur stdDeviation="2" result="effect1_foregroundBlur_1645_5669"/>
</filter>
<filter id="filter4_f_1645_5669" x="16.6011" y="80.5" width="39.8989" height="23.5298" filterUnits="userSpaceOnUse" color-interpolation-filters="sRGB">
<feFlood flood-opacity="0" result="BackgroundImageFix"/>
<feBlend mode="normal" in="SourceGraphic" in2="BackgroundImageFix" result="shape"/>
<feGaussianBlur stdDeviation="3" result="effect1_foregroundBlur_1645_5669"/>
</filter>
<filter id="filter5_f_1645_5669" x="51.48" y="113.001" width="17.918" height="17.2017" filterUnits="userSpaceOnUse" color-interpolation-filters="sRGB">
<feFlood flood-opacity="0" result="BackgroundImageFix"/>
<feBlend mode="normal" in="SourceGraphic" in2="BackgroundImageFix" result="shape"/>
<feGaussianBlur stdDeviation="2" result="effect1_foregroundBlur_1645_5669"/>
</filter>
<filter id="filter6_f_1645_5669" x="79.6011" y="78.5" width="39.8989" height="23.5298" filterUnits="userSpaceOnUse" color-interpolation-filters="sRGB">
<feFlood flood-opacity="0" result="BackgroundImageFix"/>
<feBlend mode="normal" in="SourceGraphic" in2="BackgroundImageFix" result="shape"/>
<feGaussianBlur stdDeviation="3" result="effect1_foregroundBlur_1645_5669"/>
</filter>
<filter id="filter7_f_1645_5669" x="114.48" y="111.001" width="17.918" height="17.2017" filterUnits="userSpaceOnUse" color-interpolation-filters="sRGB">
<feFlood flood-opacity="0" result="BackgroundImageFix"/>
<feBlend mode="normal" in="SourceGraphic" in2="BackgroundImageFix" result="shape"/>
<feGaussianBlur stdDeviation="2" result="effect1_foregroundBlur_1645_5669"/>
</filter>
<filter id="filter8_f_1645_5669" x="16.6011" y="146.5" width="39.8989" height="23.5298" filterUnits="userSpaceOnUse" color-interpolation-filters="sRGB">
<feFlood flood-opacity="0" result="BackgroundImageFix"/>
<feBlend mode="normal" in="SourceGraphic" in2="BackgroundImageFix" result="shape"/>
<feGaussianBlur stdDeviation="3" result="effect1_foregroundBlur_1645_5669"/>
</filter>
<filter id="filter9_f_1645_5669" x="51.48" y="179.001" width="17.918" height="17.2017" filterUnits="userSpaceOnUse" color-interpolation-filters="sRGB">
<feFlood flood-opacity="0" result="BackgroundImageFix"/>
<feBlend mode="normal" in="SourceGraphic" in2="BackgroundImageFix" result="shape"/>
<feGaussianBlur stdDeviation="2" result="effect1_foregroundBlur_1645_5669"/>
</filter>
<filter id="filter10_f_1645_5669" x="79.6011" y="146.5" width="39.8989" height="23.5298" filterUnits="userSpaceOnUse" color-interpolation-filters="sRGB">
<feFlood flood-opacity="0" result="BackgroundImageFix"/>
<feBlend mode="normal" in="SourceGraphic" in2="BackgroundImageFix" result="shape"/>
<feGaussianBlur stdDeviation="3" result="effect1_foregroundBlur_1645_5669"/>
</filter>
<filter id="filter11_f_1645_5669" x="114.48" y="179.001" width="17.918" height="17.2017" filterUnits="userSpaceOnUse" color-interpolation-filters="sRGB">
<feFlood flood-opacity="0" result="BackgroundImageFix"/>
<feBlend mode="normal" in="SourceGraphic" in2="BackgroundImageFix" result="shape"/>
<feGaussianBlur stdDeviation="2" result="effect1_foregroundBlur_1645_5669"/>
</filter>
<filter id="filter12_f_1645_5669" x="16.6011" y="214.5" width="39.8989" height="23.5298" filterUnits="userSpaceOnUse" color-interpolation-filters="sRGB">
<feFlood flood-opacity="0" result="BackgroundImageFix"/>
<feBlend mode="normal" in="SourceGraphic" in2="BackgroundImageFix" result="shape"/>
<feGaussianBlur stdDeviation="3" result="effect1_foregroundBlur_1645_5669"/>
</filter>
<filter id="filter13_f_1645_5669" x="51.48" y="247.001" width="17.918" height="17.2017" filterUnits="userSpaceOnUse" color-interpolation-filters="sRGB">
<feFlood flood-opacity="0" result="BackgroundImageFix"/>
<feBlend mode="normal" in="SourceGraphic" in2="BackgroundImageFix" result="shape"/>
<feGaussianBlur stdDeviation="2" result="effect1_foregroundBlur_1645_5669"/>
</filter>
<filter id="filter14_f_1645_5669" x="79.6011" y="214.5" width="39.8989" height="23.5298" filterUnits="userSpaceOnUse" color-interpolation-filters="sRGB">
<feFlood flood-opacity="0" result="BackgroundImageFix"/>
<feBlend mode="normal" in="SourceGraphic" in2="BackgroundImageFix" result="shape"/>
<feGaussianBlur stdDeviation="3" result="effect1_foregroundBlur_1645_5669"/>
</filter>
<filter id="filter15_f_1645_5669" x="114.48" y="247.001" width="17.918" height="17.2017" filterUnits="userSpaceOnUse" color-interpolation-filters="sRGB">
<feFlood flood-opacity="0" result="BackgroundImageFix"/>
<feBlend mode="normal" in="SourceGraphic" in2="BackgroundImageFix" result="shape"/>
<feGaussianBlur stdDeviation="2" result="effect1_foregroundBlur_1645_5669"/>
</filter>
</defs>
</svg>
