<?xml version="1.0" encoding="UTF-8"?><svg id="Layer_2" xmlns="http://www.w3.org/2000/svg" viewBox="0 0 158.48 159.1"><defs><style>.cls-1{fill:#fefefe;}.cls-2{fill:#ffc000;}.cls-3{fill:#ff94b5;}.cls-4{fill:#ff7925;}.cls-5{fill:#620a6d;opacity:.2;}</style></defs><g id="Layer_1-2"><g><path class="cls-5" d="m53.04,7.25h60.98c5.04,0,9.13,4.09,9.13,9.13v61.37c0,4.99-4.05,9.04-9.04,9.04h-61.18c-4.98,0-9.02-4.04-9.02-9.02V16.38c0-5.04,4.09-9.13,9.13-9.13Z" transform="translate(16.24 -21.25) rotate(16.04)"/><rect class="cls-2" x="44.9" y="6.54" width="73.2" height="73.2" rx="9.05" ry="9.05" transform="translate(15.09 -20.84) rotate(16.04)"/><path class="cls-1" d="m82.75,23.72c.77-.2,1.87-.28,3.29-.24,1.43.03,2.82.24,4.16.63,1.92.55,3.55,1.32,4.87,2.31,1.32.98,2.02,2.13,2.1,3.45.12,2.2.2,4.75.24,7.63.04,2.89.06,5.87.06,8.93,0,3.06-.02,6.08-.04,9.06-.02,2.97-.04,5.61-.08,7.89-.62.41-1.43.64-2.45.7-1.02.06-2.16-.09-3.43-.45-.92-.26-1.68-.57-2.27-.9-.59-.34-1.04-.72-1.36-1.15-.32-.42-.53-.92-.63-1.49-.11-.57-.16-1.21-.17-1.93l.1-4.29-10.46-3c-.64,1.07-1.29,2.17-1.95,3.31-.66,1.14-1.32,2.25-1.96,3.31-.59.04-1.21.04-1.84,0-.64-.03-1.38-.18-2.22-.42-1.97-.56-3.32-1.32-4.07-2.27s-.95-2.01-.61-3.2c.16-.55.38-1.06.69-1.55.31-.5.66-1.08,1.07-1.76.57-.96,1.32-2.14,2.24-3.54.92-1.4,1.93-2.91,3.02-4.54,1.09-1.63,2.24-3.29,3.44-4.98,1.2-1.7,2.32-3.31,3.38-4.81,1.06-1.51,2.02-2.85,2.88-4.01.86-1.18,1.52-2.07,1.99-2.68Zm4.79,9.44c-1,1.47-2.13,3.09-3.37,4.88-1.25,1.79-2.43,3.63-3.56,5.51l7.16,2.06c.06-2.23.09-4.42.11-6.57s.01-4.07,0-5.79l-.35-.1Z"/><path class="cls-5" d="m10.49,79.56h58.25c5.79,0,10.49,4.7,10.49,10.49v58.53c0,5.8-4.71,10.51-10.51,10.51H10.5C4.71,159.1,0,154.39,0,148.6v-58.54C0,84.26,4.7,79.56,10.49,79.56Z"/><rect class="cls-4" x="0" y="79.56" width="73.2" height="73.2" rx="9.69" ry="9.69"/><path class="cls-5" d="m89.4,79.56h58.91c5.61,0,10.16,4.55,10.16,10.16v59.19c0,5.62-4.56,10.18-10.18,10.18h-58.88c-5.61,0-10.17-4.56-10.17-10.17v-59.2c0-5.61,4.55-10.16,10.16-10.16Z"/><rect class="cls-3" x="79.24" y="79.56" width="73.2" height="73.2" rx="8.56" ry="8.56"/><path class="cls-1" d="m33.25,108.32l-6.33,1.96c-.63-.42-1.27-1.01-1.9-1.77-.63-.76-.95-1.82-.95-3.17,0-2.53,1.54-4.31,4.62-5.32l7.09-2.41h2.34c1.81,0,3.25.53,4.31,1.58s1.58,2.49,1.58,4.31v32.99c-.47.08-1.15.2-2.06.35-.91.15-1.83.22-2.76.22s-1.76-.06-2.5-.19-1.36-.38-1.87-.76c-.51-.38-.9-.9-1.17-1.55-.28-.65-.41-1.51-.41-2.57v-23.69Z"/><path class="cls-1" d="m139.26,94.64c1,0,1.72.31,2.16.94.44.63.66,1.55.66,2.76,0,.54-.07,1.2-.22,1.97-.15.77-.32,1.35-.53,1.72h-5.64v31.54c-.34.13-1,.25-2.01.38-1,.13-1.92.19-2.76.19-1.84,0-3.22-.28-4.14-.85-.92-.56-1.38-1.79-1.38-3.67v-10.34c-.33.08-.67.13-1,.13h-1c-1.13,0-2.26-.13-3.39-.38-1.13-.25-2.13-.61-3.01-1.07l-.13.19c.67.59,1.21,1.38,1.63,2.38.42,1,.63,1.99.63,2.95,0,3.05-1.24,5.41-3.73,7.08-2.49,1.67-6.01,2.51-10.56,2.51-1.71,0-3.32-.15-4.83-.44-1.5-.29-2.82-.71-3.95-1.25-1.13-.54-2.03-1.21-2.7-2.01-.67-.79-1-1.69-1-2.7,0-1.34.38-2.43,1.13-3.29.75-.86,1.55-1.41,2.38-1.66.88.79,2,1.54,3.35,2.23,1.36.69,2.83,1.03,4.42,1.03s2.86-.34,3.7-1.03c.84-.69,1.25-1.64,1.25-2.85,0-1.05-.32-1.92-.97-2.63-.65-.71-1.62-1.07-2.92-1.07h-5.89c-.33-.42-.61-.96-.81-1.63-.21-.67-.31-1.42-.31-2.26s.1-1.65.31-2.32c.21-.67.48-1.23.81-1.69h4.89c1.34,0,2.37-.31,3.1-.94.73-.63,1.1-1.5,1.1-2.63,0-1.04-.34-1.94-1.03-2.69-.69-.75-1.91-1.13-3.67-1.13-.96,0-1.9.2-2.82.6-.92.4-1.71.91-2.38,1.54-1.09-.46-1.95-1.1-2.6-1.91s-.97-1.77-.97-2.85c0-1.63.89-2.95,2.66-3.95,1.78-1,4.36-1.5,7.74-1.5,2.01,0,3.85.25,5.52.75,1.67.5,3.1,1.21,4.29,2.13,1.19.92,2.12,2.03,2.79,3.32.67,1.3,1,2.72,1,4.26,0,1.3-.29,2.52-.88,3.67-.59,1.15-1.34,2.12-2.26,2.91,1.29.25,2.65.38,4.07.38,1,0,2.01-.06,3.01-.19,1-.13,2.01-.36,3.01-.69v-8.53h-2.51c-1.05,0-1.78-.32-2.19-.97-.42-.65-.63-1.6-.63-2.85,0-.5.06-1.13.19-1.88.13-.75.29-1.32.5-1.69h18.49Z"/></g></g></svg>