<?xml version="1.0" encoding="UTF-8"?><svg id="Layer_2" xmlns="http://www.w3.org/2000/svg" viewBox="0 0 145.66 142.21"><defs><style>.cls-1{fill:#009948;}.cls-2{fill:#0090d3;}.cls-3{fill:#f35908;}.cls-4{fill:#fefefe;}</style></defs><g id="Layer_1-2"><rect class="cls-2" x="40.05" y="6.45" width="69.94" height="69.94" rx="7.79" ry="7.79" transform="translate(14.36 -19.11) rotate(16.04)"/><path class="cls-4" d="m76.21,22.87c.73-.19,1.78-.27,3.15-.23,1.36.03,2.69.23,3.98.6,1.84.53,3.39,1.26,4.66,2.21,1.26.94,1.93,2.04,2.01,3.3.11,2.1.19,4.54.23,7.3.04,2.76.06,5.61.05,8.53,0,2.92-.02,5.81-.04,8.66-.02,2.84-.04,5.36-.07,7.54-.59.39-1.37.61-2.34.67-.97.06-2.06-.08-3.28-.43-.88-.25-1.61-.55-2.17-.86-.56-.33-1-.68-1.3-1.1-.3-.4-.5-.88-.6-1.42-.1-.55-.15-1.16-.16-1.84l.1-4.1-9.99-2.87c-.61,1.02-1.23,2.08-1.86,3.17-.64,1.09-1.26,2.15-1.87,3.17-.57.04-1.16.04-1.76,0-.61-.03-1.32-.17-2.13-.4-1.88-.54-3.18-1.26-3.89-2.17s-.91-1.92-.58-3.06c.15-.52.37-1.01.66-1.48.3-.48.64-1.03,1.02-1.69.54-.92,1.26-2.04,2.14-3.39.88-1.34,1.85-2.78,2.89-4.34,1.04-1.56,2.14-3.14,3.28-4.76,1.14-1.62,2.22-3.16,3.23-4.6,1.01-1.44,1.93-2.72,2.75-3.83.82-1.12,1.45-1.98,1.9-2.56Zm4.58,9.02c-.96,1.4-2.03,2.96-3.22,4.67-1.19,1.71-2.32,3.47-3.4,5.27l6.85,1.97c.05-2.13.09-4.23.1-6.28s.01-3.89,0-5.53l-.33-.1Z"/><rect class="cls-3" y="72.27" width="69.94" height="69.94" rx="8.13" ry="8.13"/><rect class="cls-1" x="75.72" y="72.27" width="69.94" height="69.94" rx="8.31" ry="8.31"/><path class="cls-4" d="m31.77,99.75l-6.05,1.88c-.61-.4-1.21-.97-1.82-1.69-.61-.73-.91-1.73-.91-3.03,0-2.42,1.47-4.12,4.42-5.08l6.78-2.3h2.24c1.73,0,3.11.5,4.11,1.51,1.01,1.01,1.51,2.38,1.51,4.11v31.53c-.44.08-1.1.19-1.97.33-.87.14-1.75.21-2.63.21s-1.68-.06-2.39-.18-1.3-.36-1.78-.73c-.48-.36-.86-.86-1.12-1.48-.26-.62-.39-1.44-.39-2.45v-22.63Z"/><path class="cls-4" d="m133.07,86.68c.96,0,1.65.3,2.07.9.42.6.63,1.48.63,2.64,0,.52-.07,1.15-.21,1.89-.14.74-.31,1.29-.51,1.65h-5.39v30.13c-.32.12-.96.24-1.92.36-.96.12-1.84.18-2.64.18-1.76,0-3.08-.27-3.95-.81-.88-.54-1.32-1.71-1.32-3.5v-9.88c-.32.08-.64.12-.96.12h-.96c-1.08,0-2.16-.12-3.23-.36-1.08-.24-2.04-.58-2.88-1.02l-.12.18c.64.56,1.16,1.32,1.56,2.28.4.96.6,1.9.6,2.81,0,2.92-1.19,5.17-3.56,6.77-2.38,1.6-5.74,2.4-10.09,2.4-1.64,0-3.18-.14-4.61-.42-1.44-.28-2.7-.68-3.77-1.2-1.08-.52-1.94-1.16-2.58-1.92-.64-.76-.96-1.62-.96-2.58,0-1.28.36-2.33,1.08-3.14.72-.82,1.48-1.35,2.28-1.59.84.76,1.91,1.47,3.2,2.13,1.3.66,2.71.99,4.22.99s2.74-.33,3.53-.99c.8-.66,1.2-1.57,1.2-2.73,0-1-.31-1.84-.93-2.52-.62-.68-1.55-1.02-2.79-1.02h-5.63c-.32-.4-.58-.92-.78-1.56-.2-.64-.3-1.36-.3-2.16s.1-1.58.3-2.22c.2-.64.46-1.18.78-1.62h4.67c1.28,0,2.27-.3,2.97-.9.7-.6,1.05-1.44,1.05-2.52,0-1-.33-1.86-.99-2.58-.66-.72-1.83-1.08-3.5-1.08-.92,0-1.82.19-2.7.57-.88.38-1.64.87-2.28,1.47-1.04-.44-1.87-1.05-2.49-1.83s-.93-1.69-.93-2.73c0-1.56.85-2.82,2.55-3.77,1.7-.96,4.16-1.44,7.4-1.44,1.92,0,3.67.24,5.27.72,1.6.48,2.97,1.16,4.1,2.04,1.14.88,2.03,1.94,2.67,3.18.64,1.24.96,2.6.96,4.07,0,1.24-.28,2.41-.84,3.5-.56,1.1-1.28,2.03-2.16,2.78,1.24.24,2.54.36,3.89.36.96,0,1.92-.06,2.88-.18.96-.12,1.92-.34,2.88-.66v-8.15h-2.4c-1,0-1.7-.31-2.1-.93-.4-.62-.6-1.53-.6-2.73,0-.48.06-1.08.18-1.8.12-.72.28-1.26.48-1.62h17.67Z"/></g></svg>