<svg width="51" height="46" viewBox="0 0 51 46" fill="none" xmlns="http://www.w3.org/2000/svg">
<g clip-path="url(#clip0_2167_89239)">
<path d="M43.469 44.8563C33.5 44.6714 30.5 44.6714 27.4304 44.6714C26 44.6714 26.416 44.6885 25.5 44.6714C24.5912 44.6543 24.6136 44.6748 23 44.6714C19.1136 44.6631 15.5 44.6714 7.02388 44.8529C5.94626 44.7399 4.11431 44.4591 2.76369 43.1716C1.67171 42.1306 1 40.6959 1 39.1105V6.7687C1 3.59787 3.69763 1.02629 7.02388 1.02629H43.4654C43.7922 0.992045 46.0229 0.79002 47.801 2.3994C48.8032 3.3034 49.4282 4.71075 49.4893 6.77213V39.1139C49.5949 41.3067 49.2265 42.6621 48.5455 43.5C47.443 44.8563 45.5215 44.8563 43.4654 44.8563H43.469Z" fill="white" stroke="#F35908" stroke-width="2" stroke-linecap="round" stroke-linejoin="round"/>
<path d="M48 44H4V43H48V44Z" stroke="#F35908"/>
<path d="M27.5898 10.4397L15.0152 16.5945C14.2712 16.9587 13.9632 17.8571 14.3274 18.6012L22.2235 34.7334C22.5877 35.4775 23.4862 35.7854 24.2302 35.4212L36.8048 29.2665C37.5488 28.9023 37.8568 28.0038 37.4926 27.2598L29.5965 11.1275C29.2323 10.3835 28.3339 10.0755 27.5898 10.4397Z" fill="#F35908" stroke="#F35908"/>
<path d="M25.4572 16.8885C25.6264 16.8396 25.8705 16.8212 26.1867 16.8304C26.5029 16.8365 26.8108 16.8885 27.1104 16.9834C27.5375 17.118 27.8981 17.3047 28.1893 17.5464C28.4806 17.7882 28.6387 18.0697 28.6553 18.391C28.6803 18.9264 28.6997 19.5507 28.7108 20.2575C28.7191 20.9643 28.7274 21.6926 28.7219 22.4423C28.7219 23.1889 28.7191 23.9263 28.7136 24.6576C28.708 25.3828 28.7052 26.0285 28.6941 26.5884C28.5555 26.6864 28.3779 26.7445 28.1505 26.7567C27.9258 26.769 27.6706 26.7353 27.3905 26.6435C27.1852 26.5793 27.0188 26.5058 26.8857 26.4232C26.7525 26.3375 26.6555 26.2457 26.5834 26.1417C26.514 26.0407 26.4669 25.9183 26.4447 25.7776C26.4197 25.6399 26.4086 25.4838 26.4086 25.3063L26.4336 24.2599L24.1148 23.5285C23.9733 23.7886 23.8291 24.061 23.6821 24.3394C23.5351 24.6179 23.3908 24.8902 23.2494 25.1503C23.1162 25.1595 22.9831 25.1595 22.8417 25.1503C22.7002 25.1442 22.5365 25.1074 22.3507 25.0493C21.9152 24.9116 21.6157 24.728 21.4465 24.4955C21.2801 24.266 21.2357 24.0028 21.3106 23.7121C21.3439 23.5806 21.3966 23.4551 21.4631 23.3327C21.5297 23.2103 21.6101 23.0696 21.6989 22.9013C21.8237 22.6687 21.9901 22.378 22.1926 22.0353C22.3979 21.6926 22.6197 21.3223 22.8638 20.9276C23.1079 20.5298 23.3576 20.1229 23.6266 19.7098C23.8901 19.2967 24.1397 18.902 24.3755 18.5317C24.6085 18.1615 24.8248 17.8371 25.0107 17.5525C25.2021 17.2649 25.3491 17.0477 25.4517 16.8977V16.8916L25.4572 16.8885ZM26.5196 19.1957C26.2977 19.5537 26.048 19.9515 25.7734 20.3891C25.4988 20.8266 25.2353 21.2764 24.9857 21.7354L26.5723 22.2403C26.5834 21.6957 26.5945 21.1571 26.5972 20.6369C26.6 20.1167 26.5972 19.6394 26.5972 19.2233L26.5196 19.1988V19.1957Z" fill="white"/>
<path d="M33.6379 28.5781L25.2812 32.7317" stroke="#F35908" stroke-linecap="round"/>
<path d="M25.6359 12.8359L17.2793 16.9895" stroke="#F35908" stroke-linecap="round"/>
<path d="M36.5789 28.3281L23.1055 34.921" stroke="white" stroke-linecap="round"/>
<path d="M14.7169 16.5986L14.7169 16.5986C14.4105 16.7448 14.2806 17.1117 14.4268 17.418L22.85 35.0741C22.9962 35.3805 23.363 35.5104 23.6694 35.3642C23.9758 35.218 24.1057 34.8512 23.9595 34.5448L15.5363 16.8887C15.3901 16.5823 15.0232 16.4525 14.7169 16.5986Z" fill="white"/>
<path d="M14.7169 16.5986L14.7169 16.5986C15.0232 16.4525 15.3901 16.5823 15.5363 16.8887L23.9595 34.5448C24.1057 34.8512 23.9758 35.218 23.6694 35.3642L23.6694 35.3642C23.363 35.5104 22.9962 35.3805 22.85 35.0741L14.4268 17.418C14.2806 17.1117 14.4105 16.7448 14.7169 16.5986Z" stroke="#F35908" stroke-width="0.5"/>
<path d="M4.90234 40.579L13.3876 32.0938" stroke="#F35908" stroke-linecap="round" stroke-linejoin="round"/>
<path d="M35.7598 14.7118L44.245 6.22656" stroke="#F35908" stroke-linecap="round" stroke-linejoin="round"/>
</g>
<defs>
<clipPath id="clip0_2167_89239">
<rect width="51" height="46" fill="white"/>
</clipPath>
</defs>
</svg>
