<svg width="51" height="46" viewBox="0 0 51 46" fill="none" xmlns="http://www.w3.org/2000/svg">
<path d="M43.4846 44.8563C33.5156 44.6714 30.5156 44.6714 27.446 44.6714C26.0156 44.6714 26.4316 44.6885 25.5156 44.6714C24.6068 44.6543 24.6292 44.6748 23.0156 44.6714C19.1292 44.6631 15.5156 44.6714 7.0395 44.8529C5.96188 44.7399 4.12993 44.4591 2.77932 43.1716C1.68733 42.1306 1.01562 40.6959 1.01562 39.1105V6.7687C1.01562 3.59787 3.71325 1.02629 7.0395 1.02629H43.481C43.8079 0.992046 46.0385 0.790021 47.8166 2.3994C48.8188 3.3034 49.4438 4.71075 49.5049 6.77213V39.1139C49.6105 41.3067 49.2421 42.6621 48.5611 43.5C47.4587 44.8563 45.5371 44.8563 43.481 44.8563H43.4846Z" fill="#F34D08" stroke="#F34D08" stroke-width="2" stroke-linecap="round" stroke-linejoin="round"/>
<rect x="13.6845" y="17.2527" width="17" height="20.961" rx="1.5" transform="rotate(-26.08 13.6845 17.2527)" fill="white" stroke="white"/>
<path d="M25.4748 16.8885C25.644 16.8396 25.8881 16.8212 26.2043 16.8304C26.5205 16.8365 26.8284 16.8885 27.1279 16.9834C27.5551 17.118 27.9157 17.3047 28.2069 17.5464C28.4981 17.7882 28.6562 18.0697 28.6729 18.391C28.6978 18.9264 28.7173 19.5507 28.7284 20.2575C28.7367 20.9643 28.745 21.6926 28.7394 22.4423C28.7394 23.1889 28.7367 23.9263 28.7311 24.6576C28.7256 25.3828 28.7228 26.0285 28.7117 26.5884C28.573 26.6864 28.3955 26.7445 28.1681 26.7567C27.9434 26.769 27.6882 26.7353 27.4081 26.6435C27.2028 26.5793 27.0364 26.5058 26.9033 26.4232C26.7701 26.3375 26.6731 26.2457 26.6009 26.1417C26.5316 26.0407 26.4844 25.9183 26.4623 25.7776C26.4373 25.6399 26.4262 25.4838 26.4262 25.3063L26.4512 24.2599L24.1324 23.5285C23.9909 23.7886 23.8467 24.061 23.6997 24.3394C23.5526 24.6179 23.4084 24.8902 23.267 25.1503C23.1338 25.1595 23.0007 25.1595 22.8592 25.1503C22.7178 25.1442 22.5541 25.1074 22.3683 25.0493C21.9328 24.9116 21.6333 24.728 21.4641 24.4955C21.2976 24.266 21.2533 24.0028 21.3282 23.7121C21.3614 23.5806 21.4141 23.4551 21.4807 23.3327C21.5473 23.2103 21.6277 23.0696 21.7165 22.9013C21.8413 22.6687 22.0077 22.378 22.2102 22.0353C22.4154 21.6926 22.6373 21.3223 22.8814 20.9276C23.1255 20.5298 23.3751 20.1229 23.6442 19.7098C23.9077 19.2967 24.1573 18.902 24.3931 18.5317C24.6261 18.1615 24.8424 17.8371 25.0282 17.5525C25.2196 17.2649 25.3666 17.0477 25.4693 16.8977V16.8916L25.4748 16.8885ZM26.5371 19.1957C26.3152 19.5537 26.0656 19.9515 25.791 20.3891C25.5164 20.8266 25.2529 21.2764 25.0033 21.7354L26.5898 22.2403C26.6009 21.6957 26.612 21.1571 26.6148 20.6369C26.6176 20.1167 26.6148 19.6394 26.6148 19.2233L26.5371 19.1988V19.1957Z" fill="#F34D08"/>
<line x1="36.5949" y1="28.329" x2="23.1214" y2="34.9219" stroke="#F34D08" stroke-linecap="round"/>
<rect x="14.177" y="16.8641" width="1.2293" height="20.7917" rx="0.614649" transform="rotate(-25.5046 14.177 16.8641)" fill="#F34D08" stroke="white" stroke-width="0.5"/>
<path d="M4.91797 40.5781L13.4032 32.0928" stroke="white" stroke-linecap="round" stroke-linejoin="round"/>
<path d="M35.7773 14.7109L44.2626 6.22566" stroke="white" stroke-linecap="round" stroke-linejoin="round"/>
</svg>
