<?xml version="1.0" encoding="UTF-8"?><svg id="Layer_2" xmlns="http://www.w3.org/2000/svg" viewBox="0 0 96.85 128"><defs><style>.cls-1{fill:#f35908;}</style></defs><g id="Layer_1-2"><path class="cls-1" d="m47.64,19.35c.55-.14,1.34-.2,2.37-.17,1.03.02,2.03.17,3,.45,1.39.4,2.56.95,3.51,1.66.95.71,1.46,1.54,1.52,2.49.08,1.58.14,3.42.18,5.5.03,2.08.05,4.23.04,6.44,0,2.2-.01,4.38-.03,6.53-.02,2.14-.03,4.04-.06,5.69-.45.29-1.03.46-1.77.5-.73.04-1.56-.06-2.47-.33-.67-.19-1.21-.41-1.64-.65-.43-.25-.75-.52-.98-.83-.23-.3-.38-.66-.45-1.07-.08-.41-.12-.87-.12-1.39l.08-3.09-7.54-2.16c-.46.77-.93,1.57-1.41,2.39-.48.82-.95,1.62-1.41,2.39-.43.03-.87.03-1.33,0-.46-.02-.99-.13-1.6-.3-1.42-.41-2.39-.95-2.94-1.63-.54-.68-.69-1.45-.44-2.31.11-.39.28-.76.5-1.12.22-.36.48-.78.77-1.27.41-.69.95-1.54,1.61-2.55.67-1.01,1.39-2.1,2.18-3.27.79-1.17,1.61-2.37,2.48-3.59.86-1.22,1.67-2.38,2.44-3.47.76-1.09,1.46-2.05,2.07-2.89.62-.85,1.1-1.49,1.43-1.93Zm3.45,6.8c-.72,1.06-1.53,2.23-2.43,3.52-.9,1.29-1.75,2.62-2.56,3.97l5.16,1.49c.04-1.61.07-3.19.08-4.73s0-2.94,0-4.17l-.25-.07Z"/><path class="cls-1" d="m22.81,67.99l-4.56,1.42c-.46-.3-.91-.73-1.37-1.28-.46-.55-.68-1.31-.68-2.28,0-1.83,1.11-3.1,3.33-3.83l5.11-1.73h1.69c1.31,0,2.34.38,3.1,1.14s1.14,1.8,1.14,3.1v23.78c-.34.06-.83.14-1.48.25-.66.11-1.32.16-1.99.16s-1.27-.05-1.8-.14-.98-.27-1.35-.55c-.37-.27-.65-.65-.84-1.12-.2-.47-.3-1.09-.3-1.85v-17.07Z"/><path class="cls-1" d="m83.98,63.01c.59,0,1.02.18,1.28.56.26.37.39.91.39,1.63,0,.32-.04.71-.13,1.17-.09.46-.19.8-.32,1.02h-3.34v18.64c-.2.07-.59.15-1.19.22-.59.07-1.14.11-1.63.11-1.09,0-1.9-.17-2.45-.5-.54-.33-.82-1.06-.82-2.17v-6.11c-.2.05-.4.07-.59.07h-.59c-.67,0-1.33-.07-2-.22-.67-.15-1.26-.36-1.78-.63l-.07.11c.39.35.72.82.96,1.41.25.59.37,1.17.37,1.74,0,1.8-.74,3.2-2.21,4.19-1.47.99-3.55,1.48-6.25,1.48-1.01,0-1.96-.09-2.85-.26-.89-.17-1.67-.42-2.33-.74-.67-.32-1.2-.72-1.59-1.19-.4-.47-.59-1-.59-1.59,0-.79.22-1.44.67-1.95.44-.51.91-.83,1.41-.98.52.47,1.18.91,1.98,1.32.8.41,1.67.61,2.61.61s1.69-.2,2.19-.61c.49-.41.74-.97.74-1.69,0-.62-.19-1.14-.57-1.56-.38-.42-.96-.63-1.72-.63h-3.48c-.2-.25-.36-.57-.48-.96-.12-.39-.19-.84-.19-1.33s.06-.98.19-1.37c.12-.39.28-.73.48-1h2.89c.79,0,1.4-.18,1.83-.56.43-.37.65-.89.65-1.56,0-.62-.2-1.15-.61-1.59-.41-.45-1.13-.67-2.17-.67-.57,0-1.12.12-1.67.35-.54.23-1.01.54-1.41.91-.64-.27-1.16-.65-1.54-1.13s-.57-1.04-.57-1.69c0-.96.52-1.74,1.58-2.34,1.05-.59,2.58-.89,4.58-.89,1.19,0,2.27.15,3.26.45.99.3,1.83.72,2.54,1.26.7.54,1.25,1.2,1.65,1.96.39.77.59,1.61.59,2.52,0,.77-.17,1.49-.52,2.17-.35.68-.79,1.25-1.33,1.72.77.15,1.57.22,2.41.22.59,0,1.19-.04,1.78-.11.59-.07,1.19-.21,1.78-.41v-5.04h-1.48c-.62,0-1.05-.19-1.3-.57-.25-.38-.37-.95-.37-1.69,0-.3.04-.67.11-1.11.07-.44.17-.78.3-1h10.93Z"/><path class="cls-1" d="m89.85,7v89.26h-5.41v23.91c0,.46-.37.83-.83.83H10.83c-2.11,0-3.83-1.72-3.83-3.83V11.19c0-2.31,1.88-4.19,4.19-4.19h78.66m1.7-7H11.19C5.01,0,0,5.01,0,11.19v105.98c0,5.98,4.85,10.83,10.83,10.83h72.77c4.33,0,7.83-3.51,7.83-7.83v-16.91h.11c2.93,0,5.3-2.38,5.3-5.3V5.3c0-2.93-2.38-5.3-5.3-5.3h0Z"/></g></svg>