<?xml version="1.0" encoding="UTF-8"?><svg id="Layer_2" xmlns="http://www.w3.org/2000/svg" viewBox="0 0 128.05 128.05"><defs><style>.cls-1{fill:#f35908;}.cls-2{fill:#ffba00;}.cls-3{fill:#fefefe;}</style></defs><g id="Layer_1-2"><rect class="cls-1" width="108.48" height="85.71" rx="13.1" ry="13.1"/><path class="cls-2" d="m115.11,29.03h-1.74v47.92c0,7.14-5.79,12.94-12.94,12.94H19.57v11.92c0,7.14,5.79,12.94,12.94,12.94h82.61c7.14,0,12.94-5.79,12.94-12.94v-59.83c0-7.14-5.79-12.94-12.94-12.94Z"/><path class="cls-3" d="m55.34,63.25c-5.46,0-10.92,0-16.38,0-1.4,0-1.99-.62-2.04-1.99-.03-.88.27-1.5.95-2.07,1.97-1.65,2.93-3.9,3.45-6.35.54-2.52.63-5.08.63-7.64,0-1.76-.05-3.52.4-5.25,1.02-3.91,3.34-6.8,6.89-8.7,1.12-.6,1.37-1.06,1.18-2.31-.31-2.05.37-3.73,2.04-4.93,1.66-1.19,3.48-1.29,5.27-.31,1.8.98,2.64,2.57,2.62,4.6,0,.29-.06.59-.11.88-.15.93.15,1.53,1,1.96,1.98,1,3.64,2.38,4.94,4.18,1.67,2.32,2.52,4.91,2.54,7.76.02,2.34-.01,4.67.22,7,.22,2.19.63,4.34,1.67,6.32.62,1.17,1.42,2.19,2.46,3.01.86.67.74,1.61.62,2.5-.09.67-.55,1.11-1.23,1.28-.23.06-.48.06-.72.06-5.48,0-10.95,0-16.43,0Zm.02-26.79c.09,0,.17,0,.26,0,1.05,0,1.8-.71,1.8-1.69,0-.94-.76-1.66-1.78-1.67-.54,0-1.08.02-1.62.09-4.19.53-7.7,3.81-8.52,7.95-.29,1.44-.17,2.88-.2,4.33-.06,2.53-.14,5.05-.62,7.54-.3,1.56-.77,3.06-1.43,4.51-.55,1.22.36,2.5,1.68,2.39.69-.06,1.13-.46,1.42-1.08,1.26-2.69,1.82-5.54,2.08-8.47.22-2.4.22-4.8.22-7.21,0-3.7,3-6.67,6.69-6.68Zm0-6.7c.94,0,1.69-.75,1.68-1.69,0-.91-.74-1.66-1.65-1.67-.94-.01-1.7.73-1.71,1.67,0,.94.74,1.69,1.68,1.69Z"/><path class="cls-3" d="m48.9,64.94c1.46,0,2.87,0,4.28,0,2.73,0,5.47,0,8.2,0,.35,0,.45.06.33.42-.85,2.71-3.54,4.63-6.49,4.6-2.86-.03-5.5-2.04-6.27-4.74-.02-.07-.03-.13-.06-.27Z"/><polygon class="cls-2" points="38.35 114.74 53.82 128.05 69.28 114.74 38.35 114.74"/><polygon class="cls-1" points="20.7 85.71 36.17 99.45 51.64 85.71 20.7 85.71"/></g></svg>