<?xml version="1.0" encoding="UTF-8"?><svg id="Layer_2" xmlns="http://www.w3.org/2000/svg" viewBox="0 0 133.67 159.59"><defs><style>.cls-1{fill:#fefefe;opacity:.1;}.cls-2{fill:#2bac67;}</style></defs><g id="Layer_1-2"><g><circle class="cls-2" cx="65.04" cy="139.35" r="20.23"/><path class="cls-1" d="m65.04,119.12c-1.73,0-3.4.24-5,.65,8.75,2.23,15.24,10.14,15.24,19.59s-6.48,17.36-15.24,19.59c1.6.41,3.27.65,5,.65,11.17,0,20.23-9.06,20.23-20.23s-9.06-20.23-20.23-20.23Z"/><circle class="cls-2" cx="66.92" cy="11.88" r="11.88"/><path class="cls-1" d="m66.92,0c-1.13,0-2.2.21-3.23.5,4.98,1.42,8.64,5.94,8.64,11.37s-3.67,9.96-8.64,11.37c1.03.29,2.1.5,3.23.5,6.56,0,11.88-5.32,11.88-11.88S73.48,0,66.92,0Z"/><path class="cls-2" d="m127.81,110.53l-.22-.18c-8.29-6.1-13.08-15.76-13.08-26.05v-17c0-25.01-19.22-46.53-44.2-47.71-26.67-1.26-48.7,20-48.7,46.4v14.86c0,5.9-1.24,11.82-4.13,16.97-2.44,4.33-6.14,8.76-11.72,12.72h.1c-3.99,3.37-6.4,8.54-5.76,14.31.93,8.39,8.45,14.52,16.9,14.52h99.67c8.45,0,15.96-6.13,16.9-14.52.64-5.77-1.77-10.93-5.76-14.3Z"/><path class="cls-1" d="m127.81,110.53l-.18-.15c-8.29-6.1-13.12-15.79-13.12-26.08v-17c0-25.01-19.22-46.53-44.2-47.71-4.59-.22-9.02.28-13.25,1.3,20.56,5.15,35.42,24.42,35.42,46.41v17c0,10.29,4.89,19.97,13.18,26.07l.21.16h-.09c3.99,3.37,6.4,8.54,5.76,14.31-.93,8.39-8.45,14.52-16.9,14.52h22.04c8.45,0,15.96-6.13,16.9-14.52.64-5.77-1.77-10.93-5.76-14.3Z"/></g></g></svg>