<?xml version="1.0" encoding="UTF-8"?><svg id="Layer_2" xmlns="http://www.w3.org/2000/svg" viewBox="0 0 120.11 141.97"><defs><style>.cls-1{fill:#f99500;}.cls-2{fill:#f35908;}.cls-3{fill:#fefefe;}</style></defs><g id="Layer_1-2"><rect class="cls-2" x="3.7" y="7.41" width="116.41" height="134.56" rx="14.06" ry="14.06"/><rect class="cls-1" x="0" width="116.41" height="134.56" rx="14.06" ry="14.06"/><path class="cls-3" d="m50.7,38.36l-13.65-6.16-13.65,6.16c-1.13.51-2.42-.32-2.42-1.56V0s32.13,0,32.13,0v36.8c0,1.24-1.28,2.07-2.42,1.56Z"/><rect class="cls-3" x="26.66" y="114.41" width="71.49" height="6.62" rx="2.03" ry="2.03"/><rect class="cls-3" x="34.83" y="100.96" width="58.61" height="6.62" rx="2.03" ry="2.03"/><path class="cls-3" d="m96.01,91.08H27.58c-1.08,0-2.08-.55-2.66-1.45h0c-.5-.89-.48-1.99.05-2.87h0s20.22-33.08,20.22-33.08c.63-1.03,1.72-1.67,2.93-1.72,1.26.01,2.36.51,3.07,1.49l10.8,14.91,7.44-8.08c.7-.75,1.8-1.12,2.68-1.16,1.01,0,1.98.45,2.66,1.2l23.21,25.88c.78.87,1.01,2.09.62,3.18h0c-.45,1.04-1.47,1.7-2.6,1.7Zm-1.83-1.25s.03.03.05.05l-.05-.05Zm-62.46-4.02h58.85l-18.5-20.62-10.57,11.47-13.11-18.11-16.67,27.26Z"/></g></svg>