<svg width="18" height="18" viewBox="0 0 18 18" fill="none" xmlns="http://www.w3.org/2000/svg">
<mask id="mask0_454_1709" style="mask-type:alpha" maskUnits="userSpaceOnUse" x="0" y="0" width="18" height="18">
<rect width="18" height="18" fill="#D9D9D9"/>
</mask>
<g mask="url(#mask0_454_1709)">
<path d="M10.8024 14.5699L9.70275 13.4701L11.3702 11.8026L9.70275 10.1352L10.8024 9.03531L12.4701 10.7029L14.1375 9.03531L15.2372 10.1352L13.5698 11.8026L15.2372 13.4701L14.1375 14.5699L12.4701 12.9023L10.8024 14.5699ZM12.0383 8.24294L9.34031 5.5495L10.4445 4.44981L12.0383 6.04356L15.207 2.85156L16.3256 3.95575L12.0383 8.24294ZM1.67438 12.7026V11.1464H8.0775V12.7026H1.67438ZM1.67438 6.85263V5.29638H8.0775V6.85263H1.67438Z" fill="#300D37"/>
</g>
</svg>
