<svg xmlns="http://www.w3.org/2000/svg" width="18" height="18" viewBox="0 0 18 18" fill="none">
  <mask id="mask0_532_1440" style="mask-type:alpha" maskUnits="userSpaceOnUse" x="0" y="0" width="18" height="18">
    <rect width="18" height="18" fill="#D9D9D9"/>
  </mask>
  <g mask="url(#mask0_532_1440)">
    <path d="M9.00005 16.8294C8.11067 16.0144 7.11505 15.3524 6.01317 14.8434C4.91117 14.3344 3.75598 14.0799 2.54761 14.0799V6.79923C3.77098 6.79923 4.92273 7.03623 6.00286 7.51023C7.08311 7.98436 8.08217 8.62492 9.00005 9.43192C9.91792 8.62492 10.917 7.98436 11.9972 7.51023C13.0774 7.03623 14.2291 6.79923 15.4525 6.79923V14.0799C14.2471 14.0799 13.0927 14.3344 11.9892 14.8434C10.8858 15.3524 9.88942 16.0144 9.00005 16.8294ZM9.00005 14.8419C9.71667 14.3007 10.483 13.8349 11.299 13.4444C12.115 13.0539 12.9807 12.7902 13.8962 12.6534V8.53249C12.9332 8.69248 12.0523 9.04936 11.2534 9.60311C10.4547 10.157 9.70355 10.7812 9.00005 11.4757C8.31142 10.796 7.56698 10.1794 6.76673 9.62561C5.96648 9.07186 5.07886 8.70748 4.10386 8.53249V12.6534C5.00736 12.7719 5.86786 13.0302 6.68536 13.4283C7.50298 13.8265 8.27455 14.2977 9.00005 14.8419ZM6.72173 6.7878C6.09573 6.1623 5.78273 5.40286 5.78273 4.50948C5.78273 3.61611 6.09555 2.85573 6.72117 2.22836C7.34667 1.60086 8.10611 1.28711 8.99948 1.28711C9.89273 1.28711 10.6524 1.60086 11.2784 2.22836C11.9044 2.85573 12.2174 3.61611 12.2174 4.50948C12.2174 5.40286 11.9045 6.1623 11.2789 6.7878C10.6534 7.41342 9.89398 7.72623 9.00061 7.72623C8.10736 7.72623 7.34773 7.41342 6.72173 6.7878ZM10.228 5.73461C10.5645 5.39948 10.7327 4.99111 10.7327 4.50948C10.7327 4.02786 10.5643 3.61855 10.2274 3.28155C9.89042 2.94467 9.48111 2.77623 8.99948 2.77623C8.51773 2.77623 8.10861 2.94467 7.77211 3.28155C7.43561 3.61855 7.26736 4.02786 7.26736 4.50948C7.26736 4.99111 7.4358 5.39948 7.77267 5.73461C8.10967 6.06961 8.51898 6.23711 9.00061 6.23711C9.48236 6.23711 9.89148 6.06961 10.228 5.73461Z" fill="white"/>
  </g>
</svg>
