<svg width="24" height="24" viewBox="0 0 24 24" fill="none" xmlns="http://www.w3.org/2000/svg">
<g clip-path="url(#clip0_6371_161300)">
<path d="M22.5 11.625V18C22.5 18.3978 22.342 18.7794 22.0607 19.0607C21.7794 19.342 21.3978 19.5 21 19.5H3C2.60218 19.5 2.22064 19.342 1.93934 19.0607C1.65804 18.7794 1.5 18.3978 1.5 18V11.625C1.5 11.5255 1.53951 11.4302 1.60984 11.3598C1.68016 11.2895 1.77554 11.25 1.875 11.25H5.25V17.25C5.24977 17.3528 5.27069 17.4546 5.31145 17.549C5.35221 17.6434 5.41194 17.7284 5.48694 17.7987C5.56193 17.869 5.65059 17.9232 5.74739 17.9578C5.8442 17.9925 5.9471 18.0068 6.04969 18C6.24288 17.9834 6.42258 17.8942 6.55255 17.7503C6.68252 17.6064 6.75308 17.4186 6.75 17.2247V11.25H10.5V13.125C10.5 13.2245 10.5395 13.3198 10.6098 13.3902C10.6802 13.4605 10.7755 13.5 10.875 13.5H13.125C13.2245 13.5 13.3198 13.4605 13.3902 13.3902C13.4605 13.3198 13.5 13.2245 13.5 13.125V11.25H17.25V17.25C17.2498 17.3528 17.2707 17.4546 17.3115 17.549C17.3522 17.6434 17.4119 17.7284 17.4869 17.7987C17.5619 17.869 17.6506 17.9232 17.7474 17.9578C17.8442 17.9925 17.9471 18.0068 18.0497 18C18.2425 17.9834 18.422 17.8945 18.5519 17.751C18.6818 17.6075 18.7526 17.4201 18.75 17.2266V11.25H22.125C22.2245 11.25 22.3198 11.2895 22.3902 11.3598C22.4605 11.4302 22.5 11.5255 22.5 11.625ZM17.25 3.75H6.75C5.35761 3.75 4.02226 4.30312 3.03769 5.28769C2.05312 6.27226 1.5 7.60761 1.5 9V9.375C1.5 9.47446 1.53951 9.56984 1.60984 9.64017C1.68016 9.71049 1.77554 9.75 1.875 9.75H5.25V6.02531C5.24692 5.83144 5.31748 5.64361 5.44745 5.49972C5.57742 5.35583 5.75712 5.26659 5.95031 5.25C6.0529 5.24319 6.1558 5.25754 6.25261 5.29217C6.34941 5.3268 6.43807 5.38096 6.51306 5.4513C6.58806 5.52163 6.64779 5.60664 6.68855 5.70103C6.72931 5.79542 6.75023 5.89718 6.75 6V9.75H10.5V8.625C10.5 8.52554 10.5395 8.43016 10.6098 8.35983C10.6802 8.28951 10.7755 8.25 10.875 8.25H13.125C13.2245 8.25 13.3198 8.28951 13.3902 8.35983C13.4605 8.43016 13.5 8.52554 13.5 8.625V9.75H17.25V6.02531C17.2469 5.83144 17.3175 5.64361 17.4474 5.49972C17.5774 5.35583 17.7571 5.26659 17.9503 5.25C18.0529 5.24319 18.1558 5.25754 18.2526 5.29217C18.3494 5.3268 18.4381 5.38096 18.5131 5.4513C18.5881 5.52163 18.6478 5.60664 18.6885 5.70103C18.7293 5.79542 18.7502 5.89718 18.75 6V9.75H22.125C22.2245 9.75 22.3198 9.71049 22.3902 9.64017C22.4605 9.56984 22.5 9.47446 22.5 9.375V9C22.5 7.60761 21.9469 6.27226 20.9623 5.28769C19.9777 4.30312 18.6424 3.75 17.25 3.75Z" fill="#F34D08"/>
</g>
<defs>
<clipPath id="clip0_6371_161300">
<rect width="24" height="24" fill="white"/>
</clipPath>
</defs>
</svg>
