<svg width="32" height="32" viewBox="0 0 32 32" fill="none" xmlns="http://www.w3.org/2000/svg">
<mask id="mask0_5423_53066" style="mask-type:alpha" maskUnits="userSpaceOnUse" x="0" y="0" width="32" height="32">
<rect width="32" height="32" fill="#D9D9D9"/>
</mask>
<g mask="url(#mask0_5423_53066)">
<path d="M15.9998 29.3346C14.1776 29.3346 12.4554 28.9846 10.8332 28.2846C9.21095 27.5846 7.79428 26.6291 6.58317 25.418C5.37206 24.2069 4.4165 22.7902 3.7165 21.168C3.0165 19.5457 2.6665 17.8235 2.6665 16.0013C2.6665 14.1569 3.0165 12.4235 3.7165 10.8013C4.4165 9.17908 5.37206 7.76797 6.58317 6.56797C7.79428 5.36797 9.21095 4.41797 10.8332 3.71797C12.4554 3.01797 14.1776 2.66797 15.9998 2.66797C17.8443 2.66797 19.5776 3.01797 21.1998 3.71797C22.8221 4.41797 24.2332 5.36797 25.4332 6.56797C26.6332 7.76797 27.5832 9.17908 28.2832 10.8013C28.9832 12.4235 29.3332 14.1569 29.3332 16.0013C29.3332 17.8235 28.9832 19.5457 28.2832 21.168C27.5832 22.7902 26.6332 24.2069 25.4332 25.418C24.2332 26.6291 22.8221 27.5846 21.1998 28.2846C19.5776 28.9846 17.8443 29.3346 15.9998 29.3346ZM15.9998 26.668C18.9776 26.668 21.5054 25.6235 23.5832 23.5346C25.6609 21.4457 26.6887 18.9124 26.6665 15.9346C25.0887 15.7791 23.8776 15.2846 23.0332 14.4513C22.1887 13.618 21.4665 12.6013 20.8665 11.4013C20.7554 11.1569 20.5943 10.9735 20.3832 10.8513C20.1721 10.7291 19.9443 10.668 19.6998 10.668H12.3332C12.0665 10.668 11.8276 10.7291 11.6165 10.8513C11.4054 10.9735 11.2443 11.1569 11.1332 11.4013C10.5332 12.6235 9.79984 13.6513 8.93317 14.4846C8.0665 15.318 6.8665 15.8124 5.33317 15.968C5.33317 18.9457 6.37206 21.4735 8.44984 23.5513C10.5276 25.6291 13.0443 26.668 15.9998 26.668ZM11.9998 19.0013C11.5332 19.0013 11.1387 18.8402 10.8165 18.518C10.4943 18.1957 10.3332 17.8013 10.3332 17.3346C10.3332 16.868 10.4943 16.4735 10.8165 16.1513C11.1387 15.8291 11.5332 15.668 11.9998 15.668C12.4665 15.668 12.8609 15.8291 13.1832 16.1513C13.5054 16.4735 13.6665 16.868 13.6665 17.3346C13.6665 17.8013 13.5054 18.1957 13.1832 18.518C12.8609 18.8402 12.4665 19.0013 11.9998 19.0013ZM19.9998 19.0013C19.5332 19.0013 19.1387 18.8402 18.8165 18.518C18.4943 18.1957 18.3332 17.8013 18.3332 17.3346C18.3332 16.868 18.4943 16.4735 18.8165 16.1513C19.1387 15.8291 19.5332 15.668 19.9998 15.668C20.4665 15.668 20.8609 15.8291 21.1832 16.1513C21.5054 16.4735 21.6665 16.868 21.6665 17.3346C21.6665 17.8013 21.5054 18.1957 21.1832 18.518C20.8609 18.8402 20.4665 19.0013 19.9998 19.0013Z" fill="#5D44BD"/>
</g>
</svg>
