<svg width="28" height="28" viewBox="0 0 28 28" fill="none" xmlns="http://www.w3.org/2000/svg">
<path d="M13.9998 27.3346C12.1776 27.3346 10.4554 26.9846 8.83317 26.2846C7.21095 25.5846 5.79428 24.6291 4.58317 23.418C3.37206 22.2069 2.4165 20.7902 1.7165 19.168C1.0165 17.5457 0.666504 15.8235 0.666504 14.0013C0.666504 12.1569 1.0165 10.4235 1.7165 8.8013C2.4165 7.17908 3.37206 5.76797 4.58317 4.56797C5.79428 3.36797 7.21095 2.41797 8.83317 1.71797C10.4554 1.01797 12.1776 0.667969 13.9998 0.667969C15.8443 0.667969 17.5776 1.01797 19.1998 1.71797C20.8221 2.41797 22.2332 3.36797 23.4332 4.56797C24.6332 5.76797 25.5832 7.17908 26.2832 8.8013C26.9832 10.4235 27.3332 12.1569 27.3332 14.0013C27.3332 15.8235 26.9832 17.5457 26.2832 19.168C25.5832 20.7902 24.6332 22.2069 23.4332 23.418C22.2332 24.6291 20.8221 25.5846 19.1998 26.2846C17.5776 26.9846 15.8443 27.3346 13.9998 27.3346ZM13.9998 24.668C16.9776 24.668 19.5054 23.6235 21.5832 21.5346C23.6609 19.4457 24.6887 16.9124 24.6665 13.9346C23.0887 13.7791 21.8776 13.2846 21.0332 12.4513C20.1887 11.618 19.4665 10.6013 18.8665 9.4013C18.7554 9.15686 18.5943 8.97352 18.3832 8.8513C18.1721 8.72908 17.9443 8.66797 17.6998 8.66797H10.3332C10.0665 8.66797 9.82761 8.72908 9.6165 8.8513C9.40539 8.97352 9.24428 9.15686 9.13317 9.4013C8.53317 10.6235 7.79984 11.6513 6.93317 12.4846C6.0665 13.318 4.8665 13.8124 3.33317 13.968C3.33317 16.9457 4.37206 19.4735 6.44984 21.5513C8.52761 23.6291 11.0443 24.668 13.9998 24.668ZM9.99984 17.0013C9.53317 17.0013 9.13873 16.8402 8.8165 16.518C8.49428 16.1957 8.33317 15.8013 8.33317 15.3346C8.33317 14.868 8.49428 14.4735 8.8165 14.1513C9.13873 13.8291 9.53317 13.668 9.99984 13.668C10.4665 13.668 10.8609 13.8291 11.1832 14.1513C11.5054 14.4735 11.6665 14.868 11.6665 15.3346C11.6665 15.8013 11.5054 16.1957 11.1832 16.518C10.8609 16.8402 10.4665 17.0013 9.99984 17.0013ZM17.9998 17.0013C17.5332 17.0013 17.1387 16.8402 16.8165 16.518C16.4943 16.1957 16.3332 15.8013 16.3332 15.3346C16.3332 14.868 16.4943 14.4735 16.8165 14.1513C17.1387 13.8291 17.5332 13.668 17.9998 13.668C18.4665 13.668 18.8609 13.8291 19.1832 14.1513C19.5054 14.4735 19.6665 14.868 19.6665 15.3346C19.6665 15.8013 19.5054 16.1957 19.1832 16.518C18.8609 16.8402 18.4665 17.0013 17.9998 17.0013Z" fill="#182A4F"/>
</svg>
