<svg width="44" height="44" viewBox="0 0 44 44" fill="none" xmlns="http://www.w3.org/2000/svg">
<circle cx="22" cy="22" r="21" fill="white" stroke="#F34D08" stroke-width="2"/>
<g clip-path="url(#clip0_6371_161311)">
<path d="M16.3281 20.9687C16.3281 19.8469 16.6607 18.7503 17.284 17.8176C17.9072 16.8849 18.793 16.1579 19.8294 15.7286C20.8658 15.2993 22.0063 15.187 23.1065 15.4058C24.2067 15.6247 25.2174 16.1649 26.0106 16.9581C26.8038 17.7513 27.344 18.762 27.5629 19.8622C27.7817 20.9624 27.6694 22.1029 27.2401 23.1393C26.8108 24.1757 26.0838 25.0615 25.1511 25.6847C24.2184 26.308 23.1218 26.6406 22 26.6406C20.4957 26.6406 19.053 26.043 17.9894 24.9794C16.9257 23.9157 16.3281 22.473 16.3281 20.9687ZM32.5909 28.3396C32.3612 28.2062 32.0897 28.1641 31.8303 28.2217C31.571 28.2792 31.3428 28.4322 31.191 28.6503C30.9688 28.9563 30.7313 29.2511 30.4794 29.5333C29.7292 28.4443 28.7759 27.5103 27.6718 26.7824C27.5777 26.72 27.4656 26.6902 27.3529 26.6977C27.2402 26.7051 27.1331 26.7494 27.0479 26.8237C25.647 28.0359 23.8564 28.7031 22.0038 28.7031C20.1513 28.7031 18.3606 28.0359 16.9597 26.8237C16.874 26.7475 16.7654 26.7022 16.651 26.6947C16.5366 26.6872 16.423 26.7181 16.3281 26.7824C15.2238 27.5089 14.2701 28.4416 13.5192 29.5294C11.9088 27.721 10.9218 25.443 10.7039 23.0312H12.6891C12.856 23.0339 13.0212 22.9969 13.1711 22.9234C13.321 22.8499 13.4513 22.742 13.5515 22.6084C13.6968 22.4098 13.7662 22.1657 13.7473 21.9203C13.7284 21.6749 13.6224 21.4444 13.4483 21.2704L10.3546 18.1766C10.2588 18.0807 10.1451 18.0047 10.0199 17.9528C9.89469 17.9009 9.7605 17.8742 9.62497 17.8742C9.48945 17.8742 9.35526 17.9009 9.23007 17.9528C9.10488 18.0047 8.99114 18.0807 8.89536 18.1766L5.80161 21.2704C5.62759 21.4444 5.52154 21.6749 5.50262 21.9203C5.48371 22.1657 5.55318 22.4098 5.69849 22.6084C5.79863 22.742 5.92899 22.8499 6.07889 22.9234C6.22878 22.9969 6.39395 23.0339 6.56087 23.0312H8.6324C8.84331 25.7729 9.89222 28.3835 11.6369 30.5089C13.3816 32.6344 15.7377 34.1719 18.3857 34.913C21.0338 35.6542 23.8457 35.5632 26.4402 34.6522C29.0348 33.7413 31.2864 32.0546 32.89 29.8207C32.9727 29.7055 33.0308 29.5745 33.0606 29.4359C33.0904 29.2973 33.0913 29.154 33.0633 29.015C33.0352 28.876 32.9788 28.7442 32.8975 28.628C32.8162 28.5118 32.7119 28.4136 32.5909 28.3396ZM38.4213 21.6055C38.3433 21.4171 38.2112 21.256 38.0416 21.1426C37.8721 21.0293 37.6727 20.9688 37.4687 20.9687H35.3676C35.1566 18.227 34.1077 15.6165 32.363 13.491C30.6183 11.3656 28.2623 9.82808 25.6142 9.08691C22.9662 8.34575 20.1543 8.4368 17.5597 9.34772C14.9652 10.2586 12.7135 11.9454 11.11 14.1792C10.9503 14.4015 10.8855 14.678 10.9297 14.948C10.974 15.2181 11.1237 15.4595 11.3459 15.6191C11.5681 15.7788 11.8446 15.8436 12.1147 15.7994C12.3847 15.7551 12.6261 15.6054 12.7858 15.3832C14.1349 13.5049 16.0258 12.0837 18.2053 11.3102C20.3848 10.5367 22.7486 10.4479 24.98 11.0555C27.2114 11.6632 29.2037 12.9384 30.69 14.7102C32.1764 16.4819 33.0856 18.6657 33.296 20.9687H31.2812C31.0771 20.9686 30.8776 21.029 30.7079 21.1423C30.5381 21.2556 30.4058 21.4167 30.3277 21.6052C30.2496 21.7938 30.2292 22.0012 30.269 22.2014C30.3089 22.4015 30.4072 22.5854 30.5516 22.7296L33.6454 25.8233C33.7411 25.9192 33.8549 25.9953 33.9801 26.0472C34.1053 26.0991 34.2395 26.1258 34.375 26.1258C34.5105 26.1258 34.6447 26.0991 34.7699 26.0472C34.8951 25.9953 35.0088 25.9192 35.1046 25.8233L38.1983 22.7296C38.3425 22.5853 38.4407 22.4015 38.4803 22.2014C38.52 22.0013 38.4995 21.7939 38.4213 21.6055Z" fill="#F34D08"/>
</g>
<defs>
<clipPath id="clip0_6371_161311">
<rect width="33" height="33" fill="white" transform="translate(5.5 5.5)"/>
</clipPath>
</defs>
</svg>
