<svg width="24" height="24" viewBox="0 0 24 24" fill="none" xmlns="http://www.w3.org/2000/svg">
<g clip-path="url(#clip0_6371_161308)">
<path d="M7.87505 11.25C7.87505 10.4341 8.11697 9.63662 8.57024 8.95827C9.0235 8.27991 9.66773 7.7512 10.4215 7.43899C11.1752 7.12678 12.0046 7.04509 12.8048 7.20426C13.605 7.36342 14.34 7.75629 14.9169 8.33318C15.4938 8.91007 15.8866 9.64507 16.0458 10.4452C16.205 11.2454 16.1233 12.0748 15.8111 12.8286C15.4988 13.5823 14.9701 14.2265 14.2918 14.6798C13.6134 15.1331 12.8159 15.375 12 15.375C10.906 15.375 9.85682 14.9404 9.08323 14.1668C8.30964 13.3932 7.87505 12.344 7.87505 11.25ZM19.7025 16.6106C19.5355 16.5136 19.338 16.483 19.1494 16.5249C18.9608 16.5667 18.7948 16.678 18.6844 16.8366C18.5228 17.0592 18.3501 17.2735 18.1669 17.4787C17.6213 16.6868 16.928 16.0075 16.125 15.4781C16.0566 15.4327 15.9751 15.4111 15.8931 15.4165C15.8111 15.4219 15.7332 15.4541 15.6713 15.5081C14.6525 16.3897 13.3502 16.875 12.0029 16.875C10.6555 16.875 9.35326 16.3897 8.33442 15.5081C8.27208 15.4528 8.19307 15.4198 8.10988 15.4143C8.02669 15.4089 7.94406 15.4313 7.87505 15.4781C7.07195 16.0065 6.37833 16.6848 5.83224 17.4759C4.66098 16.1607 3.94322 14.504 3.78474 12.75H5.22849C5.34988 12.7519 5.47001 12.725 5.57902 12.6716C5.68804 12.6181 5.78284 12.5396 5.85567 12.4425C5.96135 12.298 6.01188 12.1205 5.99812 11.9421C5.98437 11.7636 5.90724 11.5959 5.78067 11.4694L3.53067 9.21937C3.46102 9.14964 3.3783 9.09432 3.28725 9.05657C3.1962 9.01883 3.09861 8.9994 3.00005 8.9994C2.90149 8.9994 2.80389 9.01883 2.71284 9.05657C2.62179 9.09432 2.53908 9.14964 2.46942 9.21937L0.219423 11.4694C0.0928563 11.5959 0.015729 11.7636 0.00197453 11.9421C-0.0117799 12.1205 0.0387454 12.298 0.144423 12.4425C0.217255 12.5396 0.31206 12.6181 0.421075 12.6716C0.530089 12.725 0.650213 12.7519 0.77161 12.75H2.27817C2.43157 14.744 3.19441 16.6425 4.46327 18.1883C5.73214 19.7341 7.44565 20.8523 9.3715 21.3913C11.2974 21.9303 13.3424 21.8641 15.2293 21.2016C17.1163 20.5391 18.7538 19.3124 19.92 17.6878C19.9802 17.604 20.0225 17.5088 20.0441 17.4079C20.0658 17.3071 20.0665 17.2029 20.0461 17.1018C20.0257 17.0007 19.9846 16.9049 19.9255 16.8204C19.8664 16.7359 19.7905 16.6645 19.7025 16.6106ZM23.9429 11.7131C23.8861 11.5761 23.79 11.4589 23.6667 11.3765C23.5434 11.294 23.3984 11.25 23.25 11.25H21.7219C21.5685 9.25602 20.8057 7.35745 19.5368 5.81168C18.268 4.2659 16.5544 3.1477 14.6286 2.60867C12.7027 2.06964 10.6577 2.13586 8.77078 2.79835C6.88384 3.46084 5.24625 4.68756 4.08005 6.31218C3.96393 6.4738 3.91678 6.67492 3.94895 6.87131C3.98112 7.06769 4.08999 7.24325 4.25161 7.35937C4.41323 7.47548 4.61435 7.52264 4.81074 7.49047C5.00712 7.45829 5.18268 7.34942 5.2988 7.18781C6.27996 5.82172 7.65523 4.78816 9.2403 4.22563C10.8254 3.66309 12.5445 3.59847 14.1673 4.04041C15.7902 4.48235 17.2391 5.40974 18.3201 6.6983C19.4011 7.98687 20.0624 9.57504 20.2154 11.25H18.75C18.6016 11.2499 18.4565 11.2938 18.3331 11.3762C18.2096 11.4586 18.1134 11.5758 18.0566 11.7129C17.9998 11.85 17.9849 12.0009 18.0139 12.1465C18.0429 12.292 18.1144 12.4257 18.2194 12.5306L20.4694 14.7806C20.5391 14.8504 20.6218 14.9057 20.7128 14.9434C20.8039 14.9812 20.9015 15.0006 21 15.0006C21.0986 15.0006 21.1962 14.9812 21.2873 14.9434C21.3783 14.9057 21.461 14.8504 21.5307 14.7806L23.7807 12.5306C23.8855 12.4257 23.9569 12.292 23.9858 12.1465C24.0146 12.001 23.9997 11.8501 23.9429 11.7131Z" fill="#F34D08"/>
</g>
<defs>
<clipPath id="clip0_6371_161308">
<rect width="24" height="24" fill="white"/>
</clipPath>
</defs>
</svg>
