<svg width="16" height="16" viewBox="0 0 16 16" fill="none" xmlns="http://www.w3.org/2000/svg">
<path d="M8 0.875C8.33949 0.875 8.63687 1.00207 8.89844 1.17578C9.15823 1.34833 9.39102 1.57271 9.60059 1.77344V1.77441C9.73071 1.89911 9.85927 2.02142 9.98535 2.12598C10.1123 2.23118 10.2307 2.31202 10.3379 2.35645H10.3369C10.4369 2.39715 10.5655 2.42107 10.7197 2.43457C10.8734 2.44802 11.0438 2.45025 11.2256 2.45312C11.5206 2.45755 11.8504 2.46249 12.1641 2.52539C12.4798 2.58873 12.7886 2.71243 13.0381 2.96191C13.2875 3.21135 13.4112 3.51948 13.4746 3.83496C13.5375 4.1483 13.5425 4.47812 13.5469 4.77441C13.5498 4.95616 13.552 5.12715 13.5654 5.28125C13.5789 5.43598 13.6032 5.56415 13.6436 5.66211C13.688 5.76933 13.7688 5.88775 13.874 6.01465C13.9786 6.14073 14.1009 6.26929 14.2256 6.39941H14.2266C14.4273 6.60898 14.6517 6.84176 14.8242 7.10156C14.9979 7.36314 15.125 7.66051 15.125 8C15.125 8.33949 14.9979 8.63687 14.8242 8.89844C14.6517 9.15823 14.4273 9.39102 14.2266 9.60059H14.2256C14.1009 9.73071 13.9786 9.85927 13.874 9.98535C13.7688 10.1123 13.688 10.2307 13.6436 10.3379C13.6031 10.4377 13.5789 10.5659 13.5654 10.7197C13.552 10.8734 13.5498 11.0438 13.5469 11.2256C13.5425 11.5219 13.5375 11.8517 13.4746 12.165C13.4112 12.4805 13.2875 12.7887 13.0381 13.0381C12.7887 13.2875 12.4805 13.4112 12.165 13.4746C11.8517 13.5375 11.5219 13.5425 11.2256 13.5469C11.0438 13.5498 10.8728 13.552 10.7188 13.5654C10.5638 13.579 10.4349 13.6021 10.3369 13.6426L10.3379 13.6436C10.2307 13.688 10.1123 13.7688 9.98535 13.874C9.85927 13.9786 9.73071 14.1009 9.60059 14.2256V14.2266C9.39102 14.4273 9.15823 14.6517 8.89844 14.8242C8.63687 14.9979 8.33949 15.125 8 15.125C7.66051 15.125 7.36313 14.9979 7.10156 14.8242C6.84177 14.6517 6.60898 14.4273 6.39941 14.2266V14.2256C6.26929 14.1009 6.14073 13.9786 6.01465 13.874C5.88775 13.7688 5.76933 13.688 5.66211 13.6436V13.6426C5.56233 13.6022 5.43391 13.5789 5.28027 13.5654C5.12656 13.552 4.9562 13.5498 4.77441 13.5469C4.47937 13.5425 4.14957 13.5375 3.83594 13.4746C3.52022 13.4113 3.2114 13.2876 2.96191 13.0381C2.71248 12.7887 2.58875 12.4805 2.52539 12.165C2.46248 11.8517 2.45755 11.5219 2.45312 11.2256C2.45025 11.0438 2.44801 10.8728 2.43457 10.7188C2.42107 10.564 2.39683 10.4358 2.35645 10.3379L2.31641 10.2549C2.27008 10.1707 2.20481 10.0804 2.12598 9.98535C2.02142 9.85927 1.89911 9.73071 1.77441 9.60059H1.77344C1.57271 9.39102 1.34833 9.15823 1.17578 8.89844C1.00207 8.63687 0.875 8.33949 0.875 8C0.875 7.66051 1.00207 7.36313 1.17578 7.10156C1.34833 6.84177 1.57271 6.60898 1.77344 6.39941H1.77441C1.89911 6.26929 2.02142 6.14073 2.12598 6.01465C2.23118 5.88775 2.31202 5.76933 2.35645 5.66211C2.39694 5.56229 2.42111 5.43408 2.43457 5.28027C2.44802 5.12656 2.45025 4.9562 2.45312 4.77441C2.45755 4.47937 2.46249 4.14957 2.52539 3.83594C2.58873 3.52022 2.71243 3.2114 2.96191 2.96191C3.21135 2.71248 3.51948 2.58875 3.83496 2.52539C4.1483 2.46248 4.47812 2.45755 4.77441 2.45312C4.95616 2.45025 5.12715 2.44801 5.28125 2.43457C5.43598 2.42107 5.56415 2.39683 5.66211 2.35645L5.74512 2.31641C5.82933 2.27008 5.91956 2.20481 6.01465 2.12598C6.14073 2.02142 6.26929 1.89911 6.39941 1.77441V1.77344C6.60898 1.57271 6.84177 1.34833 7.10156 1.17578C7.36313 1.00207 7.66051 0.875 8 0.875ZM8 1.88867C7.88884 1.88867 7.75325 1.95111 7.5918 2.07031C7.43338 2.18733 7.26937 2.34316 7.10156 2.50391C6.79352 2.79815 6.45841 3.12448 6.05078 3.29297C5.65939 3.45522 5.20256 3.46052 4.79102 3.4668C4.55226 3.47033 4.32008 3.47357 4.11914 3.50391C3.91554 3.53468 3.76743 3.59073 3.67969 3.67871C3.59193 3.7669 3.53668 3.91487 3.50586 4.11816C3.47546 4.31892 3.4713 4.55051 3.46777 4.78906C3.46228 5.14932 3.4585 5.54497 3.34863 5.90039L3.29395 6.0498C3.12422 6.4571 2.79945 6.79505 2.50586 7.10059C2.34442 7.26941 2.18749 7.43309 2.07031 7.5918C1.95094 7.75351 1.88867 7.88885 1.88867 8C1.88867 8.11113 1.95033 8.2466 2.06934 8.4082C2.18624 8.56691 2.34264 8.73078 2.50293 8.89941L2.72656 9.13672C2.95021 9.38003 3.16564 9.6446 3.29199 9.9502C3.45431 10.3417 3.45954 10.7993 3.46582 11.2109C3.46935 11.4497 3.47256 11.6819 3.50293 11.8828C3.53369 12.0861 3.58895 12.2336 3.67676 12.3213C3.76486 12.4091 3.91291 12.4643 4.11621 12.4951C4.31712 12.5256 4.5493 12.5297 4.78809 12.5332C5.14819 12.5387 5.54313 12.5436 5.89844 12.6533L6.04883 12.707L6.19824 12.7773C6.53989 12.9574 6.83128 13.2392 7.09863 13.4961C7.26752 13.6576 7.43206 13.8144 7.59082 13.9316C7.75238 14.0508 7.88796 14.1123 7.99902 14.1123C8.10986 14.1122 8.24475 14.0501 8.40625 13.9307C8.48559 13.872 8.56662 13.8034 8.64844 13.7295L8.89844 13.4951C9.20637 13.201 9.54178 12.8754 9.94922 12.707C10.3406 12.5448 10.7974 12.5395 11.209 12.5332C11.4477 12.5297 11.6799 12.5264 11.8809 12.4961C12.0845 12.4653 12.2326 12.4093 12.3203 12.3213C12.4081 12.2331 12.4633 12.0851 12.4941 11.8818C12.5245 11.6811 12.5287 11.4495 12.5322 11.2109C12.5385 10.7993 12.5437 10.3417 12.7061 9.9502L12.7764 9.80078C12.9564 9.45908 13.2372 9.1668 13.4941 8.89941C13.6558 8.73037 13.8131 8.56672 13.9307 8.4082C14.0503 8.24683 14.1123 8.11189 14.1123 8.00098C14.1122 7.89014 14.0501 7.75525 13.9307 7.59375C13.8131 7.4349 13.6559 7.27039 13.4951 7.10156C13.201 6.79363 12.8754 6.45822 12.707 6.05078C12.5448 5.65939 12.5395 5.20256 12.5332 4.79102C12.5297 4.55226 12.5264 4.32008 12.4961 4.11914C12.4653 3.91554 12.4093 3.76743 12.3213 3.67969C12.2331 3.59193 12.0851 3.53668 11.8818 3.50586C11.6811 3.47546 11.4495 3.4713 11.2109 3.46777C10.8507 3.46228 10.455 3.4585 10.0996 3.34863L9.9502 3.29395C9.54289 3.12422 9.20495 2.79945 8.89941 2.50586C8.73059 2.34442 8.56691 2.18749 8.4082 2.07031C8.24649 1.95094 8.11115 1.88867 8 1.88867ZM8 10.0391C8.42041 10.0391 8.76161 10.3794 8.76172 10.7998C8.76172 11.3859 8.12672 11.752 7.61914 11.459C7.1119 11.1659 7.11179 10.4337 7.61914 10.1406C7.73489 10.0738 7.86634 10.0391 8 10.0391ZM7.49316 4.94531C7.49326 4.55533 7.91513 4.31203 8.25293 4.50684C8.4097 4.59735 8.50679 4.7643 8.50684 4.94531V8.50879C8.50684 8.89876 8.08488 9.14283 7.74707 8.94824C7.59026 8.85771 7.49316 8.68986 7.49316 8.50879V4.94531Z" fill="#4B4B4B" stroke="#4B4B4B" stroke-width="0.25"/>
</svg>
