<?xml version="1.0" encoding="UTF-8"?><svg id="Layer_2" xmlns="http://www.w3.org/2000/svg" viewBox="0 0 663.91 596.33"><defs><style>.cls-1{opacity:.05;}.cls-2{opacity:.1;}.cls-3{fill:#fff;opacity:.25;}</style></defs><g id="Layer_1-2"><g><g class="cls-1"><path d="m318.14,0c-10.03.04-20.05.13-30,.26v595.58c9.95.13,19.96.22,30,.26V0Z"/><path d="m30,.65C19.96.69,9.95.77,0,.9v595.24c9.95.13,19.96.02,30,.06V.65Z"/><path d="m87.62.74c-10.03.04-20.05.13-30,.26v595.15c9.95.13,19.96,0,30,.05V.74Z"/><path d="m145.25.83c-10.03.04-20.05.13-30,.26v595.06c9.95.13,19.96-.04,30,0V.83Z"/><path d="m202.88.92c-10.03.04-20.05.13-30,.26v595.11c9.95.13,19.96-.04,30,0V.92Z"/><path d="m260.51,1.01c-10.03.04-20.05.13-30,.26v594.97c9.95.13,19.96-.04,30,0V1.01Z"/><path d="m318.14,1.1c-10.03.04-20.05.13-30,.26v594.84c9.95.13,19.96-.15,30-.11V1.1Z"/><path d="m375.77,1.19c-10.03.04-20.05.13-30,.26v594.7c9.95.13,19.96-.04,30,0V1.19Z"/><path d="m433.4,1.28c-10.03.04-20.05.13-30,.26v594.75c9.95.13,19.96-.04,30,0V1.28Z"/><path d="m491.02,1.37c-10.03.04-20.05.13-30,.26v594.62c9.95.13,19.96-.14,30-.1V1.37Z"/><path d="m548.65,1.46c-10.03.04-20.05.13-30,.26v594.48c9.95.13,19.96-.04,30,0V1.46Z"/><path d="m606.28,1.55c-10.03.04-20.05.13-30,.26v594.34c9.95.13,19.96-.04,30,0V1.55Z"/><path d="m663.91.06c-10.03.04-20.05.13-30,.26v595.84s19.96-.04,30,0V.06Z"/></g><path class="cls-2" d="m663.91,307.55s0,0,0,0c.04-34.55-.14-69.59-.53-99.86-117.5,6.08-136.01,79.85-166.58,180.28-33.52,110.09-179.88,149.4-307.42,89.69C98.47,435.1,31.16,490.57,0,525.93h0v70.22h663.91l-.91-183.38c.56-29.67.86-66.76.91-104.48v-.74Z"/><path class="cls-3" d="m67.24,297.88l-14.9,15.41c-6.43,6.65-16.86,6.65-23.29,0l-14.9-15.41c-6.43-6.65-6.43-17.44,0-24.09l14.9-15.41c6.43-6.65,16.86-6.65,23.29,0l14.9,15.41c6.43,6.65,6.43,17.44,0,24.09Z"/><path class="cls-3" d="m240.23,461.16l-16.75,17.33c-4.31,4.46-11.3,4.46-15.62,0l-16.75-17.33c-4.31-4.46-4.31-11.69,0-16.15l16.75-17.33c4.31-4.46,11.3-4.46,15.62,0l16.75,17.33c4.31,4.46,4.31,11.69,0,16.15Z"/><path class="cls-3" d="m128.31,66.35l-10.09,10.43c-2.6,2.69-6.81,2.69-9.4,0l-10.09-10.43c-2.6-2.69-2.6-7.04,0-9.73l10.09-10.43c2.6-2.69,6.81-2.69,9.4,0l10.09,10.43c2.6,2.69,2.6,7.04,0,9.73Z"/><path class="cls-3" d="m385.92,324.79l-10.09,10.43c-2.6,2.69-6.81,2.69-9.4,0l-10.09-10.43c-2.6-2.69-2.6-7.04,0-9.73l10.09-10.43c2.6-2.69,6.81-2.69,9.4,0l10.09,10.43c2.6,2.69,2.6,7.04,0,9.73Z"/><path class="cls-3" d="m208.66,252.87l-8.73,9.03c-2.25,2.33-5.89,2.33-8.14,0l-8.73-9.03c-2.25-2.33-2.25-6.09,0-8.42l8.73-9.03c2.25-2.33,5.89-2.33,8.14,0l8.73,9.03c2.25,2.33,2.25,6.09,0,8.42Z"/><path class="cls-3" d="m64.35,511.55l-8.73,9.03c-2.25,2.33-5.89,2.33-8.14,0l-8.73-9.03c-2.25-2.33-2.25-6.09,0-8.42l8.73-9.03c2.25-2.33,5.89-2.33,8.14,0l8.73,9.03c2.25,2.33,2.25,6.09,0,8.42Z"/><path class="cls-3" d="m477.67,428.55l-8.73,9.03c-2.25,2.33-5.89,2.33-8.14,0l-8.73-9.03c-2.25-2.33-2.25-6.09,0-8.42l8.73-9.03c2.25-2.33,5.89-2.33,8.14,0l8.73,9.03c2.25,2.33,2.25,6.09,0,8.42Z"/><path class="cls-3" d="m364.38,112.78l-8.73,9.03c-2.25,2.33-5.89,2.33-8.14,0l-8.73-9.03c-2.25-2.33-2.25-6.09,0-8.42l8.73-9.03c2.25-2.33,5.89-2.33,8.14,0l8.73,9.03c2.25,2.33,2.25,6.09,0,8.42Z"/><path class="cls-3" d="m489.08,71.84l-10.09,10.43c-2.6,2.69-6.81,2.69-9.4,0l-10.09-10.43c-2.6-2.69-2.6-7.04,0-9.73l10.09-10.43c2.6-2.69,6.81-2.69,9.4,0l10.09,10.43c2.6,2.69,2.6,7.04,0,9.73Z"/><path class="cls-3" d="m622.81,123.78l-10.09,10.43c-2.6,2.69-6.81,2.69-9.4,0l-10.09-10.43c-2.6-2.69-2.6-7.04,0-9.73l10.09-10.43c2.6-2.69,6.81-2.69,9.4,0l10.09,10.43c2.6,2.69,2.6,7.04,0,9.73Z"/><path class="cls-3" d="m558.89,240.78l-14.16,14.65c-6.11,6.32-16.03,6.32-22.14,0l-14.16-14.65c-6.11-6.32-6.11-16.58,0-22.9l14.16-14.65c6.11-6.32,16.03-6.32,22.14,0l14.16,14.65c6.11,6.32,6.11,16.58,0,22.9Z"/><path class="cls-3" d="m429.81,539.54l-22.06-37.41h5.96c6.56,0,10.63-7.13,7.3-12.78l-20.39-34.58h6.21c5.5,0,8.91-5.98,6.12-10.71l-35.69-60.53c-2.75-4.66-9.49-4.66-12.24,0l-35.69,60.53c-2.79,4.73.62,10.71,6.12,10.71h6.21l-20.39,34.58c-3.33,5.65.74,12.78,7.3,12.78h5.96l-22.06,37.41c-3.92,6.64.87,15.03,8.59,15.03h41.16v41.52h18.33v-41.52h40.69c7.71,0,12.5-8.39,8.59-15.03Z"/><path class="cls-3" d="m302.06,559.2c-1.03,0-2.05.1-3.03.29-2.34-9.14-10.63-15.89-20.5-15.89-4.4,0-8.48,1.35-11.86,3.64-.84-.1-1.7-.16-2.56-.16-1.38,0-2.72.13-4.02.38-3.11-12.14-14.13-21.12-27.24-21.12s-24.86,9.59-27.52,22.34c-2.4-.79-4.96-1.23-7.63-1.23-12.3,0-22.45,9.13-24.08,20.98h-.23c0,15.27,12.38,27.65,27.65,27.65h96.3c11.49,0,20.81-9.32,20.81-20.81,0-8.88-7.2-16.08-16.08-16.08Z"/></g></g></svg>