<svg width="12" height="12" viewBox="0 0 12 12" fill="none" xmlns="http://www.w3.org/2000/svg">
<path d="M7.35066 3.14987C7.25905 3.24333 7.20773 3.36899 7.20773 3.49987C7.20773 3.63074 7.25905 3.7564 7.35066 3.84987L8.15066 4.64987C8.24412 4.74148 8.36978 4.7928 8.50066 4.7928C8.63154 4.7928 8.7572 4.74148 8.85066 4.64987L10.7357 2.76487C10.9871 3.32046 11.0632 3.93949 10.9539 4.53944C10.8446 5.1394 10.555 5.69179 10.1238 6.12301C9.69258 6.55422 9.14019 6.84378 8.54023 6.9531C7.94028 7.06241 7.32125 6.98629 6.76566 6.73487L3.31066 10.1899C3.11175 10.3888 2.84196 10.5005 2.56066 10.5005C2.27936 10.5005 2.00957 10.3888 1.81066 10.1899C1.61175 9.99095 1.5 9.72117 1.5 9.43987C1.5 9.15856 1.61175 8.88878 1.81066 8.68987L5.26566 5.23487C5.01424 4.67927 4.93812 4.06025 5.04743 3.4603C5.15674 2.86034 5.4463 2.30795 5.87752 1.87673C6.30874 1.44551 6.86113 1.15595 7.46109 1.04664C8.06104 0.937326 8.68007 1.01345 9.23566 1.26487L7.35566 3.14487L7.35066 3.14987Z" stroke="#C2410C" stroke-linecap="round" stroke-linejoin="round"/>
</svg>
