<svg width="28" height="23" viewBox="0 0 28 23" fill="none" xmlns="http://www.w3.org/2000/svg">
<path d="M26.3335 13C27.1619 13 27.8335 12.3284 27.8335 11.5C27.8335 10.6716 27.1619 10 26.3335 10V13ZM1.27284 10.4393C0.687049 11.0251 0.687049 11.9749 1.27284 12.5607L10.8188 22.1066C11.4046 22.6924 12.3543 22.6924 12.9401 22.1066C13.5259 21.5208 13.5259 20.5711 12.9401 19.9853L4.45482 11.5L12.9401 3.01472C13.5259 2.42893 13.5259 1.47918 12.9401 0.893398C12.3543 0.307612 11.4046 0.307612 10.8188 0.893398L1.27284 10.4393ZM26.3335 11.5V10L2.3335 10V11.5V13L26.3335 13V11.5Z" fill="white"/>
</svg>
