<svg width="202" height="176" viewBox="0 0 202 176" fill="none" xmlns="http://www.w3.org/2000/svg">
<path d="M126.822 72.0556C146.719 72.0556 162.85 55.9254 162.85 36.0278C162.85 16.1302 146.719 0 126.822 0C106.924 0 90.7939 16.1302 90.7939 36.0278C90.7939 55.9254 106.924 72.0556 126.822 72.0556Z" fill="#F34D08"/>
<path d="M106.073 47C106.432 58.0625 115.491 66.9125 126.644 66.9125C137.796 66.9125 146.855 58.0625 147.214 47C133.401 56.4779 119.677 56.5077 106.043 47H106.073Z" fill="#FFC805"/>
<path d="M126.674 25.7031C116.359 25.7031 107.808 33.2974 106.313 43.1938C119.648 53.2696 133.222 53.449 147.035 43.1938C145.54 33.2974 136.989 25.7031 126.674 25.7031ZM123.953 47.3497C123.265 47.3497 122.697 46.094 122.697 44.5691C122.697 43.0443 123.265 41.7886 123.953 41.7886C124.641 41.7886 125.209 43.0443 125.209 44.5691C125.209 46.094 124.641 47.3497 123.953 47.3497ZM128.498 47.3497C127.81 47.3497 127.242 46.094 127.242 44.5691C127.242 43.0443 127.81 41.7886 128.498 41.7886C129.185 41.7886 129.753 43.0443 129.753 44.5691C129.753 46.094 129.185 47.3497 128.498 47.3497Z" fill="#FFC805"/>
<path d="M148.35 21.4688H105.266C100.378 21.4688 96.4158 25.431 96.4158 30.3187V30.4682C96.4158 35.3559 100.378 39.3182 105.266 39.3182H148.35C153.237 39.3182 157.2 35.3559 157.2 30.4682V30.3187C157.2 25.431 153.237 21.4688 148.35 21.4688Z" fill="#FFC805"/>
<path d="M117.495 37.9733C121.524 37.9733 124.79 34.7071 124.79 30.6781C124.79 26.649 121.524 23.3828 117.495 23.3828C113.466 23.3828 110.2 26.649 110.2 30.6781C110.2 34.7071 113.466 37.9733 117.495 37.9733Z" fill="white"/>
<path d="M116.387 36.8403C117.841 36.8403 119.019 35.6623 119.019 34.2092C119.019 32.7561 117.841 31.5781 116.387 31.5781C114.934 31.5781 113.756 32.7561 113.756 34.2092C113.756 35.6623 114.934 36.8403 116.387 36.8403Z" fill="#2D2D2D"/>
<path d="M136.48 38.1239C140.591 38.1239 143.925 34.7907 143.925 30.6791C143.925 26.5675 140.591 23.2344 136.48 23.2344C132.368 23.2344 129.035 26.5675 129.035 30.6791C129.035 34.7907 132.368 38.1239 136.48 38.1239Z" fill="white"/>
<path d="M135.434 36.7624C136.838 36.7624 137.975 35.6246 137.975 34.2211C137.975 32.8175 136.838 31.6797 135.434 31.6797C134.03 31.6797 132.893 32.8175 132.893 34.2211C132.893 35.6246 134.03 36.7624 135.434 36.7624Z" fill="#2D2D2D"/>
<path d="M14.3439 107.26L12.9387 84.2979L188.742 86.4804L188.144 108.097L50.9996 108.366C50.9996 108.366 48.3087 112.791 45.0498 109.054L14.314 107.26H14.3439Z" fill="#F34D08"/>
<mask id="path-10-outside-1_3989_1819" maskUnits="userSpaceOnUse" x="43" y="135.828" width="29" height="31" fill="black">
<rect fill="white" x="43" y="135.828" width="29" height="31"/>
<path d="M58.3449 161.04C55.385 161.04 52.9931 160.322 51.1095 158.917C49.0465 157.362 48 155.179 48 152.339C48 149.499 48.8073 146.569 50.4517 144.416C52.2756 142.024 54.7571 140.828 57.8367 140.828C60.9162 140.828 61.7833 141.187 63.1885 141.875C65.0422 142.801 65.999 144.207 65.999 146.15C65.999 148.093 65.2515 148.721 63.7267 149.768C63.039 150.246 61.6338 150.964 59.5708 151.891L53.322 154.641C53.9199 155.269 54.6375 155.777 55.4746 156.076C56.3118 156.405 57.2686 156.555 58.3749 156.555C60.0193 156.555 61.4245 156.226 62.5905 155.538C63.6071 154.94 64.4442 154.641 65.0422 154.641C66.3278 154.641 66.9557 155.269 66.9557 156.525C66.9557 157.781 65.9392 159.096 63.8762 159.963C62.1421 160.711 60.3183 161.069 58.3749 161.069L58.3449 161.04ZM57.8665 145.313C56.7304 145.313 55.7438 145.702 54.9066 146.449C54.0694 147.197 53.4415 148.363 52.9333 149.887C54.3385 149.289 55.7139 148.691 57.0892 148.093C58.7635 147.346 60.0791 146.628 61.0657 146.001C60.2286 145.522 59.1522 145.283 57.8367 145.283L57.8665 145.313Z"/>
</mask>
<path d="M58.3449 161.04C55.385 161.04 52.9931 160.322 51.1095 158.917C49.0465 157.362 48 155.179 48 152.339C48 149.499 48.8073 146.569 50.4517 144.416C52.2756 142.024 54.7571 140.828 57.8367 140.828C60.9162 140.828 61.7833 141.187 63.1885 141.875C65.0422 142.801 65.999 144.207 65.999 146.15C65.999 148.093 65.2515 148.721 63.7267 149.768C63.039 150.246 61.6338 150.964 59.5708 151.891L53.322 154.641C53.9199 155.269 54.6375 155.777 55.4746 156.076C56.3118 156.405 57.2686 156.555 58.3749 156.555C60.0193 156.555 61.4245 156.226 62.5905 155.538C63.6071 154.94 64.4442 154.641 65.0422 154.641C66.3278 154.641 66.9557 155.269 66.9557 156.525C66.9557 157.781 65.9392 159.096 63.8762 159.963C62.1421 160.711 60.3183 161.069 58.3749 161.069L58.3449 161.04ZM57.8665 145.313C56.7304 145.313 55.7438 145.702 54.9066 146.449C54.0694 147.197 53.4415 148.363 52.9333 149.887C54.3385 149.289 55.7139 148.691 57.0892 148.093C58.7635 147.346 60.0791 146.628 61.0657 146.001C60.2286 145.522 59.1522 145.283 57.8367 145.283L57.8665 145.313Z" fill="#FFC805"/>
<path d="M58.3449 161.04C55.385 161.04 52.9931 160.322 51.1095 158.917C49.0465 157.362 48 155.179 48 152.339C48 149.499 48.8073 146.569 50.4517 144.416C52.2756 142.024 54.7571 140.828 57.8367 140.828C60.9162 140.828 61.7833 141.187 63.1885 141.875C65.0422 142.801 65.999 144.207 65.999 146.15C65.999 148.093 65.2515 148.721 63.7267 149.768C63.039 150.246 61.6338 150.964 59.5708 151.891L53.322 154.641C53.9199 155.269 54.6375 155.777 55.4746 156.076C56.3118 156.405 57.2686 156.555 58.3749 156.555C60.0193 156.555 61.4245 156.226 62.5905 155.538C63.6071 154.94 64.4442 154.641 65.0422 154.641C66.3278 154.641 66.9557 155.269 66.9557 156.525C66.9557 157.781 65.9392 159.096 63.8762 159.963C62.1421 160.711 60.3183 161.069 58.3749 161.069L58.3449 161.04ZM57.8665 145.313C56.7304 145.313 55.7438 145.702 54.9066 146.449C54.0694 147.197 53.4415 148.363 52.9333 149.887C54.3385 149.289 55.7139 148.691 57.0892 148.093C58.7635 147.346 60.0791 146.628 61.0657 146.001C60.2286 145.522 59.1522 145.283 57.8367 145.283L57.8665 145.313Z" stroke="#F34D08" stroke-width="10" stroke-miterlimit="7.1" stroke-linejoin="round" mask="url(#path-10-outside-1_3989_1819)"/>
<mask id="path-11-outside-2_3989_1819" maskUnits="userSpaceOnUse" x="67" y="135.875" width="30" height="31" fill="black">
<rect fill="white" x="67" y="135.875" width="30" height="31"/>
<path d="M88.8329 161.236C88.2648 161.236 87.3679 160.698 86.142 159.592C85.0059 160.13 84.0192 160.548 83.1522 160.817C82.2851 161.086 81.5676 161.236 80.9397 161.236C77.9499 161.236 75.7373 160.429 74.2424 158.844C72.7475 157.259 72 154.868 72 151.698C72 148.529 73.1062 146.167 75.2888 144.044C77.4714 141.921 80.1325 140.875 83.1821 140.875C86.2318 140.875 85.7234 141.204 87.2483 141.862C89.102 142.669 90.0588 143.566 90.0588 144.642C90.0588 145.719 89.9092 145.479 89.6402 145.808C89.5206 146.287 89.4309 146.915 89.3412 147.662C89.2814 148.409 89.2515 149.277 89.2515 150.263C89.2515 152.595 89.4309 154.27 89.7598 155.316C89.7897 155.436 90.0886 156.063 90.5969 157.23C91.0753 158.276 91.3145 158.874 91.3145 159.023C91.3145 159.681 91.0753 160.219 90.567 160.638C90.0588 161.057 89.4907 161.266 88.8329 161.266V161.236ZM84.2286 148.738C84.2286 148.35 84.2285 147.901 84.3182 147.363C84.378 146.855 84.4677 146.287 84.5574 145.659C84.3182 145.539 84.079 145.449 83.8996 145.39C83.7203 145.33 83.5408 145.3 83.4212 145.3C81.7469 145.3 80.2819 145.958 79.0262 147.273C77.7704 148.589 77.1425 150.114 77.1425 151.848C77.1425 153.582 77.4415 154.748 78.0395 155.585C78.6375 156.422 79.5345 156.841 80.7005 156.841C81.8666 156.841 82.1955 156.721 82.8831 156.452C83.5708 156.213 84.2286 155.824 84.8265 155.346C84.4677 152.416 84.2584 150.203 84.2584 148.738H84.2286Z"/>
</mask>
<path d="M88.8329 161.236C88.2648 161.236 87.3679 160.698 86.142 159.592C85.0059 160.13 84.0192 160.548 83.1522 160.817C82.2851 161.086 81.5676 161.236 80.9397 161.236C77.9499 161.236 75.7373 160.429 74.2424 158.844C72.7475 157.259 72 154.868 72 151.698C72 148.529 73.1062 146.167 75.2888 144.044C77.4714 141.921 80.1325 140.875 83.1821 140.875C86.2318 140.875 85.7234 141.204 87.2483 141.862C89.102 142.669 90.0588 143.566 90.0588 144.642C90.0588 145.719 89.9092 145.479 89.6402 145.808C89.5206 146.287 89.4309 146.915 89.3412 147.662C89.2814 148.409 89.2515 149.277 89.2515 150.263C89.2515 152.595 89.4309 154.27 89.7598 155.316C89.7897 155.436 90.0886 156.063 90.5969 157.23C91.0753 158.276 91.3145 158.874 91.3145 159.023C91.3145 159.681 91.0753 160.219 90.567 160.638C90.0588 161.057 89.4907 161.266 88.8329 161.266V161.236ZM84.2286 148.738C84.2286 148.35 84.2285 147.901 84.3182 147.363C84.378 146.855 84.4677 146.287 84.5574 145.659C84.3182 145.539 84.079 145.449 83.8996 145.39C83.7203 145.33 83.5408 145.3 83.4212 145.3C81.7469 145.3 80.2819 145.958 79.0262 147.273C77.7704 148.589 77.1425 150.114 77.1425 151.848C77.1425 153.582 77.4415 154.748 78.0395 155.585C78.6375 156.422 79.5345 156.841 80.7005 156.841C81.8666 156.841 82.1955 156.721 82.8831 156.452C83.5708 156.213 84.2286 155.824 84.8265 155.346C84.4677 152.416 84.2584 150.203 84.2584 148.738H84.2286Z" fill="#FFC805"/>
<path d="M88.8329 161.236C88.2648 161.236 87.3679 160.698 86.142 159.592C85.0059 160.13 84.0192 160.548 83.1522 160.817C82.2851 161.086 81.5676 161.236 80.9397 161.236C77.9499 161.236 75.7373 160.429 74.2424 158.844C72.7475 157.259 72 154.868 72 151.698C72 148.529 73.1062 146.167 75.2888 144.044C77.4714 141.921 80.1325 140.875 83.1821 140.875C86.2318 140.875 85.7234 141.204 87.2483 141.862C89.102 142.669 90.0588 143.566 90.0588 144.642C90.0588 145.719 89.9092 145.479 89.6402 145.808C89.5206 146.287 89.4309 146.915 89.3412 147.662C89.2814 148.409 89.2515 149.277 89.2515 150.263C89.2515 152.595 89.4309 154.27 89.7598 155.316C89.7897 155.436 90.0886 156.063 90.5969 157.23C91.0753 158.276 91.3145 158.874 91.3145 159.023C91.3145 159.681 91.0753 160.219 90.567 160.638C90.0588 161.057 89.4907 161.266 88.8329 161.266V161.236ZM84.2286 148.738C84.2286 148.35 84.2285 147.901 84.3182 147.363C84.378 146.855 84.4677 146.287 84.5574 145.659C84.3182 145.539 84.079 145.449 83.8996 145.39C83.7203 145.33 83.5408 145.3 83.4212 145.3C81.7469 145.3 80.2819 145.958 79.0262 147.273C77.7704 148.589 77.1425 150.114 77.1425 151.848C77.1425 153.582 77.4415 154.748 78.0395 155.585C78.6375 156.422 79.5345 156.841 80.7005 156.841C81.8666 156.841 82.1955 156.721 82.8831 156.452C83.5708 156.213 84.2286 155.824 84.8265 155.346C84.4677 152.416 84.2584 150.203 84.2584 148.738H84.2286Z" stroke="#F34D08" stroke-width="10" stroke-miterlimit="7.1" mask="url(#path-11-outside-2_3989_1819)"/>
<mask id="path-12-outside-3_3989_1819" maskUnits="userSpaceOnUse" x="91" y="135.688" width="26" height="31" fill="black">
<rect fill="white" x="91" y="135.688" width="26" height="31"/>
<path d="M111.876 146.847C111.757 148.73 110.919 149.687 109.305 149.687C107.69 149.687 106.973 148.88 106.973 147.265L106.883 145.382C104.102 145.83 102.129 147.265 100.933 149.657V158.985C100.933 159.703 100.724 160.271 100.216 160.749C99.7074 161.228 99.1095 161.437 98.3919 161.437C97.6743 161.437 97.0465 161.198 96.598 160.69C96.2093 160.241 96 159.673 96 158.985V146.847C96 146.458 96 145.89 96.0299 145.142C96.0299 144.395 96.0598 143.797 96.0598 143.438C96.0598 142.75 96.269 142.182 96.6876 141.704C97.1062 141.226 97.7042 141.016 98.4517 141.016C99.827 141.016 100.634 141.734 100.903 143.139C103.086 141.495 105.508 140.688 108.199 140.688C110.889 140.688 111.906 142.332 111.906 145.621C111.906 148.91 111.906 146.667 111.906 146.847H111.876Z"/>
</mask>
<path d="M111.876 146.847C111.757 148.73 110.919 149.687 109.305 149.687C107.69 149.687 106.973 148.88 106.973 147.265L106.883 145.382C104.102 145.83 102.129 147.265 100.933 149.657V158.985C100.933 159.703 100.724 160.271 100.216 160.749C99.7074 161.228 99.1095 161.437 98.3919 161.437C97.6743 161.437 97.0465 161.198 96.598 160.69C96.2093 160.241 96 159.673 96 158.985V146.847C96 146.458 96 145.89 96.0299 145.142C96.0299 144.395 96.0598 143.797 96.0598 143.438C96.0598 142.75 96.269 142.182 96.6876 141.704C97.1062 141.226 97.7042 141.016 98.4517 141.016C99.827 141.016 100.634 141.734 100.903 143.139C103.086 141.495 105.508 140.688 108.199 140.688C110.889 140.688 111.906 142.332 111.906 145.621C111.906 148.91 111.906 146.667 111.906 146.847H111.876Z" fill="#FFC805"/>
<path d="M111.876 146.847C111.757 148.73 110.919 149.687 109.305 149.687C107.69 149.687 106.973 148.88 106.973 147.265L106.883 145.382C104.102 145.83 102.129 147.265 100.933 149.657V158.985C100.933 159.703 100.724 160.271 100.216 160.749C99.7074 161.228 99.1095 161.437 98.3919 161.437C97.6743 161.437 97.0465 161.198 96.598 160.69C96.2093 160.241 96 159.673 96 158.985V146.847C96 146.458 96 145.89 96.0299 145.142C96.0299 144.395 96.0598 143.797 96.0598 143.438C96.0598 142.75 96.269 142.182 96.6876 141.704C97.1062 141.226 97.7042 141.016 98.4517 141.016C99.827 141.016 100.634 141.734 100.903 143.139C103.086 141.495 105.508 140.688 108.199 140.688C110.889 140.688 111.906 142.332 111.906 145.621C111.906 148.91 111.906 146.667 111.906 146.847H111.876Z" stroke="#F34D08" stroke-width="10" stroke-miterlimit="7.1" mask="url(#path-12-outside-3_3989_1819)"/>
<mask id="path-13-outside-4_3989_1819" maskUnits="userSpaceOnUse" x="112" y="135.055" width="28" height="32" fill="black">
<rect fill="white" x="112" y="135.055" width="28" height="32"/>
<path d="M132.218 161.522C130.694 161.522 129.856 160.774 129.677 159.279C129.498 157.994 129.318 156.738 129.169 155.452C128.989 154.107 128.9 152.821 128.9 151.625C128.9 150.429 128.9 150.758 128.959 149.981C128.989 149.204 129.019 148.665 129.019 148.337C129.019 148.008 129.019 148.038 129.049 147.679C129.049 147.32 129.079 147.051 129.079 146.812C129.079 145.795 128.84 145.287 128.332 145.287C127.285 145.287 126.239 145.975 125.222 147.32C124.206 148.695 123.398 150.4 122.83 152.492C122.83 152.911 122.77 153.479 122.681 154.167C122.621 154.735 122.591 155.303 122.591 155.841C122.591 156.379 122.561 156.738 122.471 157.456C122.382 158.173 122.352 158.711 122.352 159.07C122.352 159.788 122.113 160.386 121.634 160.864C121.156 161.342 120.528 161.582 119.781 161.582C119.033 161.582 118.435 161.342 117.957 160.864C117.478 160.386 117.239 159.788 117.239 159.07C117.239 158.353 117.209 158.173 117.12 157.486C117.06 156.768 117 156.23 117 155.901C117 154.705 117.09 153.001 117.269 150.878C117.449 148.725 117.538 147.051 117.538 145.825C117.538 144.599 117.538 144.898 117.478 144.151C117.419 143.403 117.419 142.835 117.419 142.476C117.419 141.759 117.658 141.191 118.166 140.742C118.674 140.294 119.272 140.055 120.02 140.055C121.634 140.055 122.501 141.011 122.621 142.955V143.164C124.445 141.34 126.358 140.443 128.361 140.443C130.365 140.443 132.308 141.43 133.205 143.373C133.803 144.689 134.102 146.632 134.102 149.234V150.549C134.102 151.117 134.102 151.506 134.102 151.745C134.102 152.702 134.222 153.958 134.491 155.482C134.76 157.007 134.879 158.233 134.879 159.19C134.879 160.147 134.64 160.446 134.132 160.924C133.624 161.372 133.026 161.612 132.308 161.612L132.218 161.522Z"/>
</mask>
<path d="M132.218 161.522C130.694 161.522 129.856 160.774 129.677 159.279C129.498 157.994 129.318 156.738 129.169 155.452C128.989 154.107 128.9 152.821 128.9 151.625C128.9 150.429 128.9 150.758 128.959 149.981C128.989 149.204 129.019 148.665 129.019 148.337C129.019 148.008 129.019 148.038 129.049 147.679C129.049 147.32 129.079 147.051 129.079 146.812C129.079 145.795 128.84 145.287 128.332 145.287C127.285 145.287 126.239 145.975 125.222 147.32C124.206 148.695 123.398 150.4 122.83 152.492C122.83 152.911 122.77 153.479 122.681 154.167C122.621 154.735 122.591 155.303 122.591 155.841C122.591 156.379 122.561 156.738 122.471 157.456C122.382 158.173 122.352 158.711 122.352 159.07C122.352 159.788 122.113 160.386 121.634 160.864C121.156 161.342 120.528 161.582 119.781 161.582C119.033 161.582 118.435 161.342 117.957 160.864C117.478 160.386 117.239 159.788 117.239 159.07C117.239 158.353 117.209 158.173 117.12 157.486C117.06 156.768 117 156.23 117 155.901C117 154.705 117.09 153.001 117.269 150.878C117.449 148.725 117.538 147.051 117.538 145.825C117.538 144.599 117.538 144.898 117.478 144.151C117.419 143.403 117.419 142.835 117.419 142.476C117.419 141.759 117.658 141.191 118.166 140.742C118.674 140.294 119.272 140.055 120.02 140.055C121.634 140.055 122.501 141.011 122.621 142.955V143.164C124.445 141.34 126.358 140.443 128.361 140.443C130.365 140.443 132.308 141.43 133.205 143.373C133.803 144.689 134.102 146.632 134.102 149.234V150.549C134.102 151.117 134.102 151.506 134.102 151.745C134.102 152.702 134.222 153.958 134.491 155.482C134.76 157.007 134.879 158.233 134.879 159.19C134.879 160.147 134.64 160.446 134.132 160.924C133.624 161.372 133.026 161.612 132.308 161.612L132.218 161.522Z" fill="#FFC805"/>
<path d="M132.218 161.522C130.694 161.522 129.856 160.774 129.677 159.279C129.498 157.994 129.318 156.738 129.169 155.452C128.989 154.107 128.9 152.821 128.9 151.625C128.9 150.429 128.9 150.758 128.959 149.981C128.989 149.204 129.019 148.665 129.019 148.337C129.019 148.008 129.019 148.038 129.049 147.679C129.049 147.32 129.079 147.051 129.079 146.812C129.079 145.795 128.84 145.287 128.332 145.287C127.285 145.287 126.239 145.975 125.222 147.32C124.206 148.695 123.398 150.4 122.83 152.492C122.83 152.911 122.77 153.479 122.681 154.167C122.621 154.735 122.591 155.303 122.591 155.841C122.591 156.379 122.561 156.738 122.471 157.456C122.382 158.173 122.352 158.711 122.352 159.07C122.352 159.788 122.113 160.386 121.634 160.864C121.156 161.342 120.528 161.582 119.781 161.582C119.033 161.582 118.435 161.342 117.957 160.864C117.478 160.386 117.239 159.788 117.239 159.07C117.239 158.353 117.209 158.173 117.12 157.486C117.06 156.768 117 156.23 117 155.901C117 154.705 117.09 153.001 117.269 150.878C117.449 148.725 117.538 147.051 117.538 145.825C117.538 144.599 117.538 144.898 117.478 144.151C117.419 143.403 117.419 142.835 117.419 142.476C117.419 141.759 117.658 141.191 118.166 140.742C118.674 140.294 119.272 140.055 120.02 140.055C121.634 140.055 122.501 141.011 122.621 142.955V143.164C124.445 141.34 126.358 140.443 128.361 140.443C130.365 140.443 132.308 141.43 133.205 143.373C133.803 144.689 134.102 146.632 134.102 149.234V150.549C134.102 151.117 134.102 151.506 134.102 151.745C134.102 152.702 134.222 153.958 134.491 155.482C134.76 157.007 134.879 158.233 134.879 159.19C134.879 160.147 134.64 160.446 134.132 160.924C133.624 161.372 133.026 161.612 132.308 161.612L132.218 161.522Z" stroke="#F34D08" stroke-width="10" stroke-miterlimit="7.1" mask="url(#path-13-outside-4_3989_1819)"/>
<mask id="path-14-outside-5_3989_1819" maskUnits="userSpaceOnUse" x="136" y="127.43" width="17" height="39" fill="black">
<rect fill="white" x="136" y="127.43" width="17" height="39"/>
<path d="M146.083 151.505C146.083 152.223 146.083 153.329 146.143 154.884C146.172 156.438 146.202 157.574 146.202 158.262C146.202 158.95 145.963 159.578 145.485 160.026C145.006 160.475 144.379 160.714 143.661 160.714C142.943 160.714 142.316 160.475 141.837 160.026C141.359 159.578 141.12 158.98 141.12 158.262C141.12 157.544 141.12 156.438 141.06 154.884C141.03 153.329 141 152.193 141 151.505C141 150.399 141.06 149.023 141.179 147.379C141.299 145.735 141.359 144.359 141.359 143.253C141.359 142.147 141.598 141.937 142.076 141.489C142.555 141.04 143.183 140.801 143.9 140.801C144.618 140.801 145.246 141.04 145.724 141.489C146.202 141.937 146.442 142.535 146.442 143.253C146.442 144.359 146.382 145.735 146.262 147.379C146.143 149.023 146.083 150.399 146.083 151.505ZM144.498 137.931C143.721 137.931 143.033 137.662 142.435 137.124C141.867 136.586 141.568 135.958 141.568 135.18C141.568 134.403 141.867 133.775 142.435 133.237C143.003 132.699 143.691 132.43 144.498 132.43C145.305 132.43 145.963 132.699 146.531 133.237C147.099 133.775 147.398 134.403 147.398 135.18C147.398 135.958 147.099 136.586 146.531 137.124C145.963 137.662 145.275 137.931 144.498 137.931Z"/>
</mask>
<path d="M146.083 151.505C146.083 152.223 146.083 153.329 146.143 154.884C146.172 156.438 146.202 157.574 146.202 158.262C146.202 158.95 145.963 159.578 145.485 160.026C145.006 160.475 144.379 160.714 143.661 160.714C142.943 160.714 142.316 160.475 141.837 160.026C141.359 159.578 141.12 158.98 141.12 158.262C141.12 157.544 141.12 156.438 141.06 154.884C141.03 153.329 141 152.193 141 151.505C141 150.399 141.06 149.023 141.179 147.379C141.299 145.735 141.359 144.359 141.359 143.253C141.359 142.147 141.598 141.937 142.076 141.489C142.555 141.04 143.183 140.801 143.9 140.801C144.618 140.801 145.246 141.04 145.724 141.489C146.202 141.937 146.442 142.535 146.442 143.253C146.442 144.359 146.382 145.735 146.262 147.379C146.143 149.023 146.083 150.399 146.083 151.505ZM144.498 137.931C143.721 137.931 143.033 137.662 142.435 137.124C141.867 136.586 141.568 135.958 141.568 135.18C141.568 134.403 141.867 133.775 142.435 133.237C143.003 132.699 143.691 132.43 144.498 132.43C145.305 132.43 145.963 132.699 146.531 133.237C147.099 133.775 147.398 134.403 147.398 135.18C147.398 135.958 147.099 136.586 146.531 137.124C145.963 137.662 145.275 137.931 144.498 137.931Z" fill="#FFC805"/>
<path d="M146.083 151.505C146.083 152.223 146.083 153.329 146.143 154.884C146.172 156.438 146.202 157.574 146.202 158.262C146.202 158.95 145.963 159.578 145.485 160.026C145.006 160.475 144.379 160.714 143.661 160.714C142.943 160.714 142.316 160.475 141.837 160.026C141.359 159.578 141.12 158.98 141.12 158.262C141.12 157.544 141.12 156.438 141.06 154.884C141.03 153.329 141 152.193 141 151.505C141 150.399 141.06 149.023 141.179 147.379C141.299 145.735 141.359 144.359 141.359 143.253C141.359 142.147 141.598 141.937 142.076 141.489C142.555 141.04 143.183 140.801 143.9 140.801C144.618 140.801 145.246 141.04 145.724 141.489C146.202 141.937 146.442 142.535 146.442 143.253C146.442 144.359 146.382 145.735 146.262 147.379C146.143 149.023 146.083 150.399 146.083 151.505ZM144.498 137.931C143.721 137.931 143.033 137.662 142.435 137.124C141.867 136.586 141.568 135.958 141.568 135.18C141.568 134.403 141.867 133.775 142.435 133.237C143.003 132.699 143.691 132.43 144.498 132.43C145.305 132.43 145.963 132.699 146.531 133.237C147.099 133.775 147.398 134.403 147.398 135.18C147.398 135.958 147.099 136.586 146.531 137.124C145.963 137.662 145.275 137.931 144.498 137.931Z" stroke="#F34D08" stroke-width="10" stroke-miterlimit="7.1" mask="url(#path-14-outside-5_3989_1819)"/>
<mask id="path-15-outside-6_3989_1819" maskUnits="userSpaceOnUse" x="147" y="135.055" width="28" height="32" fill="black">
<rect fill="white" x="147" y="135.055" width="28" height="32"/>
<path d="M167.218 161.522C165.694 161.522 164.856 160.774 164.677 159.279C164.498 157.994 164.318 156.738 164.169 155.452C163.989 154.107 163.9 152.821 163.9 151.625C163.9 150.429 163.9 150.758 163.959 149.981C163.989 149.204 164.019 148.665 164.019 148.337C164.019 148.008 164.019 148.038 164.049 147.679C164.049 147.32 164.079 147.051 164.079 146.812C164.079 145.795 163.84 145.287 163.332 145.287C162.285 145.287 161.239 145.975 160.222 147.32C159.206 148.695 158.398 150.4 157.83 152.492C157.83 152.911 157.77 153.479 157.681 154.167C157.621 154.735 157.591 155.303 157.591 155.841C157.591 156.379 157.561 156.738 157.471 157.456C157.382 158.173 157.352 158.711 157.352 159.07C157.352 159.788 157.113 160.386 156.634 160.864C156.156 161.342 155.528 161.582 154.781 161.582C154.033 161.582 153.435 161.342 152.957 160.864C152.478 160.386 152.239 159.788 152.239 159.07C152.239 158.353 152.209 158.173 152.12 157.486C152.06 156.768 152 156.23 152 155.901C152 154.705 152.09 153.001 152.269 150.878C152.448 148.725 152.538 147.051 152.538 145.825C152.538 144.599 152.538 144.898 152.478 144.151C152.419 143.403 152.419 142.835 152.419 142.476C152.419 141.759 152.658 141.191 153.166 140.742C153.674 140.294 154.272 140.055 155.02 140.055C156.634 140.055 157.501 141.011 157.621 142.955V143.164C159.445 141.34 161.358 140.443 163.361 140.443C165.365 140.443 167.308 141.43 168.205 143.373C168.803 144.689 169.102 146.632 169.102 149.234V150.549C169.102 151.117 169.102 151.506 169.102 151.745C169.102 152.702 169.222 153.958 169.491 155.482C169.76 157.007 169.879 158.233 169.879 159.19C169.879 160.147 169.64 160.446 169.132 160.924C168.624 161.372 168.026 161.612 167.308 161.612L167.218 161.522Z"/>
</mask>
<path d="M167.218 161.522C165.694 161.522 164.856 160.774 164.677 159.279C164.498 157.994 164.318 156.738 164.169 155.452C163.989 154.107 163.9 152.821 163.9 151.625C163.9 150.429 163.9 150.758 163.959 149.981C163.989 149.204 164.019 148.665 164.019 148.337C164.019 148.008 164.019 148.038 164.049 147.679C164.049 147.32 164.079 147.051 164.079 146.812C164.079 145.795 163.84 145.287 163.332 145.287C162.285 145.287 161.239 145.975 160.222 147.32C159.206 148.695 158.398 150.4 157.83 152.492C157.83 152.911 157.77 153.479 157.681 154.167C157.621 154.735 157.591 155.303 157.591 155.841C157.591 156.379 157.561 156.738 157.471 157.456C157.382 158.173 157.352 158.711 157.352 159.07C157.352 159.788 157.113 160.386 156.634 160.864C156.156 161.342 155.528 161.582 154.781 161.582C154.033 161.582 153.435 161.342 152.957 160.864C152.478 160.386 152.239 159.788 152.239 159.07C152.239 158.353 152.209 158.173 152.12 157.486C152.06 156.768 152 156.23 152 155.901C152 154.705 152.09 153.001 152.269 150.878C152.448 148.725 152.538 147.051 152.538 145.825C152.538 144.599 152.538 144.898 152.478 144.151C152.419 143.403 152.419 142.835 152.419 142.476C152.419 141.759 152.658 141.191 153.166 140.742C153.674 140.294 154.272 140.055 155.02 140.055C156.634 140.055 157.501 141.011 157.621 142.955V143.164C159.445 141.34 161.358 140.443 163.361 140.443C165.365 140.443 167.308 141.43 168.205 143.373C168.803 144.689 169.102 146.632 169.102 149.234V150.549C169.102 151.117 169.102 151.506 169.102 151.745C169.102 152.702 169.222 153.958 169.491 155.482C169.76 157.007 169.879 158.233 169.879 159.19C169.879 160.147 169.64 160.446 169.132 160.924C168.624 161.372 168.026 161.612 167.308 161.612L167.218 161.522Z" fill="#FFC805"/>
<path d="M167.218 161.522C165.694 161.522 164.856 160.774 164.677 159.279C164.498 157.994 164.318 156.738 164.169 155.452C163.989 154.107 163.9 152.821 163.9 151.625C163.9 150.429 163.9 150.758 163.959 149.981C163.989 149.204 164.019 148.665 164.019 148.337C164.019 148.008 164.019 148.038 164.049 147.679C164.049 147.32 164.079 147.051 164.079 146.812C164.079 145.795 163.84 145.287 163.332 145.287C162.285 145.287 161.239 145.975 160.222 147.32C159.206 148.695 158.398 150.4 157.83 152.492C157.83 152.911 157.77 153.479 157.681 154.167C157.621 154.735 157.591 155.303 157.591 155.841C157.591 156.379 157.561 156.738 157.471 157.456C157.382 158.173 157.352 158.711 157.352 159.07C157.352 159.788 157.113 160.386 156.634 160.864C156.156 161.342 155.528 161.582 154.781 161.582C154.033 161.582 153.435 161.342 152.957 160.864C152.478 160.386 152.239 159.788 152.239 159.07C152.239 158.353 152.209 158.173 152.12 157.486C152.06 156.768 152 156.23 152 155.901C152 154.705 152.09 153.001 152.269 150.878C152.448 148.725 152.538 147.051 152.538 145.825C152.538 144.599 152.538 144.898 152.478 144.151C152.419 143.403 152.419 142.835 152.419 142.476C152.419 141.759 152.658 141.191 153.166 140.742C153.674 140.294 154.272 140.055 155.02 140.055C156.634 140.055 157.501 141.011 157.621 142.955V143.164C159.445 141.34 161.358 140.443 163.361 140.443C165.365 140.443 167.308 141.43 168.205 143.373C168.803 144.689 169.102 146.632 169.102 149.234V150.549C169.102 151.117 169.102 151.506 169.102 151.745C169.102 152.702 169.222 153.958 169.491 155.482C169.76 157.007 169.879 158.233 169.879 159.19C169.879 160.147 169.64 160.446 169.132 160.924C168.624 161.372 168.026 161.612 167.308 161.612L167.218 161.522Z" stroke="#F34D08" stroke-width="10" stroke-miterlimit="7.1" mask="url(#path-15-outside-6_3989_1819)"/>
<mask id="path-16-outside-7_3989_1819" maskUnits="userSpaceOnUse" x="171" y="135.672" width="30" height="40" fill="black">
<rect fill="white" x="171" y="135.672" width="30" height="40"/>
<path d="M194.717 148.535C194.208 151.435 193.879 154.485 193.79 157.714C193.67 161.691 193.012 164.591 191.786 166.415C190.172 168.836 187.302 170.032 183.206 170.032C179.109 170.032 176 169.076 176 167.192C176 165.308 176.209 165.966 176.658 165.548C177.076 165.129 177.644 164.92 178.362 164.92C179.08 164.92 179.707 165.009 180.754 165.249C181.8 165.458 182.697 165.577 183.505 165.577C185.358 165.577 186.704 165.009 187.571 163.903C188.408 162.797 188.916 161.063 189.066 158.671C188.438 159.299 187.72 159.807 186.943 160.106C186.166 160.405 185.299 160.584 184.342 160.584C181.89 160.584 179.887 159.777 178.362 158.192C176.837 156.608 176.06 154.545 176.06 152.063C176.06 149.582 177.076 145.994 179.139 143.901C181.262 141.748 184.132 140.672 187.75 140.672C191 140.672 189.903 140.821 190.74 141.091C190.74 141.091 192.265 141.808 192.773 142.376C194 143.172 195.135 143.482 195.135 145.157C195.135 146.831 195.016 147.13 194.746 148.595L194.717 148.535ZM187.511 144.828C185 144.672 183.804 145.515 182.638 146.891C181.591 148.147 181.083 149.761 181.083 151.734C181.083 153.708 181.352 154.306 181.92 155.053C182.488 155.801 183.295 156.159 184.431 156.159C185.568 156.159 186.465 155.561 187.481 154.395C188.438 153.289 189.006 152.183 189.126 151.107C189.365 149.911 189.634 148.087 189.933 145.575C189.514 145.336 189.096 145.157 188.677 145.007C188.258 144.888 187.87 144.828 187.481 144.828H187.511Z"/>
</mask>
<path d="M194.717 148.535C194.208 151.435 193.879 154.485 193.79 157.714C193.67 161.691 193.012 164.591 191.786 166.415C190.172 168.836 187.302 170.032 183.206 170.032C179.109 170.032 176 169.076 176 167.192C176 165.308 176.209 165.966 176.658 165.548C177.076 165.129 177.644 164.92 178.362 164.92C179.08 164.92 179.707 165.009 180.754 165.249C181.8 165.458 182.697 165.577 183.505 165.577C185.358 165.577 186.704 165.009 187.571 163.903C188.408 162.797 188.916 161.063 189.066 158.671C188.438 159.299 187.72 159.807 186.943 160.106C186.166 160.405 185.299 160.584 184.342 160.584C181.89 160.584 179.887 159.777 178.362 158.192C176.837 156.608 176.06 154.545 176.06 152.063C176.06 149.582 177.076 145.994 179.139 143.901C181.262 141.748 184.132 140.672 187.75 140.672C191 140.672 189.903 140.821 190.74 141.091C190.74 141.091 192.265 141.808 192.773 142.376C194 143.172 195.135 143.482 195.135 145.157C195.135 146.831 195.016 147.13 194.746 148.595L194.717 148.535ZM187.511 144.828C185 144.672 183.804 145.515 182.638 146.891C181.591 148.147 181.083 149.761 181.083 151.734C181.083 153.708 181.352 154.306 181.92 155.053C182.488 155.801 183.295 156.159 184.431 156.159C185.568 156.159 186.465 155.561 187.481 154.395C188.438 153.289 189.006 152.183 189.126 151.107C189.365 149.911 189.634 148.087 189.933 145.575C189.514 145.336 189.096 145.157 188.677 145.007C188.258 144.888 187.87 144.828 187.481 144.828H187.511Z" fill="#FFC805"/>
<path d="M194.717 148.535C194.208 151.435 193.879 154.485 193.79 157.714C193.67 161.691 193.012 164.591 191.786 166.415C190.172 168.836 187.302 170.032 183.206 170.032C179.109 170.032 176 169.076 176 167.192C176 165.308 176.209 165.966 176.658 165.548C177.076 165.129 177.644 164.92 178.362 164.92C179.08 164.92 179.707 165.009 180.754 165.249C181.8 165.458 182.697 165.577 183.505 165.577C185.358 165.577 186.704 165.009 187.571 163.903C188.408 162.797 188.916 161.063 189.066 158.671C188.438 159.299 187.72 159.807 186.943 160.106C186.166 160.405 185.299 160.584 184.342 160.584C181.89 160.584 179.887 159.777 178.362 158.192C176.837 156.608 176.06 154.545 176.06 152.063C176.06 149.582 177.076 145.994 179.139 143.901C181.262 141.748 184.132 140.672 187.75 140.672C191 140.672 189.903 140.821 190.74 141.091C190.74 141.091 192.265 141.808 192.773 142.376C194 143.172 195.135 143.482 195.135 145.157C195.135 146.831 195.016 147.13 194.746 148.595L194.717 148.535ZM187.511 144.828C185 144.672 183.804 145.515 182.638 146.891C181.591 148.147 181.083 149.761 181.083 151.734C181.083 153.708 181.352 154.306 181.92 155.053C182.488 155.801 183.295 156.159 184.431 156.159C185.568 156.159 186.465 155.561 187.481 154.395C188.438 153.289 189.006 152.183 189.126 151.107C189.365 149.911 189.634 148.087 189.933 145.575C189.514 145.336 189.096 145.157 188.677 145.007C188.258 144.888 187.87 144.828 187.481 144.828H187.511Z" stroke="#F34D08" stroke-width="10" stroke-miterlimit="7.1" stroke-linejoin="round" mask="url(#path-16-outside-7_3989_1819)"/>
<mask id="path-17-outside-8_3989_1819" maskUnits="userSpaceOnUse" x="19" y="126.672" width="30" height="41" fill="black">
<rect fill="white" x="19" y="126.672" width="30" height="41"/>
<path d="M42.1783 159.507C40.7132 160.135 38.4709 160.733 35.4212 161.242C32.6407 161.72 30.3385 161.959 28.5446 161.959C25.5248 161.959 24 160.644 24 157.983C24 158.192 24.1196 156.249 24.3588 152.122C24.6877 146.771 24.8371 140.791 24.8371 134.213C24.8371 133.656 25.0763 132.898 25.5547 132.419C26.0331 131.941 26.6609 131.672 27.4084 131.672C28.1559 131.672 28.7538 131.911 29.2621 132.419C29.7704 132.928 30.0096 133.526 30.0096 134.213C30.0096 140.791 29.8302 146.86 29.5013 152.421C29.3817 153.408 29.2621 154.933 29.1425 156.966C32.0726 156.906 35.8099 156.189 40.4143 154.813C40.6834 154.724 40.9823 154.694 41.2215 154.694C41.9989 154.694 42.6268 154.993 43.1052 155.531C43.5237 156.039 43.7629 156.607 43.7629 157.235C43.7629 158.312 43.2248 159.059 42.1484 159.537L42.1783 159.507Z"/>
</mask>
<path d="M42.1783 159.507C40.7132 160.135 38.4709 160.733 35.4212 161.242C32.6407 161.72 30.3385 161.959 28.5446 161.959C25.5248 161.959 24 160.644 24 157.983C24 158.192 24.1196 156.249 24.3588 152.122C24.6877 146.771 24.8371 140.791 24.8371 134.213C24.8371 133.656 25.0763 132.898 25.5547 132.419C26.0331 131.941 26.6609 131.672 27.4084 131.672C28.1559 131.672 28.7538 131.911 29.2621 132.419C29.7704 132.928 30.0096 133.526 30.0096 134.213C30.0096 140.791 29.8302 146.86 29.5013 152.421C29.3817 153.408 29.2621 154.933 29.1425 156.966C32.0726 156.906 35.8099 156.189 40.4143 154.813C40.6834 154.724 40.9823 154.694 41.2215 154.694C41.9989 154.694 42.6268 154.993 43.1052 155.531C43.5237 156.039 43.7629 156.607 43.7629 157.235C43.7629 158.312 43.2248 159.059 42.1484 159.537L42.1783 159.507Z" fill="#FFC805"/>
<path d="M42.1783 159.507C40.7132 160.135 38.4709 160.733 35.4212 161.242C32.6407 161.72 30.3385 161.959 28.5446 161.959C25.5248 161.959 24 160.644 24 157.983C24 158.192 24.1196 156.249 24.3588 152.122C24.6877 146.771 24.8371 140.791 24.8371 134.213C24.8371 133.656 25.0763 132.898 25.5547 132.419C26.0331 131.941 26.6609 131.672 27.4084 131.672C28.1559 131.672 28.7538 131.911 29.2621 132.419C29.7704 132.928 30.0096 133.526 30.0096 134.213C30.0096 140.791 29.8302 146.86 29.5013 152.421C29.3817 153.408 29.2621 154.933 29.1425 156.966C32.0726 156.906 35.8099 156.189 40.4143 154.813C40.6834 154.724 40.9823 154.694 41.2215 154.694C41.9989 154.694 42.6268 154.993 43.1052 155.531C43.5237 156.039 43.7629 156.607 43.7629 157.235C43.7629 158.312 43.2248 159.059 42.1484 159.537L42.1783 159.507Z" stroke="#F34D08" stroke-width="10" stroke-miterlimit="7.1" stroke-linejoin="round" mask="url(#path-17-outside-8_3989_1819)"/>
<path d="M18.4999 114.037C14.4934 114.037 11.1449 112.752 8.45398 110.151C5.61361 107.43 4.17847 103.812 4.17847 99.3572C4.17847 94.9023 5.46412 90.9856 8.0055 86.5905C10.9057 81.5974 14.2842 79.0859 18.1411 79.0859C21.998 79.0859 22.2372 79.654 24.7487 80.8201C27.8283 82.2552 29.3531 83.8996 29.3531 85.7533C29.3531 87.607 29.0541 87.6668 28.4262 88.4442C27.7685 89.2814 26.9313 89.7298 25.8849 89.7298C24.8384 89.7298 24.1507 89.2515 23.0744 88.2947C21.998 87.338 20.3237 86.8596 18.1411 86.8596C15.9585 86.8596 18.6494 89.969 17.0349 93.0785C15.4801 96.0982 11.2644 97.1746 11.2644 99.3572C11.2644 101.54 11.9521 103.244 13.3275 104.47C14.643 105.636 16.3472 106.234 18.4999 106.234C20.6526 106.234 21.2207 105.696 22.9548 104.649C24.6889 103.603 25.825 103.065 26.3034 103.065C27.2901 103.065 28.1272 103.453 28.8149 104.261C29.5025 105.068 29.8613 105.995 29.8613 107.011C29.8613 108.626 32.4326 112.423 29.3531 114.037C26.6024 115.473 20.2041 114.007 18.47 114.007L18.4999 114.037Z" stroke="#F34D08" stroke-width="8" stroke-miterlimit="7.1"/>
<path d="M42.7479 83.6835C44.0635 82.1886 45.4986 81.0823 47.0235 80.3349C48.5483 79.5874 50.1628 79.2286 51.8969 79.2286C55.0064 79.2286 57.2488 80.2153 58.5942 82.2185C59.6107 83.7134 60.2386 85.9857 60.4479 89.0653C60.5376 91.6066 60.6273 94.1779 60.7469 96.7193C61.0459 100.038 61.2253 102.071 61.2851 102.789C61.5242 105.091 61.8532 107.094 62.2119 108.798C62.3016 109.247 62.3614 109.606 62.3614 109.934C62.3614 111.101 61.9727 112.057 61.1953 112.805C60.418 113.552 59.5211 113.941 58.4746 113.941C56.6508 113.941 55.4548 112.894 54.9166 110.831C54.4682 109.157 54.0795 106.795 53.7207 103.745C53.3918 100.815 53.2424 98.4235 53.2424 96.5399C53.2424 94.6563 53.2424 95.2543 53.3022 94.2078C53.3321 93.1614 53.3619 92.384 53.3619 91.8757C53.3619 90.3509 53.362 89.4539 53.3022 89.2148C53.1527 88.0786 52.6743 87.5105 51.8969 87.5105C49.8937 87.5105 48.6679 109.486 47.0235 111.609C46.1863 112.655 44.4522 93.7294 42.9871 96.6894C42.9871 104.194 42.6583 108.679 42.0304 110.233C41.3128 111.938 40.2066 112.775 38.6519 112.775C37.0971 112.775 36.7383 112.386 35.9311 111.609C35.1238 110.831 34.7351 109.875 34.7351 108.739C34.7351 107.602 34.8248 107.812 35.0341 107.094C35.1537 106.646 35.2733 103.835 35.363 98.7225C35.2733 94.5666 35.3032 87.6301 35.4228 77.9729L35.4826 76.9563C35.6022 74.5047 35.6321 72.8901 35.6321 72.053C35.6321 71.2158 35.5424 70.4683 35.363 69.2126C35.1836 67.9569 35.0939 67.03 35.0939 66.3722C35.0939 65.2062 35.4527 64.2195 36.2002 63.4721C36.9476 62.7246 37.8446 62.3359 38.8911 62.3359C40.685 62.3359 41.9108 63.4422 42.5087 65.6248C42.8675 66.8805 43.017 68.7641 43.017 71.3354C43.017 73.9067 42.9572 75.4913 42.8675 77.644C42.7479 79.6771 42.718 81.6803 42.718 83.6536L42.7479 83.6835Z" stroke="#F34D08" stroke-width="8" stroke-miterlimit="7.1"/>
<path d="M75.3965 97.5397C75.3965 98.7058 75.4264 100.619 75.4862 103.22C75.546 105.822 75.5759 107.735 75.5759 108.901C75.5759 110.067 75.2171 111.084 74.4995 111.861C73.782 112.638 72.885 113.027 71.8087 113.027C70.7323 113.027 69.8354 112.638 69.1178 111.861C68.4002 111.084 68.0415 110.097 68.0415 108.901C68.0415 107.705 68.0116 105.822 67.9518 103.22C67.892 100.619 67.8621 98.7058 67.8621 97.5397C67.8621 95.686 67.9517 93.3838 68.1311 90.6331C68.3105 87.8825 68.4002 85.5504 68.4002 83.7266C68.4002 81.9027 68.759 81.544 69.4766 80.7666C70.1941 79.9892 71.0911 79.6006 72.1674 79.6006C73.2438 79.6006 74.1407 79.9892 74.8583 80.7666C75.5759 81.544 75.9347 82.5306 75.9347 83.7266C75.9347 85.5803 75.845 87.8825 75.6656 90.6331C75.4862 93.3838 75.3965 95.7159 75.3965 97.5397ZM73.0943 73.4415C71.9283 73.4415 70.9117 74.3384 70.0745 73.4415C69.2075 72.5445 68.7889 71.4681 68.7889 70.1825C68.7889 68.8969 69.2075 67.8205 70.0745 66.9236C70.9416 66.0266 71.9283 65.5781 73.0943 65.5781C74.2604 65.5781 75.247 66.0266 76.1141 66.9236C76.9513 67.8205 77.3698 68.8969 77.3698 70.1825C75.9849 70.7132 76.9513 72.5445 76.1141 73.4415C74.8583 73.4415 73.7969 70.1825 73.0943 73.4415Z" stroke="#F34D08" stroke-width="8" stroke-miterlimit="7.1"/>
<path d="M89.5694 84.6121C92.3201 80.9944 94.9212 79.1706 97.3729 79.1706C99.8246 79.1706 102.216 80.3665 103.532 82.7883C104.638 81.682 105.864 80.8449 107.21 80.2768C108.555 79.7087 110.02 79.4397 111.575 79.4397C115.133 79.4397 117.554 81.4429 118.81 85.4792C119.049 86.3163 119.468 89.0969 119.976 93.8807C120.485 97.2293 121.142 102.82 121.95 110.654C122.009 111.82 121.68 112.806 120.873 113.584C120.096 114.361 119.169 114.72 118.123 114.72C116.03 114.72 114.804 113.554 114.445 111.192C114.116 109.069 113.787 106.049 113.428 102.163C113.07 97.8871 112.771 94.8673 112.531 93.1033C112.053 89.3959 111.425 87.5422 110.648 87.5422C109.871 87.5422 109.273 88.0205 107.778 88.9773C106.283 89.9341 105.206 90.7413 104.519 91.429C104.519 93.791 104.758 97.1695 105.266 101.594C105.774 106.139 106.043 109.518 106.043 111.76C106.043 114.002 105.685 113.913 104.967 114.72C104.25 115.497 103.353 115.886 102.276 115.886C101.2 115.886 100.303 115.497 99.5854 114.72C98.8679 113.943 98.5091 112.956 98.5091 111.76C98.5091 109.398 98.2998 105.93 97.8513 101.355C97.4028 96.7808 97.1935 93.3126 97.1935 90.9506C97.1935 88.5886 97.1039 88.5587 96.8946 87.7814C94.7718 89.1567 92.6788 91.4888 90.556 94.6879C90.4663 94.8374 90.3168 95.0467 90.1075 95.3457C90.0477 99.5315 89.988 102.79 89.988 105.182C89.988 107.574 89.988 106.558 89.9282 107.514C89.8684 108.471 89.8684 109.219 89.8684 109.697C89.8684 110.803 89.4797 111.7 88.6725 112.328C87.9549 112.926 87.0579 113.225 85.9816 113.225C84.4269 113.225 83.3804 112.448 82.8422 110.923C82.4536 109.876 82.2741 108.232 82.2741 105.99V94.4487C82.2741 93.4023 82.2442 91.9074 82.1546 89.9042C82.0948 87.9009 82.0349 86.406 82.0349 85.3596C82.0349 83.5059 82.3339 81.8614 82.902 80.3665C83.6196 78.5128 84.6062 77.5859 85.8919 77.5859C87.1775 77.5859 87.8053 78.0344 88.6126 78.9314C89.4199 79.8283 89.8085 80.815 89.8085 81.8913C89.8085 81.4429 89.7189 82.3398 89.5694 84.5523V84.6121Z" stroke="#F34D08" stroke-width="8" stroke-miterlimit="7.1"/>
<path d="M138.454 113.9C136.899 113.9 135.255 113.691 133.521 113.273V125.95C133.521 127.145 133.132 128.132 132.444 128.939C131.727 129.717 130.83 130.105 129.754 130.105C128.677 130.105 127.78 129.717 127.063 128.939C126.345 128.162 125.986 127.145 125.986 125.95C125.986 124.754 125.986 121.106 126.046 114.379C126.076 109.386 126.076 105.29 126.046 102.12C125.986 97.6654 125.867 93.8085 125.658 90.5795C125.388 86.1246 125.239 84.0915 125.239 84.4802C125.239 82.776 125.568 81.281 126.255 80.0851C127.033 78.7098 128.079 77.9922 129.425 77.9922C130.77 77.9922 131.308 78.3809 131.996 79.1582C132.684 79.9356 133.042 80.8924 133.042 81.9687L122.249 85.9751C123.445 85.1977 135.464 80.8923 136.69 80.5037C137.916 80.115 139.142 79.9356 140.398 79.9356C144.583 79.9356 147.633 81.9388 149.546 85.9751C150.982 89.0248 151.699 92.9714 151.699 97.785C151.699 102.599 150.563 106.067 148.291 109.057C145.869 112.256 142.61 113.87 138.514 113.87L138.454 113.9ZM140.338 88.2474C139.202 88.2474 138.035 88.5464 136.84 89.1743C135.644 89.7722 134.478 90.6991 133.282 91.9249C133.491 96.2004 133.61 100.446 133.61 104.751C135.225 105.349 136.84 105.648 138.454 105.648C140.069 105.648 141.773 104.901 142.759 103.376C143.656 102.001 144.135 100.177 144.135 97.8448C144.135 95.5128 144.015 93.1209 143.806 92.0445C143.268 89.533 142.132 88.2474 140.338 88.2474Z" stroke="#F34D08" stroke-width="8" stroke-miterlimit="7.1"/>
<path d="M164.106 107.51C164.106 111.457 162.85 113.4 160.339 113.4C157.827 113.4 158.365 113.011 157.648 112.234C156.93 111.457 156.572 110.44 156.572 109.184V66.2798C156.572 65.0839 156.96 64.0973 157.708 63.3199C158.425 62.6023 159.322 62.2734 160.399 62.2734C161.475 62.2734 162.342 62.6322 163.03 63.3797C163.717 64.1271 164.076 65.0839 164.076 66.2798V107.51H164.106Z" stroke="#F34D08" stroke-width="8" stroke-miterlimit="7.1"/>
<path d="M184.737 113.526C180.402 113.526 176.844 112.36 174.093 109.998C171.043 107.397 169.519 103.719 169.519 98.9955C169.519 94.2715 170.715 89.3383 173.136 85.7206C175.827 81.7141 179.445 79.7109 184.019 79.7109C188.594 79.7109 189.79 80.279 191.883 81.4451C194.633 82.9699 196.009 85.3618 196.009 88.5908C196.009 91.8199 194.902 92.8962 192.66 94.6303C191.643 95.4376 189.61 96.6036 186.531 98.1584L177.352 102.793C178.219 103.869 179.266 104.676 180.521 105.214C181.777 105.753 183.182 106.022 184.767 106.022C187.189 106.022 189.252 105.454 190.956 104.317C192.451 103.301 193.677 102.793 194.574 102.793C196.457 102.793 197.414 103.839 197.414 105.932C197.414 108.025 195.889 110.207 192.869 111.702C190.328 112.958 187.637 113.556 184.767 113.556L184.737 113.526ZM183.989 87.1557C182.285 87.1557 180.85 87.7835 179.654 89.0692C178.458 90.3548 177.501 92.2683 176.754 94.8396C178.817 93.8231 180.85 92.8364 182.883 91.8199C185.335 90.5641 187.278 89.3981 188.743 88.3217C187.518 87.5444 185.933 87.1557 183.989 87.1557Z" stroke="#F34D08" stroke-width="8" stroke-miterlimit="7.1"/>
<path d="M17.9027 113.05C14.1953 113.05 11.026 111.824 8.51456 109.432C5.85359 106.891 4.50818 103.483 4.50818 99.3566C4.50818 95.2306 5.70406 91.6428 8.03615 87.6364C10.727 82.9722 13.9561 80.6401 17.6037 80.6401C21.2513 80.6401 21.4307 81.1783 23.7628 82.2547C26.7228 83.63 28.1878 85.2744 28.1878 87.158C28.1878 89.0416 27.859 89.1014 27.2311 89.9087C26.5434 90.8057 25.6465 91.2541 24.5402 91.2541C23.434 91.2541 22.7762 90.7757 21.6699 89.819C20.773 89.0416 19.3976 88.653 17.5439 88.653C15.6902 88.653 15.6005 89.3406 13.8963 92.5996C12.521 95.2306 11.8333 97.5029 11.8333 99.3865C11.8333 101.27 12.4014 102.586 13.5375 103.602C14.6139 104.559 16.0789 105.067 17.8429 105.067C19.6069 105.067 20.1152 104.619 21.6102 103.722C23.8226 102.406 24.5103 102.227 24.899 102.227C25.9454 102.227 26.8125 102.645 27.5599 103.483C28.2775 104.29 28.6363 105.247 28.6363 106.293C28.6363 107.967 27.1712 109.552 24.1814 111.107C21.6101 112.452 19.5471 113.08 17.8728 113.08L17.9027 113.05Z" fill="#FFC805"/>
<path d="M17.574 81.0854C19.2782 81.0854 21.2515 81.5937 23.5238 82.6401C26.2745 83.9258 27.6797 85.3908 27.6797 87.0651C27.6797 88.7394 27.4106 88.7992 26.8426 89.4869C26.2446 90.2643 25.4971 90.623 24.5702 90.623C23.6434 90.623 23.0155 90.2045 22.0289 89.3374C21.0422 88.4704 19.5473 88.0518 17.574 88.0518C15.6007 88.0518 14.9429 89.457 13.4779 92.2675C12.0727 94.9882 11.3551 97.3203 11.3551 99.2936C11.3551 101.267 11.9829 102.792 13.2088 103.898C14.3748 104.944 15.9296 105.483 17.873 105.483C19.8164 105.483 20.2947 105.004 21.8794 104.048C23.464 103.091 24.4806 102.612 24.8991 102.612C25.7961 102.612 26.5435 102.971 27.1714 103.689C27.7993 104.406 28.1282 105.243 28.1282 106.17C28.1282 107.635 26.7528 109.07 23.9723 110.536C21.4907 111.821 19.4576 112.449 17.9028 112.449C14.315 112.449 11.2953 111.283 8.84363 108.951C6.27235 106.499 4.98667 103.24 4.98667 99.2338C4.98667 95.2274 6.15274 91.6994 8.45493 87.7528C11.0561 83.2381 14.1058 80.9957 17.574 80.9957M17.574 80.0688C13.747 80.0688 10.3684 82.5205 7.58783 87.3342C5.19594 91.4303 4 95.4666 4 99.3235C4 103.18 5.40528 107.127 8.15595 109.788C10.787 112.3 14.0459 113.555 17.9028 113.555C21.7598 113.555 21.7897 112.897 24.4507 111.522C27.6199 109.848 29.1747 108.144 29.1747 106.26C29.1747 104.376 28.786 104.018 27.9787 103.121C27.1416 102.164 26.1249 101.686 24.929 101.686C23.7331 101.686 23.7032 101.865 21.401 103.24C19.9958 104.077 18.7998 104.526 17.9028 104.526C16.2285 104.526 14.913 104.077 13.9264 103.21C12.9098 102.283 12.4015 101.028 12.4015 99.3534C12.4015 97.6791 13.0593 95.347 14.4047 92.7757C15.6007 90.4736 16.7966 89.0982 17.6039 89.0982C19.3081 89.0982 20.5937 89.457 21.3711 90.1447C22.567 91.1911 23.6135 91.6994 24.5702 91.6994C25.527 91.6994 26.8724 91.1612 27.6498 90.1447C28.3375 89.2776 28.6963 88.2312 28.6963 87.095C28.6963 85.0021 27.1116 83.1783 23.9723 81.7432C21.5804 80.6369 19.4277 80.0987 17.574 80.0987V80.0688Z" fill="#FFC805"/>
<path d="M56.8601 113.014C55.5446 113.014 53.8404 112.476 53.1527 109.845C52.7641 108.32 52.3754 106.168 52.0465 103.417C51.7475 100.786 51.598 98.5733 51.598 96.8691C51.598 95.1649 51.598 95.6731 51.6578 94.7463C51.6877 93.7895 51.7176 93.1019 51.7176 92.6534C51.7176 90.8894 51.7176 90.4409 51.6877 90.3213C51.5382 89.2151 51.0897 89.2151 50.9104 89.2151C49.236 89.2151 47.771 90.0821 46.3956 91.876C46.2461 92.0554 46.1266 92.2348 45.9771 92.474C44.3626 94.8958 43.4656 97.766 43.4058 100.786C43.3161 105.36 43.0171 108.171 42.5388 109.337C41.8212 111.071 40.6253 111.938 39.0406 111.938C37.456 111.938 37.0374 111.549 36.2601 110.742C35.4528 109.935 35.0342 108.948 35.0342 107.782C35.0342 106.616 35.1239 106.855 35.3332 106.168C35.393 105.958 35.5126 104.703 35.6023 98.7527C35.5126 95.0453 35.5425 88.7666 35.6621 80.0661L35.7219 79.1093C35.8116 76.9267 35.8714 75.4617 35.8714 74.7142C35.8714 73.9668 35.7816 73.3389 35.6322 72.2327C35.4827 71.0965 35.3929 70.1996 35.3929 69.6016C35.3929 68.4056 35.7817 67.419 36.559 66.6416C37.3364 65.8643 38.2633 65.4756 39.3396 65.4756C40.416 65.4756 42.3295 66.0437 43.0769 68.7943C43.4058 69.9604 43.5553 71.6945 43.5553 74.0565C43.5553 76.4185 43.4955 77.8237 43.4058 79.7372C43.346 81.1125 43.2862 82.4879 43.2563 83.8632C44.2429 82.9364 45.2595 82.1889 46.3658 81.6806C47.8009 80.9929 49.3556 80.6342 50.9701 80.6342C53.9301 80.6342 56.1127 81.6208 57.4283 83.5343C58.385 84.9396 58.983 87.0923 59.1922 89.9625C59.2819 92.2348 59.3716 94.5669 59.4613 96.8691C59.7304 99.8589 59.8799 101.683 59.9397 102.311C60.1789 104.344 60.448 106.138 60.7769 107.662C60.8666 108.081 60.8964 108.47 60.8964 108.799C60.8964 109.965 60.5078 110.981 59.7005 111.759C58.9231 112.536 57.9664 112.925 56.9199 112.925L56.8601 113.014Z" fill="#FFC805"/>
<path d="M39.2793 66.0424C40.8938 66.0424 41.9702 67.0291 42.5383 69.0024C42.8373 70.1086 43.0166 71.8428 43.0166 74.1449C43.0166 76.4471 42.9568 77.8823 42.8672 79.8257C42.7775 81.6495 42.7177 83.4434 42.7177 85.2373C43.9136 83.8919 45.1993 82.9052 46.5447 82.2475C47.92 81.5897 49.3552 81.2608 50.9099 81.2608C53.6905 81.2608 55.7236 82.1578 56.9494 83.9517C57.8763 85.2971 58.4145 87.3601 58.6238 90.1108C58.7135 92.413 58.8031 94.6853 58.8928 97.0174C59.1619 100.007 59.3114 101.831 59.3712 102.489C59.6104 104.552 59.8794 106.346 60.2083 107.9C60.298 108.289 60.328 108.648 60.328 108.947C60.328 109.993 59.9692 110.86 59.2815 111.518C58.5938 112.176 57.7866 112.535 56.8298 112.535C55.1854 112.535 54.109 111.608 53.6306 109.754C53.242 108.259 52.8832 106.136 52.5543 103.386C52.2554 100.755 52.1059 98.602 52.1059 96.8978C52.1059 95.1935 52.1058 95.7317 52.1656 94.775C52.2254 93.8182 52.2254 93.1305 52.2254 92.6522C52.2254 91.2768 52.2254 90.4696 52.1656 90.2603C52.0161 89.2437 51.5976 88.7355 50.88 88.7355C49.0562 88.7355 47.4118 89.6922 45.9467 91.5758C45.7972 91.7552 45.6477 91.9645 45.4982 92.2037C43.794 94.7451 42.8971 97.7349 42.8373 100.814C42.7476 105.299 42.4785 108.08 42.0301 109.186C41.4022 110.711 40.3856 111.488 38.9803 111.488C37.5751 111.488 37.2462 111.129 36.5287 110.442C35.8111 109.754 35.4524 108.887 35.4524 107.871C35.4524 106.854 35.542 107.033 35.7214 106.406C35.841 105.987 35.9307 103.475 36.0204 98.8711C35.9307 95.1338 35.9606 88.9148 36.0802 80.1845L36.14 79.2576C36.2297 77.075 36.2895 75.5801 36.2895 74.8326C36.2895 74.0851 36.1998 73.3975 36.0503 72.2912C35.9008 71.1551 35.8111 70.3179 35.8111 69.7499C35.8111 68.7034 36.14 67.8064 36.8277 67.1487C37.4854 66.461 38.2927 66.1321 39.2495 66.1321M39.2793 65.0259C38.0535 65.0259 37.007 65.4744 36.14 66.3414C35.2729 67.2085 34.8544 68.3446 34.8544 69.6602C34.8544 70.9757 34.944 71.185 35.0935 72.351C35.243 73.4274 35.3029 74.2346 35.3029 74.7728C35.3029 75.311 35.2431 76.9554 35.1534 79.138L35.0935 80.0649C34.9739 88.7654 34.9739 95.0739 35.0337 98.8113C34.944 104.701 34.8245 105.867 34.7647 106.077C34.5554 106.794 34.4657 107.362 34.4657 107.811C34.4657 109.126 34.9141 110.233 35.841 111.129C36.7379 112.026 37.8143 112.475 38.9803 112.475C40.1464 112.475 41.9403 111.967 42.9569 109.545C43.2857 108.767 43.7342 107.003 43.8538 100.814C43.9136 97.8844 44.7807 95.1039 46.3653 92.7718C46.5148 92.5625 46.6344 92.3831 46.7839 92.2037C48.0695 90.5593 49.415 89.752 50.9099 89.752C52.4048 89.752 50.9697 89.752 50.9697 89.752C50.9697 89.752 51.1192 89.9613 51.179 90.4098C51.179 90.4696 51.2089 90.8582 51.2089 92.6522C51.2089 94.4461 51.2089 93.7883 51.1491 94.7152C51.1192 95.6719 51.0893 96.3895 51.0893 96.8679C51.0893 98.602 51.2388 100.814 51.5377 103.446C51.8666 106.226 52.2554 108.409 52.644 109.963C53.0626 111.578 54.139 113.521 56.8298 113.521C59.5207 113.521 59.1021 113.073 59.9692 112.206C60.8662 111.339 61.3146 110.203 61.3146 108.887C61.3146 107.572 61.2548 108.11 61.1651 107.661C60.8363 106.166 60.5671 104.372 60.3578 102.339C60.298 101.711 60.1187 99.8876 59.8795 96.9277C59.7898 94.6255 59.7001 92.3233 59.6104 90.051C59.4011 87.0312 58.8031 84.8486 57.7567 83.3537C56.3215 81.2907 54.0193 80.2144 50.88 80.2144C47.7406 80.2144 47.5613 80.5731 46.0664 81.3206C45.2591 81.7093 44.4817 82.2176 43.7343 82.8155C43.7343 81.8289 43.794 80.8422 43.8538 79.8556C43.9435 77.9122 44.0033 75.9987 44.0033 74.1449C44.0033 72.2912 43.8239 69.9591 43.4951 68.7333C43.0167 67.0291 41.9104 65.0259 39.2495 65.0259H39.2793Z" fill="#FFC805"/>
<path d="M71.6309 112.106C70.4948 112.106 69.5679 111.687 68.8204 110.88C68.1029 110.073 67.7441 109.086 67.7441 107.86C67.7441 106.635 67.7441 105.11 67.6544 102.778C67.5946 100.446 67.5647 98.7414 67.5647 97.665C67.5647 95.9907 67.6544 93.8978 67.8039 91.4162C67.9534 88.9346 68.0431 86.8716 68.0431 85.2272C68.0431 83.5828 68.4018 83.0147 69.1194 82.2074C69.8669 81.4002 70.7938 80.9816 71.9299 80.9816C73.0661 80.9816 73.9929 81.4002 74.7404 82.2074C75.4579 83.0147 75.8167 84.0014 75.8167 85.2272C75.8167 86.453 75.727 88.9944 75.5775 91.476C75.428 93.9576 75.3383 96.0206 75.3383 97.665C75.3383 99.3094 75.3383 100.446 75.428 102.748C75.4878 105.14 75.5177 106.814 75.5177 107.86C75.5177 108.907 75.1589 110.073 74.4414 110.88C73.6939 111.687 72.7671 112.106 71.6309 112.106ZM72.767 77.7227C71.5711 77.7227 70.5546 77.2742 69.6875 76.3772C68.8205 75.4803 68.4019 74.374 68.4019 73.0884C68.4019 71.8027 68.8504 70.6965 69.6875 69.7995C70.5546 68.9026 71.601 68.4541 72.767 68.4541C73.9331 68.4541 74.9795 68.9026 75.8466 69.7995C76.6837 70.6965 77.1322 71.8027 77.1322 73.0884C77.1322 74.374 76.7136 75.4803 75.8466 76.3772C74.9795 77.2742 73.963 77.7227 72.767 77.7227Z" fill="#FFC805"/>
<path d="M72.7665 68.9462C73.813 68.9462 74.71 69.3349 75.4873 70.1422C76.2348 70.9494 76.6235 71.9062 76.6235 73.0722C76.6235 74.2383 76.2348 75.195 75.4873 76.0023C74.7399 76.8096 73.813 77.1982 72.7665 77.1982C71.7201 77.1982 70.8232 76.8096 70.0458 76.0023C69.2685 75.195 68.8797 74.2383 68.8797 73.0722C68.8797 71.9062 69.2685 70.9494 70.0458 70.1422C70.8232 69.3349 71.7201 68.9462 72.7665 68.9462ZM71.9593 81.5036C72.946 81.5036 73.7532 81.8624 74.3811 82.5501C75.009 83.2378 75.3379 84.1347 75.3379 85.2111C75.3379 86.8555 75.2481 88.9484 75.0986 91.43C74.9492 93.9116 74.8594 96.0045 74.8594 97.6489C74.8594 99.2933 74.8595 100.4 74.9492 102.762C75.009 105.094 75.0389 106.798 75.0389 107.874C75.0389 108.951 74.71 109.847 74.0821 110.535C73.4543 111.223 72.647 111.582 71.6603 111.582C70.6737 111.582 69.8664 111.223 69.2386 110.535C68.6107 109.847 68.2818 108.951 68.2818 107.874C68.2818 106.798 68.2818 105.124 68.1921 102.762C68.1024 100.4 68.1024 98.7252 68.1024 97.6489C68.1024 96.0045 68.1921 93.9116 68.3416 91.43C68.4911 88.9484 68.5807 86.8555 68.5807 85.2111C68.5807 83.5666 68.9097 83.2378 69.5376 82.5501C70.1654 81.8624 70.9726 81.5036 71.9593 81.5036ZM72.7665 67.9297C71.451 67.9297 70.285 68.438 69.2984 69.4545C68.3416 70.4412 67.8632 71.667 67.8632 73.1021C67.8632 74.5373 68.3416 75.7332 69.2984 76.7498C70.2551 77.7663 71.4211 78.2746 72.7665 78.2746C74.112 78.2746 75.2481 77.7663 76.2049 76.7498C77.1616 75.7631 77.6102 74.5373 77.6102 73.132C77.6102 71.7268 77.1317 70.501 76.2049 69.5143C75.2481 68.4978 74.0821 67.9895 72.7665 67.9895V67.9297ZM71.9593 80.4871C70.6737 80.4871 69.6273 80.9655 68.7901 81.8624C67.9828 82.7594 67.5642 83.8656 67.5642 85.2111C67.5642 86.5565 67.4745 88.9185 67.325 91.3702C67.1456 93.8817 67.0858 95.9746 67.0858 97.6489C67.0858 99.3232 67.0858 100.459 67.1755 102.791C67.2353 105.124 67.2652 106.828 67.2652 107.874C67.2652 108.921 67.6838 110.326 68.4911 111.223C69.3283 112.15 70.4046 112.598 71.6603 112.598C72.9161 112.598 73.9924 112.12 74.8296 111.223C75.6369 110.326 76.0554 109.22 76.0554 107.874C76.0554 106.529 76.0554 105.124 75.9658 102.732C75.906 100.429 75.876 98.6953 75.876 97.6489C75.876 96.0343 75.9658 93.9414 76.1152 91.4898C76.2946 88.9783 76.3544 86.8555 76.3544 85.2111C76.3544 83.5666 75.9358 82.7594 75.1286 81.8624C74.2914 80.9356 73.215 80.4871 71.9593 80.4871Z" fill="#FFC805"/>
<path d="M101.5 114.751C100.363 114.751 99.4366 114.333 98.6892 113.525C97.9716 112.718 97.6128 111.731 97.6128 110.536C97.6128 108.443 97.4035 105.303 97.0148 101.207C96.6261 97.0812 96.4168 93.9119 96.4168 91.7891C96.4168 89.6663 96.387 90.354 96.2973 89.8158C94.6828 91.0416 93.0084 92.9552 91.364 95.4367C91.3042 95.5563 91.1846 95.7058 91.0351 95.9151C90.9753 99.5627 90.9454 102.493 90.9454 104.586C90.9454 106.679 90.9454 105.812 90.8856 106.708C90.8557 107.576 90.8258 108.233 90.8258 108.652C90.8258 109.818 90.4073 110.745 89.5701 111.432C88.8226 112.03 87.8957 112.359 86.8194 112.359C85.2347 112.359 84.0687 111.522 83.5305 109.967C83.1717 108.981 82.9924 107.456 82.9924 105.363V94.9883C82.9924 94.0913 82.9625 92.716 82.9027 90.922C82.8429 89.1281 82.813 87.7528 82.813 86.8259C82.813 85.1217 83.0821 83.5371 83.6202 82.1319C84.3378 80.2483 85.4142 79.2915 86.7895 79.2915C88.1648 79.2915 88.7927 79.7699 89.6299 80.6668C91.0949 82.2814 90.8258 83.7165 90.8258 83.7763C90.8258 83.7763 90.8258 83.9557 90.7361 84.4939C92.9187 81.9824 95.0714 80.6967 97.1045 80.6967C99.1376 80.6967 101.47 81.6834 102.755 83.6567C103.682 82.8195 104.669 82.1917 105.745 81.7432C107.001 81.205 108.406 80.9359 109.871 80.9359C113.31 80.9359 115.671 82.8793 116.867 86.7362C117.107 87.5136 117.465 90.0251 117.944 94.3903C118.392 97.3801 118.99 102.463 119.708 109.459C119.797 110.685 119.409 111.702 118.602 112.509C117.794 113.286 116.838 113.675 115.761 113.675C114.685 113.675 112.413 113.047 111.964 110.057C111.665 108.144 111.366 105.393 111.067 101.895C110.738 98.0977 110.469 95.347 110.26 93.7624C109.722 89.7859 109.154 89.2776 109.064 89.2178C108.944 89.2178 108.466 89.3374 106.792 90.4138C105.596 91.1911 104.699 91.8489 104.071 92.417C104.071 94.5099 104.31 97.4997 104.729 101.297C105.177 105.363 105.416 108.473 105.416 110.506C105.416 112.539 105.058 112.688 104.34 113.495C103.592 114.303 102.666 114.721 101.53 114.721L101.5 114.751Z" fill="#FFC805"/>
<path d="M86.7592 79.7966C87.6861 79.7966 88.4933 80.2151 89.2109 81.0224C90.5264 82.4575 90.2872 83.6834 90.2872 83.6834C90.2872 83.6834 90.2275 84.102 90.078 86.0753C92.5596 82.8163 94.8916 81.2018 97.0742 81.2018C99.2568 81.2018 101.439 82.2781 102.605 84.4607C103.592 83.4442 104.698 82.6967 105.924 82.1885C107.15 81.6802 108.436 81.441 109.841 81.441C113.04 81.441 115.223 83.2648 116.359 86.8825C116.598 87.63 116.927 90.1415 117.405 94.4469C117.854 97.4666 118.452 102.49 119.169 109.516C119.229 110.562 118.93 111.459 118.212 112.147C117.495 112.834 116.688 113.193 115.731 113.193C113.847 113.193 112.741 112.147 112.412 110.024C112.113 108.111 111.814 105.39 111.515 101.892C111.186 98.0646 110.917 95.3438 110.708 93.7293C110.26 90.4106 109.691 88.7362 109.004 88.7362C108.316 88.7362 107.778 89.1548 106.432 90.0219C105.087 90.8889 104.1 91.6065 103.502 92.2344C103.502 94.3572 103.712 97.4068 104.16 101.383C104.609 105.45 104.848 108.499 104.848 110.532C104.848 112.565 104.519 112.476 103.891 113.193C103.263 113.911 102.456 114.24 101.469 114.24C100.483 114.24 99.6754 113.881 99.0475 113.193C98.4197 112.476 98.0908 111.609 98.0908 110.532C98.0908 108.41 97.8815 105.3 97.4928 101.174C97.1042 97.048 96.8949 93.9386 96.8949 91.8158C96.8949 89.693 96.8051 89.6631 96.6257 88.9754C94.7421 90.2312 92.8287 92.2942 90.9151 95.1943C90.8255 95.3139 90.7058 95.5232 90.4965 95.7923C90.4367 99.5595 90.4068 102.49 90.4068 104.642C90.4068 106.795 90.4068 105.868 90.347 106.765C90.3171 107.662 90.2872 108.32 90.2872 108.738C90.2872 109.755 89.9284 110.532 89.2109 111.1C88.5531 111.639 87.7459 111.908 86.7891 111.908C85.4138 111.908 84.457 111.22 83.9786 109.845C83.6497 108.918 83.4704 107.423 83.4704 105.42V95.0448C83.4704 94.118 83.4404 92.7427 83.3806 90.9487C83.3208 89.1548 83.291 87.7795 83.291 86.8526C83.291 85.2082 83.5601 83.6834 84.0683 82.3678C84.6962 80.6935 85.5932 79.8564 86.7592 79.8564M86.7592 78.78C85.653 78.78 84.0982 79.3182 83.1116 81.9493C82.5435 83.3844 82.2744 85.0288 82.2744 86.7928C82.2744 88.5569 82.3043 89.1249 82.3641 90.9188C82.4239 92.7128 82.4538 94.0582 82.4538 94.985V105.36C82.4538 107.513 82.6332 109.097 83.0219 110.144C83.6497 111.938 84.9653 112.894 86.7891 112.894C88.6129 112.894 89.0315 112.536 89.8687 111.848C90.8255 111.07 91.3337 109.994 91.3337 108.679C91.3337 107.363 91.3337 107.602 91.3935 106.735C91.4234 105.838 91.4533 105.121 91.4533 104.582C91.4533 102.519 91.4832 99.6492 91.543 96.0614C91.6626 95.9119 91.7523 95.7923 91.8121 95.6727C93.1874 93.5798 94.5628 91.9653 95.9082 90.7693C95.9082 91.0683 95.9082 91.3972 95.9082 91.756C95.9082 93.9087 96.1175 97.0779 96.5062 101.234C96.8948 105.3 97.1041 108.41 97.1041 110.502C97.1041 112.595 97.5227 112.924 98.3299 113.851C99.1671 114.778 100.243 115.256 101.499 115.256C102.755 115.256 103.861 114.778 104.668 113.851C105.476 112.954 105.894 111.818 105.894 110.502C105.894 108.439 105.655 105.33 105.207 101.234C104.788 97.5862 104.579 94.6861 104.549 92.6231C105.117 92.1148 105.954 91.5168 107.03 90.8291C108.017 90.2013 108.555 89.9322 108.854 89.7827C109.034 90.1714 109.392 91.1879 109.751 93.7891C109.961 95.3737 110.23 98.0945 110.558 101.892C110.857 105.39 111.186 108.14 111.485 110.084C111.874 112.685 113.429 114.12 115.791 114.12C118.153 114.12 118.093 113.672 118.99 112.805C119.917 111.908 120.335 110.742 120.246 109.396V109.366C119.528 102.37 118.93 97.2872 118.482 94.2675C117.824 88.4074 117.555 87.0619 117.405 86.5237C116.777 84.5205 115.821 82.9957 114.595 81.9493C113.339 80.9028 111.754 80.3646 109.901 80.3646C108.047 80.3646 106.911 80.6337 105.595 81.2018C104.639 81.5905 103.712 82.1586 102.875 82.8462C101.499 81.0523 99.5857 80.1254 97.134 80.1254C94.6823 80.1254 93.307 81.0822 91.3636 83.0256C91.3038 82.3678 91.0048 81.3513 90.0182 80.2749C89.0913 79.2584 88.0149 78.7202 86.819 78.7202L86.7592 78.78Z" fill="#FFC805"/>
<path d="M129.753 127.519C128.616 127.519 127.69 127.1 126.942 126.293C126.225 125.486 125.866 124.469 125.866 123.273C125.866 122.077 125.866 118.788 125.926 112.868C125.955 108.384 125.955 104.676 125.926 101.836C125.866 97.8593 125.776 94.3612 125.597 91.4909C125.358 87.5443 125.238 86.0195 125.238 85.9896C125.238 85.87 125.118 83.1193 126.225 81.6842C127.032 80.3089 128.108 79.5913 129.484 79.5913C130.859 79.5913 131.457 80.0099 132.174 80.8171C132.743 81.4749 133.071 82.2224 133.191 83.0894C134.058 82.5812 134.955 82.1925 135.852 81.9234C136.988 81.5646 138.154 81.3852 139.32 81.3852C143.267 81.3852 146.197 83.3286 148.021 87.1257C149.336 89.9063 149.994 93.5838 149.994 97.9789C149.994 102.374 148.918 105.663 146.825 108.414C144.552 111.403 141.443 112.928 137.616 112.928C133.789 112.928 135.045 112.779 133.699 112.51V123.273C133.699 124.469 133.311 125.486 132.593 126.293C131.846 127.1 130.919 127.519 129.783 127.519H129.753ZM133.759 103.809C135.045 104.258 136.33 104.467 137.616 104.467C138.902 104.467 140.247 103.869 141.054 102.643C141.802 101.507 142.19 99.9223 142.19 97.949C142.19 95.9757 142.101 93.7632 141.921 92.8364C141.293 89.8465 139.799 89.8465 139.32 89.8465C138.363 89.8465 137.407 90.1156 136.42 90.6239C135.463 91.1322 134.477 91.8497 133.49 92.8364C133.669 96.4541 133.759 100.162 133.759 103.809Z" fill="#FFC805"/>
<path d="M129.485 80.102C130.412 80.102 131.159 80.4608 131.787 81.1485C132.415 81.866 132.714 82.7032 132.714 83.6898V83.9589C133.79 83.2414 134.897 82.7331 135.973 82.3743C137.079 82.0155 138.185 81.866 139.292 81.866C143.059 81.866 145.81 83.6898 147.514 87.3076C148.799 90.0582 149.457 93.5863 149.457 97.9515C149.457 102.317 148.441 105.396 146.407 108.087C144.225 110.957 141.295 112.422 137.617 112.422C133.94 112.422 134.747 112.243 133.192 111.854V123.246C133.192 124.322 132.834 125.219 132.206 125.937C131.578 126.654 130.771 126.983 129.784 126.983C128.797 126.983 127.99 126.624 127.362 125.937C126.734 125.219 126.405 124.322 126.405 123.246C126.405 122.169 126.405 118.91 126.465 112.841C126.495 108.326 126.495 104.649 126.465 101.808C126.405 97.802 126.316 94.3337 126.136 91.4336C125.897 87.4272 125.777 85.9322 125.777 85.9322C125.777 85.9322 125.658 83.2414 126.674 81.9557C127.362 80.7 128.319 80.0721 129.515 80.0721M137.617 104.978C139.292 104.978 140.607 104.29 141.504 102.945C142.311 101.719 142.73 100.074 142.73 97.9814C142.73 95.8885 142.64 93.7358 142.431 92.7491C141.953 90.4768 140.906 89.3407 139.322 89.3407C137.737 89.3407 137.259 89.6098 136.182 90.1778C135.106 90.716 134.059 91.5532 132.983 92.6594C133.192 96.4864 133.282 100.343 133.282 104.2C134.747 104.738 136.182 105.008 137.647 105.008M129.485 79.0854C128.409 79.0854 126.914 79.504 125.807 81.4175C124.611 82.9723 124.701 85.693 124.731 85.992V86.0219C124.731 86.0219 124.851 87.5766 125.09 91.4934C125.269 94.3636 125.389 97.8618 125.419 101.838C125.449 104.679 125.449 108.356 125.419 112.841C125.389 118.761 125.359 122.349 125.359 123.276C125.359 124.621 125.777 125.727 126.585 126.624C127.422 127.551 128.498 128.029 129.754 128.029C131.01 128.029 132.116 127.551 132.923 126.624C133.731 125.727 134.149 124.591 134.149 123.276V113.14C135.345 113.349 136.511 113.469 137.587 113.469C141.594 113.469 144.823 111.884 147.185 108.745C149.367 105.904 150.444 102.287 150.444 97.9814C150.444 93.676 149.756 89.7592 148.411 86.9189C146.497 82.9125 143.418 80.8794 139.262 80.8794C135.106 80.8794 136.84 81.0588 135.644 81.4474C134.926 81.6567 134.209 81.9557 133.521 82.3145C133.342 81.6567 132.983 81.0289 132.535 80.4907C131.727 79.5638 130.681 79.0854 129.455 79.0854H129.485ZM134 93.0481C134.897 92.181 135.794 91.5233 136.631 91.0748C137.528 90.5964 138.454 90.3572 139.292 90.3572C140.129 90.3572 140.876 90.3572 141.414 92.9584C141.594 93.8553 141.684 95.5297 141.684 97.9814C141.684 100.433 141.325 101.33 140.637 102.376C139.919 103.453 138.963 103.961 137.617 103.961C136.272 103.961 135.375 103.782 134.269 103.453C134.269 99.9846 134.179 96.4864 134 93.0481Z" fill="#FFC805"/>
<path d="M159.771 112.487C158.635 112.487 157.708 112.068 156.961 111.261C156.243 110.454 155.884 109.437 155.884 108.182V69.5825C155.884 68.3567 156.273 67.3701 157.05 66.5628C157.798 65.8452 158.755 65.4565 159.831 65.4565C160.907 65.4565 161.864 65.8452 162.582 66.6226C163.299 67.3701 163.658 68.3866 163.658 69.5825V106.687C163.658 109.348 162.97 112.487 159.771 112.487Z" fill="#FFC805"/>
<path d="M159.832 65.96C160.788 65.96 161.596 66.2889 162.224 66.9467C162.851 67.6044 163.15 68.4715 163.15 69.5479V106.652C163.15 110.18 162.014 111.944 159.772 111.944C157.529 111.944 157.978 111.585 157.35 110.898C156.722 110.18 156.393 109.283 156.393 108.147V69.5479C156.393 68.4715 156.722 67.5745 157.41 66.8869C158.068 66.259 158.875 65.9301 159.832 65.9301M159.832 64.9435C158.606 64.9435 157.529 65.3621 156.692 66.1693C155.825 67.0663 155.377 68.1725 155.377 69.5479V108.147C155.377 109.522 155.795 110.658 156.603 111.555C157.44 112.482 158.516 112.961 159.772 112.961C161.028 112.961 162.403 112.333 163.18 111.167C163.868 110.12 164.197 108.625 164.197 106.652V69.5479C164.197 68.2024 163.778 67.0962 163.001 66.2291C162.194 65.3621 161.117 64.9136 159.891 64.9136L159.832 64.9435Z" fill="#FFC805"/>
<path d="M184.169 112.573C180.163 112.573 176.814 111.467 174.243 109.254C171.402 106.833 169.937 103.364 169.937 98.9692C169.937 94.5741 171.073 90.0594 173.286 86.7407C175.797 83.0034 179.236 81.0898 183.481 81.0898C187.727 81.0898 188.863 81.628 190.806 82.7044C193.438 84.1694 194.783 86.4716 194.783 89.581C194.783 92.6905 193.707 93.7369 191.584 95.4113C190.627 96.1587 188.803 97.2351 185.993 98.6403L178.309 102.497C178.937 103.155 179.684 103.693 180.551 104.052C181.598 104.5 182.824 104.74 184.169 104.74C186.232 104.74 188.026 104.261 189.461 103.304C190.926 102.318 192.062 101.839 193.019 101.839C194.992 101.839 196.069 103.035 196.069 105.158C196.069 107.281 194.604 109.374 191.703 110.809C189.341 111.945 186.83 112.543 184.199 112.543L184.169 112.573ZM183.511 88.8635C182.136 88.8635 180.97 89.3717 179.983 90.4481C179.146 91.3451 178.428 92.6307 177.86 94.305C179.385 93.5575 180.88 92.8101 182.315 92.1224C184.139 91.1956 185.664 90.2986 186.86 89.4913C185.963 89.0728 184.827 88.8934 183.541 88.8934L183.511 88.8635Z" fill="#FFC805"/>
<path d="M183.511 81.5913C186.351 81.5913 188.713 82.0995 190.597 83.146C193.078 84.5213 194.304 86.674 194.304 89.5742C194.304 92.4743 193.288 93.4311 191.284 95.0157C190.357 95.7333 188.534 96.8096 185.783 98.185L177.531 102.341C178.308 103.298 179.265 104.045 180.371 104.523C181.478 105.002 182.763 105.241 184.198 105.241C186.381 105.241 188.235 104.733 189.759 103.716C191.105 102.819 192.211 102.341 193.018 102.341C194.723 102.341 195.56 103.268 195.56 105.151C195.56 107.035 194.184 109.008 191.464 110.354C189.161 111.46 186.74 112.028 184.168 112.028C180.252 112.028 177.053 110.982 174.571 108.859C171.82 106.527 170.445 103.208 170.445 98.9324C170.445 94.6569 171.521 90.2319 173.704 86.973C176.126 83.3553 179.385 81.5614 183.481 81.5614M177.023 95.2848C178.876 94.3879 180.7 93.461 182.524 92.564C184.737 91.4279 186.501 90.3814 187.786 89.3948C186.68 88.6772 185.275 88.3483 183.511 88.3483C181.747 88.3483 180.7 88.9164 179.624 90.0825C178.548 91.2485 177.68 92.9826 177.023 95.2848ZM183.511 80.5747C179.056 80.5747 175.498 82.548 172.897 86.4348C170.624 89.8433 169.458 94.059 169.458 98.9623C169.458 103.866 170.953 107.125 173.943 109.636C176.604 111.908 180.042 113.074 184.198 113.074C188.354 113.074 189.52 112.476 191.912 111.281C195.022 109.756 196.576 107.693 196.576 105.181C196.576 102.67 195.291 101.354 193.018 101.354C190.746 101.354 190.746 101.862 189.191 102.909C187.846 103.806 186.172 104.284 184.198 104.284C182.225 104.284 181.747 104.075 180.79 103.656C180.222 103.417 179.714 103.088 179.235 102.7L186.261 99.1716C189.102 97.7365 190.985 96.6601 191.942 95.8828C194.184 94.1188 195.35 91.996 195.35 89.634C195.35 87.272 193.915 83.8934 191.135 82.3088C189.102 81.1727 186.56 80.6046 183.541 80.6046L183.511 80.5747ZM178.817 93.2816C179.265 92.265 179.803 91.4279 180.371 90.8C181.268 89.8433 182.285 89.3948 183.541 89.3948C184.796 89.3948 185.095 89.4845 185.723 89.634C184.707 90.2917 183.481 90.9495 182.105 91.6671C181.059 92.1754 179.953 92.7135 178.846 93.2816H178.817Z" fill="#FFC805"/>
</svg>
