<svg width="31" height="32" viewBox="0 0 31 32" fill="none" xmlns="http://www.w3.org/2000/svg">
<circle cx="15.625" cy="16.0078" r="14.625" fill="white" stroke="#747775"/>
<path d="M9.26121 21.6496C8.89686 21.6496 8.59557 21.5305 8.35734 21.2923C8.11911 21.054 8 20.7527 8 20.3884V11.644C8 11.2797 8.11911 10.9784 8.35734 10.7402C8.59557 10.5019 8.89686 10.3828 9.26121 10.3828H21.3688C21.7331 10.3828 22.0344 10.5019 22.2727 10.7402C22.5109 10.9784 22.63 11.2797 22.63 11.644V20.3884C22.63 20.7527 22.5109 21.054 22.2727 21.2923C22.0344 21.5305 21.7331 21.6496 21.3688 21.6496H9.26121ZM15.315 15.8901L22 12.3828L21.5 11.8828H15.315H9L8.58856 12.3828L15.315 15.8901Z" fill="#F34D08"/>
</svg>
