<svg width="31" height="30" viewBox="0 0 31 30" fill="none" xmlns="http://www.w3.org/2000/svg">
<path d="M29.5187 15.1266C29.5187 7.25133 23.1346 0.867188 15.2594 0.867188C7.38414 0.867188 1 7.25133 1 15.1266C1 23.0018 7.38414 29.3859 15.2594 29.3859C23.1346 29.3859 29.5187 23.0018 29.5187 15.1266Z" fill="white"/>
<mask id="mask0_3527_107495" style="mask-type:luminance" maskUnits="userSpaceOnUse" x="8" y="7" width="15" height="16">
<path d="M22.7593 7.5H8.13428V22.125H22.7593V7.5Z" fill="white"/>
</mask>
<g mask="url(#mask0_3527_107495)">
<path d="M22.4668 14.9801C22.4668 14.4616 22.4203 13.9631 22.3338 13.4844H15.4468V16.313H19.3822C19.2127 17.2271 18.6975 18.0015 17.9231 18.5201V20.3548H20.2863C21.6691 19.0818 22.4668 17.2071 22.4668 14.9801Z" fill="#4285F4"/>
<path d="M15.4469 22.1263C17.4212 22.1263 19.0765 21.4714 20.2863 20.3547L17.9231 18.5199C17.2683 18.9586 16.4307 19.2178 15.4469 19.2178C13.5422 19.2178 11.9302 17.9315 11.3551 16.2031H8.91211V18.0977C10.1154 20.4876 12.5883 22.1263 15.4469 22.1263Z" fill="#34A853"/>
<path d="M11.3551 16.2046C11.2088 15.7658 11.1257 15.2972 11.1257 14.8152C11.1257 14.3333 11.2088 13.8646 11.3551 13.4258V11.5312H8.91203C8.41683 12.5184 8.13428 13.6353 8.13428 14.8152C8.13428 15.9952 8.41683 17.112 8.91203 18.0992L11.3551 16.2046Z" fill="#FBBC04"/>
<path d="M15.4469 10.4084C16.5204 10.4084 17.4843 10.7773 18.2422 11.5019L20.3396 9.40454C19.0732 8.2246 17.4179 7.5 15.4469 7.5C12.5883 7.5 10.1154 9.13866 8.91211 11.5285L11.3551 13.4231C11.9302 11.6947 13.5422 10.4084 15.4469 10.4084Z" fill="#E94235"/>
</g>
<path d="M29.5187 14.7594C29.5187 6.88414 23.1346 0.5 15.2594 0.5C7.38414 0.5 1 6.88414 1 14.7594C1 22.6346 7.38414 29.0187 15.2594 29.0187C23.1346 29.0187 29.5187 22.6346 29.5187 14.7594Z" stroke="#747775"/>
</svg>
