<svg width="47" height="6" viewBox="0 0 47 6" fill="none" xmlns="http://www.w3.org/2000/svg">
<path d="M0.447678 0.525424C0.711053 0.460293 1.05629 0.529934 1.31867 0.625522C1.4009 0.655168 1.35927 0.787688 1.41603 0.81412C1.52705 0.865646 1.63048 0.800652 1.74019 0.862032C1.77655 0.883023 1.73129 1.09294 1.76941 1.11014C1.97833 1.20291 2.17597 1.14944 2.38761 1.19406C3.43006 1.41421 4.45476 1.49301 5.50996 1.58865C5.85789 1.62001 6.28084 1.81051 6.64021 1.7272C6.68217 1.71729 6.65716 1.53304 6.66513 1.51785C6.79033 1.28537 6.7487 1.65734 6.83044 1.70676C7.15486 1.90188 7.51562 1.91886 7.82784 1.84775C7.96067 1.81696 7.82749 1.45099 7.96123 1.6564C7.97052 1.67028 7.93682 1.86594 7.97324 1.88681C8.05585 1.93375 8.21258 1.89877 8.2766 1.91428C8.39999 1.94514 8.4204 1.94317 8.53711 1.9454C8.69666 1.95015 8.88642 2.04741 9.0576 2.00308C9.09413 1.99304 9.04576 1.79246 9.10403 1.75833C9.16236 1.72425 9.31665 1.74126 9.36867 1.78854C9.4207 1.83585 9.39854 1.9935 9.40775 2.02963C9.4835 2.33462 9.66198 1.91221 9.68494 1.90176C10.1036 1.72377 10.4627 1.9644 10.8557 1.96371C11.1541 1.96268 11.4731 1.88324 11.757 1.89413C12.0952 1.90789 12.3819 2.01658 12.7105 1.99789C12.7452 1.99615 12.7045 1.76032 12.7469 1.75772C13.1968 1.73028 13.6437 1.75599 14.0917 1.91519C14.1367 1.93136 14.0788 2.13842 14.1236 2.16696C14.3985 2.33712 14.8334 2.74589 14.9966 1.84439C15.1828 1.87959 15.4088 1.91596 15.5754 2.09769C15.6828 2.21464 15.5785 2.44021 15.7104 2.34396C15.7401 2.32252 15.7014 2.12498 15.7461 2.10776C15.9339 2.03544 16.1391 2.09965 16.325 1.99759C16.3628 1.97636 16.3525 1.79936 16.3632 1.76749C16.4532 1.50935 16.603 1.93606 16.6357 1.96707C16.8844 2.19829 17.0661 2.1073 17.2978 2.11294C17.3516 2.11435 17.288 1.8766 17.3398 1.86941C17.6081 1.83534 17.8861 1.85577 18.1489 1.96127C18.2074 1.98531 18.1536 2.18783 18.1815 2.20968C18.3047 2.30356 18.332 1.92104 18.4501 2.00369C18.475 2.02062 18.461 2.194 18.4655 2.21304C18.5366 2.51194 18.5984 2.08842 18.6167 2.07907C18.848 1.95131 18.9958 2.39345 19.2193 2.33084C19.246 2.3229 19.1857 2.10353 19.2609 2.09463C19.7615 2.03407 20.2909 2.09434 20.7865 2.2698C20.8635 2.29679 20.8085 2.46159 20.8134 2.4819C20.8924 2.79932 20.9435 2.37402 20.9686 2.358C21.1668 2.2427 21.3519 2.59937 21.4866 2.0928C22.3259 2.2686 23.1614 1.98413 23.9938 2.43796C24.0044 2.44321 23.9854 2.65267 24.0065 2.66226C24.2608 2.77987 24.2119 2.45433 24.3802 2.05618C24.4226 1.9562 24.5515 2.4369 24.5629 2.47213C24.6044 2.60198 24.5613 2.9136 24.5752 2.93875C24.6904 3.13621 24.6716 2.10565 24.827 2.10531C24.8318 2.10703 24.8114 2.29672 24.8245 2.31558C24.865 2.37479 24.9051 2.29942 24.9448 2.36471C25.0355 2.5158 25.0678 3.01656 25.2064 2.72512C25.2239 2.6873 25.1971 2.10272 25.3358 2.13034C25.3911 2.14184 25.6358 2.13182 25.7044 2.16971C25.7729 2.20754 25.7259 2.39592 25.7308 2.40408C25.9154 2.65318 25.8454 2.75642 25.9379 3.12521C26.0303 3.49261 26.0047 2.61633 26.0424 2.51852C26.0801 2.42099 26.2155 2.62652 26.2487 2.69796C26.282 2.76944 26.2405 2.88914 26.2701 2.92959C26.4661 3.19386 26.3561 2.49464 26.4207 2.35556C26.5729 2.02624 26.6915 2.6761 26.8309 2.73977C26.8686 2.75697 26.8378 2.60896 26.8714 2.59512C27.0044 2.54226 27.0844 2.74503 27.2357 2.55911C27.2605 2.52881 27.3828 2.1381 27.462 2.42483C27.4732 2.46618 27.4414 2.62812 27.4981 2.66439C27.5827 2.71883 27.7353 2.75423 27.8263 2.7001C27.8935 2.66005 27.8165 2.39321 27.9011 2.4761C27.9387 2.51312 27.869 2.66922 27.9396 2.72573C28.0099 2.78223 28.1895 2.77538 28.2579 2.76999C28.3261 2.76448 28.2888 2.56206 28.2943 2.54843C28.3277 2.47032 28.4586 2.37271 28.4702 2.37295C29.0538 2.34824 29.5921 2.68943 30.1603 2.5765C30.2049 2.56794 30.1752 2.35449 30.182 2.35098C30.3347 2.26155 30.2143 2.82906 30.321 3.01901C30.3056 2.58586 30.3685 2.66429 30.4761 2.61679C30.5279 2.59354 30.4997 2.42583 30.5044 2.40866C30.5813 2.15392 30.6348 2.48295 30.6486 2.55026C30.6994 2.79786 30.7548 2.5053 30.7895 2.6708C30.8241 2.83507 30.7444 3.07858 30.8476 3.07547C30.8765 2.92041 30.7999 2.51522 30.8782 2.44955C31.1737 2.20115 31.7252 2.51907 31.9628 2.55209C32.1998 2.58509 32.2764 2.55648 32.4146 2.61252C32.6641 2.71383 32.5727 2.41321 32.7276 2.2756C32.883 2.13801 32.8075 2.8777 32.8298 3.03671C32.8517 3.19565 32.8757 3.03204 32.903 3.11941C32.9301 3.20676 32.8713 3.31488 32.9352 3.34768C32.9992 3.38045 33.1741 3.09769 33.1968 2.93142C33.2448 2.57918 33.1659 2.20948 33.3352 2.33938C33.345 2.34709 33.3134 2.54159 33.3507 2.56125C33.6468 2.71098 33.9544 2.72026 34.2502 2.85269C34.2908 2.8712 34.2545 3.08757 34.2781 3.10079C34.5246 3.23919 34.4365 2.87436 34.5716 2.46908C34.5413 3.00842 34.616 3.33839 34.8031 3.34158C34.9156 3.34368 34.8962 3.10812 34.9689 2.9421C34.9908 2.89206 35.0703 3.0538 35.0848 2.94302C35.1323 2.5809 35.0573 2.17553 35.2502 2.33694C35.2587 2.34461 35.2318 2.54283 35.261 2.55484C35.45 2.63341 35.4726 2.25464 35.677 2.20877C35.8371 2.17278 36.1219 2.40375 36.3043 2.44131C36.3005 3.04769 36.4727 2.90883 36.5426 2.49075C36.6609 2.50787 36.7887 2.48423 36.9031 2.54202C36.9425 2.56172 36.9166 2.73728 36.9216 2.75625C36.9977 3.05383 37.0492 2.64708 37.0747 2.63113C37.3516 2.47612 37.5771 2.7844 37.8414 2.48312C37.8507 2.47227 37.8659 2.05106 37.9366 2.35861C37.9411 2.37981 37.8539 2.57145 37.9782 2.58627C38.1025 2.60112 38.3368 2.82692 38.5094 2.63174C38.5512 2.58475 38.6568 2.24282 38.7416 2.50998C38.7529 2.54625 38.7405 2.66706 38.7568 2.73428C38.8095 2.94848 38.8383 2.52274 38.9002 2.88443C38.9622 3.24609 39.0911 3.51696 39.2651 3.26742C39.2706 3.26017 39.3119 2.92273 39.3666 2.92807C39.454 2.93687 39.578 3.00717 39.6692 3.00497C39.7129 3.0038 39.6849 2.79426 39.6925 2.79043C39.9862 2.67302 40.1953 2.85981 40.5099 2.94088C40.5676 2.95616 40.7334 2.67043 40.845 2.89633C40.9676 3.14361 40.8416 4.17228 41.1235 3.92721C41.2371 3.82918 41.381 2.52413 41.5853 3.20028C41.9815 3.03274 42.3479 3.37879 42.7451 3.13955C42.763 3.12895 42.8195 2.76472 42.8615 2.76968C42.9239 2.77774 42.9581 2.94798 43.0026 2.95919C43.1892 3.01047 43.3599 2.86482 43.5398 2.88748C43.6081 2.89571 43.5842 3.07173 43.6656 3.08157C43.747 3.09124 43.8013 2.85946 43.9116 2.9714C43.9949 3.05673 44.0782 3.53049 44.1888 3.58572C44.193 3.1184 44.269 3.12803 44.4039 3.00466C44.4299 2.98073 44.4021 2.81808 44.4143 2.79837C44.4643 2.71454 44.5105 2.84934 44.558 2.75808C44.5695 2.73617 44.57 2.57657 44.5795 2.54965C44.6597 2.31462 44.7918 2.67361 44.8145 2.73611C44.9015 2.97349 44.9422 2.76592 45.0089 2.8594C45.0755 2.95287 44.9759 3.06971 45.0537 3.12643C45.215 3.24375 45.4222 3.21797 45.586 3.22531C45.6514 3.22725 45.6068 3.01422 45.6161 3.00955C45.7513 2.95552 45.8879 3.18212 45.9629 2.75778C46.0566 3.85497 46.0444 2.65136 46.2376 2.871C46.2528 2.88876 46.2721 3.40762 46.2137 3.48379C46.1553 3.55989 46.0667 3.3977 45.9857 3.51644C45.9665 3.54431 45.8565 4.03051 45.8415 4.05996C45.724 4.29013 45.7073 3.51478 45.7011 3.47219C45.6306 3.01261 45.4963 3.5364 45.4609 3.5726C45.299 3.73843 45.1615 3.62939 45.0261 3.74777C44.9375 3.82427 44.9289 4.33216 44.8593 4.31661C44.6282 4.26523 44.5475 3.55672 44.3297 4.17104C44.283 4.30207 44.3294 4.85717 44.1621 4.42068C44.1516 4.39316 44.0273 3.99384 43.9555 4.24642C43.9465 4.27827 43.9468 4.44004 43.9349 4.45363C43.8552 4.54154 43.8021 4.41266 43.7153 4.47439C43.6285 4.53611 43.5241 4.62813 43.425 4.57326C43.3653 4.54045 43.2887 4.23904 43.2601 4.16524C43.1793 3.95266 43.0928 4.30121 43.0428 4.04378C42.9923 3.78507 43.0909 3.39216 42.9587 3.225C42.9538 3.64531 42.9425 4.07672 42.9347 4.49941C42.6448 4.48461 42.3597 4.3487 42.0689 4.36727C42.0328 4.36999 42.0697 4.59595 42.031 4.6047C41.868 4.64059 41.7255 4.47951 41.5564 4.54366C41.4255 4.59418 41.282 4.83342 41.1452 4.8937C41.0615 4.41274 40.8584 4.57602 40.7109 4.53206C40.6592 4.51688 40.6627 4.38842 40.6259 4.34652C40.4873 4.19153 40.5522 4.61655 40.5142 4.68343C40.3511 4.96889 40.3372 4.00689 40.1449 4.03066C40.1347 4.0316 40.0102 4.54438 39.993 4.57632C39.884 4.78454 39.975 4.39783 39.9068 4.35995C39.7823 4.29071 39.6957 4.16825 39.5496 4.31844C39.507 4.36293 39.4049 4.68254 39.3221 4.43532C39.3112 4.40295 39.3172 4.23346 39.3085 4.22353C39.1499 4.05807 39.1458 4.59065 39.0552 4.77102C38.9645 4.95135 38.8246 4.5837 38.7961 4.47774C38.7216 4.20363 38.8532 4.3606 38.8572 4.3337C38.9046 4.01358 38.8025 4.0687 38.7245 4.04165C38.7132 3.51945 38.6042 3.5508 38.6437 4.01571C38.6482 4.06649 38.7089 4.01779 38.7245 4.04165C38.6561 4.55399 38.5362 4.61961 38.4038 4.14083C38.3418 3.91643 38.4004 3.6548 38.2121 3.75051C38.1267 3.79372 38.1597 4.15328 38.0843 4.2513C37.912 4.47496 37.6882 4.13956 37.5106 4.19241C37.4461 4.21159 37.5089 4.40841 37.4648 4.42831C37.3479 4.48172 37.2448 4.33404 37.1274 4.40969C37.1168 4.41679 37.1428 4.62282 37.1063 4.62545C36.8295 4.64938 36.5885 4.51741 36.2994 4.51375C36.1598 4.51208 35.9102 4.62571 35.7655 4.60287C35.5148 4.56449 35.2064 4.26489 34.9922 4.33767C34.8526 4.38426 34.8832 4.59033 34.8233 4.73073C34.7079 5.0029 34.5034 4.51539 34.4759 4.4399C34.475 4.4374 34.5952 4.38882 34.5311 4.28304C34.4938 4.06263 34.4772 4.43895 34.4759 4.4399C34.4578 4.39114 34.2177 4.34436 34.17 4.38375C34.1441 4.40528 34.1586 4.60052 34.1451 4.60805C33.824 4.78278 33.5024 4.8324 33.1767 4.74111C33.171 4.73717 33.1796 4.51878 33.1662 4.51223C32.9776 4.41513 32.8569 4.68229 32.7014 4.8409C32.546 4.99945 32.4227 4.94635 32.3307 4.57143C32.2134 4.61864 32.0451 4.45289 31.9482 4.35232C31.8514 4.25175 31.8379 4.67686 31.8294 4.68526C31.5636 4.95425 31.41 4.71092 31.1343 4.67306C31.0032 4.65432 30.7431 4.71598 30.6012 4.76247C30.489 4.79992 30.4215 4.70029 30.3181 4.764C30.3041 4.7725 30.3183 4.96179 30.314 4.96907C30.1987 5.19554 30.2541 4.73281 30.2303 4.65017C30.1439 4.34964 30.0906 4.18958 29.9429 4.33095C29.9088 4.36333 29.8095 5.0296 29.7474 5.06856C29.6667 5.118 29.6972 4.87918 29.6126 4.93703C29.6054 4.94176 29.6069 5.0891 29.5547 5.0826C29.3125 5.05438 29.0484 4.96865 28.7967 4.98342C28.7623 4.98487 28.8063 5.21856 28.7567 5.22451C28.5236 5.25221 28.268 5.24356 28.0409 5.13417C27.985 5.10652 28.0201 4.94289 28.008 4.89431C27.9335 4.60035 27.8278 5.02746 27.8104 5.0356C27.3946 5.24086 27.0763 4.85432 26.6525 5.03835C26.6294 5.04915 26.4519 5.50703 26.3726 5.11434C26.3672 5.08821 26.2888 4.68644 26.2195 4.96114C26.2152 4.97833 26.2641 5.18516 26.1788 5.16408C26.0936 5.14305 25.9564 5.28117 25.8392 5.05391C25.8022 4.98232 25.7145 4.58155 25.6038 4.90102C25.5966 4.92332 25.4258 5.6457 25.3648 5.1473C25.355 5.06526 25.3653 4.53783 25.2332 4.80825C25.208 4.86067 25.2538 4.97832 25.1873 5.05178C25.0855 5.165 24.9506 5.02373 24.8254 5.25869C24.8035 5.30028 24.7106 5.65826 24.636 5.38655C24.6243 5.344 24.6465 5.16792 24.6072 5.14821C24.4199 5.05369 24.2239 5.17147 24.0338 5.04964C23.9665 5.00683 24.0009 4.72218 23.9307 4.64589C23.8605 4.56964 23.7191 4.49628 23.6456 4.62636C23.5722 4.7565 23.6524 5.21018 23.5423 5.24648C23.0639 5.40415 22.5899 5.13801 22.1121 5.09908C22.0413 5.09327 22.1 5.2556 21.9956 5.25869C21.6106 5.27076 20.9459 5.42297 20.6118 5.07802C20.3442 4.80174 20.681 4.5914 20.4765 4.47896C20.3778 4.42533 20.271 4.95278 20.2472 4.96938C20.0144 5.13806 19.8526 4.90441 19.6431 4.97609C19.5999 4.99097 19.6423 5.20475 19.6055 5.21505C19.4797 5.25212 19.3475 5.1567 19.2273 5.17415C19.1734 5.18247 19.1834 5.34575 19.1338 5.33315C19.015 5.30488 18.9101 5.23624 18.7944 5.08321C18.7838 5.06927 18.8549 4.86616 18.7671 4.8586C18.625 4.84695 18.4485 4.69599 18.285 4.85189C18.2365 4.89879 18.2346 5.27195 18.1303 5.01424C18.1084 4.96042 18.1363 4.51233 18.0148 4.8995C17.9944 4.96383 17.7903 5.48605 17.6901 5.14943C17.6637 5.06084 17.5962 4.69417 17.5379 4.75179C17.53 4.76099 17.5617 4.96143 17.5133 4.98098C17.3429 5.04639 17.1643 5.02501 16.9893 5.08779C16.9425 5.10495 17.0121 5.31236 16.9425 5.33132C16.7509 5.38374 16.5116 5.33093 16.3243 5.26601C16.2552 5.24168 16.3029 5.06986 16.2979 5.05117C16.2171 4.74704 16.1693 5.15754 16.1425 5.18148C15.9756 5.3248 15.8486 5.13197 15.6948 5.183C15.6523 5.19656 15.6824 5.39229 15.674 5.40975C15.5864 5.58027 15.6516 5.22877 15.5962 5.19002C15.4408 5.08031 15.2676 5.09604 15.1105 5.12105C15.0528 5.13053 15.1176 5.35748 15.0658 5.36336C14.7593 5.40247 14.4406 5.38075 14.1414 5.25563C14.0851 5.23166 14.1205 5.0569 14.1088 5.01699C14.0278 4.73773 13.9093 5.11864 13.882 5.15493C13.7579 5.3206 13.7097 5.16606 13.6001 5.1949C13.0648 5.33852 12.4039 5.23617 11.8986 5.17293C11.2402 5.09155 10.7293 4.92529 10.1014 4.96846C10.0615 4.97099 10.1018 5.20348 10.0674 5.20864C9.62323 5.26468 9.18599 5.17384 8.74097 5.24099C8.70445 5.24608 8.75709 5.46648 8.69848 5.48207C8.57825 5.5156 8.42595 5.50362 8.30439 5.43325C8.2451 5.39934 8.32463 5.21022 8.26495 5.17995C8.12599 5.10905 7.97703 5.09335 7.83429 5.12868C7.77355 5.1442 7.8652 5.36961 7.78624 5.37221C7.24843 5.39457 6.72023 5.4334 6.17675 5.1415C6.13949 5.12145 6.1068 4.66333 6.02758 4.75118C6.02161 4.87832 6.02193 5.02788 6.01933 5.16378C5.2364 5.23698 4.46147 5.07816 3.67635 5.05361C3.64325 5.05263 3.70046 5.29536 3.63637 5.2947C3.26545 5.29111 2.90525 5.35835 2.52584 5.11708C2.4882 5.09349 2.50751 4.66645 2.39657 4.73104C2.37701 4.74282 2.20992 4.79978 2.16672 4.89248C2.16085 4.90646 2.19134 5.10578 2.1375 5.11159C1.82461 5.14186 1.49673 5.09635 1.18438 4.97457C1.13398 4.95453 1.18766 4.74227 1.15175 4.72616C0.897068 4.61348 0.620043 4.77484 0.376678 4.58211C0.213779 4.45235 0.274089 4.08543 0.187526 3.72427C0.175283 3.67331 0.0744104 3.66524 0.069194 3.4551C0.0558018 2.9267 0.104661 2.34811 0.084613 1.78488C0.0803774 1.66357 -0.0547168 1.79423 0.0252676 1.50107C0.0308554 1.48145 0.128799 1.38415 0.152923 1.2847C0.169719 1.21594 0.139452 1.00223 0.173721 0.914217C0.207986 0.826282 0.24564 1.00542 0.302452 0.90201C0.359238 0.797318 0.334269 0.554203 0.447678 0.525424ZM31.5122 3.90279C31.4225 3.69864 31.4093 4.44638 31.5063 4.26748C31.511 4.25794 31.5168 3.91281 31.5122 3.90279ZM42.3613 3.78469C42.2441 3.45489 42.1638 3.93983 42.2465 4.19454C42.3292 4.44898 42.397 3.88467 42.3613 3.78469ZM43.5769 3.54391C43.4399 3.28387 43.4183 4.34419 43.565 4.12984C43.5736 4.11773 43.5849 3.55901 43.5769 3.54391ZM0.588959 3.62142C0.587721 3.61149 0.51521 3.60182 0.513477 3.61166C0.474867 3.84914 0.619859 3.86832 0.588959 3.62142ZM44.7831 3.28176C44.7404 3.13833 44.6172 3.30391 44.6704 3.48226C44.7132 3.62575 44.8364 3.46018 44.7831 3.28176ZM26.8347 3.10476C26.8333 3.09362 26.7813 3.08359 26.7823 3.14657C26.7858 3.34943 26.8582 3.29218 26.8347 3.10476ZM46.8333 3.26956C46.5304 3.22964 46.3468 2.35377 46.6766 2.4526C46.7364 2.47049 46.5479 2.73191 46.6239 2.81088C46.7631 2.95474 46.8554 2.4048 46.9974 2.69949C47.0231 2.75343 46.8506 3.27378 46.8328 3.27078C46.833 3.27037 46.8332 3.26996 46.8333 3.26956ZM31.4606 3.00466C31.4588 2.99478 31.3868 2.9854 31.3851 2.9952C31.3461 3.23259 31.4911 3.25162 31.4606 3.00466ZM23.8012 2.64242C23.7973 2.62135 23.6303 2.60165 23.6248 2.62106C23.5377 3.00925 23.8753 3.05024 23.8012 2.64242ZM36.3072 2.45749C36.3857 2.21868 36.4796 2.19056 36.5422 2.49045C36.4642 2.47453 36.3856 2.47218 36.3072 2.45749Z" fill="#02C1C1"/>
</svg>
