<svg width="48" height="5" viewBox="0 0 48 5" fill="none" xmlns="http://www.w3.org/2000/svg">
<path d="M47.5428 0.0254245C47.2738 -0.0397074 46.9212 0.0299344 46.6533 0.125522C46.5693 0.155168 46.6118 0.287688 46.5538 0.31412C46.4405 0.365646 46.3348 0.300652 46.2228 0.362032C46.1857 0.383023 46.2319 0.592935 46.1929 0.610139C45.9796 0.702908 45.7777 0.649441 45.5616 0.694062C44.497 0.914213 43.4505 0.993012 42.3728 1.08865C42.0175 1.12001 41.5855 1.31051 41.2185 1.2272C41.1757 1.21729 41.2012 1.03304 41.1931 1.01785C41.0652 0.785374 41.1077 1.15734 41.0242 1.20676C40.6929 1.40188 40.3245 1.41886 40.0056 1.34775C39.87 1.31696 40.006 0.950988 39.8694 1.1564C39.8599 1.17028 39.8943 1.36594 39.8571 1.38681C39.7727 1.43375 39.6127 1.39877 39.5473 1.41428C39.4213 1.44514 39.4004 1.44317 39.2812 1.4454C39.1183 1.45015 38.9245 1.54741 38.7497 1.50308C38.7124 1.49304 38.7618 1.29246 38.7023 1.25833C38.6427 1.22425 38.4851 1.24126 38.432 1.28854C38.3789 1.33585 38.4015 1.4935 38.3921 1.52963C38.3147 1.83462 38.1324 1.41221 38.109 1.40176C37.6814 1.22377 37.3147 1.4644 36.9133 1.46371C36.6086 1.46268 36.2828 1.38324 35.9928 1.39413C35.6474 1.40789 35.3547 1.51658 35.0191 1.49789C34.9837 1.49615 35.0252 1.26032 34.9819 1.25772C34.5224 1.23028 34.066 1.25599 33.6084 1.41519C33.5626 1.43136 33.6217 1.63842 33.5759 1.66696C33.2952 1.83712 32.851 2.24589 32.6843 1.34439C32.4942 1.37959 32.2633 1.41596 32.0932 1.59769C31.9836 1.71464 32.0901 1.94021 31.9554 1.84396C31.925 1.82252 31.9645 1.62498 31.9189 1.60776C31.7271 1.53544 31.5175 1.59965 31.3277 1.49759C31.2891 1.47636 31.2996 1.29936 31.2887 1.26749C31.1968 1.00935 31.0437 1.43606 31.0104 1.46707C30.7563 1.69829 30.5708 1.6073 30.3341 1.61294C30.2792 1.61435 30.3441 1.3766 30.2913 1.36941C30.0172 1.33534 29.7333 1.35577 29.4649 1.46127C29.4052 1.48531 29.4601 1.68783 29.4316 1.70968C29.3058 1.80356 29.278 1.42104 29.1573 1.50369C29.1319 1.52062 29.1462 1.694 29.1416 1.71304C29.069 2.01194 29.0059 1.58842 28.9872 1.57907C28.751 1.45131 28.6 1.89345 28.3718 1.83084C28.3445 1.8229 28.4061 1.60353 28.3293 1.59463C27.8181 1.53407 27.2773 1.59434 26.7713 1.7698C26.6926 1.79679 26.7488 1.96159 26.7438 1.9819C26.6631 2.29932 26.6109 1.87402 26.5852 1.858C26.3828 1.7427 26.1938 2.09937 26.0562 1.5928C25.1991 1.7686 24.3458 1.48413 23.4957 1.93796C23.4849 1.94321 23.5042 2.15267 23.4827 2.16226C23.223 2.27987 23.2729 1.95433 23.1011 1.55618C23.0578 1.4562 22.9262 1.9369 22.9145 1.97213C22.8721 2.10198 22.9161 2.4136 22.9019 2.43875C22.7843 2.63621 22.8034 1.60565 22.6448 1.60531C22.6398 1.60703 22.6607 1.79672 22.6474 1.81558C22.606 1.87479 22.565 1.79942 22.5245 1.86471C22.4319 2.0158 22.3988 2.51656 22.2573 2.22512C22.2394 2.1873 22.2668 1.60272 22.1251 1.63034C22.0687 1.64184 21.8187 1.63182 21.7487 1.66971C21.6787 1.70754 21.7267 1.89592 21.7218 1.90408C21.5332 2.15318 21.6047 2.25642 21.5103 2.62521C21.4158 2.99261 21.442 2.11633 21.4035 2.01852C21.365 1.92099 21.2267 2.12652 21.1928 2.19796C21.1588 2.26944 21.2012 2.38914 21.171 2.42959C20.9708 2.69386 21.0831 1.99464 21.0172 1.85556C20.8617 1.52624 20.7406 2.1761 20.5982 2.23977C20.5597 2.25697 20.5911 2.10896 20.5568 2.09512C20.421 2.04226 20.3393 2.24503 20.1848 2.05911C20.1595 2.02881 20.0346 1.6381 19.9537 1.92483C19.9422 1.96618 19.9748 2.12812 19.9169 2.16439C19.8304 2.21883 19.6746 2.25423 19.5816 2.2001C19.513 2.16005 19.5917 1.89321 19.5053 1.9761C19.4669 2.01312 19.538 2.16922 19.4659 2.22573C19.3941 2.28223 19.2107 2.27538 19.1409 2.26999C19.0712 2.26448 19.1093 2.06206 19.1037 2.04843C19.0696 1.97032 18.9359 1.87271 18.9241 1.87295C18.328 1.84824 17.7783 2.18943 17.1979 2.0765C17.1524 2.06794 17.1827 1.85449 17.1758 1.85098C17.0199 1.76155 17.1428 2.32906 17.0339 2.51901C17.0496 2.08586 16.9853 2.16429 16.8755 2.11679C16.8226 2.09354 16.8514 1.92583 16.8466 1.90866C16.7681 1.65392 16.7134 1.98295 16.6994 2.05026C16.6474 2.29786 16.5908 2.0053 16.5554 2.1708C16.5201 2.33507 16.6014 2.57858 16.4961 2.57547C16.4666 2.42041 16.5448 2.01522 16.4648 1.94955C16.163 1.70115 15.5998 2.01907 15.3572 2.05209C15.1151 2.08509 15.0368 2.05648 14.8958 2.11252C14.6409 2.21383 14.7343 1.91321 14.5761 1.7756C14.4173 1.63801 14.4945 2.3777 14.4717 2.53671C14.4493 2.69565 14.4248 2.53204 14.397 2.61941C14.3692 2.70676 14.4293 2.81488 14.364 2.84768C14.2987 2.88045 14.12 2.59769 14.0969 2.43142C14.0479 2.07918 14.1284 1.70948 13.9555 1.83938C13.9456 1.84709 13.9778 2.04159 13.9398 2.06125C13.6373 2.21098 13.3232 2.22026 13.0211 2.35269C12.9796 2.3712 13.0167 2.58757 12.9926 2.60079C12.7408 2.73919 12.8308 2.37436 12.6928 1.96908C12.7238 2.50842 12.6475 2.83839 12.4564 2.84158C12.3416 2.84368 12.3613 2.60812 12.287 2.4421C12.2648 2.39206 12.1835 2.5538 12.1688 2.44302C12.1202 2.0809 12.1967 1.67553 11.9998 1.83694C11.9911 1.84461 12.0186 2.04283 11.9888 2.05484C11.7957 2.13341 11.7726 1.75464 11.564 1.70877C11.4004 1.67278 11.1095 1.90375 10.9233 1.94131C10.9272 2.54769 10.7513 2.40883 10.6799 1.99075C10.5591 2.00787 10.4285 1.98423 10.3117 2.04202C10.2715 2.06172 10.2979 2.23728 10.2928 2.25625C10.2151 2.55383 10.1626 2.14708 10.1365 2.13113C9.85372 1.97612 9.62336 2.2844 9.35351 1.98312C9.34394 1.97227 9.32841 1.55106 9.25628 1.85861C9.25162 1.87981 9.34073 2.07145 9.2138 2.08627C9.08684 2.10112 8.84752 2.32692 8.67126 2.13174C8.62861 2.08475 8.52072 1.74282 8.43414 2.00998C8.4226 2.04625 8.43523 2.16706 8.41857 2.23428C8.36474 2.44848 8.33535 2.02274 8.27209 2.38443C8.20881 2.74609 8.07722 3.01696 7.89947 2.76742C7.8938 2.76017 7.85173 2.42273 7.79583 2.42807C7.70659 2.43687 7.57992 2.50717 7.48674 2.50497C7.44213 2.5038 7.47068 2.29426 7.46294 2.29043C7.16298 2.17302 6.9495 2.35981 6.62816 2.44088C6.56926 2.45616 6.39997 2.17043 6.28594 2.39633C6.16072 2.64361 6.2894 3.67228 6.00158 3.42721C5.88549 3.32918 5.73852 2.02413 5.52989 2.70028C5.12529 2.53274 4.75111 2.87879 4.34538 2.63955C4.32713 2.62895 4.26945 2.26472 4.22655 2.26968C4.16287 2.27774 4.12791 2.44798 4.08244 2.45919C3.89191 2.51047 3.71756 2.36482 3.53386 2.38748C3.46411 2.39571 3.48851 2.57173 3.40532 2.58157C3.32219 2.59124 3.26675 2.35946 3.15409 2.4714C3.06901 2.55673 2.98395 3.03049 2.87101 3.08572C2.86671 2.6184 2.78914 2.62803 2.65129 2.50466C2.62479 2.48073 2.65321 2.31808 2.64067 2.29837C2.58965 2.21454 2.54244 2.34934 2.494 2.25808C2.48222 2.23617 2.48166 2.07657 2.47203 2.04965C2.3901 1.81462 2.25515 2.17361 2.23198 2.23611C2.14314 2.47349 2.10162 2.26592 2.03349 2.3594C1.96547 2.45287 2.06717 2.56971 1.98771 2.62643C1.823 2.74375 1.61135 2.71797 1.44407 2.72531C1.37733 2.72725 1.42286 2.51422 1.41331 2.50955C1.27528 2.45552 1.13572 2.68212 1.05918 2.25778C0.963486 3.35497 0.975956 2.15136 0.778664 2.371C0.763119 2.38876 0.743355 2.90762 0.803017 2.98379C0.862675 3.05989 0.953148 2.8977 1.03593 3.01644C1.05553 3.04431 1.16782 3.53051 1.18314 3.55996C1.30315 3.79013 1.32016 3.01478 1.32652 2.97219C1.39852 2.51261 1.53574 3.0364 1.57188 3.0726C1.73719 3.23843 1.87764 3.12939 2.01591 3.24777C2.10634 3.32427 2.11518 3.83216 2.1862 3.81661C2.42224 3.76523 2.50466 3.05672 2.72709 3.67104C2.77479 3.80207 2.72739 4.35717 2.8983 3.92068C2.90903 3.89316 3.03592 3.49384 3.10923 3.74642C3.11844 3.77827 3.11815 3.94004 3.13029 3.95363C3.21167 4.04154 3.26595 3.91266 3.3546 3.97439C3.44324 4.03611 3.54983 4.12813 3.65104 4.07326C3.71205 4.04045 3.7903 3.73904 3.8195 3.66524C3.90195 3.45266 3.99034 3.80121 4.04143 3.54378C4.09293 3.28507 3.99224 2.89216 4.1273 2.725C4.1323 3.14531 4.1438 3.57672 4.15184 3.99941C4.44783 3.98461 4.73907 3.8487 5.03606 3.86727C5.07287 3.86999 5.03522 4.09595 5.07469 4.1047C5.24122 4.14059 5.38668 3.97951 5.55937 4.04366C5.69305 4.09418 5.83963 4.33342 5.97942 4.3937C6.0648 3.91274 6.27222 4.07602 6.4229 4.03206C6.47569 4.01688 6.47215 3.88842 6.50969 3.84652C6.65131 3.69153 6.58495 4.11655 6.62377 4.18343C6.79033 4.46889 6.80459 3.50689 7.00097 3.53066C7.01138 3.5316 7.13853 4.04438 7.15606 4.07632C7.26735 4.28454 7.17448 3.89783 7.24413 3.85995C7.3713 3.79071 7.45967 3.66825 7.60888 3.81844C7.65239 3.86293 7.75674 4.18254 7.84124 3.93532C7.85235 3.90295 7.84621 3.73346 7.85516 3.72353C8.01709 3.55807 8.02134 4.09065 8.11388 4.27102C8.20644 4.45135 8.34938 4.0837 8.37847 3.97774C8.45458 3.70363 8.32016 3.8606 8.31603 3.8337C8.26761 3.51358 8.37188 3.5687 8.45153 3.54165C8.46305 3.01945 8.57447 3.0508 8.53411 3.51571C8.52952 3.56649 8.46753 3.51779 8.45153 3.54165C8.52146 4.05399 8.64389 4.11961 8.77911 3.64083C8.84241 3.41643 8.78256 3.1548 8.97485 3.25051C9.06211 3.29372 9.02839 3.65328 9.1054 3.7513C9.28134 3.97496 9.50996 3.63956 9.69134 3.69241C9.75718 3.71159 9.69304 3.90841 9.73803 3.92831C9.85743 3.98172 9.96273 3.83404 10.0826 3.90969C10.0935 3.91679 10.067 4.12282 10.1042 4.12545C10.3869 4.14938 10.6331 4.01741 10.9282 4.01375C11.0708 4.01208 11.3258 4.12571 11.4735 4.10287C11.7295 4.06449 12.0445 3.76489 12.2632 3.83767C12.4059 3.88426 12.3746 4.09033 12.4357 4.23073C12.5537 4.5029 12.7625 4.01539 12.7906 3.9399C12.7915 3.9374 12.6687 3.88882 12.7342 3.78304C12.7723 3.56263 12.7892 3.93895 12.7906 3.9399C12.8091 3.89114 13.0543 3.84436 13.103 3.88375C13.1294 3.90528 13.1146 4.10052 13.1284 4.10805C13.4563 4.28278 13.7848 4.3324 14.1174 4.24111C14.1232 4.23717 14.1144 4.01878 14.1282 4.01223C14.3207 3.91513 14.444 4.18229 14.6028 4.3409C14.7616 4.49945 14.8875 4.44635 14.9814 4.07143C15.1012 4.11864 15.2731 3.95289 15.372 3.85232C15.4709 3.75175 15.4847 4.17686 15.4934 4.18526C15.7648 4.45425 15.9217 4.21092 16.2033 4.17306C16.3372 4.15432 16.6027 4.21598 16.7477 4.26247C16.8622 4.29992 16.9313 4.20029 17.0368 4.264C17.0511 4.2725 17.0367 4.46179 17.041 4.46907C17.1588 4.69554 17.1022 4.23281 17.1265 4.15017C17.2147 3.84964 17.2692 3.68958 17.4201 3.83095C17.4548 3.86333 17.5562 4.5296 17.6196 4.56856C17.7021 4.618 17.671 4.37918 17.7573 4.43703C17.7647 4.44176 17.7632 4.5891 17.8165 4.5826C18.0639 4.55438 18.3336 4.46865 18.5906 4.48342C18.6258 4.48487 18.5807 4.71856 18.6315 4.72451C18.8696 4.75221 19.1305 4.74356 19.3624 4.63417C19.4195 4.60652 19.3837 4.44289 19.3961 4.39431C19.4722 4.10035 19.5801 4.52746 19.5979 4.5356C20.0226 4.74086 20.3476 4.35432 20.7804 4.53835C20.804 4.54915 20.9853 5.00703 21.0662 4.61434C21.0718 4.58821 21.1518 4.18644 21.2226 4.46114C21.227 4.47833 21.1771 4.68516 21.2642 4.66408C21.3512 4.64305 21.4913 4.78117 21.611 4.55391C21.6489 4.48232 21.7384 4.08155 21.8514 4.40102C21.8588 4.42332 22.0332 5.1457 22.0955 4.6473C22.1056 4.56526 22.095 4.03783 22.2299 4.30825C22.2556 4.36067 22.2089 4.47832 22.2768 4.55178C22.3808 4.665 22.5186 4.52373 22.6464 4.75869C22.6687 4.80028 22.7637 5.15826 22.8398 4.88655C22.8517 4.844 22.8291 4.66792 22.8693 4.64821C23.0605 4.55369 23.2607 4.67147 23.4549 4.54964C23.5236 4.50683 23.4885 4.22218 23.5601 4.14589C23.6318 4.06964 23.7763 3.99628 23.8513 4.12636C23.9263 4.2565 23.8444 4.71018 23.9567 4.74648C24.4454 4.90415 24.9295 4.63801 25.4174 4.59908C25.4898 4.59327 25.4298 4.7556 25.5364 4.75869C25.9296 4.77076 26.6084 4.92297 26.9496 4.57802C27.223 4.30174 26.879 4.0914 27.0879 3.97896C27.1887 3.92533 27.2977 4.45278 27.3221 4.46938C27.5598 4.63806 27.725 4.40441 27.9389 4.47609C27.9831 4.49097 27.9398 4.70475 27.9774 4.71505C28.1058 4.75212 28.2408 4.6567 28.3636 4.67415C28.4186 4.68247 28.4085 4.84575 28.4591 4.83315C28.5804 4.80488 28.6876 4.73624 28.8058 4.58321C28.8165 4.56927 28.7439 4.36616 28.8336 4.3586C28.9788 4.34695 29.159 4.19599 29.326 4.35189C29.3755 4.39879 29.3775 4.77195 29.484 4.51424C29.5063 4.46042 29.4778 4.01233 29.6019 4.3995C29.6228 4.46383 29.8312 4.98605 29.9335 4.64943C29.9605 4.56084 30.0294 4.19417 30.089 4.25179C30.097 4.26099 30.0647 4.46143 30.1141 4.48098C30.2881 4.54639 30.4705 4.52501 30.6493 4.58779C30.697 4.60495 30.6259 4.81236 30.6971 4.83132C30.8927 4.88374 31.1371 4.83093 31.3284 4.76601C31.399 4.74168 31.3502 4.56986 31.3553 4.55117C31.4379 4.24704 31.4867 4.65754 31.5141 4.68148C31.6845 4.8248 31.8142 4.63197 31.9713 4.683C32.0146 4.69656 31.9839 4.89229 31.9925 4.90975C32.082 5.08027 32.0154 4.72877 32.072 4.69002C32.2307 4.58031 32.4076 4.59604 32.568 4.62105C32.627 4.63053 32.5607 4.85748 32.6136 4.86336C32.9267 4.90247 33.2522 4.88075 33.5577 4.75563C33.6153 4.73166 33.5791 4.5569 33.591 4.51699C33.6737 4.23773 33.7948 4.61864 33.8227 4.65493C33.9494 4.8206 33.9986 4.66606 34.1105 4.6949C34.6572 4.83852 35.3322 4.73617 35.8482 4.67293C36.5206 4.59155 37.0424 4.42529 37.6836 4.46846C37.7244 4.47099 37.6833 4.70348 37.7184 4.70864C38.172 4.76468 38.6186 4.67384 39.0731 4.74099C39.1103 4.74608 39.0566 4.96648 39.1165 4.98207C39.2392 5.0156 39.3948 5.00362 39.5189 4.93325C39.5795 4.89934 39.4982 4.71022 39.5592 4.67995C39.7011 4.60905 39.8532 4.59335 39.999 4.62868C40.0611 4.6442 39.9675 4.86961 40.0481 4.87221C40.5974 4.89457 41.1368 4.9334 41.6918 4.6415C41.7299 4.62145 41.7633 4.16333 41.8442 4.25118C41.8503 4.37832 41.8499 4.52788 41.8526 4.66378C42.6522 4.73698 43.4436 4.57816 44.2454 4.55361C44.2792 4.55263 44.2208 4.79536 44.2863 4.7947C44.6651 4.79111 45.0329 4.85835 45.4204 4.61708C45.4589 4.59349 45.4391 4.16645 45.5524 4.23104C45.5724 4.24282 45.7431 4.29978 45.7872 4.39248C45.7932 4.40646 45.762 4.60578 45.817 4.61159C46.1366 4.64186 46.4714 4.59635 46.7904 4.47457C46.8419 4.45453 46.7871 4.24227 46.8237 4.22616C47.0838 4.11348 47.3668 4.27484 47.6153 4.08211C47.7817 3.95235 47.7201 3.58543 47.8085 3.22427C47.821 3.17331 47.924 3.16524 47.9293 2.9551C47.943 2.4267 47.8931 1.84811 47.9136 1.28488C47.9179 1.16357 48.0559 1.29423 47.9742 1.00107C47.9685 0.981448 47.8685 0.88415 47.8438 0.784699C47.8267 0.715941 47.8576 0.502235 47.8226 0.414217C47.7876 0.326282 47.7491 0.505422 47.6911 0.40201C47.6331 0.297318 47.6586 0.0542033 47.5428 0.0254245ZM15.8173 3.40279C15.9089 3.19864 15.9224 3.94638 15.8234 3.76748C15.8186 3.75794 15.8126 3.41281 15.8173 3.40279ZM4.73741 3.28469C4.85714 2.95489 4.93906 3.43983 4.8546 3.69454C4.77015 3.94898 4.70094 3.38467 4.73741 3.28469ZM3.49595 3.04391C3.63588 2.78387 3.6579 3.84419 3.50804 3.62984C3.49932 3.61773 3.48779 3.05901 3.49595 3.04391ZM47.3985 3.12142C47.3998 3.11149 47.4738 3.10182 47.4756 3.11166C47.515 3.34914 47.367 3.36832 47.3985 3.12142ZM2.26402 2.78176C2.3077 2.63833 2.43346 2.80391 2.37919 2.98226C2.3355 3.12575 2.20961 2.96018 2.26402 2.78176ZM20.5944 2.60476C20.5958 2.59362 20.6489 2.58359 20.6478 2.64657C20.6442 2.84943 20.5704 2.79218 20.5944 2.60476ZM0.170204 2.76956C0.479549 2.72964 0.667122 1.85377 0.330238 1.9526C0.26923 1.97049 0.461716 2.23191 0.384071 2.31088C0.241989 2.45474 0.147648 1.9048 0.00266266 2.19949C-0.0235901 2.25343 0.152557 2.77378 0.170753 2.77078C0.17057 2.77037 0.170387 2.76996 0.170204 2.76956ZM15.8701 2.50466C15.8719 2.49478 15.9454 2.4854 15.9472 2.4952C15.987 2.73259 15.8389 2.75162 15.8701 2.50466ZM23.6923 2.14242C23.6964 2.12135 23.867 2.10165 23.8725 2.12106C23.9615 2.50925 23.6167 2.55024 23.6923 2.14242ZM10.9203 1.95749C10.8402 1.71868 10.7442 1.69056 10.6803 1.99045C10.76 1.97453 10.8402 1.97218 10.9203 1.95749Z" fill="#02C1C1"/>
</svg>
