<svg width="1613" height="1200" viewBox="0 0 1613 1200" fill="none" xmlns="http://www.w3.org/2000/svg">
<rect width="1613" height="1200" fill="#74CEF0"/>
<path d="M669.499 131.477C663.155 130.216 639.048 136.016 639.048 154.169C642.854 170.054 757.048 171.566 757.048 154.169C757.048 139.278 739.86 135.084 725.475 131.575L725.074 131.477C720.887 123.353 711.298 118.891 703.758 117.106C687.009 113.141 669.499 117.112 669.499 131.477Z" fill="#DFF2F2" stroke="#DFF2F2"/>
<path d="M672.499 135.616C666.155 134.503 642.048 139.621 642.048 155.639C645.854 169.654 760.048 170.989 760.048 155.639C760.048 142.499 742.86 138.799 728.475 135.702L728.074 135.616C723.887 128.448 714.298 124.51 706.758 122.935C690.009 119.437 672.499 122.94 672.499 135.616Z" fill="white" stroke="white"/>
<path d="M755.548 158.656C756.215 156.99 757.048 151.156 753.048 148.156V154.656L746.548 161.656L755.548 158.656Z" fill="#DFF2F2" stroke="#DFF2F2"/>
<circle cx="678.048" cy="131.656" r="3" fill="#DFF2F2"/>
<path d="M1091.33 74.1473C1087.38 72.6746 1071.23 73.9042 1069.34 85.6048C1070.15 96.2389 1143.59 109.097 1145.4 97.8841C1146.95 88.2856 1136.31 83.7941 1127.4 80.0352L1127.15 79.9304C1125.3 74.2585 1119.58 70.3846 1114.91 68.4493C1104.53 64.1509 1092.83 64.8881 1091.33 74.1473Z" fill="#DFF2F2" stroke="#DFF2F2"/>
<path d="M1092.84 77.1273C1088.86 75.7502 1072.79 76.54 1071.13 86.8641C1072.12 96.2937 1145.58 109.037 1147.18 99.1434C1148.55 90.6741 1137.86 86.5006 1128.91 83.0078L1128.66 82.9105C1126.7 77.8545 1120.93 74.319 1116.24 72.5191C1105.81 68.5214 1094.16 68.9575 1092.84 77.1273Z" fill="white" stroke="white"/>
<path d="M1143.97 100.618C1144.57 99.6135 1145.72 95.9404 1143.45 93.5905L1142.77 97.78L1137.85 101.615L1143.97 100.618Z" fill="#DFF2F2" stroke="#DFF2F2"/>
<circle cx="1096.83" cy="75.1521" r="1.95868" transform="rotate(9.17127 1096.83 75.1521)" fill="#DFF2F2"/>
<path d="M62.5662 135.666C56.0987 135.754 33.7267 146.445 37.5058 164.201C44.5355 178.944 156.542 156.652 152.921 139.636C149.82 125.07 132.136 124.547 117.335 124.109L116.923 124.097C111.136 117.023 100.829 114.654 93.082 114.478C75.8752 114.087 59.5757 121.615 62.5662 135.666Z" fill="#DFF2F2" stroke="#DFF2F2"/>
<path d="M66.3619 139.088C59.9252 139.32 37.4112 149.345 40.7457 165.011C47.3864 177.927 159.356 155.46 156.16 140.446C153.425 127.594 135.843 127.554 121.129 127.52L120.719 127.519C115.131 121.379 104.933 119.524 97.2296 119.553C80.1199 119.618 63.7232 126.69 66.3619 139.088Z" fill="white" stroke="white"/>
<path d="M152.388 144.334C152.693 142.565 152.293 136.686 147.757 134.584L149.11 140.942L144.209 149.142L152.388 144.334Z" fill="#DFF2F2" stroke="#DFF2F2"/>
<circle cx="70.9646" cy="134.06" r="3" transform="rotate(-12.0155 70.9646 134.06)" fill="#DFF2F2"/>
<path d="M795.904 363.878C792.601 363.221 780.049 366.241 780.049 375.693C782.031 383.963 841.487 384.751 841.487 375.693C841.487 367.939 832.538 365.756 825.048 363.929L824.839 363.878C822.659 359.648 817.667 357.325 813.741 356.395C805.02 354.331 795.904 356.398 795.904 363.878Z" fill="#DFF2F2" stroke="#DFF2F2"/>
<path d="M797.466 366.034C794.163 365.455 781.611 368.119 781.611 376.459C783.593 383.756 843.049 384.451 843.049 376.459C843.049 369.617 834.1 367.691 826.61 366.079L826.401 366.034C824.221 362.302 819.229 360.252 815.303 359.432C806.582 357.61 797.466 359.434 797.466 366.034Z" fill="white" stroke="white"/>
<path d="M840.706 378.029C841.053 377.162 841.487 374.124 839.404 372.562V375.947L836.02 379.591L840.706 378.029Z" fill="#DFF2F2" stroke="#DFF2F2"/>
<circle cx="800.354" cy="363.976" r="1.56198" fill="#DFF2F2"/>
<path d="M1342.92 248.229C1339.61 247.573 1327.06 250.593 1327.06 260.045C1329.04 268.315 1388.5 269.102 1388.5 260.045C1388.5 252.291 1379.55 250.108 1372.06 248.28L1371.85 248.229C1369.67 244 1364.68 241.676 1360.75 240.747C1352.03 238.683 1342.92 240.75 1342.92 248.229Z" fill="#DFF2F2" stroke="#DFF2F2"/>
<path d="M1344.48 250.385C1341.17 249.806 1328.62 252.471 1328.62 260.81C1330.6 268.108 1390.06 268.803 1390.06 260.81C1390.06 253.969 1381.11 252.043 1373.62 250.43L1373.41 250.385C1371.23 246.653 1366.24 244.603 1362.31 243.783C1353.59 241.962 1344.48 243.786 1344.48 250.385Z" fill="white" stroke="white"/>
<path d="M1387.72 262.381C1388.06 261.513 1388.5 258.476 1386.42 256.914V260.298L1383.03 263.943L1387.72 262.381Z" fill="#DFF2F2" stroke="#DFF2F2"/>
<circle cx="1347.37" cy="248.328" r="1.56198" fill="#DFF2F2"/>
<path d="M1059.35 196.098C1054.49 195.134 1036.06 199.569 1036.06 213.45C1038.97 225.596 1126.29 226.753 1126.29 213.45C1126.29 202.063 1113.15 198.856 1102.15 196.173L1101.84 196.098C1098.64 189.886 1091.31 186.473 1085.54 185.108C1072.74 182.077 1059.35 185.113 1059.35 196.098Z" fill="#DFF2F2" stroke="#DFF2F2"/>
<path d="M1061.64 199.26C1056.79 198.41 1038.35 202.323 1038.35 214.571C1041.27 225.289 1128.59 226.309 1128.59 214.571C1128.59 204.524 1115.44 201.694 1104.44 199.326L1104.14 199.26C1100.93 193.779 1093.6 190.768 1087.84 189.564C1075.03 186.889 1061.64 189.568 1061.64 199.26Z" fill="white" stroke="white"/>
<path d="M1125.15 216.881C1125.66 215.606 1126.29 211.146 1123.23 208.852V213.822L1118.26 219.175L1125.15 216.881Z" fill="#DFF2F2" stroke="#DFF2F2"/>
<circle cx="1065.88" cy="196.239" r="2.29403" fill="#DFF2F2"/>
<path d="M1008.66 17.5835C1005.62 16.9792 994.061 19.7594 994.061 28.4609C995.885 36.0748 1050.62 36.7999 1050.62 28.4609C1050.62 21.3226 1042.38 19.3126 1035.49 17.6304L1035.3 17.5835C1033.29 13.6894 1028.69 11.5504 1025.08 10.6948C1017.05 8.79428 1008.66 10.6976 1008.66 17.5835Z" fill="#DFF2F2" stroke="#DFF2F2"/>
<path d="M1010.09 19.5663C1007.05 19.0331 995.498 21.4862 995.498 29.164C997.323 35.8821 1052.06 36.522 1052.06 29.164C1052.06 22.8655 1043.82 21.092 1036.93 19.6077L1036.73 19.5663C1034.73 16.1303 1030.13 14.243 1026.52 13.488C1018.49 11.8111 1010.09 13.4905 1010.09 19.5663Z" fill="white" stroke="white"/>
<path d="M1049.9 30.6112C1050.22 29.8123 1050.62 27.0161 1048.71 25.5781V28.6938L1045.59 32.0492L1049.9 30.6112Z" fill="#DFF2F2" stroke="#DFF2F2"/>
<circle cx="1012.75" cy="17.6724" r="1.43802" fill="#DFF2F2"/>
<path d="M1118.12 356.691C1116.23 356.316 1109.06 358.042 1109.06 363.443C1110.19 368.169 1144.17 368.619 1144.17 363.443C1144.17 359.012 1139.06 357.765 1134.78 356.72L1134.66 356.691C1133.41 354.274 1130.56 352.947 1128.31 352.416C1123.33 351.236 1118.12 352.417 1118.12 356.691Z" fill="#DFF2F2" stroke="#DFF2F2"/>
<path d="M1119.01 357.919C1117.13 357.588 1109.95 359.111 1109.95 363.876C1111.09 368.046 1145.06 368.443 1145.06 363.876C1145.06 359.967 1139.95 358.866 1135.67 357.945L1135.55 357.919C1134.3 355.786 1131.45 354.615 1129.21 354.146C1124.22 353.105 1119.01 354.148 1119.01 357.919Z" fill="white" stroke="white"/>
<path d="M1143.72 364.78C1143.92 364.284 1144.17 362.549 1142.98 361.656V363.59L1141.04 365.673L1143.72 364.78Z" fill="#DFF2F2" stroke="#DFF2F2"/>
<circle cx="1120.67" cy="356.744" r="0.892562" fill="#DFF2F2"/>
<path d="M1561.12 86.707C1559.23 86.3319 1552.06 88.0575 1552.06 93.4585C1553.19 98.1843 1587.17 98.6344 1587.17 93.4585C1587.17 89.0278 1582.06 87.7802 1577.78 86.7361L1577.66 86.707C1576.41 84.29 1573.56 82.9623 1571.31 82.4312C1566.33 81.2516 1561.12 82.433 1561.12 86.707Z" fill="#DFF2F2" stroke="#DFF2F2"/>
<path d="M1562.02 87.9345C1560.13 87.6035 1552.96 89.1261 1552.96 93.8917C1554.09 98.0615 1588.06 98.4587 1588.06 93.8917C1588.06 89.9823 1582.95 88.8814 1578.67 87.9602L1578.55 87.9345C1577.3 85.8018 1574.45 84.6304 1572.21 84.1618C1567.22 83.1209 1562.02 84.1633 1562.02 87.9345Z" fill="white" stroke="white"/>
<path d="M1586.72 94.7958C1586.92 94.3 1587.17 92.5644 1585.98 91.6719V93.6058L1584.05 95.6884L1586.72 94.7958Z" fill="#DFF2F2" stroke="#DFF2F2"/>
<circle cx="1563.67" cy="86.7598" r="0.892562" fill="#DFF2F2"/>
<path d="M1348.12 8.69917C1346.24 8.32411 1339.06 10.0497 1339.06 15.4507C1340.2 20.1765 1374.17 20.6266 1374.17 15.4507C1374.17 11.02 1369.06 9.77241 1364.78 8.72827L1364.66 8.69917C1363.41 6.28214 1360.56 4.95452 1358.32 4.42342C1353.33 3.24381 1348.12 4.42518 1348.12 8.69917Z" fill="#DFF2F2" stroke="#DFF2F2"/>
<path d="M1349.02 9.92666C1347.13 9.59572 1339.96 11.1183 1339.96 15.8839C1341.09 20.0537 1375.06 20.4509 1375.06 15.8839C1375.06 11.9745 1369.95 10.8736 1365.67 9.95234L1365.55 9.92666C1364.3 7.79399 1361.45 6.62255 1359.21 6.15394C1354.23 5.1131 1349.02 6.15549 1349.02 9.92666Z" fill="white" stroke="white"/>
<path d="M1373.72 16.788C1373.92 16.2922 1374.17 14.5566 1372.98 13.6641V15.5979L1371.05 17.6806L1373.72 16.788Z" fill="#DFF2F2" stroke="#DFF2F2"/>
<circle cx="1350.67" cy="8.75194" r="0.892562" fill="#DFF2F2"/>
<path d="M1217.12 118.707C1215.24 118.332 1208.06 120.058 1208.06 125.458C1209.2 130.184 1243.17 130.634 1243.17 125.458C1243.17 121.028 1238.06 119.78 1233.78 118.736L1233.66 118.707C1232.41 116.29 1229.56 114.962 1227.32 114.431C1222.33 113.252 1217.12 114.433 1217.12 118.707Z" fill="#DFF2F2" stroke="#DFF2F2"/>
<path d="M1218.02 119.934C1216.13 119.604 1208.96 121.126 1208.96 125.892C1210.09 130.062 1244.06 130.459 1244.06 125.892C1244.06 121.982 1238.95 120.881 1234.67 119.96L1234.55 119.934C1233.3 117.802 1230.45 116.63 1228.21 116.162C1223.23 115.121 1218.02 116.163 1218.02 119.934Z" fill="white" stroke="white"/>
<path d="M1242.72 126.796C1242.92 126.3 1243.17 124.564 1241.98 123.672V125.606L1240.05 127.688L1242.72 126.796Z" fill="#DFF2F2" stroke="#DFF2F2"/>
<circle cx="1219.67" cy="118.76" r="0.892562" fill="#DFF2F2"/>
<path d="M1265.12 256.707C1263.24 256.332 1256.06 258.058 1256.06 263.458C1257.2 268.184 1291.17 268.634 1291.17 263.458C1291.17 259.028 1286.06 257.78 1281.78 256.736L1281.66 256.707C1280.41 254.29 1277.56 252.962 1275.32 252.431C1270.33 251.252 1265.12 252.433 1265.12 256.707Z" fill="#DFF2F2" stroke="#DFF2F2"/>
<path d="M1266.02 257.934C1264.13 257.604 1256.96 259.126 1256.96 263.892C1258.09 268.062 1292.06 268.459 1292.06 263.892C1292.06 259.982 1286.95 258.881 1282.67 257.96L1282.55 257.934C1281.3 255.802 1278.45 254.63 1276.21 254.162C1271.23 253.121 1266.02 254.163 1266.02 257.934Z" fill="white" stroke="white"/>
<path d="M1290.72 264.796C1290.92 264.3 1291.17 262.564 1289.98 261.672V263.606L1288.05 265.688L1290.72 264.796Z" fill="#DFF2F2" stroke="#DFF2F2"/>
<circle cx="1267.67" cy="256.76" r="0.892562" fill="#DFF2F2"/>
<path d="M535.123 182.707C533.236 182.332 526.063 184.058 526.063 189.458C527.196 194.184 561.171 194.634 561.171 189.458C561.171 185.028 556.057 183.78 551.777 182.736L551.658 182.707C550.412 180.29 547.559 178.962 545.316 178.431C540.333 177.252 535.123 178.433 535.123 182.707Z" fill="#DFF2F2" stroke="#DFF2F2"/>
<path d="M536.016 183.934C534.129 183.604 526.956 185.126 526.956 189.892C528.089 194.062 562.064 194.459 562.064 189.892C562.064 185.982 556.95 184.881 552.67 183.96L552.551 183.934C551.305 181.802 548.452 180.63 546.209 180.162C541.226 179.121 536.016 180.163 536.016 183.934Z" fill="white" stroke="white"/>
<path d="M560.725 190.796C560.923 190.3 561.171 188.564 559.981 187.672V189.606L558.047 191.688L560.725 190.796Z" fill="#DFF2F2" stroke="#DFF2F2"/>
<circle cx="537.667" cy="182.76" r="0.892562" fill="#DFF2F2"/>
<path d="M138.123 44.707C136.236 44.3319 129.063 46.0575 129.063 51.4585C130.196 56.1843 164.171 56.6344 164.171 51.4585C164.171 47.0278 159.057 45.7802 154.777 44.7361L154.658 44.707C153.412 42.29 150.559 40.9623 148.316 40.4312C143.333 39.2516 138.123 40.433 138.123 44.707Z" fill="#DFF2F2" stroke="#DFF2F2"/>
<path d="M139.016 45.9345C137.129 45.6035 129.956 47.1261 129.956 51.8917C131.089 56.0615 165.064 56.4587 165.064 51.8917C165.064 47.9823 159.95 46.8814 155.67 45.9602L155.551 45.9345C154.305 43.8018 151.452 42.6304 149.209 42.1618C144.226 41.1209 139.016 42.1633 139.016 45.9345Z" fill="white" stroke="white"/>
<path d="M163.725 52.7958C163.923 52.3 164.171 50.5644 162.981 49.6719V51.6058L161.047 53.6884L163.725 52.7958Z" fill="#DFF2F2" stroke="#DFF2F2"/>
<circle cx="140.667" cy="44.7598" r="0.892562" fill="#DFF2F2"/>
<path d="M1037.12 132.707C1035.24 132.332 1028.06 134.058 1028.06 139.458C1029.2 144.184 1063.17 144.634 1063.17 139.458C1063.17 135.028 1058.06 133.78 1053.78 132.736L1053.66 132.707C1052.41 130.29 1049.56 128.962 1047.32 128.431C1042.33 127.252 1037.12 128.433 1037.12 132.707Z" fill="#DFF2F2" stroke="#DFF2F2"/>
<path d="M1038.02 133.934C1036.13 133.604 1028.96 135.126 1028.96 139.892C1030.09 144.062 1064.06 144.459 1064.06 139.892C1064.06 135.982 1058.95 134.881 1054.67 133.96L1054.55 133.934C1053.3 131.802 1050.45 130.63 1048.21 130.162C1043.23 129.121 1038.02 130.163 1038.02 133.934Z" fill="white" stroke="white"/>
<path d="M1062.72 140.796C1062.92 140.3 1063.17 138.564 1061.98 137.672V139.606L1060.05 141.688L1062.72 140.796Z" fill="#DFF2F2" stroke="#DFF2F2"/>
<circle cx="1039.67" cy="132.76" r="0.892562" fill="#DFF2F2"/>
<path d="M1158.12 14.707C1156.24 14.3319 1149.06 16.0575 1149.06 21.4585C1150.2 26.1843 1184.17 26.6344 1184.17 21.4585C1184.17 17.0278 1179.06 15.7802 1174.78 14.7361L1174.66 14.707C1173.41 12.29 1170.56 10.9623 1168.32 10.4312C1163.33 9.25162 1158.12 10.433 1158.12 14.707Z" fill="#DFF2F2" stroke="#DFF2F2"/>
<path d="M1159.02 15.9345C1157.13 15.6035 1149.96 17.1261 1149.96 21.8917C1151.09 26.0615 1185.06 26.4587 1185.06 21.8917C1185.06 17.9823 1179.95 16.8814 1175.67 15.9602L1175.55 15.9345C1174.3 13.8018 1171.45 12.6304 1169.21 12.1618C1164.23 11.1209 1159.02 12.1633 1159.02 15.9345Z" fill="white" stroke="white"/>
<path d="M1183.72 22.7958C1183.92 22.3 1184.17 20.5644 1182.98 19.6719V21.6058L1181.05 23.6884L1183.72 22.7958Z" fill="#DFF2F2" stroke="#DFF2F2"/>
<circle cx="1160.67" cy="14.7598" r="0.892562" fill="#DFF2F2"/>
<path d="M437.541 253.605C434.326 252.603 421.525 254.275 420.524 263.674C421.618 272.107 480.656 279.191 481.616 270.184C482.437 262.474 473.77 259.355 466.516 256.744L466.314 256.672C464.594 252.235 459.876 249.395 456.071 248.055C447.618 245.078 438.334 246.168 437.541 253.605Z" fill="#DFF2F2" stroke="#DFF2F2"/>
<path d="M438.866 255.915C435.643 254.989 422.879 256.309 421.996 264.601C423.193 272.068 482.241 279.059 483.088 271.112C483.813 264.309 475.118 261.445 467.841 259.048L467.639 258.981C465.866 255.039 461.119 252.472 457.302 251.24C448.824 248.505 439.565 249.353 438.866 255.915Z" fill="white" stroke="white"/>
<path d="M480.591 272.425C481.029 271.599 481.782 268.625 479.876 266.851L479.518 270.216L475.766 273.482L480.591 272.425Z" fill="#DFF2F2" stroke="#DFF2F2"/>
<circle cx="441.957" cy="254.172" r="1.56198" transform="rotate(6.08288 441.957 254.172)" fill="#DFF2F2"/>
<path d="M744.953 328.889C743.41 343.66 713.663 355.988 686.793 349.853C653.678 342.292 633.343 341.454 634.218 317.327C635.159 291.378 697.167 295.923 697.167 295.923C697.167 295.923 746.495 314.118 744.953 328.889Z" fill="#DFF2F2"/>
<path d="M747.005 331.951C745.463 346.722 715.716 359.051 688.845 352.915C655.73 345.354 635.396 344.517 636.27 320.389C637.211 294.441 699.219 298.986 699.219 298.986C699.219 298.986 748.547 317.18 747.005 331.951Z" fill="white"/>
<path d="M735.296 343.766C734.966 346.924 711.462 353.559 689.056 350.508C661.444 346.747 639.056 331.858 643.829 334.216C665.003 344.675 697.039 349.031 697.039 349.031C697.039 349.031 728.262 347.56 735.296 343.766Z" fill="#DFF2F2"/>
<path d="M1155.75 285.329C1156.84 293.416 1142.56 303.862 1127.42 304.075C1108.75 304.337 1097.78 306.531 1095.12 293.533C1092.25 279.555 1125.95 273.93 1125.95 273.93C1125.95 273.93 1154.66 277.241 1155.75 285.329Z" fill="#DFF2F2"/>
<path d="M1157.24 286.696C1158.34 294.784 1144.05 305.229 1128.91 305.442C1110.24 305.705 1099.28 307.898 1096.61 294.9C1093.74 280.922 1127.45 275.297 1127.45 275.297C1127.45 275.297 1156.15 278.608 1157.24 286.696Z" fill="white"/>
<path d="M1152.53 294.533C1152.76 296.262 1141.07 302.857 1128.71 304.137C1113.48 305.715 1099.59 300.671 1102.44 301.31C1115.11 304.146 1132.78 302.312 1132.78 302.312C1132.78 302.312 1149.26 297.473 1152.53 294.533Z" fill="#DFF2F2"/>
<path d="M1363.53 147.884C1361.75 155.849 1344.73 160.689 1330.45 155.632C1312.85 149.401 1301.81 147.651 1303.82 134.537C1305.98 120.432 1339.54 126.853 1339.54 126.853C1339.54 126.853 1365.31 139.919 1363.53 147.884Z" fill="#DFF2F2"/>
<path d="M1364.45 149.689C1362.67 157.654 1345.65 162.493 1331.38 157.437C1313.78 151.205 1302.73 149.456 1304.74 136.341C1306.91 122.237 1340.47 128.658 1340.47 128.658C1340.47 128.658 1366.24 141.724 1364.45 149.689Z" fill="white"/>
<path d="M1357.31 155.4C1356.93 157.103 1343.68 159.231 1331.64 156.142C1316.81 152.335 1305.53 142.785 1307.99 144.375C1318.88 151.43 1336.09 155.843 1336.09 155.843C1336.09 155.843 1353.23 157.024 1357.31 155.4Z" fill="#DFF2F2"/>
<path d="M294.77 46.6669C295.604 54.7857 280.992 64.7674 265.848 64.4938C247.185 64.1566 236.153 65.9963 233.906 52.92C231.489 38.8569 265.354 34.3174 265.354 34.3174C265.354 34.3174 293.936 38.5481 294.77 46.6669Z" fill="#DFF2F2"/>
<path d="M296.218 48.0809C297.053 56.1997 282.441 66.1815 267.296 65.9078C248.633 65.5706 237.601 67.4103 235.354 54.334C232.937 40.2709 266.802 35.7314 266.802 35.7314C266.802 35.7314 295.384 39.9622 296.218 48.0809Z" fill="white"/>
<path d="M291.252 55.7589C291.43 57.4945 279.535 63.7108 267.14 64.5932C251.864 65.6806 238.145 60.1934 240.978 60.924C253.545 64.1649 271.267 62.8997 271.267 62.8997C271.267 62.8997 287.896 58.5918 291.252 55.7589Z" fill="#DFF2F2"/>
<path d="M177.861 315.016C179.427 329.785 152.898 348.036 125.339 347.628C91.3758 347.127 71.3123 350.54 67.1451 326.759C62.6635 301.184 124.259 292.721 124.259 292.721C124.259 292.721 176.294 300.248 177.861 315.016Z" fill="#DFF2F2"/>
<path d="M180.505 317.579C182.071 332.347 155.542 350.598 127.983 350.191C94.0198 349.689 73.9563 353.103 69.7892 329.322C65.3075 303.746 126.903 295.283 126.903 295.283C126.903 295.283 178.938 302.81 180.505 317.579Z" fill="white"/>
<path d="M171.513 331.579C171.848 334.737 150.24 346.119 127.69 347.799C99.8995 349.869 74.9025 339.967 80.0618 341.279C102.949 347.101 135.19 344.693 135.19 344.693C135.19 344.693 165.423 336.754 171.513 331.579Z" fill="#DFF2F2"/>
<path d="M965.952 256.371C966.76 262.023 956.821 269.406 946.226 269.633C933.169 269.913 925.507 271.504 923.575 262.425C921.497 252.66 945.046 248.55 945.046 248.55C945.046 248.55 965.145 250.718 965.952 256.371Z" fill="#DFF2F2"/>
<path d="M967.004 257.316C967.812 262.969 957.872 270.351 947.278 270.578C934.221 270.858 926.559 272.45 924.627 263.37C922.548 253.605 946.098 249.496 946.098 249.496C946.098 249.496 966.197 251.663 967.004 257.316Z" fill="white"/>
<path d="M963.744 262.815C963.917 264.024 955.773 268.698 947.131 269.658C936.482 270.84 926.739 267.384 928.74 267.816C937.615 269.734 949.97 268.36 949.97 268.36C949.97 268.36 961.476 264.889 963.744 262.815Z" fill="#DFF2F2"/>
<path d="M1531.12 264.573C1530.87 270.278 1519.75 275.708 1509.29 273.984C1496.41 271.86 1488.58 272.016 1488.35 262.736C1488.1 252.756 1512.01 253.044 1512.01 253.044C1512.01 253.044 1531.37 258.869 1531.12 264.573Z" fill="#DFF2F2"/>
<path d="M1531.98 265.698C1531.73 271.403 1520.61 276.833 1510.15 275.109C1497.27 272.985 1489.44 273.141 1489.21 263.861C1488.96 253.881 1512.87 254.169 1512.87 254.169C1512.87 254.169 1532.22 259.994 1531.98 265.698Z" fill="white"/>
<path d="M1527.76 270.507C1527.71 271.726 1518.85 274.824 1510.18 274.179C1499.49 273.385 1490.55 268.196 1492.44 268.989C1500.81 272.506 1513.21 273.425 1513.21 273.425C1513.21 273.425 1525.15 272.128 1527.76 270.507Z" fill="#DFF2F2"/>
<path d="M903.64 33.8675C903.129 37.8083 895.089 40.9067 887.943 39.0856C879.135 36.8412 873.702 36.4809 874.097 30.0329C874.523 23.0984 891.079 24.7295 891.079 24.7295C891.079 24.7295 904.152 29.9268 903.64 33.8675Z" fill="#DFF2F2"/>
<path d="M904.169 34.6957C903.657 38.6364 895.618 41.7349 888.471 39.9137C879.664 37.6694 874.23 37.309 874.626 30.8611C875.052 23.9265 891.608 25.5576 891.608 25.5576C891.608 25.5576 904.68 30.7549 904.169 34.6957Z" fill="white"/>
<path d="M900.959 37.7711C900.85 38.6135 894.518 40.2309 888.545 39.2646C881.184 38.0738 875.296 33.9411 876.557 34.6037C882.15 37.5432 890.69 38.9231 890.69 38.9231C890.69 38.9231 899.052 38.7388 900.959 37.7711Z" fill="#DFF2F2"/>
<path d="M329.655 140.227C329.144 144.168 321.104 147.266 313.958 145.445C305.15 143.201 299.717 142.84 300.112 136.392C300.538 129.458 317.094 131.089 317.094 131.089C317.094 131.089 330.167 136.286 329.655 140.227Z" fill="#DFF2F2"/>
<path d="M330.184 141.055C329.673 144.996 321.633 148.094 314.487 146.273C305.679 144.029 300.246 143.668 300.641 137.22C301.067 130.286 317.623 131.917 317.623 131.917C317.623 131.917 330.696 137.114 330.184 141.055Z" fill="white"/>
<path d="M326.974 144.13C326.865 144.973 320.533 146.59 314.56 145.624C307.199 144.433 301.311 140.3 302.572 140.963C308.165 143.903 316.706 145.282 316.706 145.282C316.706 145.282 325.067 145.098 326.974 144.13Z" fill="#DFF2F2"/>
<path d="M345.655 304.227C345.144 308.168 337.104 311.266 329.958 309.445C321.15 307.201 315.717 306.84 316.112 300.392C316.538 293.458 333.094 295.089 333.094 295.089C333.094 295.089 346.167 300.286 345.655 304.227Z" fill="#DFF2F2"/>
<path d="M346.184 305.055C345.673 308.996 337.633 312.094 330.487 310.273C321.679 308.029 316.246 307.668 316.641 301.22C317.067 294.286 333.623 295.917 333.623 295.917C333.623 295.917 346.696 301.114 346.184 305.055Z" fill="white"/>
<path d="M342.974 308.13C342.865 308.973 336.533 310.59 330.56 309.624C323.199 308.433 317.311 304.3 318.572 304.963C324.165 307.903 332.706 309.282 332.706 309.282C332.706 309.282 341.067 309.098 342.974 308.13Z" fill="#DFF2F2"/>
<path d="M37.6548 404.219C37.1433 408.16 29.1037 411.258 21.9572 409.437C13.15 407.193 7.71633 406.832 8.11194 400.385C8.53742 393.45 25.0935 395.081 25.0935 395.081C25.0935 395.081 38.1663 400.278 37.6548 404.219Z" fill="#DFF2F2"/>
<path d="M38.1836 405.047C37.6721 408.988 29.6325 412.086 22.486 410.265C13.6788 408.021 8.24513 407.661 8.64075 401.213C9.06623 394.278 25.6223 395.909 25.6223 395.909C25.6223 395.909 38.6951 401.106 38.1836 405.047Z" fill="white"/>
<path d="M34.9735 408.123C34.8642 408.965 28.5326 410.582 22.5598 409.616C15.199 408.425 9.31021 404.293 10.5712 404.955C16.1648 407.895 24.705 409.275 24.705 409.275C24.705 409.275 33.0667 409.09 34.9735 408.123Z" fill="#DFF2F2"/>
<path d="M575.639 358.219C575.128 362.16 567.088 365.258 559.942 363.437C551.134 361.193 545.701 360.832 546.096 354.385C546.522 347.45 563.078 349.081 563.078 349.081C563.078 349.081 576.151 354.278 575.639 358.219Z" fill="#DFF2F2"/>
<path d="M576.168 359.047C575.656 362.988 567.617 366.086 560.47 364.265C551.663 362.021 546.23 361.661 546.625 355.213C547.051 348.278 563.607 349.909 563.607 349.909C563.607 349.909 576.679 355.106 576.168 359.047Z" fill="white"/>
<path d="M572.958 362.123C572.849 362.965 566.517 364.582 560.544 363.616C553.183 362.425 547.295 358.293 548.556 358.955C554.149 361.895 562.689 363.275 562.689 363.275C562.689 363.275 571.051 363.09 572.958 362.123Z" fill="#DFF2F2"/>
<path d="M558.639 62.2269C558.128 66.1677 550.088 69.2661 542.942 67.445C534.134 65.2006 528.701 64.8403 529.096 58.3923C529.522 51.4577 546.078 53.0889 546.078 53.0889C546.078 53.0889 559.151 58.2862 558.639 62.2269Z" fill="#DFF2F2"/>
<path d="M559.168 63.055C558.656 66.9958 550.617 70.0942 543.47 68.2731C534.663 66.0287 529.23 65.6684 529.625 59.2204C530.051 52.2859 546.607 53.917 546.607 53.917C546.607 53.917 559.679 59.1143 559.168 63.055Z" fill="white"/>
<path d="M555.958 66.1304C555.849 66.9729 549.517 68.5903 543.544 67.624C536.183 66.4332 530.295 62.3004 531.556 62.9631C537.149 65.9026 545.689 67.2824 545.689 67.2824C545.689 67.2824 554.051 67.0982 555.958 66.1304Z" fill="#DFF2F2"/>
<path d="M1286.64 46.2191C1286.13 50.1598 1278.09 53.2583 1270.94 51.4371C1262.13 49.1928 1256.7 48.8325 1257.1 42.3845C1257.52 35.4499 1274.08 37.081 1274.08 37.081C1274.08 37.081 1287.15 42.2783 1286.64 46.2191Z" fill="#DFF2F2"/>
<path d="M1287.17 47.0472C1286.66 50.988 1278.62 54.0864 1271.47 52.2653C1262.66 50.0209 1257.23 49.6606 1257.62 43.2126C1258.05 36.2781 1274.61 37.9092 1274.61 37.9092C1274.61 37.9092 1287.68 43.1065 1287.17 47.0472Z" fill="white"/>
<path d="M1283.96 50.1226C1283.85 50.9651 1277.52 52.5824 1271.54 51.6162C1264.18 50.4253 1258.29 46.2926 1259.55 46.9553C1265.15 49.8948 1273.69 51.2746 1273.69 51.2746C1273.69 51.2746 1282.05 51.0903 1283.96 50.1226Z" fill="#DFF2F2"/>
<path d="M1218.64 202.227C1218.13 206.168 1210.09 209.266 1202.94 207.445C1194.13 205.201 1188.7 204.84 1189.1 198.392C1189.52 191.458 1206.08 193.089 1206.08 193.089C1206.08 193.089 1219.15 198.286 1218.64 202.227Z" fill="#DFF2F2"/>
<path d="M1219.17 203.055C1218.66 206.996 1210.62 210.094 1203.47 208.273C1194.66 206.029 1189.23 205.668 1189.62 199.22C1190.05 192.286 1206.61 193.917 1206.61 193.917C1206.61 193.917 1219.68 199.114 1219.17 203.055Z" fill="white"/>
<path d="M1215.96 206.13C1215.85 206.973 1209.52 208.59 1203.54 207.624C1196.18 206.433 1190.29 202.3 1191.55 202.963C1197.15 205.903 1205.69 207.282 1205.69 207.282C1205.69 207.282 1214.05 207.098 1215.96 206.13Z" fill="#DFF2F2"/>
<path d="M1348.64 362.219C1348.13 366.16 1340.09 369.258 1332.94 367.437C1324.13 365.193 1318.7 364.832 1319.1 358.385C1319.52 351.45 1336.08 353.081 1336.08 353.081C1336.08 353.081 1349.15 358.278 1348.64 362.219Z" fill="#DFF2F2"/>
<path d="M1349.17 363.047C1348.66 366.988 1340.62 370.086 1333.47 368.265C1324.66 366.021 1319.23 365.661 1319.62 359.213C1320.05 352.278 1336.61 353.909 1336.61 353.909C1336.61 353.909 1349.68 359.106 1349.17 363.047Z" fill="white"/>
<path d="M1345.96 366.123C1345.85 366.965 1339.52 368.582 1333.54 367.616C1326.18 366.425 1320.29 362.293 1321.55 362.955C1327.15 365.895 1335.69 367.275 1335.69 367.275C1335.69 367.275 1344.05 367.09 1345.96 366.123Z" fill="#DFF2F2"/>
<path d="M1510.76 34.4083C1509.54 38.1879 1501.06 39.756 1494.37 36.6524C1486.13 32.8276 1480.85 31.4748 1482.43 25.2094C1484.12 18.4711 1500.1 23.1173 1500.1 23.1173C1500.1 23.1173 1511.99 30.6287 1510.76 34.4083Z" fill="#DFF2F2"/>
<path d="M1511.13 35.3145C1509.9 39.0942 1501.43 40.6622 1494.74 37.5587C1486.5 33.7339 1481.22 32.3811 1482.8 26.1156C1484.49 19.3774 1500.46 24.0235 1500.46 24.0235C1500.46 24.0235 1512.36 31.5349 1511.13 35.3145Z" fill="white"/>
<path d="M1507.41 37.7555C1507.15 38.5635 1500.63 38.9896 1494.93 36.9421C1487.92 34.4187 1482.89 29.2741 1484 30.1572C1488.96 34.0747 1497.1 37.0006 1497.1 37.0006C1497.1 37.0006 1505.36 38.3563 1507.41 37.7555Z" fill="#DFF2F2"/>
<path d="M933.97 332.315C916.938 329.777 925.997 317.82 891.932 315.648C864.753 319.269 883.96 344.274 872.363 341.383C859.463 338.168 868.14 362.665 882.148 369.287C902.08 378.709 924.547 364.214 939.768 371.824C958.612 381.246 973.108 357.32 964.41 341.383C957.344 328.435 945.225 333.991 933.97 332.315Z" fill="#DFF2F2" stroke="#DFF2F2"/>
<path d="M936.298 336.658C919.266 334.121 928.326 322.164 894.261 319.992C867.082 323.613 886.289 348.618 874.692 345.727C861.791 342.511 870.469 367.009 884.476 373.631C904.408 383.053 926.876 368.557 942.096 376.168C960.941 385.59 975.436 361.664 966.739 345.727C959.672 332.778 947.553 338.335 936.298 336.658Z" fill="white" stroke="#DFF2F2"/>
<path d="M923.549 369.151C933.049 369.15 939.333 370.014 942.558 370.651C947.129 371.555 961.883 369.845 961.133 370.12C952.13 373.416 939.615 371.549 939.615 371.549C939.615 371.549 906.646 369.941 923.549 369.151Z" fill="#DFF2F2"/>
<path d="M234.442 213.932C223.062 212.237 229.115 204.248 206.356 202.797C188.198 205.216 201.03 221.922 193.282 219.99C184.663 217.842 190.461 234.209 199.819 238.633C213.136 244.928 228.147 235.243 238.315 240.328C250.905 246.623 260.59 230.638 254.779 219.99C250.058 211.339 241.961 215.052 234.442 213.932Z" fill="#DFF2F2" stroke="#DFF2F2"/>
<path d="M235.997 216.83C224.618 215.135 230.671 207.146 207.912 205.695C189.754 208.114 202.586 224.82 194.838 222.889C186.219 220.74 192.016 237.107 201.375 241.532C214.691 247.827 229.702 238.142 239.871 243.226C252.461 249.521 262.146 233.536 256.335 222.889C251.614 214.238 243.517 217.95 235.997 216.83Z" fill="white" stroke="#DFF2F2"/>
<path d="M227.479 238.541C233.826 238.541 238.025 239.118 240.179 239.544C243.234 240.147 253.091 239.005 252.589 239.188C246.574 241.391 238.213 240.143 238.213 240.143C238.213 240.143 216.186 239.069 227.479 238.541Z" fill="#DFF2F2"/>
<path d="M1487.19 325.482C1470.92 319.858 1482.02 309.77 1448.94 301.374C1421.56 299.938 1435.84 328.047 1424.97 323.074C1412.88 317.542 1416.91 343.217 1429.46 352.301C1447.32 365.226 1472.07 355.107 1485.63 365.384C1502.42 378.11 1521.07 357.255 1515.45 339.991C1510.88 325.965 1497.95 329.199 1487.19 325.482Z" fill="#DFF2F2" stroke="#DFF2F2"/>
<path d="M1488.69 330.178C1472.41 324.554 1483.51 314.465 1450.43 306.07C1423.05 304.633 1437.33 332.742 1426.46 327.769C1414.37 322.238 1418.4 347.913 1430.95 356.996C1448.81 369.921 1473.56 359.802 1487.12 370.08C1503.91 382.805 1522.56 361.95 1516.94 344.687C1512.37 330.66 1499.44 333.894 1488.69 330.178Z" fill="white" stroke="#DFF2F2"/>
<path d="M1470.18 359.78C1479.52 361.526 1485.54 363.53 1488.59 364.749C1492.92 366.477 1507.73 367.508 1506.95 367.64C1497.49 369.225 1485.53 365.09 1485.53 365.09C1485.53 365.09 1453.42 357.45 1470.18 359.78Z" fill="#DFF2F2"/>
<path d="M783.267 22.0941C772.353 20.6866 777.991 12.933 756.199 11.9725C738.879 14.6264 751.464 30.3621 744.018 28.6605C735.735 26.7676 741.587 42.3113 750.62 46.3666C763.473 52.137 777.646 42.5936 787.467 47.2653C799.625 53.0493 808.587 37.5804 802.83 27.5069C798.153 19.3222 790.479 23.0243 783.267 22.0941Z" fill="#DFF2F2" stroke="#DFF2F2"/>
<path d="M784.809 24.8363C773.895 23.4288 779.533 15.6752 757.741 14.7147C740.421 17.3686 753.006 33.1043 745.56 31.4027C737.277 29.5098 743.129 45.0535 752.161 49.1088C765.015 54.8792 779.188 45.3358 789.009 50.0074C801.167 55.7915 810.129 40.3225 804.372 30.2491C799.695 22.0644 792.021 25.7665 784.809 24.8363Z" fill="white" stroke="#DFF2F2"/>
<path d="M777.07 45.7568C783.14 45.6373 787.166 46.1104 789.234 46.4772C792.167 46.9973 801.572 45.7198 801.096 45.9046C795.385 48.1236 787.366 47.0875 787.366 47.0875C787.366 47.0875 766.28 46.4733 777.07 45.7568Z" fill="#DFF2F2"/>
<path d="M457.625 112.099C446.918 114.641 449.452 105.395 428.727 112.201C413.464 120.807 430.8 131.077 423.233 132.118C414.816 133.276 425.785 145.747 435.668 146.346C449.731 147.2 459.616 133.262 470.453 134.16C483.871 135.271 486.785 117.633 477.839 110.246C470.57 104.243 464.701 110.419 457.625 112.099Z" fill="#DFF2F2" stroke="#DFF2F2"/>
<path d="M460.039 114.122C449.332 116.665 451.865 107.418 431.141 114.225C415.877 122.831 433.213 133.101 425.647 134.141C417.23 135.299 428.198 147.77 438.082 148.37C452.145 149.223 462.029 135.285 472.867 136.183C486.285 137.295 489.199 119.656 480.252 112.269C472.983 106.267 467.114 112.443 460.039 114.122Z" fill="white" stroke="#DFF2F2"/>
<path d="M460.198 136.424C465.834 134.166 469.767 133.185 471.831 132.797C474.758 132.247 483.104 127.726 482.725 128.068C478.167 132.163 470.299 134.029 470.299 134.029C470.299 134.029 450.358 140.909 460.198 136.424Z" fill="#DFF2F2"/>
<path d="M450.382 356.967C443.97 354.953 448.189 350.894 435.189 347.987C424.492 347.731 430.376 358.538 426.082 356.718C421.304 354.695 423.16 364.666 428.158 368.07C435.269 372.913 444.811 368.691 450.216 372.55C456.907 377.327 463.949 368.985 461.565 362.312C459.628 356.891 454.618 358.297 450.382 356.967Z" fill="#DFF2F2" stroke="#DFF2F2"/>
<path d="M451.015 358.787C444.604 356.774 448.823 352.715 435.823 349.807C425.126 349.551 431.01 360.358 426.715 358.539C421.938 356.515 423.794 366.486 428.791 369.89C435.902 374.734 445.445 370.511 450.849 374.37C457.541 379.147 464.583 370.805 462.199 364.133C460.262 358.712 455.252 360.117 451.015 358.787Z" fill="white" stroke="#DFF2F2"/>
<path d="M444.128 370.535C447.791 371.112 450.161 371.827 451.365 372.268C453.073 372.895 458.864 373.132 458.558 373.192C454.887 373.916 450.176 372.436 450.176 372.436C450.176 372.436 437.564 369.812 444.128 370.535Z" fill="#DFF2F2"/>
<path d="M929.597 126.648C913.674 126.647 890.209 141.306 899.52 151.42C902.65 154.82 890.13 151.42 885.911 157.815C878.099 169.658 887.958 177.549 895.437 177.549C909.047 177.549 915.775 180.542 948.922 180.542C975.461 180.542 970.562 162.713 958.449 157.815C963.348 140.804 950.557 126.65 929.597 126.648Z" fill="#DFF2F2" stroke="#DFF2F2"/>
<path d="M930.413 129.094C914.49 129.092 891.025 143.751 900.337 153.865C903.467 157.265 890.946 153.865 886.727 160.261C878.916 172.103 888.774 179.994 896.254 179.994C909.863 179.994 916.592 182.987 949.739 182.987C976.277 182.987 971.378 165.159 959.265 160.261C964.165 143.25 951.373 129.096 930.413 129.094Z" fill="white" stroke="white"/>
<path d="M966.203 177.013C965.005 181.26 943.747 183.682 944.564 180.552C948.239 180.552 960.514 178.252 963.889 175.775C967.265 173.298 962.665 168.018 965.386 167.609C967.156 167.609 967.401 172.767 966.203 177.013Z" fill="#DFF2F2" stroke="#DFF2F2"/>
<path d="M369.338 191C361.376 190.999 349.643 198.329 354.299 203.386C355.864 205.086 349.604 203.386 347.494 206.583C343.589 212.505 348.518 216.45 352.258 216.45C359.062 216.45 362.427 217.947 379 217.947C392.269 217.947 389.82 209.033 383.764 206.583C386.213 198.078 379.817 191.001 369.338 191Z" fill="#DFF2F2" stroke="#DFF2F2"/>
<path d="M369.746 192.219C361.784 192.218 350.052 199.547 354.707 204.604C356.272 206.305 350.012 204.604 347.903 207.802C343.997 213.723 348.926 217.669 352.666 217.669C359.471 217.669 362.835 219.165 379.408 219.165C392.678 219.165 390.228 210.251 384.172 207.802C386.621 199.297 380.226 192.22 369.746 192.219Z" fill="white" stroke="white"/>
<path d="M387.641 216.179C387.042 218.302 376.413 219.513 376.821 217.948C378.658 217.948 384.796 216.798 386.484 215.559C388.171 214.321 385.871 211.681 387.232 211.477C388.117 211.477 388.239 214.056 387.641 216.179Z" fill="#DFF2F2" stroke="#DFF2F2"/>
<path d="M548.638 251.442C541.322 254.583 533.433 265.946 539.706 268.756C541.815 269.701 535.392 270.609 534.715 274.38C533.463 281.361 539.549 283.042 542.985 281.567C549.238 278.882 552.92 278.929 568.149 272.39C580.341 267.154 574.573 259.93 568.042 260.069C566.937 251.287 558.268 247.308 548.638 251.442Z" fill="#DFF2F2" stroke="#DFF2F2"/>
<path d="M549.495 252.403C542.179 255.544 534.29 266.907 540.564 269.717C542.673 270.662 536.249 271.57 535.573 275.341C534.32 282.322 540.406 284.003 543.843 282.528C550.095 279.843 553.777 279.89 569.006 273.351C581.199 268.115 575.431 260.891 568.899 261.03C567.794 252.248 559.125 248.269 549.495 252.403Z" fill="white" stroke="white"/>
<path d="M575.391 267.36C575.679 269.547 566.39 274.853 566.148 273.254C567.836 272.529 573.022 269.051 574.084 267.247C575.146 265.443 571.991 263.925 573.161 263.2C573.974 262.851 575.104 265.173 575.391 267.36Z" fill="#DFF2F2" stroke="#DFF2F2"/>
<path d="M1519.22 130.383C1503.57 127.455 1477.81 137.551 1485.11 149.205C1487.56 153.122 1475.88 147.479 1470.55 152.99C1460.7 163.195 1468.94 172.764 1476.29 174.139C1489.67 176.64 1495.73 180.818 1528.32 186.91C1554.4 191.788 1552.86 173.363 1541.86 166.322C1549.8 150.501 1539.83 134.237 1519.22 130.383Z" fill="#DFF2F2" stroke="#DFF2F2"/>
<path d="M1519.58 132.938C1503.93 130.01 1478.17 140.106 1485.46 151.759C1487.91 155.677 1476.23 150.034 1470.91 155.545C1461.05 165.75 1469.29 175.319 1476.64 176.693C1490.02 179.195 1496.09 183.373 1528.67 189.465C1554.76 194.342 1553.22 175.917 1542.21 168.877C1550.15 153.056 1540.18 136.792 1519.58 132.938Z" fill="white" stroke="white"/>
<path d="M1545.95 186.616C1543.99 190.569 1522.65 189.044 1524.03 186.117C1527.64 186.792 1540.13 186.788 1543.9 184.973C1547.68 183.159 1544.12 177.123 1546.88 177.222C1548.61 177.547 1547.91 182.662 1545.95 186.616Z" fill="#DFF2F2" stroke="#DFF2F2"/>
<path d="M658.239 193.648C650.648 193.648 639.461 200.636 643.9 205.458C645.393 207.079 639.424 205.458 637.412 208.507C633.688 214.153 638.388 217.915 641.954 217.915C648.442 217.915 651.65 219.342 667.453 219.342C680.105 219.342 677.769 210.842 671.994 208.507C674.33 200.397 668.232 193.649 658.239 193.648Z" fill="#DFF2F2" stroke="#DFF2F2"/>
<path d="M658.629 194.82C651.037 194.82 639.85 201.808 644.29 206.63C645.782 208.251 639.813 206.63 637.801 209.679C634.077 215.325 638.777 219.087 642.343 219.087C648.831 219.087 652.039 220.514 667.842 220.514C680.494 220.514 678.158 212.014 672.384 209.679C674.719 201.569 668.621 194.821 658.629 194.82Z" fill="white" stroke="white"/>
<path d="M675.691 217.663C675.12 219.687 664.985 220.842 665.375 219.35C667.127 219.35 672.979 218.253 674.588 217.073C676.197 215.892 674.004 213.374 675.302 213.18C676.145 213.18 676.262 215.639 675.691 217.663Z" fill="#DFF2F2" stroke="#DFF2F2"/>
<path d="M264.047 343.529C256.905 340.956 244.012 343.739 246.554 349.78C247.409 351.811 242.342 348.263 239.417 350.449C233.999 354.499 237.146 359.631 240.501 360.84C246.605 363.039 249.14 365.468 264.007 370.824C275.91 375.113 276.593 366.324 271.952 362.17C276.898 355.332 273.448 346.917 264.047 343.529Z" fill="#DFF2F2" stroke="#DFF2F2"/>
<path d="M264.018 344.764C256.877 342.19 243.983 344.973 246.525 351.014C247.38 353.045 242.313 349.497 239.388 351.684C233.971 355.733 237.117 360.866 240.472 362.074C246.576 364.273 249.111 366.703 263.978 372.059C275.881 376.347 276.565 367.559 271.923 363.405C276.869 356.566 273.419 348.151 264.018 344.764Z" fill="white" stroke="white"/>
<path d="M272.327 372.038C271.104 373.749 261.178 371.401 262.05 370.129C263.698 370.723 269.576 371.675 271.49 371.109C273.404 370.544 272.194 367.432 273.481 367.689C274.274 367.974 273.551 370.327 272.327 372.038Z" fill="#DFF2F2" stroke="#DFF2F2"/>
<path d="M1234.04 313.529C1226.89 310.956 1214 313.739 1216.54 319.78C1217.4 321.811 1212.33 318.263 1209.41 320.449C1203.99 324.499 1207.14 329.631 1210.49 330.84C1216.59 333.039 1219.13 335.468 1234 340.824C1245.9 345.113 1246.58 336.324 1241.94 332.17C1246.89 325.332 1243.44 316.917 1234.04 313.529Z" fill="#DFF2F2" stroke="#DFF2F2"/>
<path d="M1234.01 314.764C1226.87 312.19 1213.97 314.973 1216.51 321.014C1217.37 323.045 1212.3 319.497 1209.38 321.684C1203.96 325.733 1207.11 330.866 1210.46 332.074C1216.57 334.273 1219.1 336.703 1233.97 342.059C1245.87 346.347 1246.55 337.559 1241.91 333.405C1246.86 326.566 1243.41 318.151 1234.01 314.764Z" fill="white" stroke="white"/>
<path d="M1242.32 342.038C1241.09 343.749 1231.17 341.401 1232.04 340.129C1233.69 340.723 1239.56 341.675 1241.48 341.109C1243.39 340.544 1242.18 337.432 1243.47 337.689C1244.26 337.974 1243.54 340.327 1242.32 342.038Z" fill="#DFF2F2" stroke="#DFF2F2"/>
<path d="M1410.49 56.2771C1403.24 58.5495 1394.66 68.5669 1400.34 71.8383C1402.25 72.9381 1396.07 73.1788 1395.07 76.6903C1393.2 83.1921 1398.81 85.3743 1402.22 84.3066C1408.41 82.3639 1411.89 82.7647 1426.97 78.0329C1439.04 74.2445 1434.27 66.8343 1428.06 66.3354C1427.86 57.8982 1420.02 53.2859 1410.49 56.2771Z" fill="#DFF2F2" stroke="#DFF2F2"/>
<path d="M1411.21 57.2771C1403.97 59.5495 1395.38 69.5669 1401.06 72.8383C1402.97 73.9381 1396.79 74.1788 1395.79 77.6903C1393.92 84.1921 1399.53 86.3743 1402.94 85.3066C1409.13 83.3639 1412.61 83.7647 1427.69 79.0329C1439.76 75.2445 1434.99 67.8343 1428.78 67.3354C1428.58 58.8982 1420.74 54.2859 1411.21 57.2771Z" fill="white" stroke="white"/>
<path d="M1434.33 73.9666C1434.39 76.069 1425.07 80.2055 1424.99 78.6652C1426.66 78.1406 1431.92 75.342 1433.1 73.7336C1434.28 72.1251 1431.43 70.3798 1432.61 69.8055C1433.42 69.553 1434.27 71.8642 1434.33 73.9666Z" fill="#DFF2F2" stroke="#DFF2F2"/>
<path d="M1567.23 375.644C1559.99 377.917 1551.41 387.934 1557.09 391.206C1559 392.305 1552.81 392.546 1551.81 396.057C1549.95 402.559 1555.56 404.742 1558.96 403.674C1565.15 401.731 1568.64 402.132 1583.71 397.4C1595.79 393.612 1591.01 386.201 1584.8 385.703C1584.6 377.265 1576.77 372.653 1567.23 375.644Z" fill="#DFF2F2" stroke="#DFF2F2"/>
<path d="M1567.95 376.644C1560.71 378.917 1552.13 388.934 1557.81 392.206C1559.72 393.305 1553.54 393.546 1552.53 397.057C1550.67 403.559 1556.28 405.742 1559.68 404.674C1565.87 402.731 1569.36 403.132 1584.44 398.4C1596.51 394.612 1591.73 387.201 1585.52 386.703C1585.32 378.265 1577.49 373.653 1567.95 376.644Z" fill="white" stroke="white"/>
<path d="M1591.07 393.334C1591.13 395.436 1581.81 399.573 1581.73 398.032C1583.4 397.508 1588.66 394.709 1589.84 393.101C1591.02 391.492 1588.18 389.747 1589.36 389.173C1590.16 388.92 1591.01 391.231 1591.07 393.334Z" fill="#DFF2F2" stroke="#DFF2F2"/>
<path d="M431.237 11.6443C423.994 13.9167 415.413 23.9341 421.092 27.2055C423.002 28.3053 416.821 28.546 415.815 32.0575C413.952 38.5593 419.563 40.7415 422.965 39.6738C429.156 37.7311 432.644 38.1318 447.721 33.4001C459.793 29.6117 455.019 22.2015 448.81 21.7026C448.611 13.2654 440.772 8.65311 431.237 11.6443Z" fill="#DFF2F2" stroke="#DFF2F2"/>
<path d="M431.958 12.6443C424.714 14.9167 416.133 24.9341 421.813 28.2055C423.722 29.3053 417.541 29.546 416.535 33.0575C414.672 39.5593 420.283 41.7415 423.685 40.6738C429.876 38.7311 433.364 39.1318 448.441 34.4001C460.513 30.6117 455.739 23.2015 449.531 22.7026C449.331 14.2654 441.492 9.65311 431.958 12.6443Z" fill="white" stroke="white"/>
<path d="M455.078 29.3338C455.139 31.4362 445.815 35.5727 445.74 34.0324C447.411 33.5078 452.667 30.7092 453.849 29.1008C455.03 27.4923 452.184 25.747 453.364 25.1727C454.169 24.9202 455.016 27.2314 455.078 29.3338Z" fill="#DFF2F2" stroke="#DFF2F2"/>
<path d="M69.0804 220.341C61.6553 221.921 52.1684 231.085 57.514 234.877C59.3112 236.152 53.1352 235.809 51.8027 239.21C49.3355 245.507 54.7158 248.209 58.2035 247.466C64.5495 246.116 67.9841 246.843 83.4406 243.554C95.8154 240.92 91.7615 233.093 85.6273 232.011C86.2236 223.592 78.854 218.262 69.0804 220.341Z" fill="#DFF2F2" stroke="#DFF2F2"/>
<path d="M69.7039 221.404C62.2788 222.983 52.7919 232.147 58.1376 235.94C59.9347 237.214 53.7587 236.872 52.4263 240.273C49.9591 246.57 55.3393 249.271 58.827 248.529C65.1731 247.178 68.6077 247.906 84.0641 244.616C96.4389 241.982 92.385 234.155 86.2508 233.073C86.8471 224.655 79.4775 219.324 69.7039 221.404Z" fill="white" stroke="white"/>
<path d="M91.148 240.196C91.011 242.295 81.3389 245.534 81.409 243.994C83.1224 243.629 88.6183 241.338 89.9463 239.848C91.2743 238.358 88.6053 236.353 89.834 235.892C90.659 235.717 91.2851 238.097 91.148 240.196Z" fill="#DFF2F2" stroke="#DFF2F2"/>
<path d="M676.393 25.3735C669.324 27.2789 660.662 36.5952 666.006 39.9707C667.803 41.1055 661.837 41.0948 660.73 44.4391C658.679 50.6314 664.001 52.9546 667.321 52.0593C673.363 50.4303 676.708 50.9534 691.424 46.9857C703.205 43.8091 698.896 36.4808 692.932 35.7562C693.071 27.6178 685.698 22.8654 676.393 25.3735Z" fill="#DFF2F2" stroke="#DFF2F2"/>
<path d="M677.049 26.3657C669.98 28.2711 661.317 37.5873 666.662 40.9629C668.458 42.0977 662.493 42.0869 661.385 45.4313C659.335 51.6236 664.656 53.9468 667.977 53.0515C674.019 51.4225 677.364 51.9456 692.079 47.9779C703.861 44.8013 699.552 37.4729 693.588 36.7484C693.727 28.61 686.354 23.8576 677.049 26.3657Z" fill="white" stroke="white"/>
<path d="M698.672 43.3554C698.649 45.3838 689.502 49.0038 689.49 47.5164C691.121 47.0766 696.295 44.5861 697.497 43.0825C698.699 41.5789 696.025 39.7853 697.184 39.2782C697.97 39.0665 698.696 41.327 698.672 43.3554Z" fill="#DFF2F2" stroke="#DFF2F2"/>
<path d="M49.8274 41.1546C43.3098 44.4899 36.7765 55.4054 42.7065 57.5944C44.7001 58.3303 38.863 59.5617 38.4761 63.0632C37.7598 69.5467 43.4481 70.7113 46.5094 69.1444C52.0797 66.2933 55.4607 66.1085 69.0277 59.1644C79.8897 53.6047 74.1495 47.334 68.1658 47.8668C66.6073 39.8778 58.4065 36.7644 49.8274 41.1546Z" fill="#DFF2F2" stroke="#DFF2F2"/>
<path d="M50.6755 41.9905C44.158 45.3258 37.6247 56.2413 43.5547 58.4303C45.5482 59.1662 39.7111 60.3976 39.3243 63.8992C38.6079 70.3826 44.2962 71.5473 47.3576 69.9803C52.9279 67.1292 56.3089 66.9445 69.8758 60.0003C80.7379 54.4406 74.9977 48.1699 69.0139 48.7027C67.4555 40.7137 59.2546 37.6003 50.6755 41.9905Z" fill="white" stroke="white"/>
<path d="M75.3622 54.1079C75.7615 56.0967 67.5682 61.5416 67.2467 60.0894C68.7507 59.3196 73.2932 55.8065 74.1558 54.0856C75.0183 52.3648 72.0293 51.1672 73.0578 50.4298C73.782 50.0592 74.9628 52.119 75.3622 54.1079Z" fill="#DFF2F2" stroke="#DFF2F2"/>
</svg>
