<svg width="181" height="202" viewBox="0 0 181 202" fill="none" xmlns="http://www.w3.org/2000/svg">
<path d="M52.5408 85.5093C54.4225 92.6225 56.296 99.7048 58.2085 106.81C60.0902 113.923 62.0253 120.989 63.9378 128.094C65.8584 135.23 67.8017 142.327 69.7531 149.454C70.6899 152.996 71.68 156.49 72.6168 160.031C73.407 163.018 74.1129 166.06 75.0797 168.967C76.4257 173.059 78.1946 177.006 79.0869 181.251C79.2173 181.744 79.286 182.252 79.3466 182.731C79.2878 182.384 79.2598 182.029 79.2318 181.674C79.3349 182.437 79.3846 183.248 79.2559 184.007C79.2976 183.666 79.3393 183.326 79.4118 182.977C79.3619 183.287 79.2813 183.605 79.1925 183.892C79.3429 183.588 79.4543 183.262 79.6047 182.959C79.5222 183.145 79.4009 183.309 79.2795 183.473C79.4688 183.193 79.6971 182.934 79.8864 182.654C79.5902 183.029 79.208 183.327 78.8565 183.618C79.1319 183.413 79.4072 183.209 79.6744 182.973C78.1455 184.169 76.3568 185.004 74.7011 185.969C72.8996 187.006 72.0778 189.629 73.254 191.459C74.4301 193.29 76.7964 194.014 78.7437 192.906C81.2271 191.458 84.1 190.237 85.8836 187.887C87.8646 185.288 87.4468 181.84 86.7798 178.82C86.1635 176.117 85.2393 173.495 84.2924 170.912C83.8986 169.797 83.4659 168.66 83.0721 167.545C82.6294 166.245 82.2792 164.921 81.937 163.628C79.6109 155.084 77.2767 146.509 74.9505 137.964C72.6326 129.451 70.3064 120.907 68.0192 112.386C65.7158 103.802 63.4204 95.2502 61.1477 86.659L60.3006 83.4566C59.7629 81.4242 57.4638 79.9568 55.3943 80.6031C53.3248 81.2494 51.9624 83.323 52.5408 85.5093Z" fill="#F34D08"/>
<path d="M113.39 83.4828C111.206 92.097 109.031 100.68 106.785 109.279C104.54 117.878 102.333 126.453 100.095 135.021C97.8576 143.589 95.6122 152.187 93.3745 160.755C92.6388 163.657 91.9031 166.56 90.9282 169.368C90.0081 171.961 89.0649 174.515 88.3609 177.162C87.5947 179.926 86.959 182.952 87.6835 185.797C88.1637 187.792 89.6118 189.079 91.1917 190.235C92.3015 191.042 93.543 191.718 94.7615 192.356C95.2242 192.605 95.6639 192.815 96.1187 193.094C97.9308 194.112 100.575 193.534 101.593 191.59C102.573 189.67 102.04 187.235 100.089 186.116C98.3929 185.16 96.6265 184.351 95.0853 183.172C95.3627 183.373 95.6402 183.575 95.9098 183.808C95.5245 183.513 95.1779 183.195 94.87 182.854C95.0622 183.133 95.2931 183.389 95.4854 183.667C95.3623 183.505 95.2393 183.342 95.1549 183.156C95.3084 183.458 95.4232 183.783 95.5767 184.085C95.4541 183.791 95.3702 183.474 95.348 183.172C95.3932 183.513 95.4384 183.853 95.5145 184.2C95.4167 183.42 95.4501 182.64 95.5145 181.867C95.4593 182.215 95.4349 182.57 95.4106 182.925C95.9193 178.586 97.6943 174.435 99.1214 170.361C99.9716 167.915 100.552 165.367 101.224 162.843C102.124 159.293 103.078 155.789 103.979 152.238C105.856 145.09 107.695 137.966 109.573 130.819C111.412 123.694 113.273 116.608 115.112 109.484C116.92 102.352 118.782 95.2662 120.59 88.1339L121.271 85.4478C121.788 83.41 120.49 81.0109 118.367 80.5713C116.244 80.1317 114.046 81.2832 113.491 83.4754L113.39 83.4828Z" fill="#F34D08"/>
<path d="M131.375 78.2124C131.375 78.1805 131.375 78.1168 131.375 78.085C131.311 78.4354 131.247 78.7539 131.184 79.1042C131.184 78.9768 131.247 78.8494 131.311 78.722C131.152 79.0405 130.993 79.3591 130.833 79.6776C130.897 79.5502 130.993 79.4228 131.056 79.3272C130.833 79.582 130.578 79.8687 130.324 80.1235C130.483 79.9643 130.642 79.8368 130.833 79.7094C130.547 79.9005 130.26 80.0917 129.973 80.2828C130.292 80.0917 130.642 79.9324 130.993 79.8368C130.674 79.9324 130.355 80.0598 130.005 80.1554C131.247 79.7731 132.553 79.6457 133.827 79.582C133.477 79.582 133.158 79.6139 132.808 79.6457C136.567 79.4228 140.325 79.6457 144.052 79.7413C145.931 79.7731 147.842 79.805 149.722 79.7094C151.633 79.6139 153.544 79.5183 155.391 79.0724C157.716 78.499 159.946 77.4161 162.048 76.2375C164.533 74.8361 166.954 73.2116 169.088 71.3005C173.26 67.6056 176.541 63.019 178.548 57.8589C180.65 52.4441 181.16 46.5514 180.459 40.8181C180.363 40.1173 180.268 39.4166 180.14 38.7158C179.79 36.6455 177.56 35.0528 175.458 35.5306C173.324 36.0403 171.891 38.0151 172.273 40.2129C172.528 41.5825 172.687 42.984 172.782 44.3855C172.782 44.0351 172.751 43.7166 172.719 43.3662C172.878 46.0737 172.719 48.8129 172.177 51.4885C172.241 51.1381 172.305 50.8196 172.368 50.4693C171.859 52.9856 170.999 55.4381 169.852 57.7633C170.011 57.4448 170.171 57.1263 170.33 56.8078C169.119 59.2285 167.591 61.4582 165.775 63.4649C165.998 63.2101 166.253 62.9234 166.508 62.6686C164.469 64.8982 162.144 66.8412 159.596 68.4975C159.882 68.3064 160.169 68.1153 160.456 67.9242C159.309 68.6568 158.099 69.3257 156.888 69.9627C155.869 70.4723 154.818 70.982 153.735 71.3642C154.053 71.2686 154.372 71.1412 154.722 71.0457C153.13 71.5553 151.442 71.7146 149.785 71.8101C150.136 71.8101 150.454 71.7783 150.805 71.7464C146.823 71.9694 142.841 71.7464 138.86 71.6827C135.07 71.619 131.088 71.4597 127.457 72.702C125.195 73.4664 123.603 75.3776 123.284 77.7665C123.03 79.8368 124.909 81.9709 127.011 82.0346C129.273 82.0983 131.024 80.5376 131.279 78.3079L131.375 78.2124Z" fill="#F34D08"/>
<path d="M49.3796 82.5561C49.3796 82.5243 49.3796 82.4606 49.3796 82.4287C49.4433 82.7791 49.507 83.0976 49.5707 83.448C49.5707 83.3206 49.507 83.1932 49.4433 83.0658C49.6026 83.3843 49.7618 83.7028 49.9211 84.0213C49.8574 83.8939 49.7619 83.7665 49.6982 83.671C49.9211 83.9258 50.176 84.2125 50.4308 84.4673C50.2715 84.308 50.1122 84.1806 49.9211 84.0532C50.2078 84.2443 50.4944 84.4354 50.7811 84.6265C50.4626 84.4354 50.1122 84.2761 49.7618 84.1806C50.0804 84.2761 50.3989 84.4036 50.7493 84.4991C49.5071 84.1169 48.2011 83.9895 46.927 83.9258C47.2774 83.9258 47.5959 83.9576 47.9463 83.9895C44.1878 83.7665 40.4292 83.9895 36.7025 84.085C34.8232 84.1169 32.9121 84.1487 31.0328 84.0532C29.1217 83.9576 27.2106 83.8621 25.3632 83.4161C23.038 82.8428 20.8083 81.7598 18.7061 80.5813C16.2216 79.1798 13.8009 77.5553 11.6668 75.6442C7.49417 71.9494 4.21339 67.3627 2.20671 62.2027C0.10447 56.7878 -0.405163 50.8952 0.295583 45.1618C0.391139 44.4611 0.486695 43.7603 0.614103 43.0596C0.964476 40.9892 3.19414 39.3966 5.29638 39.8744C7.43047 40.384 8.86381 42.3588 8.48159 44.5566C8.22677 45.9263 8.06752 47.3277 7.97196 48.7292C7.97196 48.3789 8.0038 48.0604 8.03565 47.71C7.87639 50.4174 8.03563 53.1567 8.57712 55.8323C8.51341 55.4819 8.44972 55.1634 8.38601 54.813C8.89565 57.3293 9.75566 59.7819 10.9023 62.1071C10.7431 61.7886 10.5838 61.4701 10.4246 61.1515C11.6349 63.5723 13.1638 65.8019 14.9794 67.8086C14.7564 67.5538 14.5016 67.2671 14.2468 67.0123C16.2853 69.242 18.6105 71.185 21.1587 72.8413C20.872 72.6502 20.5854 72.459 20.2987 72.2679C21.4454 73.0005 22.6557 73.6694 23.8661 74.3065C24.8854 74.8161 25.9365 75.3257 27.0195 75.708C26.7009 75.6124 26.3824 75.485 26.0321 75.3894C27.6247 75.8991 29.3128 76.0583 30.9691 76.1539C30.6188 76.1539 30.3003 76.122 29.9499 76.0902C33.9314 76.3131 37.9129 76.0902 41.8944 76.0265C45.6848 75.9628 49.6663 75.8035 53.2975 77.0457C55.559 77.8102 57.1515 79.7213 57.47 82.1102C57.7248 84.1806 55.8456 86.3147 53.7434 86.3784C51.4819 86.4421 49.73 84.8813 49.4752 82.6517L49.3796 82.5561Z" fill="#F34D08"/>
<path d="M142.326 61.4493C151.474 61.4493 158.889 54.8324 158.889 46.67C158.889 38.5076 151.474 31.8906 142.326 31.8906C133.179 31.8906 125.763 38.5076 125.763 46.67C125.763 54.8324 133.179 61.4493 142.326 61.4493Z" fill="#F34D08"/>
<path d="M142.264 56.5733C147.489 56.5733 151.724 52.6516 151.724 47.814C151.724 42.9764 147.489 39.0547 142.264 39.0547C137.04 39.0547 132.804 42.9764 132.804 47.814C132.804 52.6516 137.04 56.5733 142.264 56.5733Z" fill="#FFC805"/>
<path d="M38.2345 61.7384C47.382 61.7384 54.7975 55.1214 54.7975 46.959C54.7975 38.7966 47.382 32.1797 38.2345 32.1797C29.0869 32.1797 21.6714 38.7966 21.6714 46.959C21.6714 55.1214 29.0869 61.7384 38.2345 61.7384Z" fill="#F34D08"/>
<path d="M38.171 56.8546C43.3957 56.8546 47.6311 52.9329 47.6311 48.0953C47.6311 43.2576 43.3957 39.3359 38.171 39.3359C32.9464 39.3359 28.7109 43.2576 28.7109 48.0953C28.7109 52.9329 32.9464 56.8546 38.171 56.8546Z" fill="#FFC805"/>
<path d="M89.8351 104.347C119.529 104.347 143.601 80.9884 143.601 52.1737C143.601 23.359 119.529 0 89.8351 0C60.1408 0 36.0688 23.359 36.0688 52.1737C36.0688 80.9884 60.1408 104.347 89.8351 104.347Z" fill="#F34D08"/>
<path d="M90.6289 94.8692C106.408 94.8692 119.2 82.0774 119.2 66.2979C119.2 50.5184 106.408 37.7266 90.6289 37.7266C74.8494 37.7266 62.0576 50.5184 62.0576 66.2979C62.0576 82.0774 74.8494 94.8692 90.6289 94.8692Z" fill="#FFC805"/>
<path d="M121.082 31.9531H60.149C53.429 31.9531 47.9814 37.4007 47.9814 44.1206C47.9814 50.8405 53.429 56.2881 60.149 56.2881H121.082C127.802 56.2881 133.249 50.8405 133.249 44.1206C133.249 37.4007 127.802 31.9531 121.082 31.9531Z" fill="#FFC805"/>
<path d="M87.47 44.9399C88.37 39.383 84.5949 34.1487 79.0381 33.2487C73.4812 32.3487 68.2469 36.1238 67.3469 41.6806C66.4469 47.2375 70.222 52.4718 75.7788 53.3718C81.3357 54.2718 86.57 50.4967 87.47 44.9399Z" fill="white"/>
<path d="M77.5712 51.7635C79.5942 51.7635 81.2342 50.1235 81.2342 48.1005C81.2342 46.0775 79.5942 44.4375 77.5712 44.4375C75.5482 44.4375 73.9082 46.0775 73.9082 48.1005C73.9082 50.1235 75.5482 51.7635 77.5712 51.7635Z" fill="#2D2D2D"/>
<path d="M103.181 53.6858C108.863 53.6858 113.469 49.0796 113.469 43.3976C113.469 37.7156 108.863 33.1094 103.181 33.1094C97.4988 33.1094 92.8926 37.7156 92.8926 43.3976C92.8926 49.0796 97.4988 53.6858 103.181 53.6858Z" fill="white"/>
<path d="M103.819 51.8434C105.754 51.8434 107.323 50.2747 107.323 48.3397C107.323 46.4046 105.754 44.8359 103.819 44.8359C101.884 44.8359 100.315 46.4046 100.315 48.3397C100.315 50.2747 101.884 51.8434 103.819 51.8434Z" fill="#2D2D2D"/>
<path d="M86.8088 67.8627C85.7896 67.8627 84.9614 66.0789 84.9614 63.8493C84.9614 61.6196 85.7896 59.8359 86.8088 59.8359C87.8281 59.8359 88.6563 61.6196 88.6563 63.8493C88.6563 66.0789 87.8281 67.8627 86.8088 67.8627Z" fill="#F34D08"/>
<path d="M93.5295 67.8314C94.5498 67.8314 95.377 66.0346 95.377 63.818C95.377 61.6015 94.5498 59.8047 93.5295 59.8047C92.5092 59.8047 91.6821 61.6015 91.6821 63.818C91.6821 66.0346 92.5092 67.8314 93.5295 67.8314Z" fill="#F34D08"/>
<path d="M90.0908 81.0085C86.6189 81.0085 83.4974 80.4989 80.8219 79.83C72.5403 77.7278 67.0936 73.5552 66.8706 73.3959C65.9788 72.6952 65.8195 71.453 66.5203 70.5611C67.221 69.6692 68.4633 69.5099 69.3551 70.2107C69.4507 70.2744 74.4833 74.0967 81.9685 75.9759C91.9064 78.4604 101.271 76.5174 109.839 70.1788C110.731 69.51 112.005 69.7011 112.674 70.5929C113.343 71.4848 113.152 72.7589 112.26 73.4278C104.392 79.2249 96.6842 81.0085 90.0908 81.0085Z" fill="#F34D08"/>
<ellipse cx="87.0386" cy="200.441" rx="39.2066" ry="0.785037" fill="#848484"/>
</svg>
