<svg width="31" height="31" viewBox="0 0 31 31" fill="none" xmlns="http://www.w3.org/2000/svg">
<circle cx="15.625" cy="15.875" r="14.625" fill="white" stroke="#747775"/>
<path d="M18.6929 8.25H12.5386C12.1305 8.25 11.7392 8.4121 11.4506 8.70064C11.1621 8.98918 11 9.38052 11 9.78857V21.0714C11 21.4795 11.1621 21.8708 11.4506 22.1594C11.7392 22.4479 12.1305 22.61 12.5386 22.61H18.6929C19.1009 22.61 19.4923 22.4479 19.7808 22.1594C20.0693 21.8708 20.2314 21.4795 20.2314 21.0714V9.78857C20.2314 9.38052 20.0693 8.98918 19.7808 8.70064C19.4923 8.4121 19.1009 8.25 18.6929 8.25ZM12.5386 9.27571H18.6929C18.8289 9.27571 18.9593 9.32975 19.0555 9.42593C19.1517 9.52211 19.2057 9.65255 19.2057 9.78857V11.25H12L12.0257 9.78857C12.0257 9.65255 12.0797 9.52211 12.1759 9.42593C12.2721 9.32975 12.4026 9.27571 12.5386 9.27571ZM18.6929 21.5843H12.5386C12.4026 21.5843 12.2721 21.5303 12.1759 21.4341C12.0797 21.3379 12.0257 21.2074 12.0257 21.0714V19.75H19.2057V21.0714C19.2057 21.2074 19.1517 21.3379 19.0555 21.4341C18.9593 21.5303 18.8289 21.5843 18.6929 21.5843Z" fill="#F34D08"/>
<circle cx="15.5" cy="20.75" r="0.5" fill="#F34D08"/>
</svg>
