<svg width="31" height="31" viewBox="0 0 31 31" fill="none" xmlns="http://www.w3.org/2000/svg">
<circle cx="15.625" cy="15.625" r="14.625" fill="white" stroke="#747775"/>
<path d="M15.315 24.3375C14.27 23.53 13.13 22.8848 11.895 22.4019C10.66 21.919 9.36167 21.6142 8 21.4875V13.08C9.40917 13.1908 10.7431 13.555 12.0019 14.1725C13.2606 14.79 14.365 15.5183 15.315 16.3575C16.265 15.5183 17.3694 14.79 18.6281 14.1725C19.8869 13.555 21.2208 13.1908 22.63 13.08V21.4875C21.2683 21.6142 19.97 21.919 18.735 22.4019C17.5 22.8848 16.36 23.53 15.315 24.3375ZM15.315 12.7C14.5233 12.7 13.8504 12.4229 13.2963 11.8687C12.7421 11.3146 12.465 10.6417 12.465 9.85C12.465 9.05833 12.7421 8.38542 13.2963 7.83125C13.8504 7.27708 14.5233 7 15.315 7C16.1067 7 16.7796 7.27708 17.3337 7.83125C17.8879 8.38542 18.165 9.05833 18.165 9.85C18.165 10.6417 17.8879 11.3146 17.3337 11.8687C16.7796 12.4229 16.1067 12.7 15.315 12.7Z" fill="#F34D08"/>
<circle cx="9.5" cy="14.5" r="0.5" fill="white"/>
<circle cx="21.5" cy="14.5" r="0.5" fill="white"/>
<rect x="15" y="17" width="0.5" height="6" rx="0.25" fill="white"/>
</svg>
