<svg width="20" height="20" viewBox="0 0 20 20" fill="none" xmlns="http://www.w3.org/2000/svg">
<path d="M15.625 8.75C15.625 8.91576 15.5592 9.07473 15.4419 9.19194C15.3247 9.30915 15.1658 9.375 15 9.375H11.875C11.7092 9.375 11.5503 9.30915 11.4331 9.19194C11.3158 9.07473 11.25 8.91576 11.25 8.75C11.25 8.58424 11.3158 8.42527 11.4331 8.30806C11.5503 8.19085 11.7092 8.125 11.875 8.125H15C15.1658 8.125 15.3247 8.19085 15.4419 8.30806C15.5592 8.42527 15.625 8.58424 15.625 8.75ZM15 10.625H11.875C11.7092 10.625 11.5503 10.6908 11.4331 10.8081C11.3158 10.9253 11.25 11.0842 11.25 11.25C11.25 11.4158 11.3158 11.5747 11.4331 11.6919C11.5503 11.8092 11.7092 11.875 11.875 11.875H15C15.1658 11.875 15.3247 11.8092 15.4419 11.6919C15.5592 11.5747 15.625 11.4158 15.625 11.25C15.625 11.0842 15.5592 10.9253 15.4419 10.8081C15.3247 10.6908 15.1658 10.625 15 10.625ZM18.125 4.375V15.625C18.125 15.9565 17.9933 16.2745 17.7589 16.5089C17.5245 16.7433 17.2065 16.875 16.875 16.875H3.125C2.79348 16.875 2.47554 16.7433 2.24112 16.5089C2.0067 16.2745 1.875 15.9565 1.875 15.625V4.375C1.875 4.04348 2.0067 3.72554 2.24112 3.49112C2.47554 3.2567 2.79348 3.125 3.125 3.125H16.875C17.2065 3.125 17.5245 3.2567 17.7589 3.49112C17.9933 3.72554 18.125 4.04348 18.125 4.375ZM16.875 15.625V4.375H3.125V15.625H16.875ZM10.6047 12.9688C10.6461 13.1293 10.6221 13.2998 10.5378 13.4426C10.4536 13.5855 10.316 13.689 10.1555 13.7305C9.99489 13.7719 9.82442 13.7479 9.68157 13.6636C9.53872 13.5794 9.43519 13.4418 9.39375 13.2812C9.18828 12.4797 8.37344 11.875 7.49922 11.875C6.625 11.875 5.81094 12.4797 5.60469 13.2812C5.56325 13.4418 5.45971 13.5794 5.31686 13.6636C5.17401 13.7479 5.00355 13.7719 4.84297 13.7305C4.68239 13.689 4.54485 13.5855 4.4606 13.4426C4.37636 13.2998 4.35231 13.1293 4.39375 12.9688C4.59656 12.2139 5.07598 11.5629 5.73672 11.1453C5.3856 10.7963 5.14602 10.3508 5.04835 9.86549C4.95068 9.38013 4.99932 8.8767 5.1881 8.41902C5.37688 7.96134 5.6973 7.57002 6.10875 7.29465C6.52019 7.01929 7.00413 6.87229 7.49922 6.87229C7.99431 6.87229 8.47825 7.01929 8.88969 7.29465C9.30113 7.57002 9.62156 7.96134 9.81034 8.41902C9.99912 8.8767 10.0478 9.38013 9.95009 9.86549C9.85242 10.3508 9.61284 10.7963 9.26172 11.1453C9.92318 11.5623 10.403 12.2135 10.6055 12.9688H10.6047ZM7.5 10.625C7.74723 10.625 7.9889 10.5517 8.19446 10.4143C8.40002 10.277 8.56024 10.0818 8.65485 9.85335C8.74946 9.62495 8.77421 9.37361 8.72598 9.13114C8.67775 8.88866 8.5587 8.66593 8.38388 8.49112C8.20907 8.3163 7.98634 8.19725 7.74386 8.14902C7.50139 8.10079 7.25005 8.12554 7.02165 8.22015C6.79324 8.31476 6.59801 8.47498 6.46066 8.68054C6.32331 8.8861 6.25 9.12777 6.25 9.375C6.25 9.70652 6.3817 10.0245 6.61612 10.2589C6.85054 10.4933 7.16848 10.625 7.5 10.625Z" fill="#182A4F"/>
</svg>
