<svg width="160" height="160" viewBox="0 0 160 160" fill="none" xmlns="http://www.w3.org/2000/svg">
<path d="M157.991 80.0044C157.991 103.67 147.442 124.868 130.801 139.165C129.327 140.444 127.809 141.66 126.237 142.824C124.736 143.934 123.191 144.99 121.611 145.976C109.561 153.586 95.2999 158 80 158C63.4481 158 48.0949 152.832 35.4679 144.04C34.1359 143.126 32.8484 142.166 31.5785 141.145C30.7705 140.497 29.9713 139.858 29.1899 139.174C12.5492 124.885 2 103.679 2 80.0044C2 36.9262 36.9242 2 80 2C123.076 2 158 36.9262 158 80.0044H157.991Z" fill="#E8CF41"/>
<path d="M39.036 92.6384C49.6647 92.6384 58.281 84.0221 58.281 73.3934C58.281 62.7647 49.6647 54.1484 39.036 54.1484C28.4073 54.1484 19.791 62.7647 19.791 73.3934C19.791 84.0221 28.4073 92.6384 39.036 92.6384Z" fill="#3A2F44"/>
<path d="M39.0351 82.5154C44.0725 82.5154 48.1561 78.4318 48.1561 73.3944C48.1561 68.357 44.0725 64.2734 39.0351 64.2734C33.9977 64.2734 29.9141 68.357 29.9141 73.3944C29.9141 78.4318 33.9977 82.5154 39.0351 82.5154Z" fill="#F19865"/>
<path d="M122.745 92.6384C133.374 92.6384 141.99 84.0221 141.99 73.3934C141.99 62.7647 133.374 54.1484 122.745 54.1484C112.116 54.1484 103.5 62.7647 103.5 73.3934C103.5 84.0221 112.116 92.6384 122.745 92.6384Z" fill="#3A2F44"/>
<path d="M122.744 82.5154C127.781 82.5154 131.865 78.4318 131.865 73.3944C131.865 68.357 127.781 64.2734 122.744 64.2734C117.707 64.2734 113.623 68.357 113.623 73.3944C113.623 78.4318 117.707 82.5154 122.744 82.5154Z" fill="#F19865"/>
<path d="M125.256 66.5465C119.976 90.4549 105.411 100.253 80.9198 100.253C56.4285 100.253 41.7098 90.4892 36.5835 66.5465C32.6145 48.0645 40.3125 31.5627 60.3718 25.0734H60.389C61.4777 24.6705 62.7892 24.019 64.1094 23.6847C69.6214 22.236 87.5548 17.0497 90.6409 11.9062C90.6409 11.9062 91.2067 13.6893 90.0665 16.1924C90.0665 16.1924 93.907 16.1581 96.7015 13.9636C96.7015 13.9636 93.7955 21.7216 101.373 25.2877C101.425 25.3049 101.451 25.322 101.485 25.3392C119.633 32.017 129.422 47.773 125.265 66.5465H125.256Z" fill="#3A2F44"/>
<path d="M50.3164 149.922C50.3164 149.922 55.1255 102.551 80.8941 102.774C106.663 102.997 109.689 151.637 109.689 151.637C109.689 151.637 77.1051 163.535 50.325 149.922H50.3164Z" fill="#3A2F44"/>
<path d="M62.5234 111.65C62.5234 111.65 57.3971 141.61 58.623 152.326C58.623 152.326 81.2798 161.533 105.051 150.817C105.051 150.817 99.7789 118.962 96.0499 110.87L91.7123 110.664C91.7123 110.664 91.5666 122.657 80.3882 122.657C69.2099 122.657 67.0496 111.984 67.0496 111.984L62.532 111.65H62.5234Z" fill="#E86123"/>
<path d="M65.541 111.314C65.541 111.314 65.6267 124.37 79.1797 124.79C92.7411 125.21 93.8298 114.074 94.2413 110.062" stroke="#E8E2CC" stroke-miterlimit="10"/>
<path d="M80.8929 117.08C102.179 117.08 119.434 101.824 119.434 83.0049C119.434 64.1857 102.179 48.9297 80.8929 48.9297C59.6071 48.9297 42.3516 64.1857 42.3516 83.0049C42.3516 101.824 59.6071 117.08 80.8929 117.08Z" fill="#3A2F44"/>
<path d="M63.5851 84.1447C74.5499 84.1447 83.4387 75.256 83.4387 64.2911C83.4387 53.3263 74.5499 44.4375 63.5851 44.4375C52.6202 44.4375 43.7314 53.3263 43.7314 64.2911C43.7314 75.256 52.6202 84.1447 63.5851 84.1447Z" fill="#F19865"/>
<path d="M98.1915 84.1447C109.156 84.1447 118.045 75.256 118.045 64.2911C118.045 53.3263 109.156 44.4375 98.1915 44.4375C87.2267 44.4375 78.3379 53.3263 78.3379 64.2911C78.3379 75.256 87.2267 84.1447 98.1915 84.1447Z" fill="#F19865"/>
<path d="M106.91 92.1351C106.91 106.511 95.26 115.658 80.8841 115.658C66.5082 115.658 54.8584 106.511 54.8584 92.1351C54.8584 77.7592 66.5082 66.1094 80.8841 66.1094C95.26 66.1094 106.91 77.7592 106.91 92.1351Z" fill="#F19865"/>
<path d="M69.045 78.6653C70.8773 78.6653 72.3626 76.3932 72.3626 73.5905C72.3626 70.7877 70.8773 68.5156 69.045 68.5156C67.2128 68.5156 65.7275 70.7877 65.7275 73.5905C65.7275 76.3932 67.2128 78.6653 69.045 78.6653Z" fill="black"/>
<path d="M92.7306 78.2903C94.5628 78.2903 96.0481 76.0182 96.0481 73.2155C96.0481 70.4127 94.5628 68.1406 92.7306 68.1406C90.8984 68.1406 89.4131 70.4127 89.4131 73.2155C89.4131 76.0182 90.8984 78.2903 92.7306 78.2903Z" fill="black"/>
<path d="M78.5433 87.9908C79.5612 87.9908 80.3863 87.1656 80.3863 86.1477C80.3863 85.1299 79.5612 84.3047 78.5433 84.3047C77.5254 84.3047 76.7002 85.1299 76.7002 86.1477C76.7002 87.1656 77.5254 87.9908 78.5433 87.9908Z" fill="#D48050"/>
<path d="M85.2903 87.9908C86.3082 87.9908 87.1334 87.1656 87.1334 86.1477C87.1334 85.1299 86.3082 84.3047 85.2903 84.3047C84.2724 84.3047 83.4473 85.1299 83.4473 86.1477C83.4473 87.1656 84.2724 87.9908 85.2903 87.9908Z" fill="#D48050"/>
<path d="M64.3486 93.9844C64.3486 93.9844 81.9906 101.382 99.0582 93.9844" stroke="#523704" stroke-width="0.75" stroke-linecap="round" stroke-linejoin="round"/>
<path d="M62.1015 125.526C62.1015 125.638 62.1015 125.758 62.1015 125.869C62.0415 129.049 61.1586 132.024 59.6584 134.604C57.5839 138.17 54.3092 140.956 50.3916 142.422C48.4286 143.16 46.3026 143.562 44.0738 143.562C42.4193 143.562 40.8163 143.34 39.299 142.92C37.2159 142.354 35.2871 141.411 33.5812 140.194C30.298 137.836 27.8377 134.399 26.7233 130.404C26.2861 128.852 26.0547 127.224 26.0547 125.535C26.0547 124.583 26.1318 123.64 26.269 122.732C26.9376 118.454 29.115 114.665 32.2354 111.948C35.4071 109.187 39.5476 107.516 44.0738 107.516C54.0263 107.516 62.1015 115.591 62.1015 125.543V125.526Z" fill="#EDEDEF"/>
<path d="M44.0817 139.554C52.2817 139.554 58.9291 132.907 58.9291 124.707C58.9291 116.507 52.2817 109.859 44.0817 109.859C35.8818 109.859 29.2344 116.507 29.2344 124.707C29.2344 132.907 35.8818 139.554 44.0817 139.554Z" fill="#F5F5F7"/>
<path d="M34.3878 134.562L33.582 126.984L39.7284 124.695L45.009 130.405L41.7172 136.86L34.3878 134.562Z" fill="#515252"/>
<path d="M44.5112 117.308L40.4736 112.464L45.0084 108.547L51.9606 110.913L51.5834 115.936L44.5112 117.308Z" fill="#515252"/>
<path d="M62.1016 125.859C62.0416 129.04 61.1587 132.014 59.6585 134.595C58.5441 135.246 57.4811 135.743 57.4811 135.743L54.3779 131.894C55.7066 129.288 56.7525 126.802 56.9239 124.694L61.5787 124.008C61.793 124.514 61.9645 125.157 62.1016 125.859Z" fill="#515252"/>
<path d="M50.6574 141.021C50.6574 141.021 50.4603 141.664 50.4003 142.409C48.4372 143.147 46.3112 143.549 44.0824 143.549C42.428 143.549 40.8249 143.327 39.3076 142.907C40.1649 142.581 41.6136 141.861 42.5223 140.523C42.5223 140.523 47.1685 141.561 50.6574 141.021Z" fill="#515252"/>
<path d="M34.199 113.637C32.0302 116.055 31.0958 120.401 31.0958 120.401C28.7984 121.147 27.6154 123.067 27.6154 123.067C27.2811 122.921 26.741 122.792 26.2695 122.698C26.9382 118.42 29.1156 114.632 32.2359 111.914C32.7502 113.003 34.199 113.629 34.199 113.629V113.637Z" fill="#515252"/>
<path d="M33.5815 140.18C30.2983 137.823 27.838 134.385 26.7236 130.391C26.7236 130.391 28.8667 133.948 31.0441 134.754C31.0441 134.754 31.1041 138.089 33.5901 140.18H33.5815Z" fill="#515252"/>
<path d="M39.7285 124.702C39.7285 124.702 41.5887 120.339 44.5119 117.312" stroke="#515252" stroke-width="0.2" stroke-miterlimit="10"/>
<path d="M45.0088 130.414C45.0088 130.414 51.1552 132.129 54.387 131.906" stroke="#515252" stroke-width="0.2" stroke-miterlimit="10"/>
<path d="M41.7168 136.867C41.7168 136.867 42.3769 140.45 43.0455 141.522" stroke="#515252" stroke-width="0.2" stroke-miterlimit="10"/>
<path d="M34.386 134.57C34.386 134.57 32.8515 135.025 31.0342 134.759" stroke="#515252" stroke-width="0.2" stroke-miterlimit="10"/>
<path d="M34.1982 113.65C34.1982 113.65 38.0644 112.304 40.4646 112.467" stroke="#515252" stroke-width="0.2" stroke-miterlimit="10"/>
<path d="M57.2924 124.649C56.1437 121.76 51.5918 115.948 51.5918 115.948L58.8697 115.211" stroke="#515252" stroke-width="0.2" stroke-miterlimit="10"/>
<path d="M26.714 130.398C26.414 127.724 26.7654 125.306 27.6141 123.086" stroke="#515252" stroke-width="0.2" stroke-miterlimit="10"/>
<path d="M33.5807 126.99C32.3206 125.455 31.0947 120.406 31.0947 120.406" stroke="#515252" stroke-width="0.2" stroke-miterlimit="10"/>
<path d="M51.96 110.923L53.7002 110.289" stroke="#515252" stroke-width="0.2" stroke-miterlimit="10"/>
<path d="M45.0089 108.554L44.5117 107.508" stroke="#515252" stroke-width="0.2" stroke-miterlimit="10"/>
<path d="M50.6582 141.023C50.6582 141.023 55.373 139.034 57.4904 135.742" stroke="#515252" stroke-width="0.2" stroke-miterlimit="10"/>
<path d="M80 158C123.078 158 158 123.078 158 80C158 36.9218 123.078 2 80 2C36.9218 2 2 36.9218 2 80C2 123.078 36.9218 158 80 158Z" stroke="#3A2F44" stroke-width="4" stroke-miterlimit="10"/>
</svg>
