<?xml version="1.0" encoding="UTF-8"?><svg id="Layer_2" xmlns="http://www.w3.org/2000/svg" viewBox="0 0 164.75 164.1"><defs><style>.cls-1{opacity:.1;}.cls-2{fill:#f50;}.cls-3{fill:#fff;}.cls-4{fill:#fbb911;}.cls-5{fill:#2bac67;}.cls-6{fill:#258e52;}.cls-7{fill:#81c127;}</style></defs><g id="Graphic_Elements"><g><rect class="cls-5" y="19.39" width="164.75" height="144.7" rx="17.83" ry="17.83"/><path class="cls-1" d="M147.14,150.31H17.61C7.88,150.31,0,142.42,0,132.7v13.79C0,156.21,7.88,164.1,17.61,164.1H147.14c9.73,0,17.61-7.88,17.61-17.61v-13.79c0,9.73-7.88,17.61-17.61,17.61Z"/><path class="cls-6" d="M125.93,156.83l-42.29,7.26-41.04-7.2c-9.8-1.72-16.95-10.23-16.95-20.19V9.48C25.65,3.5,31.15-.97,37.01,.26l46.18,14.34L131.64,.2c5.85-1.2,11.32,3.27,11.32,9.24v127.2c0,9.98-7.19,18.51-17.03,20.2Z"/><path class="cls-1" d="M125.93,146.13l-42.29,7.26-41.04-7.2c-9.8-1.72-16.95-10.23-16.95-20.19v10.7c0,9.95,7.15,18.46,16.95,20.19l41.04,7.2,42.29-7.26c9.84-1.69,17.03-10.22,17.03-20.2v-10.7c0,9.98-7.19,18.51-17.03,20.2Z"/><g><path class="cls-1" d="M110.74,70.43H56.42c-12.95,0-23.9,10.15-24.25,23.1-.37,13.43,10.41,24.44,23.76,24.44,6.91,0,13.12-2.95,17.46-7.65,2.5-2.71,6.07-4.18,9.76-4.18h.38c3.81,0,7.37,1.67,9.99,4.43,4.68,4.92,11.44,7.85,18.87,7.35,11.77-.79,21.32-10.37,22.07-22.14,.89-13.84-10.07-25.34-23.72-25.34Z"/><path class="cls-5" d="M110.74,64.97H56.42c-12.95,0-23.9,10.15-24.25,23.1-.37,13.43,10.41,24.44,23.76,24.44,6.91,0,13.12-2.95,17.46-7.65,2.5-2.71,6.07-4.18,9.76-4.18h.38c3.81,0,7.37,1.67,9.99,4.43,4.68,4.92,11.44,7.85,18.87,7.35,11.77-.79,21.32-10.37,22.07-22.14,.89-13.84-10.07-25.34-23.72-25.34Z"/><path class="cls-5" d="M100.94,64.97h-35.22l6.75-5.33c.85-.67,1.9-1.04,2.98-1.04h15.76c1.08,0,2.13,.36,2.98,1.04l6.75,5.33Z"/><rect class="cls-5" x="81.05" y="53.92" width="4.56" height="4.68"/><rect class="cls-5" x="79.59" y="51.59" width="7.49" height="5.19" rx=".69" ry=".69"/><circle class="cls-4" cx="55.25" cy="88.61" r="15.3"/><g id="Group_128" class="cls-1"><path id="Path_1068" d="M54.78,98.67c-.3-.32-.47-.74-.46-1.18l.36-16.23c.02-.92,.78-1.57,1.69-1.45h0c.92,.02,1.64,.78,1.62,1.69l-.35,16c-.01,.63-.36,1.24-.93,1.51-.69,.33-1.45,.16-1.93-.34Z"/><path id="Path_1068-2" d="M46.66,88.64c.3-.56,.92-.88,1.55-.86l16,.35c.92,.02,1.64,.78,1.62,1.69h0c.08,.91-.6,1.65-1.52,1.63l-16.23-.36c-.44,0-.86-.19-1.16-.51-.48-.5-.62-1.27-.26-1.94Z"/></g><g id="Group_128-2"><g><path id="Path_1068-3" class="cls-3" d="M53.96,97.95c-.3-.32-.47-.74-.46-1.18l.36-16.23c.02-.92,.78-1.57,1.69-1.45h0c.92,.02,1.64,.78,1.62,1.69l-.35,16c-.01,.63-.36,1.24-.93,1.51-.69,.33-1.45,.16-1.93-.34Z"/><path id="Path_1068-4" class="cls-3" d="M45.79,87.73c.3-.56,.92-.88,1.55-.86l16,.35c.92,.02,1.64,.78,1.62,1.69h0c.08,.91-.6,1.65-1.52,1.63l-16.23-.36c-.44,0-.86-.19-1.16-.51-.48-.5-.62-1.27-.26-1.94Z"/></g></g><g class="cls-1"><circle cx="112.18" cy="78.97" r="4.57"/><circle cx="112.18" cy="100.27" r="4.57"/><circle cx="101.53" cy="89.85" r="4.57"/><circle cx="122.83" cy="89.85" r="4.57"/></g><g><circle class="cls-7" cx="111.35" cy="77.88" r="4.57"/><circle class="cls-2" cx="111.35" cy="99.18" r="4.57"/><circle class="cls-4" cx="100.7" cy="88.76" r="4.57"/><circle class="cls-3" cx="122" cy="88.76" r="4.57"/></g><path class="cls-5" d="M81.66,53.89c-.05-.28-1.26-6.85,2.99-11.02,3.17-3.11,8.36-3.93,15.42-2.44,3.87,.82,7.01,.32,9.34-1.48,4.43-3.43,4.81-10.52,4.81-10.59l3.4,.15c-.01,.35-.43,8.72-6.11,13.12-3.16,2.46-7.25,3.17-12.15,2.13-5.86-1.24-10.01-.73-12.32,1.52-2.95,2.88-2.05,7.92-2.04,7.97l-3.34,.64Z"/></g></g></g></svg>