<?xml version="1.0" encoding="UTF-8"?><svg id="Layer_2" xmlns="http://www.w3.org/2000/svg" viewBox="0 0 64 64"><defs><style>.cls-1{fill:#fff;}.cls-2{opacity:.3;}</style></defs><g id="Graphic_Elements"><g><circle class="cls-1" cx="32" cy="32" r="32"/><path id="Path_3277" class="cls-2" d="M24.9,51.19c-.11,0-.23,0-.34-.02-1.17-.1-2.26-.74-2.98-1.77l-10.52-10.93c-1.45-2.03-1.13-4.97,.7-6.57,0,0,0,0,0,0,1.83-1.6,4.49-1.26,5.94,.77,0,0,0,0,0,0l7.7,6.96,19.9-20.22c1.72-1.75,4.39-1.63,5.97,.28h0c1.58,1.91,1.47,4.87-.25,6.62,0,0,0,0,0,0l-23.26,23.64c-.78,.79-1.8,1.23-2.86,1.23Z"/></g></g></svg>