<svg width="111" height="111" viewBox="0 0 111 111" fill="none" xmlns="http://www.w3.org/2000/svg">
<circle cx="54.9398" cy="54.8697" r="27.108" fill="#FFFF0B"/>
<rect x="12.9479" y="87.1289" width="11.8733" height="2.259" rx="1.1295" transform="rotate(-34.3691 12.9479 87.1289)" fill="#FFFF0B"/>
<rect x="85.178" y="31.3242" width="11.8733" height="2.259" rx="1.1295" transform="rotate(-34.3691 85.178 31.3242)" fill="#FFFF0B"/>
<rect x="53.9927" y="103.75" width="17.8099" height="2.37466" rx="1.1295" transform="rotate(-90 53.9927 103.75)" fill="#FFFF0B"/>
<rect x="53.9927" y="24.2051" width="17.8099" height="2.37466" rx="1.1295" transform="rotate(-90 53.9927 24.2051)" fill="#FFFF0B"/>
<rect x="86.3162" y="80.6816" width="11.8733" height="2.259" rx="1.1295" transform="rotate(34 86.3162 80.6816)" fill="#FFFF0B"/>
<rect x="14.7015" y="24.2002" width="11.8733" height="2.259" rx="1.1295" transform="rotate(34 14.7015 24.2002)" fill="#FFFF0B"/>
<rect x="103.42" y="56.2578" width="17.8099" height="2.37466" rx="1.1295" transform="rotate(-180 103.42 56.2578)" fill="#FFFF0B"/>
<rect x="24.2699" y="56.2578" width="17.8099" height="2.37466" rx="1.1295" transform="rotate(-180 24.2699 56.2578)" fill="#FFFF0B"/>
</svg>
