<?xml version="1.0" encoding="UTF-8"?><svg id="Layer_2" xmlns="http://www.w3.org/2000/svg" viewBox="0 0 137.32 93.16"><defs><style>.cls-1{fill:#ff7925;}.cls-2{fill:#d15f20;}</style></defs><g id="Graphic_Elements"><g><g><path class="cls-2" d="M42.63,81.8L3.34,45.88c-4.46-3.58-4.46-10.2,0-13.78L43.77,10.76c3.33-2.68,8.37-.38,8.37,3.82l-1.14,63.41c0,4.19-5.04,6.49-8.37,3.82Z"/><path class="cls-2" d="M45.58,29.39s60.73-10.99,91.74,63.77c0,0-48.67-41.78-93.14-32.17"/></g><path class="cls-1" d="M40.73,76.84L3.34,45.88c-4.32-3.58-4.32-10.2,0-13.78L40.73,1.15c3.23-2.68,8.12-.38,8.12,3.82V73.02c0,4.19-4.89,6.49-8.12,3.82Z"/><path class="cls-1" d="M44.18,19.79s58.87-10.99,88.93,63.77c0,0-48.98-39.42-88.93-27.28"/></g></g></svg>