<?xml version="1.0" encoding="UTF-8"?><svg id="Layer_2" xmlns="http://www.w3.org/2000/svg" viewBox="0 0 662.07 577.72"><defs><style>.cls-1{opacity:.1;}.cls-2,.cls-3{fill:#fff;}.cls-3{opacity:.25;}</style></defs><g id="Layer_1-2"><g><path class="cls-1" d="m662.07,382.34c-10.21-6.96-22.54-11.03-35.82-11.03-7.8,0-15.27,1.41-22.17,3.97-9.97-22.15-32.22-37.58-58.08-37.58-35.17,0-63.68,28.51-63.68,63.68,0,1.58.08,3.14.19,4.69-7.4-3.01-15.5-4.69-23.98-4.69-15.72,0-30.1,5.71-41.2,15.14-3.86-22-23.05-38.72-46.16-38.72-6.51,0-12.71,1.33-18.35,3.73-7.74-15.23-23.55-25.68-41.81-25.68-16.71,0-31.36,8.75-39.66,21.9-6.96-4.1-15.07-6.46-23.74-6.46-10.16,0-19.55,3.24-27.23,8.73-7.68-5.49-17.07-8.73-27.23-8.73s-19.58,3.25-27.26,8.75c-10.77-19.9-31.82-33.41-56.04-33.41-31.8,0-58.16,23.32-62.91,53.79-11.54-11.63-27.53-18.83-45.2-18.83-.58,0-1.16.03-1.74.04.06,4.25.12,8.41.18,12.44-.06-.02-.12-.03-.18-.05v183.68h662.07v-195.38h0Z"/><path class="cls-2" d="m452.98,377.55c0,1.95-1.58,3.52-3.52,3.52s-3.52-1.58-3.52-3.52,3.52-9.67,3.52-9.67c0,0,3.52,7.73,3.52,9.67Z"/><path class="cls-2" d="m374.69,331.07c0,1.95-1.58,3.52-3.52,3.52s-3.52-1.58-3.52-3.52,3.52-9.67,3.52-9.67c0,0,3.52,7.73,3.52,9.67Z"/><path class="cls-2" d="m440.23,256.71c0,1.95-1.58,3.52-3.52,3.52s-3.52-1.58-3.52-3.52,3.52-9.67,3.52-9.67c0,0,3.52,7.73,3.52,9.67Z"/><path class="cls-2" d="m416.4,187.08c0,1.95-1.58,3.52-3.52,3.52s-3.52-1.58-3.52-3.52,3.52-9.67,3.52-9.67c0,0,3.52,7.73,3.52,9.67Z"/><path class="cls-2" d="m619.6,235.32c0,1.95-1.58,3.52-3.52,3.52s-3.52-1.58-3.52-3.52,3.52-9.67,3.52-9.67c0,0,3.52,7.73,3.52,9.67Z"/><path class="cls-2" d="m623.12,148.28c0,1.95-1.58,3.52-3.52,3.52s-3.52-1.58-3.52-3.52,3.52-9.67,3.52-9.67c0,0,3.52,7.73,3.52,9.67Z"/><path class="cls-2" d="m484.68,326.94c0,1.95-1.58,3.52-3.52,3.52s-3.52-1.58-3.52-3.52,3.52-9.67,3.52-9.67c0,0,3.52,7.73,3.52,9.67Z"/><path class="cls-2" d="m632.63,337.67c0,1.95-1.58,3.52-3.52,3.52s-3.52-1.58-3.52-3.52,3.52-9.67,3.52-9.67c0,0,3.52,7.73,3.52,9.67Z"/><path class="cls-2" d="m227.04,317.88c0,1.95-1.58,3.52-3.52,3.52s-3.52-1.58-3.52-3.52,3.52-9.67,3.52-9.67c0,0,3.52,7.73,3.52,9.67Z"/><path class="cls-2" d="m319.03,68.13c0,1.95-1.58,3.52-3.52,3.52s-3.52-1.58-3.52-3.52,3.52-9.67,3.52-9.67c0,0,3.52,7.73,3.52,9.67Z"/><path class="cls-2" d="m245.16,197.51c0,1.95-1.58,3.52-3.52,3.52s-3.52-1.58-3.52-3.52,3.52-9.67,3.52-9.67c0,0,3.52,7.73,3.52,9.67Z"/><path class="cls-2" d="m187.83,260.33c0,1.95-1.58,3.52-3.52,3.52s-3.52-1.58-3.52-3.52,3.52-9.67,3.52-9.67c0,0,3.52,7.73,3.52,9.67Z"/><path class="cls-2" d="m538.91,304.68c0,1.95-1.58,3.52-3.52,3.52s-3.52-1.58-3.52-3.52,3.52-9.67,3.52-9.67c0,0,3.52,7.73,3.52,9.67Z"/><path class="cls-2" d="m158.99,128.82c0,1.95-1.58,3.52-3.52,3.52s-3.52-1.58-3.52-3.52,3.52-9.67,3.52-9.67c0,0,3.52,7.73,3.52,9.67Z"/><path class="cls-2" d="m273.94,9.67c0,1.95-1.58,3.52-3.52,3.52s-3.52-1.58-3.52-3.52,3.52-9.67,3.52-9.67c0,0,3.52,7.73,3.52,9.67Z"/><path class="cls-2" d="m203.84,119.36c0,1.95-1.58,3.52-3.52,3.52s-3.52-1.58-3.52-3.52,3.52-9.67,3.52-9.67c0,0,3.52,7.73,3.52,9.67Z"/><path class="cls-2" d="m155.47,34.62c0,1.95-1.58,3.52-3.52,3.52s-3.52-1.58-3.52-3.52,3.52-9.67,3.52-9.67c0,0,3.52,7.73,3.52,9.67Z"/><path class="cls-2" d="m481.16,141.68c0,1.95-1.58,3.52-3.52,3.52s-3.52-1.58-3.52-3.52,3.52-9.67,3.52-9.67c0,0,3.52,7.73,3.52,9.67Z"/><path class="cls-2" d="m579.72,28.02c0,1.95-1.58,3.52-3.52,3.52s-3.52-1.58-3.52-3.52,3.52-9.67,3.52-9.67c0,0,3.52,7.73,3.52,9.67Z"/><path class="cls-2" d="m538.91,106.97c0,1.95-1.58,3.52-3.52,3.52s-3.52-1.58-3.52-3.52,3.52-9.67,3.52-9.67c0,0,3.52,7.73,3.52,9.67Z"/><path class="cls-2" d="m419.92,87.48c0,1.95-1.58,3.52-3.52,3.52s-3.52-1.58-3.52-3.52,3.52-9.67,3.52-9.67c0,0,3.52,7.73,3.52,9.67Z"/><path class="cls-2" d="m436.7,34.62c0,1.95-1.58,3.52-3.52,3.52s-3.52-1.58-3.52-3.52,3.52-9.67,3.52-9.67c0,0,3.52,7.73,3.52,9.67Z"/><path class="cls-2" d="m535.38,177.42c0,1.95-1.58,3.52-3.52,3.52s-3.52-1.58-3.52-3.52,3.52-9.67,3.52-9.67c0,0,3.52,7.73,3.52,9.67Z"/><path class="cls-2" d="m131.09,299.44c0,1.95-1.58,3.52-3.52,3.52s-3.52-1.58-3.52-3.52,3.52-9.67,3.52-9.67c0,0,3.52,7.73,3.52,9.67Z"/><path class="cls-2" d="m41.13,187.08c0,1.95-1.58,3.52-3.52,3.52s-3.52-1.58-3.52-3.52,3.52-9.67,3.52-9.67c0,0,3.52,7.73,3.52,9.67Z"/><path class="cls-2" d="m37.61,317.88c0,1.95-1.58,3.52-3.52,3.52s-3.52-1.58-3.52-3.52,3.52-9.67,3.52-9.67c0,0,3.52,7.73,3.52,9.67Z"/><path class="cls-2" d="m88.82,100.37c0,1.95-1.58,3.52-3.52,3.52s-3.52-1.58-3.52-3.52,3.52-9.67,3.52-9.67c0,0,3.52,7.73,3.52,9.67Z"/><path class="cls-2" d="m68.12,21.42c0,1.95-1.58,3.52-3.52,3.52s-3.52-1.58-3.52-3.52,3.52-9.67,3.52-9.67c0,0,3.52,7.73,3.52,9.67Z"/><path class="cls-3" d="m169.09,198.06c0-14.7-11.91-26.61-26.61-26.61-6.97,0-13.32,2.69-18.06,7.08-3.51-4.32-8.85-7.08-14.85-7.08-10.56,0-19.12,8.56-19.12,19.12,0,.65.03,1.3.1,1.94-.94-.1-1.9-.16-2.87-.16-14.7,0-26.61,11.91-26.61,26.61s11.91,26.61,26.61,26.61c1.9,0,3.75-.2,5.54-.58,3.47,3.5,8.27,5.67,13.58,5.67,8.78,0,16.17-5.92,18.42-13.99,2.86,1.71,6.2,2.69,9.77,2.69,9.95,0,18.13-7.6,19.03-17.32,8.91-4.3,15.06-13.42,15.06-23.98Z"/><path class="cls-3" d="m488.19,244.55c1.02,10.89,10.18,19.42,21.34,19.42,4.01,0,7.75-1.1,10.96-3.01,2.52,9.04,10.81,15.68,20.65,15.68,5.96,0,11.34-2.43,15.23-6.35,2,.42,4.08.65,6.21.65,16.48,0,29.83-13.36,29.83-29.83,0-16.48-13.36-29.83-29.83-29.83-1.09,0-2.16.06-3.22.17.07-.71.11-1.44.11-2.17,0-11.84-9.6-21.44-21.44-21.44-6.72,0-12.72,3.09-16.65,7.93-5.32-4.92-12.43-7.93-20.25-7.93-16.48,0-29.83,13.36-29.83,29.83,0,11.84,6.89,22.06,16.88,26.88Z"/><path class="cls-3" d="m354.05,89.55c-2.41-.69-4.84-.97-7.21-.9-1.63-3.02-4.43-5.4-7.99-6.42-5.26-1.5-10.68.4-13.91,4.4-1.68-2.51-4.22-4.47-7.35-5.37-6.57-1.87-13.4,1.57-15.89,7.78-1.48-.8-3.07-1.46-4.76-1.94-12.52-3.57-25.56,3.68-29.13,16.2-3.57,12.52,3.68,25.56,16.2,29.13,4.3,1.23,8.67,1.18,12.69.07,1.68,2.61,4.26,4.65,7.48,5.57,6.35,1.81,12.93-1.36,15.61-7.17,1.68,2.43,4.18,4.32,7.24,5.19,4.12,1.17,8.33.25,11.52-2.13.83.34,1.69.65,2.58.9,12.52,3.57,25.56-3.68,29.13-16.2,3.57-12.52-3.68-25.56-16.2-29.13Z"/><path class="cls-3" d="m0,577.72h662.07v-94.93s-16.45-5.68-25.48-5.68c-8.11,0-15.88,1.63-23.06,4.6-10.37-25.66-33.5-43.53-60.4-43.53-36.57,0-66.22,33.03-66.22,73.77,0,1.83.08,3.63.2,5.43-7.7-3.49-16.11-5.43-24.94-5.43-16.34,0-31.3,6.61-42.85,17.54-4.02-25.48-23.97-44.85-48-44.85-6.77,0-13.22,1.54-19.08,4.32-8.05-17.65-24.49-29.75-43.47-29.75-17.37,0-32.61,10.13-41.25,25.37-7.24-4.75-15.67-7.48-24.69-7.48-10.56,0-20.33,3.75-28.32,10.12-7.98-6.36-17.75-10.12-28.32-10.12s-20.36,3.76-28.35,10.14c-11.2-23.05-33.09-38.71-58.27-38.71-33.07,0-60.48,27.01-65.42,62.31-9.13-10.25-34.18-20.42-34.18-20.42v87.29Z"/><path class="cls-3" d="m324.9,168.84c-11.04,25.86-24.18,50.74-37.8,75.3,0,0-5.87-8.41-5.87-8.41,17.71-3.66,36.74-7.01,54.6-10.2-23.47,34.2-47.85,68.01-75.32,99.14,16.99-32.65,36.85-63.65,57.4-94.13,0,0,5.98,9.24,5.98,9.24-3.38.62-6.76,1.28-10.14,1.87-6,1.06-14.4,2.56-20.32,3.52-6.2,1.08-16.12,2.58-22.44,3.56,16.86-27.3,34.2-54.53,53.91-79.88h0Z"/></g></g></svg>