<?xml version="1.0" encoding="UTF-8"?><svg id="Layer_2" xmlns="http://www.w3.org/2000/svg" viewBox="0 0 164 164"><defs><style>.cls-1{fill:#008cd2;}.cls-2{fill:#007aaa;}.cls-3{fill:#ffc000;}.cls-4{fill:#e5a900;}.cls-5{fill:#ff7925;}.cls-6{fill:#db6421;}</style></defs><g id="Graphic_Elements"><g><path class="cls-6" d="M9.61,34.4l66.65,42.77L54.46,1.75C35.8,6.99,19.95,18.76,9.61,34.4Z"/><path class="cls-5" d="M11.73,31.39l63.11,40.96L54.18,0C36.52,5.04,21.51,16.35,11.73,31.39Z"/><path class="cls-2" d="M91.78,19.55c-6.88,0-13.53,.98-19.83,2.78l19.83,69.44-57.52,43.66c13.19,17.35,34.04,28.56,57.52,28.56,39.89,0,72.22-32.34,72.22-72.22S131.66,19.55,91.78,19.55Z"/><path class="cls-1" d="M83.74,13.69c-6.88,0-13.53,.98-19.83,2.78l19.83,69.44-57.52,43.66c13.19,17.35,34.04,28.56,57.52,28.56,39.89,0,72.22-32.34,72.22-72.22S123.62,13.69,83.74,13.69Z"/><path class="cls-4" d="M13.44,44.37C5.8,55.68,1.35,69.17,1.35,83.68c0,16.41,5.68,31.53,15.25,43.66l59.66-43.66L13.44,44.37Z"/><path class="cls-3" d="M11.65,41.74C4.29,53.05,0,66.55,0,81.05c0,16.41,5.48,31.53,14.7,43.66l57.52-43.66L11.65,41.74Z"/></g></g></svg>