<?xml version="1.0" encoding="UTF-8"?><svg id="Layer_2" xmlns="http://www.w3.org/2000/svg" viewBox="0 0 240.55 163.95"><defs><style>.cls-1{fill:#e86013;}.cls-2{fill:#fff;}.cls-3{fill:#ffc000;}.cls-4{fill:#e5a900;}.cls-5{fill:#ff7925;}.cls-6{fill:#1b934e;}.cls-7{fill:#2bac67;}</style></defs><g id="Graphic_Elements"><g><path class="cls-6" d="M225.53,34.66l-58.09-25.28c-4.28-1.86-9.24-1.3-12.99,1.48l-50.93,37.67c-3.76,2.78-5.74,7.35-5.22,11.99l7.16,62.95c.53,4.64,3.49,8.65,7.77,10.51l58.09,25.28c4.28,1.86,9.24,1.3,12.99-1.48l50.93-37.67c3.76-2.78,5.74-7.35,5.22-11.99l-7.16-62.95c-.53-4.64-3.49-8.65-7.77-10.51Z"/><path class="cls-7" d="M214.77,29.97L156.68,4.7c-4.28-1.86-9.24-1.3-12.99,1.48l-50.93,37.67c-3.76,2.78-5.74,7.35-5.22,11.99l7.16,62.95c.53,4.64,3.49,8.65,7.77,10.51l58.09,25.28c4.28,1.86,9.24,1.3,12.99-1.48l50.93-37.67c3.76-2.78,5.74-7.35,5.22-11.99l-7.16-62.95c-.53-4.64-3.49-8.65-7.77-10.51Z"/><rect class="cls-1" x="26.95" y="21.48" width="126.26" height="126.26" rx="15.21" ry="15.21" transform="translate(46.47 -31.03) rotate(26.13)"/><rect class="cls-5" x="16.21" y="16.21" width="126.26" height="126.26" rx="15.21" ry="15.21" transform="translate(43.05 -26.83) rotate(26.13)"/><path class="cls-2" d="M198.94,55.54c-5.58,0-9.86,1.7-12.83,5.11-2.97,3.41-4.46,8.23-4.46,14.46s1.65,11.16,4.95,14.56c3.3,3.41,7.74,5.12,13.32,5.12,2.97,0,5.49-.4,7.55-1.2,2.06-.79,4.04-1.7,5.93-2.71,1.23,1.01,2.19,2.23,2.88,3.64,.69,1.42,1.03,3.07,1.03,4.95,0,2.97-1.65,5.49-4.95,7.56-3.3,2.06-8.31,3.1-15.06,3.1-4.85,0-9.42-.69-13.7-2.06-4.28-1.38-8.01-3.5-11.2-6.36-3.19-2.87-5.71-6.49-7.55-10.87-1.85-4.38-2.77-9.62-2.77-15.71,0-5.66,.89-10.63,2.66-14.95,1.78-4.31,4.2-7.95,7.28-10.93,3.08-2.97,6.68-5.22,10.81-6.74,4.13-1.52,8.55-2.28,13.26-2.28,6.66,0,11.83,1.09,15.49,3.26,3.66,2.17,5.49,4.97,5.49,8.38,0,1.88-.47,3.51-1.41,4.88-.94,1.38-2.03,2.47-3.26,3.27-1.89-1.23-3.9-2.29-6.04-3.15-2.14-.87-4.62-1.31-7.44-1.31Z"/><path class="cls-2" d="M76.59,93.67c-1.46-5.3-2.95-10.68-4.49-16.11-1.53-5.44-3.07-10.73-4.6-15.84-1.54-5.11-2.97-9.6-4.28-13.44-.81-2.3-2.64-4-5.48-5.07-2.84-1.09-6.12-1.64-9.82-1.65-2.59-.02-5.16,.32-7.72,.98-.89,.22-1.7,.46-2.43,.69-2.02,.65-3.62,2.19-4.37,4.18-.33,.88-.7,1.87-1.11,2.98-.93,2.5-1.97,5.37-3.09,8.58-1.12,3.21-2.31,6.64-3.59,10.26-1.27,3.62-2.47,7.14-3.59,10.59-1.12,3.44-2.15,6.65-3.09,9.59-.93,2.96-1.67,5.43-2.19,7.43-.38,1.42-.71,2.62-1.01,3.67-.3,1.04-.45,2.06-.45,3.11,0,2.29,.89,4.08,2.7,5.39,1.81,1.3,4.6,1.97,8.38,1.98,1.62,0,3.01-.12,4.16-.38,1.15-.24,2.24-.55,3.27-.93,.6-2.22,1.2-4.51,1.81-6.88,.6-2.36,1.2-4.66,1.8-6.87l20.09,.06,1.97,7.67c.37,1.27,.79,2.38,1.27,3.34,.47,.96,1.1,1.75,1.87,2.33,.79,.61,1.78,1.05,3,1.36,1.21,.29,2.72,.46,4.49,.46,2.44,.01,4.55-.31,6.33-.93,1.79-.62,3.12-1.44,4.01-2.48-1.09-4.07-2.38-8.77-3.84-14.06Zm-35.92-12.73c1.05-3.91,2.23-7.78,3.54-11.59,1.31-3.81,2.48-7.27,3.53-10.37h.67c.88,3.04,1.85,6.47,2.91,10.29,1.06,3.82,2.1,7.73,3.12,11.73l-13.77-.05Z"/><circle class="cls-4" cx="123.42" cy="76.35" r="60.84"/><circle class="cls-3" cx="112.95" cy="76.35" r="60.84"/><path class="cls-2" d="M114,102.5c-1.02,0-2.21-.03-3.58-.09-1.37-.06-2.79-.18-4.26-.36s-2.91-.4-4.34-.67c-1.44-.27-2.75-.64-3.94-1.12-3.29-1.26-4.93-3.44-4.93-6.54V51.88c0-1.25,.34-2.22,1.03-2.91,.69-.69,1.63-1.24,2.82-1.66,2.03-.72,4.57-1.24,7.61-1.57,3.05-.33,6.18-.5,9.41-.5,7.65,0,13.53,1.28,17.65,3.85,4.12,2.57,6.18,6.54,6.18,11.91,0,2.69-.78,5-2.33,6.95-1.55,1.94-3.64,3.36-6.27,4.25,2.99,.84,5.48,2.36,7.48,4.57,2,2.22,3,4.99,3,8.34,0,5.91-2.2,10.29-6.58,13.13-4.39,2.83-10.71,4.25-18.95,4.25Zm-5.82-34.49h6.54c2.57,0,4.44-.48,5.6-1.44,1.17-.95,1.75-2.36,1.75-4.21,0-1.61-.67-2.9-2.02-3.85-1.34-.95-3.36-1.44-6.05-1.44-.9,0-1.92,.03-3.09,.1-1.17,.06-2.08,.15-2.73,.27v10.57Zm0,21.86c.84,.24,1.91,.41,3.23,.5s2.57,.13,3.76,.13c2.39,0,4.38-.49,5.96-1.48,1.58-.98,2.37-2.52,2.37-4.61,0-1.97-.66-3.38-1.97-4.21-1.31-.84-3.31-1.26-6-1.26h-7.35v10.93Z"/></g></g></svg>