<?xml version="1.0" encoding="UTF-8"?><svg id="Layer_2" xmlns="http://www.w3.org/2000/svg" viewBox="0 0 164 164"><defs><style>.cls-1{fill:#fff;}.cls-2{fill:#ff94b5;}.cls-3{fill:#ac82cf;}</style></defs><g id="Graphic_Elements"><g><path class="cls-3" d="M73.14,164h77.81c7.21,0,13.06-6.89,13.06-15.39V55.06c0-8.5-5.85-15.39-13.06-15.39H73.14v124.32Z"/><path class="cls-1" d="M117.72,125.24c-.49,.25-1.4,.45-2.73,.6-1.33,.15-2.6,.23-3.84,.23-2.53,0-4.44-.42-5.73-1.25s-1.94-2.6-1.94-5.32v-10.17h-13.96c-.43-.68-.79-1.57-1.06-2.68s-.42-2.22-.42-3.33c0-2.22,.49-3.84,1.48-4.85,.99-1.02,2.31-1.53,3.98-1.53h9.99v-15.53c.62-.18,1.56-.38,2.82-.6,1.26-.21,2.51-.32,3.74-.32,2.46,0,4.36,.43,5.69,1.29,1.32,.86,1.99,2.68,1.99,5.45v9.71h13.68c.31,.74,.63,1.65,.97,2.73,.34,1.08,.51,2.2,.51,3.37,0,2.16-.49,3.74-1.48,4.76s-2.28,1.53-3.88,1.53h-9.8v15.9Z"/><path class="cls-2" d="M99.08,129.94H13.06C5.85,129.94,0,123.05,0,114.55V15.39c0-8.5,5.85-15.39,13.06-15.39h55.37l30.65,129.94Z"/><polygon class="cls-1" points="73.14 164 99.08 129.94 54.7 129.94 73.14 164"/><path class="cls-1" d="M39.01,53.08l-8.55,2.65c-.86-.57-1.71-1.37-2.57-2.4-.86-1.03-1.28-2.45-1.28-4.28,0-3.42,2.08-5.82,6.24-7.19l9.58-3.25h3.17c2.45,0,4.39,.71,5.82,2.14s2.14,3.36,2.14,5.82v44.57c-.63,.11-1.55,.27-2.78,.47-1.23,.2-2.47,.3-3.72,.3s-2.38-.09-3.38-.26c-1-.17-1.84-.51-2.52-1.03-.69-.51-1.21-1.21-1.58-2.09-.37-.88-.56-2.04-.56-3.46v-31.99Z"/></g></g></svg>