<?xml version="1.0" encoding="UTF-8"?><svg id="Layer_2" xmlns="http://www.w3.org/2000/svg" viewBox="0 0 109.27 163.07"><defs><style>.cls-1{fill:#008cd2;}.cls-2{fill:#ffc000;}.cls-3{fill:#fbfffc;}.cls-4{fill:#ff7925;}.cls-5{fill:#8b6237;}.cls-6{fill:#271006;}</style></defs><g id="Graphic_Elements"><g><path class="cls-1" d="M109.27,123.29h0c0-14.01-11.35-25.36-25.36-25.36H25.36C11.35,97.93,0,109.28,0,123.29h0c0,18.29,12.91,34.16,30.88,37.57,7.64,1.45,15.59,2.21,23.76,2.21,8.17,0,16.12-.77,23.76-2.21,17.97-3.41,30.88-19.28,30.88-37.57Z"/><path class="cls-4" d="M29.41,90.08s6.25-4.41,24.46-4.47,25.24,4.47,25.24,4.47l-13.1,16.9-10.61,10.67-10.73-3.43-15.25-24.14Z"/><rect class="cls-3" x="46.44" y="104.25" width="15.41" height="9.15"/><path class="cls-5" d="M62.49,87.04v-10.08h-17.79v9.96c0,4.05-2.54,7.67-6.35,9.05l-.42,.15v6.88c10.74,4.1,21.1,4.46,31.01,0v-6.88s0,0,0,0c-3.86-1.35-6.45-5-6.45-9.09Z"/><path class="cls-2" d="M79.31,90.16c-.07-.03-.13-.06-.2-.09,0,0-13.3,3.77-18.23,13.71-4.93,9.94-6.62,9.2-6.62,9.2,0,0-1.69,.74-6.62-9.2-4.93-9.94-18.23-13.71-18.23-13.71-.07,.03-.13,.06-.2,.09-4.43,1.97-5.61,7.51-2.49,11.12,1.76,2.04,5.7,4.87,10.49,11.47,12.2,16.83,21.9,16.83,34.1,0,4.79-6.61,8.73-9.44,10.49-11.47,3.12-3.61,1.93-9.15-2.49-11.12Z"/><path class="cls-6" d="M92.19,46.58c0-3.21-2.04-5.93-4.88-6.97,1.17-1.31,1.89-3.04,1.89-4.94,0-2.81-1.56-5.25-3.85-6.51,1.38-1.35,2.24-3.23,2.24-5.31,0-4.1-3.33-7.43-7.43-7.43-.1,0-.2,.01-.31,.02,.03-.28,.05-.57,.05-.87,0-4.1-3.33-7.43-7.43-7.43-.01,0-.03,0-.04,0-1.09-2.75-3.77-4.69-6.9-4.69-1.64,0-3.15,.54-4.38,1.44-1.36-1.48-3.3-2.41-5.46-2.41-2.04,0-3.88,.82-5.22,2.15-1.3-2.17-3.66-3.62-6.37-3.62-4.01,0-7.27,3.18-7.42,7.16-.21-.02-.42-.03-.63-.03-3.59,0-6.59,2.55-7.28,5.94-.37-.06-.75-.1-1.14-.1-4.1,0-7.43,3.33-7.43,7.43,0,1.73,.6,3.31,1.58,4.58-2.21,1.29-3.7,3.68-3.7,6.42,0,1.62,.52,3.11,1.4,4.33-2.81,1.06-4.8,3.77-4.8,6.94,0,3.5,2.43,6.43,5.69,7.22-.11,.51-.17,1.03-.17,1.57,0,1.58,.5,3.05,1.34,4.25-.09,.47-.14,.96-.14,1.45,0,4.1,3.33,7.43,7.43,7.43,3,0,5.59-1.79,6.76-4.35,2.03,1.05,4.32,1.65,6.76,1.65h24.72c1.86,0,3.63-.36,5.27-.99,1.2,2.48,3.74,4.19,6.68,4.19,4.1,0,7.43-3.33,7.43-7.43,0-1.35-.36-2.6-.99-3.69,3.78-.35,6.74-3.52,6.74-7.39Z"/><path class="cls-5" d="M77.74,61.19c0,17.28-13.88,31.47-24.6,31.47s-23.24-14.19-23.24-31.47-2.35-30.06,23.24-30.06,24.6,12.78,24.6,30.06Z"/><rect class="cls-5" x="74.57" y="56" width="6.35" height="11.78" rx="2.72" ry="2.72"/><rect class="cls-5" x="26.67" y="56" width="6.35" height="11.78" rx="2.72" ry="2.72"/><path class="cls-6" d="M70.03,55.18H37.32c-.74,0-1.33,.6-1.33,1.33v.53c0,4.09,3.32,7.41,7.41,7.41s7.41-3.32,7.41-7.41h5.75c0,4.09,3.32,7.41,7.41,7.41s7.41-3.32,7.41-7.41v-.53c0-.74-.6-1.33-1.33-1.33Z"/><rect class="cls-6" x="50.85" y="76.1" width="5.89" height="1.93" rx=".83" ry=".83"/><g><circle class="cls-4" cx="66.15" cy="111.64" r="2.95"/><path class="cls-3" d="M67.38,111.77c0-.68-.55-1.23-1.23-1.23s-1.23,.55-1.23,1.23v37.78h.71v3.96c0,.29,.23,.52,.52,.52s.52-.23,.52-.52v-3.96h.71v-37.78Z"/></g><g><circle class="cls-4" cx="42.13" cy="111.77" r="2.95"/><path class="cls-3" d="M43.36,111.9c0-.68-.55-1.23-1.23-1.23s-1.23,.55-1.23,1.23v37.78h.71v3.96c0,.29,.23,.52,.52,.52s.52-.23,.52-.52v-3.96h.71v-37.78Z"/></g></g></g></svg>