<?xml version="1.0" encoding="UTF-8"?><svg id="Layer_2" xmlns="http://www.w3.org/2000/svg" viewBox="0 0 164 164"><defs><style>.cls-1{fill:#ffba00;}.cls-2{fill:#fefefe;}.cls-3{fill:#6c9321;}.cls-4{fill:#81c127;}.cls-5{opacity:.2;}</style></defs><g id="Graphic_Elements"><g><path class="cls-3" d="M18.09,0H122.67C132.65,0,140.76,8.11,140.76,18.09v110.22c0,9.98-8.11,18.09-18.09,18.09H25.49c-14.07,0-25.49-11.42-25.49-25.49V18.09C0,8.11,8.11,0,18.09,0Z"/><rect class="cls-1" x="102.36" y="71.7" width="35" height="21.45"/><path class="cls-1" d="M137.36,103.97V63.14c0-1.96,2.3-3.01,3.78-1.73l21.61,18.66c1.63,1.41,1.67,3.91,.1,5.38l-21.64,20.19c-1.46,1.36-3.85,.33-3.85-1.67Z"/><path class="cls-5" d="M102.68,19.81L33.36,2.89C23.95,.59,13.61,4.18,9.42,11.91c-1.27,2.35-1.99,4.97-1.99,7.75v110.86c0,7.78,5.4,12.68,13.35,15.81,.47,.02,.93,.06,1.41,.06H123.3V37.88c0-9.98-6-14.48-20.62-18.07Z"/><path class="cls-4" d="M89.47,163.31l-68.96-16.93c-11.7-2.84-20.51-8.09-20.51-18.07V17.46c0-2.77,.71-5.4,1.97-7.75C6.15,1.98,16.43-1.61,25.79,.69L94.75,17.61c14.54,3.59,20.51,8.09,20.51,18.07v110.86c0,2.77-.71,5.4-1.97,7.75-4.17,7.73-14.46,11.32-23.82,9.03Z"/><circle class="cls-2" cx="102.36" cy="93.57" r="5.94"/></g></g></svg>