<?xml version="1.0" encoding="UTF-8"?><svg id="Layer_2" xmlns="http://www.w3.org/2000/svg" viewBox="0 0 663.91 587.25"><defs><style>.cls-1{opacity:.1;}.cls-2{opacity:.4;}.cls-3{fill:#fff;opacity:.25;}</style></defs><g id="Layer_1-2"><g><path class="cls-1" d="m663.91,386.51c-100.44,130.94-347,141.96-474.53,82.26C98.47,426.2,104.14,423,0,423.97,0,423.97,0,517.03,0,517.03v70.22h663.91"/><g class="cls-2"><path class="cls-1" d="m581.67,454.52c-94.64-19.19-243.02-26.3-321.5,4.31-18.02,7.03-32.86,13.9-45.31,20.48,102.32,36.46,257.88,34.36,366.81-24.8Z"/></g><g class="cls-1"><path d="m425.16,437.99h-13.53c-.2-.51.1-.92.27-1.34,2.38-5.81,4.15-11.8,5.03-18.03.41-2.94.6-5.89.55-8.85-.02-1.3-.27-1.51-1.59-1.41-.54.04-1.07.13-1.61.15-6.28.14-11.56-2.16-15.89-6.66-.87-.91-1.74-1.26-2.99-1.22-5.73.17-10.43-2.14-14.07-6.46-4.89-5.79-6.22-12.53-4.78-19.88.15-.78.05-1.28-.59-1.82-2.4-2.04-3.78-4.69-4.36-7.76-.17-.89-.25-1.79-.37-2.69,0-.07,0-.13,0-.2.05-.36.12-.73.16-1.09.37-4.06,1.99-7.46,5.31-9.92.81-.6.93-1.09.56-2-2.07-5.11-2.4-10.35-.77-15.62,2.12-6.9,6.36-11.9,13.46-14.01,4.07-1.21,8.28-.49,12.43-.48.93,0,1.5-.07,2.1-.87,3.63-4.83,8.39-7.11,14.49-6.27.29.04.61.05.9,0,4.51-.71,8.45.54,11.93,3.42.29.24.55.52.95.53,1.28.03,2.54.32,3.83.17,4.76-.55,9.05.72,12.74,3.71,6.24,5.07,8.64,11.81,8.08,19.71-.06.85.05,1.37.91,1.75,1.55.69,2.91,1.7,4.1,2.9,4.65,4.72,6.38,10.44,5.51,16.93-.75,5.58-3.39,10.12-8.19,13.21-.93.6-1.1,1.14-.92,2.19,1.47,8.39-.47,15.8-6.68,21.81-3.87,3.74-8.57,5.45-13.99,5.05-2.61-.19-5.19-.21-7.21,1.9-.25.26-.59.46-.92.61-.72.33-.83.83-.67,1.56.56,2.5.83,5.05.88,7.61.17,8.19-1.81,15.94-5.03,23.41Z"/></g><g class="cls-1"><path d="m551.34,449.1c.16-.25-14.7-2.06-14.72-2.21,2.7-6.58,4.42-12.66,5.41-19.72.47-3.32.68-6.66.62-10.02-.02-1.48-.31-1.7-1.79-1.6-.61.04-1.21.15-1.82.16-7.11.15-13.08-2.45-17.98-7.53-.99-1.03-1.96-1.43-3.38-1.38-6.49.19-11.8-2.43-15.93-7.31-5.54-6.55-7.04-14.18-5.41-22.5.17-.88.06-1.44-.67-2.06-2.72-2.3-4.28-5.31-4.94-8.79-.19-1.01-.28-2.03-.42-3.04,0-.08,0-.15,0-.23.06-.41.14-.82.18-1.24.42-4.59,2.26-8.45,6.01-11.23.92-.68,1.05-1.23.64-2.27-2.35-5.78-2.71-11.71-.87-17.68,2.4-7.81,7.2-13.47,15.23-15.86,4.6-1.37,9.37-.55,14.07-.55,1.05,0,1.69-.08,2.37-.98,4.1-5.46,9.5-8.05,16.4-7.1.33.05.69.05,1.02,0,5.1-.8,9.57.61,13.5,3.87.32.27.63.59,1.08.6,1.44.03,2.87.36,4.33.2,5.39-.62,10.25.81,14.42,4.2,7.07,5.74,9.78,13.37,9.15,22.3-.07.96.06,1.55,1.03,1.98,1.75.78,3.29,1.92,4.64,3.29,5.27,5.34,7.22,11.82,6.23,19.16-.85,6.31-3.84,11.45-9.27,14.95-1.06.68-1.24,1.29-1.04,2.48,1.67,9.49-.53,17.88-7.56,24.68-4.38,4.24-9.7,6.17-15.84,5.71-2.96-.22-5.87-.24-8.16,2.15-.28.3-.67.52-1.04.69-.82.37-.94.94-.75,1.77.64,2.83.94,5.72,1,8.61.19,9.27-5.7,26.49-5.7,26.49Z"/></g><circle class="cls-3" cx="108.2" cy="153.01" r="5.8"/><circle class="cls-1" cx="253.21" cy="30.68" r="5.8"/><circle class="cls-1" cx="236.61" cy="194.03" r="4.6"/><circle class="cls-1" cx="98.17" cy="35.29" r="4.6"/><circle class="cls-1" cx="403.84" cy="198.63" r="5.57"/><circle class="cls-1" cx="549.21" cy="153.01" r="4.09"/><circle class="cls-1" cx="299.88" cy="271.35" r="18.59"/><circle class="cls-1" cx="452.24" cy="30.68" r="18.59"/><circle class="cls-1" cx="98.17" cy="352.33" r="18.63"/><circle class="cls-1" cx="269.53" cy="395.35" r="2.49"/><circle class="cls-1" cx="190.3" cy="343.34" r="2.49"/><circle class="cls-1" cx="309.06" cy="465.38" r="2.49"/><circle class="cls-1" cx="333.99" cy="343.34" r="5.23"/><circle class="cls-1" cx="477.5" cy="421.61" r="5.23"/><circle class="cls-1" cx="457.66" cy="271.35" r="5.42"/><circle class="cls-1" cx="599.95" cy="224.61" r="2.77"/><circle class="cls-1" cx="613.67" cy="136.56" r="2.77"/><circle class="cls-1" cx="348.26" cy="12.1" r="2.77"/><circle class="cls-1" cx="148.31" cy="112.17" r="2.32"/><circle class="cls-1" cx="241.21" cy="96.02" r="2.32"/><circle class="cls-1" cx="151.77" cy="2.32" r="2.32"/><circle class="cls-1" cx="54.59" cy="217.25" r="7.36"/><circle class="cls-1" cx="205.61" cy="407.78" r="7.49"/><circle class="cls-3" cx="205.61" cy="276.77" r="2.28"/><circle class="cls-1" cx="421.95" cy="83.49" r="2.28"/><circle class="cls-1" cx="108.2" cy="263.65" r="2.28"/><circle class="cls-1" cx="30.16" cy="318.54" r="2.28"/><circle class="cls-3" cx="332.25" cy="127.1" r="12.61"/><circle class="cls-1" cx="554.76" cy="96.02" r="3.48"/><circle class="cls-3" cx="610.89" cy="30.68" r="3.48"/><circle class="cls-3" cx="518.7" cy="224.61" r="3.48"/><circle class="cls-1" cx="536.94" cy="282.53" r="3.48"/><circle class="cls-1" cx="472.8" cy="131.86" r="4.7"/><circle class="cls-3" cx="621.53" cy="298.64" r="5.09"/><circle class="cls-1" cx="348.26" cy="421.61" r="6.34"/><path class="cls-1" d="m513.31,566.83c-5.11-11.32-10.74-20.61-16.57-28.27,3.19-2.6,6.78-4.98,10.84-7.02,0,0-6.18-.74-14.88,2.01-29.05-33.97-61.52-30.04-61.52-30.04,20.71,10.38,33.39,26.66,41.14,42.11-7.51,6.9-15.03,17.13-21.2,32.27-1.34-2.97-2.76-5.64-4.23-8.03,3.45-7.55,9.4-15.82,19.63-20.95,0,0-13.65-1.64-26.5,11.92-3.93-4.15-7.94-6.87-11.61-8.66,1.18-.77,2.43-1.49,3.76-2.15,0,0-2.94-.35-7.35.64-6.54-2.32-11.3-1.75-11.3-1.75,2.11,1.06,4.03,2.25,5.79,3.54-1.19.5-2.42,1.1-3.68,1.82-19.86-25.55-43.16-22.73-43.16-22.73,14.8,7.42,23.44,19.36,28.47,30.29-3.45.56-8.77,2.35-13.9,7.76-3.99-4.21-8.1-6.23-11.35-7.18,3.41-4.73,8.07-9.19,14.46-12.39,0,0-12.15-1.46-24.13,9.96-6.36-6.06-12.77-8.5-17.38-9.44.32-.17.63-.35.96-.52,0,0-1.46-.17-3.86.07-2.39-.24-3.84-.07-3.84-.07.33.16.63.35.95.52-4.79.98-11.51,3.57-18.11,10.17-6.6-6.59-13.32-9.19-18.11-10.17.32-.17.62-.35.95-.52,0,0-1.45-.17-3.84.07-2.4-.24-3.86-.07-3.86-.07.33.17.64.34.96.52-4.61.95-11.02,3.38-17.38,9.44-11.98-11.42-24.13-9.96-24.13-9.96,6.39,3.2,11.05,7.67,14.46,12.39-3.25.95-7.36,2.97-11.35,7.18-8.58-9.06-17.71-7.97-17.71-7.97,6.84,3.43,10.81,8.95,13.12,14-.98,1.6-1.93,3.38-2.83,5.37-6.26-15.36-14.6-23.15-21.85-27.09,5.25-8.45,12.95-16.72,24.21-22.37,0,0-20.6-2.49-39.56,18.44-.34.02-.53.04-.53.04.11.06.22.12.33.18-5.96,6.64-11.76,15.6-16.69,27.7-1.34-2.97-2.76-5.64-4.23-8.03,3.45-7.55,9.4-15.82,19.63-20.95,0,0-13.65-1.64-26.5,11.92-12.85-13.56-26.5-11.92-26.5-11.92,10.23,5.13,16.18,13.4,19.63,20.95-1.47,2.4-2.89,5.06-4.23,8.03-7.16-17.58-16.15-28.53-24.83-35.35,8.25-16.26,21.67-33.3,43.43-44.21,0,0-35.57-4.3-66.78,33.64-5.06-.82-8.28-.43-8.28-.43,2.09,1.05,4.06,2.19,5.91,3.4-7.49,9.7-14.66,21.94-20.96,37.38-22.93-50.76-60.01-46.27-60.01-46.27,36.3,18.2,38.87,61.18,38.87,61.18h54.78s.82-13.66,7.07-30.9c8.81,15.55,9.72,30.9,9.72,30.9h64.33s.78-13.07,7.82-27.31c10.2,12.13,11.12,27.31,11.12,27.31h231.25s.71-11.83,6.84-25.24c4.68,14.37,5.34,25.24,5.34,25.24h74.96s5.1-85.48,77.28-121.66c0,0-78.17-9.47-123.3,101.25Z"/></g></g></svg>